<svg xmlns="http://www.w3.org/2000/svg" viewBox="0 0 154.5 253.5"><defs><style>.cls-1{fill:#2b56a4;}.cls-2{fill:#f6892d;}.cls-3,.cls-4{fill:none;}.cls-3{stroke:#d02229;}.cls-4{stroke:#000;stroke-miterlimit:10;stroke-width:0.5px;}</style></defs><g id="Capa_2" data-name="Capa 2"><g id="Layer_1" data-name="Layer 1"><path class="cls-1" d="M51.17,22.32H48.35V22a1.21,1.21,0,0,0,.31-.11.39.39,0,0,0,.18-.18.88.88,0,0,0,.07-.27c0-.12,0-.26,0-.43V16.34c0-.17,0-.31,0-.43a.77.77,0,0,0-.07-.28.4.4,0,0,0-.17-.17,1,1,0,0,0-.32-.12V15h3.13a5.59,5.59,0,0,1,1.08.09,2.79,2.79,0,0,1,.77.27,1.83,1.83,0,0,1,.48.38,1.71,1.71,0,0,1,.29.53,2.2,2.2,0,0,1,.11.71,1.93,1.93,0,0,1-.19.9,1.82,1.82,0,0,1-.5.63,3.39,3.39,0,0,1-.84.47V19a1.9,1.9,0,0,1,.66.46,2.87,2.87,0,0,1,.47.73l.34.73a2.72,2.72,0,0,0,.45.73.84.84,0,0,0,.53.3v.36H53.06a8.15,8.15,0,0,1-.7-1.28l-.42-.92a4.22,4.22,0,0,0-.32-.58.86.86,0,0,0-.28-.24,1.22,1.22,0,0,0-.44-.06h-.31V21a2.44,2.44,0,0,0,0,.56.44.44,0,0,0,.14.26,1.09,1.09,0,0,0,.4.17Zm-.58-6.7v3h.53a1.81,1.81,0,0,0,.71-.12,1,1,0,0,0,.44-.32,1.19,1.19,0,0,0,.23-.48,3,3,0,0,0,.06-.62A1.53,1.53,0,0,0,52.22,16a1.35,1.35,0,0,0-1-.37Z"/><path class="cls-1" d="M61,15v1.71h-.74a3.53,3.53,0,0,0-.3-.69.89.89,0,0,0-.3-.28,1.16,1.16,0,0,0-.58-.11H57.87v2.58h.71a.79.79,0,0,0,.37-.07.52.52,0,0,0,.22-.22,1.71,1.71,0,0,0,.17-.48H60V19.6h-.61a2,2,0,0,0-.17-.48.55.55,0,0,0-.22-.23.74.74,0,0,0-.37-.07h-.71v2.87H59a1.45,1.45,0,0,0,.32,0,.57.57,0,0,0,.23-.08.94.94,0,0,0,.2-.16,1.12,1.12,0,0,0,.16-.22,2.86,2.86,0,0,0,.16-.31c0-.13.11-.31.17-.53H61l-.1,2H55.63V22a1.21,1.21,0,0,0,.31-.11.33.33,0,0,0,.17-.18.66.66,0,0,0,.08-.27c0-.12,0-.26,0-.43V16.34c0-.17,0-.31,0-.43a.77.77,0,0,0-.07-.28.46.46,0,0,0-.17-.17,1.07,1.07,0,0,0-.32-.12V15Z"/><path class="cls-1" d="M67.32,15.15v1.56h-.74a1.84,1.84,0,0,0-.4-.9,1,1,0,0,0-.73-.28,1.39,1.39,0,0,0-1.29.81,5.29,5.29,0,0,0-.43,2.42A5.1,5.1,0,0,0,64.12,21a1.26,1.26,0,0,0,1.17.76,1.35,1.35,0,0,0,.64-.13,1,1,0,0,0,.39-.39,2.85,2.85,0,0,0,.26-.74h.74v1.62c-.4.1-.76.16-1.08.21a8.47,8.47,0,0,1-1,.06A3.63,3.63,0,0,1,63.4,22a2.48,2.48,0,0,1-1-1.22A5.52,5.52,0,0,1,62,18.72a4.85,4.85,0,0,1,.39-2,2.93,2.93,0,0,1,1.17-1.33,3.37,3.37,0,0,1,1.83-.47,7.41,7.41,0,0,1,1,.06A6.86,6.86,0,0,1,67.32,15.15Z"/><path class="cls-1" d="M73,16.33a2.44,2.44,0,0,0,0-.56.5.5,0,0,0-.13-.25.88.88,0,0,0-.4-.18V15h2.36v.36a1.12,1.12,0,0,0-.3.11.45.45,0,0,0-.18.18.88.88,0,0,0-.07.28c0,.11,0,.25,0,.42v3.36a5,5,0,0,1-.1,1.11,2.22,2.22,0,0,1-.34.76,1.66,1.66,0,0,1-.56.49,2.23,2.23,0,0,1-.75.27,5.4,5.4,0,0,1-.94.08,4.36,4.36,0,0,1-1.29-.16,2,2,0,0,1-.86-.47,2.11,2.11,0,0,1-.49-.78,3.82,3.82,0,0,1-.16-1.18V16.34c0-.17,0-.31,0-.43a.77.77,0,0,0-.07-.28.4.4,0,0,0-.17-.17,1,1,0,0,0-.32-.12V15H71v.36a1.07,1.07,0,0,0-.33.13.33.33,0,0,0-.15.16.57.57,0,0,0-.08.25c0,.11,0,.26,0,.46v3.54a6.14,6.14,0,0,0,0,.78,1.77,1.77,0,0,0,.2.6,1,1,0,0,0,.39.38,1.39,1.39,0,0,0,.65.13,1.26,1.26,0,0,0,.82-.22,1.13,1.13,0,0,0,.38-.61A4.88,4.88,0,0,0,73,19.76Z"/><path class="cls-1" d="M78.55,22.32H75.73V22a1.37,1.37,0,0,0,.31-.11.37.37,0,0,0,.17-.18.67.67,0,0,0,.07-.27c0-.12,0-.26,0-.43V16.34c0-.17,0-.31,0-.43a1,1,0,0,0-.07-.28.42.42,0,0,0-.18-.17.91.91,0,0,0-.31-.12V15h3.13a5.41,5.41,0,0,1,1.07.09,2.75,2.75,0,0,1,.78.27,1.78,1.78,0,0,1,.47.38,1.73,1.73,0,0,1,.3.53,2.21,2.21,0,0,1,.1.71,2.06,2.06,0,0,1-.18.9,1.82,1.82,0,0,1-.5.63,3.59,3.59,0,0,1-.84.47V19a2.11,2.11,0,0,1,.66.46,3.17,3.17,0,0,1,.47.73l.34.73a3,3,0,0,0,.44.73.87.87,0,0,0,.53.3v.36H80.44A8.06,8.06,0,0,1,79.73,21l-.42-.92a2.79,2.79,0,0,0-.32-.58.77.77,0,0,0-.28-.24,1.16,1.16,0,0,0-.43-.06H78V21a3.51,3.51,0,0,0,0,.56.51.51,0,0,0,.15.26,1,1,0,0,0,.4.17ZM78,15.62v3h.53a1.85,1.85,0,0,0,.71-.12,1,1,0,0,0,.44-.32,1.17,1.17,0,0,0,.22-.48,2.4,2.4,0,0,0,.07-.62A1.53,1.53,0,0,0,79.59,16a1.35,1.35,0,0,0-1-.37Z"/><path class="cls-1" d="M83.67,20.51a1.88,1.88,0,0,0,.45.95,1.25,1.25,0,0,0,.92.31,1.45,1.45,0,0,0,.57-.1.93.93,0,0,0,.41-.35,1.11,1.11,0,0,0,.15-.6,1.34,1.34,0,0,0-.12-.58,1.52,1.52,0,0,0-.4-.46,4.66,4.66,0,0,0-.76-.47,7.62,7.62,0,0,1-.76-.43,3.17,3.17,0,0,1-.58-.5,2.16,2.16,0,0,1-.37-.59,1.9,1.9,0,0,1-.13-.73,1.88,1.88,0,0,1,.33-1.12,2,2,0,0,1,1-.7,3.93,3.93,0,0,1,1.43-.24,9,9,0,0,1,.92,0,7.52,7.52,0,0,1,1,.18v1.56h-.74a2,2,0,0,0-.26-.68.9.9,0,0,0-.39-.36,1.54,1.54,0,0,0-1.14,0,1,1,0,0,0-.39.32,1,1,0,0,0-.14.52,1.08,1.08,0,0,0,.13.54,1.34,1.34,0,0,0,.4.44A5.77,5.77,0,0,0,86,18a5.69,5.69,0,0,1,1,.67,2.2,2.2,0,0,1,.56.72,2.14,2.14,0,0,1,.17.91,2.17,2.17,0,0,1-.3,1.15,1.93,1.93,0,0,1-.89.74,3.21,3.21,0,0,1-1.36.26q-.54,0-1.14-.06a9.19,9.19,0,0,1-1.11-.18V20.51Z"/><path class="cls-1" d="M91.86,22.4a3,3,0,0,1-2.37-.92,4.16,4.16,0,0,1-.79-2.77,5.12,5.12,0,0,1,.38-2.06,2.87,2.87,0,0,1,1.14-1.31A3.44,3.44,0,0,1,92,14.9a3.07,3.07,0,0,1,2.42.92,4.09,4.09,0,0,1,.8,2.74A5.63,5.63,0,0,1,95,20.3a3.07,3.07,0,0,1-.68,1.19,2.57,2.57,0,0,1-1.05.69A4,4,0,0,1,91.86,22.4Zm-1.45-3.83A5.7,5.7,0,0,0,90.8,21a1.25,1.25,0,0,0,1.19.79,1.1,1.1,0,0,0,.7-.22,1.57,1.57,0,0,0,.47-.62,3.45,3.45,0,0,0,.26-.95,9,9,0,0,0,.08-1.2A8.1,8.1,0,0,0,93.33,17a2.26,2.26,0,0,0-.51-1.09,1.13,1.13,0,0,0-.87-.37,1.23,1.23,0,0,0-1.16.74A5.19,5.19,0,0,0,90.41,18.57Z"/><path class="cls-1" d="M101.45,15v.36a.8.8,0,0,0-.36.11.35.35,0,0,0-.11.28.79.79,0,0,0,0,.2,2.16,2.16,0,0,0,.13.28,4.76,4.76,0,0,0,.29.5l.49.84.65-1a2.62,2.62,0,0,0,.29-.49.86.86,0,0,0,.07-.36.32.32,0,0,0-.11-.27.55.55,0,0,0-.33-.13V15h2.22v.36a1,1,0,0,0-.3.14,1.79,1.79,0,0,0-.32.31c-.12.15-.32.41-.59.8l-1.16,1.65,1.75,2.89.19.29a2.7,2.7,0,0,0,.18.25.8.8,0,0,0,.16.16.51.51,0,0,0,.13.09l.13,0v.36h-3V22a.72.72,0,0,0,.35-.11.35.35,0,0,0,.11-.28.69.69,0,0,0,0-.13,1,1,0,0,0-.06-.19l-.09-.19a3.3,3.3,0,0,1-.19-.32l-.75-1.23-.87,1.3a2.33,2.33,0,0,0-.17.28,1.12,1.12,0,0,0-.1.24.9.9,0,0,0,0,.25.32.32,0,0,0,.12.25.53.53,0,0,0,.33.13v.36H98.32V22a1.07,1.07,0,0,0,.32-.16,1.92,1.92,0,0,0,.32-.32c.12-.14.28-.36.48-.65l1.4-2-1.35-2.25c-.15-.24-.27-.45-.38-.61a4.28,4.28,0,0,0-.26-.37,1.48,1.48,0,0,0-.19-.18.68.68,0,0,0-.2-.07V15Z"/><path class="cls-2" d="M61.46,148.34c-.86-.19-1.41-.26-1.93-.42-3.3-1.06-6.59-2.17-9.9-3.19-1-.32-1.52-.78-1.45-1.92.18-2.88-.08-5.84.49-8.63.72-3.49,3.18-5.68,6.78-6.4,2.49-.5,4.7-1.32,5.54-4.12,1.49-5-3.87-11.35-9-10.68a4.37,4.37,0,0,0-4,4.39c-.07,1.46,0,2.93,0,4.69-1.22-.29-2.19-.49-3.15-.76-2.89-.83-5.77-1.72-8.68-2.51-1-.28-1.59-.79-1.51-1.9a6.88,6.88,0,0,0,0-1.2c-.76-7.29,3.7-9.75,9.11-10.59,7.29-1.12,13.85,1,20,4.72a29.33,29.33,0,0,1,9.46,8.48,12.61,12.61,0,0,1,2.37,8.2c-.27,3.6-2.37,5.95-5.41,7.54a22.86,22.86,0,0,1-3.64,1.46c-3.76,1.16-5.05,2.85-5.07,6.85,0,1.91,0,3.83,0,6"/><path class="cls-2" d="M65.57,74.62a9.7,9.7,0,0,1,5.8-2.77,49.39,49.39,0,0,1,17,.3,125.69,125.69,0,0,1,13.44,3.61,12.6,12.6,0,0,1,3.94,2.31c1.71,1.34,1.67,3-.28,3.93a24.6,24.6,0,0,1-6.64,1.93,60.13,60.13,0,0,1-8.17.47c-3.7.06-7.13.78-9.87,3.46a3.69,3.69,0,0,1-4,.92c-2.89-.83-5.86-1.4-8.79-2.09-.64-.15-1.27-.35-2.25-.62,2.29-1.94,4.35-3.7,7-4.24,3.32-.68,6.71-1,10.08-1.43,2.53-.28,5.12-.2,7.61-.65,1-.19,1.93-1.34,2.89-2-.91-.76-1.7-1.9-2.74-2.19-4.15-1.15-8.29-1.49-12.07,1.31a2.44,2.44,0,0,1-1.71.43c-3.45-.67-6.89-1.45-10.33-2.21a4.12,4.12,0,0,1-.86-.42"/><path class="cls-2" d="M107,141.55a37.29,37.29,0,0,1,1.8-15.84c1.11-3.22,2.72-6.26,3.82-9.47a65.51,65.51,0,0,0,1.84-7.77,4.18,4.18,0,0,0-.2-1.84c-.31-1.15-1.1-1.44-1.8-.46a14.29,14.29,0,0,0-2.2,4.17c-.67,2.51-.89,5.13-1.41,7.68a6.47,6.47,0,0,1-1.12,2.7c-1.28,1.59-2.74,3-4.16,4.52a16.21,16.21,0,0,1-1.34,1.12l-.48-.19a49.06,49.06,0,0,1,.35-5.83A44,44,0,0,1,110.57,101a20.92,20.92,0,0,1,4-3.93c2.8-2.12,5.57-.85,6,2.61.55,4.64-.63,9-2.13,13.33s-3.24,8.47-4.53,12.81c-.68,2.31-.53,4.85-.92,7.26a7.51,7.51,0,0,1-1.19,3,49.65,49.65,0,0,1-3.5,4.18c-.39.45-.85.83-1.27,1.24"/><path class="cls-2" d="M61.43,160.6c0,3-1.77,4.62-4.78,4.4-4.13-.31-8.16-4.56-8.23-8.7a4.11,4.11,0,0,1,4.31-4.44c4.27,0,8.69,4.46,8.7,8.74"/><path class="cls-2" d="M64.66,96.33a63.94,63.94,0,0,1-6.23-1.64,3,3,0,0,1-1.72-2,2.92,2.92,0,0,1,1.58-2.1A14.32,14.32,0,0,1,71,90.71c2.07,1,2.09,2.84,0,3.8a44.38,44.38,0,0,1-6.28,1.82"/><path class="cls-2" d="M105.4,154.08a20.66,20.66,0,0,1,2.75-9,6.41,6.41,0,0,1,1-1.33c1.2-1.17,2.38-.92,2.46.71a20.73,20.73,0,0,1-.57,6.19,22.07,22.07,0,0,1-2.52,5.34c-.36.6-1.32.85-2,1.27-.38-.71-.8-1.41-1.14-2.14a3.31,3.31,0,0,1,0-1.09"/><polygon class="cls-3" points="96.75 108.33 23.4 88.84 62.73 65.81 129.77 77 96.75 108.33"/><polygon class="cls-3" points="27.3 155.81 93.91 179.54 96.75 108.88 22.64 89.47 27.3 155.81"/><polygon class="cls-3" points="130.19 77.85 123.82 141.35 94.9 178.77 97.26 108.88 130.19 77.85"/><path d="M11.56,202.62a1.94,1.94,0,0,0,.25.64.92.92,0,0,0,.41.35,1.51,1.51,0,0,0,.65.12,1.15,1.15,0,0,0,.83-.29,1.09,1.09,0,0,0,.29-.82,1.32,1.32,0,0,0-.12-.59,1.34,1.34,0,0,0-.4-.44,5.67,5.67,0,0,0-.83-.49,4.3,4.3,0,0,1-.86-.53,1.71,1.71,0,0,1-.47-.55,1.46,1.46,0,0,1-.16-.66,1.64,1.64,0,0,1,.25-.9,1.56,1.56,0,0,1,.71-.6,2.81,2.81,0,0,1,1.08-.2q.36,0,.69,0a6.91,6.91,0,0,1,.84.17v1.25h-.46a1.86,1.86,0,0,0-.27-.63.82.82,0,0,0-.38-.32,1.46,1.46,0,0,0-.56-.09,1.3,1.3,0,0,0-.54.11.84.84,0,0,0-.38.34.91.91,0,0,0-.14.53,1.19,1.19,0,0,0,.12.56,1.3,1.3,0,0,0,.37.42,4,4,0,0,0,.74.44,5.41,5.41,0,0,1,.92.55,1.86,1.86,0,0,1,.51.58,1.55,1.55,0,0,1,.18.76,2.05,2.05,0,0,1-.15.83,1.34,1.34,0,0,1-.43.54,1.66,1.66,0,0,1-.64.31,3.63,3.63,0,0,1-.83.1,7,7,0,0,1-1.68-.25v-1.27Z"/><path d="M15.74,203.83a1.81,1.81,0,0,0,.26-.09.49.49,0,0,0,.13-.12.76.76,0,0,0,.08-.23,2.67,2.67,0,0,0,0-.47v-2c0-.19,0-.35,0-.48a.55.55,0,0,0-.06-.28A.4.4,0,0,0,16,200l-.32-.09v-.24l1.08,0H17v3.32a2.44,2.44,0,0,0,0,.56.36.36,0,0,0,.14.23.84.84,0,0,0,.34.14v.23H15.74Zm1.33-6v.9h-.86v-.9Z"/><path d="M30.22,203.27a3.81,3.81,0,0,1-.55.49,2.13,2.13,0,0,1-.54.28,2.28,2.28,0,0,1-.66.1,1.75,1.75,0,0,1-1.44-.58,2.51,2.51,0,0,1-.49-1.69,2.77,2.77,0,0,1,.25-1.22,2,2,0,0,1,2.56-1,1.35,1.35,0,0,1,.53.4,2.07,2.07,0,0,1,.31.65,4.45,4.45,0,0,1,.12,1H27.39v.09a3.07,3.07,0,0,0,.12.92,1.17,1.17,0,0,0,.4.58,1.19,1.19,0,0,0,.73.21,1.55,1.55,0,0,0,.69-.14,2,2,0,0,0,.6-.46Zm-.78-1.88a3.35,3.35,0,0,0-.13-.82,1,1,0,0,0-.29-.49.77.77,0,0,0-.51-.17.89.89,0,0,0-.76.39,2,2,0,0,0-.34,1.09Z"/><path d="M32.38,202.9a2.44,2.44,0,0,0,0,.56.36.36,0,0,0,.14.23.84.84,0,0,0,.34.14v.23H31.06v-.23a1.2,1.2,0,0,0,.32-.12.33.33,0,0,0,.13-.16.7.7,0,0,0,.06-.24c0-.11,0-.24,0-.41v-4.5a2,2,0,0,0,0-.3.57.57,0,0,0-.08-.19.44.44,0,0,0-.15-.12l-.32-.08v-.24l1.11-.05h.28Z"/><path d="M43.11,203.92v1c0,.2,0,.35,0,.45a.57.57,0,0,0,.07.23.46.46,0,0,0,.16.15,1.35,1.35,0,0,0,.32.1v.23H41.79v-.23a1.18,1.18,0,0,0,.27-.1.36.36,0,0,0,.16-.14.74.74,0,0,0,.07-.26c0-.11,0-.25,0-.43v-4c0-.22,0-.38,0-.47a1.19,1.19,0,0,0,0-.24.36.36,0,0,0-.08-.15A.3.3,0,0,0,42,200a1.38,1.38,0,0,0-.3-.09v-.24l1.09,0h.28l-.06.76.07,0a3.63,3.63,0,0,1,.46-.42,1.85,1.85,0,0,1,.34-.23,1.82,1.82,0,0,1,.35-.12,1.78,1.78,0,0,1,.35,0,1.33,1.33,0,0,1,1.17.58,2.8,2.8,0,0,1,.41,1.67,3.27,3.27,0,0,1-.23,1.29,1.59,1.59,0,0,1-.68.78,2,2,0,0,1-1,.27,2.9,2.9,0,0,1-.62-.06A2.35,2.35,0,0,1,43.11,203.92Zm0-1.53a3.9,3.9,0,0,0,0,.69.9.9,0,0,0,.2.39.89.89,0,0,0,.34.23,1.62,1.62,0,0,0,.5.07.93.93,0,0,0,.85-.47,2.67,2.67,0,0,0,.28-1.37c0-1.21-.35-1.82-1.06-1.82a1,1,0,0,0-.82.34,1.32,1.32,0,0,0-.27.35.94.94,0,0,0-.07.37Z"/><path d="M48.39,200.4h.06a3.75,3.75,0,0,1,.47-.49,1.64,1.64,0,0,1,.48-.27,1.42,1.42,0,0,1,.57-.1,3.68,3.68,0,0,1,.49,0v1.06h-.53a1.06,1.06,0,0,0-.23-.36.5.5,0,0,0-.35-.12.7.7,0,0,0-.33.1,1.22,1.22,0,0,0-.32.29,1.16,1.16,0,0,0-.21.34,1.14,1.14,0,0,0-.06.39v1.62a2.37,2.37,0,0,0,0,.58.44.44,0,0,0,.17.24.9.9,0,0,0,.36.11v.23H47.14v-.23a1.59,1.59,0,0,0,.25-.09.37.37,0,0,0,.13-.12.55.55,0,0,0,.09-.23,2.67,2.67,0,0,0,0-.47v-2c0-.19,0-.35,0-.48a.67.67,0,0,0-.07-.28.35.35,0,0,0-.17-.17,1.9,1.9,0,0,0-.32-.09v-.24l1.09,0h.28Z"/><path d="M53.08,204.14a1.87,1.87,0,0,1-1.47-.57,2.45,2.45,0,0,1-.51-1.68,2.84,2.84,0,0,1,.27-1.3,1.73,1.73,0,0,1,.73-.78,2.06,2.06,0,0,1,1.06-.26,1.88,1.88,0,0,1,1.5.58,2.4,2.4,0,0,1,.51,1.65,3,3,0,0,1-.26,1.3,1.69,1.69,0,0,1-.72.79A2.17,2.17,0,0,1,53.08,204.14ZM52,201.79a3,3,0,0,0,.3,1.47,1,1,0,0,0,.87.51.92.92,0,0,0,.53-.15,1.18,1.18,0,0,0,.35-.41,2,2,0,0,0,.2-.59,4,4,0,0,0,.06-.7,3.59,3.59,0,0,0-.15-1.13,1.41,1.41,0,0,0-.41-.66.92.92,0,0,0-.59-.22,1,1,0,0,0-.86.49A2.68,2.68,0,0,0,52,201.79Z"/><path d="M57.27,200.36h0a4.08,4.08,0,0,1,.54-.49,2.17,2.17,0,0,1,.45-.24,1.59,1.59,0,0,1,.5-.08,1.41,1.41,0,0,1,.85.26,1.55,1.55,0,0,1,.55.75,3.48,3.48,0,0,1,.19,1.24,3.05,3.05,0,0,1-.23,1.28,1.69,1.69,0,0,1-.67.79,2,2,0,0,1-1.06.27,3.32,3.32,0,0,1-.65-.07,2.56,2.56,0,0,1-.64-.22l-.32.29-.32-.08v-5c0-.3,0-.5,0-.62a2,2,0,0,0,0-.3.57.57,0,0,0-.08-.19.44.44,0,0,0-.15-.12l-.32-.08v-.24l1.12-.05h.27Zm0,2a2.91,2.91,0,0,0,0,.57,1,1,0,0,0,.1.35,1.1,1.1,0,0,0,.23.26,1,1,0,0,0,.32.16,2.59,2.59,0,0,0,.41,0,.92.92,0,0,0,.84-.46A2.57,2.57,0,0,0,59.5,202a2.94,2.94,0,0,0-.26-1.38.85.85,0,0,0-.79-.46,1.17,1.17,0,0,0-.45.08,1.21,1.21,0,0,0-.37.25,1.54,1.54,0,0,0-.27.34.79.79,0,0,0-.09.38Z"/><path d="M62.54,202.9a3.21,3.21,0,0,0,0,.56.41.41,0,0,0,.14.23.91.91,0,0,0,.34.14v.23H61.22v-.23a1.07,1.07,0,0,0,.32-.12.33.33,0,0,0,.13-.16.7.7,0,0,0,.06-.24c0-.11,0-.24,0-.41V199c0-.3,0-.5,0-.62a2,2,0,0,0,0-.3.57.57,0,0,0-.08-.19.44.44,0,0,0-.15-.12l-.32-.08v-.24l1.12-.05h.27Z"/><path d="M67.59,203.27a4.43,4.43,0,0,1-.54.49,2.19,2.19,0,0,1-.55.28,2.27,2.27,0,0,1-.65.1,1.79,1.79,0,0,1-1.45-.58,2.56,2.56,0,0,1-.48-1.69,2.92,2.92,0,0,1,.24-1.22,1.94,1.94,0,0,1,.71-.81,1.9,1.9,0,0,1,1.06-.29,1.94,1.94,0,0,1,.8.15,1.32,1.32,0,0,1,.52.4,1.71,1.71,0,0,1,.31.65,4.45,4.45,0,0,1,.12,1H64.76v.09a3.07,3.07,0,0,0,.12.92,1.18,1.18,0,0,0,.41.58,1.17,1.17,0,0,0,.73.21,1.51,1.51,0,0,0,.68-.14,2,2,0,0,0,.61-.46Zm-.78-1.88a4,4,0,0,0-.12-.82,1.14,1.14,0,0,0-.3-.49.77.77,0,0,0-.51-.17.9.9,0,0,0-.76.39,2.1,2.1,0,0,0-.34,1.09Z"/><path d="M69.77,200.34l.07,0a3.86,3.86,0,0,1,.45-.42,3,3,0,0,1,.35-.23,1.51,1.51,0,0,1,.31-.12,1.54,1.54,0,0,1,.3,0,1.22,1.22,0,0,1,.76.22,1.1,1.1,0,0,1,.4.65,7.14,7.14,0,0,1,.56-.52,2,2,0,0,1,.44-.26,1.33,1.33,0,0,1,.49-.09,1.4,1.4,0,0,1,.53.09,1.08,1.08,0,0,1,.39.28,1.28,1.28,0,0,1,.22.47,3.11,3.11,0,0,1,.07.76v1.75a2.62,2.62,0,0,0,0,.49.53.53,0,0,0,.06.21.44.44,0,0,0,.14.13,1.17,1.17,0,0,0,.29.1v.23H73.81v-.23a1.81,1.81,0,0,0,.26-.09.37.37,0,0,0,.13-.12.55.55,0,0,0,.09-.23,2.67,2.67,0,0,0,0-.47V201.7c0-.26,0-.48,0-.65a2.63,2.63,0,0,0-.07-.41.73.73,0,0,0-.25-.39.4.4,0,0,0-.18-.1.78.78,0,0,0-.29,0,.8.8,0,0,0-.34.07,1.65,1.65,0,0,0-.35.25,1.21,1.21,0,0,0-.27.36.93.93,0,0,0-.08.42v1.69a2.92,2.92,0,0,0,0,.49.52.52,0,0,0,.07.21.32.32,0,0,0,.13.13,1.28,1.28,0,0,0,.3.1v.23H71.16v-.23a1.81,1.81,0,0,0,.26-.09.37.37,0,0,0,.13-.12.55.55,0,0,0,.09-.23,2.67,2.67,0,0,0,0-.47V201.7a6.19,6.19,0,0,0,0-.67,1.53,1.53,0,0,0-.07-.42.73.73,0,0,0-.12-.25.55.55,0,0,0-.16-.15.75.75,0,0,0-.18-.08l-.24,0a.74.74,0,0,0-.36.09,1.18,1.18,0,0,0-.34.24,1,1,0,0,0-.26.34.85.85,0,0,0-.09.38v1.74c0,.18,0,.31,0,.41a.87.87,0,0,0,0,.21.32.32,0,0,0,.08.13l.13.09.26.09v.23H68.52v-.23a2.42,2.42,0,0,0,.26-.09.49.49,0,0,0,.13-.12.56.56,0,0,0,.08-.23,2.67,2.67,0,0,0,0-.47v-2c0-.19,0-.35,0-.48a.9.9,0,0,0-.06-.28.4.4,0,0,0-.17-.17l-.33-.09v-.24l1.09,0h.28Z"/><path d="M79.1,203.4l-.07,0a2.71,2.71,0,0,1-.75.58,1.67,1.67,0,0,1-.76.18,1.38,1.38,0,0,1-.62-.14.91.91,0,0,1-.41-.39,1.05,1.05,0,0,1-.15-.57,1.17,1.17,0,0,1,.67-1,4.87,4.87,0,0,1,2-.42v-.31a2.58,2.58,0,0,0-.09-.76.72.72,0,0,0-.29-.4.93.93,0,0,0-.53-.13.87.87,0,0,0-.59.19,1.2,1.2,0,0,0-.33.57h-.61v-.61c.3-.15.55-.26.75-.34a4,4,0,0,1,.59-.17,3.05,3.05,0,0,1,.6-.06,1.68,1.68,0,0,1,.74.14.92.92,0,0,1,.42.45,2.34,2.34,0,0,1,.14.91v2.1a1.09,1.09,0,0,0,0,.26.58.58,0,0,0,.07.19.44.44,0,0,0,.14.13,1.17,1.17,0,0,0,.29.1v.23H79.08ZM79,202a3.23,3.23,0,0,0-1.41.25.77.77,0,0,0-.46.72.73.73,0,0,0,.1.42.56.56,0,0,0,.27.21,1.14,1.14,0,0,0,.39.06,1.1,1.1,0,0,0,.57-.15,1.15,1.15,0,0,0,.4-.39.88.88,0,0,0,.14-.47Z"/><path d="M90.44,200.4h.07a3.2,3.2,0,0,1,.47-.49,1.59,1.59,0,0,1,.47-.27,1.48,1.48,0,0,1,.57-.1,3.58,3.58,0,0,1,.49,0v1.06H92a1.24,1.24,0,0,0-.24-.36.47.47,0,0,0-.34-.12.77.77,0,0,0-.34.1,1.37,1.37,0,0,0-.31.29,1,1,0,0,0-.21.34,1.14,1.14,0,0,0-.06.39v1.62a2.37,2.37,0,0,0,.05.58.4.4,0,0,0,.17.24.9.9,0,0,0,.35.11v.23H89.19v-.23a1.81,1.81,0,0,0,.26-.09.49.49,0,0,0,.13-.12.56.56,0,0,0,.08-.23,2.67,2.67,0,0,0,0-.47v-2c0-.19,0-.35,0-.48a.69.69,0,0,0-.06-.28.4.4,0,0,0-.17-.17l-.33-.09v-.24l1.09,0h.28Z"/><path d="M96.82,203.27a3.32,3.32,0,0,1-.54.49,2.31,2.31,0,0,1-.54.28,2.28,2.28,0,0,1-.66.1,1.75,1.75,0,0,1-1.44-.58,2.51,2.51,0,0,1-.49-1.69,2.77,2.77,0,0,1,.25-1.22,1.81,1.81,0,0,1,.71-.81,1.86,1.86,0,0,1,1-.29,1.9,1.9,0,0,1,.8.15,1.35,1.35,0,0,1,.53.4,1.86,1.86,0,0,1,.3.65,3.9,3.9,0,0,1,.13,1H94v.09a3,3,0,0,0,.13.92,1.11,1.11,0,0,0,.4.58,1.19,1.19,0,0,0,.73.21,1.55,1.55,0,0,0,.69-.14,2,2,0,0,0,.6-.46Zm-.77-1.88a3.35,3.35,0,0,0-.13-.82,1,1,0,0,0-.29-.49.77.77,0,0,0-.51-.17.91.91,0,0,0-.77.39,2,2,0,0,0-.33,1.09Z"/><path d="M102.2,206.06h-1.89v-.23a1.53,1.53,0,0,0,.32-.1.36.36,0,0,0,.15-.15.56.56,0,0,0,.08-.23,4.24,4.24,0,0,0,0-.45v-1.6a3.2,3.2,0,0,1-.47.45,1.64,1.64,0,0,1-.48.28,1.47,1.47,0,0,1-.56.11,1.35,1.35,0,0,1-1.17-.57,2.82,2.82,0,0,1-.42-1.67,2.87,2.87,0,0,1,.27-1.3,1.85,1.85,0,0,1,.75-.79,2.26,2.26,0,0,1,1.1-.26,2.61,2.61,0,0,1,.59.06,2.74,2.74,0,0,1,.55.22l.32-.28.32.07v5.28a2.56,2.56,0,0,0,0,.43.74.74,0,0,0,.07.26.36.36,0,0,0,.16.14,1.18,1.18,0,0,0,.27.1Zm-1.32-4.76a2.88,2.88,0,0,0-.06-.67.88.88,0,0,0-.19-.4.79.79,0,0,0-.31-.24,1.14,1.14,0,0,0-.43-.07,1,1,0,0,0-.92.48,2.49,2.49,0,0,0-.31,1.36,2.84,2.84,0,0,0,.25,1.35.85.85,0,0,0,.78.47,1.06,1.06,0,0,0,.33,0,1,1,0,0,0,.27-.11,1.53,1.53,0,0,0,.27-.21,1,1,0,0,0,.19-.25,1.18,1.18,0,0,0,.1-.25,1.9,1.9,0,0,0,0-.37Z"/><path d="M102.84,199.63h1.32V202a5.74,5.74,0,0,0,0,.82,1.51,1.51,0,0,0,.12.43.69.69,0,0,0,.24.24.73.73,0,0,0,.42.1.8.8,0,0,0,.34-.07,1.6,1.6,0,0,0,.36-.24,1.25,1.25,0,0,0,.29-.35.84.84,0,0,0,.09-.4v-1.74a3.74,3.74,0,0,0,0-.4.54.54,0,0,0-.05-.21.46.46,0,0,0-.07-.14.48.48,0,0,0-.13-.09,1.07,1.07,0,0,0-.26-.09v-.22h1.32v3.16c0,.24,0,.41,0,.52a.76.76,0,0,0,.06.25.4.4,0,0,0,.14.15,1.1,1.1,0,0,0,.35.11v.24l-1.06.05h-.29l0-.76-.07,0a3,3,0,0,1-.73.61,1.47,1.47,0,0,1-.71.2,1.31,1.31,0,0,1-.69-.17,1,1,0,0,1-.41-.5,2.58,2.58,0,0,1-.13-.94v-1.75a3,3,0,0,0,0-.53.46.46,0,0,0-.12-.24,1,1,0,0,0-.37-.16Z"/><path d="M108.19,203.83a1.81,1.81,0,0,0,.26-.09.37.37,0,0,0,.13-.12.56.56,0,0,0,.08-.23,2.47,2.47,0,0,0,0-.47v-2c0-.19,0-.35,0-.48a.67.67,0,0,0-.07-.28.35.35,0,0,0-.17-.17l-.32-.09v-.24l1.08,0h.28v3.32a2.44,2.44,0,0,0,0,.56.36.36,0,0,0,.14.23.84.84,0,0,0,.34.14v.23h-1.82Zm1.33-6v.9h-.85v-.9Z"/><path d="M114.54,203.27a3.81,3.81,0,0,1-.55.49,2,2,0,0,1-.54.28,2.27,2.27,0,0,1-.65.1,1.79,1.79,0,0,1-1.45-.58,2.56,2.56,0,0,1-.48-1.69,2.92,2.92,0,0,1,.24-1.22,1.94,1.94,0,0,1,.71-.81,1.9,1.9,0,0,1,1.06-.29,1.94,1.94,0,0,1,.8.15,1.32,1.32,0,0,1,.52.4,1.87,1.87,0,0,1,.31.65,4.45,4.45,0,0,1,.12,1h-2.92v.09a3.07,3.07,0,0,0,.12.92,1.12,1.12,0,0,0,.41.58,1.17,1.17,0,0,0,.73.21,1.51,1.51,0,0,0,.68-.14,2,2,0,0,0,.61-.46Zm-.78-1.88a4,4,0,0,0-.12-.82,1.14,1.14,0,0,0-.3-.49.77.77,0,0,0-.51-.17.89.89,0,0,0-.76.39,2.1,2.1,0,0,0-.34,1.09Z"/><path d="M116.72,200.4h.06a3.21,3.21,0,0,1,.48-.49,1.62,1.62,0,0,1,1-.37,3.68,3.68,0,0,1,.49,0v1.06h-.53a1.06,1.06,0,0,0-.23-.36.5.5,0,0,0-.35-.12.7.7,0,0,0-.33.1,1.4,1.4,0,0,0-.32.29.94.94,0,0,0-.26.73v1.62a2,2,0,0,0,0,.58.4.4,0,0,0,.17.24.85.85,0,0,0,.35.11v.23h-1.87v-.23a1.59,1.59,0,0,0,.25-.09.41.41,0,0,0,.14-.12.76.76,0,0,0,.08-.23,2.67,2.67,0,0,0,0-.47v-2c0-.19,0-.35,0-.48a.67.67,0,0,0-.07-.28.31.31,0,0,0-.17-.17,1.9,1.9,0,0,0-.32-.09v-.24l1.09,0h.28Z"/><path d="M123.1,203.27a4.43,4.43,0,0,1-.54.49,2,2,0,0,1-1.2.38,1.75,1.75,0,0,1-1.44-.58,2.51,2.51,0,0,1-.49-1.69,2.77,2.77,0,0,1,.25-1.22,1.85,1.85,0,0,1,.7-.81,1.9,1.9,0,0,1,1.06-.29,1.94,1.94,0,0,1,.8.15,1.43,1.43,0,0,1,.53.4,1.86,1.86,0,0,1,.3.65,4.38,4.38,0,0,1,.13,1h-2.93v.09a2.76,2.76,0,0,0,.13.92,1.11,1.11,0,0,0,.4.58,1.19,1.19,0,0,0,.73.21,1.51,1.51,0,0,0,.68-.14,1.92,1.92,0,0,0,.61-.46Zm-.78-1.88a4,4,0,0,0-.12-.82,1.23,1.23,0,0,0-.29-.49.77.77,0,0,0-.51-.17.91.91,0,0,0-.77.39,2,2,0,0,0-.33,1.09Z"/><path d="M132.05,199.63h1.32V202a5.74,5.74,0,0,0,0,.82,1.22,1.22,0,0,0,.13.43.59.59,0,0,0,.23.24.75.75,0,0,0,.42.1.8.8,0,0,0,.34-.07,1.6,1.6,0,0,0,.36-.24,1.25,1.25,0,0,0,.29-.35.84.84,0,0,0,.09-.4v-1.74a3.74,3.74,0,0,0,0-.4.57.57,0,0,0-.12-.35.48.48,0,0,0-.13-.09,1.07,1.07,0,0,0-.26-.09v-.22h1.32v3.16c0,.24,0,.41,0,.52a.76.76,0,0,0,.06.25.4.4,0,0,0,.14.15,1.1,1.1,0,0,0,.35.11v.24l-1.06.05h-.29l0-.76-.07,0a3,3,0,0,1-.73.61,1.47,1.47,0,0,1-.71.2,1.31,1.31,0,0,1-.69-.17,1,1,0,0,1-.41-.5,2.58,2.58,0,0,1-.13-.94v-1.75a3,3,0,0,0,0-.53.46.46,0,0,0-.12-.24,1,1,0,0,0-.37-.16Z"/><path d="M141.92,204.06h-1.83v-.23a1.81,1.81,0,0,0,.26-.09.41.41,0,0,0,.14-.12.76.76,0,0,0,.08-.23,2.67,2.67,0,0,0,0-.47V201.7c0-.21,0-.41,0-.58a2.22,2.22,0,0,0-.06-.44.92.92,0,0,0-.11-.26.46.46,0,0,0-.15-.16.45.45,0,0,0-.19-.11.84.84,0,0,0-.3,0,.8.8,0,0,0-.34.07,1.39,1.39,0,0,0-.36.25,1.23,1.23,0,0,0-.28.35.8.8,0,0,0-.09.39v1.73a3.21,3.21,0,0,0,0,.56.36.36,0,0,0,.14.23.84.84,0,0,0,.34.14v.23H137.4v-.23a1.81,1.81,0,0,0,.26-.09.37.37,0,0,0,.13-.12.56.56,0,0,0,.08-.23,1.84,1.84,0,0,0,0-.47v-2c0-.19,0-.35,0-.48a.67.67,0,0,0-.07-.28.35.35,0,0,0-.17-.17,1.9,1.9,0,0,0-.32-.09v-.24l1.08,0h.29l-.05.76.06,0a4.22,4.22,0,0,1,.56-.5,2.18,2.18,0,0,1,.42-.23,1.44,1.44,0,0,1,.46-.08,1.53,1.53,0,0,1,.45.06,1,1,0,0,1,.34.18.81.81,0,0,1,.25.3,1.28,1.28,0,0,1,.15.43,3.56,3.56,0,0,1,.05.63v1.75a2.91,2.91,0,0,0,0,.47.58.58,0,0,0,.06.22.35.35,0,0,0,.14.13,1.06,1.06,0,0,0,.3.11Z"/><path d="M12.28,211.8h.07a3.2,3.2,0,0,1,.47-.49,1.62,1.62,0,0,1,1-.37,3.68,3.68,0,0,1,.49,0V212h-.52a1.24,1.24,0,0,0-.24-.36.47.47,0,0,0-.34-.11.69.69,0,0,0-.34.09,1.19,1.19,0,0,0-.31.29.92.92,0,0,0-.21.34,1.14,1.14,0,0,0-.06.39v1.62a2,2,0,0,0,.05.58.4.4,0,0,0,.17.24.85.85,0,0,0,.35.11v.23H11v-.23a1.81,1.81,0,0,0,.26-.09.49.49,0,0,0,.13-.12.51.51,0,0,0,.08-.23,2.67,2.67,0,0,0,0-.47v-2c0-.19,0-.35,0-.47a1,1,0,0,0-.06-.29.4.4,0,0,0-.17-.17l-.33-.09V211l1.09,0h.28Z"/><path d="M18.66,214.67a3.79,3.79,0,0,1-.54.49,2.19,2.19,0,0,1-.55.28,2.16,2.16,0,0,1-.65.1,1.75,1.75,0,0,1-1.44-.58,2.51,2.51,0,0,1-.49-1.69,2.8,2.8,0,0,1,.25-1.22,1.81,1.81,0,0,1,.71-.81A1.84,1.84,0,0,1,17,211a1.9,1.9,0,0,1,.8.15,1.35,1.35,0,0,1,.53.4,1.86,1.86,0,0,1,.3.65,3.9,3.9,0,0,1,.13,1H15.83v.09a3,3,0,0,0,.13.92,1.11,1.11,0,0,0,.4.58,1.19,1.19,0,0,0,.73.21,1.55,1.55,0,0,0,.69-.14,2,2,0,0,0,.6-.46Zm-.78-1.88a3.4,3.4,0,0,0-.12-.82,1.12,1.12,0,0,0-.29-.49.76.76,0,0,0-.51-.16.9.9,0,0,0-.77.38,2,2,0,0,0-.33,1.09Z"/><path d="M23.05,211.13v1h-.59a1.38,1.38,0,0,0-.2-.47.59.59,0,0,0-.27-.25,1,1,0,0,0-.38-.06.86.86,0,0,0-.57.2,1.38,1.38,0,0,0-.4.64,3.15,3.15,0,0,0-.14,1,3.94,3.94,0,0,0,.05.72,1.68,1.68,0,0,0,.19.56.89.89,0,0,0,.36.36,1,1,0,0,0,.55.13,1.53,1.53,0,0,0,.6-.12,1.9,1.9,0,0,0,.57-.44l.26.3a3.14,3.14,0,0,1-.41.41,1.9,1.9,0,0,1-.39.23,1.66,1.66,0,0,1-.41.14,2,2,0,0,1-.44,0,1.62,1.62,0,0,1-1.34-.59,2.63,2.63,0,0,1-.46-1.68,2.8,2.8,0,0,1,.26-1.22,1.85,1.85,0,0,1,.73-.81A1.94,1.94,0,0,1,21.7,211a5.08,5.08,0,0,1,.7,0A5,5,0,0,1,23.05,211.13Z"/><path d="M23.67,211H25v2.36a5.65,5.65,0,0,0,0,.82,1.22,1.22,0,0,0,.13.43.59.59,0,0,0,.23.24.78.78,0,0,0,.43.1.83.83,0,0,0,.34-.07,2.23,2.23,0,0,0,.36-.24,1.23,1.23,0,0,0,.28-.35.84.84,0,0,0,.09-.4v-1.74a3.74,3.74,0,0,0,0-.4.56.56,0,0,0,0-.21.32.32,0,0,0-.08-.13.4.4,0,0,0-.12-.1l-.27-.09V211h1.33v3.17c0,.23,0,.41,0,.51a.7.7,0,0,0,.06.25.4.4,0,0,0,.14.15,1.1,1.1,0,0,0,.35.11v.24l-1.06,0h-.28l0-.76-.06,0a3.16,3.16,0,0,1-.74.61,1.43,1.43,0,0,1-.7.2,1.34,1.34,0,0,1-.7-.17,1,1,0,0,1-.41-.5,2.55,2.55,0,0,1-.13-.93v-1.76a3,3,0,0,0,0-.53.46.46,0,0,0-.12-.24.93.93,0,0,0-.37-.16Z"/><path d="M30.28,211.8h.06a3.21,3.21,0,0,1,.48-.49,1.62,1.62,0,0,1,1-.37,3.68,3.68,0,0,1,.49,0V212h-.53a1.06,1.06,0,0,0-.23-.36.49.49,0,0,0-.35-.11.68.68,0,0,0-.33.09,1.4,1.4,0,0,0-.32.29,1.31,1.31,0,0,0-.21.34,1.14,1.14,0,0,0-.06.39v1.62a1.86,1.86,0,0,0,.06.58.4.4,0,0,0,.17.24.8.8,0,0,0,.35.11v.23H29v-.23a1.59,1.59,0,0,0,.25-.09.53.53,0,0,0,.14-.12.67.67,0,0,0,.08-.23,2.67,2.67,0,0,0,0-.47v-2c0-.19,0-.35,0-.47a.73.73,0,0,0-.07-.29.31.31,0,0,0-.17-.17,1.9,1.9,0,0,0-.32-.09V211l1.09,0h.28Z"/><path d="M36.06,212h-.44a1.64,1.64,0,0,0-.24-.44.84.84,0,0,0-.32-.22,1.35,1.35,0,0,0-.43-.06.88.88,0,0,0-.59.17.55.55,0,0,0-.22.47.66.66,0,0,0,.09.36.84.84,0,0,0,.27.26,5.58,5.58,0,0,0,.65.32,4.4,4.4,0,0,1,.73.37,1.43,1.43,0,0,1,.41.4,1,1,0,0,1,.14.54,1.43,1.43,0,0,1-.12.62,1.07,1.07,0,0,1-.35.41,1.87,1.87,0,0,1-.54.23,3.66,3.66,0,0,1-.69.07,4.56,4.56,0,0,1-.75-.06q-.37-.06-.72-.15v-1h.46a1.15,1.15,0,0,0,.37.62,1,1,0,0,0,.67.19,1.19,1.19,0,0,0,.33,0,.92.92,0,0,0,.29-.11.7.7,0,0,0,.2-.22.73.73,0,0,0,.07-.35.69.69,0,0,0-.09-.38,1,1,0,0,0-.29-.28,5.82,5.82,0,0,0-.69-.33,4.56,4.56,0,0,1-.67-.34,1.4,1.4,0,0,1-.41-.39,1.09,1.09,0,0,1-.14-.54,1.1,1.1,0,0,1,.2-.66,1.29,1.29,0,0,1,.6-.43,2.55,2.55,0,0,1,.91-.15,5.74,5.74,0,0,1,.6,0,7,7,0,0,1,.71.12Z"/><path d="M39.05,215.54a1.87,1.87,0,0,1-1.47-.57,2.45,2.45,0,0,1-.51-1.68,2.84,2.84,0,0,1,.27-1.3,1.79,1.79,0,0,1,.73-.78,2.06,2.06,0,0,1,1.06-.26,1.88,1.88,0,0,1,1.5.58,2.4,2.4,0,0,1,.51,1.65,3,3,0,0,1-.25,1.3,1.66,1.66,0,0,1-.73.79A2.17,2.17,0,0,1,39.05,215.54ZM38,213.19a2.93,2.93,0,0,0,.3,1.47,1,1,0,0,0,.87.51.9.9,0,0,0,.53-.15,1.1,1.1,0,0,0,.36-.41,2,2,0,0,0,.19-.59,4,4,0,0,0,.07-.7,3.91,3.91,0,0,0-.15-1.13,1.42,1.42,0,0,0-.42-.66.91.91,0,0,0-.59-.21,1,1,0,0,0-.86.48A2.68,2.68,0,0,0,38,213.19Z"/><path d="M64.21,214.67a4.43,4.43,0,0,1-.54.49,2,2,0,0,1-1.2.38A1.75,1.75,0,0,1,61,215a2.51,2.51,0,0,1-.49-1.69,2.8,2.8,0,0,1,.25-1.22,1.85,1.85,0,0,1,.7-.81,1.9,1.9,0,0,1,1.06-.29,1.94,1.94,0,0,1,.8.15,1.32,1.32,0,0,1,.52.4,1.71,1.71,0,0,1,.31.65,4.45,4.45,0,0,1,.12,1H61.38v.09a3.07,3.07,0,0,0,.12.92,1.11,1.11,0,0,0,1.14.79,1.51,1.51,0,0,0,.68-.14,1.92,1.92,0,0,0,.61-.46Zm-.78-1.88a4,4,0,0,0-.12-.82,1.14,1.14,0,0,0-.3-.49.76.76,0,0,0-.51-.16.89.89,0,0,0-.76.38,2,2,0,0,0-.33,1.09Z"/><path d="M68.25,212H67.8a1.64,1.64,0,0,0-.24-.44.77.77,0,0,0-.32-.22,1.31,1.31,0,0,0-.43-.06.92.92,0,0,0-.59.17A.55.55,0,0,0,66,212a.66.66,0,0,0,.09.36,1,1,0,0,0,.27.26,6,6,0,0,0,.66.32,4.85,4.85,0,0,1,.73.37,1.52,1.52,0,0,1,.4.4,1,1,0,0,1,.15.54,1.29,1.29,0,0,1-.13.62,1.07,1.07,0,0,1-.35.41,1.66,1.66,0,0,1-.54.23,3.64,3.64,0,0,1-.68.07,4.68,4.68,0,0,1-.76-.06l-.72-.15v-1h.46A1.21,1.21,0,0,0,66,215a1.08,1.08,0,0,0,.68.19,1.12,1.12,0,0,0,.32,0,.83.83,0,0,0,.29-.11.7.7,0,0,0,.2-.22.73.73,0,0,0,.07-.35.69.69,0,0,0-.09-.38,1,1,0,0,0-.29-.28,5.48,5.48,0,0,0-.68-.33,4.75,4.75,0,0,1-.68-.34,1.36,1.36,0,0,1-.4-.39,1,1,0,0,1-.15-.54,1,1,0,0,1,.21-.66,1.29,1.29,0,0,1,.6-.43,2.48,2.48,0,0,1,.91-.15,5.68,5.68,0,0,1,.59,0q.28,0,.72.12Z"/><path d="M70.48,215.32v1c0,.2,0,.35,0,.45a.68.68,0,0,0,.07.24.56.56,0,0,0,.16.14,1.35,1.35,0,0,0,.32.1v.23H69.16v-.23a1.18,1.18,0,0,0,.27-.1.36.36,0,0,0,.16-.14.74.74,0,0,0,.07-.26c0-.11,0-.25,0-.43v-4c0-.22,0-.38,0-.47a1.19,1.19,0,0,0,0-.24.28.28,0,0,0-.08-.15.3.3,0,0,0-.14-.1,1.38,1.38,0,0,0-.3-.09V211l1.09,0h.28l-.06.75.07,0a4.62,4.62,0,0,1,.46-.42,1.85,1.85,0,0,1,.34-.23,1.82,1.82,0,0,1,.35-.12,1.78,1.78,0,0,1,.35,0,1.33,1.33,0,0,1,1.17.58,2.8,2.8,0,0,1,.41,1.67,3.27,3.27,0,0,1-.23,1.29,1.59,1.59,0,0,1-.68.78,2,2,0,0,1-1,.27,2.9,2.9,0,0,1-.62-.06A2.35,2.35,0,0,1,70.48,215.32Zm0-1.53a3.9,3.9,0,0,0,0,.69.9.9,0,0,0,.2.39.89.89,0,0,0,.34.23,1.62,1.62,0,0,0,.5.07.93.93,0,0,0,.85-.47,2.67,2.67,0,0,0,.28-1.37c0-1.21-.35-1.82-1.06-1.82a1.21,1.21,0,0,0-.45.08,1.39,1.39,0,0,0-.37.26,1.32,1.32,0,0,0-.27.35.94.94,0,0,0-.07.37Z"/><path d="M78.21,214.67a4.43,4.43,0,0,1-.54.49,2.19,2.19,0,0,1-.55.28,2.27,2.27,0,0,1-.65.1A1.79,1.79,0,0,1,75,215a2.56,2.56,0,0,1-.48-1.69,3,3,0,0,1,.24-1.22,1.94,1.94,0,0,1,.71-.81,1.9,1.9,0,0,1,1.06-.29,1.94,1.94,0,0,1,.8.15,1.32,1.32,0,0,1,.52.4,1.71,1.71,0,0,1,.31.65,4.45,4.45,0,0,1,.12,1H75.38v.09a3.07,3.07,0,0,0,.12.92,1.18,1.18,0,0,0,.41.58,1.17,1.17,0,0,0,.73.21,1.51,1.51,0,0,0,.68-.14,2,2,0,0,0,.61-.46Zm-.78-1.88a4,4,0,0,0-.12-.82,1.14,1.14,0,0,0-.3-.49.76.76,0,0,0-.51-.16.89.89,0,0,0-.76.38,2.1,2.1,0,0,0-.34,1.09Z"/><path d="M82.59,211.13v1H82a1.39,1.39,0,0,0-.19-.47.7.7,0,0,0-.27-.25,1,1,0,0,0-.38-.06.83.83,0,0,0-.57.2,1.38,1.38,0,0,0-.4.64,3.13,3.13,0,0,0-.15,1,3.88,3.88,0,0,0,.06.72,1.68,1.68,0,0,0,.19.56.89.89,0,0,0,.36.36,1,1,0,0,0,.55.13,1.45,1.45,0,0,0,.59-.12,1.82,1.82,0,0,0,.58-.44l.26.3a3.88,3.88,0,0,1-.42.41,2.14,2.14,0,0,1-.38.23,1.81,1.81,0,0,1-.41.14,2,2,0,0,1-.44,0,1.62,1.62,0,0,1-1.34-.59,2.63,2.63,0,0,1-.46-1.68,2.67,2.67,0,0,1,.26-1.22,1.89,1.89,0,0,1,.72-.81,2,2,0,0,1,1.08-.29,5.23,5.23,0,0,1,.71,0A4.89,4.89,0,0,1,82.59,211.13Z"/><path d="M83.33,215.23a1.59,1.59,0,0,0,.25-.09.37.37,0,0,0,.13-.12.5.5,0,0,0,.09-.23,2.67,2.67,0,0,0,0-.47v-2c0-.19,0-.35,0-.47a.73.73,0,0,0-.07-.29.31.31,0,0,0-.17-.17,1.9,1.9,0,0,0-.32-.09V211l1.08,0h.29v3.31a3.51,3.51,0,0,0,0,.56.41.41,0,0,0,.14.23.9.9,0,0,0,.35.14v.23H83.33Zm1.32-6v.9H83.8v-.9Z"/><path d="M88.65,214.8l-.07,0a2.6,2.6,0,0,1-.76.58,1.66,1.66,0,0,1-.75.18,1.39,1.39,0,0,1-.63-.14A1,1,0,0,1,86,215a1.15,1.15,0,0,1-.14-.57,1.13,1.13,0,0,1,.67-1,4.63,4.63,0,0,1,2-.43v-.31a2.58,2.58,0,0,0-.09-.76.74.74,0,0,0-.3-.4.93.93,0,0,0-.53-.13.83.83,0,0,0-.58.19,1.06,1.06,0,0,0-.33.57h-.61v-.61c.3-.15.54-.26.74-.34a4.83,4.83,0,0,1,.59-.17,3.08,3.08,0,0,1,.61-.06,1.74,1.74,0,0,1,.74.14,1,1,0,0,1,.41.45,2.16,2.16,0,0,1,.14.91v1.62c0,.22,0,.39,0,.48a2.11,2.11,0,0,0,0,.26.58.58,0,0,0,.07.19.44.44,0,0,0,.14.13,1.28,1.28,0,0,0,.3.1v.23H88.62Zm-.08-1.45a3.17,3.17,0,0,0-1.41.25.77.77,0,0,0-.47.72.72.72,0,0,0,.11.42.56.56,0,0,0,.27.21,1,1,0,0,0,.38.06,1.1,1.1,0,0,0,.57-.15,1,1,0,0,0,.4-.39.87.87,0,0,0,.15-.47Z"/><path d="M91.84,214.3a3.21,3.21,0,0,0,0,.56.41.41,0,0,0,.14.23.84.84,0,0,0,.34.14v.23H90.52v-.23a1.07,1.07,0,0,0,.32-.12A.33.33,0,0,0,91,215a.7.7,0,0,0,.06-.24c0-.11,0-.24,0-.41v-3.88c0-.3,0-.5,0-.62a2,2,0,0,0,0-.3.57.57,0,0,0-.08-.19.33.33,0,0,0-.15-.11,1.3,1.3,0,0,0-.32-.09v-.24l1.12-.05h.27Z"/><path d="M94.17,214.39a3.47,3.47,0,0,1,.06.64,1.44,1.44,0,0,1-.11.59,1.84,1.84,0,0,1-.35.54,6.22,6.22,0,0,1-.67.58l-.25-.28a2.2,2.2,0,0,0,.34-.4,1.34,1.34,0,0,0,.15-.41,2.94,2.94,0,0,0,0-.57c0-.23,0-.47,0-.69Z"/><path d="M114.82,215.32v1a2.7,2.7,0,0,0,0,.45.52.52,0,0,0,.07.24.67.67,0,0,0,.15.14,1.67,1.67,0,0,0,.33.1v.23h-1.9v-.23a1,1,0,0,0,.27-.1.32.32,0,0,0,.16-.14.57.57,0,0,0,.08-.26c0-.11,0-.25,0-.43v-4c0-.22,0-.38,0-.47a1.19,1.19,0,0,0,0-.24.37.37,0,0,0-.22-.25,1.38,1.38,0,0,0-.3-.09V211l1.09,0h.28l-.06.75.07,0a4.77,4.77,0,0,1,.45-.42,2.33,2.33,0,0,1,.35-.23A1.74,1.74,0,0,1,116,211a2,2,0,0,1,.35,0,1.35,1.35,0,0,1,1.18.58,2.88,2.88,0,0,1,.41,1.67,3.27,3.27,0,0,1-.23,1.29,1.64,1.64,0,0,1-.68.78,2,2,0,0,1-1,.27,2.9,2.9,0,0,1-.62-.06A2.35,2.35,0,0,1,114.82,215.32Zm0-1.53a3.13,3.13,0,0,0,.05.69.81.81,0,0,0,.2.39.86.86,0,0,0,.33.23,1.74,1.74,0,0,0,.51.07.92.92,0,0,0,.84-.47,2.66,2.66,0,0,0,.29-1.37c0-1.21-.36-1.82-1.06-1.82a1.17,1.17,0,0,0-.45.08,1.43,1.43,0,0,0-.38.26,1.26,1.26,0,0,0-.26.35.94.94,0,0,0-.07.37Z"/><path d="M118.73,211h1.32v2.36a7.61,7.61,0,0,0,0,.82,1.22,1.22,0,0,0,.13.43.62.62,0,0,0,.24.24.73.73,0,0,0,.42.1.8.8,0,0,0,.34-.07,1.86,1.86,0,0,0,.36-.24,1.08,1.08,0,0,0,.28-.35.84.84,0,0,0,.09-.4v-1.74c0-.17,0-.31,0-.4a.81.81,0,0,0,0-.21.32.32,0,0,0-.08-.13.4.4,0,0,0-.12-.1,2.42,2.42,0,0,0-.26-.09V211h1.32v3.17c0,.23,0,.41,0,.51a.7.7,0,0,0,.06.25.36.36,0,0,0,.15.15,1,1,0,0,0,.34.11v.24l-1.06,0H122l0-.76-.07,0a3.16,3.16,0,0,1-.74.61,1.43,1.43,0,0,1-.7.2,1.37,1.37,0,0,1-.7-.17,1,1,0,0,1-.41-.5,2.55,2.55,0,0,1-.13-.93v-1.76a3,3,0,0,0,0-.53.46.46,0,0,0-.12-.24.93.93,0,0,0-.37-.16Z"/><path d="M127.79,214.67a3.79,3.79,0,0,1-.54.49,2.19,2.19,0,0,1-.55.28,2.16,2.16,0,0,1-.65.1,1.75,1.75,0,0,1-1.44-.58,2.51,2.51,0,0,1-.49-1.69,2.8,2.8,0,0,1,.25-1.22,1.81,1.81,0,0,1,.71-.81,1.84,1.84,0,0,1,1-.29,1.9,1.9,0,0,1,.8.15,1.35,1.35,0,0,1,.53.4,1.86,1.86,0,0,1,.3.65,3.9,3.9,0,0,1,.13,1H125v.09a3,3,0,0,0,.13.92,1.11,1.11,0,0,0,.4.58,1.19,1.19,0,0,0,.73.21,1.55,1.55,0,0,0,.69-.14,2,2,0,0,0,.6-.46Zm-.78-1.88a3.4,3.4,0,0,0-.12-.82,1.12,1.12,0,0,0-.29-.49.76.76,0,0,0-.51-.16.9.9,0,0,0-.77.38,2,2,0,0,0-.33,1.09Z"/><path d="M131.85,210.42v-.62a2,2,0,0,0,0-.3.57.57,0,0,0-.08-.19.33.33,0,0,0-.15-.11,1.42,1.42,0,0,0-.33-.09v-.24l1.13-.05h.27v5.38c0,.24,0,.41,0,.51a.7.7,0,0,0,.06.25.43.43,0,0,0,.15.15,1.1,1.1,0,0,0,.35.11v.24l-1.09,0h-.28l.05-.76-.07,0a4,4,0,0,1-.5.47,2.25,2.25,0,0,1-.46.24,1.56,1.56,0,0,1-.53.1,1.38,1.38,0,0,1-1.17-.58,2.9,2.9,0,0,1-.41-1.67A2.8,2.8,0,0,1,129,212a1.85,1.85,0,0,1,.72-.79,2,2,0,0,1,1-.26,2.43,2.43,0,0,1,.56.05,2.14,2.14,0,0,1,.51.16Zm0,2.29a4.51,4.51,0,0,0,0-.58,1.24,1.24,0,0,0-.11-.37.82.82,0,0,0-.21-.25.92.92,0,0,0-.28-.14,1.17,1.17,0,0,0-1.28.42,2.5,2.5,0,0,0-.31,1.37,2.9,2.9,0,0,0,.26,1.36.83.83,0,0,0,.77.46,1.09,1.09,0,0,0,.34,0,.85.85,0,0,0,.26-.11,1.24,1.24,0,0,0,.27-.21,1.8,1.8,0,0,0,.2-.24,1,1,0,0,0,.09-.26,1.83,1.83,0,0,0,0-.37Z"/><path d="M137.7,214.67a3.81,3.81,0,0,1-.55.49,2,2,0,0,1-.54.28,2.28,2.28,0,0,1-.66.1,1.76,1.76,0,0,1-1.44-.58,2.56,2.56,0,0,1-.49-1.69,3,3,0,0,1,.25-1.22,2,2,0,0,1,2.56-1,1.35,1.35,0,0,1,.53.4,2.07,2.07,0,0,1,.31.65,4.45,4.45,0,0,1,.12,1h-2.92v.09a3.07,3.07,0,0,0,.12.92,1.17,1.17,0,0,0,.4.58,1.19,1.19,0,0,0,.73.21,1.52,1.52,0,0,0,.69-.14,2,2,0,0,0,.6-.46Zm-.78-1.88a3.35,3.35,0,0,0-.13-.82,1,1,0,0,0-.29-.49.76.76,0,0,0-.51-.16.88.88,0,0,0-.76.38,2,2,0,0,0-.34,1.09Z"/><path d="M141.73,212h-.44a1.64,1.64,0,0,0-.24-.44.84.84,0,0,0-.32-.22,1.35,1.35,0,0,0-.43-.06.88.88,0,0,0-.59.17.55.55,0,0,0-.22.47.66.66,0,0,0,.09.36.84.84,0,0,0,.27.26,5.58,5.58,0,0,0,.65.32,4.4,4.4,0,0,1,.73.37,1.43,1.43,0,0,1,.41.4,1,1,0,0,1,.14.54,1.43,1.43,0,0,1-.12.62,1.16,1.16,0,0,1-.35.41,1.87,1.87,0,0,1-.54.23,3.66,3.66,0,0,1-.69.07,4.77,4.77,0,0,1-.76-.06c-.24,0-.48-.09-.71-.15v-1h.46a1.15,1.15,0,0,0,.37.62,1,1,0,0,0,.67.19,1.19,1.19,0,0,0,.33,0,.92.92,0,0,0,.29-.11.7.7,0,0,0,.2-.22.73.73,0,0,0,.07-.35.69.69,0,0,0-.09-.38,1,1,0,0,0-.29-.28,5.82,5.82,0,0,0-.69-.33,4.56,4.56,0,0,1-.67-.34,1.4,1.4,0,0,1-.41-.39,1.09,1.09,0,0,1-.14-.54,1.1,1.1,0,0,1,.2-.66,1.29,1.29,0,0,1,.6-.43,2.52,2.52,0,0,1,.91-.15,5.74,5.74,0,0,1,.6,0,7,7,0,0,1,.71.12Z"/><path d="M13.71,226.2l-.07,0a2.79,2.79,0,0,1-.76.58,1.63,1.63,0,0,1-.75.18,1.35,1.35,0,0,1-.62-.14,1,1,0,0,1-.42-.39,1.18,1.18,0,0,1,.53-1.62,5,5,0,0,1,2-.43v-.3a2.58,2.58,0,0,0-.09-.76.72.72,0,0,0-.29-.4,1,1,0,0,0-.54-.13.89.89,0,0,0-.58.18,1.13,1.13,0,0,0-.33.58h-.61v-.61c.3-.15.55-.26.74-.34a4.5,4.5,0,0,1,.6-.17,3,3,0,0,1,.6-.06,1.71,1.71,0,0,1,.74.14,1,1,0,0,1,.41.45,2.16,2.16,0,0,1,.14.91v1.61c0,.23,0,.4,0,.49a1.09,1.09,0,0,0,0,.26.33.33,0,0,0,.07.19.4.4,0,0,0,.13.13,1.28,1.28,0,0,0,.3.1v.23H13.69Zm-.08-1.45a3.17,3.17,0,0,0-1.41.25.77.77,0,0,0-.47.72.72.72,0,0,0,.11.42.56.56,0,0,0,.27.21,1.12,1.12,0,0,0,.38.06,1.17,1.17,0,0,0,.58-.15,1.15,1.15,0,0,0,.4-.39,1,1,0,0,0,.14-.47Z"/><path d="M19.12,222.53v1h-.59a1.39,1.39,0,0,0-.19-.47.7.7,0,0,0-.27-.25,1,1,0,0,0-.38-.07.84.84,0,0,0-.57.21,1.38,1.38,0,0,0-.4.64,3.13,3.13,0,0,0-.15,1,4,4,0,0,0,.06.72,1.48,1.48,0,0,0,.19.56.93.93,0,0,0,.35.36,1.08,1.08,0,0,0,.56.13,1.45,1.45,0,0,0,.59-.12,1.82,1.82,0,0,0,.58-.44l.26.3a3.88,3.88,0,0,1-.42.41,2.14,2.14,0,0,1-.38.23,1.81,1.81,0,0,1-.41.14,2,2,0,0,1-.44.05,1.61,1.61,0,0,1-1.34-.59,2.63,2.63,0,0,1-.47-1.68,2.8,2.8,0,0,1,.26-1.22,1.95,1.95,0,0,1,1.81-1.1,5.23,5.23,0,0,1,.71,0A4.89,4.89,0,0,1,19.12,222.53Z"/><path d="M19.58,222.66a1.06,1.06,0,0,0,.37-.13.66.66,0,0,0,.23-.24,1.44,1.44,0,0,0,.13-.37c0-.14.06-.36.09-.64h.66v1.15h1.5v.47h-1.5V225a4.67,4.67,0,0,0,0,.72.9.9,0,0,0,.14.41.6.6,0,0,0,.23.22.92.92,0,0,0,.68,0,1.31,1.31,0,0,0,.32-.22l.21.25a2.52,2.52,0,0,1-.62.46,1.34,1.34,0,0,1-.61.15,1.07,1.07,0,0,1-.89-.36,1.71,1.71,0,0,1-.3-1.11V222.9h-.68Z"/><path d="M23.07,226.63a1.81,1.81,0,0,0,.26-.09.49.49,0,0,0,.13-.12.76.76,0,0,0,.08-.23,2.67,2.67,0,0,0,0-.47v-2c0-.2,0-.35,0-.48a.69.69,0,0,0-.06-.28.4.4,0,0,0-.17-.17l-.32-.09v-.24l1.08-.05h.28v3.32a2.44,2.44,0,0,0,0,.56.36.36,0,0,0,.14.23.84.84,0,0,0,.34.14v.23H23.07Zm1.33-6v.9h-.86v-.9Z"/><path d="M27.24,222.43v.22l-.3.1a.3.3,0,0,0-.13.12.39.39,0,0,0,0,.2,1.15,1.15,0,0,0,0,.26c0,.09.06.2.1.32L27.7,226l.94-2.25a2.39,2.39,0,0,0,.13-.37.84.84,0,0,0,0-.27.37.37,0,0,0-.11-.29.71.71,0,0,0-.38-.17v-.22h1.74v.22a.73.73,0,0,0-.28.12.84.84,0,0,0-.2.24c-.06.11-.14.26-.23.46l-1.56,3.44h-.55L26,223.44a3.09,3.09,0,0,0-.2-.49.53.53,0,0,0-.17-.19.7.7,0,0,0-.26-.11v-.22Z"/><path d="M33.18,226.2l-.07,0a2.79,2.79,0,0,1-.76.58,1.66,1.66,0,0,1-.75.18,1.35,1.35,0,0,1-.62-.14,1,1,0,0,1-.42-.39,1.18,1.18,0,0,1,.53-1.62,5,5,0,0,1,2-.43v-.3a2.58,2.58,0,0,0-.09-.76.69.69,0,0,0-.3-.4.93.93,0,0,0-.53-.13.89.89,0,0,0-.58.18,1.13,1.13,0,0,0-.33.58h-.61v-.61c.3-.15.54-.26.74-.34a4.5,4.5,0,0,1,.6-.17,3,3,0,0,1,.6-.06,1.71,1.71,0,0,1,.74.14,1,1,0,0,1,.41.45,2.16,2.16,0,0,1,.14.91v1.61c0,.23,0,.4,0,.49a1.09,1.09,0,0,0,0,.26.43.43,0,0,0,.06.19.58.58,0,0,0,.14.13,1.28,1.28,0,0,0,.3.1v.23H33.16Zm-.08-1.45a3.17,3.17,0,0,0-1.41.25.77.77,0,0,0-.47.72.72.72,0,0,0,.11.42.56.56,0,0,0,.27.21,1.08,1.08,0,0,0,.38.06,1.17,1.17,0,0,0,.58-.15,1.15,1.15,0,0,0,.4-.39,1,1,0,0,0,.14-.47Z"/><path d="M36.39,223.2h.06a3.21,3.21,0,0,1,.48-.49,1.62,1.62,0,0,1,1-.37,3.68,3.68,0,0,1,.49,0v1.06h-.53a1.06,1.06,0,0,0-.23-.36.5.5,0,0,0-.35-.12.7.7,0,0,0-.33.1,1.4,1.4,0,0,0-.32.29.94.94,0,0,0-.26.73v1.62a2,2,0,0,0,.05.58.4.4,0,0,0,.17.24.8.8,0,0,0,.35.11v.23H35.14v-.23a1.59,1.59,0,0,0,.25-.09.41.41,0,0,0,.14-.12.76.76,0,0,0,.08-.23,2.67,2.67,0,0,0,0-.47v-2c0-.2,0-.35,0-.48a.67.67,0,0,0-.07-.28.31.31,0,0,0-.17-.17,1.9,1.9,0,0,0-.32-.09v-.24l1.09-.05h.28Z"/><path d="M40.3,225.7a3.21,3.21,0,0,0,0,.56.41.41,0,0,0,.14.23.91.91,0,0,0,.34.14v.23H39v-.23a1.07,1.07,0,0,0,.32-.12.33.33,0,0,0,.13-.16.7.7,0,0,0,.06-.24c0-.11,0-.24,0-.41v-3.88c0-.3,0-.5,0-.62a2,2,0,0,0,0-.3.57.57,0,0,0-.08-.19.44.44,0,0,0-.15-.12,2.37,2.37,0,0,0-.32-.08v-.24l1.12-.05h.27Z"/><path d="M43.66,226.94a1.87,1.87,0,0,1-1.47-.57,2.45,2.45,0,0,1-.51-1.68,2.84,2.84,0,0,1,.27-1.3,1.79,1.79,0,0,1,.73-.78,2.06,2.06,0,0,1,1.06-.26,1.88,1.88,0,0,1,1.5.58,2.4,2.4,0,0,1,.51,1.65,3,3,0,0,1-.26,1.3,1.69,1.69,0,0,1-.72.79A2.17,2.17,0,0,1,43.66,226.94Zm-1.1-2.35a3,3,0,0,0,.3,1.47,1,1,0,0,0,.87.51.9.9,0,0,0,.53-.15,1.2,1.2,0,0,0,.36-.41,2,2,0,0,0,.19-.59,4,4,0,0,0,.06-.7,3.59,3.59,0,0,0-.15-1.13,1.34,1.34,0,0,0-.41-.66.87.87,0,0,0-.59-.22,1,1,0,0,0-.86.49A2.68,2.68,0,0,0,42.56,224.59Z"/><path d="M48.67,222.43H50v2.36a5.74,5.74,0,0,0,0,.82,1.22,1.22,0,0,0,.13.43.59.59,0,0,0,.23.24.75.75,0,0,0,.42.1.8.8,0,0,0,.34-.07,1.6,1.6,0,0,0,.36-.24,1.25,1.25,0,0,0,.29-.35.84.84,0,0,0,.09-.4v-1.74a3.74,3.74,0,0,0,0-.4.57.57,0,0,0-.12-.35.48.48,0,0,0-.13-.09,1.07,1.07,0,0,0-.26-.09v-.22h1.32v3.16c0,.24,0,.41,0,.52a.76.76,0,0,0,.06.25.4.4,0,0,0,.14.15,1.1,1.1,0,0,0,.35.11v.24l-1.06,0H51.9l0-.76-.07,0a3,3,0,0,1-.73.61,1.47,1.47,0,0,1-.71.2,1.31,1.31,0,0,1-.69-.17,1,1,0,0,1-.41-.5,2.58,2.58,0,0,1-.13-.94v-1.75a3,3,0,0,0,0-.53.46.46,0,0,0-.12-.24,1,1,0,0,0-.37-.16Z"/><path d="M57.13,223.44h-.44a1.64,1.64,0,0,0-.24-.44.84.84,0,0,0-.32-.22,1.33,1.33,0,0,0-.43-.07.89.89,0,0,0-.59.18.55.55,0,0,0-.22.47.66.66,0,0,0,.09.36.75.75,0,0,0,.27.26,5.58,5.58,0,0,0,.65.32,4.4,4.4,0,0,1,.73.37,1.43,1.43,0,0,1,.41.4,1,1,0,0,1,.14.54,1.43,1.43,0,0,1-.12.62,1.09,1.09,0,0,1-.36.41,1.66,1.66,0,0,1-.54.23,3.47,3.47,0,0,1-.68.07,4.77,4.77,0,0,1-.76-.06c-.24,0-.48-.09-.71-.15v-1h.45a1.22,1.22,0,0,0,.38.62,1.11,1.11,0,0,0,.67.19,1.24,1.24,0,0,0,.33,0,.92.92,0,0,0,.29-.11.57.57,0,0,0,.19-.22.72.72,0,0,0,.08-.35.75.75,0,0,0-.09-.39,1.28,1.28,0,0,0-.29-.27,5.82,5.82,0,0,0-.69-.33,4.1,4.1,0,0,1-.67-.34,1.31,1.31,0,0,1-.41-.4,1,1,0,0,1-.14-.53,1.1,1.1,0,0,1,.2-.66,1.29,1.29,0,0,1,.6-.43,2.52,2.52,0,0,1,.91-.15,5.74,5.74,0,0,1,.6,0c.19,0,.42.06.71.12Z"/><path d="M60.79,226.2l-.07,0a2.79,2.79,0,0,1-.76.58,1.66,1.66,0,0,1-.75.18,1.39,1.39,0,0,1-.63-.14,1,1,0,0,1-.41-.39,1,1,0,0,1-.14-.57,1.15,1.15,0,0,1,.67-1.05,5,5,0,0,1,2-.43v-.3a2.58,2.58,0,0,0-.09-.76.74.74,0,0,0-.3-.4.93.93,0,0,0-.53-.13.87.87,0,0,0-.58.18,1.13,1.13,0,0,0-.33.58h-.61v-.61c.3-.15.54-.26.74-.34a4.83,4.83,0,0,1,.59-.17,3.08,3.08,0,0,1,.61-.06,1.74,1.74,0,0,1,.74.14,1,1,0,0,1,.41.45,2.34,2.34,0,0,1,.14.91v1.61c0,.23,0,.4,0,.49a2.11,2.11,0,0,0,0,.26.58.58,0,0,0,.07.19.44.44,0,0,0,.14.13,1.34,1.34,0,0,0,.29.1v.23H60.76Zm-.08-1.45a3.17,3.17,0,0,0-1.41.25.77.77,0,0,0-.47.72.72.72,0,0,0,.11.42.56.56,0,0,0,.27.21,1,1,0,0,0,.38.06,1.1,1.1,0,0,0,.57-.15,1.07,1.07,0,0,0,.4-.39.89.89,0,0,0,.15-.47Z"/><path d="M67.26,226.86H65.44v-.23a2.42,2.42,0,0,0,.26-.09.49.49,0,0,0,.13-.12.76.76,0,0,0,.08-.23,2.67,2.67,0,0,0,0-.47V224.5c0-.21,0-.41,0-.58a2.22,2.22,0,0,0-.06-.44.92.92,0,0,0-.11-.26.46.46,0,0,0-.15-.16.45.45,0,0,0-.19-.11,1,1,0,0,0-.64,0,1.39,1.39,0,0,0-.36.25,1.23,1.23,0,0,0-.28.35A.8.8,0,0,0,64,224v1.73a3.21,3.21,0,0,0,0,.56.41.41,0,0,0,.14.23.91.91,0,0,0,.34.14v.23H62.74v-.23a1.44,1.44,0,0,0,.26-.09.37.37,0,0,0,.13-.12.55.55,0,0,0,.09-.23,2.67,2.67,0,0,0,0-.47v-2c0-.2,0-.35,0-.48a.67.67,0,0,0-.07-.28.35.35,0,0,0-.17-.17,1.9,1.9,0,0,0-.32-.09v-.24l1.09-.05h.28l0,.76.06,0a5,5,0,0,1,.56-.5,2.18,2.18,0,0,1,.42-.23,1.44,1.44,0,0,1,.46-.08,1.53,1.53,0,0,1,.45.06,1.06,1.06,0,0,1,.35.18.89.89,0,0,1,.24.3,1.28,1.28,0,0,1,.15.43,3.56,3.56,0,0,1,0,.63v1.75a2.91,2.91,0,0,0,0,.47.58.58,0,0,0,.06.22.35.35,0,0,0,.14.13,1.2,1.2,0,0,0,.3.11Z"/><path d="M71.18,221.82c0-.3,0-.5,0-.62a1.21,1.21,0,0,0,0-.3.42.42,0,0,0-.08-.19.41.41,0,0,0-.14-.12l-.33-.08v-.24l1.12-.05H72v5.37c0,.25,0,.42,0,.52a.7.7,0,0,0,.06.25.36.36,0,0,0,.15.15,1,1,0,0,0,.35.11v.24l-1.1,0h-.28l.06-.76-.07,0a3.73,3.73,0,0,1-.51.46,1.72,1.72,0,0,1-.46.25,1.46,1.46,0,0,1-.52.1,1.35,1.35,0,0,1-1.17-.58,3.39,3.39,0,0,1-.15-3,1.76,1.76,0,0,1,.73-.79,2,2,0,0,1,1-.26,2.34,2.34,0,0,1,.55.05,2.21,2.21,0,0,1,.52.16Zm0,2.29a4.51,4.51,0,0,0,0-.58,1.62,1.62,0,0,0-.11-.37.82.82,0,0,0-.21-.25,1,1,0,0,0-.29-.14,1,1,0,0,0-.37-.05,1,1,0,0,0-.9.47,2.5,2.5,0,0,0-.31,1.37,2.84,2.84,0,0,0,.25,1.35.84.84,0,0,0,.78.47,1.06,1.06,0,0,0,.33,0,1,1,0,0,0,.27-.11,1.2,1.2,0,0,0,.26-.21,1.26,1.26,0,0,0,.2-.24,1.57,1.57,0,0,0,.1-.26,1.9,1.9,0,0,0,0-.37Z"/><path d="M75.33,226.94a1.87,1.87,0,0,1-1.47-.57,2.45,2.45,0,0,1-.51-1.68,2.84,2.84,0,0,1,.27-1.3,1.79,1.79,0,0,1,.73-.78,2.06,2.06,0,0,1,1.06-.26,1.88,1.88,0,0,1,1.5.58,2.4,2.4,0,0,1,.51,1.65,3,3,0,0,1-.25,1.3,1.71,1.71,0,0,1-.73.79A2.17,2.17,0,0,1,75.33,226.94Zm-1.1-2.35a3,3,0,0,0,.3,1.47,1,1,0,0,0,.87.51.9.9,0,0,0,.53-.15,1.1,1.1,0,0,0,.36-.41,2,2,0,0,0,.19-.59,4,4,0,0,0,.06-.7,3.59,3.59,0,0,0-.15-1.13,1.34,1.34,0,0,0-.41-.66.87.87,0,0,0-.59-.22,1,1,0,0,0-.86.49A2.68,2.68,0,0,0,74.23,224.59Z"/><path d="M84.16,226.07a3.81,3.81,0,0,1-.55.49,2.13,2.13,0,0,1-.54.28,2.28,2.28,0,0,1-.66.1,1.8,1.8,0,0,1-1.44-.58,2.51,2.51,0,0,1-.49-1.69,2.92,2.92,0,0,1,.25-1.22,2,2,0,0,1,2.56-.95,1.35,1.35,0,0,1,.53.4,2.07,2.07,0,0,1,.31.65,4.45,4.45,0,0,1,.12,1H81.33v.09a3.07,3.07,0,0,0,.12.92,1.17,1.17,0,0,0,.4.58,1.19,1.19,0,0,0,.73.21,1.52,1.52,0,0,0,.69-.14,2,2,0,0,0,.6-.46Zm-.78-1.88a3.35,3.35,0,0,0-.13-.82,1,1,0,0,0-.29-.49.77.77,0,0,0-.51-.17.89.89,0,0,0-.76.39,2,2,0,0,0-.34,1.09Z"/><path d="M88.19,223.44h-.44a1.41,1.41,0,0,0-.25-.44.74.74,0,0,0-.31-.22,1.33,1.33,0,0,0-.43-.07.89.89,0,0,0-.59.18.55.55,0,0,0-.22.47.77.77,0,0,0,.08.36.89.89,0,0,0,.28.26,5.58,5.58,0,0,0,.65.32,4.4,4.4,0,0,1,.73.37,1.43,1.43,0,0,1,.41.4,1,1,0,0,1,.14.54,1.43,1.43,0,0,1-.12.62,1.09,1.09,0,0,1-.36.41,1.66,1.66,0,0,1-.54.23,3.47,3.47,0,0,1-.68.07,4.77,4.77,0,0,1-.76-.06c-.24,0-.48-.09-.71-.15v-1h.45a1.22,1.22,0,0,0,.38.62,1.09,1.09,0,0,0,.67.19,1.24,1.24,0,0,0,.33,0,.92.92,0,0,0,.29-.11.67.67,0,0,0,.19-.22.72.72,0,0,0,.08-.35.75.75,0,0,0-.09-.39,1.28,1.28,0,0,0-.29-.27,5.82,5.82,0,0,0-.69-.33,4.75,4.75,0,0,1-.68-.34,1.27,1.27,0,0,1-.4-.4,1,1,0,0,1-.14-.53,1.1,1.1,0,0,1,.2-.66,1.29,1.29,0,0,1,.6-.43,2.52,2.52,0,0,1,.91-.15,5.88,5.88,0,0,1,.6,0c.18,0,.42.06.71.12Z"/><path d="M88.89,222.66a1.06,1.06,0,0,0,.37-.13.66.66,0,0,0,.23-.24,2,2,0,0,0,.13-.37c0-.14.06-.36.09-.64h.66v1.15h1.5v.47h-1.5V225a4.67,4.67,0,0,0,0,.72.9.9,0,0,0,.14.41.6.6,0,0,0,.23.22.92.92,0,0,0,.68,0,1.31,1.31,0,0,0,.32-.22l.21.25a2.52,2.52,0,0,1-.62.46,1.34,1.34,0,0,1-.61.15,1.07,1.07,0,0,1-.89-.36,1.71,1.71,0,0,1-.3-1.11V222.9h-.68Z"/><path d="M95.06,226.2l-.07,0a2.79,2.79,0,0,1-.76.58,1.6,1.6,0,0,1-.75.18,1.35,1.35,0,0,1-.62-.14.91.91,0,0,1-.41-.39,1.05,1.05,0,0,1-.15-.57,1.17,1.17,0,0,1,.67-1.05,5,5,0,0,1,2-.43v-.3a2.58,2.58,0,0,0-.09-.76.72.72,0,0,0-.29-.4,1,1,0,0,0-.54-.13.89.89,0,0,0-.58.18,1.2,1.2,0,0,0-.33.58h-.61v-.61c.3-.15.55-.26.74-.34a4.5,4.5,0,0,1,.6-.17,3.05,3.05,0,0,1,.6-.06,1.71,1.71,0,0,1,.74.14,1,1,0,0,1,.42.45,2.34,2.34,0,0,1,.14.91V226a1.09,1.09,0,0,0,0,.26.42.42,0,0,0,.07.19.36.36,0,0,0,.14.13,1,1,0,0,0,.29.1v.23H95ZM95,224.75a3.23,3.23,0,0,0-1.41.25.77.77,0,0,0-.47.72.72.72,0,0,0,.11.42.56.56,0,0,0,.27.21,1.14,1.14,0,0,0,.39.06,1.13,1.13,0,0,0,.57-.15,1.15,1.15,0,0,0,.4-.39.88.88,0,0,0,.14-.47Z"/><path d="M98.83,222.66a1.13,1.13,0,0,0,.38-.13.64.64,0,0,0,.22-.24,1.15,1.15,0,0,0,.13-.37c0-.14.06-.36.1-.64h.66v1.15h1.5v.47h-1.5V225a6.83,6.83,0,0,0,0,.72,1.22,1.22,0,0,0,.14.41.62.62,0,0,0,.24.22.75.75,0,0,0,.33.06.84.84,0,0,0,.35-.07,1.53,1.53,0,0,0,.32-.22l.21.25a2.38,2.38,0,0,1-.63.46,1.31,1.31,0,0,1-.61.15,1.08,1.08,0,0,1-.89-.36,1.78,1.78,0,0,1-.29-1.11V222.9h-.69Z"/><path d="M105,226.2l-.07,0a2.79,2.79,0,0,1-.76.58,1.66,1.66,0,0,1-.75.18,1.39,1.39,0,0,1-.63-.14,1,1,0,0,1-.41-.39,1,1,0,0,1-.14-.57,1.15,1.15,0,0,1,.67-1.05,4.94,4.94,0,0,1,2-.43v-.3a2.58,2.58,0,0,0-.09-.76.74.74,0,0,0-.3-.4.93.93,0,0,0-.53-.13.87.87,0,0,0-.58.18,1.13,1.13,0,0,0-.33.58h-.61v-.61c.29-.15.54-.26.74-.34a4.83,4.83,0,0,1,.59-.17,3.08,3.08,0,0,1,.61-.06,1.66,1.66,0,0,1,.73.14.92.92,0,0,1,.42.45,2.34,2.34,0,0,1,.14.91v1.61c0,.23,0,.4,0,.49a2.11,2.11,0,0,0,0,.26.58.58,0,0,0,.07.19.44.44,0,0,0,.14.13,1.34,1.34,0,0,0,.29.1v.23H105Zm-.08-1.45a3.17,3.17,0,0,0-1.41.25.77.77,0,0,0-.47.72.66.66,0,0,0,.11.42.56.56,0,0,0,.27.21,1,1,0,0,0,.38.06,1.1,1.1,0,0,0,.57-.15,1.07,1.07,0,0,0,.4-.39.89.89,0,0,0,.15-.47Z"/><path d="M108.22,223.2h.06a3.75,3.75,0,0,1,.47-.49,1.64,1.64,0,0,1,.48-.27,1.45,1.45,0,0,1,.57-.1,3.68,3.68,0,0,1,.49,0v1.06h-.53a1.06,1.06,0,0,0-.23-.36.5.5,0,0,0-.35-.12.7.7,0,0,0-.33.1,1.22,1.22,0,0,0-.32.29,1.16,1.16,0,0,0-.21.34,1.14,1.14,0,0,0-.06.39v1.62a2.37,2.37,0,0,0,0,.58.5.5,0,0,0,.17.24.9.9,0,0,0,.36.11v.23H107v-.23a1.59,1.59,0,0,0,.25-.09.37.37,0,0,0,.13-.12.55.55,0,0,0,.09-.23,2.67,2.67,0,0,0,0-.47v-2c0-.2,0-.35,0-.48a.67.67,0,0,0-.07-.28.35.35,0,0,0-.17-.17,1.9,1.9,0,0,0-.32-.09v-.24l1.09-.05h.28Z"/><path d="M112.15,226.77a3.25,3.25,0,0,1-.13,1,1.47,1.47,0,0,1-.47.66,2.69,2.69,0,0,1-.93.45l-.15-.41a4.76,4.76,0,0,0,.44-.21,1.06,1.06,0,0,0,.24-.23.85.85,0,0,0,.15-.36,2.32,2.32,0,0,0,0-.57v-3.45c0-.24,0-.41,0-.52a.7.7,0,0,0-.06-.24.31.31,0,0,0-.15-.15,1.3,1.3,0,0,0-.35-.11v-.24l1.09-.05h.28Zm0-6.16v.9h-.85v-.9Z"/><path d="M117.13,226.07a3.81,3.81,0,0,1-.55.49,2,2,0,0,1-.54.28,2.28,2.28,0,0,1-.66.1,1.81,1.81,0,0,1-1.44-.58,2.56,2.56,0,0,1-.49-1.69,2.92,2.92,0,0,1,.25-1.22,1.87,1.87,0,0,1,.71-.81,1.9,1.9,0,0,1,1.06-.29,1.94,1.94,0,0,1,.8.15,1.32,1.32,0,0,1,.52.4,1.87,1.87,0,0,1,.31.65,4.45,4.45,0,0,1,.12,1H114.3v.09a3.07,3.07,0,0,0,.12.92,1.17,1.17,0,0,0,.4.58,1.22,1.22,0,0,0,.74.21,1.51,1.51,0,0,0,.68-.14,2,2,0,0,0,.6-.46Zm-.78-1.88a3.35,3.35,0,0,0-.13-.82,1,1,0,0,0-.29-.49.77.77,0,0,0-.51-.17.89.89,0,0,0-.76.39,2.1,2.1,0,0,0-.34,1.09Z"/><path d="M117.78,222.66a1.06,1.06,0,0,0,.37-.13.66.66,0,0,0,.23-.24,2,2,0,0,0,.13-.37c0-.14.06-.36.09-.64h.66v1.15h1.5v.47h-1.5V225a4.67,4.67,0,0,0,0,.72.9.9,0,0,0,.14.41.6.6,0,0,0,.23.22.92.92,0,0,0,.68,0,1.31,1.31,0,0,0,.32-.22l.21.25a2.52,2.52,0,0,1-.62.46,1.34,1.34,0,0,1-.61.15,1.07,1.07,0,0,1-.89-.36,1.71,1.71,0,0,1-.3-1.11V222.9h-.68Z"/><path d="M124,226.2l-.07,0a2.79,2.79,0,0,1-.76.58,1.6,1.6,0,0,1-.75.18,1.35,1.35,0,0,1-.62-.14,1,1,0,0,1-.42-.39,1.18,1.18,0,0,1,.53-1.62,5,5,0,0,1,2-.43v-.3a2.58,2.58,0,0,0-.09-.76.72.72,0,0,0-.29-.4,1,1,0,0,0-.54-.13.89.89,0,0,0-.58.18,1.2,1.2,0,0,0-.33.58h-.61v-.61c.3-.15.55-.26.74-.34a4.5,4.5,0,0,1,.6-.17,3.05,3.05,0,0,1,.6-.06,1.71,1.71,0,0,1,.74.14,1,1,0,0,1,.42.45,2.34,2.34,0,0,1,.14.91V226a1.09,1.09,0,0,0,0,.26.42.42,0,0,0,.07.19.36.36,0,0,0,.14.13,1,1,0,0,0,.29.1v.23h-1.27Zm-.08-1.45a3.2,3.2,0,0,0-1.41.25.77.77,0,0,0-.47.72.72.72,0,0,0,.11.42.56.56,0,0,0,.27.21,1.12,1.12,0,0,0,.38.06,1.13,1.13,0,0,0,1-.54,1,1,0,0,0,.14-.47Z"/><path d="M126.9,225.78v1.08H126v-1.08Z"/><path d="M29.74,33.06v1.66a3.13,3.13,0,0,0,0,.51,1,1,0,0,0,.08.24.64.64,0,0,0,.15.13,1.86,1.86,0,0,0,.32.11V36H28.26v-.24a1,1,0,0,0,.4-.17.5.5,0,0,0,.14-.27,3.57,3.57,0,0,0,0-.54V30.51a2.77,2.77,0,0,0,0-.49.52.52,0,0,0-.08-.24.41.41,0,0,0-.15-.14,1.68,1.68,0,0,0-.31-.11v-.24h2.41a3,3,0,0,1,1.71.41A1.5,1.5,0,0,1,33,31a1.81,1.81,0,0,1-.37,1.14,2.35,2.35,0,0,1-1.11.73v0a1.41,1.41,0,0,1,.51.35,3.09,3.09,0,0,1,.47.71l.44.8a5.28,5.28,0,0,0,.33.53,1.3,1.3,0,0,0,.28.29.89.89,0,0,0,.38.13V36H32.52c-.12-.17-.24-.36-.35-.55l-.33-.61L31.41,34c-.13-.25-.23-.43-.31-.55a1.16,1.16,0,0,0-.23-.25.67.67,0,0,0-.23-.1l-.36,0Zm0-3.32v2.9h.56a3.27,3.27,0,0,0,.69-.06,1.21,1.21,0,0,0,.48-.24,1.16,1.16,0,0,0,.36-.47,1.89,1.89,0,0,0,.14-.75,1.72,1.72,0,0,0-.16-.77,1.09,1.09,0,0,0-.48-.47,2,2,0,0,0-.87-.16C30.16,29.72,29.93,29.72,29.74,29.74Z"/><path d="M38.25,35.12a5,5,0,0,1-.57.52,2.42,2.42,0,0,1-.58.29,2.09,2.09,0,0,1-.69.1,1.87,1.87,0,0,1-1.51-.6,2.65,2.65,0,0,1-.52-1.78,3,3,0,0,1,.27-1.29,2,2,0,0,1,.74-.86,2.05,2.05,0,0,1,1.11-.3,1.94,1.94,0,0,1,.84.16,1.5,1.5,0,0,1,.56.42,2.32,2.32,0,0,1,.32.69,4.29,4.29,0,0,1,.13,1.08H35.27v.08a3.3,3.3,0,0,0,.13,1,1.27,1.27,0,0,0,.43.62,1.21,1.21,0,0,0,.77.22,1.72,1.72,0,0,0,.72-.15,2.2,2.2,0,0,0,.63-.48Zm-.82-2a3.63,3.63,0,0,0-.13-.86,1,1,0,0,0-.31-.51.78.78,0,0,0-.54-.18,1,1,0,0,0-.8.4,2.12,2.12,0,0,0-.35,1.15Z"/><path d="M42.87,31.4v1h-.63a1.57,1.57,0,0,0-.2-.5.68.68,0,0,0-.28-.26,1,1,0,0,0-.4-.07.92.92,0,0,0-.61.22,1.46,1.46,0,0,0-.42.67,3.46,3.46,0,0,0-.15,1.09,4.34,4.34,0,0,0,.06.76,1.64,1.64,0,0,0,.2.59,1,1,0,0,0,.37.38,1.17,1.17,0,0,0,.59.14,1.44,1.44,0,0,0,.62-.13,1.89,1.89,0,0,0,.61-.47l.27.33a3.3,3.3,0,0,1-.44.42,2.06,2.06,0,0,1-.4.25,2,2,0,0,1-.43.14,2,2,0,0,1-1.88-.56,2.83,2.83,0,0,1-.48-1.77,2.9,2.9,0,0,1,.27-1.28,2,2,0,0,1,.77-.87,2.12,2.12,0,0,1,1.13-.3,5.5,5.5,0,0,1,.74.05A4.26,4.26,0,0,1,42.87,31.4Z"/><path d="M43.52,31.28h1.39v2.49c0,.38,0,.67,0,.87a1.26,1.26,0,0,0,.14.45.75.75,0,0,0,.25.25.77.77,0,0,0,.44.11.94.94,0,0,0,.36-.08,1.43,1.43,0,0,0,.38-.26,1.19,1.19,0,0,0,.3-.36.93.93,0,0,0,.09-.42V32.5a4.19,4.19,0,0,0,0-.42.71.71,0,0,0,0-.23.64.64,0,0,0-.08-.14.48.48,0,0,0-.13-.09l-.27-.1v-.24h1.39v3.34c0,.25,0,.43,0,.54a.67.67,0,0,0,.07.27.36.36,0,0,0,.15.15,1.47,1.47,0,0,0,.36.12V36l-1.11,0h-.3l0-.8-.08,0a3.32,3.32,0,0,1-.77.65,1.58,1.58,0,0,1-.74.2,1.43,1.43,0,0,1-.73-.17,1.08,1.08,0,0,1-.43-.53,2.57,2.57,0,0,1-.14-1V32.5a2.38,2.38,0,0,0,0-.56.45.45,0,0,0-.12-.25,1,1,0,0,0-.39-.17Z"/><path d="M50.48,32.1h.07A3.47,3.47,0,0,1,51,31.6a1.85,1.85,0,0,1,.5-.3,1.89,1.89,0,0,1,.6-.1,4.17,4.17,0,0,1,.52,0v1.12H52.1a1,1,0,0,0-.25-.38.49.49,0,0,0-.36-.12.81.81,0,0,0-.35.1,1.49,1.49,0,0,0-.33.3,1.13,1.13,0,0,0-.22.37,1.2,1.2,0,0,0-.06.4v1.71a2.28,2.28,0,0,0,0,.62.45.45,0,0,0,.18.24,1.14,1.14,0,0,0,.37.12V36h-2v-.24a1.44,1.44,0,0,0,.27-.1.53.53,0,0,0,.14-.12.55.55,0,0,0,.09-.24,3.07,3.07,0,0,0,0-.5V32.62c0-.21,0-.38,0-.51a.83.83,0,0,0-.07-.3.37.37,0,0,0-.18-.17,1.41,1.41,0,0,0-.34-.1v-.25l1.14-.05h.3Z"/><path d="M56.57,32.35H56.1a1.54,1.54,0,0,0-.26-.46.69.69,0,0,0-.33-.23,1.18,1.18,0,0,0-.45-.07,1,1,0,0,0-.62.18.59.59,0,0,0-.24.5.62.62,0,0,0,.1.37.93.93,0,0,0,.28.28,5.82,5.82,0,0,0,.69.33,5.81,5.81,0,0,1,.77.4,1.57,1.57,0,0,1,.43.42,1.05,1.05,0,0,1,.15.57,1.42,1.42,0,0,1-.13.65,1.18,1.18,0,0,1-.37.43,1.63,1.63,0,0,1-.57.24,3.26,3.26,0,0,1-.72.07A5.19,5.19,0,0,1,54,36a6.24,6.24,0,0,1-.75-.16v-1h.48a1.24,1.24,0,0,0,.39.65,1.09,1.09,0,0,0,.71.21,2.09,2.09,0,0,0,.35,0,1.34,1.34,0,0,0,.3-.12.83.83,0,0,0,.21-.24.77.77,0,0,0,.07-.36.83.83,0,0,0-.09-.41,1,1,0,0,0-.31-.28,4,4,0,0,0-.72-.35,6.56,6.56,0,0,1-.71-.36,1.4,1.4,0,0,1-.42-.42,1,1,0,0,1-.16-.56,1.12,1.12,0,0,1,.22-.7,1.25,1.25,0,0,1,.63-.45,2.54,2.54,0,0,1,1-.16c.21,0,.42,0,.62,0s.45.07.76.13Z"/><path d="M59.72,36a2,2,0,0,1-1.55-.6,2.57,2.57,0,0,1-.54-1.77,3,3,0,0,1,.28-1.36,1.94,1.94,0,0,1,.77-.83,2.28,2.28,0,0,1,1.11-.27,2,2,0,0,1,1.59.61,2.6,2.6,0,0,1,.53,1.75,3.08,3.08,0,0,1-.27,1.36,1.83,1.83,0,0,1-.76.84A2.39,2.39,0,0,1,59.72,36Zm-1.17-2.47a3.12,3.12,0,0,0,.32,1.55,1.06,1.06,0,0,0,1.48.38,1.3,1.3,0,0,0,.37-.43,2.26,2.26,0,0,0,.21-.62A4.52,4.52,0,0,0,61,33.7a3.64,3.64,0,0,0-.16-1.19,1.45,1.45,0,0,0-.43-.7,1,1,0,0,0-.63-.22,1,1,0,0,0-.9.51A2.8,2.8,0,0,0,58.55,33.56Z"/><path d="M67.92,35.25h-.07a2.88,2.88,0,0,1-.8.61,1.79,1.79,0,0,1-.79.18,1.53,1.53,0,0,1-.66-.14,1.06,1.06,0,0,1-.43-.41,1.16,1.16,0,0,1-.15-.6,1.2,1.2,0,0,1,.7-1.1,5,5,0,0,1,2.12-.45V33a2.44,2.44,0,0,0-.1-.8.73.73,0,0,0-.3-.43,1,1,0,0,0-.57-.14.93.93,0,0,0-.61.2,1.35,1.35,0,0,0-.35.6h-.64v-.63a6.81,6.81,0,0,1,.78-.36,3.73,3.73,0,0,1,.63-.18,2.7,2.7,0,0,1,.63-.07,1.59,1.59,0,0,1,.78.16,1,1,0,0,1,.44.47,2.32,2.32,0,0,1,.15,1V35a1.27,1.27,0,0,0,0,.28.77.77,0,0,0,.07.2.38.38,0,0,0,.15.13,1.16,1.16,0,0,0,.31.11V36H67.9Zm-.08-1.52a3.32,3.32,0,0,0-1.48.26.82.82,0,0,0-.5.77.74.74,0,0,0,.12.44.6.6,0,0,0,.28.22,1.2,1.2,0,0,0,.4.06,1.13,1.13,0,0,0,.61-.16,1.27,1.27,0,0,0,.42-.41,1,1,0,0,0,.15-.5Z"/><path d="M73.28,30.65c0-.32,0-.54,0-.66a1.3,1.3,0,0,0,0-.31.71.71,0,0,0-.08-.21.38.38,0,0,0-.16-.11,1.4,1.4,0,0,0-.34-.09V29l1.18,0h.29v5.65c0,.25,0,.44,0,.54a.88.88,0,0,0,.07.27.36.36,0,0,0,.15.15,1.43,1.43,0,0,0,.37.12V36l-1.15,0h-.29l0-.8-.07,0a3.67,3.67,0,0,1-.53.49,2.11,2.11,0,0,1-.49.26,1.55,1.55,0,0,1-1.78-.51A3,3,0,0,1,70,33.67a2.94,2.94,0,0,1,.29-1.36,1.92,1.92,0,0,1,.76-.83,2.07,2.07,0,0,1,1.08-.28,3.51,3.51,0,0,1,.59.05,3.32,3.32,0,0,1,.54.17Zm0,2.41a4.82,4.82,0,0,0,0-.61,1.28,1.28,0,0,0-.12-.39.68.68,0,0,0-.22-.26.87.87,0,0,0-.3-.16,1.48,1.48,0,0,0-.39-.05,1.07,1.07,0,0,0-1,.5,2.65,2.65,0,0,0-.33,1.44A3,3,0,0,0,71.21,35a.89.89,0,0,0,.82.49,1.61,1.61,0,0,0,.35,0,1,1,0,0,0,.28-.12,1.67,1.67,0,0,0,.28-.22,2,2,0,0,0,.21-.26,1.69,1.69,0,0,0,.1-.27,2.06,2.06,0,0,0,0-.39Z"/><path d="M75.53,35.71a1.44,1.44,0,0,0,.27-.1.41.41,0,0,0,.14-.12.55.55,0,0,0,.09-.24,3.07,3.07,0,0,0,0-.5V32.62c0-.21,0-.38,0-.51a.83.83,0,0,0-.07-.3.37.37,0,0,0-.18-.17,1.41,1.41,0,0,0-.34-.1v-.26l1.14,0h.3v3.49a2.69,2.69,0,0,0,0,.59.36.36,0,0,0,.15.24.88.88,0,0,0,.36.15V36H75.53Zm1.4-6.34v.95H76v-.95Z"/><path d="M82,31.4v1h-.62a1.83,1.83,0,0,0-.21-.5.63.63,0,0,0-.28-.26,1,1,0,0,0-.4-.07.92.92,0,0,0-.61.22,1.45,1.45,0,0,0-.41.67,3.17,3.17,0,0,0-.16,1.09,4.34,4.34,0,0,0,.06.76,1.86,1.86,0,0,0,.2.59,1,1,0,0,0,.38.38,1.13,1.13,0,0,0,.58.14,1.51,1.51,0,0,0,.63-.13,2,2,0,0,0,.6-.47l.28.33a5.22,5.22,0,0,1-.44.42,2.5,2.5,0,0,1-.41.25,2,2,0,0,1-.43.14,1.71,1.71,0,0,1-.46.05,1.68,1.68,0,0,1-1.41-.61,2.76,2.76,0,0,1-.49-1.77,2.9,2.9,0,0,1,.27-1.28,2,2,0,0,1,.77-.87,2.16,2.16,0,0,1,1.14-.3,5.74,5.74,0,0,1,.74.05A4.38,4.38,0,0,1,82,31.4Z"/><path d="M82.72,35.71a1.44,1.44,0,0,0,.27-.1.53.53,0,0,0,.14-.12.74.74,0,0,0,.08-.24,2.12,2.12,0,0,0,0-.5V32.62c0-.21,0-.38,0-.51a.83.83,0,0,0-.07-.3.37.37,0,0,0-.18-.17,1.41,1.41,0,0,0-.34-.1v-.26l1.14,0h.3v3.49a3.89,3.89,0,0,0,0,.59.45.45,0,0,0,.15.24,1,1,0,0,0,.36.15V36H82.72Zm1.4-6.34v.95h-.9v-.95Z"/><path d="M87.62,36a2,2,0,0,1-1.55-.6,2.57,2.57,0,0,1-.53-1.77,3,3,0,0,1,.28-1.36,1.83,1.83,0,0,1,.77-.83,2.23,2.23,0,0,1,1.11-.27,2,2,0,0,1,1.58.61,2.55,2.55,0,0,1,.54,1.75,3.08,3.08,0,0,1-.27,1.36,1.89,1.89,0,0,1-.76.84A2.41,2.41,0,0,1,87.62,36Zm-1.16-2.47a3.12,3.12,0,0,0,.32,1.55,1,1,0,0,0,1.47.38,1.19,1.19,0,0,0,.37-.43,2,2,0,0,0,.21-.62,4.53,4.53,0,0,0,.07-.74,3.93,3.93,0,0,0-.16-1.19,1.46,1.46,0,0,0-.44-.7.94.94,0,0,0-.62-.22,1,1,0,0,0-.91.51A2.81,2.81,0,0,0,86.46,33.56Z"/><path d="M95.56,36H93.64v-.24a1.79,1.79,0,0,0,.27-.1.41.41,0,0,0,.14-.12.55.55,0,0,0,.09-.24,3.07,3.07,0,0,0,0-.5V33.47c0-.23,0-.43,0-.62a2.24,2.24,0,0,0-.07-.45.74.74,0,0,0-.11-.28.63.63,0,0,0-.15-.17.88.88,0,0,0-.21-.12,1.23,1.23,0,0,0-.31,0,.86.86,0,0,0-.36.08,1.52,1.52,0,0,0-.38.26,1.63,1.63,0,0,0-.3.37.88.88,0,0,0-.09.41v1.82a3.54,3.54,0,0,0,0,.59.45.45,0,0,0,.15.24.88.88,0,0,0,.36.15V36H90.8v-.24l.28-.1a.49.49,0,0,0,.13-.12.55.55,0,0,0,.09-.24,3.07,3.07,0,0,0,0-.5V32.62c0-.21,0-.38,0-.51a.66.66,0,0,0-.07-.3.35.35,0,0,0-.17-.17,1.56,1.56,0,0,0-.34-.1v-.26l1.14,0h.3l-.06.8.07,0a4.66,4.66,0,0,1,.59-.53,2.11,2.11,0,0,1,.44-.24,1.61,1.61,0,0,1,.48-.08,1.75,1.75,0,0,1,.48.06,1,1,0,0,1,.36.19.86.86,0,0,1,.26.31,1.83,1.83,0,0,1,.16.45,4.08,4.08,0,0,1,.05.67v1.84c0,.23,0,.39,0,.49a.45.45,0,0,0,.07.23.32.32,0,0,0,.14.14,1.2,1.2,0,0,0,.32.12Z"/><path d="M99.21,35.25h-.08a2.85,2.85,0,0,1-.79.61,1.84,1.84,0,0,1-.8.18,1.51,1.51,0,0,1-.65-.14,1.09,1.09,0,0,1-.44-.41,1.16,1.16,0,0,1-.15-.6,1.21,1.21,0,0,1,.71-1.1,4.91,4.91,0,0,1,2.11-.45V33a2.79,2.79,0,0,0-.09-.8.79.79,0,0,0-.31-.43,1,1,0,0,0-.56-.14.9.9,0,0,0-.61.2,1.19,1.19,0,0,0-.35.6h-.64v-.63a6.11,6.11,0,0,1,.78-.36,3.62,3.62,0,0,1,.62-.18,2.73,2.73,0,0,1,.64-.07,1.55,1.55,0,0,1,.77.16.88.88,0,0,1,.44.47,2.32,2.32,0,0,1,.15,1V35l0,.28a.52.52,0,0,0,.08.2.35.35,0,0,0,.14.13,1.51,1.51,0,0,0,.31.11V36H99.18Zm-.09-1.52a3.32,3.32,0,0,0-1.48.26.87.87,0,0,0-.38,1.21.6.6,0,0,0,.28.22,1.27,1.27,0,0,0,.41.06,1.12,1.12,0,0,0,.6-.16,1.27,1.27,0,0,0,.42-.41,1,1,0,0,0,.15-.5Z"/><path d="M102.57,34.73a3.54,3.54,0,0,0,0,.59.45.45,0,0,0,.15.24.88.88,0,0,0,.36.15V36h-1.94v-.24a1,1,0,0,0,.34-.13.43.43,0,0,0,.14-.16,2.07,2.07,0,0,0,.06-.26c0-.11,0-.25,0-.43V30a2.15,2.15,0,0,0,0-.31.69.69,0,0,0-.09-.21.42.42,0,0,0-.15-.11,1.68,1.68,0,0,0-.35-.09V29l1.18,0h.29Z"/><path d="M107.51,35.81v1c0,.21,0,.37,0,.47a.73.73,0,0,0,.08.25.46.46,0,0,0,.16.15,1.6,1.6,0,0,0,.34.1v.24h-2v-.24a1.28,1.28,0,0,0,.28-.1.31.31,0,0,0,.17-.15.62.62,0,0,0,.08-.27c0-.11,0-.26,0-.45V32.65c0-.24,0-.4,0-.5a1.45,1.45,0,0,0,0-.25.35.35,0,0,0-.09-.16.37.37,0,0,0-.15-.11,1.51,1.51,0,0,0-.31-.09v-.26l1.15,0h.29l-.06.8.07,0a5.4,5.4,0,0,1,.48-.45,2.06,2.06,0,0,1,.37-.23,1.3,1.3,0,0,1,.36-.13,1.45,1.45,0,0,1,.37,0,1.42,1.42,0,0,1,1.23.6,3,3,0,0,1,.44,1.76,3.41,3.41,0,0,1-.25,1.36,1.76,1.76,0,0,1-.71.83,2.17,2.17,0,0,1-1.11.27,3.2,3.2,0,0,1-.65-.06A3.46,3.46,0,0,1,107.51,35.81Zm0-1.61a3.32,3.32,0,0,0,.06.72.89.89,0,0,0,.21.41.79.79,0,0,0,.35.24,1.52,1.52,0,0,0,.53.08,1,1,0,0,0,.89-.5,2.78,2.78,0,0,0,.3-1.44c0-1.28-.37-1.92-1.12-1.92a1.13,1.13,0,0,0-.47.09,1.53,1.53,0,0,0-.39.27,1.24,1.24,0,0,0-.28.37,1,1,0,0,0-.08.39Z"/><path d="M114.57,35.25h-.07a3,3,0,0,1-.8.61,1.84,1.84,0,0,1-.8.18,1.51,1.51,0,0,1-.65-.14,1,1,0,0,1-.43-.41,1.08,1.08,0,0,1-.16-.6,1.21,1.21,0,0,1,.71-1.1,5,5,0,0,1,2.12-.45V33a2.74,2.74,0,0,0-.1-.8.79.79,0,0,0-.31-.43,1,1,0,0,0-.56-.14.91.91,0,0,0-.61.2,1.26,1.26,0,0,0-.35.6h-.64v-.63a6.11,6.11,0,0,1,.78-.36,3.9,3.9,0,0,1,.62-.18,2.73,2.73,0,0,1,.64-.07,1.61,1.61,0,0,1,.78.16.9.9,0,0,1,.43.47,2.32,2.32,0,0,1,.15,1v1.7c0,.24,0,.41,0,.51a1.27,1.27,0,0,0,0,.28.52.52,0,0,0,.07.2.35.35,0,0,0,.14.13,1.51,1.51,0,0,0,.31.11V36h-1.34Zm-.08-1.52A3.37,3.37,0,0,0,113,34a.87.87,0,0,0-.38,1.21.66.66,0,0,0,.28.22,1.27,1.27,0,0,0,.41.06,1.12,1.12,0,0,0,.6-.16,1.27,1.27,0,0,0,.42-.41.89.89,0,0,0,.16-.5Z"/><path d="M118,32.1H118a3.47,3.47,0,0,1,.49-.51,1.85,1.85,0,0,1,.5-.3,1.89,1.89,0,0,1,.6-.1,4.17,4.17,0,0,1,.52,0v1.12h-.56a1,1,0,0,0-.25-.38.49.49,0,0,0-.36-.12.74.74,0,0,0-.34.1,1.33,1.33,0,0,0-.34.3,1.13,1.13,0,0,0-.22.37,1.2,1.2,0,0,0-.06.4v1.71a2.78,2.78,0,0,0,0,.62.45.45,0,0,0,.18.24,1.14,1.14,0,0,0,.37.12V36h-2v-.24a1.44,1.44,0,0,0,.27-.1.53.53,0,0,0,.14-.12.55.55,0,0,0,.09-.24,3.07,3.07,0,0,0,0-.5V32.62c0-.21,0-.38,0-.51a.83.83,0,0,0-.07-.3.37.37,0,0,0-.18-.17,1.41,1.41,0,0,0-.34-.1v-.25l1.14-.05h.3Z"/><path d="M123.59,35.25h-.08a2.85,2.85,0,0,1-.79.61,1.84,1.84,0,0,1-.8.18,1.51,1.51,0,0,1-.65-.14,1.09,1.09,0,0,1-.44-.41,1.16,1.16,0,0,1-.15-.6,1.21,1.21,0,0,1,.71-1.1,4.91,4.91,0,0,1,2.11-.45V33a2.79,2.79,0,0,0-.09-.8.79.79,0,0,0-.31-.43,1,1,0,0,0-.56-.14.9.9,0,0,0-.61.2,1.19,1.19,0,0,0-.35.6h-.64v-.63a6.11,6.11,0,0,1,.78-.36,3.62,3.62,0,0,1,.62-.18,2.73,2.73,0,0,1,.64-.07,1.55,1.55,0,0,1,.77.16.88.88,0,0,1,.44.47,2.32,2.32,0,0,1,.15,1V35l0,.28a.52.52,0,0,0,.08.2.35.35,0,0,0,.14.13,1.51,1.51,0,0,0,.31.11V36h-1.34Zm-.09-1.52A3.32,3.32,0,0,0,122,34a.87.87,0,0,0-.38,1.21.6.6,0,0,0,.28.22,1.27,1.27,0,0,0,.41.06,1.12,1.12,0,0,0,.6-.16,1.27,1.27,0,0,0,.42-.41,1,1,0,0,0,.15-.5Z"/><path d="M34,44.1h.07a3.47,3.47,0,0,1,.49-.51,1.85,1.85,0,0,1,.5-.3,1.89,1.89,0,0,1,.6-.1,4.17,4.17,0,0,1,.52,0v1.12h-.56a1.19,1.19,0,0,0-.24-.38.53.53,0,0,0-.37-.12.81.81,0,0,0-.35.1,1.49,1.49,0,0,0-.33.3,1.13,1.13,0,0,0-.22.37,1.2,1.2,0,0,0-.06.4v1.71a2.28,2.28,0,0,0,0,.62.45.45,0,0,0,.18.24,1.14,1.14,0,0,0,.37.12V48h-2v-.24a1.58,1.58,0,0,0,.26-.1.53.53,0,0,0,.14-.12.55.55,0,0,0,.09-.24,3.07,3.07,0,0,0,0-.5V44.62c0-.21,0-.38,0-.51a.83.83,0,0,0-.07-.3.37.37,0,0,0-.18-.17,1.41,1.41,0,0,0-.34-.1v-.25l1.14,0h.3Z"/><path d="M40.63,47.12a4.29,4.29,0,0,1-.58.52,2.05,2.05,0,0,1-1.26.39,1.89,1.89,0,0,1-1.52-.6,2.7,2.7,0,0,1-.51-1.78A3.09,3.09,0,0,1,37,44.36a2,2,0,0,1,.75-.86,2.05,2.05,0,0,1,1.11-.3,1.94,1.94,0,0,1,.84.16,1.47,1.47,0,0,1,.55.42,2.11,2.11,0,0,1,.33.69,4.9,4.9,0,0,1,.12,1.08H37.65v.08a3,3,0,0,0,.13,1,1.13,1.13,0,0,0,1.19.84,1.66,1.66,0,0,0,.72-.15,2.1,2.1,0,0,0,.64-.48Zm-.82-2a3.58,3.58,0,0,0-.14-.86,1,1,0,0,0-.3-.51.8.8,0,0,0-.54-.18.93.93,0,0,0-.8.4,2.2,2.2,0,0,0-.36,1.15Z"/><path d="M44.87,44.35h-.46a1.8,1.8,0,0,0-.26-.46.79.79,0,0,0-.33-.23,1.18,1.18,0,0,0-.45-.07,1,1,0,0,0-.63.18.61.61,0,0,0-.23.5.7.7,0,0,0,.09.37,1.11,1.11,0,0,0,.29.28,5.82,5.82,0,0,0,.69.33,5.81,5.81,0,0,1,.77.4,1.57,1.57,0,0,1,.43.42,1.05,1.05,0,0,1,.15.57,1.57,1.57,0,0,1-.13.65,1.18,1.18,0,0,1-.37.43,1.63,1.63,0,0,1-.57.24,3.26,3.26,0,0,1-.72.07,5.19,5.19,0,0,1-.8-.06,5.85,5.85,0,0,1-.75-.16v-1h.48a1.24,1.24,0,0,0,.39.65,1.09,1.09,0,0,0,.71.21,2.09,2.09,0,0,0,.35,0,1.34,1.34,0,0,0,.3-.12.83.83,0,0,0,.21-.24.77.77,0,0,0,.07-.36.83.83,0,0,0-.09-.41,1,1,0,0,0-.31-.28,4,4,0,0,0-.72-.35,5.74,5.74,0,0,1-.71-.36,1.4,1.4,0,0,1-.42-.42,1,1,0,0,1-.16-.56,1.12,1.12,0,0,1,.22-.7,1.25,1.25,0,0,1,.63-.45,2.54,2.54,0,0,1,1-.16c.21,0,.42,0,.62,0s.45.07.75.13Z"/><path d="M48,48a2,2,0,0,1-1.55-.6,2.62,2.62,0,0,1-.53-1.77,3,3,0,0,1,.28-1.36,1.88,1.88,0,0,1,.77-.83,2.28,2.28,0,0,1,1.11-.27,2,2,0,0,1,1.58.61,2.55,2.55,0,0,1,.54,1.75A3.08,3.08,0,0,1,50,46.92a1.89,1.89,0,0,1-.76.84A2.41,2.41,0,0,1,48,48Zm-1.16-2.47a3.12,3.12,0,0,0,.32,1.55,1,1,0,0,0,.92.54,1,1,0,0,0,.55-.16,1.22,1.22,0,0,0,.38-.43,2.65,2.65,0,0,0,.21-.62,4.52,4.52,0,0,0,.06-.74,3.64,3.64,0,0,0-.16-1.19,1.53,1.53,0,0,0-.43-.7,1,1,0,0,0-.63-.22,1,1,0,0,0-.9.51A2.8,2.8,0,0,0,46.86,45.56Z"/><path d="M52.51,46.73a3.54,3.54,0,0,0,0,.59.45.45,0,0,0,.15.24.88.88,0,0,0,.36.15V48H51.12v-.24a1,1,0,0,0,.34-.13.43.43,0,0,0,.14-.16,2.07,2.07,0,0,0,.06-.26c0-.11,0-.25,0-.43V42.65c0-.32,0-.54,0-.66a1.35,1.35,0,0,0,0-.31,1.09,1.09,0,0,0-.09-.21.42.42,0,0,0-.15-.11,1.68,1.68,0,0,0-.35-.09V41l1.18,0h.29Z"/><path d="M55.53,43.28v.24a1.16,1.16,0,0,0-.31.11.33.33,0,0,0-.14.12A.46.46,0,0,0,55,44a1.41,1.41,0,0,0,0,.28,3,3,0,0,0,.1.33L56,47l1-2.36c.06-.16.11-.29.14-.39a1.41,1.41,0,0,0,0-.28.38.38,0,0,0-.11-.31.78.78,0,0,0-.4-.18v-.24H58.5v.24a.85.85,0,0,0-.3.12,1.24,1.24,0,0,0-.2.26,4.23,4.23,0,0,0-.24.48L56.11,48h-.58l-1.32-3.65a2.75,2.75,0,0,0-.22-.51.74.74,0,0,0-.17-.21,1.09,1.09,0,0,0-.28-.11v-.24Z"/><path d="M62.8,47.12a5,5,0,0,1-.57.52,2.35,2.35,0,0,1-.57.29A2.17,2.17,0,0,1,61,48a1.89,1.89,0,0,1-1.52-.6,2.7,2.7,0,0,1-.51-1.78,2.94,2.94,0,0,1,.26-1.29,2,2,0,0,1,.74-.86,2.09,2.09,0,0,1,1.12-.3,2,2,0,0,1,.84.16,1.47,1.47,0,0,1,.55.42,1.92,1.92,0,0,1,.32.69,4.29,4.29,0,0,1,.13,1.08H59.82v.08a3.3,3.3,0,0,0,.13,1,1.27,1.27,0,0,0,.43.62,1.23,1.23,0,0,0,.77.22,1.69,1.69,0,0,0,.72-.15,2.37,2.37,0,0,0,.64-.48Zm-.82-2a3.63,3.63,0,0,0-.13-.86,1,1,0,0,0-.31-.51.76.76,0,0,0-.53-.18,1,1,0,0,0-.81.4,2.12,2.12,0,0,0-.35,1.15Z"/><path d="M65.1,44.1h.07a3.47,3.47,0,0,1,.49-.51,1.85,1.85,0,0,1,.5-.3,1.89,1.89,0,0,1,.6-.1,4.17,4.17,0,0,1,.52,0v1.12h-.56a1.19,1.19,0,0,0-.24-.38.53.53,0,0,0-.37-.12.81.81,0,0,0-.35.1,1.49,1.49,0,0,0-.33.3,1.13,1.13,0,0,0-.22.37,1.2,1.2,0,0,0-.06.4v1.71a2.28,2.28,0,0,0,0,.62.45.45,0,0,0,.18.24,1.14,1.14,0,0,0,.37.12V48h-2v-.24a1.44,1.44,0,0,0,.27-.1.53.53,0,0,0,.14-.12.55.55,0,0,0,.09-.24,3.07,3.07,0,0,0,0-.5V44.62c0-.21,0-.38,0-.51a.83.83,0,0,0-.07-.3.37.37,0,0,0-.18-.17,1.41,1.41,0,0,0-.34-.1v-.25l1.14,0h.3Z"/><path d="M74,47.12a5,5,0,0,1-.57.52,2.42,2.42,0,0,1-.58.29,2.17,2.17,0,0,1-.69.1,1.9,1.9,0,0,1-1.52-.6,2.7,2.7,0,0,1-.51-1.78,3.09,3.09,0,0,1,.26-1.29,2.1,2.1,0,0,1,.75-.86,2.05,2.05,0,0,1,1.11-.3,1.94,1.94,0,0,1,.84.16,1.39,1.39,0,0,1,.55.42,2.11,2.11,0,0,1,.33.69,4.81,4.81,0,0,1,.13,1.08H71v.08a3,3,0,0,0,.13,1,1.32,1.32,0,0,0,.42.62,1.25,1.25,0,0,0,.77.22,1.66,1.66,0,0,0,.72-.15,2.1,2.1,0,0,0,.64-.48Zm-.82-2a3.63,3.63,0,0,0-.13-.86,1,1,0,0,0-.31-.51.8.8,0,0,0-.54-.18,1,1,0,0,0-.8.4,2.12,2.12,0,0,0-.35,1.15Z"/><path d="M76.3,46.73a2.69,2.69,0,0,0,0,.59.36.36,0,0,0,.15.24.88.88,0,0,0,.36.15V48H74.91v-.24a1,1,0,0,0,.34-.13.33.33,0,0,0,.13-.16.77.77,0,0,0,.06-.26c0-.11,0-.25,0-.43V42.65c0-.32,0-.54,0-.66a1.3,1.3,0,0,0,0-.31.51.51,0,0,0-.09-.21.3.3,0,0,0-.15-.11,1.4,1.4,0,0,0-.34-.09V41L76,41h.29Z"/><path d="M81.24,47.81v1a2.91,2.91,0,0,0,0,.47.57.57,0,0,0,.08.25.39.39,0,0,0,.16.15,1.6,1.6,0,0,0,.34.1v.24h-2v-.24a1.21,1.21,0,0,0,.29-.1.35.35,0,0,0,.17-.15.79.79,0,0,0,.08-.27c0-.11,0-.26,0-.45V44.65c0-.24,0-.4,0-.5a1.45,1.45,0,0,0,0-.25.35.35,0,0,0-.09-.16.58.58,0,0,0-.15-.11,1.51,1.51,0,0,0-.31-.09v-.26l1.14,0h.3l-.06.8.07,0a4.29,4.29,0,0,1,.48-.45,2.41,2.41,0,0,1,.36-.23,1.58,1.58,0,0,1,.36-.13,1.5,1.5,0,0,1,.37,0,1.44,1.44,0,0,1,1.24.6,3,3,0,0,1,.43,1.76,3.41,3.41,0,0,1-.24,1.36,1.76,1.76,0,0,1-.71.83,2.17,2.17,0,0,1-1.11.27,3.37,3.37,0,0,1-.66-.06A3.67,3.67,0,0,1,81.24,47.81Zm0-1.61a4.3,4.3,0,0,0,.05.72.89.89,0,0,0,.21.41.92.92,0,0,0,.35.24,1.62,1.62,0,0,0,.54.08,1,1,0,0,0,.89-.5,2.79,2.79,0,0,0,.29-1.44q0-1.92-1.11-1.92a1.09,1.09,0,0,0-.47.09,1.41,1.41,0,0,0-.4.27,1.19,1.19,0,0,0-.27.37.85.85,0,0,0-.08.39Z"/><path d="M86.79,44.1h.07a3.48,3.48,0,0,1,.5-.51,1.8,1.8,0,0,1,.49-.3,1.9,1.9,0,0,1,.61-.1,3.89,3.89,0,0,1,.51,0v1.12h-.55a1.19,1.19,0,0,0-.25-.38.52.52,0,0,0-.36-.12.74.74,0,0,0-.35.1,1.43,1.43,0,0,0-.56.67,1.2,1.2,0,0,0-.06.4v1.71a2.17,2.17,0,0,0,.06.62.4.4,0,0,0,.17.24,1.21,1.21,0,0,0,.38.12V48h-2v-.24a1.58,1.58,0,0,0,.26-.1.33.33,0,0,0,.14-.12.55.55,0,0,0,.09-.24,3.07,3.07,0,0,0,0-.5V44.62c0-.21,0-.38,0-.51a.66.66,0,0,0-.07-.3.37.37,0,0,0-.18-.17,1.31,1.31,0,0,0-.33-.1v-.25l1.14,0h.3Z"/><path d="M91.64,48a2,2,0,0,1-1.55-.6,2.62,2.62,0,0,1-.53-1.77,3,3,0,0,1,.28-1.36,1.88,1.88,0,0,1,.77-.83,2.25,2.25,0,0,1,1.11-.27,2,2,0,0,1,1.58.61,2.55,2.55,0,0,1,.54,1.75,3.08,3.08,0,0,1-.27,1.36,1.89,1.89,0,0,1-.76.84A2.41,2.41,0,0,1,91.64,48Zm-1.16-2.47a3.12,3.12,0,0,0,.32,1.55,1,1,0,0,0,.92.54,1,1,0,0,0,.55-.16,1.22,1.22,0,0,0,.38-.43,2.65,2.65,0,0,0,.21-.62,4.52,4.52,0,0,0,.06-.74,3.64,3.64,0,0,0-.16-1.19,1.53,1.53,0,0,0-.43-.7,1,1,0,0,0-.63-.22,1,1,0,0,0-.9.51A2.8,2.8,0,0,0,90.48,45.56Z"/><path d="M96.06,44.05h0a4,4,0,0,1,.57-.52,1.77,1.77,0,0,1,.47-.25,1.74,1.74,0,0,1,.53-.08,1.55,1.55,0,0,1,.89.26,1.75,1.75,0,0,1,.58.8,3.82,3.82,0,0,1,.2,1.3,3.36,3.36,0,0,1-.24,1.35,1.76,1.76,0,0,1-.71.83,2.14,2.14,0,0,1-1.12.28,3,3,0,0,1-.68-.07,2.81,2.81,0,0,1-.67-.23l-.34.3L95.22,48v-5.3c0-.32,0-.54,0-.66a1.3,1.3,0,0,0,0-.31.51.51,0,0,0-.09-.21.3.3,0,0,0-.15-.11,1.55,1.55,0,0,0-.34-.09V41l1.18,0h.29Zm0,2.15a4.47,4.47,0,0,0,0,.59,1.15,1.15,0,0,0,.12.37.83.83,0,0,0,.23.27.88.88,0,0,0,.35.17,1.73,1.73,0,0,0,.42,0,1,1,0,0,0,.89-.48,2.76,2.76,0,0,0,.3-1.44,3.06,3.06,0,0,0-.27-1.45.91.91,0,0,0-.84-.49,1.13,1.13,0,0,0-.47.09,1.47,1.47,0,0,0-.39.26,1.26,1.26,0,0,0-.28.36.87.87,0,0,0-.09.4Z"/><path d="M101.61,46.73a3.89,3.89,0,0,0,0,.59.45.45,0,0,0,.15.24,1,1,0,0,0,.36.15V48h-1.94v-.24a.88.88,0,0,0,.34-.13.36.36,0,0,0,.14-.16.77.77,0,0,0,.06-.26c0-.11,0-.25,0-.43V42.65c0-.32,0-.54,0-.66a2.15,2.15,0,0,0,0-.31.51.51,0,0,0-.09-.21.42.42,0,0,0-.15-.11,1.55,1.55,0,0,0-.34-.09V41l1.17,0h.3Z"/><path d="M106.92,47.12a4.29,4.29,0,0,1-.58.52,2.05,2.05,0,0,1-1.26.39,1.9,1.9,0,0,1-1.52-.6,2.7,2.7,0,0,1-.51-1.78,3.09,3.09,0,0,1,.26-1.29,2,2,0,0,1,.75-.86,2.05,2.05,0,0,1,1.11-.3,1.94,1.94,0,0,1,.84.16,1.39,1.39,0,0,1,.55.42,2.11,2.11,0,0,1,.33.69,4.81,4.81,0,0,1,.13,1.08h-3.08v.08a3,3,0,0,0,.13,1,1.32,1.32,0,0,0,.42.62,1.25,1.25,0,0,0,.77.22,1.66,1.66,0,0,0,.72-.15,2.1,2.1,0,0,0,.64-.48Zm-.82-2a4.24,4.24,0,0,0-.13-.86,1.11,1.11,0,0,0-.31-.51.8.8,0,0,0-.54-.18.93.93,0,0,0-.8.4,2.2,2.2,0,0,0-.36,1.15Z"/><path d="M109.21,44l.07,0q.3-.3.48-.45l.37-.24a1.59,1.59,0,0,1,.32-.12,1.17,1.17,0,0,1,.32,0,1.33,1.33,0,0,1,.8.22,1.2,1.2,0,0,1,.42.69,7.88,7.88,0,0,1,.59-.55,2.26,2.26,0,0,1,.47-.27,1.44,1.44,0,0,1,.51-.09,1.57,1.57,0,0,1,.56.09.9.9,0,0,1,.4.3,1.18,1.18,0,0,1,.24.49,3.4,3.4,0,0,1,.08.8v1.84a5,5,0,0,0,0,.51.71.71,0,0,0,.07.22.38.38,0,0,0,.14.14,1.31,1.31,0,0,0,.31.11V48h-1.91v-.24l.27-.1a.53.53,0,0,0,.14-.12.55.55,0,0,0,.09-.24,3.07,3.07,0,0,0,0-.5V45.47c0-.27,0-.5,0-.68a3.13,3.13,0,0,0-.07-.44.73.73,0,0,0-.12-.25,1.07,1.07,0,0,0-.14-.16.64.64,0,0,0-.2-.11,1.08,1.08,0,0,0-.3,0,.86.86,0,0,0-.36.08,1.48,1.48,0,0,0-.37.26,1.32,1.32,0,0,0-.28.38,1,1,0,0,0-.09.44v1.78a5,5,0,0,0,0,.51.71.71,0,0,0,.07.22.47.47,0,0,0,.14.14,1.43,1.43,0,0,0,.32.11V48h-1.92v-.24a1.79,1.79,0,0,0,.27-.1.41.41,0,0,0,.14-.12.55.55,0,0,0,.09-.24,3.07,3.07,0,0,0,0-.5V45.47c0-.29,0-.52,0-.71a3.21,3.21,0,0,0-.08-.44.9.9,0,0,0-.13-.26.83.83,0,0,0-.17-.16.54.54,0,0,0-.19-.08,1,1,0,0,0-.25,0,.82.82,0,0,0-.38.09,1.63,1.63,0,0,0-.36.26,1.76,1.76,0,0,0-.28.36.9.9,0,0,0-.09.4v1.83a4.26,4.26,0,0,0,0,.43,1.2,1.2,0,0,0,0,.23.41.41,0,0,0,.08.13.85.85,0,0,0,.14.1,1.39,1.39,0,0,0,.27.09V48H107.9v-.24a1.58,1.58,0,0,0,.26-.1.33.33,0,0,0,.14-.12.55.55,0,0,0,.09-.24,3.07,3.07,0,0,0,0-.5V44.62c0-.21,0-.38,0-.51a.66.66,0,0,0-.07-.3.37.37,0,0,0-.18-.17,1.31,1.31,0,0,0-.33-.1v-.26l1.14,0h.3Z"/><path d="M119,47.25H119a2.88,2.88,0,0,1-.8.61,1.76,1.76,0,0,1-.79.18,1.48,1.48,0,0,1-.65-.14,1,1,0,0,1-.44-.41,1.16,1.16,0,0,1-.15-.6,1.21,1.21,0,0,1,.71-1.1,4.91,4.91,0,0,1,2.11-.45V45a2.79,2.79,0,0,0-.09-.8.79.79,0,0,0-.31-.43,1,1,0,0,0-.56-.14.94.94,0,0,0-.62.2,1.25,1.25,0,0,0-.34.6h-.64v-.63a6.11,6.11,0,0,1,.78-.36,3.38,3.38,0,0,1,.62-.18,2.73,2.73,0,0,1,.64-.07,1.55,1.55,0,0,1,.77.16.92.92,0,0,1,.44.47,2.32,2.32,0,0,1,.15,1V47l0,.28a.52.52,0,0,0,.08.2.35.35,0,0,0,.14.13,1.31,1.31,0,0,0,.31.11V48H119ZM119,45.73a3.32,3.32,0,0,0-1.48.26.81.81,0,0,0-.49.77.74.74,0,0,0,.11.44.6.6,0,0,0,.28.22,1.27,1.27,0,0,0,.41.06,1.12,1.12,0,0,0,.6-.16,1.27,1.27,0,0,0,.42-.41,1,1,0,0,0,.15-.5Z"/><rect class="cls-4" x="0.25" y="0.25" width="154" height="253" rx="9.73"/></g></g></svg>