<svg xmlns="http://www.w3.org/2000/svg" viewBox="0 0 154.5 253.5"><defs><style>.cls-1{fill:#2b56a4;}.cls-2{fill:#fff;}.cls-3{fill:#f6892d;}.cls-4{fill:#0a9ed9;}.cls-5,.cls-6{fill:none;}.cls-5{stroke:#f6892d;}.cls-6{stroke:#000;stroke-miterlimit:10;stroke-width:0.5px;}</style></defs><g id="Capa_2" data-name="Capa 2"><g id="Layer_1" data-name="Layer 1"><path class="cls-1" d="M46.6,15a7,7,0,0,1,1.5.14,3.54,3.54,0,0,1,1.07.44,2.72,2.72,0,0,1,.75.72,2.76,2.76,0,0,1,.43,1,5.22,5.22,0,0,1,.14,1.24,5.07,5.07,0,0,1-.2,1.51,3.1,3.1,0,0,1-.58,1.13,2.79,2.79,0,0,1-.86.7,3.75,3.75,0,0,1-1.17.39,9.3,9.3,0,0,1-1.43.1H43.81V22a1.21,1.21,0,0,0,.31-.11.39.39,0,0,0,.18-.18.88.88,0,0,0,.07-.27c0-.12,0-.26,0-.43V16.34c0-.17,0-.31,0-.43a.77.77,0,0,0-.07-.28.4.4,0,0,0-.17-.17,1.07,1.07,0,0,0-.32-.12V15Zm-.55,6.69h.49a2.62,2.62,0,0,0,1-.17,1.54,1.54,0,0,0,.51-.35,2.47,2.47,0,0,0,.53-1,5.55,5.55,0,0,0,.19-1.58,4.57,4.57,0,0,0-.27-1.69,2.15,2.15,0,0,0-.77-1,2.18,2.18,0,0,0-1.19-.32h-.48Z"/><path class="cls-1" d="M56.89,15v1.71h-.74a3.53,3.53,0,0,0-.3-.69.89.89,0,0,0-.3-.28,1.13,1.13,0,0,0-.58-.11H53.8v2.58h.71a.76.76,0,0,0,.37-.07.52.52,0,0,0,.22-.22,1.71,1.71,0,0,0,.17-.48h.61V19.6h-.61a2,2,0,0,0-.17-.48.59.59,0,0,0-.21-.23.78.78,0,0,0-.38-.07H53.8v2.87H55a1.39,1.39,0,0,0,.32,0,.57.57,0,0,0,.23-.08.74.74,0,0,0,.2-.16,1.12,1.12,0,0,0,.16-.22,2.86,2.86,0,0,0,.16-.31c0-.13.11-.31.18-.53h.73l-.1,2H51.56V22a1.21,1.21,0,0,0,.31-.11.39.39,0,0,0,.18-.18.88.88,0,0,0,.07-.27c0-.12,0-.26,0-.43V16.34c0-.17,0-.31,0-.43a.77.77,0,0,0-.07-.28.4.4,0,0,0-.17-.17,1.07,1.07,0,0,0-.32-.12V15Z"/><path class="cls-1" d="M58.58,20.51a1.88,1.88,0,0,0,.45.95,1.25,1.25,0,0,0,.92.31,1.48,1.48,0,0,0,.57-.1.93.93,0,0,0,.41-.35,1.11,1.11,0,0,0,.15-.6,1.34,1.34,0,0,0-.12-.58,1.52,1.52,0,0,0-.4-.46,4.66,4.66,0,0,0-.76-.47,7.62,7.62,0,0,1-.76-.43,2.87,2.87,0,0,1-.58-.5,2.16,2.16,0,0,1-.37-.59A1.9,1.9,0,0,1,58,17a1.88,1.88,0,0,1,.33-1.12,2,2,0,0,1,1-.7,3.93,3.93,0,0,1,1.43-.24,9,9,0,0,1,.92,0,7.52,7.52,0,0,1,1,.18v1.56h-.74a2,2,0,0,0-.26-.68.9.9,0,0,0-.39-.36,1.54,1.54,0,0,0-1.14,0,1,1,0,0,0-.39.32,1,1,0,0,0-.14.52,1.19,1.19,0,0,0,.12.54,1.39,1.39,0,0,0,.41.44,5.77,5.77,0,0,0,.83.5,5.69,5.69,0,0,1,1,.67,2.17,2.17,0,0,1,.55.72,2.14,2.14,0,0,1,.18.91,2.17,2.17,0,0,1-.3,1.15,2,2,0,0,1-.89.74,3.21,3.21,0,0,1-1.36.26q-.54,0-1.14-.06a9.19,9.19,0,0,1-1.11-.18V20.51Z"/><path class="cls-1" d="M67.38,20h-2.3l-.18.51q-.08.22-.12.42a2,2,0,0,0,0,.43.51.51,0,0,0,.56.56v.36H63V22a.64.64,0,0,0,.35-.14,1.09,1.09,0,0,0,.27-.32,4.34,4.34,0,0,0,.27-.59l2.23-6h1.44l1.77,6a4.74,4.74,0,0,0,.2.57.67.67,0,0,0,.21.28.75.75,0,0,0,.36.15v.36h-3V22a.74.74,0,0,0,.42-.15.46.46,0,0,0,.13-.35,1.67,1.67,0,0,0,0-.37,4,4,0,0,0-.12-.52Zm-2.09-.62h1.93l-.86-3Z"/><path class="cls-1" d="M73.55,22.32H70.73V22a1.37,1.37,0,0,0,.31-.11.33.33,0,0,0,.17-.18.86.86,0,0,0,.08-.27c0-.12,0-.26,0-.43V16.34c0-.17,0-.31,0-.43a.77.77,0,0,0-.07-.28.46.46,0,0,0-.17-.17,1.07,1.07,0,0,0-.32-.12V15h3.13a5.41,5.41,0,0,1,1.07.09,2.75,2.75,0,0,1,.78.27,1.78,1.78,0,0,1,.47.38,1.73,1.73,0,0,1,.3.53,2.2,2.2,0,0,1,.11.71,2.06,2.06,0,0,1-.19.9,1.82,1.82,0,0,1-.5.63,3.59,3.59,0,0,1-.84.47V19a1.9,1.9,0,0,1,.66.46,3.17,3.17,0,0,1,.47.73l.34.73a2.72,2.72,0,0,0,.45.73.82.82,0,0,0,.53.3v.36H75.44A9,9,0,0,1,74.73,21l-.42-.92a2.79,2.79,0,0,0-.32-.58.83.83,0,0,0-.27-.24,1.25,1.25,0,0,0-.44-.06H73V21a3.51,3.51,0,0,0,0,.56.51.51,0,0,0,.15.26,1,1,0,0,0,.4.17ZM73,15.62v3h.53a1.85,1.85,0,0,0,.71-.12,1,1,0,0,0,.44-.32,1.19,1.19,0,0,0,.23-.48,3,3,0,0,0,.06-.62A1.53,1.53,0,0,0,74.59,16a1.35,1.35,0,0,0-1-.37Z"/><path class="cls-1" d="M80.82,22.32H78V22a1.3,1.3,0,0,0,.32-.11.37.37,0,0,0,.17-.18.67.67,0,0,0,.07-.27c0-.12,0-.26,0-.43V16.34c0-.17,0-.31,0-.43a1,1,0,0,0-.07-.28.42.42,0,0,0-.18-.17.89.89,0,0,0-.32-.12V15h3.14a5.41,5.41,0,0,1,1.07.09,2.75,2.75,0,0,1,.78.27,1.78,1.78,0,0,1,.47.38,1.73,1.73,0,0,1,.3.53,2.21,2.21,0,0,1,.1.71,2.06,2.06,0,0,1-.18.9,1.94,1.94,0,0,1-.5.63,3.59,3.59,0,0,1-.84.47V19a2.11,2.11,0,0,1,.66.46,3.17,3.17,0,0,1,.47.73l.33.73a3,3,0,0,0,.45.73.87.87,0,0,0,.53.3v.36H82.72A8.06,8.06,0,0,1,82,21l-.42-.92a2.79,2.79,0,0,0-.32-.58A.77.77,0,0,0,81,19.3a1.18,1.18,0,0,0-.44-.06h-.31V21a3.21,3.21,0,0,0,0,.56.45.45,0,0,0,.15.26,1,1,0,0,0,.39.17Zm-.58-6.7v3h.54a1.76,1.76,0,0,0,.7-.12,1,1,0,0,0,.45-.32,1.17,1.17,0,0,0,.22-.48,2.94,2.94,0,0,0,.07-.62A1.53,1.53,0,0,0,81.87,16a1.35,1.35,0,0,0-1-.37Z"/><path class="cls-1" d="M88.5,22.4a3,3,0,0,1-2.37-.92,4.16,4.16,0,0,1-.79-2.77,5,5,0,0,1,.38-2.06,2.8,2.8,0,0,1,1.13-1.31,3.48,3.48,0,0,1,1.78-.44,3,3,0,0,1,2.41.92,4,4,0,0,1,.8,2.74,6,6,0,0,1-.23,1.74,3.21,3.21,0,0,1-.68,1.19,2.67,2.67,0,0,1-1.06.69A4,4,0,0,1,88.5,22.4ZM87,18.57A5.7,5.7,0,0,0,87.43,21a1.26,1.26,0,0,0,1.19.79,1.13,1.13,0,0,0,.71-.22,1.67,1.67,0,0,0,.47-.62,3.46,3.46,0,0,0,.25-.95,7.55,7.55,0,0,0,.08-1.2A7.54,7.54,0,0,0,90,17a2.26,2.26,0,0,0-.51-1.09,1.13,1.13,0,0,0-.87-.37,1.23,1.23,0,0,0-1.16.74A5.34,5.34,0,0,0,87,18.57Z"/><path class="cls-1" d="M95.75,15v.36a1.37,1.37,0,0,0-.31.11.55.55,0,0,0-.17.17.77.77,0,0,0-.08.28c0,.11,0,.26,0,.43v5.35h1a1.13,1.13,0,0,0,.5-.1.85.85,0,0,0,.33-.3,1.8,1.8,0,0,0,.23-.52,6.18,6.18,0,0,0,.16-.61h.74l-.12,2.17H92.93V22a.91.91,0,0,0,.31-.12.42.42,0,0,0,.18-.17,1,1,0,0,0,.07-.28c0-.11,0-.26,0-.43V16.34c0-.17,0-.31,0-.43a.77.77,0,0,0-.07-.28.4.4,0,0,0-.17-.17,1,1,0,0,0-.32-.12V15Z"/><path class="cls-1" d="M101.81,15v.36a1.37,1.37,0,0,0-.31.11.55.55,0,0,0-.17.17.77.77,0,0,0-.08.28,2.69,2.69,0,0,0,0,.43v5.35h1a1.17,1.17,0,0,0,.5-.1.83.83,0,0,0,.32-.3,1.8,1.8,0,0,0,.24-.52,6.18,6.18,0,0,0,.16-.61h.73l-.11,2.17H99V22a.91.91,0,0,0,.31-.12.35.35,0,0,0,.17-.17.71.71,0,0,0,.08-.28c0-.11,0-.26,0-.43V16.34c0-.17,0-.31,0-.43a.77.77,0,0,0-.07-.28.4.4,0,0,0-.17-.17,1.07,1.07,0,0,0-.32-.12V15Z"/><path class="cls-1" d="M108.14,22.4a3,3,0,0,1-2.37-.92,4.16,4.16,0,0,1-.79-2.77,5.12,5.12,0,0,1,.38-2.06,2.91,2.91,0,0,1,1.13-1.31,3.48,3.48,0,0,1,1.78-.44,3,3,0,0,1,2.41.92,4,4,0,0,1,.81,2.74,5.63,5.63,0,0,1-.24,1.74,3.21,3.21,0,0,1-.68,1.19,2.57,2.57,0,0,1-1,.69A4,4,0,0,1,108.14,22.4Zm-1.45-3.83a5.7,5.7,0,0,0,.39,2.41,1.25,1.25,0,0,0,1.19.79,1.1,1.1,0,0,0,.7-.22,1.67,1.67,0,0,0,.47-.62,3.45,3.45,0,0,0,.26-.95,9,9,0,0,0,.08-1.2,8.1,8.1,0,0,0-.17-1.79,2.46,2.46,0,0,0-.51-1.09,1.13,1.13,0,0,0-.88-.37,1.22,1.22,0,0,0-1.15.74A5.19,5.19,0,0,0,106.69,18.57Z"/><path class="cls-2" d="M97.57,153.11a6.64,6.64,0,0,0,6.69-6.41,6.92,6.92,0,0,0-6.81-7,7,7,0,0,0-6.82,6.8c-.11,3,3.08,6.93,6.94,6.57M66.75,139.73c-2.91-.06-7,2.4-6.94,6.81a6.68,6.68,0,0,0,6.5,6.62,6.85,6.85,0,0,0,7.09-6.66,7,7,0,0,0-6.65-6.77m61.53,13.43a6.49,6.49,0,0,0,6.84-6.6,6.83,6.83,0,0,0-6.71-6.86,7,7,0,0,0-6.9,6.72c.06,3.09,2.31,6.9,6.77,6.74m-12.4,12.6c.93,0,1.89,0,2.86,0h18.85c3.57,0,3.57,0,2.73-3.34-.09-.33-.15-.67-.24-1-.83-3.32-2.76-5.76-6.26-6.27a37.19,37.19,0,0,0-9.41-.44,9.76,9.76,0,0,0-8.53,11m-5.41,0c-.87-2.51-1.65-4.64-2.32-6.8a5.31,5.31,0,0,0-3.63-3.39,22,22,0,0,0-12.4-.53c-3.83.84-5.54,3.35-6.54,6.71-.19.66-.41,1.32-.61,2-.54,1.78-.38,2,1.44,2q8.4,0,16.8,0c2.23,0,4.47,0,7.26,0m-44,0v0c3.8,0,7.61,0,11.41,0,1,0,1.64-.3,1.27-1.39a60.34,60.34,0,0,0-2.25-6.07,5.15,5.15,0,0,0-2.1-2.06c-4-2.25-8.33-2.17-12.6-1.48-3.42.55-6.23,2.32-7.2,6-.27,1-.57,2.09-.89,3.12-.49,1.59-.27,1.89,1.47,1.89,3.63,0,7.26,0,10.89,0M45.36,78.63c.71-5-4.08-9.73-9.28-9.88a9.94,9.94,0,0,0-10.25,9.5A9.71,9.71,0,0,0,36.05,88c5,0,9.88-4.61,9.31-9.41m11.88,50.73c-1,.14-2.4.13-2.46.42a5,5,0,0,0,.25,3A6.85,6.85,0,0,0,61.72,137c4.85.06,9.7,0,14.56,0q28.59,0,57.2,0c5.12,0,7.94-2.48,8-7.56q.06-23.28-.05-46.56c0-4.54-2.84-7.16-7.45-7.15q-22.45,0-44.9,0c-9.36,0-18.73,0-28.09.05a6.74,6.74,0,0,0-6.41,6c0,.84.07,1.52,1.14,1.51.85,0,1.63,0,1.65-1.22,0-2.13,1.37-3.17,3.31-3.59a10.11,10.11,0,0,1,2.06-.15h70.56c3.93,0,5.58,1.56,5.65,5.5.05,2.57,0,5.15,0,7.73v37.1c0,3.65-1.49,5.31-5.09,5.55-1.67.11-3.35.06-5,.06q-32.78,0-65.53,0A12.59,12.59,0,0,1,60,134c-2.2-.59-2.67-2.43-2.79-4.63M47.08,110.77l.46-.14c.43.62.91,1.22,1.29,1.88,1.47,2.55,5,4,7,2.65,2.85-1.91,5.6-4,8.33-6.08,1.22-.94,1.58-3.77.63-4.3-1.27-.7-2.59-1.23-4-.21-1.27.89-2.65,1.62-4,2.41s-2.24.55-2.59-1.06a44.91,44.91,0,0,0-1.2-5,30.74,30.74,0,0,0-2.65-6.27c-1.57-2.5-4.33-3.52-7.08-4.31a28.14,28.14,0,0,0-15.73.19c-3.81,1.09-7,3.24-8,7.48-.94,3.83-2.18,7.59-3,11.45-1,5-1.74,10-2.51,15.05-.34,2.25.51,3.5,2.26,3.79s3-.73,3.51-2.89q1.65-6.68,3.41-13.3c.11-.43.55-.76.84-1.14.23.45.64.9.66,1.36.06,1.6,0,3.21,0,4.81-.15,6.52-.32,13-.45,19.56q-.27,13-.46,25.92c0,1.74.78,2.49,2.51,2.63a13.06,13.06,0,0,0,2.07.06,2.87,2.87,0,0,0,3-2.84c1.12-10,2.2-20,3.35-30,.07-.55.64-1.05,1-1.58.37.5,1,1,1.07,1.5,1,9.61,2.19,19.22,3,28.85.32,4.11,2.93,4.79,6.2,4a2.38,2.38,0,0,0,2-2.74c-.13-3.78-.16-7.55-.24-11.33q-.39-19.14-.79-38.28a16.64,16.64,0,0,1,.23-2.1"/><path class="cls-3" d="M47.08,110.77a16.64,16.64,0,0,0-.23,2.1q.38,19.14.79,38.28c.08,3.78.11,7.55.24,11.33a2.38,2.38,0,0,1-2,2.74c-3.27.81-5.88.13-6.2-4-.77-9.63-1.91-19.24-3-28.85-.05-.53-.7-1-1.07-1.5-.34.53-.91,1-1,1.58-1.15,10-2.23,20-3.35,30a2.87,2.87,0,0,1-3,2.84,13.06,13.06,0,0,1-2.07-.06c-1.73-.14-2.53-.89-2.51-2.63q.18-13,.46-25.92c.13-6.52.3-13,.45-19.56,0-1.6.11-3.21,0-4.81,0-.46-.43-.91-.66-1.36-.29.38-.73.71-.84,1.14q-1.75,6.63-3.41,13.3c-.53,2.16-1.7,3.19-3.51,2.89s-2.6-1.54-2.26-3.79c.77-5,1.5-10.07,2.51-15.05.79-3.86,2-7.62,3-11.45,1-4.24,4.19-6.39,8-7.48a28.14,28.14,0,0,1,15.73-.19c2.75.79,5.51,1.81,7.08,4.31a30.74,30.74,0,0,1,2.65,6.27,44.91,44.91,0,0,1,1.2,5c.35,1.61,1.12,1.94,2.59,1.06s2.72-1.52,4-2.41c1.46-1,2.78-.49,4,.21,1,.53.59,3.36-.63,4.3-2.73,2.09-5.48,4.17-8.33,6.08-2,1.34-5.48-.1-7-2.65-.38-.66-.86-1.26-1.29-1.88l-.46.14"/><path class="cls-4" d="M57.24,129.36c.12,2.2.59,4,2.79,4.63a12.54,12.54,0,0,0,3.25.31q32.76,0,65.53,0c1.67,0,3.35.05,5-.06,3.6-.24,5.09-1.9,5.09-5.55V91.6c0-2.58,0-5.16,0-7.73-.07-3.94-1.72-5.5-5.65-5.5H62.7a10.11,10.11,0,0,0-2.06.15c-1.94.42-3.27,1.46-3.31,3.59,0,1.18-.8,1.21-1.65,1.22-1.07,0-1.17-.67-1.14-1.51a6.74,6.74,0,0,1,6.41-6c9.36-.05,18.73,0,28.09-.05q22.44,0,44.9,0c4.61,0,7.43,2.61,7.45,7.15q.09,23.28.05,46.56c0,5.08-2.84,7.57-8,7.56q-28.6,0-57.2,0c-4.86,0-9.71,0-14.56,0a6.87,6.87,0,0,1-6.7-4.22,5.08,5.08,0,0,1-.24-3c.06-.29,1.51-.28,2.46-.42"/><path class="cls-3" d="M45.36,78.63c.57,4.8-4.28,9.39-9.31,9.41a9.71,9.71,0,0,1-10.22-9.79,9.94,9.94,0,0,1,10.25-9.5c5.2.15,10,4.89,9.28,9.88"/><path class="cls-1" d="M66.42,165.76c-3.63,0-7.26,0-10.89,0-1.74,0-2-.3-1.47-1.89.32-1,.62-2.08.89-3.12,1-3.69,3.78-5.46,7.2-6,4.27-.69,8.64-.77,12.6,1.48a5.15,5.15,0,0,1,2.1,2.06,62.88,62.88,0,0,1,2.25,6.07c.37,1.09-.25,1.4-1.27,1.39-3.8,0-7.61,0-11.41,0v0"/><path class="cls-1" d="M110.47,165.76c-2.79,0-5,0-7.26,0q-8.4,0-16.8,0c-1.82,0-2-.23-1.44-2,.21-.65.42-1.31.61-2,1-3.36,2.71-5.88,6.54-6.71a22,22,0,0,1,12.4.53,5.31,5.31,0,0,1,3.63,3.39c.67,2.16,1.45,4.29,2.32,6.8"/><path class="cls-1" d="M115.88,165.76a9.76,9.76,0,0,1,8.53-11,37.19,37.19,0,0,1,9.41.44c3.5.51,5.43,2.95,6.27,6.27.08.33.14.67.23,1,.84,3.33.84,3.33-2.73,3.34H115.88"/><path class="cls-1" d="M128.28,153.16c-4.46.16-6.71-3.65-6.77-6.74a7,7,0,0,1,6.9-6.72,6.83,6.83,0,0,1,6.71,6.86,6.49,6.49,0,0,1-6.84,6.6"/><path class="cls-1" d="M66.75,139.73a7,7,0,0,1,6.65,6.77,6.85,6.85,0,0,1-7.1,6.66,6.68,6.68,0,0,1-6.49-6.62c-.1-4.41,4-6.87,6.94-6.81"/><path class="cls-1" d="M97.57,153.1c-3.86.37-7-3.58-6.94-6.56a7,7,0,0,1,6.82-6.8,6.91,6.91,0,0,1,6.81,6.95,6.62,6.62,0,0,1-6.69,6.41"/><line class="cls-5" x1="63.86" y1="105.14" x2="87.95" y2="85.65"/><path d="M16.73,188.34v1.4h-.45c-.05-.15-.1-.29-.15-.4a1.3,1.3,0,0,0-.15-.29.54.54,0,0,0-.4-.28,1.35,1.35,0,0,0-.31,0H13.81v2.43h1a.72.72,0,0,0,.32,0,.46.46,0,0,0,.19-.2,2,2,0,0,0,.15-.44h.43v1.79h-.43a1.51,1.51,0,0,0-.15-.42.48.48,0,0,0-.18-.21.75.75,0,0,0-.33-.06h-1v2.68h1.44a1.31,1.31,0,0,0,.37,0,.7.7,0,0,0,.24-.13.94.94,0,0,0,.18-.25,1.79,1.79,0,0,0,.13-.32q.06-.17.15-.48h.46l-.09,1.63H12.4v-.23a.92.92,0,0,0,.38-.16.43.43,0,0,0,.13-.26,3.13,3.13,0,0,0,0-.51v-4c0-.22,0-.37,0-.47a.87.87,0,0,0-.08-.23.44.44,0,0,0-.14-.13,1.81,1.81,0,0,0-.3-.11v-.22Z"/><path d="M20.86,191.25h-.45a1.5,1.5,0,0,0-.24-.44.71.71,0,0,0-.31-.22,1.16,1.16,0,0,0-.44-.07.92.92,0,0,0-.59.18.57.57,0,0,0-.22.47.63.63,0,0,0,.09.35,1,1,0,0,0,.27.26,5.17,5.17,0,0,0,.66.32,4.75,4.75,0,0,1,.73.38,1.38,1.38,0,0,1,.4.4,1,1,0,0,1,.15.54,1.32,1.32,0,0,1-.13.62,1.15,1.15,0,0,1-.35.41,1.46,1.46,0,0,1-.54.22,3,3,0,0,1-.68.07,4.68,4.68,0,0,1-.76-.06,4.27,4.27,0,0,1-.71-.15v-1h.45a1.17,1.17,0,0,0,.37.62,1.08,1.08,0,0,0,.68.2,1.86,1.86,0,0,0,.33,0,.7.7,0,0,0,.28-.12.54.54,0,0,0,.2-.22.69.69,0,0,0,.07-.34.75.75,0,0,0-.09-.39.85.85,0,0,0-.29-.27,5.48,5.48,0,0,0-.68-.33,3.85,3.85,0,0,1-.68-.35,1.36,1.36,0,0,1-.4-.39,1,1,0,0,1-.15-.54,1.08,1.08,0,0,1,.21-.66,1.29,1.29,0,0,1,.6-.43,2.52,2.52,0,0,1,.91-.15,5.68,5.68,0,0,1,.59,0q.28,0,.72.12Z"/><path d="M21.55,190.46a1,1,0,0,0,.38-.12.83.83,0,0,0,.22-.24,1.15,1.15,0,0,0,.13-.37c0-.15.06-.36.1-.64H23v1.14h1.5v.47H23v2.07a6.62,6.62,0,0,0,0,.71,1.21,1.21,0,0,0,.14.42.71.71,0,0,0,.24.22.75.75,0,0,0,.33.06.72.72,0,0,0,.35-.08,1.22,1.22,0,0,0,.32-.22l.21.25a2.44,2.44,0,0,1-.63.47,1.43,1.43,0,0,1-.61.14,1.11,1.11,0,0,1-.89-.35,1.78,1.78,0,0,1-.29-1.11V190.7h-.69Z"/><path d="M28.75,193.88a4.43,4.43,0,0,1-.54.49,2.16,2.16,0,0,1-.55.27,1.93,1.93,0,0,1-.65.1,1.78,1.78,0,0,1-1.44-.57,2.52,2.52,0,0,1-.49-1.69,2.77,2.77,0,0,1,.25-1.22,1.88,1.88,0,0,1,.7-.82,2,2,0,0,1,1.06-.29,1.94,1.94,0,0,1,.8.15,1.45,1.45,0,0,1,.53.41,1.86,1.86,0,0,1,.3.65,4,4,0,0,1,.12,1H25.92v.08a2.78,2.78,0,0,0,.13.93,1.15,1.15,0,0,0,.4.58,1.19,1.19,0,0,0,.73.21,1.65,1.65,0,0,0,.68-.14,1.92,1.92,0,0,0,.61-.46ZM28,192a3.88,3.88,0,0,0-.12-.82,1.07,1.07,0,0,0-.29-.49.77.77,0,0,0-.52-.17.92.92,0,0,0-.76.38A2,2,0,0,0,26,192Z"/><path d="M35.48,191l.06,0a3.21,3.21,0,0,1,.48-.49,1.72,1.72,0,0,1,.47-.28,1.7,1.7,0,0,1,.57-.1,3.68,3.68,0,0,1,.49,0v1.07H37a1.12,1.12,0,0,0-.23-.37.54.54,0,0,0-.35-.11.6.6,0,0,0-.33.1,1.34,1.34,0,0,0-.53.63,1.12,1.12,0,0,0-.06.38v1.63a2.43,2.43,0,0,0,0,.58.42.42,0,0,0,.17.23,1.07,1.07,0,0,0,.36.12v.23H34.23v-.23l.25-.1a.36.36,0,0,0,.14-.11.76.76,0,0,0,.08-.23,2.72,2.72,0,0,0,0-.48v-2c0-.2,0-.36,0-.48a.73.73,0,0,0-.07-.29.33.33,0,0,0-.17-.16,1,1,0,0,0-.32-.09v-.24l1.09-.05h.28Z"/><path d="M41.86,193.88a4.43,4.43,0,0,1-.54.49,2.16,2.16,0,0,1-.55.27,2,2,0,0,1-.65.1,1.81,1.81,0,0,1-1.45-.57,2.58,2.58,0,0,1-.48-1.69,2.92,2.92,0,0,1,.24-1.22,1.88,1.88,0,0,1,1.77-1.11,1.94,1.94,0,0,1,.8.15,1.34,1.34,0,0,1,.52.41,1.71,1.71,0,0,1,.31.65,4.45,4.45,0,0,1,.12,1H39v.08a3.09,3.09,0,0,0,.12.93,1.23,1.23,0,0,0,.41.58,1.17,1.17,0,0,0,.73.21A1.65,1.65,0,0,0,41,194a2,2,0,0,0,.61-.46ZM41.08,192a3.88,3.88,0,0,0-.12-.82,1.08,1.08,0,0,0-.3-.49.77.77,0,0,0-.51-.17.91.91,0,0,0-.76.38,2.14,2.14,0,0,0-.34,1.1Z"/><path d="M46.24,190.34v1h-.59a1.55,1.55,0,0,0-.19-.48.76.76,0,0,0-.27-.24.86.86,0,0,0-.38-.07.84.84,0,0,0-.57.21,1.4,1.4,0,0,0-.4.63,3.24,3.24,0,0,0-.15,1,4,4,0,0,0,.06.72,1.54,1.54,0,0,0,.19.56,1,1,0,0,0,.36.36,1,1,0,0,0,.55.13,1.45,1.45,0,0,0,.59-.12,2,2,0,0,0,.58-.45l.26.31a3.66,3.66,0,0,1-.42.4,1.73,1.73,0,0,1-.38.24,2.49,2.49,0,0,1-.41.14,2.06,2.06,0,0,1-.44,0,1.6,1.6,0,0,1-1.34-.58,2.65,2.65,0,0,1-.47-1.68,2.77,2.77,0,0,1,.26-1.22,2,2,0,0,1,.73-.82,2.08,2.08,0,0,1,1.08-.29,5.16,5.16,0,0,1,.71,0A4.89,4.89,0,0,1,46.24,190.34Z"/><path d="M46.87,190.23h1.32v2.36a5.81,5.81,0,0,0,0,.83,1.51,1.51,0,0,0,.12.43.91.91,0,0,0,.24.24.81.81,0,0,0,.42.1,1,1,0,0,0,.34-.07,1.39,1.39,0,0,0,.36-.25,1.1,1.1,0,0,0,.29-.34.87.87,0,0,0,.08-.4v-1.74c0-.18,0-.31,0-.4a.65.65,0,0,0,0-.22.54.54,0,0,0-.07-.13.48.48,0,0,0-.13-.09,1.07,1.07,0,0,0-.26-.09v-.23h1.32v3.17c0,.24,0,.41,0,.52a.76.76,0,0,0,.06.25.33.33,0,0,0,.14.15,1.3,1.3,0,0,0,.35.11v.24l-1.06,0H50.1l0-.76h-.07a3.41,3.41,0,0,1-.73.61,1.46,1.46,0,0,1-.71.19,1.22,1.22,0,0,1-.69-.17,1,1,0,0,1-.41-.49,2.58,2.58,0,0,1-.14-.94v-1.75a3.22,3.22,0,0,0,0-.54.41.41,0,0,0-.11-.23.86.86,0,0,0-.37-.16Z"/><path d="M53.47,191l.07,0a3.75,3.75,0,0,1,.47-.49,2.08,2.08,0,0,1,.47-.28,1.72,1.72,0,0,1,.58-.1,3.43,3.43,0,0,1,.48,0v1.07H55a1,1,0,0,0-.24-.37.51.51,0,0,0-.34-.11.6.6,0,0,0-.33.1,1.17,1.17,0,0,0-.32.28,1.35,1.35,0,0,0-.21.35,1.12,1.12,0,0,0-.06.38v1.63a2.43,2.43,0,0,0,0,.58.38.38,0,0,0,.17.23,1.07,1.07,0,0,0,.36.12v.23H52.23v-.23l.25-.1a.33.33,0,0,0,.13-.11.55.55,0,0,0,.09-.23c0-.1,0-.26,0-.48v-2c0-.2,0-.36,0-.48a.6.6,0,0,0-.06-.29.38.38,0,0,0-.17-.16,1,1,0,0,0-.32-.09v-.24l1.08-.05h.29Z"/><path d="M59.26,191.25h-.45a1.3,1.3,0,0,0-.24-.44.71.71,0,0,0-.31-.22,1.11,1.11,0,0,0-.43-.07.93.93,0,0,0-.6.18.57.57,0,0,0-.22.47.63.63,0,0,0,.09.35.89.89,0,0,0,.28.26,4.31,4.31,0,0,0,.65.32,4.32,4.32,0,0,1,.73.38,1.27,1.27,0,0,1,.4.4,1,1,0,0,1,.15.54,1.32,1.32,0,0,1-.13.62,1.15,1.15,0,0,1-.35.41,1.46,1.46,0,0,1-.54.22,2.9,2.9,0,0,1-.68.07,4.77,4.77,0,0,1-.76-.06,4.27,4.27,0,0,1-.71-.15v-1h.45a1.24,1.24,0,0,0,.37.62,1.08,1.08,0,0,0,.68.2,1.86,1.86,0,0,0,.33,0,.7.7,0,0,0,.28-.12.48.48,0,0,0,.2-.22.68.68,0,0,0,.08-.34.75.75,0,0,0-.1-.39.81.81,0,0,0-.28-.27,5.82,5.82,0,0,0-.69-.33,3.85,3.85,0,0,1-.68-.35,1.36,1.36,0,0,1-.4-.39,1,1,0,0,1-.15-.54,1.08,1.08,0,0,1,.21-.66,1.29,1.29,0,0,1,.6-.43,2.52,2.52,0,0,1,.91-.15,5.54,5.54,0,0,1,.59,0q.28,0,.72.12Z"/><path d="M62.25,194.74a1.87,1.87,0,0,1-1.47-.57,2.45,2.45,0,0,1-.51-1.68,2.8,2.8,0,0,1,.27-1.29,1.76,1.76,0,0,1,.73-.79,2.15,2.15,0,0,1,1-.26,1.92,1.92,0,0,1,1.51.58,2.44,2.44,0,0,1,.51,1.66,3,3,0,0,1-.26,1.3,1.74,1.74,0,0,1-.72.79A2.17,2.17,0,0,1,62.25,194.74Zm-1.1-2.35a2.93,2.93,0,0,0,.3,1.47,1,1,0,0,0,.87.52.92.92,0,0,0,.53-.16,1.14,1.14,0,0,0,.35-.4,1.79,1.79,0,0,0,.2-.59,4,4,0,0,0,.06-.7,3.66,3.66,0,0,0-.15-1.14,1.41,1.41,0,0,0-.41-.66.91.91,0,0,0-.59-.21.94.94,0,0,0-.86.49A2.62,2.62,0,0,0,61.15,192.39Z"/><path d="M71.08,194.53v1a2.7,2.7,0,0,0,0,.45.63.63,0,0,0,.07.23.36.36,0,0,0,.16.14,1.26,1.26,0,0,0,.32.11v.22H69.76v-.22l.27-.1a.36.36,0,0,0,.16-.14.81.81,0,0,0,.07-.26c0-.11,0-.25,0-.43v-4c0-.23,0-.38,0-.48a1.2,1.2,0,0,0,0-.23.3.3,0,0,0-.08-.16.39.39,0,0,0-.14-.1,1.51,1.51,0,0,0-.3-.08v-.25l1.09,0h.28L71,191l.07,0a5,5,0,0,1,.46-.43,1.79,1.79,0,0,1,.34-.22,1.32,1.32,0,0,1,.35-.12,1.29,1.29,0,0,1,.35,0,1.35,1.35,0,0,1,1.17.57,2.89,2.89,0,0,1,.41,1.68,3.27,3.27,0,0,1-.23,1.29,1.66,1.66,0,0,1-.67.78,2,2,0,0,1-1.06.26,2.9,2.9,0,0,1-.62-.06A2.35,2.35,0,0,1,71.08,194.53Zm0-1.53a3.86,3.86,0,0,0,0,.68.89.89,0,0,0,.2.4,1,1,0,0,0,.33.22,1.43,1.43,0,0,0,.51.08.93.93,0,0,0,.85-.47,2.69,2.69,0,0,0,.28-1.38c0-1.21-.35-1.81-1.06-1.81a1,1,0,0,0-.45.08,1.4,1.4,0,0,0-.63.61.73.73,0,0,0-.08.36Z"/><path d="M78.81,193.88a4.43,4.43,0,0,1-.54.49,2.16,2.16,0,0,1-.55.27,2,2,0,0,1-.65.1,1.81,1.81,0,0,1-1.45-.57,2.58,2.58,0,0,1-.48-1.69,2.92,2.92,0,0,1,.24-1.22,1.88,1.88,0,0,1,1.77-1.11,1.94,1.94,0,0,1,.8.15,1.34,1.34,0,0,1,.52.41,1.71,1.71,0,0,1,.31.65,4.45,4.45,0,0,1,.12,1H76v.08a3.09,3.09,0,0,0,.12.93,1.23,1.23,0,0,0,.41.58,1.17,1.17,0,0,0,.73.21,1.65,1.65,0,0,0,.68-.14,2,2,0,0,0,.61-.46ZM78,192a3.88,3.88,0,0,0-.12-.82,1.08,1.08,0,0,0-.3-.49.77.77,0,0,0-.51-.17.91.91,0,0,0-.76.38A2.14,2.14,0,0,0,76,192Z"/><path d="M81,191l.07,0a3.2,3.2,0,0,1,.47-.49,1.72,1.72,0,0,1,.47-.28,1.7,1.7,0,0,1,.57-.1,3.68,3.68,0,0,1,.49,0v1.07h-.53a1.12,1.12,0,0,0-.23-.37.54.54,0,0,0-.35-.11.6.6,0,0,0-.33.1,1.14,1.14,0,0,0-.31.28,1.17,1.17,0,0,0-.22.35,1.46,1.46,0,0,0,0,.38v1.63a2,2,0,0,0,0,.58.35.35,0,0,0,.17.23,1,1,0,0,0,.35.12v.23H79.74v-.23l.26-.1a.33.33,0,0,0,.13-.11.76.76,0,0,0,.08-.23,2.72,2.72,0,0,0,0-.48v-2c0-.2,0-.36,0-.48a.73.73,0,0,0-.07-.29.35.35,0,0,0-.16-.16,1.1,1.1,0,0,0-.33-.09v-.24l1.09-.05H81Z"/><path d="M84.92,191l.06,0a4.76,4.76,0,0,1,.46-.42,2.09,2.09,0,0,1,.35-.23,1.1,1.1,0,0,1,.31-.12,1,1,0,0,1,.3,0,1.29,1.29,0,0,1,.76.21,1.15,1.15,0,0,1,.4.66,5.6,5.6,0,0,1,.56-.52,2,2,0,0,1,.44-.26,1.3,1.3,0,0,1,.49-.09,1.44,1.44,0,0,1,.53.09.88.88,0,0,1,.38.28,1.09,1.09,0,0,1,.23.47,3.11,3.11,0,0,1,.07.76v1.75a2.49,2.49,0,0,0,0,.48.53.53,0,0,0,.06.21.35.35,0,0,0,.14.13,1,1,0,0,0,.29.11v.23H89v-.23a1.58,1.58,0,0,0,.26-.1.28.28,0,0,0,.13-.11.73.73,0,0,0,.09-.23c0-.11,0-.26,0-.47v-1.22a6.13,6.13,0,0,0,0-.65,1.89,1.89,0,0,0-.06-.41.9.9,0,0,0-.11-.24.67.67,0,0,0-.14-.15.54.54,0,0,0-.18-.11,1.17,1.17,0,0,0-.29,0,.77.77,0,0,0-.34.07A1.21,1.21,0,0,0,88,191a1.06,1.06,0,0,0-.27.36.87.87,0,0,0-.09.42v1.69a2.49,2.49,0,0,0,0,.48.76.76,0,0,0,.06.21.35.35,0,0,0,.14.13,1.1,1.1,0,0,0,.29.11v.23H86.31v-.23a1.58,1.58,0,0,0,.26-.1.28.28,0,0,0,.13-.11.55.55,0,0,0,.09-.23,2.74,2.74,0,0,0,0-.47v-1.22a6.06,6.06,0,0,0,0-.67,2,2,0,0,0-.07-.42.73.73,0,0,0-.12-.25.71.71,0,0,0-.16-.15.47.47,0,0,0-.19-.08.9.9,0,0,0-.24,0,.72.72,0,0,0-.35.08,1.48,1.48,0,0,0-.34.25,1.19,1.19,0,0,0-.27.34.81.81,0,0,0-.08.38v1.74c0,.17,0,.31,0,.4a1,1,0,0,0,0,.22.57.57,0,0,0,.08.13.48.48,0,0,0,.13.09l.26.09v.23H83.67v-.23l.25-.1a.3.3,0,0,0,.14-.11.76.76,0,0,0,.08-.23,2.72,2.72,0,0,0,0-.48v-2c0-.2,0-.36,0-.48a.73.73,0,0,0-.07-.29.33.33,0,0,0-.17-.16,1,1,0,0,0-.32-.09v-.25l1.09,0H85Z"/><path d="M91.57,194.44a1.58,1.58,0,0,0,.26-.1.33.33,0,0,0,.13-.11A.76.76,0,0,0,92,194a2.72,2.72,0,0,0,0-.48v-2c0-.2,0-.36,0-.48a.74.74,0,0,0-.06-.29.44.44,0,0,0-.17-.16,1,1,0,0,0-.32-.09v-.25l1.08,0h.28v3.32a2.34,2.34,0,0,0,0,.55.39.39,0,0,0,.14.24,1,1,0,0,0,.34.14v.23H91.57Zm1.33-6v.9H92v-.9Z"/><path d="M93.93,190.46a1,1,0,0,0,.38-.12.83.83,0,0,0,.22-.24,1.15,1.15,0,0,0,.13-.37c0-.15.06-.36.1-.64h.66v1.14h1.49v.47H95.42v2.07a6.62,6.62,0,0,0,0,.71,1.21,1.21,0,0,0,.14.42.79.79,0,0,0,.23.22.83.83,0,0,0,.34.06.72.72,0,0,0,.35-.08,1.22,1.22,0,0,0,.32-.22l.21.25a2.44,2.44,0,0,1-.63.47,1.43,1.43,0,0,1-.61.14,1.11,1.11,0,0,1-.89-.35,1.78,1.78,0,0,1-.29-1.11V190.7h-.69Z"/><path d="M101.13,193.88a4.43,4.43,0,0,1-.54.49,2.16,2.16,0,0,1-.55.27,1.93,1.93,0,0,1-.65.1,1.78,1.78,0,0,1-1.44-.57,2.52,2.52,0,0,1-.49-1.69,2.77,2.77,0,0,1,.25-1.22,1.88,1.88,0,0,1,.7-.82,2,2,0,0,1,1.06-.29,1.94,1.94,0,0,1,.8.15,1.45,1.45,0,0,1,.53.41,1.86,1.86,0,0,1,.3.65,4,4,0,0,1,.12,1H98.3v.08a2.78,2.78,0,0,0,.13.93,1.15,1.15,0,0,0,.4.58,1.19,1.19,0,0,0,.73.21,1.65,1.65,0,0,0,.68-.14,1.92,1.92,0,0,0,.61-.46Zm-.78-1.88a3.88,3.88,0,0,0-.12-.82,1.07,1.07,0,0,0-.29-.49.77.77,0,0,0-.52-.17.92.92,0,0,0-.76.38,2.14,2.14,0,0,0-.34,1.1Z"/><path d="M110.06,190.34v1h-.59a1.84,1.84,0,0,0-.19-.48.76.76,0,0,0-.27-.24.86.86,0,0,0-.38-.07.88.88,0,0,0-.58.21,1.39,1.39,0,0,0-.39.63,3.24,3.24,0,0,0-.15,1,4,4,0,0,0,.06.72,1.54,1.54,0,0,0,.19.56,1,1,0,0,0,.35.36,1.07,1.07,0,0,0,.55.13,1.46,1.46,0,0,0,.6-.12,1.87,1.87,0,0,0,.57-.45l.27.31a3.66,3.66,0,0,1-.42.4,1.58,1.58,0,0,1-.39.24,1.76,1.76,0,0,1-.84.18,1.6,1.6,0,0,1-1.34-.58,2.65,2.65,0,0,1-.47-1.68,2.77,2.77,0,0,1,.26-1.22,1.94,1.94,0,0,1,.73-.82,2,2,0,0,1,1.08-.29,4.86,4.86,0,0,1,1.35.19Z"/><path d="M113.47,194h-.06a3,3,0,0,1-.76.58,1.8,1.8,0,0,1-.76.17,1.38,1.38,0,0,1-.62-.13,1,1,0,0,1-.41-.39,1.1,1.1,0,0,1-.15-.57,1.16,1.16,0,0,1,.68-1.05,4.78,4.78,0,0,1,2-.43v-.3a2.25,2.25,0,0,0-.1-.76.75.75,0,0,0-.29-.41.93.93,0,0,0-.53-.13.88.88,0,0,0-.58.19,1.22,1.22,0,0,0-.34.57H111v-.6a5,5,0,0,1,.74-.34,4.36,4.36,0,0,1,.59-.17,3.08,3.08,0,0,1,.61-.07,1.52,1.52,0,0,1,.73.15.92.92,0,0,1,.42.45,2.3,2.3,0,0,1,.14.91v2.1l0,.26a.69.69,0,0,0,.07.19.33.33,0,0,0,.14.12,1.26,1.26,0,0,0,.29.11v.23h-1.27Zm-.07-1.45a3.32,3.32,0,0,0-1.41.25.77.77,0,0,0-.47.73.73.73,0,0,0,.1.42.6.6,0,0,0,.27.21,1.14,1.14,0,0,0,.39.06,1,1,0,0,0,.57-.16,1.13,1.13,0,0,0,.4-.38.89.89,0,0,0,.15-.47Z"/><path d="M116.69,194.53v1c0,.2,0,.35,0,.45a.63.63,0,0,0,.07.23.36.36,0,0,0,.16.14,1.26,1.26,0,0,0,.32.11v.22h-1.89v-.22l.27-.1a.36.36,0,0,0,.16-.14.62.62,0,0,0,.07-.26,2.62,2.62,0,0,0,0-.43v-4c0-.23,0-.38,0-.48a1.29,1.29,0,0,0,0-.23.42.42,0,0,0-.09-.16.39.39,0,0,0-.14-.1,1.51,1.51,0,0,0-.3-.08v-.25l1.09,0h.28l-.06.76.07,0c.2-.2.35-.34.46-.43a1.79,1.79,0,0,1,.34-.22,1.32,1.32,0,0,1,.35-.12,1.29,1.29,0,0,1,.35,0,1.35,1.35,0,0,1,1.17.57,2.82,2.82,0,0,1,.41,1.68,3.1,3.1,0,0,1-.23,1.29,1.66,1.66,0,0,1-.67.78,2,2,0,0,1-1.06.26,3,3,0,0,1-.62-.06A2.35,2.35,0,0,1,116.69,194.53Zm0-1.53a3.86,3.86,0,0,0,0,.68.89.89,0,0,0,.2.4,1,1,0,0,0,.34.22,1.34,1.34,0,0,0,.5.08.93.93,0,0,0,.85-.47,2.69,2.69,0,0,0,.28-1.38c0-1.21-.35-1.81-1.06-1.81a1.06,1.06,0,0,0-.45.08,1.2,1.2,0,0,0-.37.26,1.09,1.09,0,0,0-.26.35.73.73,0,0,0-.08.36Z"/><path d="M123.4,194h-.07a2.79,2.79,0,0,1-.76.58,1.79,1.79,0,0,1-.75.17,1.39,1.39,0,0,1-.63-.13,1,1,0,0,1-.41-.39,1.1,1.1,0,0,1-.14-.57,1.15,1.15,0,0,1,.67-1.05,4.78,4.78,0,0,1,2-.43v-.3a2.58,2.58,0,0,0-.09-.76.76.76,0,0,0-.3-.41.93.93,0,0,0-.53-.13.88.88,0,0,0-.58.19,1.14,1.14,0,0,0-.33.57h-.61v-.6a5,5,0,0,1,.74-.34,4.83,4.83,0,0,1,.59-.17,3.08,3.08,0,0,1,.61-.07,1.52,1.52,0,0,1,.73.15.92.92,0,0,1,.42.45,2.3,2.3,0,0,1,.14.91v1.61c0,.23,0,.39,0,.49a2.11,2.11,0,0,0,0,.26.69.69,0,0,0,.07.19.33.33,0,0,0,.14.12,1.26,1.26,0,0,0,.29.11v.23h-1.27Zm-.08-1.45a3.32,3.32,0,0,0-1.41.25.79.79,0,0,0-.47.73.66.66,0,0,0,.11.42.56.56,0,0,0,.27.21,1,1,0,0,0,.38.06,1,1,0,0,0,.57-.16,1.13,1.13,0,0,0,.4-.38.89.89,0,0,0,.15-.47Z"/><path d="M128.81,190.34v1h-.59a1.84,1.84,0,0,0-.19-.48.76.76,0,0,0-.27-.24.86.86,0,0,0-.38-.07.88.88,0,0,0-.58.21,1.31,1.31,0,0,0-.39.63,3.24,3.24,0,0,0-.15,1,5.31,5.31,0,0,0,0,.72,1.76,1.76,0,0,0,.19.56,1,1,0,0,0,.91.49,1.46,1.46,0,0,0,.6-.12,2.15,2.15,0,0,0,.57-.45l.27.31a3.66,3.66,0,0,1-.42.4,1.58,1.58,0,0,1-.39.24,2,2,0,0,1-.41.14,2,2,0,0,1-.43,0,1.59,1.59,0,0,1-1.34-.58,2.65,2.65,0,0,1-.47-1.68,2.77,2.77,0,0,1,.26-1.22,1.94,1.94,0,0,1,.73-.82,2,2,0,0,1,1.08-.29,4.86,4.86,0,0,1,1.35.19Z"/><path d="M129.54,194.44a1.58,1.58,0,0,0,.26-.1.33.33,0,0,0,.13-.11A.56.56,0,0,0,130,194a2.72,2.72,0,0,0,0-.48v-2c0-.2,0-.36,0-.48a.6.6,0,0,0-.06-.29.38.38,0,0,0-.17-.16,1,1,0,0,0-.32-.09v-.25l1.08,0h.28v3.32a2.34,2.34,0,0,0,0,.55.39.39,0,0,0,.14.24,1,1,0,0,0,.34.14v.23h-1.82Zm1.33-6v.9H130v-.9Z"/><path d="M131.9,190.46a1,1,0,0,0,.38-.12.71.71,0,0,0,.22-.24,1.15,1.15,0,0,0,.13-.37c0-.15.07-.36.1-.64h.66v1.14h1.5v.47h-1.5v2.07a4.53,4.53,0,0,0,0,.71,1,1,0,0,0,.13.42.71.71,0,0,0,.24.22.75.75,0,0,0,.33.06.72.72,0,0,0,.35-.08,1.22,1.22,0,0,0,.32-.22l.21.25a2.44,2.44,0,0,1-.63.47,1.43,1.43,0,0,1-.61.14,1.11,1.11,0,0,1-.89-.35,1.78,1.78,0,0,1-.29-1.11V190.7h-.69Z"/><path d="M138.08,194H138a2.79,2.79,0,0,1-.76.58,1.79,1.79,0,0,1-.75.17,1.39,1.39,0,0,1-.63-.13,1.1,1.1,0,0,1-.41-.39,1.2,1.2,0,0,1-.14-.57,1.15,1.15,0,0,1,.67-1.05,4.85,4.85,0,0,1,2-.43v-.3a2.58,2.58,0,0,0-.09-.76.76.76,0,0,0-.3-.41.93.93,0,0,0-.53-.13.9.9,0,0,0-.58.19,1.14,1.14,0,0,0-.33.57h-.61v-.6a5.45,5.45,0,0,1,.74-.34,4.5,4.5,0,0,1,.6-.17,2.9,2.9,0,0,1,.6-.07,1.6,1.6,0,0,1,.74.15,1,1,0,0,1,.41.45,2.13,2.13,0,0,1,.14.91v1.61c0,.23,0,.39,0,.49a2.11,2.11,0,0,0,0,.26.69.69,0,0,0,.07.19.41.41,0,0,0,.14.12,1.2,1.2,0,0,0,.3.11v.23h-1.27Zm-.08-1.45a3.32,3.32,0,0,0-1.41.25.79.79,0,0,0-.47.73.72.72,0,0,0,.11.42.56.56,0,0,0,.27.21,1.08,1.08,0,0,0,.38.06,1,1,0,0,0,.57-.16,1.16,1.16,0,0,0,.41-.38,1,1,0,0,0,.14-.47Z"/><path d="M141.29,191l.06,0a3.21,3.21,0,0,1,.48-.49,1.72,1.72,0,0,1,.47-.28,1.7,1.7,0,0,1,.57-.1,3.68,3.68,0,0,1,.49,0v1.07h-.53a1.12,1.12,0,0,0-.23-.37.54.54,0,0,0-.35-.11.6.6,0,0,0-.33.1,1.34,1.34,0,0,0-.53.63,1.12,1.12,0,0,0-.06.38v1.63a1.9,1.9,0,0,0,.06.58.35.35,0,0,0,.17.23.93.93,0,0,0,.35.12v.23H140v-.23a1.4,1.4,0,0,0,.25-.1.36.36,0,0,0,.14-.11.76.76,0,0,0,.08-.23,2.72,2.72,0,0,0,0-.48v-2c0-.2,0-.36,0-.48a.73.73,0,0,0-.07-.29.33.33,0,0,0-.17-.16,1,1,0,0,0-.32-.09v-.24l1.09-.05h.28Z"/><path d="M15,205.41l-.07,0a3,3,0,0,1-.76.58,1.8,1.8,0,0,1-.76.17,1.38,1.38,0,0,1-.62-.13,1,1,0,0,1-.41-.39,1.1,1.1,0,0,1-.14-.57,1.15,1.15,0,0,1,.67-1.05,4.78,4.78,0,0,1,2-.43v-.3a2.25,2.25,0,0,0-.1-.76.7.7,0,0,0-.29-.41A1,1,0,0,0,14,202a.88.88,0,0,0-.58.19,1.22,1.22,0,0,0-.34.57h-.6v-.6a6.23,6.23,0,0,1,.74-.34,4.83,4.83,0,0,1,.59-.17,3.08,3.08,0,0,1,.61-.07,1.52,1.52,0,0,1,.73.15.92.92,0,0,1,.42.45,2.3,2.3,0,0,1,.14.91v1.61c0,.23,0,.39,0,.49a2.11,2.11,0,0,0,0,.26.69.69,0,0,0,.07.19.33.33,0,0,0,.14.12,1.26,1.26,0,0,0,.29.11v.23H14.94ZM14.89,204a3.32,3.32,0,0,0-1.41.25.77.77,0,0,0-.47.73.66.66,0,0,0,.11.42.58.58,0,0,0,.26.21,1.14,1.14,0,0,0,.39.06,1,1,0,0,0,.57-.16,1.13,1.13,0,0,0,.4-.38.89.89,0,0,0,.15-.47Z"/><path d="M21.37,204.91a2.34,2.34,0,0,0,0,.55.36.36,0,0,0,.14.24,1,1,0,0,0,.34.14v.23H20.05v-.23a1.2,1.2,0,0,0,.32-.12.38.38,0,0,0,.13-.16.7.7,0,0,0,.06-.25c0-.1,0-.23,0-.4V200.4a2,2,0,0,0,0-.29.64.64,0,0,0-.08-.2.58.58,0,0,0-.15-.11,1.6,1.6,0,0,0-.32-.08v-.24l1.11,0h.28Z"/><path d="M24.73,206.14a1.87,1.87,0,0,1-1.47-.57,2.43,2.43,0,0,1-.51-1.68A2.8,2.8,0,0,1,23,202.6a1.76,1.76,0,0,1,.73-.79,2.15,2.15,0,0,1,1.05-.26,1.92,1.92,0,0,1,1.51.58,2.44,2.44,0,0,1,.51,1.66,3,3,0,0,1-.26,1.3,1.74,1.74,0,0,1-.72.79A2.17,2.17,0,0,1,24.73,206.14Zm-1.1-2.35a2.93,2.93,0,0,0,.3,1.47,1,1,0,0,0,.87.52.86.86,0,0,0,.53-.16,1.06,1.06,0,0,0,.35-.4,2,2,0,0,0,.2-.59,4,4,0,0,0,.06-.7,3.66,3.66,0,0,0-.15-1.14,1.41,1.41,0,0,0-.41-.66.91.91,0,0,0-.59-.21.93.93,0,0,0-.86.49A2.64,2.64,0,0,0,23.63,203.79Z"/><path d="M30.86,202.65h-.44a1.5,1.5,0,0,0-.24-.44.74.74,0,0,0-.32-.22,1.11,1.11,0,0,0-.43-.07.89.89,0,0,0-.59.18.55.55,0,0,0-.22.47.72.72,0,0,0,.08.35.88.88,0,0,0,.28.26,4.31,4.31,0,0,0,.65.32,4.32,4.32,0,0,1,.73.38,1.42,1.42,0,0,1,.41.4,1,1,0,0,1,.14.54,1.46,1.46,0,0,1-.12.62,1.25,1.25,0,0,1-.35.41,1.62,1.62,0,0,1-.54.22,3,3,0,0,1-.69.07,4.77,4.77,0,0,1-.76-.06,4.27,4.27,0,0,1-.71-.15v-1h.46a1.11,1.11,0,0,0,.37.62,1,1,0,0,0,.67.2,1.86,1.86,0,0,0,.33,0,.74.74,0,0,0,.29-.12.58.58,0,0,0,.2-.21.91.91,0,0,0,.07-.35.75.75,0,0,0-.09-.39,1,1,0,0,0-.29-.27,5.82,5.82,0,0,0-.69-.33,4.56,4.56,0,0,1-.67-.34,1.43,1.43,0,0,1-.41-.4,1,1,0,0,1-.14-.54,1.14,1.14,0,0,1,.2-.66,1.37,1.37,0,0,1,.6-.43,2.52,2.52,0,0,1,.91-.15c.21,0,.4,0,.6,0s.42.06.71.12Z"/><path d="M35.57,201.86a1,1,0,0,0,.38-.12.83.83,0,0,0,.22-.24,1.44,1.44,0,0,0,.13-.37c0-.15.06-.36.09-.64h.66v1.14h1.5v.47h-1.5v2.07a6.22,6.22,0,0,0,0,.71,1,1,0,0,0,.14.42.68.68,0,0,0,.23.22.83.83,0,0,0,.34.06.68.68,0,0,0,.34-.08,1.08,1.08,0,0,0,.32-.22l.21.25a2.6,2.6,0,0,1-.62.47,1.47,1.47,0,0,1-.61.14,1.1,1.1,0,0,1-.89-.35,1.71,1.71,0,0,1-.29-1.11V202.1h-.69Z"/><path d="M40.31,202.4l.07,0a3.75,3.75,0,0,1,.47-.49,2.08,2.08,0,0,1,.47-.28,1.72,1.72,0,0,1,.58-.1,3.43,3.43,0,0,1,.48,0v1.07h-.52a1.13,1.13,0,0,0-.24-.37.51.51,0,0,0-.34-.11.6.6,0,0,0-.33.1,1.17,1.17,0,0,0-.32.28,1.35,1.35,0,0,0-.21.35,1.12,1.12,0,0,0-.06.38v1.63a2.43,2.43,0,0,0,0,.58.38.38,0,0,0,.17.23,1.07,1.07,0,0,0,.36.12v.23H39.07v-.23l.25-.1a.33.33,0,0,0,.13-.11.44.44,0,0,0,.08-.23,2.72,2.72,0,0,0,0-.48v-2c0-.2,0-.36,0-.48a.6.6,0,0,0-.06-.29.38.38,0,0,0-.17-.16,1,1,0,0,0-.32-.09v-.24l1.08,0h.29Z"/><path d="M45.67,205.41l-.07,0a2.79,2.79,0,0,1-.76.58,1.72,1.72,0,0,1-.75.17,1.38,1.38,0,0,1-.62-.13,1,1,0,0,1-.41-.39,1.1,1.1,0,0,1-.15-.57,1.17,1.17,0,0,1,.67-1.05,4.85,4.85,0,0,1,2-.43v-.3a2.58,2.58,0,0,0-.09-.76.75.75,0,0,0-.29-.41,1.05,1.05,0,0,0-.54-.13.9.9,0,0,0-.58.19,1.21,1.21,0,0,0-.33.57h-.61v-.6a7.07,7.07,0,0,1,.75-.34,4,4,0,0,1,.59-.17,3.07,3.07,0,0,1,.6-.07,1.57,1.57,0,0,1,.74.15,1,1,0,0,1,.42.45,2.3,2.3,0,0,1,.14.91v2.1a1.09,1.09,0,0,0,0,.26.47.47,0,0,0,.07.19.33.33,0,0,0,.14.12,1.1,1.1,0,0,0,.29.11v.23H45.65ZM45.59,204a3.39,3.39,0,0,0-1.41.25.79.79,0,0,0-.47.73.72.72,0,0,0,.11.42.56.56,0,0,0,.27.21,1.14,1.14,0,0,0,.39.06,1,1,0,0,0,.57-.16,1.22,1.22,0,0,0,.4-.38.88.88,0,0,0,.14-.47Z"/><path d="M48.8,202.36h0a3.76,3.76,0,0,1,.54-.5,2.06,2.06,0,0,1,.44-.23,1.65,1.65,0,0,1,.51-.08,1.42,1.42,0,0,1,.85.25,1.57,1.57,0,0,1,.54.76,3.46,3.46,0,0,1,.2,1.24,3.25,3.25,0,0,1-.23,1.28,1.71,1.71,0,0,1-.68.79,2.11,2.11,0,0,1-1.06.26,3.42,3.42,0,0,1-.65-.06,3,3,0,0,1-.63-.22l-.33.28-.32-.07v-5c0-.3,0-.51,0-.63a1.23,1.23,0,0,0,0-.29.46.46,0,0,0-.09-.2.4.4,0,0,0-.14-.11,1.56,1.56,0,0,0-.33-.08v-.24l1.13,0h.27Zm0,2a4.24,4.24,0,0,0,0,.57,1.11,1.11,0,0,0,.11.35,1,1,0,0,0,.22.25.84.84,0,0,0,.33.16,1.62,1.62,0,0,0,.4.05,1,1,0,0,0,.85-.46A2.59,2.59,0,0,0,51,204a2.81,2.81,0,0,0-.27-1.38.84.84,0,0,0-.79-.46,1.06,1.06,0,0,0-.45.08,1.51,1.51,0,0,0-.37.25,1.34,1.34,0,0,0-.27.34.92.92,0,0,0-.08.38Z"/><path d="M55.51,205.41l-.07,0a2.79,2.79,0,0,1-.76.58,1.72,1.72,0,0,1-.75.17,1.35,1.35,0,0,1-.62-.13,1.06,1.06,0,0,1-.42-.39,1.2,1.2,0,0,1-.14-.57,1.15,1.15,0,0,1,.67-1.05,4.85,4.85,0,0,1,2-.43v-.3a2.58,2.58,0,0,0-.09-.76.75.75,0,0,0-.29-.41,1.05,1.05,0,0,0-.54-.13.9.9,0,0,0-.58.19,1.14,1.14,0,0,0-.33.57H53v-.6a8.14,8.14,0,0,1,.74-.34,4.5,4.5,0,0,1,.6-.17,3.07,3.07,0,0,1,.6-.07,1.57,1.57,0,0,1,.74.15,1,1,0,0,1,.42.45,2.3,2.3,0,0,1,.14.91v2.1a1.09,1.09,0,0,0,0,.26.47.47,0,0,0,.07.19.3.3,0,0,0,.13.12,1.2,1.2,0,0,0,.3.11v.23H55.49ZM55.43,204a3.32,3.32,0,0,0-1.41.25.79.79,0,0,0-.47.73.72.72,0,0,0,.11.42.56.56,0,0,0,.27.21,1.12,1.12,0,0,0,.38.06,1.06,1.06,0,0,0,.58-.16,1.22,1.22,0,0,0,.4-.38,1,1,0,0,0,.14-.47Z"/><path d="M58.73,206a3.26,3.26,0,0,1-.14,1,1.39,1.39,0,0,1-.47.66,2.47,2.47,0,0,1-.92.44l-.16-.41a2,2,0,0,0,.44-.21.92.92,0,0,0,.25-.23,1.15,1.15,0,0,0,.15-.35,2.94,2.94,0,0,0,0-.57V202.9c0-.24,0-.41,0-.52a.76.76,0,0,0-.06-.25.32.32,0,0,0-.14-.14,1.1,1.1,0,0,0-.35-.11v-.25l1.08,0h.29Zm0-6.16v.89H57.9v-.89Z"/><path d="M62.68,205.41l-.07,0a2.79,2.79,0,0,1-.76.58,1.79,1.79,0,0,1-.75.17,1.39,1.39,0,0,1-.63-.13,1.1,1.1,0,0,1-.41-.39,1.2,1.2,0,0,1-.14-.57,1.15,1.15,0,0,1,.67-1.05,4.82,4.82,0,0,1,2-.43v-.3a2.58,2.58,0,0,0-.09-.76.76.76,0,0,0-.3-.41,1,1,0,0,0-.53-.13.88.88,0,0,0-.58.19,1.14,1.14,0,0,0-.33.57h-.61v-.6a7.06,7.06,0,0,1,.74-.34,4.83,4.83,0,0,1,.59-.17,3.08,3.08,0,0,1,.61-.07,1.6,1.6,0,0,1,.74.15,1,1,0,0,1,.41.45,2.13,2.13,0,0,1,.14.91v1.61c0,.23,0,.39,0,.49a2.11,2.11,0,0,0,0,.26.69.69,0,0,0,.07.19.41.41,0,0,0,.14.12,1.2,1.2,0,0,0,.3.11v.23H62.66ZM62.6,204a3.32,3.32,0,0,0-1.41.25.79.79,0,0,0-.47.73.72.72,0,0,0,.11.42.56.56,0,0,0,.27.21,1,1,0,0,0,.38.06,1,1,0,0,0,.57-.16,1,1,0,0,0,.4-.38.89.89,0,0,0,.15-.47Z"/><path d="M67.77,201c0-.3,0-.51,0-.63a2,2,0,0,0,0-.29.64.64,0,0,0-.08-.2.45.45,0,0,0-.15-.11,1.28,1.28,0,0,0-.32-.08v-.24l1.12,0h.27v5.37c0,.24,0,.42,0,.52a.76.76,0,0,0,.06.25.4.4,0,0,0,.14.15,1.62,1.62,0,0,0,.35.11v.24l-1.09,0h-.28l.06-.76h-.07a4.55,4.55,0,0,1-.51.46,1.72,1.72,0,0,1-.46.25,1.5,1.5,0,0,1-.52.09,1.35,1.35,0,0,1-1.17-.57,2.84,2.84,0,0,1-.42-1.67,2.8,2.8,0,0,1,.27-1.29,1.84,1.84,0,0,1,.73-.8,2,2,0,0,1,1-.26,3.12,3.12,0,0,1,.55,0,3.84,3.84,0,0,1,.52.16Zm0,2.29a3,3,0,0,0,0-.58,1,1,0,0,0-.11-.37.69.69,0,0,0-.2-.25.8.8,0,0,0-.29-.15,1.31,1.31,0,0,0-.37,0,1,1,0,0,0-.9.47,2.48,2.48,0,0,0-.32,1.37,2.86,2.86,0,0,0,.26,1.35.83.83,0,0,0,.77.47,1.51,1.51,0,0,0,.34,0,1,1,0,0,0,.27-.11,1.5,1.5,0,0,0,.26-.21,1,1,0,0,0,.2-.25.92.92,0,0,0,.09-.25,1.31,1.31,0,0,0,0-.37Z"/><path d="M71.92,206.14a1.87,1.87,0,0,1-1.47-.57,2.43,2.43,0,0,1-.51-1.68,2.8,2.8,0,0,1,.27-1.29,1.81,1.81,0,0,1,.73-.79,2.16,2.16,0,0,1,1.06-.26,1.91,1.91,0,0,1,1.5.58,2.44,2.44,0,0,1,.51,1.66,2.84,2.84,0,0,1-.26,1.3,1.74,1.74,0,0,1-.72.79A2.17,2.17,0,0,1,71.92,206.14Zm-1.1-2.35a2.93,2.93,0,0,0,.3,1.47,1,1,0,0,0,.87.52.84.84,0,0,0,.53-.16,1.08,1.08,0,0,0,.36-.4,2,2,0,0,0,.19-.59,4,4,0,0,0,.06-.7,3.66,3.66,0,0,0-.15-1.14,1.34,1.34,0,0,0-.41-.66.91.91,0,0,0-.59-.21.94.94,0,0,0-.86.49A2.64,2.64,0,0,0,70.82,203.79Z"/><path d="M76.2,202.4l.06,0a3.21,3.21,0,0,1,.48-.49,1.72,1.72,0,0,1,.47-.28,1.7,1.7,0,0,1,.57-.1,3.68,3.68,0,0,1,.49,0v1.07h-.53a1.12,1.12,0,0,0-.23-.37.54.54,0,0,0-.35-.11.6.6,0,0,0-.33.1,1.34,1.34,0,0,0-.53.63,1.46,1.46,0,0,0,0,.38v1.63a2,2,0,0,0,0,.58.35.35,0,0,0,.17.23.93.93,0,0,0,.35.12v.23H75v-.23l.25-.1a.3.3,0,0,0,.14-.11.76.76,0,0,0,.08-.23,2.72,2.72,0,0,0,0-.48v-2c0-.2,0-.36,0-.48a.73.73,0,0,0-.07-.29.33.33,0,0,0-.17-.16,1,1,0,0,0-.32-.09v-.24l1.09,0h.28Z"/><path d="M82.58,205.28a4.43,4.43,0,0,1-.54.49,2.16,2.16,0,0,1-.55.27,1.93,1.93,0,0,1-.65.1,1.78,1.78,0,0,1-1.44-.57,2.52,2.52,0,0,1-.49-1.69,2.77,2.77,0,0,1,.25-1.22,1.88,1.88,0,0,1,.7-.82,2,2,0,0,1,1.06-.29,1.94,1.94,0,0,1,.8.15,1.45,1.45,0,0,1,.53.41,1.86,1.86,0,0,1,.3.65,4,4,0,0,1,.12,1H79.75v.08a2.78,2.78,0,0,0,.13.93,1.15,1.15,0,0,0,.4.58,1.19,1.19,0,0,0,.73.21,1.65,1.65,0,0,0,.68-.14,1.92,1.92,0,0,0,.61-.46Zm-.78-1.88a3.88,3.88,0,0,0-.12-.82,1.07,1.07,0,0,0-.29-.49.77.77,0,0,0-.52-.17.92.92,0,0,0-.76.38,2,2,0,0,0-.33,1.1Z"/><path d="M86.62,202.65h-.45a1.5,1.5,0,0,0-.24-.44.71.71,0,0,0-.31-.22,1.16,1.16,0,0,0-.44-.07.92.92,0,0,0-.59.18.57.57,0,0,0-.22.47.63.63,0,0,0,.09.35.84.84,0,0,0,.27.26,5.17,5.17,0,0,0,.66.32,4.75,4.75,0,0,1,.73.38,1.38,1.38,0,0,1,.4.4,1,1,0,0,1,.15.54,1.32,1.32,0,0,1-.13.62,1.15,1.15,0,0,1-.35.41,1.46,1.46,0,0,1-.54.22,3,3,0,0,1-.68.07,4.68,4.68,0,0,1-.76-.06,4.27,4.27,0,0,1-.71-.15v-1H84a1.17,1.17,0,0,0,.37.62,1.08,1.08,0,0,0,.68.2,1.86,1.86,0,0,0,.33,0,.7.7,0,0,0,.28-.12.58.58,0,0,0,.2-.21.9.9,0,0,0,0-.74.85.85,0,0,0-.29-.27,5.48,5.48,0,0,0-.68-.33,4.75,4.75,0,0,1-.68-.34,1.52,1.52,0,0,1-.4-.4,1,1,0,0,1-.15-.54,1.08,1.08,0,0,1,.21-.66,1.37,1.37,0,0,1,.6-.43,2.52,2.52,0,0,1,.91-.15c.2,0,.4,0,.59,0s.43.06.72.12Z"/><path d="M92.86,205.93v1c0,.2,0,.35,0,.45a.63.63,0,0,0,.07.23.36.36,0,0,0,.16.14,1.26,1.26,0,0,0,.32.11v.22H91.54v-.22l.27-.1a.36.36,0,0,0,.16-.14.62.62,0,0,0,.07-.26,2.62,2.62,0,0,0,0-.43v-4c0-.23,0-.38,0-.48a1.29,1.29,0,0,0,0-.23.38.38,0,0,0-.09-.15.4.4,0,0,0-.14-.11l-.3-.08v-.25l1.09,0h.28l-.06.76.07,0c.2-.2.35-.34.46-.43a1.79,1.79,0,0,1,.34-.22,1.32,1.32,0,0,1,.35-.12,1.29,1.29,0,0,1,.35,0,1.35,1.35,0,0,1,1.17.57,2.82,2.82,0,0,1,.41,1.68,3.1,3.1,0,0,1-.23,1.29,1.66,1.66,0,0,1-.67.78,2,2,0,0,1-1.06.26,3,3,0,0,1-.62-.06A2.35,2.35,0,0,1,92.86,205.93Zm0-1.53a3.78,3.78,0,0,0,0,.68.89.89,0,0,0,.2.4,1,1,0,0,0,.34.22,1.34,1.34,0,0,0,.5.08.93.93,0,0,0,.85-.47,2.69,2.69,0,0,0,.28-1.38c0-1.21-.35-1.81-1.06-1.81a1.06,1.06,0,0,0-.45.08,1.2,1.2,0,0,0-.37.26,1.09,1.09,0,0,0-.26.35.73.73,0,0,0-.08.36Z"/><path d="M99.57,205.41l-.07,0a2.79,2.79,0,0,1-.76.58,1.79,1.79,0,0,1-.75.17,1.39,1.39,0,0,1-.63-.13,1,1,0,0,1-.41-.39,1.1,1.1,0,0,1-.14-.57,1.15,1.15,0,0,1,.67-1.05,4.78,4.78,0,0,1,2-.43v-.3a2.58,2.58,0,0,0-.09-.76.76.76,0,0,0-.3-.41,1,1,0,0,0-.53-.13.88.88,0,0,0-.58.19,1.14,1.14,0,0,0-.33.57h-.61v-.6a6.23,6.23,0,0,1,.74-.34,4.83,4.83,0,0,1,.59-.17,3.08,3.08,0,0,1,.61-.07,1.52,1.52,0,0,1,.73.15.92.92,0,0,1,.42.45,2.3,2.3,0,0,1,.14.91v1.61c0,.23,0,.39,0,.49a2.11,2.11,0,0,0,0,.26.69.69,0,0,0,.07.19.33.33,0,0,0,.14.12,1.26,1.26,0,0,0,.29.11v.23H99.54ZM99.49,204a3.32,3.32,0,0,0-1.41.25.79.79,0,0,0-.47.73.66.66,0,0,0,.11.42.56.56,0,0,0,.27.21,1,1,0,0,0,.38.06,1,1,0,0,0,.57-.16,1.13,1.13,0,0,0,.4-.38.89.89,0,0,0,.15-.47Z"/><path d="M102.78,202.4l.06,0a3.75,3.75,0,0,1,.47-.49,1.94,1.94,0,0,1,.48-.28,1.66,1.66,0,0,1,.57-.1,3.68,3.68,0,0,1,.49,0v1.07h-.53a1,1,0,0,0-.24-.37.5.5,0,0,0-.34-.11.6.6,0,0,0-.33.1,1.17,1.17,0,0,0-.32.28,1.35,1.35,0,0,0-.21.35,1.12,1.12,0,0,0-.06.38v1.63a2.43,2.43,0,0,0,.05.58.38.38,0,0,0,.17.23,1.07,1.07,0,0,0,.36.12v.23h-1.87v-.23l.25-.1a.28.28,0,0,0,.13-.11.55.55,0,0,0,.09-.23,2.72,2.72,0,0,0,0-.48v-2c0-.2,0-.36,0-.48a.73.73,0,0,0-.07-.29.38.38,0,0,0-.17-.16,1,1,0,0,0-.32-.09v-.24l1.08,0h.29Z"/><path d="M108.13,205.41l-.07,0a2.76,2.76,0,0,1-.75.58,1.8,1.8,0,0,1-.76.17,1.38,1.38,0,0,1-.62-.13,1,1,0,0,1-.41-.39,1.1,1.1,0,0,1-.15-.57A1.17,1.17,0,0,1,106,204a4.87,4.87,0,0,1,2-.43v-.3a2.54,2.54,0,0,0-.1-.76.75.75,0,0,0-.29-.41,1,1,0,0,0-.53-.13.93.93,0,0,0-.59.19,1.3,1.3,0,0,0-.33.57h-.6v-.6a6.23,6.23,0,0,1,.74-.34,4.36,4.36,0,0,1,.59-.17,3.07,3.07,0,0,1,.6-.07,1.54,1.54,0,0,1,.74.15.92.92,0,0,1,.42.45,2.3,2.3,0,0,1,.14.91v2.1l0,.26a.69.69,0,0,0,.07.19.33.33,0,0,0,.14.12,1.26,1.26,0,0,0,.29.11v.23h-1.27Zm-.07-1.46a3.32,3.32,0,0,0-1.41.25.77.77,0,0,0-.47.73.73.73,0,0,0,.1.42.56.56,0,0,0,.27.21,1.14,1.14,0,0,0,.39.06,1,1,0,0,0,.57-.16,1.13,1.13,0,0,0,.4-.38.89.89,0,0,0,.15-.47Z"/><path d="M116.11,206.14a1.88,1.88,0,0,1-1.48-.57,2.43,2.43,0,0,1-.5-1.68,2.8,2.8,0,0,1,.26-1.29,1.81,1.81,0,0,1,.73-.79,2.16,2.16,0,0,1,1.06-.26,1.91,1.91,0,0,1,1.5.58,2.44,2.44,0,0,1,.51,1.66,3,3,0,0,1-.25,1.3,1.7,1.7,0,0,1-.73.79A2.16,2.16,0,0,1,116.11,206.14ZM115,203.79a2.82,2.82,0,0,0,.31,1.47,1,1,0,0,0,.87.52.83.83,0,0,0,.52-.16,1,1,0,0,0,.36-.4,2,2,0,0,0,.2-.59,4,4,0,0,0,.06-.7,3.66,3.66,0,0,0-.15-1.14,1.41,1.41,0,0,0-.41-.66,1,1,0,0,0-1.46.28A2.64,2.64,0,0,0,115,203.79Z"/><path d="M120.39,205.93v1a2.7,2.7,0,0,0,0,.45.63.63,0,0,0,.07.23.36.36,0,0,0,.16.14,1.26,1.26,0,0,0,.32.11v.22h-1.89v-.22l.27-.1a.36.36,0,0,0,.16-.14.81.81,0,0,0,.07-.26c0-.11,0-.25,0-.43v-4c0-.23,0-.38,0-.48a1.2,1.2,0,0,0,0-.23.36.36,0,0,0-.08-.15.4.4,0,0,0-.14-.11l-.3-.08v-.25l1.09,0h.28l-.06.76.07,0a4,4,0,0,1,.46-.43,1.79,1.79,0,0,1,.34-.22,1.26,1.26,0,0,1,.34-.12,1.37,1.37,0,0,1,.36,0,1.35,1.35,0,0,1,1.17.57,2.89,2.89,0,0,1,.41,1.68,3.27,3.27,0,0,1-.23,1.29,1.68,1.68,0,0,1-.68.78,2,2,0,0,1-1,.26,2.9,2.9,0,0,1-.62-.06A2.35,2.35,0,0,1,120.39,205.93Zm0-1.53a3.78,3.78,0,0,0,0,.68.89.89,0,0,0,.2.4.91.91,0,0,0,.33.22,1.43,1.43,0,0,0,.51.08.93.93,0,0,0,.85-.47,2.79,2.79,0,0,0,.28-1.38c0-1.21-.36-1.81-1.06-1.81a1,1,0,0,0-.45.08,1.09,1.09,0,0,0-.37.26,1.14,1.14,0,0,0-.27.35.86.86,0,0,0-.07.36Z"/><path d="M124.14,201.86a1,1,0,0,0,.37-.12.87.87,0,0,0,.23-.24,1.46,1.46,0,0,0,.12-.37c0-.15.07-.36.1-.64h.66v1.14h1.5v.47h-1.5v2.07a4.53,4.53,0,0,0,0,.71.9.9,0,0,0,.14.42.6.6,0,0,0,.23.22.78.78,0,0,0,.33.06.69.69,0,0,0,.35-.08,1.22,1.22,0,0,0,.32-.22l.21.25a2.44,2.44,0,0,1-.63.47,1.43,1.43,0,0,1-.61.14,1.12,1.12,0,0,1-.89-.35,1.78,1.78,0,0,1-.29-1.11V202.1h-.68Z"/><path d="M127.63,205.84l.26-.1a.33.33,0,0,0,.13-.11.76.76,0,0,0,.08-.23,2.72,2.72,0,0,0,0-.48v-2c0-.2,0-.36,0-.48a1,1,0,0,0-.06-.29.44.44,0,0,0-.17-.16,1.1,1.1,0,0,0-.33-.09v-.25l1.08,0h.29v3.32a3.37,3.37,0,0,0,0,.55.42.42,0,0,0,.15.24,1,1,0,0,0,.34.14v.23h-1.82Zm1.32-6v.89h-.85v-.89Z"/><path d="M131.52,202.35l.07,0A3.86,3.86,0,0,1,132,202a2.09,2.09,0,0,1,.35-.23,1.1,1.1,0,0,1,.31-.12,1,1,0,0,1,.3,0,1.29,1.29,0,0,1,.76.21,1.1,1.1,0,0,1,.4.66,5.6,5.6,0,0,1,.56-.52,2,2,0,0,1,.44-.26,1.33,1.33,0,0,1,.49-.09,1.4,1.4,0,0,1,.53.09,1,1,0,0,1,.39.28,1.21,1.21,0,0,1,.22.47,3.11,3.11,0,0,1,.07.76v1.75a2.7,2.7,0,0,0,0,.49.47.47,0,0,0,.06.2.35.35,0,0,0,.14.13,1.1,1.1,0,0,0,.29.11v.23h-1.82v-.23a1.58,1.58,0,0,0,.26-.1.28.28,0,0,0,.13-.11.55.55,0,0,0,.09-.23,2.74,2.74,0,0,0,0-.47v-1.22c0-.26,0-.48,0-.65a2.63,2.63,0,0,0-.07-.41.73.73,0,0,0-.25-.39.54.54,0,0,0-.18-.11,1.12,1.12,0,0,0-.29,0,.8.8,0,0,0-.34.07,1.36,1.36,0,0,0-.35.25,1.21,1.21,0,0,0-.27.36.88.88,0,0,0-.08.42v1.69a3,3,0,0,0,0,.49.47.47,0,0,0,.07.2.27.27,0,0,0,.13.13,1.2,1.2,0,0,0,.3.11v.23h-1.83v-.23a1.58,1.58,0,0,0,.26-.1.28.28,0,0,0,.13-.11.55.55,0,0,0,.09-.23,2.74,2.74,0,0,0,0-.47v-1.22a6.06,6.06,0,0,0,0-.67,1.53,1.53,0,0,0-.07-.42.73.73,0,0,0-.12-.25.55.55,0,0,0-.16-.15.49.49,0,0,0-.18-.08,1,1,0,0,0-.24,0,.73.73,0,0,0-.36.08,1.48,1.48,0,0,0-.34.25,1,1,0,0,0-.26.34.82.82,0,0,0-.09.38v1.74c0,.17,0,.31,0,.4a.87.87,0,0,0,0,.22.57.57,0,0,0,.08.13l.13.09.26.09v.23h-1.82v-.23l.26-.1a.33.33,0,0,0,.13-.11.56.56,0,0,0,.08-.23,2.72,2.72,0,0,0,0-.48v-2c0-.2,0-.36,0-.48a1,1,0,0,0-.06-.29.44.44,0,0,0-.17-.16,1.1,1.1,0,0,0-.33-.09v-.25l1.09,0h.28Z"/><path d="M138.17,205.84a1.58,1.58,0,0,0,.26-.1.33.33,0,0,0,.13-.11.76.76,0,0,0,.08-.23,2.72,2.72,0,0,0,0-.48v-2c0-.2,0-.36,0-.48a.6.6,0,0,0-.06-.29.38.38,0,0,0-.17-.16,1,1,0,0,0-.32-.09v-.25l1.08,0h.28v3.32a2.34,2.34,0,0,0,0,.55.36.36,0,0,0,.14.24,1,1,0,0,0,.34.14v.23h-1.82Zm1.33-6v.89h-.85v-.89Z"/><path d="M143,204h-2.16v-.72H143Z"/><path d="M15.78,216.12v1.35H12.21v-.23l2.54-3.83H13.5a.75.75,0,0,0-.37.08.89.89,0,0,0-.26.28,2.93,2.93,0,0,0-.23.52h-.4V213h3.51v.23l-2.53,3.83h1.22a1.11,1.11,0,0,0,.36,0,.53.53,0,0,0,.21-.11,1,1,0,0,0,.17-.26,4.05,4.05,0,0,0,.2-.56Z"/><path d="M19.28,216.8h-.07a2.76,2.76,0,0,1-.75.58,1.8,1.8,0,0,1-.76.17,1.38,1.38,0,0,1-.62-.13,1,1,0,0,1-.41-.39,1.1,1.1,0,0,1-.15-.57,1.16,1.16,0,0,1,.68-1,4.78,4.78,0,0,1,2-.43v-.3a2.54,2.54,0,0,0-.1-.76.75.75,0,0,0-.29-.41,1.07,1.07,0,0,0-1.12.06,1.3,1.3,0,0,0-.33.57h-.6v-.6a5,5,0,0,1,.74-.34,4.36,4.36,0,0,1,.59-.17,3.07,3.07,0,0,1,.6-.07,1.54,1.54,0,0,1,.74.15.92.92,0,0,1,.42.45,2.3,2.3,0,0,1,.14.91v2.1l0,.26a.69.69,0,0,0,.07.19.33.33,0,0,0,.14.12,1.26,1.26,0,0,0,.29.11v.23H19.26Zm-.07-1.45a3.32,3.32,0,0,0-1.41.25.77.77,0,0,0-.47.73.73.73,0,0,0,.1.42.56.56,0,0,0,.27.21,1.14,1.14,0,0,0,.39.06,1,1,0,0,0,.57-.16,1.13,1.13,0,0,0,.4-.38.89.89,0,0,0,.15-.47Z"/><path d="M22.49,213.8l.07,0a3.75,3.75,0,0,1,.47-.49,1.89,1.89,0,0,1,.47-.28,1.72,1.72,0,0,1,.58-.1,3.43,3.43,0,0,1,.48,0v1.07H24a1.13,1.13,0,0,0-.24-.37.51.51,0,0,0-.34-.11.6.6,0,0,0-.33.1,1.17,1.17,0,0,0-.32.28,1.2,1.2,0,0,0-.21.35,1.12,1.12,0,0,0-.06.38v1.63a2.43,2.43,0,0,0,.05.58.41.41,0,0,0,.17.23,1.07,1.07,0,0,0,.36.12v.23H21.25v-.23l.25-.1a.39.39,0,0,0,.21-.34,2.72,2.72,0,0,0,0-.48v-2c0-.2,0-.36,0-.48a.6.6,0,0,0-.06-.29.44.44,0,0,0-.17-.16,1,1,0,0,0-.32-.09V213l1.08,0h.29Z"/><path d="M29,216.31a3.07,3.07,0,0,0,0,.55.44.44,0,0,0,.14.24,1.12,1.12,0,0,0,.34.14v.23H27.7v-.23a.83.83,0,0,0,.32-.13.31.31,0,0,0,.13-.15.7.7,0,0,0,.06-.25,3.9,3.9,0,0,0,0-.4v-3.88c0-.3,0-.51,0-.63a2.43,2.43,0,0,0,0-.3.68.68,0,0,0-.08-.19.58.58,0,0,0-.15-.11,1.6,1.6,0,0,0-.32-.08v-.24l1.11,0H29Z"/><path d="M32.38,217.54a1.87,1.87,0,0,1-1.47-.57,2.45,2.45,0,0,1-.51-1.68,2.8,2.8,0,0,1,.27-1.29,1.81,1.81,0,0,1,.73-.79,2.16,2.16,0,0,1,1.06-.26,1.91,1.91,0,0,1,1.5.58,2.44,2.44,0,0,1,.51,1.66,3,3,0,0,1-.26,1.3,1.74,1.74,0,0,1-.72.79A2.28,2.28,0,0,1,32.38,217.54Zm-1.1-2.35a2.93,2.93,0,0,0,.3,1.47,1,1,0,0,0,.87.52A.92.92,0,0,0,33,217a1,1,0,0,0,.35-.4,1.79,1.79,0,0,0,.2-.59,4.08,4.08,0,0,0,.06-.71,3.64,3.64,0,0,0-.15-1.13,1.41,1.41,0,0,0-.41-.66.91.91,0,0,0-.59-.21.94.94,0,0,0-.86.49A2.62,2.62,0,0,0,31.28,215.19Z"/><path d="M38.51,214.05h-.44a1.5,1.5,0,0,0-.24-.44.74.74,0,0,0-.32-.22,1.11,1.11,0,0,0-.43-.07,1,1,0,0,0-.59.17.58.58,0,0,0-.22.48.63.63,0,0,0,.09.35,1,1,0,0,0,.27.26,4.31,4.31,0,0,0,.65.32,4.93,4.93,0,0,1,.74.38,1.38,1.38,0,0,1,.4.4,1,1,0,0,1,.15.54,1.46,1.46,0,0,1-.13.62,1,1,0,0,1-.35.4,1.32,1.32,0,0,1-.54.23,3,3,0,0,1-.69.07,4.56,4.56,0,0,1-.75-.06,4.18,4.18,0,0,1-.72-.15v-1h.46a1.11,1.11,0,0,0,.37.62,1.06,1.06,0,0,0,.68.2,1.65,1.65,0,0,0,.32,0,.74.74,0,0,0,.29-.12.54.54,0,0,0,.2-.22.69.69,0,0,0,.07-.34.75.75,0,0,0-.09-.39.85.85,0,0,0-.29-.27,5.82,5.82,0,0,0-.69-.33,3.71,3.71,0,0,1-.67-.35,1.25,1.25,0,0,1-.4-.39,1,1,0,0,1-.15-.54,1.08,1.08,0,0,1,.21-.66,1.21,1.21,0,0,1,.59-.43,2.57,2.57,0,0,1,.92-.15,5.68,5.68,0,0,1,.59,0,7,7,0,0,1,.71.12Z"/><path d="M42.83,213.8l.07,0a3.75,3.75,0,0,1,.47-.49,1.89,1.89,0,0,1,.47-.28,1.7,1.7,0,0,1,.57-.1,3.58,3.58,0,0,1,.49,0v1.07h-.52a1.31,1.31,0,0,0-.24-.37.51.51,0,0,0-.34-.11.58.58,0,0,0-.33.1,1.17,1.17,0,0,0-.32.28,1.2,1.2,0,0,0-.21.35,1.12,1.12,0,0,0-.06.38v1.63a2.43,2.43,0,0,0,0,.58.37.37,0,0,0,.17.23,1.09,1.09,0,0,0,.35.12v.23H41.58v-.23a1.58,1.58,0,0,0,.26-.1A.45.45,0,0,0,42,217a.56.56,0,0,0,.08-.23,2.72,2.72,0,0,0,0-.48v-2c0-.2,0-.36,0-.48a.74.74,0,0,0-.06-.29.44.44,0,0,0-.17-.16,1.1,1.1,0,0,0-.33-.09V213l1.09,0h.28Z"/><path d="M49.21,216.68a3.79,3.79,0,0,1-.54.49,2.16,2.16,0,0,1-.55.27,1.89,1.89,0,0,1-.65.1A1.78,1.78,0,0,1,46,217a2.52,2.52,0,0,1-.49-1.69,2.77,2.77,0,0,1,.25-1.22,1.84,1.84,0,0,1,.71-.82,2,2,0,0,1,1-.29,1.9,1.9,0,0,1,.8.15,1.37,1.37,0,0,1,.53.41,1.86,1.86,0,0,1,.3.65,3.9,3.9,0,0,1,.13,1H46.39v.08a3.09,3.09,0,0,0,.12.93,1.15,1.15,0,0,0,.4.58,1.19,1.19,0,0,0,.73.21,1.7,1.7,0,0,0,.69-.14,2.19,2.19,0,0,0,.6-.46Zm-.77-1.88a3.8,3.8,0,0,0-.13-.82,1.07,1.07,0,0,0-.29-.49.77.77,0,0,0-.51-.17.94.94,0,0,0-.77.38,2,2,0,0,0-.33,1.1Z"/><path d="M53.25,214.05H52.8a1.15,1.15,0,0,0-.24-.44.66.66,0,0,0-.31-.22,1.11,1.11,0,0,0-.43-.07.94.94,0,0,0-.59.17A.59.59,0,0,0,51,214a.63.63,0,0,0,.09.35.89.89,0,0,0,.28.26,4.31,4.31,0,0,0,.65.32,4.32,4.32,0,0,1,.73.38,1.42,1.42,0,0,1,.41.4,1,1,0,0,1,.14.54,1.46,1.46,0,0,1-.12.62,1.06,1.06,0,0,1-.36.4,1.32,1.32,0,0,1-.54.23,2.9,2.9,0,0,1-.68.07,4.77,4.77,0,0,1-.76-.06,4.27,4.27,0,0,1-.71-.15v-1h.45A1.24,1.24,0,0,0,51,217a1.08,1.08,0,0,0,.68.2,1.86,1.86,0,0,0,.33,0,.65.65,0,0,0,.28-.12.48.48,0,0,0,.2-.22.68.68,0,0,0,.08-.34.67.67,0,0,0-.1-.39.81.81,0,0,0-.28-.27,5.82,5.82,0,0,0-.69-.33,3.85,3.85,0,0,1-.68-.35,1.36,1.36,0,0,1-.4-.39,1,1,0,0,1-.14-.54,1.08,1.08,0,0,1,.2-.66,1.29,1.29,0,0,1,.6-.43,2.52,2.52,0,0,1,.91-.15,5.54,5.54,0,0,1,.59,0q.28,0,.72.12Z"/><path d="M54.11,213h1.33v2.36a5.81,5.81,0,0,0,0,.83,1.24,1.24,0,0,0,.12.43.91.91,0,0,0,.24.24.81.81,0,0,0,.42.1,1,1,0,0,0,.34-.07,1.39,1.39,0,0,0,.36-.25,1.25,1.25,0,0,0,.29-.34,1,1,0,0,0,.08-.4v-1.74c0-.18,0-.31,0-.4a1,1,0,0,0,0-.22s-.05-.09-.07-.13l-.13-.09a1.07,1.07,0,0,0-.26-.09V213h1.32v3.17c0,.24,0,.41,0,.52a.76.76,0,0,0,.06.25.43.43,0,0,0,.15.15,1.3,1.3,0,0,0,.35.11v.24l-1.07,0h-.28l0-.76h-.07a3.21,3.21,0,0,1-.74.61,1.39,1.39,0,0,1-.7.19,1.22,1.22,0,0,1-.69-.17,1,1,0,0,1-.41-.49,2.58,2.58,0,0,1-.14-.94v-1.75a3.22,3.22,0,0,0,0-.54.49.49,0,0,0-.11-.23.92.92,0,0,0-.38-.16Z"/><path d="M60.71,216.31a2.34,2.34,0,0,0,0,.55.39.39,0,0,0,.14.24,1,1,0,0,0,.34.14v.23H59.39v-.23a.9.9,0,0,0,.32-.13.37.37,0,0,0,.13-.15,1,1,0,0,0,.06-.25c0-.1,0-.23,0-.4v-3.88c0-.3,0-.51,0-.63a1.39,1.39,0,0,0,0-.3.48.48,0,0,0-.09-.19.4.4,0,0,0-.14-.11,1.56,1.56,0,0,0-.33-.08v-.24l1.12,0h.28Z"/><path d="M61.77,213.26a1,1,0,0,0,.38-.12.83.83,0,0,0,.22-.24,1.15,1.15,0,0,0,.13-.37c0-.15.06-.36.1-.64h.66V213h1.49v.47H63.26v2.07a6.62,6.62,0,0,0,0,.71,1,1,0,0,0,.14.42.79.79,0,0,0,.23.22A.83.83,0,0,0,64,217a.85.85,0,0,0,.35-.08,1.41,1.41,0,0,0,.32-.22l.2.25a2.26,2.26,0,0,1-.62.47,1.47,1.47,0,0,1-.61.14,1.11,1.11,0,0,1-.89-.35,1.78,1.78,0,0,1-.29-1.11V213.5h-.69Z"/><path d="M68,216.8h-.07a3,3,0,0,1-.76.58,1.8,1.8,0,0,1-.76.17,1.38,1.38,0,0,1-.62-.13,1,1,0,0,1-.41-.39,1.1,1.1,0,0,1-.14-.57,1.15,1.15,0,0,1,.67-1,4.78,4.78,0,0,1,2-.43v-.3a2.25,2.25,0,0,0-.1-.76.7.7,0,0,0-.29-.41.93.93,0,0,0-.53-.13.88.88,0,0,0-.58.19,1.22,1.22,0,0,0-.34.57h-.6v-.6a5,5,0,0,1,.74-.34,4.83,4.83,0,0,1,.59-.17,3.08,3.08,0,0,1,.61-.07,1.52,1.52,0,0,1,.73.15.92.92,0,0,1,.42.45,2.3,2.3,0,0,1,.14.91v2.1l0,.26a.69.69,0,0,0,.07.19.33.33,0,0,0,.14.12,1.26,1.26,0,0,0,.29.11v.23H67.92Zm-.08-1.45a3.32,3.32,0,0,0-1.41.25.77.77,0,0,0-.47.73.73.73,0,0,0,.1.42.66.66,0,0,0,.27.21,1.14,1.14,0,0,0,.39.06,1,1,0,0,0,.57-.16,1.13,1.13,0,0,0,.4-.38.89.89,0,0,0,.15-.47Z"/><path d="M73,212.43v-.63a2.43,2.43,0,0,0,0-.3.68.68,0,0,0-.08-.19.58.58,0,0,0-.15-.11,1.6,1.6,0,0,0-.32-.08v-.24l1.12,0h.27v5.37c0,.24,0,.41,0,.52a.76.76,0,0,0,.06.25.4.4,0,0,0,.14.15,1.62,1.62,0,0,0,.35.11v.24l-1.09,0H73l0-.76H73a4.55,4.55,0,0,1-.51.46,2.3,2.3,0,0,1-.46.25,1.5,1.5,0,0,1-.52.09,1.36,1.36,0,0,1-1.18-.58,3.43,3.43,0,0,1-.14-3,1.87,1.87,0,0,1,.73-.79,2,2,0,0,1,1-.26,3.15,3.15,0,0,1,.56.05,2.5,2.5,0,0,1,.51.16Zm0,2.29a4.4,4.4,0,0,0,0-.58,1.16,1.16,0,0,0-.11-.37.82.82,0,0,0-.2-.25.89.89,0,0,0-.29-.15,1.32,1.32,0,0,0-.37-.05,1,1,0,0,0-.91.48,2.57,2.57,0,0,0-.31,1.37,2.86,2.86,0,0,0,.26,1.35.83.83,0,0,0,.77.47,1.51,1.51,0,0,0,.34,0,1,1,0,0,0,.27-.11,1.5,1.5,0,0,0,.26-.21,1,1,0,0,0,.2-.25.92.92,0,0,0,.09-.25,1.9,1.9,0,0,0,0-.37Z"/><path d="M77.19,217.54a1.87,1.87,0,0,1-1.47-.57,2.45,2.45,0,0,1-.51-1.68,2.8,2.8,0,0,1,.27-1.29,1.76,1.76,0,0,1,.73-.79,2.15,2.15,0,0,1,1.05-.26,1.92,1.92,0,0,1,1.51.58,2.44,2.44,0,0,1,.51,1.66,3,3,0,0,1-.26,1.3,1.74,1.74,0,0,1-.72.79A2.28,2.28,0,0,1,77.19,217.54Zm-1.1-2.35a2.93,2.93,0,0,0,.3,1.47,1,1,0,0,0,.87.52.92.92,0,0,0,.53-.16,1.14,1.14,0,0,0,.35-.4,1.79,1.79,0,0,0,.2-.59,4.08,4.08,0,0,0,.06-.71,3.64,3.64,0,0,0-.15-1.13,1.41,1.41,0,0,0-.41-.66.91.91,0,0,0-.59-.21.93.93,0,0,0-.86.49A2.62,2.62,0,0,0,76.09,215.19Z"/><path d="M83.32,214.05h-.44a1.5,1.5,0,0,0-.24-.44.74.74,0,0,0-.32-.22,1.11,1.11,0,0,0-.43-.07.94.94,0,0,0-.59.17.58.58,0,0,0-.22.48.63.63,0,0,0,.09.35.84.84,0,0,0,.27.26,4.31,4.31,0,0,0,.65.32,4.32,4.32,0,0,1,.73.38,1.31,1.31,0,0,1,.41.4,1,1,0,0,1,.14.54,1.46,1.46,0,0,1-.12.62,1.13,1.13,0,0,1-.35.4,1.45,1.45,0,0,1-.54.23,3,3,0,0,1-.69.07,4.77,4.77,0,0,1-.76-.06,4.27,4.27,0,0,1-.71-.15v-1h.46A1.11,1.11,0,0,0,81,217a1,1,0,0,0,.67.2,1.75,1.75,0,0,0,.33,0,.74.74,0,0,0,.29-.12.54.54,0,0,0,.2-.22.69.69,0,0,0,.07-.34.75.75,0,0,0-.09-.39.85.85,0,0,0-.29-.27,5.82,5.82,0,0,0-.69-.33,3.71,3.71,0,0,1-.67-.35,1.4,1.4,0,0,1-.41-.39,1,1,0,0,1-.14-.54,1.14,1.14,0,0,1,.2-.66,1.29,1.29,0,0,1,.6-.43A2.52,2.52,0,0,1,82,213a5.74,5.74,0,0,1,.6,0c.19,0,.42.06.71.12Z"/><path d="M85.29,216.39v1.08h-.94v-1.08Z"/><path d="M35.71,34.77a2.64,2.64,0,0,0,0,.45.57.57,0,0,0,.1.27.44.44,0,0,0,.17.16,1.41,1.41,0,0,0,.36.11V36H34.22v-.24a1.08,1.08,0,0,0,.41-.17.49.49,0,0,0,.13-.27,3.57,3.57,0,0,0,0-.54V30.56c0-.23,0-.39,0-.49a.56.56,0,0,0-.08-.24.4.4,0,0,0-.15-.14l-.32-.12v-.23h2.42a2.78,2.78,0,0,1,1.71.43,1.59,1.59,0,0,1,.55,1.33,2.25,2.25,0,0,1-.17.92,1.66,1.66,0,0,1-.5.66,1.93,1.93,0,0,1-.76.37,3.46,3.46,0,0,1-.92.11c-.37,0-.64,0-.84,0Zm0-2h.56a2.37,2.37,0,0,0,.91-.15,1,1,0,0,0,.55-.47,1.78,1.78,0,0,0,.19-.89,1.81,1.81,0,0,0-.11-.7,1.07,1.07,0,0,0-.31-.45,1,1,0,0,0-.47-.24,2.25,2.25,0,0,0-.6-.07h-.72Z"/><path d="M41.1,32.14l.07,0a4.23,4.23,0,0,1,.5-.52,2,2,0,0,1,.49-.29,1.66,1.66,0,0,1,.61-.1,3.89,3.89,0,0,1,.51,0V32.4h-.55a1.19,1.19,0,0,0-.25-.38.52.52,0,0,0-.36-.12.64.64,0,0,0-.35.1,1.43,1.43,0,0,0-.56.67,1.16,1.16,0,0,0-.06.4v1.71a2.61,2.61,0,0,0,.05.61.48.48,0,0,0,.18.25,1.21,1.21,0,0,0,.38.12V36h-2v-.24a1.58,1.58,0,0,0,.26-.1.41.41,0,0,0,.14-.12.55.55,0,0,0,.09-.24,3.13,3.13,0,0,0,0-.51V32.67c0-.21,0-.38,0-.51a.78.78,0,0,0-.07-.3.33.33,0,0,0-.18-.17,1.41,1.41,0,0,0-.34-.1v-.25l1.15-.05h.3Z"/><path d="M45.94,36.08a2,2,0,0,1-1.55-.6,2.62,2.62,0,0,1-.53-1.77,2.94,2.94,0,0,1,.28-1.36,1.88,1.88,0,0,1,.77-.83A2.23,2.23,0,0,1,46,31.25a2,2,0,0,1,1.58.61,2.52,2.52,0,0,1,.54,1.74A3.13,3.13,0,0,1,47.87,35a1.81,1.81,0,0,1-.76.83A2.3,2.3,0,0,1,45.94,36.08Zm-1.16-2.47a3.07,3.07,0,0,0,.32,1.54,1,1,0,0,0,.92.54.92.92,0,0,0,.55-.16,1.11,1.11,0,0,0,.38-.42,2.26,2.26,0,0,0,.2-.62,3.67,3.67,0,0,0,.07-.75,4,4,0,0,0-.16-1.19,1.54,1.54,0,0,0-.43-.69,1,1,0,0,0-.63-.22,1,1,0,0,0-.9.51A2.8,2.8,0,0,0,44.78,33.61Z"/><path d="M53.51,31.83l-.91,0,0,.06a1,1,0,0,1,.24.41,1.69,1.69,0,0,1,.09.56,1.58,1.58,0,0,1-.49,1.23,2.06,2.06,0,0,1-1.4.43,2.11,2.11,0,0,1-.7-.1.77.77,0,0,0-.37.56.48.48,0,0,0,.07.27.4.4,0,0,0,.24.13,2,2,0,0,0,.49,0h1.18a1.88,1.88,0,0,1,.84.16,1,1,0,0,1,.47.43,1.44,1.44,0,0,1,.14.64,1.32,1.32,0,0,1-.27.81,1.65,1.65,0,0,1-.76.56,3,3,0,0,1-1.16.2,6.17,6.17,0,0,1-.9-.06,2.16,2.16,0,0,1-.7-.19,1.2,1.2,0,0,1-.45-.37A.94.94,0,0,1,49,37a.87.87,0,0,1,.21-.56,1.84,1.84,0,0,1,.58-.44.72.72,0,0,1-.36-.27.69.69,0,0,1-.14-.43,1,1,0,0,1,.16-.51,2.55,2.55,0,0,1,.55-.53,1.34,1.34,0,0,1-.53-.55,1.63,1.63,0,0,1-.19-.8,1.84,1.84,0,0,1,.14-.74,1.51,1.51,0,0,1,.39-.51,1.77,1.77,0,0,1,.58-.3,2.48,2.48,0,0,1,.73-.1,3.34,3.34,0,0,1,.7.08h1.73Zm-3.27,4.25a1.23,1.23,0,0,0-.37.39.85.85,0,0,0-.13.47.7.7,0,0,0,.35.65,2.64,2.64,0,0,0,1.82.09,1,1,0,0,0,.48-.34.8.8,0,0,0,.17-.51,1.09,1.09,0,0,0,0-.26.7.7,0,0,0-.13-.24.69.69,0,0,0-.28-.16,1.4,1.4,0,0,0-.45-.06h-.73C50.67,36.11,50.44,36.1,50.24,36.08Zm-.12-3.26a1.52,1.52,0,0,0,.25.94.83.83,0,0,0,.71.33.94.94,0,0,0,.43-.09.78.78,0,0,0,.28-.26,1.25,1.25,0,0,0,.17-.39,2.22,2.22,0,0,0,0-.45,1.87,1.87,0,0,0-.12-.72,1,1,0,0,0-.34-.43,1,1,0,0,0-.48-.13.84.84,0,0,0-.71.31A1.41,1.41,0,0,0,50.12,32.82Z"/><path d="M55.39,32.14l.06,0a4.23,4.23,0,0,1,.5-.52,2.1,2.1,0,0,1,.5-.29,1.64,1.64,0,0,1,.6-.1,3.89,3.89,0,0,1,.51,0V32.4H57a1.19,1.19,0,0,0-.25-.38.51.51,0,0,0-.36-.12.67.67,0,0,0-.35.1,1.49,1.49,0,0,0-.33.3,1.13,1.13,0,0,0-.22.37,1.16,1.16,0,0,0-.06.4v1.71a2.15,2.15,0,0,0,.05.61.39.39,0,0,0,.18.25,1.06,1.06,0,0,0,.37.12V36h-2v-.24l.27-.1a.53.53,0,0,0,.14-.12.55.55,0,0,0,.09-.24,3.13,3.13,0,0,0,0-.51V32.67c0-.21,0-.38,0-.51a.78.78,0,0,0-.07-.3.33.33,0,0,0-.18-.17,1.41,1.41,0,0,0-.34-.1v-.25l1.14-.05h.3Z"/><path d="M61,35.3l-.08,0a2.94,2.94,0,0,1-.8.62,1.76,1.76,0,0,1-.79.18,1.36,1.36,0,0,1-.65-.15,1,1,0,0,1-.44-.4,1.19,1.19,0,0,1-.15-.6,1.22,1.22,0,0,1,.71-1.11,5.23,5.23,0,0,1,2.11-.45v-.31a2.79,2.79,0,0,0-.09-.8.79.79,0,0,0-.31-.43,1,1,0,0,0-.56-.14.94.94,0,0,0-.62.2,1.24,1.24,0,0,0-.35.6h-.64v-.63a5.46,5.46,0,0,1,.79-.36,3.38,3.38,0,0,1,.62-.18,2.73,2.73,0,0,1,.64-.07,1.67,1.67,0,0,1,.77.15,1,1,0,0,1,.44.47,2.4,2.4,0,0,1,.15,1V35l0,.28a.52.52,0,0,0,.08.2.44.44,0,0,0,.14.13,1.31,1.31,0,0,0,.31.11V36H61Zm-.09-1.53a3.45,3.45,0,0,0-1.48.27.81.81,0,0,0-.49.76.7.7,0,0,0,.11.44.57.57,0,0,0,.28.23,1.29,1.29,0,0,0,1-.1,1.27,1.27,0,0,0,.42-.41,1,1,0,0,0,.15-.5Z"/><path d="M64.41,32.08l.06,0c.2-.19.36-.34.48-.44a2.31,2.31,0,0,1,.37-.24,1.73,1.73,0,0,1,.33-.13,1.65,1.65,0,0,1,.31,0,1.33,1.33,0,0,1,.8.23,1.15,1.15,0,0,1,.42.69,6.19,6.19,0,0,1,.6-.55,1.68,1.68,0,0,1,.46-.27,1.45,1.45,0,0,1,.51-.1,1.52,1.52,0,0,1,.56.1.9.9,0,0,1,.4.29,1.23,1.23,0,0,1,.24.5,3.34,3.34,0,0,1,.08.8v1.84a5,5,0,0,0,0,.51.71.71,0,0,0,.07.22.62.62,0,0,0,.14.14,2.24,2.24,0,0,0,.32.11V36H68.66v-.24a1.79,1.79,0,0,0,.27-.1.41.41,0,0,0,.14-.12.6.6,0,0,0,.09-.24,3.07,3.07,0,0,0,0-.5V33.52c0-.28,0-.51,0-.69a3,3,0,0,0-.07-.43.84.84,0,0,0-.11-.25,1.17,1.17,0,0,0-.15-.16.64.64,0,0,0-.2-.11.78.78,0,0,0-.29,0,.87.87,0,0,0-.37.08,1.45,1.45,0,0,0-.36.26,1.2,1.2,0,0,0-.29.38,1,1,0,0,0-.09.44v1.78a2.81,2.81,0,0,0,0,.51.52.52,0,0,0,.07.22.37.37,0,0,0,.14.14,1.68,1.68,0,0,0,.31.11V36H65.87v-.24a1.44,1.44,0,0,0,.27-.1.41.41,0,0,0,.14-.12.6.6,0,0,0,.09-.24,3.07,3.07,0,0,0,0-.5V33.52c0-.29,0-.53,0-.71a2.05,2.05,0,0,0-.08-.44.85.85,0,0,0-.13-.27A.73.73,0,0,0,66,32a.6.6,0,0,0-.2-.08,1,1,0,0,0-.25,0,.82.82,0,0,0-.38.09,1.63,1.63,0,0,0-.36.26,1.26,1.26,0,0,0-.27.36.79.79,0,0,0-.1.4v1.83a3.87,3.87,0,0,0,0,.42,1,1,0,0,0,0,.23.48.48,0,0,0,.09.14.49.49,0,0,0,.13.1,1.31,1.31,0,0,0,.28.09V36H63.09v-.24l.27-.1a.53.53,0,0,0,.14-.12.45.45,0,0,0,.08-.24,3.13,3.13,0,0,0,0-.51V32.67c0-.21,0-.38,0-.51a.79.79,0,0,0-.06-.3.33.33,0,0,0-.18-.17,1.56,1.56,0,0,0-.34-.1v-.26l1.14,0h.3Z"/><path d="M74.23,35.3l-.07,0a3.1,3.1,0,0,1-.8.62,1.84,1.84,0,0,1-.8.18,1.38,1.38,0,0,1-.65-.15,1,1,0,0,1-.43-.4,1.1,1.1,0,0,1-.16-.6A1.22,1.22,0,0,1,72,33.82a5.24,5.24,0,0,1,2.12-.45v-.31a2.74,2.74,0,0,0-.1-.8.79.79,0,0,0-.31-.43,1,1,0,0,0-.56-.14.91.91,0,0,0-.61.2,1.17,1.17,0,0,0-.35.6h-.64v-.63a5,5,0,0,1,.78-.36,3.9,3.9,0,0,1,.62-.18,2.73,2.73,0,0,1,.64-.07,1.75,1.75,0,0,1,.78.15,1,1,0,0,1,.43.47,2.4,2.4,0,0,1,.15,1v1.7c0,.24,0,.41,0,.51a1.27,1.27,0,0,0,0,.28.52.52,0,0,0,.07.2.44.44,0,0,0,.14.13,1.51,1.51,0,0,0,.31.11V36H74.2Zm-.08-1.53a3.5,3.5,0,0,0-1.49.27.81.81,0,0,0-.49.76.77.77,0,0,0,.11.44.61.61,0,0,0,.28.23,1.27,1.27,0,0,0,.41.06,1.22,1.22,0,0,0,.6-.16A1.27,1.27,0,0,0,74,35a.89.89,0,0,0,.16-.5Z"/><path d="M79.56,32.4h-.47a1.42,1.42,0,0,0-.25-.46.93.93,0,0,0-.33-.24,1.56,1.56,0,0,0-.46-.06,1,1,0,0,0-.62.18.61.61,0,0,0-.23.5.7.7,0,0,0,.09.37.85.85,0,0,0,.29.27,4.36,4.36,0,0,0,.69.34,4.82,4.82,0,0,1,.77.4,1.4,1.4,0,0,1,.42.42,1.06,1.06,0,0,1,.16.57,1.45,1.45,0,0,1-.14.65,1.09,1.09,0,0,1-.37.43,1.63,1.63,0,0,1-.57.24,4,4,0,0,1-.72.07A5.06,5.06,0,0,1,77,36c-.26,0-.51-.1-.75-.16v-1h.47a1.24,1.24,0,0,0,.39.65,1.12,1.12,0,0,0,.72.2,2,2,0,0,0,.34,0,1,1,0,0,0,.3-.13.52.52,0,0,0,.21-.23.8.8,0,0,0,.08-.36.73.73,0,0,0-.1-.41.93.93,0,0,0-.3-.29,6.53,6.53,0,0,0-.72-.34,4.71,4.71,0,0,1-.72-.37,1.27,1.27,0,0,1-.42-.41,1.05,1.05,0,0,1-.15-.57,1.15,1.15,0,0,1,.21-.69,1.35,1.35,0,0,1,.63-.45,2.61,2.61,0,0,1,1-.16q.33,0,.63,0a5.94,5.94,0,0,1,.75.13Z"/><path d="M84.71,29,81.18,38.1h-.76L84,29Z"/><path d="M85.2,31.58a1,1,0,0,0,.39-.14.82.82,0,0,0,.24-.25A1.19,1.19,0,0,0,86,30.8c0-.15.07-.38.11-.67h.69v1.2h1.58v.5H86.76V34a5,5,0,0,0,0,.75,1,1,0,0,0,.14.44.76.76,0,0,0,.25.23.73.73,0,0,0,.35.07,1,1,0,0,0,.37-.08,1.65,1.65,0,0,0,.33-.23l.22.26a2.83,2.83,0,0,1-.65.49,1.51,1.51,0,0,1-.65.15,1.15,1.15,0,0,1-.93-.37,1.8,1.8,0,0,1-.31-1.17V31.83H85.2Z"/><path d="M91.7,35.3l-.08,0a2.94,2.94,0,0,1-.8.62,1.79,1.79,0,0,1-.79.18,1.33,1.33,0,0,1-.65-.15,1,1,0,0,1-.44-.4,1.19,1.19,0,0,1-.15-.6,1.23,1.23,0,0,1,.7-1.11,5.33,5.33,0,0,1,2.12-.45v-.31a2.44,2.44,0,0,0-.1-.8.73.73,0,0,0-.3-.43,1,1,0,0,0-.56-.14.94.94,0,0,0-.62.2,1.24,1.24,0,0,0-.35.6H89v-.63a6,6,0,0,1,.78-.36,3.73,3.73,0,0,1,.63-.18,2.7,2.7,0,0,1,.63-.07,1.69,1.69,0,0,1,.78.15,1,1,0,0,1,.44.47,2.4,2.4,0,0,1,.15,1V35a1.27,1.27,0,0,0,0,.28.77.77,0,0,0,.07.2.49.49,0,0,0,.15.13,1.31,1.31,0,0,0,.31.11V36H91.67Zm-.09-1.53a3.45,3.45,0,0,0-1.48.27.82.82,0,0,0-.5.76.7.7,0,0,0,.12.44.57.57,0,0,0,.28.23,1.29,1.29,0,0,0,1-.1,1.27,1.27,0,0,0,.42-.41,1,1,0,0,0,.15-.5Z"/><path d="M95.06,34.78a2.59,2.59,0,0,0,0,.58.36.36,0,0,0,.15.25.88.88,0,0,0,.36.15V36H93.67v-.24a1,1,0,0,0,.34-.13.38.38,0,0,0,.13-.16.83.83,0,0,0,.06-.26c0-.11,0-.25,0-.43V30.69c0-.31,0-.53,0-.65a1.39,1.39,0,0,0,0-.32.53.53,0,0,0-.09-.2.31.31,0,0,0-.15-.12,1.53,1.53,0,0,0-.34-.08v-.26l1.18,0h.29Z"/><path d="M97.77,34.78a3.4,3.4,0,0,0,0,.58.44.44,0,0,0,.15.25,1,1,0,0,0,.36.15V36H96.38v-.24a1,1,0,0,0,.34-.13.52.52,0,0,0,.14-.16.83.83,0,0,0,.06-.26c0-.11,0-.25,0-.43V30a2.31,2.31,0,0,0,0-.32.53.53,0,0,0-.09-.2.44.44,0,0,0-.15-.12,1.85,1.85,0,0,0-.35-.08v-.26l1.18,0h.29Z"/><path d="M103.09,35.17a3.58,3.58,0,0,1-.58.51,1.92,1.92,0,0,1-.57.29,2.17,2.17,0,0,1-.69.11,1.89,1.89,0,0,1-1.52-.6,2.72,2.72,0,0,1-.51-1.78,3.06,3.06,0,0,1,.26-1.29,2,2,0,0,1,.75-.86,2.05,2.05,0,0,1,1.11-.3,1.94,1.94,0,0,1,.84.16,1.37,1.37,0,0,1,.55.42,1.84,1.84,0,0,1,.32.69,4.27,4.27,0,0,1,.13,1.07h-3.07v.09a3,3,0,0,0,.13,1,1.25,1.25,0,0,0,.42.62,1.32,1.32,0,0,0,.77.22,1.66,1.66,0,0,0,.72-.15,2,2,0,0,0,.64-.49Zm-.82-2a3.58,3.58,0,0,0-.14-.86,1.06,1.06,0,0,0-.3-.52.85.85,0,0,0-.54-.17.93.93,0,0,0-.8.4,2.2,2.2,0,0,0-.36,1.15Z"/><path d="M105.38,32.14l.07,0a3.6,3.6,0,0,1,.5-.52,2,2,0,0,1,.49-.29,1.66,1.66,0,0,1,.61-.1,3.89,3.89,0,0,1,.51,0V32.4H107a1.19,1.19,0,0,0-.25-.38.52.52,0,0,0-.36-.12.64.64,0,0,0-.35.1,1.43,1.43,0,0,0-.56.67,1.16,1.16,0,0,0-.06.4v1.71a2.61,2.61,0,0,0,0,.61.48.48,0,0,0,.18.25,1.13,1.13,0,0,0,.38.12V36h-2v-.24a1.58,1.58,0,0,0,.26-.1.41.41,0,0,0,.14-.12.55.55,0,0,0,.09-.24,3.13,3.13,0,0,0,0-.51V32.67c0-.21,0-.38,0-.51a.78.78,0,0,0-.07-.3.33.33,0,0,0-.18-.17,1.41,1.41,0,0,0-.34-.1v-.25l1.15-.05h.3Z"/><path d="M112,35.17a4,4,0,0,1-.57.51,2.1,2.1,0,0,1-.58.29,2.17,2.17,0,0,1-.69.11,1.87,1.87,0,0,1-1.51-.6,2.66,2.66,0,0,1-.52-1.78,3.06,3.06,0,0,1,.26-1.29,2,2,0,0,1,1.86-1.16,1.94,1.94,0,0,1,.84.16,1.41,1.41,0,0,1,.56.42,2.21,2.21,0,0,1,.32.69,4.27,4.27,0,0,1,.13,1.07H109v.09a3,3,0,0,0,.13,1,1.16,1.16,0,0,0,1.2.84,1.64,1.64,0,0,0,.71-.15,2,2,0,0,0,.64-.49Zm-.82-2a3.63,3.63,0,0,0-.13-.86,1.07,1.07,0,0,0-.31-.52.85.85,0,0,0-.54-.17,1,1,0,0,0-.8.4,2.12,2.12,0,0,0-.35,1.15Z"/><path d="M116.27,32.4h-.47a1.64,1.64,0,0,0-.25-.46.88.88,0,0,0-.34-.24,1.44,1.44,0,0,0-.45-.06,1,1,0,0,0-.62.18.59.59,0,0,0-.23.5.7.7,0,0,0,.09.37.85.85,0,0,0,.29.27,4.62,4.62,0,0,0,.68.34,4.42,4.42,0,0,1,.77.4,1.44,1.44,0,0,1,.43.42,1.05,1.05,0,0,1,.15.57,1.45,1.45,0,0,1-.13.65,1.18,1.18,0,0,1-.37.43,1.63,1.63,0,0,1-.57.24,4,4,0,0,1-.72.07,5.29,5.29,0,0,1-.8-.06c-.25,0-.5-.1-.75-.16v-1h.48a1.24,1.24,0,0,0,.39.65,1.09,1.09,0,0,0,.71.2,2,2,0,0,0,.35,0,1,1,0,0,0,.3-.13.52.52,0,0,0,.21-.23.8.8,0,0,0,.08-.36.83.83,0,0,0-.1-.41,1.19,1.19,0,0,0-.3-.29,6.06,6.06,0,0,0-.73-.34,5.05,5.05,0,0,1-.71-.37,1.27,1.27,0,0,1-.42-.41,1.06,1.06,0,0,1-.16-.57,1.16,1.16,0,0,1,.22-.69,1.35,1.35,0,0,1,.63-.45,2.54,2.54,0,0,1,1-.16,6.13,6.13,0,0,1,.62,0,6.05,6.05,0,0,1,.76.13Z"/><path d="M121.41,29l-3.52,9.09h-.77L120.66,29Z"/><path d="M50.57,43.45v1H50a1.7,1.7,0,0,0-.21-.5.63.63,0,0,0-.28-.26,1,1,0,0,0-.4-.07.92.92,0,0,0-.61.22,1.41,1.41,0,0,0-.41.66,3.23,3.23,0,0,0-.16,1.1,4.42,4.42,0,0,0,.06.76,1.86,1.86,0,0,0,.2.59,1.06,1.06,0,0,0,.38.38,1.13,1.13,0,0,0,.58.14,1.69,1.69,0,0,0,.63-.13,2.15,2.15,0,0,0,.6-.47l.28.32a4.23,4.23,0,0,1-.44.43,2.5,2.5,0,0,1-.41.25,2.68,2.68,0,0,1-.43.14,2.24,2.24,0,0,1-.46,0,1.7,1.7,0,0,1-1.41-.61A2.76,2.76,0,0,1,47,45.7a3,3,0,0,1,.27-1.29,2,2,0,0,1,.77-.86,2.16,2.16,0,0,1,1.14-.3,5.74,5.74,0,0,1,.74,0A4.38,4.38,0,0,1,50.57,43.45Z"/><path d="M54.16,47.3l-.07,0a3.1,3.1,0,0,1-.8.62,1.79,1.79,0,0,1-.79.18,1.4,1.4,0,0,1-.66-.15,1,1,0,0,1-.43-.4,1.19,1.19,0,0,1-.15-.6,1.21,1.21,0,0,1,.7-1.11,5.28,5.28,0,0,1,2.12-.45v-.31a2.44,2.44,0,0,0-.1-.8.75.75,0,0,0-.31-.43,1,1,0,0,0-.56-.14.91.91,0,0,0-.61.2,1.17,1.17,0,0,0-.35.6h-.64v-.63a5,5,0,0,1,.78-.36,3.73,3.73,0,0,1,.63-.18,2.65,2.65,0,0,1,.63-.07,1.75,1.75,0,0,1,.78.15,1.06,1.06,0,0,1,.44.47,2.63,2.63,0,0,1,.14,1v1.7c0,.24,0,.41,0,.51a1.27,1.27,0,0,0,0,.28.52.52,0,0,0,.07.2.44.44,0,0,0,.14.13,1.51,1.51,0,0,0,.31.11V48H54.14Zm-.08-1.53a3.5,3.5,0,0,0-1.49.27.82.82,0,0,0-.49.76.77.77,0,0,0,.11.44.59.59,0,0,0,.29.23,1.16,1.16,0,0,0,.4.06,1.23,1.23,0,0,0,1-.57,1,1,0,0,0,.15-.5Z"/><path d="M57.54,47.85v1a2.8,2.8,0,0,0,0,.48.52.52,0,0,0,.08.24.39.39,0,0,0,.16.15,1.12,1.12,0,0,0,.34.11v.24h-2v-.24a1.21,1.21,0,0,0,.29-.1.35.35,0,0,0,.17-.15.86.86,0,0,0,.08-.27c0-.12,0-.27,0-.46V44.19a1.33,1.33,0,0,0,0-.24.35.35,0,0,0-.09-.16.42.42,0,0,0-.15-.11,1.46,1.46,0,0,0-.32-.09v-.26l1.15,0h.3l-.06.79.07,0a5.11,5.11,0,0,1,.48-.44,2.41,2.41,0,0,1,.36-.23,1.65,1.65,0,0,1,.36-.14,2.21,2.21,0,0,1,.37,0,1.44,1.44,0,0,1,1.24.61,3,3,0,0,1,.43,1.76A3.41,3.41,0,0,1,60.56,47a1.74,1.74,0,0,1-.71.82,2.08,2.08,0,0,1-1.11.28,3.37,3.37,0,0,1-.66-.06A3.09,3.09,0,0,1,57.54,47.85Zm0-1.61a3.36,3.36,0,0,0,.06.73.94.94,0,0,0,.21.41,1,1,0,0,0,.35.23,1.4,1.4,0,0,0,.54.08,1,1,0,0,0,.89-.49,2.92,2.92,0,0,0,.29-1.45c0-1.27-.37-1.91-1.11-1.91a1.17,1.17,0,0,0-.48.09,1.15,1.15,0,0,0-.39.27,1.19,1.19,0,0,0-.27.37.85.85,0,0,0-.09.38Z"/><path d="M64.61,47.3l-.08,0a2.94,2.94,0,0,1-.8.62,1.76,1.76,0,0,1-.79.18,1.36,1.36,0,0,1-.65-.15,1,1,0,0,1-.44-.4,1.19,1.19,0,0,1-.15-.6,1.22,1.22,0,0,1,.71-1.11,5.23,5.23,0,0,1,2.11-.45v-.31a2.44,2.44,0,0,0-.1-.8.73.73,0,0,0-.3-.43,1,1,0,0,0-.56-.14.94.94,0,0,0-.62.2,1.24,1.24,0,0,0-.35.6H62v-.63a5.46,5.46,0,0,1,.79-.36,3.38,3.38,0,0,1,.62-.18,2.7,2.7,0,0,1,.63-.07,1.69,1.69,0,0,1,.78.15,1,1,0,0,1,.44.47,2.4,2.4,0,0,1,.15,1V47l0,.28a.77.77,0,0,0,.07.2.64.64,0,0,0,.15.13,1.31,1.31,0,0,0,.31.11V48H64.58Zm-.09-1.53A3.45,3.45,0,0,0,63,46a.82.82,0,0,0-.5.76.7.7,0,0,0,.12.44.57.57,0,0,0,.28.23,1.29,1.29,0,0,0,1-.1,1.27,1.27,0,0,0,.42-.41,1,1,0,0,0,.15-.5Z"/><path d="M70.3,43.45v1h-.62a1.48,1.48,0,0,0-.2-.5.68.68,0,0,0-.28-.26,1,1,0,0,0-.41-.07.91.91,0,0,0-.6.22,1.35,1.35,0,0,0-.42.66,3.52,3.52,0,0,0-.15,1.1,4.42,4.42,0,0,0,.06.76,1.64,1.64,0,0,0,.2.59,1,1,0,0,0,.37.38,1.16,1.16,0,0,0,.58.14,1.61,1.61,0,0,0,.63-.13,1.9,1.9,0,0,0,.6-.47l.28.32a2.88,2.88,0,0,1-.44.43,2.06,2.06,0,0,1-.4.25,2.68,2.68,0,0,1-.43.14,2.34,2.34,0,0,1-.47,0,1.73,1.73,0,0,1-1.41-.61,2.83,2.83,0,0,1-.49-1.77A3,3,0,0,1,67,44.41a2.06,2.06,0,0,1,.76-.86,2.16,2.16,0,0,1,1.14-.3,5.5,5.5,0,0,1,.74,0A3.93,3.93,0,0,1,70.3,43.45Z"/><path d="M71.07,47.76l.28-.1a.37.37,0,0,0,.13-.12.55.55,0,0,0,.09-.24,3.13,3.13,0,0,0,0-.51V44.67c0-.21,0-.38,0-.51a.63.63,0,0,0-.07-.3.29.29,0,0,0-.17-.17,1.56,1.56,0,0,0-.34-.1v-.26l1.13,0h.3v3.49a3.4,3.4,0,0,0,0,.58.44.44,0,0,0,.15.25.88.88,0,0,0,.36.15V48H71.07Zm1.4-6.34v.95h-.9v-.95Z"/><path d="M73.56,43.58a1,1,0,0,0,.4-.14.68.68,0,0,0,.23-.25,1.46,1.46,0,0,0,.14-.39c0-.15.06-.38.1-.67h.69v1.2H76.7v.5H75.12V46a6.88,6.88,0,0,0,0,.75,1.07,1.07,0,0,0,.15.44.65.65,0,0,0,.24.23.73.73,0,0,0,.35.07.91.91,0,0,0,.37-.08,1.7,1.7,0,0,0,.34-.23l.22.26a2.67,2.67,0,0,1-.66.49,1.46,1.46,0,0,1-.64.15,1.18,1.18,0,0,1-.94-.37,1.86,1.86,0,0,1-.31-1.17V43.83h-.72Z"/><path d="M80.06,47.3l-.07,0a3.1,3.1,0,0,1-.8.62,1.84,1.84,0,0,1-.8.18,1.38,1.38,0,0,1-.65-.15,1,1,0,0,1-.43-.4,1.1,1.1,0,0,1-.16-.6,1.22,1.22,0,0,1,.71-1.11A5.28,5.28,0,0,1,80,45.37v-.31a2.74,2.74,0,0,0-.1-.8.79.79,0,0,0-.31-.43,1,1,0,0,0-.56-.14.91.91,0,0,0-.61.2,1.17,1.17,0,0,0-.35.6h-.64v-.63a5,5,0,0,1,.78-.36,3.9,3.9,0,0,1,.62-.18,2.73,2.73,0,0,1,.64-.07,1.75,1.75,0,0,1,.78.15,1,1,0,0,1,.43.47,2.4,2.4,0,0,1,.15,1v1.7c0,.24,0,.41,0,.51a1.27,1.27,0,0,0,0,.28.52.52,0,0,0,.07.2.44.44,0,0,0,.14.13,1.51,1.51,0,0,0,.31.11V48H80ZM80,45.77a3.5,3.5,0,0,0-1.49.27.81.81,0,0,0-.49.76.77.77,0,0,0,.11.44.61.61,0,0,0,.28.23,1.27,1.27,0,0,0,.41.06,1.22,1.22,0,0,0,.6-.16,1.27,1.27,0,0,0,.42-.41.89.89,0,0,0,.16-.5Z"/><path d="M85.76,43.45v1h-.62a1.7,1.7,0,0,0-.21-.5.63.63,0,0,0-.28-.26,1,1,0,0,0-.4-.07.92.92,0,0,0-.61.22,1.41,1.41,0,0,0-.41.66,3.23,3.23,0,0,0-.16,1.1,4.42,4.42,0,0,0,.06.76,1.86,1.86,0,0,0,.2.59,1.06,1.06,0,0,0,.38.38,1.13,1.13,0,0,0,.58.14,1.69,1.69,0,0,0,.63-.13,2.15,2.15,0,0,0,.6-.47l.28.32a4.23,4.23,0,0,1-.44.43,2.5,2.5,0,0,1-.41.25,2.68,2.68,0,0,1-.43.14,2.24,2.24,0,0,1-.46,0,1.7,1.7,0,0,1-1.41-.61,2.76,2.76,0,0,1-.49-1.77,3,3,0,0,1,.27-1.29,2.08,2.08,0,0,1,.77-.86,2.16,2.16,0,0,1,1.14-.3,5.74,5.74,0,0,1,.74,0A4.38,4.38,0,0,1,85.76,43.45Z"/><path d="M86.53,47.76a1.44,1.44,0,0,0,.27-.1.53.53,0,0,0,.14-.12A1,1,0,0,0,87,47.3a3.13,3.13,0,0,0,0-.51V44.67c0-.21,0-.38,0-.51a.78.78,0,0,0-.07-.3.33.33,0,0,0-.18-.17,1.41,1.41,0,0,0-.34-.1v-.26l1.14,0h.3v3.49a2.59,2.59,0,0,0,0,.58.39.39,0,0,0,.14.25,1,1,0,0,0,.36.15V48H86.53Zm1.4-6.34v.95H87v-.95Z"/><path d="M91.43,48.08a2,2,0,0,1-1.55-.6,2.62,2.62,0,0,1-.53-1.77,2.94,2.94,0,0,1,.28-1.36,1.83,1.83,0,0,1,.77-.83,2.23,2.23,0,0,1,1.11-.27,2,2,0,0,1,1.58.61,2.52,2.52,0,0,1,.54,1.74A3.13,3.13,0,0,1,93.36,47a1.81,1.81,0,0,1-.76.83A2.3,2.3,0,0,1,91.43,48.08Zm-1.16-2.47a3.07,3.07,0,0,0,.32,1.54,1,1,0,0,0,.91.54.93.93,0,0,0,.56-.16,1.19,1.19,0,0,0,.38-.42,2.26,2.26,0,0,0,.2-.62,3.67,3.67,0,0,0,.07-.75,4,4,0,0,0-.16-1.19,1.54,1.54,0,0,0-.43-.69,1,1,0,0,0-.63-.22,1,1,0,0,0-.91.51A2.81,2.81,0,0,0,90.27,45.61Z"/><path d="M99.37,48H97.45v-.24a1.79,1.79,0,0,0,.27-.1.41.41,0,0,0,.14-.12A.6.6,0,0,0,98,47.3a3.07,3.07,0,0,0,0-.5V45.52c0-.23,0-.43,0-.62a2.36,2.36,0,0,0-.07-.46.82.82,0,0,0-.11-.28.8.8,0,0,0-.15-.17,1,1,0,0,0-.21-.11.9.9,0,0,0-.31,0,.86.86,0,0,0-.36.08,1.43,1.43,0,0,0-.38.26,1.59,1.59,0,0,0-.3.36A.93.93,0,0,0,96,45v1.82a3.4,3.4,0,0,0,0,.58.44.44,0,0,0,.15.25.88.88,0,0,0,.36.15V48H94.62v-.24l.27-.1a.37.37,0,0,0,.13-.12.55.55,0,0,0,.09-.24,3.13,3.13,0,0,0,0-.51V44.67c0-.21,0-.38,0-.51a.63.63,0,0,0-.07-.3.29.29,0,0,0-.17-.17,1.56,1.56,0,0,0-.34-.1v-.26l1.14,0H96l-.06.79.07,0a5.31,5.31,0,0,1,.59-.52,2.11,2.11,0,0,1,.44-.24,1.37,1.37,0,0,1,.49-.09,1.72,1.72,0,0,1,.47.07,1.11,1.11,0,0,1,.36.18.9.9,0,0,1,.26.32,1.57,1.57,0,0,1,.16.45,4.08,4.08,0,0,1,0,.67v1.84c0,.22,0,.39,0,.49a.45.45,0,0,0,.07.23.38.38,0,0,0,.14.14,1.2,1.2,0,0,0,.32.12Z"/><path d="M104.1,47.17a3.58,3.58,0,0,1-.58.51A1.92,1.92,0,0,1,103,48a2.17,2.17,0,0,1-.69.11,1.89,1.89,0,0,1-1.52-.6,2.72,2.72,0,0,1-.51-1.78,3.06,3.06,0,0,1,.26-1.29,2,2,0,0,1,.75-.86,2.05,2.05,0,0,1,1.11-.3,1.94,1.94,0,0,1,.84.16,1.31,1.31,0,0,1,.55.42,2,2,0,0,1,.33.69,4.79,4.79,0,0,1,.13,1.07h-3.08v.09a3,3,0,0,0,.13,1,1.25,1.25,0,0,0,.42.62,1.32,1.32,0,0,0,.77.22,1.66,1.66,0,0,0,.72-.15,2,2,0,0,0,.64-.49Zm-.82-2a4.24,4.24,0,0,0-.13-.86,1.15,1.15,0,0,0-.31-.52.85.85,0,0,0-.54-.17,1,1,0,0,0-.8.4,2.2,2.2,0,0,0-.36,1.15Z"/><path d="M108.35,44.4h-.47a1.43,1.43,0,0,0-.26-.46.85.85,0,0,0-.33-.24,1.44,1.44,0,0,0-.45-.06,1,1,0,0,0-.63.18.61.61,0,0,0-.23.5.7.7,0,0,0,.09.37,1,1,0,0,0,.29.27,4.36,4.36,0,0,0,.69.34,4.82,4.82,0,0,1,.77.4,1.57,1.57,0,0,1,.43.42,1.05,1.05,0,0,1,.15.57,1.45,1.45,0,0,1-.13.65,1.18,1.18,0,0,1-.37.43,1.63,1.63,0,0,1-.57.24,4,4,0,0,1-.72.07,5.19,5.19,0,0,1-.8-.06c-.26,0-.51-.1-.75-.16v-1h.48a1.24,1.24,0,0,0,.39.65,1.09,1.09,0,0,0,.71.2,2.07,2.07,0,0,0,.35,0,1,1,0,0,0,.3-.13.67.67,0,0,0,.21-.23.8.8,0,0,0,.07-.36.83.83,0,0,0-.09-.41,1.09,1.09,0,0,0-.31-.29,5.09,5.09,0,0,0-.72-.34,5.05,5.05,0,0,1-.71-.37,1.27,1.27,0,0,1-.42-.41,1,1,0,0,1-.16-.57,1.1,1.1,0,0,1,.22-.69,1.25,1.25,0,0,1,.63-.45,2.54,2.54,0,0,1,1-.16c.21,0,.42,0,.62,0a6.37,6.37,0,0,1,.76.13Z"/><rect class="cls-6" x="0.25" y="0.25" width="154" height="253" rx="9.73"/></g></g></svg>