<svg xmlns="http://www.w3.org/2000/svg" viewBox="0 0 154.5 255.63"><defs><style>.cls-1{fill:#2b56a4;}.cls-2{fill:#f6892d;}.cls-3{fill:#fff;}.cls-4{fill:#0a9ed9;}.cls-5,.cls-6{fill:none;}.cls-5{stroke:#0a9ed9;stroke-width:2px;}.cls-6{stroke:#000;stroke-miterlimit:10;stroke-width:0.5px;}</style></defs><g id="Capa_2" data-name="Capa 2"><g id="Layer_1" data-name="Layer 1"><path class="cls-1" d="M41.17,15.28v1.57h-.73a1.88,1.88,0,0,0-.41-.91,1,1,0,0,0-.73-.28,1.37,1.37,0,0,0-1.28.82,5.29,5.29,0,0,0-.44,2.43,5,5,0,0,0,.4,2.27,1.24,1.24,0,0,0,1.16.77,1.3,1.3,0,0,0,.64-.13,1,1,0,0,0,.4-.4,2.63,2.63,0,0,0,.25-.74h.74v1.64a10.5,10.5,0,0,1-1.08.2,6.72,6.72,0,0,1-1,.07,3.63,3.63,0,0,1-1.82-.41,2.41,2.41,0,0,1-1-1.22,5.62,5.62,0,0,1-.34-2.08,5,5,0,0,1,.4-2.05,3,3,0,0,1,1.16-1.34A3.49,3.49,0,0,1,39.27,15a7.26,7.26,0,0,1,1,.06A6.63,6.63,0,0,1,41.17,15.28Z"/><path class="cls-1" d="M45,15.11v.36a1.12,1.12,0,0,0-.3.11.42.42,0,0,0-.18.17.71.71,0,0,0-.08.28c0,.12,0,.26,0,.43v5.4h1a1.13,1.13,0,0,0,.5-.1.94.94,0,0,0,.33-.3,1.87,1.87,0,0,0,.23-.53,6.33,6.33,0,0,0,.16-.62h.74l-.12,2.19H42.14v-.36a1.07,1.07,0,0,0,.32-.12.46.46,0,0,0,.17-.17.77.77,0,0,0,.07-.28c0-.12,0-.26,0-.43V16.47c0-.17,0-.31,0-.42a.77.77,0,0,0-.07-.29.35.35,0,0,0-.17-.17,1,1,0,0,0-.32-.12v-.36Z"/><path class="cls-1" d="M50.44,21.14c0,.13,0,.25,0,.35a1.56,1.56,0,0,0,0,.27.4.4,0,0,0,.1.17.43.43,0,0,0,.17.12.88.88,0,0,0,.26.09v.36H48.2v-.36a1.21,1.21,0,0,0,.31-.11.39.39,0,0,0,.18-.18.88.88,0,0,0,.07-.28c0-.11,0-.25,0-.43V16.47c0-.18,0-.32,0-.43a.72.72,0,0,0-.07-.28.48.48,0,0,0-.17-.18,1.3,1.3,0,0,0-.32-.11v-.36H51v.36a1.2,1.2,0,0,0-.32.12.43.43,0,0,0-.16.17.73.73,0,0,0-.08.25c0,.11,0,.26,0,.46Z"/><path class="cls-1" d="M60.32,15.47a1,1,0,0,0-.39.17.5.5,0,0,0-.14.26,2.38,2.38,0,0,0,0,.56v4.69a3.54,3.54,0,0,0,0,.52.52.52,0,0,0,.13.29.87.87,0,0,0,.41.18v.36H57.56v-.36a1.75,1.75,0,0,0,.33-.11A.35.35,0,0,0,58,21.9a.56.56,0,0,0,.08-.24c0-.1,0-.28,0-.52V18.48c0-.29,0-.63,0-1s0-.68,0-.85h-.11c0,.15-.09.29-.14.43l-.27.74-1.44,3.91h-.95l-1.51-4.39c-.09-.25-.17-.5-.24-.74h-.09c0,.59,0,1.3,0,2.11v2.49a2.38,2.38,0,0,0,0,.56.43.43,0,0,0,.15.26.79.79,0,0,0,.39.17v.36H52v-.36a.91.91,0,0,0,.31-.12.42.42,0,0,0,.18-.17.67.67,0,0,0,.07-.27c0-.12,0-.26,0-.43V16.46a3.43,3.43,0,0,0,0-.56.44.44,0,0,0-.14-.25.88.88,0,0,0-.4-.18v-.36H54.7l1.49,4.45,1.61-4.45h2.52Z"/><path class="cls-1" d="M65.27,20.21H63l-.18.52a3.71,3.71,0,0,0-.12.41,2,2,0,0,0,0,.44.51.51,0,0,0,.56.56v.36h-2.3v-.36a.61.61,0,0,0,.35-.14,1.11,1.11,0,0,0,.28-.32,3.88,3.88,0,0,0,.26-.59l2.24-6h1.44l1.77,6.07a3.44,3.44,0,0,0,.2.57.67.67,0,0,0,.21.28.75.75,0,0,0,.36.15v.36H65v-.36a.71.71,0,0,0,.41-.15.47.47,0,0,0,.14-.36,1.73,1.73,0,0,0,0-.37c0-.14-.07-.31-.12-.52Zm-2.09-.63h1.94l-.86-3Z"/><path class="cls-1" d="M73.87,15.11v.36a1.21,1.21,0,0,0-.31.11.49.49,0,0,0-.18.17.93.93,0,0,0-.08.28c0,.12,0,.26,0,.43v5.4h1a1.2,1.2,0,0,0,.5-.1,1,1,0,0,0,.32-.3,2.2,2.2,0,0,0,.24-.53c.06-.22.12-.43.16-.62h.73l-.12,2.19H71.05v-.36a1,1,0,0,0,.31-.12.4.4,0,0,0,.17-.17.77.77,0,0,0,.07-.28c0-.12,0-.26,0-.43V16.47c0-.17,0-.31,0-.42a1,1,0,0,0-.07-.29.42.42,0,0,0-.18-.17.91.91,0,0,0-.31-.12v-.36Z"/><path class="cls-1" d="M81,20.21H78.73l-.18.52a3.71,3.71,0,0,0-.12.41,2,2,0,0,0-.05.44.51.51,0,0,0,.56.56v.36h-2.3v-.36A.61.61,0,0,0,77,22a1.11,1.11,0,0,0,.28-.32,3.88,3.88,0,0,0,.26-.59l2.24-6h1.44L83,21.14a3.44,3.44,0,0,0,.2.57.67.67,0,0,0,.21.28.75.75,0,0,0,.36.15v.36h-3v-.36a.71.71,0,0,0,.41-.15.47.47,0,0,0,.14-.36,1.73,1.73,0,0,0,0-.37c0-.14-.07-.31-.12-.52Zm-2.09-.63h1.94l-.86-3Z"/><path class="cls-1" d="M89,18.63a2.46,2.46,0,0,1,1.14.69,1.56,1.56,0,0,1,.4,1.09,2.28,2.28,0,0,1-.18.94,1.59,1.59,0,0,1-.55.66,2.49,2.49,0,0,1-.86.37,5.58,5.58,0,0,1-1.27.12H84.37v-.36a1.3,1.3,0,0,0,.32-.11.42.42,0,0,0,.17-.18.67.67,0,0,0,.07-.28c0-.11,0-.25,0-.43V16.47c0-.17,0-.31,0-.42a.62.62,0,0,0-.07-.29.35.35,0,0,0-.17-.17.89.89,0,0,0-.32-.12v-.36h3.52a6.47,6.47,0,0,1,1,.06,2.76,2.76,0,0,1,.88.28,1.28,1.28,0,0,1,.52.51,1.5,1.5,0,0,1,.19.78A2,2,0,0,1,89,18.58Zm-1.67-.28a1.9,1.9,0,0,0,.84-.16,1,1,0,0,0,.47-.45,1.75,1.75,0,0,0,.15-.8,1.27,1.27,0,0,0-.17-.71.92.92,0,0,0-.49-.37,2.23,2.23,0,0,0-.79-.12c-.25,0-.49,0-.73,0v2.58Zm-.72,3.5.73,0a2.47,2.47,0,0,0,.84-.13,1,1,0,0,0,.52-.44,1.76,1.76,0,0,0,.18-.87,1.89,1.89,0,0,0-.1-.67,1,1,0,0,0-.29-.45,1.09,1.09,0,0,0-.46-.25,2.51,2.51,0,0,0-.67-.08h-.75Z"/><path class="cls-1" d="M94.76,22.59a3,3,0,0,1-2.38-.93,4.26,4.26,0,0,1-.79-2.79A5.06,5.06,0,0,1,92,16.78a2.8,2.8,0,0,1,1.13-1.31A3.35,3.35,0,0,1,94.88,15,3,3,0,0,1,97.3,16a4.15,4.15,0,0,1,.8,2.76,5.72,5.72,0,0,1-.24,1.76,3,3,0,0,1-.68,1.2,2.59,2.59,0,0,1-1.05.7A4.23,4.23,0,0,1,94.76,22.59ZM93.3,18.72a5.85,5.85,0,0,0,.39,2.44,1.26,1.26,0,0,0,1.19.79,1.1,1.1,0,0,0,.7-.22,1.54,1.54,0,0,0,.47-.63,3.55,3.55,0,0,0,.26-1,9.14,9.14,0,0,0,.08-1.22,8.2,8.2,0,0,0-.17-1.8,2.3,2.3,0,0,0-.51-1.1,1.13,1.13,0,0,0-.87-.37,1.23,1.23,0,0,0-1.16.75A5.39,5.39,0,0,0,93.3,18.72Z"/><path class="cls-1" d="M102,22.5H99.19v-.36A1.37,1.37,0,0,0,99.5,22a.33.33,0,0,0,.17-.18.85.85,0,0,0,.08-.28c0-.11,0-.25,0-.43V16.47c0-.17,0-.31,0-.42a.77.77,0,0,0-.07-.29.46.46,0,0,0-.17-.17,1.07,1.07,0,0,0-.32-.12v-.36h3.13a5.41,5.41,0,0,1,1.07.09,2.75,2.75,0,0,1,.78.27,1.6,1.6,0,0,1,.47.38,1.78,1.78,0,0,1,.3.54,2.16,2.16,0,0,1,.11.71,2.08,2.08,0,0,1-.19.91,1.82,1.82,0,0,1-.5.63,3.58,3.58,0,0,1-.84.48v.05a1.9,1.9,0,0,1,.66.46,3.25,3.25,0,0,1,.47.74l.34.73a2.8,2.8,0,0,0,.45.74.82.82,0,0,0,.53.3v.36H103.9a8.61,8.61,0,0,1-.71-1.29l-.42-.92a2.93,2.93,0,0,0-.32-.59,1,1,0,0,0-.27-.24,1.25,1.25,0,0,0-.44-.06h-.31v1.74a3.67,3.67,0,0,0,0,.57.51.51,0,0,0,.15.26.89.89,0,0,0,.4.17Zm-.58-6.75v3H102a1.86,1.86,0,0,0,.71-.11,1.14,1.14,0,0,0,.44-.33,1.17,1.17,0,0,0,.23-.49,2.93,2.93,0,0,0,.06-.61,1.57,1.57,0,0,0-.35-1.11,1.35,1.35,0,0,0-1-.37Z"/><path class="cls-1" d="M110.28,20.21H108l-.18.52a3.71,3.71,0,0,0-.12.41,2,2,0,0,0,0,.44.51.51,0,0,0,.56.56v.36h-2.29v-.36a.64.64,0,0,0,.35-.14,1.09,1.09,0,0,0,.27-.32,3.88,3.88,0,0,0,.26-.59l2.24-6h1.44l1.77,6.07a3.44,3.44,0,0,0,.2.57.67.67,0,0,0,.21.28.75.75,0,0,0,.36.15v.36h-3v-.36a.74.74,0,0,0,.42-.15.47.47,0,0,0,.13-.36,1.73,1.73,0,0,0,0-.37,4,4,0,0,0-.12-.52Zm-2.09-.63h1.94l-.86-3Z"/><path class="cls-1" d="M116.46,15.11v.36a1.21,1.21,0,0,0-.31.11.42.42,0,0,0-.18.17.93.93,0,0,0-.08.28c0,.12,0,.26,0,.43v5.4h1a1.2,1.2,0,0,0,.5-.1,1,1,0,0,0,.32-.3,2.2,2.2,0,0,0,.24-.53c.06-.22.12-.43.16-.62h.73l-.12,2.19h-5.11v-.36A1,1,0,0,0,114,22a.4.4,0,0,0,.17-.17.77.77,0,0,0,.07-.28c0-.12,0-.26,0-.43V16.47c0-.17,0-.31,0-.42a1,1,0,0,0-.07-.29.42.42,0,0,0-.18-.17.91.91,0,0,0-.31-.12v-.36Z"/><path class="cls-1" d="M50.22,84.37a16.72,16.72,0,0,1-2.57-1.55c-3-2.5-5.94-5-8.82-7.66a3.42,3.42,0,0,0-3.63-.92,15.72,15.72,0,0,1-5,.38,4.23,4.23,0,0,1-2.38-1.36c-1.17-1.19-.92-2,.66-2.54,2-.72,4-1.3,6-2.1,3-1.23,5.5.32,8,1.3a8.47,8.47,0,0,0,6.52.07,2.35,2.35,0,0,1,3.45,1.4c1.21,2.68,2.65,5.26,3.81,8,1,2.26.44,3.25-1.89,4-1.22.41-2.5.63-4.09,1"/><path class="cls-1" d="M121,163.35c0-.34.06-.67.08-1-2.95-.3-5.86-1.19-8.89-.57-.56.11-1,.83-1.5,1.3-.92.9-1.71,2.39-2.77,2.61-2.72.55-2.31,2.42-2.14,4.17,0,.54.89,1.45,1.33,1.43,6.35-.3,12.78,1.06,19-1.22,3.45-1.27,7.56-1.17,9.58-5.09a9.91,9.91,0,0,0,.6-2.07,16.2,16.2,0,0,0-2.29.65c-1.27.58-2.46,1.79-3.73,1.85-4.55.23-9.13.12-13.69,0-.49,0-1-.59-1.45-.91.49-.4,1-1.08,1.49-1.14a39.4,39.4,0,0,1,4.35-.05m-6.58,10.32c-3.85,0-6.51,0-9.17,0-1.27,0-1.88-.52-1.86-1.84,0-2.06-.09-4.13.07-6.18,0-.6.92-1.68,1.26-1.62,2.23.36,3.26-1.2,4.26-2.58a4.87,4.87,0,0,1,4.55-2.2,57.68,57.68,0,0,1,7.31.76,4.25,4.25,0,0,1,2.53,2,2.27,2.27,0,0,0,2.18,1.36c3,.21,5.77-.16,8.1-2.44a3.21,3.21,0,0,1,4.42.45c1.23,1.39,1.11,2.81.13,4.31a13.73,13.73,0,0,1-8.5,5.83c-5.42,1.45-10.79,2.9-15.28,2.14"/><path class="cls-2" d="M44.35,174.84c-1.32,1.58-1.31,2-.21,4l1.93-1-1.72-3M39.94,179c.2-1.53,1.32-2.82-.54-4.09-.59,1-1.13,2-1.72,3L39.94,179M29.16,148.26c-3.55-.94-4.33-.18-3.45,3.36,2.25-.2,3.15-1.08,3.45-3.36m29.28,3.51c-.15-1.31.1-2.89-.54-3.5s-2.19-.23-3.53-.29c.55,2.35,1.58,3.57,4.07,3.79M26.29,168.08l-.95.54c.15,1.15-.09,2.72.57,3.35s2.17.26,3.32.33l.42-.81-3.36-3.41m31.79.48c-2.29.21-3.32,1.28-3.41,3.52,3.59.8,4.27.1,3.41-3.52m-16.28,6.1a3.53,3.53,0,0,0,3.7-3.47A3.84,3.84,0,0,0,42,167.42a3.91,3.91,0,0,0-3.72,3.81,3.51,3.51,0,0,0,3.53,3.43M42,147.92v0c-3.34,0-6.68-.07-10,.06-.66,0-1.35.75-1.92,1.27-1.17,1.06-2.31,2.17-3.38,3.34-.52.58-1.22,1.32-1.24,2q-.18,5.56,0,11.13c0,.68.73,1.41,1.27,2,1,1.06,2.48,1.83,3.07,3.06a2.46,2.46,0,0,0,2.81,1.66,8.79,8.79,0,0,1,2.05,0c2,.29,2.82-.53,3-2.54.14-1.66,2.28-3.27,4.06-3.39,1.53-.1,4.31,1.62,4.34,3.07.07,2.79,1.62,3.07,3.76,2.84a8.09,8.09,0,0,1,1.84,0c1.1.11,1.59-.4,2.17-1.37a9.12,9.12,0,0,1,3-3.11,2.54,2.54,0,0,0,1.55-2.52c-.07-3.57,0-7.15,0-10.72a2.2,2.2,0,0,0-1.36-2.2,8.18,8.18,0,0,1-3.09-3,2.37,2.37,0,0,0-2.5-1.51c-3.13.07-6.27,0-9.4,0m5.59,31.14-4.39,1.18-1-4.41-.59-.06c-.36,1.57-.72,3.14-1,4.51l-4.41-1.22c.43-.84.94-1.84,1.47-2.83,1.22-2.32.86-3-1.67-3-3.07,0-6.14-.06-9.2,0-1.47,0-2.1-.42-2.09-2q.07-11.13,0-22.27c0-1.52.52-2,2-2q15.24.08,30.47,0c1.43,0,1.93.5,1.93,1.91q-.06,11.13,0,22.27c0,1.68-.68,2.11-2.21,2.07-3.14-.08-6.27,0-9.41,0-2,0-2.43.7-1.55,2.55.55,1.14,1.16,2.26,1.68,3.26"/><path class="cls-2" d="M133.15,96.44c.11-.17.22-.34.34-.51-.66-1.83-1.39-3.64-2-5.5-.5-1.64-1-2.92-3.17-2.9-1.59,0-3.61,1.55-3.17,3.1.71,2.51,1.71,4.94,2.82,8.05,1.24-2.76,2.91-3.32,5.14-2.24m-26.05.1c2.72-1.19,4.49-.5,5.87,2a62.91,62.91,0,0,0,2.57-8,3.56,3.56,0,0,0-1.75-3c-1.08-.33-3.23.11-3.67.91-1.26,2.28-1.9,4.92-3,8.1m20.71-10.07c1.45.16,2.79.43,2.64-1.46s.72-2.88,2.56-3.25c1.4-.28,1.8-1.06.76-2.35a2.23,2.23,0,0,1,.28-3.41c1.3-1.16,1.17-2.2-.41-3-1.1-.59-1.87-1.3-1.25-2.78.78-1.88.4-2.51-1.58-2.64-1.49-.09-2.5-.56-2.69-2.18s-1.27-1.83-2.51-1.27A2.66,2.66,0,0,1,121.8,63c-.69-1.06-1.74-1.2-2.48,0-1.14,1.79-2.47,1.75-4.22,1-.5-.22-1.95.36-2,.7-.31,2.28-1.61,2.88-3.67,2.94-1.07,0-1.71.86-1.08,2.07.82,1.54.33,2.57-1.16,3.33s-1.72,1.67-.36,2.81c1,.88,1.59,1.82.63,3.19-1.28,1.82-1,2,1.07,3a3.25,3.25,0,0,1,1.72,2.33c-.07,1.94.62,2.52,2.38,2.22a2.43,2.43,0,0,1,3.1,1.62c.54,1.46,1.56,1.65,2.73.75a2.72,2.72,0,0,1,3.85,0c1,.86,2.14.91,2.72-.66a2.34,2.34,0,0,1,2.78-1.77m-14.46,13.67c-1.08-1.16-1.87-2.66-3-3.09s-2.72.23-4.43.45c1-2.8,2-5.44,2.78-8.16a22.46,22.46,0,0,0,.8-5.16c0-.48-.79-1.24-1.37-1.48-2.47-1-2.7-1.58-1.81-3.92a3.13,3.13,0,0,0-.44-2.45c-1.06-1.5-1-3,.64-3.93,1.2-.67,1.66-1.32,1-2.78-.7-1.62.43-3.05,2.41-3.1,1.34,0,1.92-.45,2.15-1.83.29-1.76,1.7-2.45,3.39-1.71,1.3.56,2.19.57,3.19-.65a2.33,2.33,0,0,1,3.76,0c1,1.09,1.8,1.38,3.17.73,1.66-.78,3-.08,3.32,1.76a2.08,2.08,0,0,0,2.35,2c2,.06,2.84,1.24,2.2,3.2-.48,1.44-.08,2.1,1.24,2.7a2,2,0,0,1,.55,3.52,2.28,2.28,0,0,0-.57,3.07c.8,1.89.28,2.93-1.72,3.55-1.07.33-1.35.84-1.51,2-.45,3.38,1.59,6,2.3,9,.27,1.17.76,2.28,1.37,4.06-3.36-1.68-5.69-1-7.5,2.44-1.1-3.07-2.07-5.44-2.77-7.9-.66-2.29-2.81-2.87-4.39-3.32-1-.3-3.26,1.17-3.93,2.41-1.39,2.61-2.11,5.59-3.17,8.62"/><path class="cls-1" d="M121.14,154.89a6.87,6.87,0,1,0,0-13.72,6.86,6.86,0,1,0,0,13.72m.11,2.27a9.13,9.13,0,1,1-.15-18.24c5.38.09,9.38,3.78,9.45,8.93a9.07,9.07,0,0,1-9.3,9.31"/><path class="cls-1" d="M26.1,84c1.8.54,3,1.48,2.51,2.87.79,1.48,2,2.8,1.7,3.38a10.9,10.9,0,0,1-3.21,3.46c-.33.25-1.64-.27-2.09-.79C22.45,90,20,87,17.55,84c-1.31-1.6-.05-2.59,1-3.62s2.12-1.44,3.41-.45c.41.32.88.83,1.31.81,2.32-.08,3,1.24,2.87,3.29"/><path class="cls-1" d="M36.17,93.71,31.85,89l.64-.64a10.65,10.65,0,0,1,1.33,1c1.33,1.28,2.63,2.59,4,3.88,1,1,2.14,1.42,3.23.29s-.15-1.91-.86-2.62c-1.6-1.59-3.27-3.11-4.88-4.7a14.27,14.27,0,0,1-1.19-1.48l.39-.51a8.72,8.72,0,0,1,1.7.94c2,1.85,4,3.74,5.91,5.67,1,1,1.83,1.1,2.81.13,1.18-1.15.08-1.79-.58-2.51-2.39-2.6-4.79-5.2-7.45-8.07a6.46,6.46,0,0,1,1.78.8c2.15,2,4.24,4.07,6.36,6.1,1.85,1.77,2.72,1.55,3.67-.79.15-.37.7-.57,1.07-.86.22.44.62.87.62,1.3a2.38,2.38,0,0,1-.55,1.52C48.25,90,46.66,91.54,45,93a7.38,7.38,0,0,1-3,1.9c-3,.6-6.12.89-9.19,1.21-.36,0-.88-.43-1.14-.79a18.93,18.93,0,0,1-1.16-2.12,10,10,0,0,1,2.13.77,2.63,2.63,0,0,0,3.53-.27"/><path class="cls-1" d="M31.52,68.25a11.27,11.27,0,0,1-2.6,0,36.72,36.72,0,0,1-5.44-1.66,2.47,2.47,0,0,0-3.19.93c-2.42,3-4,6.19-2.6,10.19.13.39-.16.94-.26,1.41-.42-.21-1.16-.36-1.21-.63-.33-1.84-.9-3.76-.64-5.54a12.42,12.42,0,0,1,4.64-7.74c.49-.41,1.28-.9,1.78-.77,3.23.86,6.42,1.87,9.63,2.84,0,.34-.08.67-.11,1"/><path class="cls-3" d="M130.25,75.93a9.78,9.78,0,0,0-19.55-.2c0,5.46,4.11,9.41,9.89,9.51a9.42,9.42,0,0,0,9.66-9.31m3.52,3.48c1,1.29.64,2.07-.76,2.35-1.84.37-2.72,1.29-2.56,3.25s-1.19,1.62-2.63,1.46A2.34,2.34,0,0,0,125,88.24c-.58,1.57-1.67,1.52-2.72.66a2.72,2.72,0,0,0-3.85,0c-1.17.9-2.19.71-2.73-.75a2.43,2.43,0,0,0-3.1-1.62c-1.76.3-2.45-.28-2.38-2.22A3.22,3.22,0,0,0,108.53,82c-2.11-.94-2.35-1.15-1.07-3,1-1.37.41-2.31-.63-3.19-1.36-1.15-1.07-2.09.36-2.81s2-1.79,1.16-3.33c-.63-1.21,0-2,1.08-2.07,2.06-.06,3.36-.66,3.67-2.94.05-.34,1.5-.92,2-.7,1.75.76,3.08.8,4.22-1,.74-1.16,1.8-1,2.48,0a2.66,2.66,0,0,0,3.81,1.09c1.24-.56,2.31-.41,2.51,1.27s1.2,2.09,2.69,2.18c2,.13,2.36.76,1.58,2.64-.62,1.48.15,2.19,1.25,2.78"/><path class="cls-4" d="M80.46,134c-3.47,0-6.95,0-10.42,0-2.94,0-4.66-2.41-3.93-5.31a20.28,20.28,0,0,1,6.07-10.26,3.31,3.31,0,0,1,4.22-.65,7.8,7.8,0,0,0,7.83.08c2.28-1.31,3.79-.25,5.19,1.22a20.84,20.84,0,0,1,5.41,9.75A4,4,0,0,1,90.89,134c-3.48,0-7,0-10.43,0"/><path class="cls-4" d="M80.68,100a8.53,8.53,0,0,1,8.69,8.32A8.81,8.81,0,0,1,80.43,117a9,9,0,0,1-9-8.55c0-4.82,3.93-8.48,9.22-8.5"/><path class="cls-2" d="M41.9,160.14a3.87,3.87,0,1,0,0-7.73,3.87,3.87,0,0,0,0,7.73m-.19.84a4.65,4.65,0,0,1-4.55-4.79,4.72,4.72,0,1,1,9.44.16A4.58,4.58,0,0,1,41.71,161"/><path class="cls-2" d="M33.28,149.52H50.5v.37H33.29c0-.12,0-.25,0-.37"/><path class="cls-2" d="M50.54,165.35H33.29V165H50.51l0,.38"/><path class="cls-2" d="M50.32,163.11H33.5c0-.13,0-.25,0-.38H50.34l0,.38"/><path class="cls-2" d="M27.5,155.21v9.94h-.39v-9.94h.39"/><path class="cls-2" d="M56.75,155.17v10H56.4v-9.93l.35,0"/><path class="cls-2" d="M43.49,171c-.82-.46-1.3-.92-1.74-.9s-1,.77-.88,1c.14.45.68,1,1.08,1.07s.81-.6,1.54-1.19m-1.63-2.8c.94,1.34,2,2.15,1.85,2.78-.13.81-1.15,1.48-1.78,2.21-.66-.71-1.7-1.35-1.85-2.16-.12-.63.87-1.47,1.78-2.83"/><path class="cls-2" d="M129.42,75.85a8.88,8.88,0,0,0-8.93-8.57c-4.91,0-9.1,4-9,8.72.07,4.43,4.63,8.77,9.08,8.65,4.72-.13,8.9-4.26,8.88-8.8m.83.08a9.42,9.42,0,0,1-9.66,9.31c-5.78-.1-9.89-4-9.89-9.51a9.78,9.78,0,0,1,19.55.2"/><path class="cls-1" d="M118.93,150l2.34.13c-.57-.88-1-1.42-1.31-2-.41-.79-1.22-1.85-1-2.37a4.18,4.18,0,0,1,2.34-1.91c.55-.19,1.4.53,2.56,1-2.3,1.24-2.41,2.16-.71,3.42a2.69,2.69,0,0,1,.27,2.55,3.22,3.22,0,0,1-2.35,1.58c-.9-.08-1.71-1.13-2.55-1.75l.39-.66"/><path class="cls-2" d="M43.48,171c-.72.59-1.14,1.21-1.53,1.19s-.94-.62-1.08-1.07c-.07-.25.55-1,.88-1s.92.44,1.73.9"/><path class="cls-2" d="M40.76,157.88l1.58-.15c-.64-1-1.6-1.94-1.67-2.91-.1-1.39,1.22-1.6,2.52-.27l-1.5.36c.48,1,1.36,2.09,1.31,3.09-.06,1.34-1.24,1.32-2.24-.12"/><path class="cls-2" d="M120.46,73.41c-1,.67-2,1.39-2.81,1.93l.95,3.37h3.65c.35-1.07.71-2.22,1.07-3.35l-2.86-2m3.5,7.28a5.49,5.49,0,0,0-6.91.07c.66-2.44.8-4.54-2-5.89,2.57-.44,4.5-1.26,5.37-4.36,1.13,2.84,2.72,4.09,5.81,4-2.32,1.85-3.72,3.48-2.3,6.18"/><path class="cls-3" d="M123.32,75.36c-.36,1.13-.72,2.28-1.07,3.35H118.6l-.95-3.37"/><path class="cls-5" d="M80.45,147a28.58,28.58,0,1,0-28.34-28.57A28.45,28.45,0,0,0,80.45,147Z"/><path d="M16.56,199.39v1.48h-.47a2.85,2.85,0,0,0-.16-.42,1.39,1.39,0,0,0-.16-.3.59.59,0,0,0-.18-.2.58.58,0,0,0-.24-.1,1.51,1.51,0,0,0-.32,0H13.48v2.58h1a.83.83,0,0,0,.34-.06.51.51,0,0,0,.2-.21,2.23,2.23,0,0,0,.15-.46h.46v1.89h-.46a1.46,1.46,0,0,0-.15-.45.45.45,0,0,0-.2-.21.72.72,0,0,0-.34-.07h-1v2.84H15a1.41,1.41,0,0,0,.39,0,.66.66,0,0,0,.26-.14,1.09,1.09,0,0,0,.19-.26,3.45,3.45,0,0,0,.14-.34c0-.12.09-.29.15-.51h.48l-.09,1.73H12v-.24a.93.93,0,0,0,.4-.18.44.44,0,0,0,.14-.27,3.57,3.57,0,0,0,0-.54v-4.26c0-.23,0-.39,0-.5a1,1,0,0,0-.08-.24.5.5,0,0,0-.15-.14,2.24,2.24,0,0,0-.32-.11v-.24Z"/><path d="M20.91,202.48h-.47a1.48,1.48,0,0,0-.26-.47.74.74,0,0,0-.33-.23,1.18,1.18,0,0,0-.45-.07,1,1,0,0,0-.63.18.7.7,0,0,0-.13.88.93.93,0,0,0,.28.28,7.38,7.38,0,0,0,.69.34,4.91,4.91,0,0,1,.77.39,1.75,1.75,0,0,1,.43.43,1.05,1.05,0,0,1,.15.57,1.47,1.47,0,0,1-.13.66,1.11,1.11,0,0,1-.37.43,1.63,1.63,0,0,1-.57.24,3.24,3.24,0,0,1-.72.08,5.19,5.19,0,0,1-.8-.06l-.75-.16v-1h.48a1.24,1.24,0,0,0,.39.65,1.09,1.09,0,0,0,.71.21,1.39,1.39,0,0,0,.35,0,.79.79,0,0,0,.3-.12.83.83,0,0,0,.21-.24,1,1,0,0,0,0-.77,1,1,0,0,0-.31-.29A4,4,0,0,0,19,204a4.55,4.55,0,0,1-.71-.37,1.4,1.4,0,0,1-.42-.42,1,1,0,0,1-.16-.57,1.12,1.12,0,0,1,.22-.7,1.33,1.33,0,0,1,.63-.46,2.76,2.76,0,0,1,1-.15c.21,0,.42,0,.62,0s.45.06.76.12Z"/><path d="M21.64,201.65a1,1,0,0,0,.39-.14.82.82,0,0,0,.24-.25,1.37,1.37,0,0,0,.13-.39c0-.16.07-.39.11-.69h.69v1.22h1.58v.5H23.2v2.19a5.17,5.17,0,0,0,0,.76,1,1,0,0,0,.15.44.58.58,0,0,0,.24.23.73.73,0,0,0,.35.07,1,1,0,0,0,.37-.08,1.32,1.32,0,0,0,.33-.23l.22.26a2.57,2.57,0,0,1-.65.49,1.35,1.35,0,0,1-.64.16,1.14,1.14,0,0,1-.94-.38,1.81,1.81,0,0,1-.31-1.18V201.9h-.72Z"/><path d="M29.22,205.27a4.29,4.29,0,0,1-.58.52,2.15,2.15,0,0,1-1.26.4,1.89,1.89,0,0,1-1.52-.61,2.76,2.76,0,0,1-.51-1.8,3.06,3.06,0,0,1,.26-1.29,2,2,0,0,1,.74-.87,2.32,2.32,0,0,1,2-.15,1.41,1.41,0,0,1,.55.44,1.87,1.87,0,0,1,.32.68,4.44,4.44,0,0,1,.13,1.09H26.24v.09a3.1,3.1,0,0,0,.13,1,1.19,1.19,0,0,0,.42.62,1.23,1.23,0,0,0,.77.22,1.66,1.66,0,0,0,.72-.15,2.11,2.11,0,0,0,.64-.49Zm-.82-2a3.76,3.76,0,0,0-.14-.87,1.07,1.07,0,0,0-.3-.51.8.8,0,0,0-.54-.18.93.93,0,0,0-.8.4,2.24,2.24,0,0,0-.36,1.16Z"/><path d="M39.38,202.22h.07a4.23,4.23,0,0,1,.5-.52,2,2,0,0,1,.49-.29,1.66,1.66,0,0,1,.61-.1,3.89,3.89,0,0,1,.51,0v1.13H41a1.14,1.14,0,0,0-.25-.39.52.52,0,0,0-.36-.12.66.66,0,0,0-.35.11,1,1,0,0,0-.34.3,1.33,1.33,0,0,0-.22.37,1.2,1.2,0,0,0-.06.4v1.73a2.17,2.17,0,0,0,.06.62.4.4,0,0,0,.17.24,1,1,0,0,0,.38.13v.24h-2v-.24l.27-.11a.37.37,0,0,0,.13-.12.55.55,0,0,0,.09-.24,3.13,3.13,0,0,0,0-.51v-2.14c0-.21,0-.38,0-.51a.68.68,0,0,0-.07-.31.4.4,0,0,0-.17-.17,1.56,1.56,0,0,0-.34-.1v-.25l1.14,0h.3Z"/><path d="M46.1,205.27a5,5,0,0,1-.57.52,2.42,2.42,0,0,1-.58.29,2.06,2.06,0,0,1-.68.11,1.88,1.88,0,0,1-1.52-.61,2.76,2.76,0,0,1-.52-1.8,2.92,2.92,0,0,1,.27-1.29,2,2,0,0,1,.74-.87,2.05,2.05,0,0,1,1.11-.3,2.1,2.1,0,0,1,.84.15,1.45,1.45,0,0,1,.56.44,2,2,0,0,1,.32.68,4.44,4.44,0,0,1,.13,1.09H43.12v.09a3.42,3.42,0,0,0,.13,1,1.27,1.27,0,0,0,.43.62,1.21,1.21,0,0,0,.77.22,1.72,1.72,0,0,0,.72-.15,2.08,2.08,0,0,0,.63-.49Zm-.82-2a3.82,3.82,0,0,0-.13-.87,1.08,1.08,0,0,0-.31-.51.78.78,0,0,0-.54-.18,1,1,0,0,0-.8.4,2.16,2.16,0,0,0-.35,1.16Z"/><path d="M50.72,201.51v1H50.1a1.83,1.83,0,0,0-.21-.5.68.68,0,0,0-.28-.26,1,1,0,0,0-.4-.07.92.92,0,0,0-.61.22,1.61,1.61,0,0,0-.42.67,3.55,3.55,0,0,0-.15,1.11,4.63,4.63,0,0,0,.06.77,1.71,1.71,0,0,0,.2.59,1,1,0,0,0,.37.38,1.17,1.17,0,0,0,.59.14,1.44,1.44,0,0,0,.62-.13,2,2,0,0,0,.61-.47l.27.33a4.07,4.07,0,0,1-.43.42,2.5,2.5,0,0,1-.41.25,2,2,0,0,1-.43.15,2.24,2.24,0,0,1-.46.05,1.68,1.68,0,0,1-1.41-.62,2.81,2.81,0,0,1-.49-1.79,3,3,0,0,1,.27-1.29,2.1,2.1,0,0,1,.77-.87,2.15,2.15,0,0,1,1.13-.3,5.6,5.6,0,0,1,.74,0A5.67,5.67,0,0,1,50.72,201.51Z"/><path d="M51.37,201.4h1.39v2.51a6.15,6.15,0,0,0,.05.87,1.15,1.15,0,0,0,.13.46.75.75,0,0,0,.25.25.77.77,0,0,0,.44.11.94.94,0,0,0,.36-.08,1.43,1.43,0,0,0,.38-.26,1.19,1.19,0,0,0,.3-.36,1,1,0,0,0,.09-.43v-1.84a4.26,4.26,0,0,0,0-.43,1.2,1.2,0,0,0,0-.23.67.67,0,0,0-.09-.14.48.48,0,0,0-.13-.09,1.11,1.11,0,0,0-.27-.1v-.24H55.6v3.36c0,.26,0,.44,0,.55a.67.67,0,0,0,.07.27.38.38,0,0,0,.15.16,1.18,1.18,0,0,0,.36.11v.26l-1.11,0h-.3l0-.81-.08,0A3.09,3.09,0,0,1,54,206a1.49,1.49,0,0,1-.74.21,1.34,1.34,0,0,1-.73-.18,1,1,0,0,1-.43-.53,2.63,2.63,0,0,1-.14-1v-1.86a3.49,3.49,0,0,0,0-.57.54.54,0,0,0-.13-.25.9.9,0,0,0-.39-.17Z"/><path d="M58.33,202.22h.07a4.24,4.24,0,0,1,.49-.52,2.1,2.1,0,0,1,.5-.29,1.64,1.64,0,0,1,.6-.1,4.17,4.17,0,0,1,.52,0v1.13H60a1,1,0,0,0-.25-.39.49.49,0,0,0-.36-.12.71.71,0,0,0-.35.11,1.48,1.48,0,0,0-.55.67,1.2,1.2,0,0,0-.06.4v1.73a2.28,2.28,0,0,0,0,.62.45.45,0,0,0,.18.24.93.93,0,0,0,.37.13v.24H57v-.24a1.3,1.3,0,0,0,.27-.11.53.53,0,0,0,.14-.12.55.55,0,0,0,.09-.24,3.13,3.13,0,0,0,0-.51v-2.14c0-.21,0-.38,0-.51a.84.84,0,0,0-.07-.31.37.37,0,0,0-.18-.17,1.41,1.41,0,0,0-.34-.1v-.25l1.14,0h.3Z"/><path d="M64.42,202.48H64a1.48,1.48,0,0,0-.26-.47.69.69,0,0,0-.33-.23,1.18,1.18,0,0,0-.45-.07,1,1,0,0,0-.62.18.6.6,0,0,0-.24.51.62.62,0,0,0,.1.37.93.93,0,0,0,.28.28,7.38,7.38,0,0,0,.69.34,4.91,4.91,0,0,1,.77.39,1.75,1.75,0,0,1,.43.43,1.05,1.05,0,0,1,.15.57,1.47,1.47,0,0,1-.13.66,1.11,1.11,0,0,1-.37.43,1.63,1.63,0,0,1-.57.24,3.24,3.24,0,0,1-.72.08,5.29,5.29,0,0,1-.8-.06l-.75-.16v-1h.48a1.24,1.24,0,0,0,.39.65,1.09,1.09,0,0,0,.71.21,1.39,1.39,0,0,0,.35,0,.79.79,0,0,0,.3-.12.7.7,0,0,0,.21-.24.87.87,0,0,0,0-.77,1,1,0,0,0-.31-.29,4,4,0,0,0-.72-.35,5.05,5.05,0,0,1-.71-.37,1.4,1.4,0,0,1-.42-.42,1,1,0,0,1-.16-.57,1.19,1.19,0,0,1,.22-.7,1.38,1.38,0,0,1,.63-.46,2.76,2.76,0,0,1,1-.15c.21,0,.42,0,.62,0s.45.06.76.12Z"/><path d="M67.57,206.19a1.93,1.93,0,0,1-1.55-.61,2.58,2.58,0,0,1-.54-1.78,3,3,0,0,1,.28-1.37,1.91,1.91,0,0,1,.77-.84,2.28,2.28,0,0,1,1.11-.27,2,2,0,0,1,1.59.61,2.64,2.64,0,0,1,.53,1.76,3.17,3.17,0,0,1-.27,1.38,1.83,1.83,0,0,1-.76.84A2.37,2.37,0,0,1,67.57,206.19ZM66.4,203.7a3.12,3.12,0,0,0,.32,1.55,1,1,0,0,0,.92.55,1,1,0,0,0,.56-.16,1.3,1.3,0,0,0,.37-.43,2.22,2.22,0,0,0,.21-.63,4.56,4.56,0,0,0,.06-.75,3.75,3.75,0,0,0-.16-1.2,1.45,1.45,0,0,0-.43-.7,1,1,0,0,0-.63-.22,1,1,0,0,0-.9.51A2.88,2.88,0,0,0,66.4,203.7Z"/><path d="M80,206v1c0,.21,0,.37,0,.48a.61.61,0,0,0,.08.25.46.46,0,0,0,.16.15,1.17,1.17,0,0,0,.34.1v.25h-2V208a1.28,1.28,0,0,0,.28-.1.31.31,0,0,0,.17-.15.66.66,0,0,0,.08-.27c0-.12,0-.27,0-.46v-4.23c0-.23,0-.4,0-.5a1.45,1.45,0,0,0,0-.25.42.42,0,0,0-.09-.16.37.37,0,0,0-.15-.11,1.51,1.51,0,0,0-.31-.09v-.26l1.14,0H80l-.06.8.07,0a4.29,4.29,0,0,1,.48-.45,3.75,3.75,0,0,1,.36-.24,2.05,2.05,0,0,1,.37-.13,1.37,1.37,0,0,1,.36,0,1.42,1.42,0,0,1,1.24.61,3.06,3.06,0,0,1,.43,1.78,3.47,3.47,0,0,1-.24,1.37,1.76,1.76,0,0,1-.71.83,2.18,2.18,0,0,1-1.11.28,3.37,3.37,0,0,1-.66-.06A3.66,3.66,0,0,1,80,206Zm0-1.62a3.32,3.32,0,0,0,.06.72.92.92,0,0,0,.2.42.88.88,0,0,0,.36.24,1.52,1.52,0,0,0,.53.08,1,1,0,0,0,.89-.5,2.84,2.84,0,0,0,.3-1.46c0-1.28-.38-1.93-1.12-1.93a1.13,1.13,0,0,0-.47.09,1.39,1.39,0,0,0-.4.28,1.19,1.19,0,0,0-.27.37A.85.85,0,0,0,80,203Z"/><path d="M88.1,205.27a4.29,4.29,0,0,1-.58.52,2.15,2.15,0,0,1-1.26.4,1.89,1.89,0,0,1-1.52-.61,2.76,2.76,0,0,1-.51-1.8,3.06,3.06,0,0,1,.26-1.29,2,2,0,0,1,.75-.87,2.05,2.05,0,0,1,1.11-.3,2.1,2.1,0,0,1,.84.15,1.35,1.35,0,0,1,.55.44,2.05,2.05,0,0,1,.33.68,5,5,0,0,1,.13,1.09H85.12v.09a3.1,3.1,0,0,0,.13,1,1.13,1.13,0,0,0,1.19.84,1.66,1.66,0,0,0,.72-.15,2,2,0,0,0,.64-.49Zm-.82-2a4.47,4.47,0,0,0-.13-.87,1.16,1.16,0,0,0-.31-.51.8.8,0,0,0-.54-.18,1,1,0,0,0-.8.4,2.24,2.24,0,0,0-.36,1.16Z"/><path d="M90.39,202.22h.07a4.23,4.23,0,0,1,.5-.52,2,2,0,0,1,.49-.29,1.66,1.66,0,0,1,.61-.1,3.89,3.89,0,0,1,.51,0v1.13H92a1.14,1.14,0,0,0-.25-.39.52.52,0,0,0-.36-.12.66.66,0,0,0-.35.11,1,1,0,0,0-.34.3,1.33,1.33,0,0,0-.22.37,1.2,1.2,0,0,0-.06.4v1.73a2.78,2.78,0,0,0,0,.62.45.45,0,0,0,.18.24,1,1,0,0,0,.38.13v.24h-2v-.24a1.43,1.43,0,0,0,.26-.11.33.33,0,0,0,.14-.12.55.55,0,0,0,.09-.24,3.13,3.13,0,0,0,0-.51v-2.14c0-.21,0-.38,0-.51a.68.68,0,0,0-.07-.31.37.37,0,0,0-.18-.17,1.31,1.31,0,0,0-.33-.1v-.25l1.14,0h.3Z"/><path d="M94.53,202.16l.07,0a4.45,4.45,0,0,1,.48-.45,1.88,1.88,0,0,1,.36-.24,2,2,0,0,1,.33-.13,1.12,1.12,0,0,1,.32,0,1.3,1.3,0,0,1,.79.23,1.16,1.16,0,0,1,.43.69,6.3,6.3,0,0,1,.59-.55,1.84,1.84,0,0,1,.46-.27,1.25,1.25,0,0,1,.51-.1,1.42,1.42,0,0,1,.57.1,1,1,0,0,1,.4.29,1.29,1.29,0,0,1,.24.5,3.52,3.52,0,0,1,.07.81v1.86a2.81,2.81,0,0,0,0,.51.63.63,0,0,0,.07.23.44.44,0,0,0,.14.13,1.1,1.1,0,0,0,.31.12v.24H98.78v-.24a1.3,1.3,0,0,0,.27-.11.33.33,0,0,0,.14-.12.55.55,0,0,0,.09-.24,3.07,3.07,0,0,0,0-.5v-1.29a6.86,6.86,0,0,0,0-.69,2,2,0,0,0-.07-.44,1.07,1.07,0,0,0-.11-.26.75.75,0,0,0-.15-.16.59.59,0,0,0-.19-.11,1.21,1.21,0,0,0-.3,0,1,1,0,0,0-.37.08,1.29,1.29,0,0,0-.36.27,1.34,1.34,0,0,0-.29.37,1.06,1.06,0,0,0-.08.45v1.8a3.13,3.13,0,0,0,0,.51.9.9,0,0,0,.07.23.44.44,0,0,0,.14.13,1.25,1.25,0,0,0,.31.12v.24H96v-.24a1.8,1.8,0,0,0,.28-.11.53.53,0,0,0,.14-.12.74.74,0,0,0,.08-.24,2.85,2.85,0,0,0,0-.5v-1.29a7,7,0,0,0,0-.72,3.13,3.13,0,0,0-.07-.44.86.86,0,0,0-.14-.27.8.8,0,0,0-.16-.16.6.6,0,0,0-.2-.08,1,1,0,0,0-.25,0,.85.85,0,0,0-.38.09,1.57,1.57,0,0,0-.35.27,1,1,0,0,0-.28.36.9.9,0,0,0-.09.4v1.85c0,.18,0,.33,0,.43a1.14,1.14,0,0,0,0,.23.41.41,0,0,0,.08.13.39.39,0,0,0,.14.1l.27.1v.24H93.21v-.24a1.3,1.3,0,0,0,.27-.11.53.53,0,0,0,.14-.12.55.55,0,0,0,.09-.24,3.13,3.13,0,0,0,0-.51v-2.14c0-.21,0-.38,0-.51a.84.84,0,0,0-.07-.31.37.37,0,0,0-.18-.17,1.41,1.41,0,0,0-.34-.1v-.26l1.14,0h.3Z"/><path d="M101.53,205.87a1.3,1.3,0,0,0,.27-.11.53.53,0,0,0,.14-.12.71.71,0,0,0,.09-.24,3.13,3.13,0,0,0,0-.51v-2.14c0-.21,0-.38,0-.51a.84.84,0,0,0-.07-.31.37.37,0,0,0-.18-.17,1.41,1.41,0,0,0-.34-.1v-.26l1.14,0h.3v3.52a2.69,2.69,0,0,0,0,.59.38.38,0,0,0,.15.25,1.33,1.33,0,0,0,.35.15v.24h-1.91Zm1.4-6.4v1H102v-1Z"/><path d="M104,201.65a1,1,0,0,0,.39-.14.82.82,0,0,0,.24-.25,1.78,1.78,0,0,0,.13-.39c0-.16.07-.39.1-.69h.7v1.22h1.58v.5h-1.58v2.19a5.17,5.17,0,0,0,0,.76,1,1,0,0,0,.14.44.67.67,0,0,0,.25.23.73.73,0,0,0,.35.07,1,1,0,0,0,.37-.08,1.32,1.32,0,0,0,.33-.23l.22.26a2.57,2.57,0,0,1-.65.49,1.39,1.39,0,0,1-.65.16,1.12,1.12,0,0,1-.93-.38,1.81,1.81,0,0,1-.31-1.18V201.9H104Z"/><path d="M111.59,205.27a4.27,4.27,0,0,1-.57.52,2.35,2.35,0,0,1-.57.29,2.17,2.17,0,0,1-.69.11,1.89,1.89,0,0,1-1.52-.61,2.76,2.76,0,0,1-.51-1.8,2.92,2.92,0,0,1,.26-1.29,2,2,0,0,1,.74-.87,2.09,2.09,0,0,1,1.12-.3,2.17,2.17,0,0,1,.84.15,1.41,1.41,0,0,1,.55.44,1.87,1.87,0,0,1,.32.68,4.44,4.44,0,0,1,.13,1.09h-3.07v.09a3.45,3.45,0,0,0,.12,1,1.27,1.27,0,0,0,.43.62,1.23,1.23,0,0,0,.77.22,1.66,1.66,0,0,0,.72-.15,2.23,2.23,0,0,0,.64-.49Zm-.82-2a3.82,3.82,0,0,0-.13-.87,1.08,1.08,0,0,0-.31-.51.76.76,0,0,0-.53-.18,1,1,0,0,0-.81.4,2.24,2.24,0,0,0-.35,1.16Z"/><path d="M121.77,202.16l.07,0q.3-.3.48-.45a2.31,2.31,0,0,1,.37-.24,1.51,1.51,0,0,1,.33-.13,1.06,1.06,0,0,1,.31,0,1.33,1.33,0,0,1,.8.23,1.2,1.2,0,0,1,.42.69,7.88,7.88,0,0,1,.59-.55,1.89,1.89,0,0,1,.47-.27,1.25,1.25,0,0,1,.51-.1,1.37,1.37,0,0,1,.56.1,1,1,0,0,1,.4.29,1.29,1.29,0,0,1,.24.5,3.44,3.44,0,0,1,.08.81v1.86a5,5,0,0,0,0,.51.9.9,0,0,0,.07.23.44.44,0,0,0,.14.13,1.25,1.25,0,0,0,.31.12v.24H126v-.24l.27-.11a.53.53,0,0,0,.14-.12.55.55,0,0,0,.09-.24,3.07,3.07,0,0,0,0-.5v-1.29c0-.28,0-.51,0-.69a2.9,2.9,0,0,0-.07-.44,1.07,1.07,0,0,0-.11-.26l-.15-.16a.64.64,0,0,0-.2-.11,1.08,1.08,0,0,0-.3,0,.86.86,0,0,0-.36.08,1.48,1.48,0,0,0-.37.27,1.29,1.29,0,0,0-.28.37,1.06,1.06,0,0,0-.09.45v1.8a5,5,0,0,0,0,.51.9.9,0,0,0,.07.23.58.58,0,0,0,.14.13,1.35,1.35,0,0,0,.32.12v.24h-1.92v-.24l.27-.11a.41.41,0,0,0,.14-.12.55.55,0,0,0,.09-.24,3.07,3.07,0,0,0,0-.5v-1.29c0-.3,0-.53,0-.72a3,3,0,0,0-.08-.44.85.85,0,0,0-.13-.27.83.83,0,0,0-.17-.16.54.54,0,0,0-.19-.08,1,1,0,0,0-.25,0,.82.82,0,0,0-.38.09,1.41,1.41,0,0,0-.36.27,1.35,1.35,0,0,0-.28.36.9.9,0,0,0-.09.4v1.85c0,.18,0,.33,0,.43a1.2,1.2,0,0,0,0,.23.41.41,0,0,0,.08.13.5.5,0,0,0,.14.1l.27.1v.24h-1.91v-.24l.27-.11a.37.37,0,0,0,.13-.12.55.55,0,0,0,.09-.24,3.13,3.13,0,0,0,0-.51v-2.14c0-.21,0-.38,0-.51a.68.68,0,0,0-.07-.31.4.4,0,0,0-.17-.17,1.56,1.56,0,0,0-.34-.1v-.26l1.14,0h.3Z"/><path d="M130.9,206.19a1.93,1.93,0,0,1-1.55-.61,2.58,2.58,0,0,1-.54-1.78,3.12,3.12,0,0,1,.28-1.37,1.91,1.91,0,0,1,.77-.84,2.29,2.29,0,0,1,1.12-.27,2,2,0,0,1,1.58.61,2.59,2.59,0,0,1,.54,1.76,3.17,3.17,0,0,1-.27,1.38,2,2,0,0,1-.76.84A2.41,2.41,0,0,1,130.9,206.19Zm-1.16-2.49a3,3,0,0,0,.32,1.55,1,1,0,0,0,.91.55,1,1,0,0,0,.56-.16,1.19,1.19,0,0,0,.37-.43,2,2,0,0,0,.21-.63,4.56,4.56,0,0,0,.06-.75,3.75,3.75,0,0,0-.16-1.2,1.45,1.45,0,0,0-.43-.7.94.94,0,0,0-.62-.22,1,1,0,0,0-.91.51A2.89,2.89,0,0,0,129.74,203.7Z"/><path d="M133.79,201.65a1,1,0,0,0,.39-.14.71.71,0,0,0,.24-.25,1.77,1.77,0,0,0,.14-.39c0-.16.06-.39.1-.69h.69v1.22h1.58v.5h-1.58v2.19a7.09,7.09,0,0,0,0,.76,1.07,1.07,0,0,0,.15.44.58.58,0,0,0,.24.23.73.73,0,0,0,.35.07.91.91,0,0,0,.37-.08,1.36,1.36,0,0,0,.34-.23l.22.26a2.6,2.6,0,0,1-.66.49,1.35,1.35,0,0,1-.64.16,1.14,1.14,0,0,1-.94-.38,1.81,1.81,0,0,1-.31-1.18V201.9h-.72Z"/><path d="M137.47,205.87l.27-.11a.37.37,0,0,0,.13-.12.55.55,0,0,0,.09-.24,3.13,3.13,0,0,0,0-.51v-2.14c0-.21,0-.38,0-.51a.85.85,0,0,0-.06-.31.37.37,0,0,0-.18-.17,1.56,1.56,0,0,0-.34-.1v-.26l1.14,0h.29v3.52a3.54,3.54,0,0,0,0,.59.48.48,0,0,0,.15.25,1.28,1.28,0,0,0,.36.15v.24h-1.91Zm1.39-6.4v1H138v-1Z"/><path d="M142.56,203.9H140.3v-.77h2.26Z"/><path d="M13.49,213.5v.24a1.16,1.16,0,0,0-.31.11A.28.28,0,0,0,13,214a.48.48,0,0,0,0,.22,1.31,1.31,0,0,0,0,.27c0,.1.06.21.1.34l.85,2.49,1-2.39a2.45,2.45,0,0,0,.13-.38,1.06,1.06,0,0,0,0-.29.38.38,0,0,0-.11-.31.78.78,0,0,0-.4-.18v-.24h1.83v.24a.85.85,0,0,0-.3.12,1.24,1.24,0,0,0-.2.26,4.52,4.52,0,0,0-.24.49l-1.65,3.65h-.58l-1.32-3.68a2.93,2.93,0,0,0-.22-.52.74.74,0,0,0-.17-.21,1.09,1.09,0,0,0-.28-.11v-.24Z"/><path d="M19.74,217.5h-.07a3.15,3.15,0,0,1-.8.62,1.79,1.79,0,0,1-.79.18,1.4,1.4,0,0,1-.66-.15,1,1,0,0,1-.43-.41,1.16,1.16,0,0,1-.15-.6,1.23,1.23,0,0,1,.7-1.12,5,5,0,0,1,2.12-.45v-.32a2.54,2.54,0,0,0-.1-.81.77.77,0,0,0-.3-.43,1,1,0,0,0-.57-.14.93.93,0,0,0-.61.2,1.33,1.33,0,0,0-.35.61h-.64V214a5,5,0,0,1,.78-.36,5,5,0,0,1,.63-.19,3.36,3.36,0,0,1,.63-.06,1.72,1.72,0,0,1,.78.15,1,1,0,0,1,.44.48,2.34,2.34,0,0,1,.15,1v2.23a1.27,1.27,0,0,0,0,.28.66.66,0,0,0,.07.2.38.38,0,0,0,.15.13,1.1,1.1,0,0,0,.31.12v.24H19.72ZM19.66,216a3.42,3.42,0,0,0-1.48.27.83.83,0,0,0-.5.77.75.75,0,0,0,.12.45.56.56,0,0,0,.28.22,1.2,1.2,0,0,0,.4.06,1.16,1.16,0,0,0,.61-.16,1.27,1.27,0,0,0,.42-.41,1,1,0,0,0,.15-.5Z"/><path d="M23.12,214.32h.07a4.23,4.23,0,0,1,.5-.52,2,2,0,0,1,.49-.29,1.66,1.66,0,0,1,.61-.1,3.89,3.89,0,0,1,.51,0v1.13h-.55a1.14,1.14,0,0,0-.25-.39.52.52,0,0,0-.36-.12.66.66,0,0,0-.35.11,1.43,1.43,0,0,0-.56.67,1.2,1.2,0,0,0-.06.4V217a2.78,2.78,0,0,0,0,.62.45.45,0,0,0,.18.24,1,1,0,0,0,.38.13v.24h-2V218a1.43,1.43,0,0,0,.26-.11.33.33,0,0,0,.14-.12.55.55,0,0,0,.09-.24,3.13,3.13,0,0,0,0-.51v-2.14c0-.21,0-.38,0-.51a.68.68,0,0,0-.07-.31.37.37,0,0,0-.18-.17,1.31,1.31,0,0,0-.33-.1v-.25l1.14,0h.3Z"/><path d="M35.46,218.29a1.94,1.94,0,0,1-1.55-.61,2.58,2.58,0,0,1-.53-1.78,3,3,0,0,1,.28-1.37,1.81,1.81,0,0,1,.77-.84,2.23,2.23,0,0,1,1.11-.27,2,2,0,0,1,1.58.61,2.59,2.59,0,0,1,.54,1.76,3.14,3.14,0,0,1-.27,1.38,1.89,1.89,0,0,1-.76.84A2.3,2.3,0,0,1,35.46,218.29ZM34.3,215.8a3,3,0,0,0,.32,1.55,1,1,0,0,0,.91.55.93.93,0,0,0,.56-.16,1.19,1.19,0,0,0,.37-.43,2,2,0,0,0,.21-.63,4.56,4.56,0,0,0,.06-.75,4.08,4.08,0,0,0-.15-1.2,1.46,1.46,0,0,0-.44-.7.94.94,0,0,0-.62-.22,1,1,0,0,0-.91.51A2.89,2.89,0,0,0,34.3,215.8Z"/><path d="M44.58,212.86c0-.32,0-.54,0-.66a1.39,1.39,0,0,0,0-.32.51.51,0,0,0-.09-.21.37.37,0,0,0-.15-.11,1.4,1.4,0,0,0-.34-.09v-.26l1.18-.05h.29v5.7c0,.26,0,.44,0,.55a.67.67,0,0,0,.07.27.38.38,0,0,0,.15.16A1.17,1.17,0,0,0,46,218v.26l-1.15,0h-.3l.06-.81-.07,0a3.82,3.82,0,0,1-.54.5,2.23,2.23,0,0,1-.48.26,1.42,1.42,0,0,1-.55.1,1.44,1.44,0,0,1-1.23-.61,3.62,3.62,0,0,1-.15-3.15,2,2,0,0,1,.76-.84,2.16,2.16,0,0,1,1.08-.27,2.71,2.71,0,0,1,.59.05,2.57,2.57,0,0,1,.54.17Zm0,2.43a3.49,3.49,0,0,0,0-.62,1.38,1.38,0,0,0-.11-.39.78.78,0,0,0-.22-.26.87.87,0,0,0-.3-.16,1.48,1.48,0,0,0-.39-.05,1.06,1.06,0,0,0-1,.51,2.64,2.64,0,0,0-.33,1.45,3,3,0,0,0,.27,1.43.87.87,0,0,0,.81.5,1.63,1.63,0,0,0,.36,0,.85.85,0,0,0,.28-.12,1.67,1.67,0,0,0,.28-.22,1.3,1.3,0,0,0,.2-.26.79.79,0,0,0,.1-.27,1.54,1.54,0,0,0,0-.4Z"/><path d="M50.73,217.37a5,5,0,0,1-.57.52,2.42,2.42,0,0,1-.58.29,2.06,2.06,0,0,1-.68.11,1.88,1.88,0,0,1-1.52-.61,2.69,2.69,0,0,1-.52-1.8,3,3,0,0,1,.27-1.29A1.93,1.93,0,0,1,49,213.42a1.94,1.94,0,0,1,.84.16,1.34,1.34,0,0,1,.56.43,2,2,0,0,1,.32.69,4.36,4.36,0,0,1,.13,1.08H47.75v.09a3.42,3.42,0,0,0,.13,1,1.27,1.27,0,0,0,.43.62,1.21,1.21,0,0,0,.77.22,1.72,1.72,0,0,0,.72-.15,2.08,2.08,0,0,0,.63-.49Zm-.82-2a3.82,3.82,0,0,0-.13-.87,1.08,1.08,0,0,0-.31-.51.78.78,0,0,0-.54-.18,1,1,0,0,0-.8.4,2.16,2.16,0,0,0-.35,1.16Z"/><path d="M55,214.58h-.47a1.71,1.71,0,0,0-.25-.47.76.76,0,0,0-.34-.23,1.18,1.18,0,0,0-.45-.07,1,1,0,0,0-.62.18.59.59,0,0,0-.23.51.7.7,0,0,0,.09.37,1,1,0,0,0,.29.28,5.48,5.48,0,0,0,.69.34,4.73,4.73,0,0,1,.76.39,1.46,1.46,0,0,1,.43.43,1.05,1.05,0,0,1,.15.57,1.47,1.47,0,0,1-.13.66,1.11,1.11,0,0,1-.37.43,1.63,1.63,0,0,1-.57.24,3.24,3.24,0,0,1-.72.08,5.06,5.06,0,0,1-.79-.06c-.26,0-.51-.1-.76-.16v-1h.48a1.24,1.24,0,0,0,.39.65,1.1,1.1,0,0,0,.72.21,1.32,1.32,0,0,0,.34,0,.79.79,0,0,0,.3-.12.61.61,0,0,0,.21-.24.77.77,0,0,0,.08-.36.71.71,0,0,0-.1-.41.93.93,0,0,0-.3-.29,4.61,4.61,0,0,0-.73-.35,5.05,5.05,0,0,1-.71-.37,1.4,1.4,0,0,1-.42-.42,1.05,1.05,0,0,1-.15-.57A1.18,1.18,0,0,1,52,214a1.35,1.35,0,0,1,.63-.45,2.54,2.54,0,0,1,1-.16,6.13,6.13,0,0,1,.62,0,5.76,5.76,0,0,1,.76.13Z"/><path d="M58.83,217.5h-.08a3.31,3.31,0,0,1-.79.62,1.84,1.84,0,0,1-.8.18,1.36,1.36,0,0,1-.65-.15,1,1,0,0,1-.44-.41,1.16,1.16,0,0,1-.15-.6,1.24,1.24,0,0,1,.71-1.12,4.91,4.91,0,0,1,2.11-.45v-.32a2.92,2.92,0,0,0-.09-.81.83.83,0,0,0-.31-.43,1,1,0,0,0-.56-.14.94.94,0,0,0-.62.2,1.24,1.24,0,0,0-.34.61h-.64V214a5,5,0,0,1,.78-.36,4.89,4.89,0,0,1,.62-.19,3.39,3.39,0,0,1,.64-.06,1.67,1.67,0,0,1,.77.15,1,1,0,0,1,.44.48,2.34,2.34,0,0,1,.15,1v2.23l0,.28a.46.46,0,0,0,.08.2.35.35,0,0,0,.14.13,1.25,1.25,0,0,0,.31.12v.24H58.8ZM58.74,216a3.45,3.45,0,0,0-1.48.27.82.82,0,0,0-.49.77.75.75,0,0,0,.11.45.6.6,0,0,0,.28.22,1.27,1.27,0,0,0,.41.06,1.12,1.12,0,0,0,.6-.16,1.27,1.27,0,0,0,.42-.41,1,1,0,0,0,.15-.5Z"/><path d="M62.21,214.32h.06a4.23,4.23,0,0,1,.5-.52,2.1,2.1,0,0,1,.5-.29,1.64,1.64,0,0,1,.6-.1,3.89,3.89,0,0,1,.51,0v1.13h-.55a1.14,1.14,0,0,0-.25-.39.52.52,0,0,0-.36-.12.68.68,0,0,0-.35.11,1.49,1.49,0,0,0-.33.3,1.13,1.13,0,0,0-.22.37,1.19,1.19,0,0,0-.07.4V217a2.17,2.17,0,0,0,.06.62.37.37,0,0,0,.18.24.88.88,0,0,0,.37.13v.24h-2V218a1.6,1.6,0,0,0,.27-.11.53.53,0,0,0,.14-.12.55.55,0,0,0,.09-.24,3.41,3.41,0,0,0,0-.51v-2.65a.84.84,0,0,0-.07-.31.37.37,0,0,0-.18-.17,1.41,1.41,0,0,0-.34-.1v-.25l1.14,0h.3Z"/><path d="M66.34,214.32h.07a4.23,4.23,0,0,1,.5-.52,2,2,0,0,1,.49-.29,1.66,1.66,0,0,1,.61-.1,3.89,3.89,0,0,1,.51,0v1.13H68a1.14,1.14,0,0,0-.25-.39.52.52,0,0,0-.36-.12.66.66,0,0,0-.35.11,1.43,1.43,0,0,0-.56.67,1.2,1.2,0,0,0-.06.4V217a2.78,2.78,0,0,0,0,.62.45.45,0,0,0,.18.24A1,1,0,0,0,67,218v.24H65V218a1.43,1.43,0,0,0,.26-.11.41.41,0,0,0,.14-.12.55.55,0,0,0,.09-.24,3.13,3.13,0,0,0,0-.51v-2.14c0-.21,0-.38,0-.51a.84.84,0,0,0-.07-.31.37.37,0,0,0-.18-.17,1.41,1.41,0,0,0-.34-.1v-.25l1.15,0h.3Z"/><path d="M71.28,218.29a2,2,0,0,1-1.55-.61,2.63,2.63,0,0,1-.53-1.78,3,3,0,0,1,.28-1.37,1.86,1.86,0,0,1,.77-.84,2.23,2.23,0,0,1,1.11-.27,2,2,0,0,1,1.58.61,2.59,2.59,0,0,1,.54,1.76,3.14,3.14,0,0,1-.27,1.38,1.89,1.89,0,0,1-.76.84A2.3,2.3,0,0,1,71.28,218.29Zm-1.16-2.49a3.12,3.12,0,0,0,.32,1.55,1,1,0,0,0,.92.55.92.92,0,0,0,.55-.16,1.22,1.22,0,0,0,.38-.43,2.22,2.22,0,0,0,.2-.63,3.67,3.67,0,0,0,.07-.75,4.05,4.05,0,0,0-.16-1.2A1.53,1.53,0,0,0,72,214a1,1,0,0,0-.63-.22,1,1,0,0,0-.9.51A2.88,2.88,0,0,0,70.12,215.8Z"/><path d="M75.77,217a2.69,2.69,0,0,0,0,.59.48.48,0,0,0,.15.25.88.88,0,0,0,.36.15v.24H74.38V218a1,1,0,0,0,.34-.14.33.33,0,0,0,.13-.16.77.77,0,0,0,.06-.26c0-.11,0-.25,0-.43v-4.12c0-.32,0-.54,0-.66a1,1,0,0,0,0-.32.71.71,0,0,0-.08-.21.5.5,0,0,0-.16-.11,1.4,1.4,0,0,0-.34-.09v-.26l1.18-.05h.29Z"/><path d="M78.49,217a3.89,3.89,0,0,0,0,.59.48.48,0,0,0,.15.25A1,1,0,0,0,79,218v.24H77.09V218a.86.86,0,0,0,.34-.14.36.36,0,0,0,.14-.16.77.77,0,0,0,.06-.26c0-.11,0-.25,0-.43v-4.12c0-.32,0-.54,0-.66a2.31,2.31,0,0,0,0-.32.51.51,0,0,0-.09-.21.58.58,0,0,0-.15-.11,1.55,1.55,0,0,0-.34-.09v-.26l1.17-.05h.3Z"/><path d="M82.72,217.5h-.07a3.34,3.34,0,0,1-.8.62,1.84,1.84,0,0,1-.8.18,1.38,1.38,0,0,1-.65-.15,1,1,0,0,1-.44-.41,1.16,1.16,0,0,1-.15-.6,1.24,1.24,0,0,1,.71-1.12,4.93,4.93,0,0,1,2.12-.45v-.32a2.87,2.87,0,0,0-.1-.81.83.83,0,0,0-.31-.43,1,1,0,0,0-.56-.14.9.9,0,0,0-.61.2,1.18,1.18,0,0,0-.35.61h-.64V214a5,5,0,0,1,.78-.36,4.89,4.89,0,0,1,.62-.19,3.39,3.39,0,0,1,.64-.06,1.67,1.67,0,0,1,.77.15.94.94,0,0,1,.44.48,2.34,2.34,0,0,1,.15,1v1.72c0,.24,0,.41,0,.51a2.46,2.46,0,0,0,0,.28.64.64,0,0,0,.08.2.35.35,0,0,0,.14.13A1.43,1.43,0,0,0,84,218v.24H82.69ZM82.64,216a3.47,3.47,0,0,0-1.49.27.82.82,0,0,0-.49.77.83.83,0,0,0,.11.45.6.6,0,0,0,.28.22,1.27,1.27,0,0,0,.41.06,1.12,1.12,0,0,0,.6-.16,1.27,1.27,0,0,0,.42-.41.92.92,0,0,0,.16-.5Z"/><path d="M86.1,214.32h.07a3.59,3.59,0,0,1,.49-.52,2.1,2.1,0,0,1,.5-.29,1.64,1.64,0,0,1,.6-.1,4.17,4.17,0,0,1,.52,0v1.13h-.56a1,1,0,0,0-.25-.39.49.49,0,0,0-.36-.12.71.71,0,0,0-.35.11,1.49,1.49,0,0,0-.33.3,1.13,1.13,0,0,0-.22.37,1.2,1.2,0,0,0-.06.4V217a2.28,2.28,0,0,0,0,.62.45.45,0,0,0,.18.24.93.93,0,0,0,.37.13v.24h-2V218a1.3,1.3,0,0,0,.27-.11.53.53,0,0,0,.14-.12.55.55,0,0,0,.09-.24,3.13,3.13,0,0,0,0-.51v-2.14c0-.21,0-.38,0-.51a.84.84,0,0,0-.07-.31.37.37,0,0,0-.18-.17,1.41,1.41,0,0,0-.34-.1v-.25l1.14,0h.3Z"/><path d="M98.16,217.37a4.27,4.27,0,0,1-.57.52,2.35,2.35,0,0,1-.57.29,2.17,2.17,0,0,1-.69.11,1.89,1.89,0,0,1-1.52-.61,2.74,2.74,0,0,1-.51-1.8,2.94,2.94,0,0,1,.26-1.29,2,2,0,0,1,.74-.87,2.09,2.09,0,0,1,1.12-.3,2,2,0,0,1,.84.16,1.31,1.31,0,0,1,.55.43,1.84,1.84,0,0,1,.32.69,4.36,4.36,0,0,1,.13,1.08H95.19v.09a3.45,3.45,0,0,0,.12,1,1.27,1.27,0,0,0,.43.62,1.23,1.23,0,0,0,.77.22,1.66,1.66,0,0,0,.72-.15,2.23,2.23,0,0,0,.64-.49Zm-.82-2a3.82,3.82,0,0,0-.13-.87,1.08,1.08,0,0,0-.31-.51.76.76,0,0,0-.53-.18,1,1,0,0,0-.81.4,2.24,2.24,0,0,0-.35,1.16Z"/><path d="M100.44,217a3.54,3.54,0,0,0,0,.59.48.48,0,0,0,.15.25,1,1,0,0,0,.36.15v.24H99.05V218a.86.86,0,0,0,.34-.14.36.36,0,0,0,.14-.16.77.77,0,0,0,.06-.26c0-.11,0-.25,0-.43V212.2a2.31,2.31,0,0,0,0-.32.51.51,0,0,0-.09-.21.58.58,0,0,0-.15-.11,1.52,1.52,0,0,0-.35-.09v-.26l1.18-.05h.29Z"/><path d="M110.84,213.61v1h-.62a1.56,1.56,0,0,0-.21-.5.69.69,0,0,0-.28-.26,1,1,0,0,0-.4-.07.87.87,0,0,0-.6.22,1.43,1.43,0,0,0-.42.67,3.57,3.57,0,0,0-.16,1.11,4.54,4.54,0,0,0,.06.77,1.86,1.86,0,0,0,.2.59,1,1,0,0,0,1,.52,1.51,1.51,0,0,0,.63-.13,2.15,2.15,0,0,0,.6-.47l.28.33a4,4,0,0,1-.44.42,1.73,1.73,0,0,1-.41.25,1.84,1.84,0,0,1-.43.15,2.16,2.16,0,0,1-.46,0,1.71,1.71,0,0,1-1.41-.62,2.81,2.81,0,0,1-.49-1.79,3,3,0,0,1,.27-1.29,2,2,0,0,1,1.91-1.17,5.7,5.7,0,0,1,.74,0C110.39,213.5,110.61,213.55,110.84,213.61Z"/><path d="M113.74,218.29a1.93,1.93,0,0,1-1.55-.61,2.58,2.58,0,0,1-.54-1.78,3,3,0,0,1,.28-1.37,1.86,1.86,0,0,1,.77-.84,2.28,2.28,0,0,1,1.11-.27,2,2,0,0,1,1.59.61,2.64,2.64,0,0,1,.53,1.76,3.14,3.14,0,0,1-.27,1.38,1.83,1.83,0,0,1-.76.84A2.29,2.29,0,0,1,113.74,218.29Zm-1.17-2.49a3.12,3.12,0,0,0,.32,1.55,1,1,0,0,0,.92.55,1,1,0,0,0,.56-.16,1.3,1.3,0,0,0,.37-.43,2.22,2.22,0,0,0,.21-.63,4.56,4.56,0,0,0,.06-.75,3.75,3.75,0,0,0-.16-1.2,1.45,1.45,0,0,0-.43-.7,1,1,0,0,0-.63-.22,1,1,0,0,0-.9.51A2.88,2.88,0,0,0,112.57,215.8Z"/><path d="M118.24,214.26l.07,0a4.45,4.45,0,0,1,.48-.45,1.88,1.88,0,0,1,.36-.24,2,2,0,0,1,.33-.13,1.65,1.65,0,0,1,.32,0,1.3,1.3,0,0,1,.79.23,1.16,1.16,0,0,1,.43.69,6.3,6.3,0,0,1,.59-.55,1.84,1.84,0,0,1,.46-.27,1.25,1.25,0,0,1,.51-.1,1.42,1.42,0,0,1,.57.1,1,1,0,0,1,.4.29,1.29,1.29,0,0,1,.24.5,3.52,3.52,0,0,1,.07.81V217a2.81,2.81,0,0,0,0,.51.63.63,0,0,0,.07.23.36.36,0,0,0,.14.13,1.1,1.1,0,0,0,.31.12v.24h-1.92V218a1.3,1.3,0,0,0,.27-.11.33.33,0,0,0,.14-.12.55.55,0,0,0,.09-.24,3.07,3.07,0,0,0,0-.5v-1.29a6.86,6.86,0,0,0,0-.69,2,2,0,0,0-.07-.44,1.07,1.07,0,0,0-.11-.26.75.75,0,0,0-.15-.16.86.86,0,0,0-.19-.11,1.21,1.21,0,0,0-.3,0,1,1,0,0,0-.37.08,1.29,1.29,0,0,0-.36.27,1.34,1.34,0,0,0-.29.37,1.06,1.06,0,0,0-.09.45V217a2.81,2.81,0,0,0,0,.51.9.9,0,0,0,.07.23.44.44,0,0,0,.14.13,1.1,1.1,0,0,0,.31.12v.24H119.7V218a1.8,1.8,0,0,0,.28-.11.53.53,0,0,0,.14-.12.74.74,0,0,0,.08-.24,3.07,3.07,0,0,0,0-.5v-1.29c0-.29,0-.53,0-.72a2.05,2.05,0,0,0-.08-.44.68.68,0,0,0-.13-.27.8.8,0,0,0-.16-.16.93.93,0,0,0-.2-.08,1,1,0,0,0-.25,0,.85.85,0,0,0-.38.09,1.94,1.94,0,0,0-.35.27,1,1,0,0,0-.28.36.9.9,0,0,0-.09.4V217c0,.19,0,.33,0,.43a1.14,1.14,0,0,0,0,.23.41.41,0,0,0,.08.13.39.39,0,0,0,.14.1,1.3,1.3,0,0,0,.27.1v.24h-1.92V218a1.3,1.3,0,0,0,.27-.11.53.53,0,0,0,.14-.12.55.55,0,0,0,.09-.24,3.13,3.13,0,0,0,0-.51v-2.14c0-.21,0-.38,0-.51a.84.84,0,0,0-.07-.31.37.37,0,0,0-.18-.17,1.41,1.41,0,0,0-.34-.1v-.26l1.14,0h.3Z"/><path d="M126.56,218.06v1c0,.21,0,.37,0,.48a1.05,1.05,0,0,0,.08.25.46.46,0,0,0,.16.15,1.28,1.28,0,0,0,.34.1v.25h-2v-.25a1.39,1.39,0,0,0,.29-.1.35.35,0,0,0,.17-.15.88.88,0,0,0,.07-.27,3,3,0,0,0,0-.46v-4.22c0-.24,0-.41,0-.51a.87.87,0,0,0,0-.25.4.4,0,0,0-.08-.16.58.58,0,0,0-.15-.11,1.65,1.65,0,0,0-.32-.09v-.26l1.15,0h.3l-.07.8.08,0a4.29,4.29,0,0,1,.48-.45,1.69,1.69,0,0,1,.36-.23,1.65,1.65,0,0,1,.36-.14,2.21,2.21,0,0,1,.37,0,1.44,1.44,0,0,1,1.24.61,3.06,3.06,0,0,1,.43,1.78,3.47,3.47,0,0,1-.24,1.37,1.82,1.82,0,0,1-.71.83,2.14,2.14,0,0,1-1.12.28,3.27,3.27,0,0,1-.65-.06A2.84,2.84,0,0,1,126.56,218.06Zm0-1.62a3.49,3.49,0,0,0,.06.73.89.89,0,0,0,.21.41.92.92,0,0,0,.35.24,1.58,1.58,0,0,0,.54.08,1,1,0,0,0,.88-.5,2.84,2.84,0,0,0,.3-1.46c0-1.28-.37-1.93-1.12-1.93a1.13,1.13,0,0,0-.47.09,1.36,1.36,0,0,0-.39.28,1.44,1.44,0,0,0-.28.37,1,1,0,0,0-.08.39Z"/><path d="M132.12,214.32h.07a3.6,3.6,0,0,1,.5-.52,1.86,1.86,0,0,1,.49-.29,1.64,1.64,0,0,1,.6-.1,4.17,4.17,0,0,1,.52,0v1.13h-.55a1.31,1.31,0,0,0-.25-.39.52.52,0,0,0-.36-.12.66.66,0,0,0-.35.11,1.33,1.33,0,0,0-.34.3,1.13,1.13,0,0,0-.22.37,1.2,1.2,0,0,0-.06.4V217a2.78,2.78,0,0,0,.05.62.45.45,0,0,0,.18.24.93.93,0,0,0,.37.13v.24h-2V218a1.43,1.43,0,0,0,.26-.11.41.41,0,0,0,.14-.12.55.55,0,0,0,.09-.24,3.13,3.13,0,0,0,0-.51v-2.14c0-.21,0-.38,0-.51a.84.84,0,0,0-.07-.31.37.37,0,0,0-.18-.17,1.41,1.41,0,0,0-.34-.1v-.25l1.15,0h.29Z"/><path d="M137.06,218.29a1.94,1.94,0,0,1-1.55-.61,2.58,2.58,0,0,1-.53-1.78,3,3,0,0,1,.28-1.37,1.81,1.81,0,0,1,.77-.84,2.23,2.23,0,0,1,1.11-.27,2,2,0,0,1,1.58.61,2.59,2.59,0,0,1,.54,1.76,3.14,3.14,0,0,1-.27,1.38,1.89,1.89,0,0,1-.76.84A2.3,2.3,0,0,1,137.06,218.29Zm-1.16-2.49a3.12,3.12,0,0,0,.32,1.55,1,1,0,0,0,.91.55.93.93,0,0,0,.56-.16,1.19,1.19,0,0,0,.37-.43,2,2,0,0,0,.21-.63,4.54,4.54,0,0,0,.07-.75,4.05,4.05,0,0,0-.16-1.2,1.46,1.46,0,0,0-.44-.7.94.94,0,0,0-.62-.22,1,1,0,0,0-.91.51A2.89,2.89,0,0,0,135.9,215.8Z"/><path d="M142.56,216H140.3v-.77h2.26Z"/><path d="M13.2,226.36l.07,0a3.43,3.43,0,0,1,.48-.44,2.15,2.15,0,0,1,.36-.25,2,2,0,0,1,.33-.13,1.75,1.75,0,0,1,.32,0,1.3,1.3,0,0,1,.79.23,1.16,1.16,0,0,1,.43.69,8.06,8.06,0,0,1,.59-.55,1.73,1.73,0,0,1,.47-.27,1.36,1.36,0,0,1,.51-.1,1.6,1.6,0,0,1,.56.1.9.9,0,0,1,.4.3,1.25,1.25,0,0,1,.24.49,3.44,3.44,0,0,1,.08.81v1.86a3.35,3.35,0,0,0,0,.52.81.81,0,0,0,.07.22.44.44,0,0,0,.14.13,1.25,1.25,0,0,0,.31.12v.24H17.45v-.24l.28-.1a.57.57,0,0,0,.14-.13.74.74,0,0,0,.08-.24,2.85,2.85,0,0,0,0-.5v-1.29a6.47,6.47,0,0,0,0-.69,2.12,2.12,0,0,0-.06-.44,1.06,1.06,0,0,0-.12-.26.75.75,0,0,0-.15-.16.86.86,0,0,0-.19-.11,1.21,1.21,0,0,0-.3,0,.86.86,0,0,0-.36.08,1.38,1.38,0,0,0-.37.27,1.07,1.07,0,0,0-.28.38,1,1,0,0,0-.09.44v1.8c0,.25,0,.42,0,.52a.81.81,0,0,0,.07.22.44.44,0,0,0,.14.13,1.25,1.25,0,0,0,.31.12v.24H14.67v-.24l.27-.1a.57.57,0,0,0,.14-.13.71.71,0,0,0,.09-.24,3.07,3.07,0,0,0,0-.5v-1.29a7.1,7.1,0,0,0,0-.72,2.13,2.13,0,0,0-.07-.44,1.13,1.13,0,0,0-.13-.27.83.83,0,0,0-.17-.16l-.19-.08a1,1,0,0,0-.26,0,.79.79,0,0,0-.37.1,1.36,1.36,0,0,0-.36.26,1.17,1.17,0,0,0-.28.36.9.9,0,0,0-.09.4v1.85c0,.19,0,.33,0,.43a1,1,0,0,0,.05.23.41.41,0,0,0,.08.13.39.39,0,0,0,.14.1,1.3,1.3,0,0,0,.27.1v.24H11.89v-.24l.26-.1a.44.44,0,0,0,.14-.13.55.55,0,0,0,.09-.24,3.13,3.13,0,0,0,0-.51V227c0-.21,0-.38,0-.51a.84.84,0,0,0-.07-.31.37.37,0,0,0-.18-.17,1.41,1.41,0,0,0-.34-.1v-.26l1.15,0h.29Z"/><path d="M20.2,230.07l.27-.1a.44.44,0,0,0,.14-.13.55.55,0,0,0,.09-.24,3.13,3.13,0,0,0,0-.51V227c0-.21,0-.38,0-.51a.84.84,0,0,0-.07-.31.37.37,0,0,0-.18-.17,1.41,1.41,0,0,0-.34-.1v-.26l1.14,0h.3v3.52a2.69,2.69,0,0,0,0,.59.38.38,0,0,0,.15.25.88.88,0,0,0,.36.15v.24H20.2Zm1.4-6.4v1h-.9v-1Z"/><path d="M26.25,226.68h-.47a1.32,1.32,0,0,0-.25-.46.74.74,0,0,0-.33-.24,1.27,1.27,0,0,0-.46-.07,1,1,0,0,0-.62.18.63.63,0,0,0-.23.51A.7.7,0,0,0,24,227a1,1,0,0,0,.29.28,5.48,5.48,0,0,0,.69.34,4.12,4.12,0,0,1,.77.4,1.4,1.4,0,0,1,.42.42,1.07,1.07,0,0,1,.16.58,1.45,1.45,0,0,1-.14.65,1,1,0,0,1-.37.43,1.47,1.47,0,0,1-.57.24,3.24,3.24,0,0,1-.72.08,5.16,5.16,0,0,1-.79-.06c-.26,0-.51-.1-.75-.16v-1h.47a1.26,1.26,0,0,0,.4.66,1.15,1.15,0,0,0,.71.2,1.27,1.27,0,0,0,.34,0,.79.79,0,0,0,.3-.12.66.66,0,0,0,.21-.23.84.84,0,0,0,.08-.37.71.71,0,0,0-.1-.41.84.84,0,0,0-.3-.29,6.15,6.15,0,0,0-.72-.35,4.71,4.71,0,0,1-.72-.37,1.4,1.4,0,0,1-.42-.42,1.05,1.05,0,0,1-.15-.57,1.12,1.12,0,0,1,.22-.7,1.27,1.27,0,0,1,.62-.45,2.63,2.63,0,0,1,1-.16c.21,0,.42,0,.62,0a5.94,5.94,0,0,1,.75.13Z"/><path d="M29.4,230.39a2,2,0,0,1-1.55-.6,2.62,2.62,0,0,1-.53-1.79,3,3,0,0,1,.28-1.37,1.81,1.81,0,0,1,.77-.84,2.23,2.23,0,0,1,1.11-.27,2,2,0,0,1,1.58.61,2.59,2.59,0,0,1,.54,1.76,3.14,3.14,0,0,1-.27,1.38,1.89,1.89,0,0,1-.76.84A2.3,2.3,0,0,1,29.4,230.39Zm-1.16-2.49a3.12,3.12,0,0,0,.32,1.55,1,1,0,0,0,.91.55.93.93,0,0,0,.56-.16,1.32,1.32,0,0,0,.38-.43,2.22,2.22,0,0,0,.2-.63,3.67,3.67,0,0,0,.07-.75,4.05,4.05,0,0,0-.16-1.2,1.58,1.58,0,0,0-.43-.7,1,1,0,0,0-.63-.22,1,1,0,0,0-.91.51A2.89,2.89,0,0,0,28.24,227.9Z"/><path d="M41,229.47a4.29,4.29,0,0,1-.58.52,2.15,2.15,0,0,1-1.26.4,1.88,1.88,0,0,1-1.52-.61,2.71,2.71,0,0,1-.51-1.79,3.11,3.11,0,0,1,.26-1.3,2,2,0,0,1,1.86-1.17,1.94,1.94,0,0,1,.84.16,1.33,1.33,0,0,1,.55.43,2,2,0,0,1,.33.69,4.89,4.89,0,0,1,.13,1.08H38V228a3.1,3.1,0,0,0,.13,1,1.32,1.32,0,0,0,.42.62,1.25,1.25,0,0,0,.77.22,1.66,1.66,0,0,0,.72-.15,2,2,0,0,0,.64-.49Zm-.82-2a4.47,4.47,0,0,0-.13-.87,1.08,1.08,0,0,0-.31-.51.8.8,0,0,0-.54-.18,1,1,0,0,0-.8.4,2.27,2.27,0,0,0-.36,1.16Z"/><path d="M46.68,230.31H44.76v-.24L45,230a.44.44,0,0,0,.14-.13.55.55,0,0,0,.09-.24,3.07,3.07,0,0,0,0-.5v-1.29c0-.23,0-.44,0-.63a2.49,2.49,0,0,0-.07-.46.82.82,0,0,0-.11-.28.61.61,0,0,0-.15-.17.53.53,0,0,0-.21-.11.87.87,0,0,0-.31,0,.86.86,0,0,0-.36.08,1.72,1.72,0,0,0-.38.26,1.51,1.51,0,0,0-.29.37.82.82,0,0,0-.1.42v1.84a3.54,3.54,0,0,0,0,.59.48.48,0,0,0,.15.25.88.88,0,0,0,.36.15v.24H41.93v-.24l.27-.1a.4.4,0,0,0,.13-.13.55.55,0,0,0,.09-.24,3.13,3.13,0,0,0,0-.51V227c0-.21,0-.38,0-.51a.68.68,0,0,0-.07-.31.31.31,0,0,0-.17-.17,1.56,1.56,0,0,0-.34-.1v-.26l1.14,0h.3l-.06.8.07,0a4.66,4.66,0,0,1,.59-.53,2.11,2.11,0,0,1,.44-.24,1.37,1.37,0,0,1,.49-.09,1.73,1.73,0,0,1,.47.06,1.37,1.37,0,0,1,.36.19,1,1,0,0,1,.26.32,1.77,1.77,0,0,1,.16.46,4.08,4.08,0,0,1,.05.67v1.86c0,.23,0,.39,0,.49a.52.52,0,0,0,.07.24.47.47,0,0,0,.14.14,1.2,1.2,0,0,0,.32.12Z"/><path d="M53.27,229.08a3.54,3.54,0,0,0,0,.59.48.48,0,0,0,.15.25.88.88,0,0,0,.36.15v.24H51.88v-.24a1.2,1.2,0,0,0,.34-.13.46.46,0,0,0,.14-.17,2.07,2.07,0,0,0,.06-.26c0-.11,0-.25,0-.43V224.3a2.31,2.31,0,0,0,0-.32.41.41,0,0,0-.09-.2.44.44,0,0,0-.15-.12,1.68,1.68,0,0,0-.35-.09v-.26l1.18-.05h.29Z"/><path d="M56.81,230.39a2,2,0,0,1-1.55-.6,2.62,2.62,0,0,1-.54-1.79,3.12,3.12,0,0,1,.28-1.37,1.91,1.91,0,0,1,.77-.84,2.29,2.29,0,0,1,1.12-.27,2,2,0,0,1,1.58.61,2.59,2.59,0,0,1,.53,1.76,3.15,3.15,0,0,1-.26,1.38,1.91,1.91,0,0,1-.77.84A2.24,2.24,0,0,1,56.81,230.39Zm-1.16-2.49a3,3,0,0,0,.32,1.55,1,1,0,0,0,.91.55,1,1,0,0,0,.56-.16,1.3,1.3,0,0,0,.37-.43,2,2,0,0,0,.21-.63,4.56,4.56,0,0,0,.06-.75,3.75,3.75,0,0,0-.16-1.2,1.5,1.5,0,0,0-.43-.7.94.94,0,0,0-.62-.22,1,1,0,0,0-.91.51A2.89,2.89,0,0,0,55.65,227.9Z"/><path d="M63.26,226.68h-.47a1.32,1.32,0,0,0-.25-.46.74.74,0,0,0-.33-.24,1.27,1.27,0,0,0-.46-.07,1,1,0,0,0-.62.18.63.63,0,0,0-.23.51A.7.7,0,0,0,61,227a1,1,0,0,0,.29.28,5.48,5.48,0,0,0,.69.34,4.12,4.12,0,0,1,.77.4,1.4,1.4,0,0,1,.42.42,1.07,1.07,0,0,1,.16.58,1.45,1.45,0,0,1-.14.65,1,1,0,0,1-.37.43,1.47,1.47,0,0,1-.57.24,3.24,3.24,0,0,1-.72.08,5.16,5.16,0,0,1-.79-.06c-.26,0-.51-.1-.75-.16v-1h.47a1.26,1.26,0,0,0,.4.66,1.15,1.15,0,0,0,.71.2,1.27,1.27,0,0,0,.34,0,.73.73,0,0,0,.3-.12.66.66,0,0,0,.21-.23.72.72,0,0,0,.08-.37.71.71,0,0,0-.1-.41.84.84,0,0,0-.3-.29,6.15,6.15,0,0,0-.72-.35,4.13,4.13,0,0,1-.71-.37,1.44,1.44,0,0,1-.43-.42,1.05,1.05,0,0,1-.15-.57,1.12,1.12,0,0,1,.22-.7,1.27,1.27,0,0,1,.62-.45,2.63,2.63,0,0,1,1-.16c.21,0,.42,0,.62,0a5.94,5.94,0,0,1,.75.13Z"/><path d="M66.2,225.85a1,1,0,0,0,.39-.14.82.82,0,0,0,.24-.25,1.37,1.37,0,0,0,.13-.39c0-.16.07-.39.11-.68h.69v1.21h1.58v.5H67.76v2.19a5.17,5.17,0,0,0,0,.76.85.85,0,0,0,.15.44.58.58,0,0,0,.24.23.73.73,0,0,0,.35.07.8.8,0,0,0,.37-.08,1.32,1.32,0,0,0,.33-.23l.22.26a2.91,2.91,0,0,1-.65.5,1.47,1.47,0,0,1-.65.15,1.12,1.12,0,0,1-.93-.38,1.81,1.81,0,0,1-.31-1.18V226.1H66.2Z"/><path d="M71.19,226.42h.07a4.06,4.06,0,0,1,.5-.51,1.8,1.8,0,0,1,.49-.3,1.66,1.66,0,0,1,.61-.1,3.89,3.89,0,0,1,.51,0v1.13h-.55a1.14,1.14,0,0,0-.25-.39.52.52,0,0,0-.36-.12.66.66,0,0,0-.35.11,1.43,1.43,0,0,0-.56.67,1.22,1.22,0,0,0-.06.41v1.72a2.78,2.78,0,0,0,.05.62.52.52,0,0,0,.18.25,1.21,1.21,0,0,0,.38.12v.24h-2v-.24l.26-.1a.44.44,0,0,0,.14-.13.55.55,0,0,0,.09-.24,3.13,3.13,0,0,0,0-.51V227c0-.21,0-.38,0-.51a.68.68,0,0,0-.07-.31.37.37,0,0,0-.18-.17,1.31,1.31,0,0,0-.33-.1v-.25l1.14-.05h.3Z"/><path d="M76.83,229.61l-.07,0a2.94,2.94,0,0,1-.8.62,1.79,1.79,0,0,1-.79.18,1.4,1.4,0,0,1-.66-.15,1,1,0,0,1-.43-.4,1.23,1.23,0,0,1-.15-.61,1.21,1.21,0,0,1,.7-1.11,5,5,0,0,1,2.12-.46v-.32a2.54,2.54,0,0,0-.1-.81.78.78,0,0,0-.31-.43,1,1,0,0,0-.56-.14.91.91,0,0,0-.61.2,1.25,1.25,0,0,0-.35.61h-.64v-.64a5,5,0,0,1,.78-.36,5,5,0,0,1,.63-.19,3.36,3.36,0,0,1,.63-.06,1.75,1.75,0,0,1,.78.15,1.08,1.08,0,0,1,.44.48,2.56,2.56,0,0,1,.14,1v1.72c0,.24,0,.41,0,.51a1.27,1.27,0,0,0,0,.28.58.58,0,0,0,.07.21.39.39,0,0,0,.15.13,1.68,1.68,0,0,0,.31.11v.24H76.81Zm-.08-1.55a3.5,3.5,0,0,0-1.49.27.89.89,0,0,0-.38,1.22.63.63,0,0,0,.29.22,1.2,1.2,0,0,0,.4.06,1.18,1.18,0,0,0,.61-.16,1.27,1.27,0,0,0,.42-.41,1,1,0,0,0,.15-.5Z"/><path d="M80.12,226.38h0a4.62,4.62,0,0,1,.57-.52,1.94,1.94,0,0,1,.47-.25,1.62,1.62,0,0,1,1.43.18,1.72,1.72,0,0,1,.57.81,3.57,3.57,0,0,1,.2,1.31,3.41,3.41,0,0,1-.24,1.36,1.72,1.72,0,0,1-.71.83,2.12,2.12,0,0,1-1.12.29,3,3,0,0,1-.68-.07,3,3,0,0,1-.67-.23l-.34.3-.34-.08v-6a2.31,2.31,0,0,0,0-.32.41.41,0,0,0-.09-.2.44.44,0,0,0-.15-.12,1.68,1.68,0,0,0-.35-.09v-.26l1.18-.05h.29Zm0,2.16a3.25,3.25,0,0,0,0,.6,1.16,1.16,0,0,0,.11.37.87.87,0,0,0,.24.27.84.84,0,0,0,.34.17,1.88,1.88,0,0,0,.43.05,1,1,0,0,0,.88-.48,2.72,2.72,0,0,0,.31-1.45,3.14,3.14,0,0,0-.28-1.47.9.9,0,0,0-.83-.49,1.14,1.14,0,0,0-.48.09,1.33,1.33,0,0,0-.38.27,1.31,1.31,0,0,0-.29.36.87.87,0,0,0-.09.4Z"/><path d="M87.19,229.61l-.07,0a3.1,3.1,0,0,1-.8.62,1.84,1.84,0,0,1-.8.18,1.38,1.38,0,0,1-.65-.15,1.06,1.06,0,0,1-.44-.4,1.25,1.25,0,0,1,.56-1.72,4.91,4.91,0,0,1,2.12-.46v-.32a2.87,2.87,0,0,0-.1-.81.83.83,0,0,0-.31-.43,1,1,0,0,0-.56-.14.9.9,0,0,0-.61.2,1.18,1.18,0,0,0-.35.61h-.64v-.64a5,5,0,0,1,.78-.36,4.89,4.89,0,0,1,.62-.19,3.39,3.39,0,0,1,.64-.06,1.67,1.67,0,0,1,.77.15,1,1,0,0,1,.44.48,2.34,2.34,0,0,1,.15,1v1.72c0,.24,0,.41,0,.51a2.46,2.46,0,0,0,0,.28.58.58,0,0,0,.08.21.44.44,0,0,0,.14.13l.31.11v.24H87.16Zm-.08-1.55a3.47,3.47,0,0,0-1.49.27.82.82,0,0,0-.49.77.83.83,0,0,0,.11.45.6.6,0,0,0,.28.22,1.27,1.27,0,0,0,.41.06,1.12,1.12,0,0,0,.6-.16,1.27,1.27,0,0,0,.42-.41,1,1,0,0,0,.16-.5Z"/><path d="M90.57,230.22a3.63,3.63,0,0,1-.14,1.1,1.55,1.55,0,0,1-.49.7,2.74,2.74,0,0,1-1,.47l-.17-.43a2.43,2.43,0,0,0,.46-.23,1,1,0,0,0,.26-.24,1.12,1.12,0,0,0,.16-.38,3.28,3.28,0,0,0,0-.6V227c0-.26,0-.44,0-.55a.62.62,0,0,0-.07-.27.36.36,0,0,0-.15-.15,1.43,1.43,0,0,0-.37-.12v-.26l1.14,0h.3Zm0-6.55v1h-.9v-1Z"/><path d="M94.73,229.61l-.07,0a2.94,2.94,0,0,1-.8.62,1.79,1.79,0,0,1-.79.18,1.4,1.4,0,0,1-.66-.15,1,1,0,0,1-.43-.4,1.23,1.23,0,0,1-.15-.61,1.21,1.21,0,0,1,.7-1.11,5,5,0,0,1,2.12-.46v-.32a2.54,2.54,0,0,0-.1-.81.78.78,0,0,0-.31-.43,1,1,0,0,0-.56-.14.91.91,0,0,0-.61.2,1.25,1.25,0,0,0-.35.61h-.64v-.64a5,5,0,0,1,.78-.36,5,5,0,0,1,.63-.19,3.36,3.36,0,0,1,.63-.06,1.75,1.75,0,0,1,.78.15,1.08,1.08,0,0,1,.44.48,2.37,2.37,0,0,1,.14,1v1.72c0,.24,0,.41,0,.51a1.27,1.27,0,0,0,0,.28.58.58,0,0,0,.07.21.39.39,0,0,0,.15.13,1.68,1.68,0,0,0,.31.11v.24H94.71Zm-.08-1.55a3.5,3.5,0,0,0-1.49.27.89.89,0,0,0-.38,1.22.63.63,0,0,0,.29.22,1.2,1.2,0,0,0,.4.06,1.18,1.18,0,0,0,.61-.16,1.27,1.27,0,0,0,.42-.41,1,1,0,0,0,.15-.5Z"/><path d="M100.09,225c0-.32,0-.54,0-.66a1.39,1.39,0,0,0,0-.32.41.41,0,0,0-.09-.2.31.31,0,0,0-.15-.12,1.55,1.55,0,0,0-.34-.09v-.26l1.18-.05h.29V229c0,.25,0,.43,0,.54a.67.67,0,0,0,.07.27.38.38,0,0,0,.15.16,1.17,1.17,0,0,0,.37.11v.26l-1.15.05h-.3l.06-.81-.07,0a3.82,3.82,0,0,1-.54.5,2.23,2.23,0,0,1-.48.26,1.42,1.42,0,0,1-.55.1,1.44,1.44,0,0,1-1.23-.61,3.62,3.62,0,0,1-.15-3.15,2,2,0,0,1,.76-.84,2.16,2.16,0,0,1,1.08-.27,3.51,3.51,0,0,1,.59,0,2.57,2.57,0,0,1,.54.17Zm0,2.43a3.49,3.49,0,0,0,0-.62,1.22,1.22,0,0,0-.11-.38.73.73,0,0,0-.22-.27.87.87,0,0,0-.3-.16,1.48,1.48,0,0,0-.39-.05,1.06,1.06,0,0,0-1,.51,2.64,2.64,0,0,0-.33,1.45,3.07,3.07,0,0,0,.27,1.44.88.88,0,0,0,.81.49,1.19,1.19,0,0,0,.36,0,.85.85,0,0,0,.28-.12,1.67,1.67,0,0,0,.28-.22,1.3,1.3,0,0,0,.2-.26.79.79,0,0,0,.1-.27,1.49,1.49,0,0,0,0-.4Z"/><path d="M104.46,230.39a2,2,0,0,1-1.55-.6,2.67,2.67,0,0,1-.53-1.79,3,3,0,0,1,.28-1.37,1.86,1.86,0,0,1,.77-.84,2.25,2.25,0,0,1,1.11-.27,2,2,0,0,1,1.58.61,2.59,2.59,0,0,1,.54,1.76,3.14,3.14,0,0,1-.27,1.38,1.89,1.89,0,0,1-.76.84A2.3,2.3,0,0,1,104.46,230.39Zm-1.16-2.49a3.12,3.12,0,0,0,.32,1.55,1,1,0,0,0,.92.55.9.9,0,0,0,.55-.16,1.22,1.22,0,0,0,.38-.43,2.22,2.22,0,0,0,.2-.63,3.67,3.67,0,0,0,.07-.75,3.75,3.75,0,0,0-.16-1.2,1.58,1.58,0,0,0-.43-.7,1,1,0,0,0-.63-.22,1,1,0,0,0-.9.51A2.88,2.88,0,0,0,103.3,227.9Z"/><path d="M109,226.42H109a4.06,4.06,0,0,1,.5-.51,1.71,1.71,0,0,1,.5-.3,1.61,1.61,0,0,1,.6-.1,3.89,3.89,0,0,1,.51,0v1.13h-.55a1.14,1.14,0,0,0-.25-.39.52.52,0,0,0-.36-.12.68.68,0,0,0-.35.11,1.49,1.49,0,0,0-.33.3,1.13,1.13,0,0,0-.22.37,1,1,0,0,0-.07.41v1.72a2.17,2.17,0,0,0,.06.62.42.42,0,0,0,.18.25,1.06,1.06,0,0,0,.37.12v.24h-2v-.24l.27-.1a.57.57,0,0,0,.14-.13.55.55,0,0,0,.09-.24c0-.11,0-.28,0-.51V227c0-.21,0-.38,0-.51a.68.68,0,0,0-.06-.31.37.37,0,0,0-.18-.17,1.41,1.41,0,0,0-.34-.1v-.25l1.14-.05h.3Z"/><path d="M115.68,229.47a4.27,4.27,0,0,1-.57.52,2.15,2.15,0,0,1-1.26.4,1.86,1.86,0,0,1-1.52-.61,2.71,2.71,0,0,1-.51-1.79,3,3,0,0,1,.26-1.3,2,2,0,0,1,.74-.87,2.11,2.11,0,0,1,1.12-.3,2,2,0,0,1,.84.16,1.39,1.39,0,0,1,.55.43,1.84,1.84,0,0,1,.32.69,4.36,4.36,0,0,1,.13,1.08h-3.07V228a3.1,3.1,0,0,0,.13,1,1.19,1.19,0,0,0,.42.62,1.23,1.23,0,0,0,.77.22,1.66,1.66,0,0,0,.72-.15,2.11,2.11,0,0,0,.64-.49Zm-.82-2a3.82,3.82,0,0,0-.13-.87,1.08,1.08,0,0,0-.31-.51.76.76,0,0,0-.53-.18,1,1,0,0,0-.81.4,2.28,2.28,0,0,0-.35,1.16Z"/><path d="M119.93,226.68h-.47a1.32,1.32,0,0,0-.25-.46.74.74,0,0,0-.33-.24,1.27,1.27,0,0,0-.46-.07,1,1,0,0,0-.62.18.63.63,0,0,0-.23.51.7.7,0,0,0,.09.37,1,1,0,0,0,.29.28,5.48,5.48,0,0,0,.69.34,4.12,4.12,0,0,1,.77.4,1.4,1.4,0,0,1,.42.42,1.07,1.07,0,0,1,.16.58,1.45,1.45,0,0,1-.14.65,1,1,0,0,1-.37.43,1.47,1.47,0,0,1-.57.24,3.24,3.24,0,0,1-.72.08,5.16,5.16,0,0,1-.79-.06c-.26,0-.51-.1-.75-.16v-1h.47a1.26,1.26,0,0,0,.4.66,1.15,1.15,0,0,0,.71.2,1.27,1.27,0,0,0,.34,0,.79.79,0,0,0,.3-.12.66.66,0,0,0,.21-.23.72.72,0,0,0,.08-.37.71.71,0,0,0-.1-.41.84.84,0,0,0-.3-.29,6.15,6.15,0,0,0-.72-.35,4.71,4.71,0,0,1-.72-.37,1.53,1.53,0,0,1-.42-.42,1.05,1.05,0,0,1-.15-.57,1.12,1.12,0,0,1,.22-.7,1.27,1.27,0,0,1,.62-.45,2.63,2.63,0,0,1,1-.16c.21,0,.42,0,.62,0a5.94,5.94,0,0,1,.75.13Z"/><path d="M122,229.17v1.14h-1v-1.14Z"/><path d="M15.24,36.38v-.24a1,1,0,0,0,.4-.18.44.44,0,0,0,.14-.27,3.57,3.57,0,0,0,0-.54V30.89a3,3,0,0,0,0-.5.52.52,0,0,0-.08-.24.38.38,0,0,0-.14-.14,2.24,2.24,0,0,0-.32-.11v-.24h2.67a3.91,3.91,0,0,1,1.25.16,1.49,1.49,0,0,1,.7.5,1.46,1.46,0,0,1,.23.84,1.6,1.6,0,0,1-.17.75,1.66,1.66,0,0,1-.42.52,3.29,3.29,0,0,1-.68.38v0a2,2,0,0,1,1,.62,1.53,1.53,0,0,1,.34,1,1.88,1.88,0,0,1-.29,1.1,1.68,1.68,0,0,1-.83.61,4,4,0,0,1-1.29.19Zm2.34-3.71a1.61,1.61,0,0,0,1.13-.36,1.36,1.36,0,0,0,.4-1.05,1.35,1.35,0,0,0-.11-.57.88.88,0,0,0-.31-.35,1.14,1.14,0,0,0-.45-.19,2.65,2.65,0,0,0-.58-.06h-.48l-.46,0v2.55Zm-.86,3.24c.24,0,.51,0,.8,0a2.4,2.4,0,0,0,1-.16A1,1,0,0,0,19,35.3a1.71,1.71,0,0,0,.16-.79,1.57,1.57,0,0,0-.17-.79,1,1,0,0,0-.53-.46,2.52,2.52,0,0,0-1-.16h-.76Z"/><path d="M25.14,35.54a4.29,4.29,0,0,1-.58.52,2.15,2.15,0,0,1-1.26.4,1.89,1.89,0,0,1-1.52-.61,2.76,2.76,0,0,1-.51-1.8,3.06,3.06,0,0,1,.26-1.29,2,2,0,0,1,.74-.87,2.32,2.32,0,0,1,2-.15,1.49,1.49,0,0,1,.55.43,2,2,0,0,1,.32.69A4.44,4.44,0,0,1,25.23,34H22.16V34a3.1,3.1,0,0,0,.13,1,1.19,1.19,0,0,0,.42.62,1.23,1.23,0,0,0,.77.22,1.66,1.66,0,0,0,.72-.15,2.11,2.11,0,0,0,.64-.49Zm-.82-2a3.76,3.76,0,0,0-.14-.87,1.07,1.07,0,0,0-.3-.51.8.8,0,0,0-.54-.18.93.93,0,0,0-.8.4,2.24,2.24,0,0,0-.36,1.16Z"/><path d="M30.87,36.38H28.94v-.24a1.8,1.8,0,0,0,.28-.11.53.53,0,0,0,.14-.12.74.74,0,0,0,.08-.24,2.12,2.12,0,0,0,0-.5V33.88c0-.23,0-.44,0-.63a3.5,3.5,0,0,0-.07-.46,1.09,1.09,0,0,0-.11-.28.87.87,0,0,0-.16-.17.72.72,0,0,0-.21-.12,1.14,1.14,0,0,0-.3,0,.86.86,0,0,0-.36.08,1.52,1.52,0,0,0-.38.26,1.35,1.35,0,0,0-.3.37.93.93,0,0,0-.09.42v1.84a2.69,2.69,0,0,0,0,.59.38.38,0,0,0,.15.25,1.28,1.28,0,0,0,.36.15v.24H26.11v-.24a1.3,1.3,0,0,0,.27-.11.41.41,0,0,0,.14-.12.55.55,0,0,0,.09-.24,3.13,3.13,0,0,0,0-.51V33c0-.2,0-.37,0-.5a.84.84,0,0,0-.07-.31.37.37,0,0,0-.18-.17,1.41,1.41,0,0,0-.34-.1v-.26l1.15,0h.29l-.05.8.07,0a4.72,4.72,0,0,1,.58-.53,2.46,2.46,0,0,1,.45-.24,1.28,1.28,0,0,1,.48-.09,1.63,1.63,0,0,1,.47.06,1.18,1.18,0,0,1,.37.19,1,1,0,0,1,.26.32,1.46,1.46,0,0,1,.15.46,3.07,3.07,0,0,1,.06.67v1.86a3.12,3.12,0,0,0,0,.49.7.7,0,0,0,.06.24.51.51,0,0,0,.15.14l.32.12Z"/><path d="M35.59,35.54a3.73,3.73,0,0,1-.57.52,2.15,2.15,0,0,1-1.26.4,1.89,1.89,0,0,1-1.52-.61,2.76,2.76,0,0,1-.51-1.8A2.92,2.92,0,0,1,32,32.76a2,2,0,0,1,.74-.87,2.32,2.32,0,0,1,2-.15,1.49,1.49,0,0,1,.55.43,2,2,0,0,1,.32.69A4.44,4.44,0,0,1,35.69,34H32.62V34a3.1,3.1,0,0,0,.13,1,1.19,1.19,0,0,0,.42.62,1.23,1.23,0,0,0,.77.22,1.66,1.66,0,0,0,.72-.15,2.11,2.11,0,0,0,.64-.49Zm-.82-2a3.82,3.82,0,0,0-.13-.87,1.08,1.08,0,0,0-.31-.51A.76.76,0,0,0,33.8,32a1,1,0,0,0-.81.4,2.24,2.24,0,0,0-.35,1.16Z"/><path d="M39.08,32.17H37.91v3a2,2,0,0,0,0,.49.65.65,0,0,0,.09.26.44.44,0,0,0,.16.14l.32.1v.24h-2v-.24a1.1,1.1,0,0,0,.31-.12.35.35,0,0,0,.14-.13.67.67,0,0,0,.08-.25,3.12,3.12,0,0,0,0-.49v-3h-.59v-.25a.81.81,0,0,0,.37-.11.47.47,0,0,0,.16-.22,1.89,1.89,0,0,0,.06-.41,2.27,2.27,0,0,1,.27-1,1.64,1.64,0,0,1,.65-.63,2,2,0,0,1,.94-.21,2.93,2.93,0,0,1,.53,0v.9h-.4a.79.79,0,0,0-.16-.39.38.38,0,0,0-.3-.12.62.62,0,0,0-.31.08.76.76,0,0,0-.22.27,1.34,1.34,0,0,0-.12.46,6.43,6.43,0,0,0,0,.69v.43h1.17Z"/><path d="M39.6,36.14a1.3,1.3,0,0,0,.27-.11.53.53,0,0,0,.14-.12.74.74,0,0,0,.08-.24,2.16,2.16,0,0,0,0-.51V33c0-.2,0-.37,0-.5a.84.84,0,0,0-.07-.31.37.37,0,0,0-.18-.17,1.41,1.41,0,0,0-.34-.1v-.26l1.14,0H41v3.52a3.89,3.89,0,0,0,0,.59.48.48,0,0,0,.15.25,1.62,1.62,0,0,0,.36.15v.24H39.6ZM41,29.74v1H40.1v-1Z"/><path d="M46,31.78v1h-.62a1.57,1.57,0,0,0-.2-.5.68.68,0,0,0-.28-.26,1,1,0,0,0-.4-.07.92.92,0,0,0-.61.22,1.52,1.52,0,0,0-.42.67A3.55,3.55,0,0,0,43.33,34a4.63,4.63,0,0,0,.06.77,1.71,1.71,0,0,0,.2.59,1,1,0,0,0,.37.38,1.16,1.16,0,0,0,.58.14,1.45,1.45,0,0,0,.63-.13,2,2,0,0,0,.61-.47l.27.33a3.3,3.3,0,0,1-.44.42,2.06,2.06,0,0,1-.4.25,2,2,0,0,1-.43.15,2.24,2.24,0,0,1-.46.05,1.72,1.72,0,0,1-1.42-.62,2.87,2.87,0,0,1-.48-1.79,3,3,0,0,1,.27-1.29,2,2,0,0,1,1.9-1.17,5.6,5.6,0,0,1,.74,0A3.93,3.93,0,0,1,46,31.78Z"/><path d="M46.79,36.14l.27-.11a.37.37,0,0,0,.13-.12.55.55,0,0,0,.09-.24,3.13,3.13,0,0,0,0-.51V33c0-.2,0-.37,0-.5a.85.85,0,0,0-.06-.31.37.37,0,0,0-.18-.17,1.56,1.56,0,0,0-.34-.1v-.26l1.14,0h.29v3.52a3.54,3.54,0,0,0,0,.59.48.48,0,0,0,.15.25,1.28,1.28,0,0,0,.36.15v.24H46.79Zm1.39-6.4v1h-.9v-1Z"/><path d="M51.69,36.46a1.93,1.93,0,0,1-1.55-.61,2.58,2.58,0,0,1-.54-1.78,3.2,3.2,0,0,1,.28-1.38,1.94,1.94,0,0,1,.77-.83,2.29,2.29,0,0,1,1.12-.27,2,2,0,0,1,1.58.61A2.59,2.59,0,0,1,53.89,34a3.2,3.2,0,0,1-.27,1.38,2,2,0,0,1-.76.84A2.41,2.41,0,0,1,51.69,36.46ZM50.53,34a3,3,0,0,0,.32,1.55,1,1,0,0,0,.91.55,1,1,0,0,0,.56-.16,1.19,1.19,0,0,0,.37-.43,2,2,0,0,0,.21-.63A4.56,4.56,0,0,0,53,34.1a3.75,3.75,0,0,0-.16-1.2,1.45,1.45,0,0,0-.43-.7.94.94,0,0,0-.62-.22,1,1,0,0,0-.91.51A2.89,2.89,0,0,0,50.53,34Z"/><path d="M58.14,32.75h-.47a1.48,1.48,0,0,0-.25-.47.93.93,0,0,0-.33-.24,1.51,1.51,0,0,0-.46-.06,1,1,0,0,0-.62.18.62.62,0,0,0-.23.51.7.7,0,0,0,.09.37,1,1,0,0,0,.29.28,5.82,5.82,0,0,0,.69.33,5.81,5.81,0,0,1,.77.4,1.43,1.43,0,0,1,.42.43,1,1,0,0,1,.16.57,1.62,1.62,0,0,1-.13.66,1.13,1.13,0,0,1-.38.43,1.67,1.67,0,0,1-.56.24,3.24,3.24,0,0,1-.72.08,5.19,5.19,0,0,1-.8-.06l-.75-.16v-1h.48a1.13,1.13,0,0,0,.39.65,1.09,1.09,0,0,0,.71.21,1.86,1.86,0,0,0,.34,0,.68.68,0,0,0,.3-.12.61.61,0,0,0,.21-.24.68.68,0,0,0,.08-.37.7.7,0,0,0-.1-.4.76.76,0,0,0-.3-.29,4.86,4.86,0,0,0-.72-.35,4.55,4.55,0,0,1-.71-.37,1.57,1.57,0,0,1-.43-.42A1.05,1.05,0,0,1,55,32.9a1.12,1.12,0,0,1,.22-.7,1.35,1.35,0,0,1,.62-.46,2.86,2.86,0,0,1,1-.15c.21,0,.42,0,.62,0s.45.06.75.12Z"/><path d="M63.29,29.33,59.76,38.5H59l3.53-9.17Z"/><path d="M65.39,32.49h.07A3.6,3.6,0,0,1,66,32a1.86,1.86,0,0,1,.49-.29,1.64,1.64,0,0,1,.6-.1,4.17,4.17,0,0,1,.52,0v1.13H67a1.31,1.31,0,0,0-.25-.39.52.52,0,0,0-.36-.12.66.66,0,0,0-.35.11,1,1,0,0,0-.34.3,1.2,1.2,0,0,0-.22.36,1.31,1.31,0,0,0-.06.41v1.73a2.78,2.78,0,0,0,0,.62.45.45,0,0,0,.18.24.93.93,0,0,0,.37.13v.24h-2v-.24a1.43,1.43,0,0,0,.26-.11.41.41,0,0,0,.14-.12.55.55,0,0,0,.09-.24,3.13,3.13,0,0,0,0-.51V33c0-.2,0-.37,0-.5a.84.84,0,0,0-.07-.31.37.37,0,0,0-.18-.17,1.41,1.41,0,0,0-.34-.1v-.25l1.15-.05h.29Z"/><path d="M72.11,35.54a4.29,4.29,0,0,1-.58.52,2.15,2.15,0,0,1-1.26.4,1.91,1.91,0,0,1-1.52-.61,2.76,2.76,0,0,1-.51-1.8,3.06,3.06,0,0,1,.26-1.29,2,2,0,0,1,.75-.87,2.05,2.05,0,0,1,1.11-.3,2.1,2.1,0,0,1,.84.15,1.41,1.41,0,0,1,.55.43,2.21,2.21,0,0,1,.33.69A5,5,0,0,1,72.21,34H69.13V34a3.1,3.1,0,0,0,.13,1,1.32,1.32,0,0,0,.42.62,1.25,1.25,0,0,0,.77.22,1.66,1.66,0,0,0,.72-.15,2,2,0,0,0,.64-.49Zm-.82-2a4.47,4.47,0,0,0-.13-.87,1.08,1.08,0,0,0-.31-.51.8.8,0,0,0-.54-.18,1,1,0,0,0-.8.4,2.24,2.24,0,0,0-.36,1.16Z"/><path d="M76.72,31.78v1H76.1a1.57,1.57,0,0,0-.2-.5.65.65,0,0,0-.29-.26.93.93,0,0,0-.4-.07.89.89,0,0,0-.6.22,1.43,1.43,0,0,0-.42.67A3.55,3.55,0,0,0,74,34a4.63,4.63,0,0,0,.06.77,1.53,1.53,0,0,0,.2.59,1,1,0,0,0,.37.38,1.16,1.16,0,0,0,.58.14,1.45,1.45,0,0,0,.63-.13,2.15,2.15,0,0,0,.6-.47l.28.33a3.3,3.3,0,0,1-.44.42,1.87,1.87,0,0,1-.41.25,1.69,1.69,0,0,1-.43.15,2.16,2.16,0,0,1-.46.05,1.71,1.71,0,0,1-1.41-.62,2.87,2.87,0,0,1-.49-1.79,3,3,0,0,1,.28-1.29,2,2,0,0,1,1.9-1.17,5.6,5.6,0,0,1,.74,0A4.14,4.14,0,0,1,76.72,31.78Z"/><path d="M79.62,36.46a1.93,1.93,0,0,1-1.55-.61,2.58,2.58,0,0,1-.54-1.78,3.2,3.2,0,0,1,.28-1.38,1.94,1.94,0,0,1,.77-.83,2.29,2.29,0,0,1,1.12-.27,2,2,0,0,1,1.58.61A2.59,2.59,0,0,1,81.82,34a3.2,3.2,0,0,1-.27,1.38,1.91,1.91,0,0,1-.77.84A2.34,2.34,0,0,1,79.62,36.46ZM78.46,34a3,3,0,0,0,.32,1.55,1,1,0,0,0,.91.55,1,1,0,0,0,.56-.16,1.19,1.19,0,0,0,.37-.43,2,2,0,0,0,.21-.63,4.56,4.56,0,0,0,.06-.75,3.75,3.75,0,0,0-.16-1.2,1.45,1.45,0,0,0-.43-.7.94.94,0,0,0-.62-.22,1,1,0,0,0-.91.51A2.89,2.89,0,0,0,78.46,34Z"/><path d="M87.56,36.38H85.63v-.24a1.8,1.8,0,0,0,.28-.11.53.53,0,0,0,.14-.12.74.74,0,0,0,.08-.24,2.12,2.12,0,0,0,0-.5V33.88c0-.23,0-.44,0-.63a3.5,3.5,0,0,0-.07-.46,1.09,1.09,0,0,0-.11-.28.87.87,0,0,0-.16-.17.72.72,0,0,0-.21-.12,1.14,1.14,0,0,0-.3,0,.86.86,0,0,0-.36.08,1.52,1.52,0,0,0-.38.26,1.35,1.35,0,0,0-.3.37.93.93,0,0,0-.09.42v1.84a2.69,2.69,0,0,0,0,.59.38.38,0,0,0,.15.25,1.28,1.28,0,0,0,.36.15v.24H82.8v-.24a1.3,1.3,0,0,0,.27-.11.41.41,0,0,0,.14-.12.55.55,0,0,0,.09-.24,3.13,3.13,0,0,0,0-.51V33c0-.2,0-.37,0-.5a.84.84,0,0,0-.07-.31.37.37,0,0,0-.18-.17,1.41,1.41,0,0,0-.34-.1v-.26l1.15,0h.29l0,.8.07,0a4.72,4.72,0,0,1,.58-.53,2.46,2.46,0,0,1,.45-.24,1.28,1.28,0,0,1,.48-.09,1.68,1.68,0,0,1,.47.06,1.18,1.18,0,0,1,.37.19,1,1,0,0,1,.26.32,1.46,1.46,0,0,1,.15.46,3.07,3.07,0,0,1,.06.67v1.86a3.12,3.12,0,0,0,0,.49.7.7,0,0,0,.06.24.51.51,0,0,0,.15.14l.32.12Z"/><path d="M90.51,36.46A1.93,1.93,0,0,1,89,35.85a2.58,2.58,0,0,1-.54-1.78,3.2,3.2,0,0,1,.28-1.38,1.94,1.94,0,0,1,.77-.83,2.28,2.28,0,0,1,1.11-.27,2,2,0,0,1,1.59.61A2.64,2.64,0,0,1,92.7,34a3.36,3.36,0,0,1-.26,1.38,1.91,1.91,0,0,1-.77.84A2.37,2.37,0,0,1,90.51,36.46ZM89.34,34a3.12,3.12,0,0,0,.32,1.55,1,1,0,0,0,.92.55,1,1,0,0,0,.56-.16,1.3,1.3,0,0,0,.37-.43,2,2,0,0,0,.21-.63,4.56,4.56,0,0,0,.06-.75,3.75,3.75,0,0,0-.16-1.2,1.45,1.45,0,0,0-.43-.7.94.94,0,0,0-.62-.22,1,1,0,0,0-.91.51A2.88,2.88,0,0,0,89.34,34Z"/><path d="M97.33,31.78v1h-.62a1.83,1.83,0,0,0-.21-.5.63.63,0,0,0-.28-.26,1,1,0,0,0-.4-.07.92.92,0,0,0-.61.22,1.51,1.51,0,0,0-.41.67A3.26,3.26,0,0,0,94.64,34a4.63,4.63,0,0,0,.06.77,2,2,0,0,0,.2.59,1.06,1.06,0,0,0,.38.38,1.13,1.13,0,0,0,.58.14,1.51,1.51,0,0,0,.63-.13,2.15,2.15,0,0,0,.6-.47l.28.33a5.22,5.22,0,0,1-.44.42,2.5,2.5,0,0,1-.41.25,2,2,0,0,1-.43.15,2.24,2.24,0,0,1-.46.05,1.68,1.68,0,0,1-1.41-.62,2.81,2.81,0,0,1-.49-1.79A3,3,0,0,1,94,32.76a2.1,2.1,0,0,1,.77-.87,2.16,2.16,0,0,1,1.14-.3,5.8,5.8,0,0,1,.74,0A4.38,4.38,0,0,1,97.33,31.78Z"/><path d="M98.1,36.14a1.3,1.3,0,0,0,.27-.11.53.53,0,0,0,.14-.12.74.74,0,0,0,.08-.24,2.16,2.16,0,0,0,0-.51V33c0-.2,0-.37,0-.5a.84.84,0,0,0-.07-.31.37.37,0,0,0-.18-.17,1.41,1.41,0,0,0-.34-.1v-.26l1.14,0h.3v3.52a2.69,2.69,0,0,0,0,.59.41.41,0,0,0,.14.25,1.62,1.62,0,0,0,.36.15v.24H98.1Zm1.4-6.4v1h-.9v-1Z"/><path d="M102.2,32.43l.06,0a5.51,5.51,0,0,1,.49-.45,1.88,1.88,0,0,1,.36-.24,2,2,0,0,1,.33-.13,1.1,1.1,0,0,1,.31,0,1.33,1.33,0,0,1,.8.23,1.15,1.15,0,0,1,.42.69,7.65,7.65,0,0,1,.6-.55,1.68,1.68,0,0,1,.46-.27,1.25,1.25,0,0,1,.51-.1,1.42,1.42,0,0,1,.57.1,1,1,0,0,1,.4.29,1.29,1.29,0,0,1,.24.5,3.52,3.52,0,0,1,.07.81v1.86a2.81,2.81,0,0,0,0,.51.63.63,0,0,0,.07.23.36.36,0,0,0,.14.13,1.1,1.1,0,0,0,.31.12v.24h-1.92v-.24a1.3,1.3,0,0,0,.27-.11.41.41,0,0,0,.14-.12.55.55,0,0,0,.09-.24,3.07,3.07,0,0,0,0-.5V33.88c0-.28,0-.51,0-.69a2.9,2.9,0,0,0-.07-.44.92.92,0,0,0-.11-.26l-.15-.16a.64.64,0,0,0-.2-.11,1.06,1.06,0,0,0-.29,0,1,1,0,0,0-.37.08,1.29,1.29,0,0,0-.36.27,1.17,1.17,0,0,0-.29.37,1.06,1.06,0,0,0-.09.45v1.8a2.81,2.81,0,0,0,0,.51.63.63,0,0,0,.07.23.44.44,0,0,0,.14.13,1.1,1.1,0,0,0,.31.12v.24h-1.92v-.24a1.3,1.3,0,0,0,.27-.11.33.33,0,0,0,.14-.12.55.55,0,0,0,.09-.24,3.07,3.07,0,0,0,0-.5V33.88c0-.3,0-.53,0-.72a2.05,2.05,0,0,0-.08-.44.85.85,0,0,0-.13-.27.8.8,0,0,0-.16-.16.6.6,0,0,0-.2-.08,1,1,0,0,0-.25,0,.85.85,0,0,0-.38.09,1.87,1.87,0,0,0-.36.27,1.14,1.14,0,0,0-.27.36.91.91,0,0,0-.1.4v1.85c0,.18,0,.33,0,.43a.71.71,0,0,0,0,.23.29.29,0,0,0,.08.13.39.39,0,0,0,.14.1l.27.1v.24h-1.92v-.24a1.6,1.6,0,0,0,.27-.11.53.53,0,0,0,.14-.12.55.55,0,0,0,.09-.24,3.13,3.13,0,0,0,0-.51V33c0-.2,0-.37,0-.5a.84.84,0,0,0-.07-.31.37.37,0,0,0-.18-.17,1.41,1.41,0,0,0-.34-.1v-.26l1.14,0h.3Z"/><path d="M109.2,36.14l.27-.11a.53.53,0,0,0,.14-.12.74.74,0,0,0,.08-.24,2.89,2.89,0,0,0,0-.51V33c0-.2,0-.37,0-.5a.84.84,0,0,0-.07-.31.37.37,0,0,0-.18-.17,1.41,1.41,0,0,0-.34-.1v-.26l1.14,0h.3v3.52a3.89,3.89,0,0,0,0,.59.48.48,0,0,0,.15.25,1.62,1.62,0,0,0,.36.15v.24H109.2Zm1.39-6.4v1h-.89v-1Z"/><path d="M115.88,35.54a4.29,4.29,0,0,1-.58.52,2.15,2.15,0,0,1-1.26.4,1.91,1.91,0,0,1-1.52-.61,2.76,2.76,0,0,1-.51-1.8,3.06,3.06,0,0,1,.26-1.29,2,2,0,0,1,.75-.87,2.05,2.05,0,0,1,1.11-.3,2.1,2.1,0,0,1,.84.15,1.41,1.41,0,0,1,.55.43,2.21,2.21,0,0,1,.33.69A5,5,0,0,1,116,34H112.9V34a3.1,3.1,0,0,0,.13,1,1.32,1.32,0,0,0,.42.62,1.25,1.25,0,0,0,.77.22,1.66,1.66,0,0,0,.72-.15,2,2,0,0,0,.64-.49Zm-.82-2a4.47,4.47,0,0,0-.13-.87,1.16,1.16,0,0,0-.31-.51.8.8,0,0,0-.54-.18,1,1,0,0,0-.8.4,2.24,2.24,0,0,0-.36,1.16Z"/><path d="M121.61,36.38h-1.92v-.24L120,36a.53.53,0,0,0,.14-.12.55.55,0,0,0,.09-.24,3.07,3.07,0,0,0,0-.5V33.88c0-.23,0-.44,0-.63a2.36,2.36,0,0,0-.07-.46,1.09,1.09,0,0,0-.11-.28.65.65,0,0,0-.16-.17.67.67,0,0,0-.2-.12,1.23,1.23,0,0,0-.31,0,.86.86,0,0,0-.36.08,1.52,1.52,0,0,0-.38.26,1.87,1.87,0,0,0-.3.37.93.93,0,0,0-.09.42v1.84a2.69,2.69,0,0,0,0,.59.48.48,0,0,0,.15.25,1.28,1.28,0,0,0,.36.15v.24h-1.92v-.24a1.8,1.8,0,0,0,.28-.11.49.49,0,0,0,.13-.12.55.55,0,0,0,.09-.24,3.13,3.13,0,0,0,0-.51V33c0-.2,0-.37,0-.5a.68.68,0,0,0-.07-.31.4.4,0,0,0-.17-.17,1.56,1.56,0,0,0-.34-.1v-.26l1.14,0h.3l-.06.8.07,0a5.59,5.59,0,0,1,.58-.53,2.46,2.46,0,0,1,.45-.24,1.36,1.36,0,0,1,.48-.09,1.75,1.75,0,0,1,.48.06,1.13,1.13,0,0,1,.36.19,1,1,0,0,1,.26.32,1.77,1.77,0,0,1,.16.46,4,4,0,0,1,0,.67v1.86a3.12,3.12,0,0,0,0,.49.52.52,0,0,0,.07.24.47.47,0,0,0,.14.14l.32.12Z"/><path d="M122.14,31.92a1.24,1.24,0,0,0,.4-.14.64.64,0,0,0,.23-.26,1.21,1.21,0,0,0,.14-.38c0-.16.07-.39.1-.69h.69v1.22h1.58v.5H123.7v2.19a7.09,7.09,0,0,0,0,.76,1.07,1.07,0,0,0,.15.44.58.58,0,0,0,.24.23.77.77,0,0,0,.36.07.86.86,0,0,0,.36-.08,1.2,1.2,0,0,0,.34-.23l.22.26a2.44,2.44,0,0,1-.66.49,1.32,1.32,0,0,1-.64.16,1.16,1.16,0,0,1-.94-.38,1.88,1.88,0,0,1-.3-1.18V32.17h-.73Z"/><path d="M127.94,36.46a2,2,0,0,1-1.55-.61,2.63,2.63,0,0,1-.53-1.78,3.06,3.06,0,0,1,.28-1.38,1.88,1.88,0,0,1,.77-.83,2.23,2.23,0,0,1,1.11-.27,2,2,0,0,1,1.58.61,2.59,2.59,0,0,1,.54,1.76,3.2,3.2,0,0,1-.27,1.38,1.89,1.89,0,0,1-.76.84A2.41,2.41,0,0,1,127.94,36.46ZM126.78,34a3.12,3.12,0,0,0,.32,1.55,1,1,0,0,0,.92.55,1,1,0,0,0,.55-.16,1.22,1.22,0,0,0,.38-.43,2.22,2.22,0,0,0,.2-.63,3.67,3.67,0,0,0,.07-.75,4.05,4.05,0,0,0-.16-1.2,1.53,1.53,0,0,0-.43-.7A1,1,0,0,0,128,32a1,1,0,0,0-.9.51A2.88,2.88,0,0,0,126.78,34Z"/><path d="M134.4,32.75h-.47a1.71,1.71,0,0,0-.25-.47.88.88,0,0,0-.34-.24,1.44,1.44,0,0,0-.45-.06,1,1,0,0,0-.62.18.6.6,0,0,0-.24.51.7.7,0,0,0,.1.37,1,1,0,0,0,.29.28,6.33,6.33,0,0,0,.68.33,5.24,5.24,0,0,1,.77.4,1.47,1.47,0,0,1,.43.43,1.05,1.05,0,0,1,.15.57,1.47,1.47,0,0,1-.13.66,1.11,1.11,0,0,1-.37.43,1.63,1.63,0,0,1-.57.24,3.24,3.24,0,0,1-.72.08,5.29,5.29,0,0,1-.8-.06l-.75-.16v-1h.48a1.24,1.24,0,0,0,.39.65,1.09,1.09,0,0,0,.71.21,2,2,0,0,0,.35,0,.79.79,0,0,0,.3-.12.61.61,0,0,0,.21-.24.87.87,0,0,0,0-.77.93.93,0,0,0-.3-.29,4.61,4.61,0,0,0-.73-.35,5.05,5.05,0,0,1-.71-.37,1.4,1.4,0,0,1-.42-.42,1.06,1.06,0,0,1-.16-.57,1.19,1.19,0,0,1,.22-.7,1.44,1.44,0,0,1,.63-.46,2.76,2.76,0,0,1,1-.15,6.13,6.13,0,0,1,.62,0c.2,0,.46.06.76.12Z"/><path d="M139.54,29.33,136,38.5h-.77l3.54-9.17Z"/><path d="M7.07,48.24a1.3,1.3,0,0,0,.27-.11A.41.41,0,0,0,7.48,48a.55.55,0,0,0,.09-.24,3.13,3.13,0,0,0,0-.51V45.12c0-.21,0-.38,0-.51a.68.68,0,0,0-.07-.31.37.37,0,0,0-.18-.17A1.31,1.31,0,0,0,7,44v-.26l1.13,0h.3v3.52a2.69,2.69,0,0,0,0,.59.48.48,0,0,0,.15.25,1,1,0,0,0,.36.15v.24H7.07Zm1.4-6.4v1h-.9v-1Z"/><path d="M14.61,48.48H12.68v-.24a1.8,1.8,0,0,0,.28-.11A.53.53,0,0,0,13.1,48a.74.74,0,0,0,.08-.24,2.12,2.12,0,0,0,0-.5V46c0-.23,0-.44,0-.63a3.5,3.5,0,0,0-.07-.46,1.09,1.09,0,0,0-.11-.28.87.87,0,0,0-.16-.17.82.82,0,0,0-.2-.12,1.3,1.3,0,0,0-.31,0,.86.86,0,0,0-.36.08,1.52,1.52,0,0,0-.38.26,1.35,1.35,0,0,0-.3.37.93.93,0,0,0-.09.42v1.84a2.69,2.69,0,0,0,0,.59.38.38,0,0,0,.15.25,1,1,0,0,0,.36.15v.24H9.85v-.24a1.3,1.3,0,0,0,.27-.11.41.41,0,0,0,.14-.12.55.55,0,0,0,.09-.24,3.13,3.13,0,0,0,0-.51V45.12c0-.21,0-.38,0-.51a.84.84,0,0,0-.07-.31.37.37,0,0,0-.18-.17,1.41,1.41,0,0,0-.34-.1v-.26l1.15,0h.29l-.05.8.07,0a4.72,4.72,0,0,1,.58-.53,2.46,2.46,0,0,1,.45-.24,1.28,1.28,0,0,1,.48-.09,1.63,1.63,0,0,1,.47.06,1.43,1.43,0,0,1,.37.19,1,1,0,0,1,.26.32,1.77,1.77,0,0,1,.16.46,4,4,0,0,1,.05.67v1.86a3.12,3.12,0,0,0,0,.49.7.7,0,0,0,.06.24.51.51,0,0,0,.15.14,1.69,1.69,0,0,0,.32.12Z"/><path d="M19.07,43.88v1h-.62a1.57,1.57,0,0,0-.2-.5.78.78,0,0,0-.29-.26.93.93,0,0,0-.4-.07.87.87,0,0,0-.6.22,1.43,1.43,0,0,0-.42.67,3.59,3.59,0,0,0-.15,1.11,6,6,0,0,0,.05.77,1.86,1.86,0,0,0,.2.59,1,1,0,0,0,1,.52,1.48,1.48,0,0,0,.63-.13,2.15,2.15,0,0,0,.6-.47l.28.33a4,4,0,0,1-.44.42,1.73,1.73,0,0,1-.41.25,1.84,1.84,0,0,1-.43.15,2.16,2.16,0,0,1-.46.05A1.71,1.71,0,0,1,16,47.94a3.34,3.34,0,0,1-.21-3.08,2.08,2.08,0,0,1,.76-.87,2.16,2.16,0,0,1,1.14-.3,5.7,5.7,0,0,1,.74,0C18.62,43.77,18.84,43.82,19.07,43.88Z"/><path d="M23.74,47.64a4.27,4.27,0,0,1-.57.52,2.35,2.35,0,0,1-.57.29,2.17,2.17,0,0,1-.69.11A1.89,1.89,0,0,1,20.39,48a2.74,2.74,0,0,1-.51-1.8,2.94,2.94,0,0,1,.26-1.29,2,2,0,0,1,.74-.87,2.09,2.09,0,0,1,1.12-.3,2,2,0,0,1,.84.16,1.31,1.31,0,0,1,.55.43,1.84,1.84,0,0,1,.32.69,4.36,4.36,0,0,1,.13,1.08H20.77v.09a3.45,3.45,0,0,0,.12,1,1.27,1.27,0,0,0,.43.62,1.23,1.23,0,0,0,.77.22,1.66,1.66,0,0,0,.72-.15,2.23,2.23,0,0,0,.64-.49Zm-.82-2a3.82,3.82,0,0,0-.13-.87,1.08,1.08,0,0,0-.31-.51.76.76,0,0,0-.53-.18,1,1,0,0,0-.81.4,2.24,2.24,0,0,0-.35,1.16Z"/><path d="M29.48,48.48H27.55v-.24a1.8,1.8,0,0,0,.28-.11A.53.53,0,0,0,28,48a.74.74,0,0,0,.08-.24,3.07,3.07,0,0,0,0-.5V46c0-.23,0-.44,0-.63a3.5,3.5,0,0,0-.07-.46,1.09,1.09,0,0,0-.11-.28.87.87,0,0,0-.16-.17.72.72,0,0,0-.21-.12,1.14,1.14,0,0,0-.3,0,1,1,0,0,0-.37.08,1.69,1.69,0,0,0-.37.26,1.35,1.35,0,0,0-.3.37.93.93,0,0,0-.09.42v1.84a2.69,2.69,0,0,0,0,.59.38.38,0,0,0,.15.25,1.07,1.07,0,0,0,.35.15v.24H24.72v-.24a1.3,1.3,0,0,0,.27-.11.41.41,0,0,0,.14-.12.55.55,0,0,0,.09-.24,3.13,3.13,0,0,0,0-.51V45.12c0-.21,0-.38,0-.51a.84.84,0,0,0-.07-.31.37.37,0,0,0-.18-.17,1.41,1.41,0,0,0-.34-.1v-.26l1.14,0h.3l-.05.8.07,0a4.72,4.72,0,0,1,.58-.53,2.46,2.46,0,0,1,.45-.24,1.28,1.28,0,0,1,.48-.09,1.68,1.68,0,0,1,.47.06,1.43,1.43,0,0,1,.37.19,1.18,1.18,0,0,1,.26.32,1.46,1.46,0,0,1,.15.46,3.15,3.15,0,0,1,.05.67v1.86c0,.22,0,.39,0,.49A1,1,0,0,0,29,48a.62.62,0,0,0,.14.14,1.86,1.86,0,0,0,.33.12Z"/><path d="M30,44a1,1,0,0,0,.39-.14.71.71,0,0,0,.24-.25,1.77,1.77,0,0,0,.14-.39c0-.16.06-.39.1-.68h.69v1.21h1.58v.5H31.57v2.19a5.17,5.17,0,0,0,0,.76,1,1,0,0,0,.15.44.58.58,0,0,0,.24.23.73.73,0,0,0,.35.07.8.8,0,0,0,.37-.08,1.57,1.57,0,0,0,.34-.23l.22.26a2.78,2.78,0,0,1-.66.49,1.35,1.35,0,0,1-.64.16,1.14,1.14,0,0,1-.94-.38A1.81,1.81,0,0,1,30.73,47V44.27H30Z"/><path d="M33.69,48.24l.27-.11a.37.37,0,0,0,.13-.12.55.55,0,0,0,.09-.24,3.13,3.13,0,0,0,0-.51V45.12c0-.21,0-.38,0-.51a.68.68,0,0,0-.07-.31.31.31,0,0,0-.17-.17,1.56,1.56,0,0,0-.34-.1v-.26l1.13,0h.3v3.52a3.54,3.54,0,0,0,0,.59.48.48,0,0,0,.15.25,1,1,0,0,0,.36.15v.24H33.69Zm1.39-6.4v1h-.9v-1Z"/><path d="M38.07,43.77V44a1.31,1.31,0,0,0-.31.11.33.33,0,0,0-.14.12.48.48,0,0,0,0,.22,1.31,1.31,0,0,0,0,.27c0,.1.06.21.1.34l.85,2.49,1-2.39c.06-.15.11-.28.14-.38a1.67,1.67,0,0,0,0-.29.42.42,0,0,0-.11-.31.87.87,0,0,0-.41-.18v-.24H41V44a.72.72,0,0,0-.29.12,1,1,0,0,0-.21.26,4.52,4.52,0,0,0-.24.49l-1.65,3.65h-.58l-1.32-3.68a2.93,2.93,0,0,0-.22-.52.56.56,0,0,0-.45-.32v-.24Z"/><path d="M43.63,48.56A1.93,1.93,0,0,1,42.08,48a2.58,2.58,0,0,1-.54-1.78,3.12,3.12,0,0,1,.28-1.37,1.91,1.91,0,0,1,.77-.84,2.28,2.28,0,0,1,1.11-.27,2,2,0,0,1,1.59.61,2.64,2.64,0,0,1,.53,1.76,3.3,3.3,0,0,1-.26,1.38,1.91,1.91,0,0,1-.77.84A2.34,2.34,0,0,1,43.63,48.56Zm-1.17-2.49a3.12,3.12,0,0,0,.32,1.55,1,1,0,0,0,.92.55,1,1,0,0,0,.56-.16,1.3,1.3,0,0,0,.37-.43,2,2,0,0,0,.21-.63,4.56,4.56,0,0,0,.06-.75,3.75,3.75,0,0,0-.16-1.2,1.45,1.45,0,0,0-.43-.7.94.94,0,0,0-.62-.22,1,1,0,0,0-.91.51A2.88,2.88,0,0,0,42.46,46.07Z"/><path d="M50.08,44.85h-.47a1.48,1.48,0,0,0-.25-.47.79.79,0,0,0-.33-.23,1.27,1.27,0,0,0-.46-.07,1,1,0,0,0-.62.18.62.62,0,0,0-.23.51.7.7,0,0,0,.09.37,1,1,0,0,0,.29.28,7.38,7.38,0,0,0,.69.34,4.91,4.91,0,0,1,.77.39,1.55,1.55,0,0,1,.42.43,1.06,1.06,0,0,1,.16.57,1.46,1.46,0,0,1-.14.66,1,1,0,0,1-.37.43,1.63,1.63,0,0,1-.57.24,3.24,3.24,0,0,1-.72.08,5.06,5.06,0,0,1-.79-.06c-.26,0-.51-.1-.75-.16v-1h.47a1.24,1.24,0,0,0,.39.65,1.12,1.12,0,0,0,.72.21,1.32,1.32,0,0,0,.34,0A.79.79,0,0,0,49,48a.61.61,0,0,0,.21-.24.77.77,0,0,0,.08-.36.71.71,0,0,0-.1-.41.84.84,0,0,0-.3-.29,4.86,4.86,0,0,0-.72-.35,4.71,4.71,0,0,1-.72-.37,1.53,1.53,0,0,1-.42-.42A1.05,1.05,0,0,1,46.9,45a1.12,1.12,0,0,1,.22-.7,1.27,1.27,0,0,1,.62-.45,2.61,2.61,0,0,1,1-.16q.33,0,.63,0a5.94,5.94,0,0,1,.75.13Z"/><path d="M55.23,41.43,51.7,50.6h-.76l3.53-9.17Z"/><path d="M59.65,43.88v1H59a1.83,1.83,0,0,0-.21-.5.69.69,0,0,0-.28-.26,1,1,0,0,0-.4-.07.92.92,0,0,0-.61.22,1.51,1.51,0,0,0-.41.67A3.3,3.3,0,0,0,57,46.08a4.54,4.54,0,0,0,.06.77,1.86,1.86,0,0,0,.2.59,1,1,0,0,0,.38.38,1,1,0,0,0,.58.14,1.44,1.44,0,0,0,.62-.13,2,2,0,0,0,.61-.47l.28.33a5.22,5.22,0,0,1-.44.42,2,2,0,0,1-.41.25,2,2,0,0,1-.43.15,2.24,2.24,0,0,1-.46.05,1.68,1.68,0,0,1-1.41-.62,2.81,2.81,0,0,1-.49-1.79,3,3,0,0,1,.27-1.29,2.1,2.1,0,0,1,.77-.87,2.16,2.16,0,0,1,1.14-.3,5.8,5.8,0,0,1,.74,0Z"/><path d="M62.54,48.56A2,2,0,0,1,61,48a2.63,2.63,0,0,1-.53-1.78,3,3,0,0,1,.28-1.37,1.86,1.86,0,0,1,.77-.84,2.23,2.23,0,0,1,1.11-.27,2,2,0,0,1,1.58.61,2.59,2.59,0,0,1,.54,1.76,3.14,3.14,0,0,1-.27,1.38,1.89,1.89,0,0,1-.76.84A2.41,2.41,0,0,1,62.54,48.56Zm-1.16-2.49a3.12,3.12,0,0,0,.32,1.55,1,1,0,0,0,.92.55.92.92,0,0,0,.55-.16,1.22,1.22,0,0,0,.38-.43,2.22,2.22,0,0,0,.2-.63,3.67,3.67,0,0,0,.07-.75,4.05,4.05,0,0,0-.16-1.2,1.53,1.53,0,0,0-.43-.7,1,1,0,0,0-.63-.22,1,1,0,0,0-.9.51A2.88,2.88,0,0,0,61.38,46.07Z"/><path d="M70.48,48.48H68.56v-.24a1.3,1.3,0,0,0,.27-.11A.41.41,0,0,0,69,48a.55.55,0,0,0,.09-.24,3.07,3.07,0,0,0,0-.5V46c0-.23,0-.44,0-.63a2.46,2.46,0,0,0-.06-.46,1.06,1.06,0,0,0-.12-.28.61.61,0,0,0-.15-.17.72.72,0,0,0-.21-.12,1.23,1.23,0,0,0-.31,0,.86.86,0,0,0-.36.08,1.72,1.72,0,0,0-.38.26,1.51,1.51,0,0,0-.29.37.82.82,0,0,0-.1.42v1.84a3.54,3.54,0,0,0,0,.59.48.48,0,0,0,.15.25,1,1,0,0,0,.36.15v.24H65.73v-.24l.27-.11a.37.37,0,0,0,.13-.12.55.55,0,0,0,.09-.24,3.13,3.13,0,0,0,0-.51V45.12c0-.21,0-.38,0-.51a.85.85,0,0,0-.06-.31.37.37,0,0,0-.18-.17,1.56,1.56,0,0,0-.34-.1v-.26l1.14,0h.3l-.06.8.07,0A4.66,4.66,0,0,1,67.7,44a2,2,0,0,1,.45-.24,1.28,1.28,0,0,1,.48-.09,1.73,1.73,0,0,1,.47.06,1.23,1.23,0,0,1,.36.19,1,1,0,0,1,.27.32,2.26,2.26,0,0,1,.15.46,4,4,0,0,1,.05.67v1.86c0,.22,0,.39,0,.49A.68.68,0,0,0,70,48a.47.47,0,0,0,.14.14,1.69,1.69,0,0,0,.32.12Z"/><path d="M74.6,43.13v-.66a2.31,2.31,0,0,0,0-.32.51.51,0,0,0-.09-.21.58.58,0,0,0-.15-.11,1.68,1.68,0,0,0-.35-.09v-.26l1.19,0h.28v5.7c0,.26,0,.44,0,.55a.9.9,0,0,0,.06.27.41.41,0,0,0,.16.16,1.09,1.09,0,0,0,.36.11v.26l-1.15.05H74.6l.06-.81-.08,0a3.83,3.83,0,0,1-.53.5,2.23,2.23,0,0,1-.48.26,1.72,1.72,0,0,1-.55.1,1.43,1.43,0,0,1-1.24-.62,3,3,0,0,1-.43-1.77,3,3,0,0,1,.28-1.37,2,2,0,0,1,.76-.84,2.18,2.18,0,0,1,1.09-.27,2.61,2.61,0,0,1,.58.05,2.25,2.25,0,0,1,.54.17Zm0,2.43a5.11,5.11,0,0,0,0-.62,1.12,1.12,0,0,0-.12-.39.75.75,0,0,0-.21-.26.87.87,0,0,0-.3-.16,1.5,1.5,0,0,0-.4-.05,1.07,1.07,0,0,0-1,.51A2.64,2.64,0,0,0,72.26,46a3,3,0,0,0,.27,1.43.88.88,0,0,0,.82.5,1.61,1.61,0,0,0,.35,0,.77.77,0,0,0,.28-.12,1.35,1.35,0,0,0,.28-.22,1,1,0,0,0,.31-.53,2.25,2.25,0,0,0,0-.4Z"/><path d="M76.85,48.24a1.8,1.8,0,0,0,.28-.11.49.49,0,0,0,.13-.12.55.55,0,0,0,.09-.24,3.13,3.13,0,0,0,0-.51V45.12c0-.21,0-.38,0-.51a.68.68,0,0,0-.07-.31.4.4,0,0,0-.17-.17,1.56,1.56,0,0,0-.34-.1v-.26l1.13,0h.3v3.52a2.69,2.69,0,0,0,0,.59.48.48,0,0,0,.15.25,1,1,0,0,0,.36.15v.24H76.85Zm1.4-6.4v1h-.9v-1Z"/><path d="M83.27,43.88v1h-.62a1.85,1.85,0,0,0-.2-.5.78.78,0,0,0-.29-.26,1,1,0,0,0-.4-.07.87.87,0,0,0-.6.22,1.43,1.43,0,0,0-.42.67,3.57,3.57,0,0,0-.16,1.11,4.54,4.54,0,0,0,.06.77,1.86,1.86,0,0,0,.2.59,1,1,0,0,0,1,.52,1.48,1.48,0,0,0,.63-.13,2.15,2.15,0,0,0,.6-.47l.28.33a4,4,0,0,1-.44.42,1.73,1.73,0,0,1-.41.25,1.84,1.84,0,0,1-.43.15,2.16,2.16,0,0,1-.46.05,1.71,1.71,0,0,1-1.41-.62,2.81,2.81,0,0,1-.49-1.79A2.84,2.84,0,0,1,80,44.86a2.08,2.08,0,0,1,.76-.87,2.16,2.16,0,0,1,1.14-.3,5.7,5.7,0,0,1,.74,0C82.82,43.77,83,43.82,83.27,43.88Z"/><path d="M84,48.24a1.3,1.3,0,0,0,.27-.11.41.41,0,0,0,.14-.12.55.55,0,0,0,.09-.24,3.13,3.13,0,0,0,0-.51V45.12c0-.21,0-.38,0-.51a.84.84,0,0,0-.07-.31.37.37,0,0,0-.18-.17A1.41,1.41,0,0,0,84,44v-.26l1.14,0h.3v3.52a2.69,2.69,0,0,0,0,.59.38.38,0,0,0,.15.25,1,1,0,0,0,.36.15v.24H84Zm1.4-6.4v1h-.9v-1Z"/><path d="M88.94,48.56A2,2,0,0,1,87.39,48a2.63,2.63,0,0,1-.53-1.78,3,3,0,0,1,.28-1.37,1.86,1.86,0,0,1,.77-.84A2.25,2.25,0,0,1,89,43.69a2,2,0,0,1,1.58.61,2.59,2.59,0,0,1,.54,1.76,3.14,3.14,0,0,1-.27,1.38,1.89,1.89,0,0,1-.76.84A2.41,2.41,0,0,1,88.94,48.56Zm-1.16-2.49a3.12,3.12,0,0,0,.32,1.55,1,1,0,0,0,.92.55.9.9,0,0,0,.55-.16,1.22,1.22,0,0,0,.38-.43,2.59,2.59,0,0,0,.21-.63,4.56,4.56,0,0,0,.06-.75,3.75,3.75,0,0,0-.16-1.2,1.53,1.53,0,0,0-.43-.7,1,1,0,0,0-.63-.22,1,1,0,0,0-.9.51A2.88,2.88,0,0,0,87.78,46.07Z"/><path d="M96.88,48.48H95v-.24a1.3,1.3,0,0,0,.27-.11.41.41,0,0,0,.14-.12.55.55,0,0,0,.09-.24,3.07,3.07,0,0,0,0-.5V46a6.22,6.22,0,0,0,0-.63,2.46,2.46,0,0,0-.06-.46.81.81,0,0,0-.12-.28.61.61,0,0,0-.15-.17.72.72,0,0,0-.21-.12,1.23,1.23,0,0,0-.31,0,.94.94,0,0,0-.36.08,1.48,1.48,0,0,0-.37.26,1.35,1.35,0,0,0-.3.37.93.93,0,0,0-.1.42v1.84a3.54,3.54,0,0,0,0,.59.48.48,0,0,0,.15.25,1.25,1.25,0,0,0,.36.15v.24H92.13v-.24l.27-.11a.53.53,0,0,0,.14-.12.74.74,0,0,0,.08-.24,2.89,2.89,0,0,0,0-.51V45.12c0-.21,0-.38,0-.51a.84.84,0,0,0-.07-.31.37.37,0,0,0-.18-.17,1.41,1.41,0,0,0-.34-.1v-.26l1.14,0h.3l0,.8.06,0A5.48,5.48,0,0,1,94.1,44a2.46,2.46,0,0,1,.45-.24,1.28,1.28,0,0,1,.48-.09,1.73,1.73,0,0,1,.47.06,1.43,1.43,0,0,1,.37.19,1.18,1.18,0,0,1,.26.32,1.46,1.46,0,0,1,.15.46,4,4,0,0,1,0,.67v1.86c0,.22,0,.39,0,.49a.68.68,0,0,0,.07.24.47.47,0,0,0,.14.14,1.69,1.69,0,0,0,.32.12Z"/><path d="M101.61,47.64a5,5,0,0,1-.57.52,2.42,2.42,0,0,1-.58.29,2.17,2.17,0,0,1-.69.11A1.87,1.87,0,0,1,98.26,48a2.69,2.69,0,0,1-.52-1.8A3.09,3.09,0,0,1,98,44.86a2.13,2.13,0,0,1,.75-.87,2.05,2.05,0,0,1,1.11-.3,1.94,1.94,0,0,1,.84.16,1.34,1.34,0,0,1,.56.43,2.21,2.21,0,0,1,.32.69,4.36,4.36,0,0,1,.13,1.08H98.63v.09a3.1,3.1,0,0,0,.13,1,1.27,1.27,0,0,0,.43.62A1.2,1.2,0,0,0,100,48a1.73,1.73,0,0,0,.73-.15,2.08,2.08,0,0,0,.63-.49Zm-.82-2a3.82,3.82,0,0,0-.13-.87,1.08,1.08,0,0,0-.31-.51.8.8,0,0,0-.54-.18,1,1,0,0,0-.8.4,2.16,2.16,0,0,0-.35,1.16Z"/><path d="M105.86,44.85h-.47a1.71,1.71,0,0,0-.25-.47.76.76,0,0,0-.34-.23,1.18,1.18,0,0,0-.45-.07,1,1,0,0,0-.62.18.6.6,0,0,0-.24.51.7.7,0,0,0,.1.37,1,1,0,0,0,.29.28c.13.08.36.19.68.34a4.49,4.49,0,0,1,.77.39,1.6,1.6,0,0,1,.43.43,1.05,1.05,0,0,1,.15.57,1.47,1.47,0,0,1-.13.66,1.11,1.11,0,0,1-.37.43,1.63,1.63,0,0,1-.57.24,3.24,3.24,0,0,1-.72.08,5.29,5.29,0,0,1-.8-.06c-.25,0-.5-.1-.75-.16v-1h.48a1.24,1.24,0,0,0,.39.65,1.09,1.09,0,0,0,.71.21,1.34,1.34,0,0,0,.35,0,.79.79,0,0,0,.3-.12.61.61,0,0,0,.21-.24.77.77,0,0,0,.08-.36A.8.8,0,0,0,105,47a1,1,0,0,0-.3-.29,4.61,4.61,0,0,0-.73-.35,5.05,5.05,0,0,1-.71-.37,1.4,1.4,0,0,1-.42-.42,1.06,1.06,0,0,1-.16-.57,1.19,1.19,0,0,1,.22-.7,1.35,1.35,0,0,1,.63-.45,2.54,2.54,0,0,1,1-.16,6.13,6.13,0,0,1,.62,0,6.05,6.05,0,0,1,.76.13Z"/><path d="M110.39,47.25a2.69,2.69,0,0,0,0,.59.38.38,0,0,0,.15.25,1,1,0,0,0,.36.15v.24H109v-.24a1,1,0,0,0,.34-.14.33.33,0,0,0,.13-.16.77.77,0,0,0,.06-.26c0-.11,0-.26,0-.43V43.13c0-.32,0-.54,0-.66a1.39,1.39,0,0,0,0-.32.71.71,0,0,0-.08-.21.5.5,0,0,0-.16-.11,1.4,1.4,0,0,0-.34-.09v-.26l1.18,0h.29Z"/><path d="M114.62,47.77l-.07,0a3,3,0,0,1-.8.63,1.79,1.79,0,0,1-.79.18,1.4,1.4,0,0,1-.66-.15,1,1,0,0,1-.43-.41,1.19,1.19,0,0,1-.15-.6,1.23,1.23,0,0,1,.7-1.12,5,5,0,0,1,2.12-.45v-.32a2.54,2.54,0,0,0-.1-.81.78.78,0,0,0-.31-.43,1,1,0,0,0-.56-.14.93.93,0,0,0-.61.2,1.33,1.33,0,0,0-.35.61H112V44.3a5,5,0,0,1,.78-.36,5,5,0,0,1,.63-.19,3.36,3.36,0,0,1,.63-.06,1.75,1.75,0,0,1,.78.15,1,1,0,0,1,.44.48,2.37,2.37,0,0,1,.14,1V47c0,.24,0,.41,0,.51a1.27,1.27,0,0,0,0,.28.77.77,0,0,0,.07.2.32.32,0,0,0,.15.13,1.1,1.1,0,0,0,.31.12v.24H114.6Zm-.08-1.54a3.42,3.42,0,0,0-1.48.27.88.88,0,0,0-.39,1.22.63.63,0,0,0,.29.22,1.2,1.2,0,0,0,.4.06,1.16,1.16,0,0,0,.61-.16,1.21,1.21,0,0,0,.42-.42.93.93,0,0,0,.15-.49Z"/><path d="M117.91,44.54h0a4.62,4.62,0,0,1,.57-.52,1.94,1.94,0,0,1,.47-.25,1.62,1.62,0,0,1,1.43.18,1.65,1.65,0,0,1,.57.81,3.56,3.56,0,0,1,.21,1.31,3.41,3.41,0,0,1-.25,1.36,1.72,1.72,0,0,1-.71.83,2.11,2.11,0,0,1-1.11.29,3,3,0,0,1-.69-.07,3,3,0,0,1-.67-.23l-.34.3-.34-.08v-6a2.31,2.31,0,0,0,0-.32.51.51,0,0,0-.09-.21.58.58,0,0,0-.15-.11,1.68,1.68,0,0,0-.35-.09v-.26l1.19,0h.28Zm0,2.17a4.47,4.47,0,0,0,0,.6,1.16,1.16,0,0,0,.11.37.87.87,0,0,0,.24.27.84.84,0,0,0,.34.17,1.88,1.88,0,0,0,.43.05,1,1,0,0,0,.88-.48,2.72,2.72,0,0,0,.31-1.45,3,3,0,0,0-.28-1.47.9.9,0,0,0-.83-.49,1.09,1.09,0,0,0-.47.09,1.53,1.53,0,0,0-.39.27A1.31,1.31,0,0,0,118,45a.87.87,0,0,0-.09.4Z"/><path d="M124.28,48.56a1.94,1.94,0,0,1-1.55-.61,2.58,2.58,0,0,1-.53-1.78,3,3,0,0,1,.28-1.37,1.81,1.81,0,0,1,.77-.84,2.23,2.23,0,0,1,1.11-.27,2,2,0,0,1,1.58.61,2.59,2.59,0,0,1,.54,1.76,3.14,3.14,0,0,1-.27,1.38,1.89,1.89,0,0,1-.76.84A2.41,2.41,0,0,1,124.28,48.56Zm-1.16-2.49a3.12,3.12,0,0,0,.32,1.55,1,1,0,0,0,.91.55.93.93,0,0,0,.56-.16,1.19,1.19,0,0,0,.37-.43,2,2,0,0,0,.21-.63,4.54,4.54,0,0,0,.07-.75,4.05,4.05,0,0,0-.16-1.2,1.46,1.46,0,0,0-.44-.7.94.94,0,0,0-.62-.22,1,1,0,0,0-.91.51A2.89,2.89,0,0,0,123.12,46.07Z"/><path d="M128.78,44.59h.07a4.23,4.23,0,0,1,.5-.52,2,2,0,0,1,.49-.29,1.66,1.66,0,0,1,.61-.1,3.89,3.89,0,0,1,.51,0v1.13h-.55a1.14,1.14,0,0,0-.25-.39.52.52,0,0,0-.36-.12.68.68,0,0,0-.35.11,1,1,0,0,0-.33.3,1.17,1.17,0,0,0-.23.37,1.2,1.2,0,0,0-.06.4v1.73a2.17,2.17,0,0,0,.06.62.4.4,0,0,0,.17.24,1,1,0,0,0,.38.13v.24h-2v-.24l.27-.11a.37.37,0,0,0,.13-.12.55.55,0,0,0,.09-.24,3.13,3.13,0,0,0,0-.51V45.12c0-.21,0-.38,0-.51a.68.68,0,0,0-.07-.31.35.35,0,0,0-.17-.17,1.56,1.56,0,0,0-.34-.1v-.25l1.14-.05h.3Z"/><path d="M134.42,47.77l-.07,0a3,3,0,0,1-.8.63,1.79,1.79,0,0,1-.79.18,1.4,1.4,0,0,1-.66-.15,1,1,0,0,1-.43-.41,1.19,1.19,0,0,1-.15-.6,1.23,1.23,0,0,1,.7-1.12,5,5,0,0,1,2.12-.45v-.32a2.54,2.54,0,0,0-.1-.81.78.78,0,0,0-.31-.43,1,1,0,0,0-.56-.14.91.91,0,0,0-.61.2,1.33,1.33,0,0,0-.35.61h-.64V44.3a5,5,0,0,1,.78-.36,5,5,0,0,1,.63-.19,3.36,3.36,0,0,1,.63-.06,1.75,1.75,0,0,1,.78.15,1,1,0,0,1,.44.48,2.37,2.37,0,0,1,.14,1V47c0,.24,0,.41,0,.51a1.27,1.27,0,0,0,0,.28.52.52,0,0,0,.07.2.32.32,0,0,0,.15.13,1.1,1.1,0,0,0,.31.12v.24H134.4Zm-.08-1.54a3.42,3.42,0,0,0-1.48.27.88.88,0,0,0-.39,1.22.63.63,0,0,0,.29.22,1.2,1.2,0,0,0,.4.06,1.16,1.16,0,0,0,.61-.16,1.21,1.21,0,0,0,.42-.42.93.93,0,0,0,.15-.49Z"/><path d="M137.79,47.25a2.69,2.69,0,0,0,0,.59.41.41,0,0,0,.14.25,1.25,1.25,0,0,0,.36.15v.24H136.4v-.24a.87.87,0,0,0,.33-.14.36.36,0,0,0,.14-.16.77.77,0,0,0,.06-.26c0-.11,0-.26,0-.43V43.13c0-.32,0-.54,0-.66a2.31,2.31,0,0,0,0-.32.51.51,0,0,0-.09-.21.45.45,0,0,0-.15-.11,1.55,1.55,0,0,0-.34-.09v-.26l1.17,0h.3Z"/><path d="M143.1,47.64a5,5,0,0,1-.57.52,2.42,2.42,0,0,1-.58.29,2.17,2.17,0,0,1-.69.11,1.91,1.91,0,0,1-1.52-.61,2.74,2.74,0,0,1-.51-1.8,3.09,3.09,0,0,1,.26-1.29,2.13,2.13,0,0,1,.75-.87,2.05,2.05,0,0,1,1.11-.3,1.94,1.94,0,0,1,.84.16,1.34,1.34,0,0,1,.56.43,2.21,2.21,0,0,1,.32.69,4.89,4.89,0,0,1,.13,1.08h-3.08v.09a3.1,3.1,0,0,0,.13,1,1.27,1.27,0,0,0,.43.62,1.2,1.2,0,0,0,.76.22,1.66,1.66,0,0,0,.72-.15,2,2,0,0,0,.64-.49Zm-.82-2a3.82,3.82,0,0,0-.13-.87,1.08,1.08,0,0,0-.31-.51.8.8,0,0,0-.54-.18,1,1,0,0,0-.8.4,2.16,2.16,0,0,0-.35,1.16Z"/><path d="M147.35,44.85h-.47a1.48,1.48,0,0,0-.26-.47.69.69,0,0,0-.33-.23,1.18,1.18,0,0,0-.45-.07,1,1,0,0,0-.62.18.6.6,0,0,0-.24.51.62.62,0,0,0,.1.37.87.87,0,0,0,.29.28,6.88,6.88,0,0,0,.68.34,4.49,4.49,0,0,1,.77.39,1.75,1.75,0,0,1,.43.43,1.05,1.05,0,0,1,.15.57,1.47,1.47,0,0,1-.13.66,1.11,1.11,0,0,1-.37.43,1.63,1.63,0,0,1-.57.24,3.24,3.24,0,0,1-.72.08,5.29,5.29,0,0,1-.8-.06c-.25,0-.5-.1-.75-.16v-1h.48a1.24,1.24,0,0,0,.39.65,1.09,1.09,0,0,0,.71.21,1.34,1.34,0,0,0,.35,0,.79.79,0,0,0,.3-.12.61.61,0,0,0,.21-.24.77.77,0,0,0,.08-.36.8.8,0,0,0-.1-.41,1,1,0,0,0-.3-.29,4.61,4.61,0,0,0-.73-.35,5.05,5.05,0,0,1-.71-.37,1.4,1.4,0,0,1-.42-.42,1.06,1.06,0,0,1-.16-.57,1.19,1.19,0,0,1,.22-.7,1.35,1.35,0,0,1,.63-.45,2.54,2.54,0,0,1,1-.16,6.13,6.13,0,0,1,.62,0,6.37,6.37,0,0,1,.76.13Z"/><rect class="cls-6" x="0.25" y="0.25" width="154" height="255.13" rx="9.73"/></g></g></svg>