<svg xmlns="http://www.w3.org/2000/svg" xmlns:xlink="http://www.w3.org/1999/xlink" viewBox="0 0 171.11 261.42"><defs><style>.cls-1,.cls-11,.cls-12,.cls-4{fill:none;}.cls-2{clip-path:url(#clip-path);}.cls-3{clip-path:url(#clip-path-2);}.cls-11,.cls-12,.cls-4{stroke:#000;}.cls-5,.cls-8{font-size:10.03px;font-family:Cambria;}.cls-6{letter-spacing:-0.01em;}.cls-7{letter-spacing:-0.01em;}.cls-10,.cls-8{fill:#fff;}.cls-9{letter-spacing:0.01em;}.cls-11,.cls-12{stroke-miterlimit:10;}.cls-11{stroke-width:0.75px;}.cls-12{stroke-width:0.5px;}</style><clipPath id="clip-path" transform="translate(8.55 -0.11)"><rect class="cls-1" width="154" height="253" rx="9.78"/></clipPath><clipPath id="clip-path-2" transform="translate(8.55 -0.11)"><rect class="cls-1" x="-1.43" y="-1.42" width="156.85" height="255.84"/></clipPath></defs><g id="Capa_2" data-name="Capa 2"><g id="Capa_1-2" data-name="Capa 1"><g class="cls-2"><g class="cls-3"><g class="cls-3"><rect x="0.5" y="126.32" width="170.11" height="134.59"/><rect class="cls-4" x="0.5" y="126.32" width="170.11" height="134.59"/></g><text class="cls-5" transform="translate(21.97 19.17)">TRANQUILI<tspan class="cls-6" x="50.18" y="0">D</tspan><tspan x="56.72" y="0">AD/SERENI</tspan><tspan class="cls-7" x="107.33" y="0">D</tspan><tspan x="113.88" y="0">AD</tspan></text><text class="cls-8" transform="translate(126.43 233.19) rotate(180)">ANGUST<tspan class="cls-9" x="36.62" y="0">I</tspan><tspan x="39.95" y="0">A/MIEDO</tspan></text><g class="cls-3"><path class="cls-10" d="M45.05,176.46c-.23,17.41,13.86,31.56,31.67,31.79A31.65,31.65,0,0,0,109,176.78c.17-17.33-13.78-31.32-31.56-31.67a31.61,31.61,0,0,0-32.35,31.35m-2.43.13c0-18.41,15.64-33.83,34.29-33.89s34.42,15.39,34.47,33.94-15.67,34-34.4,34-34.4-15.52-34.36-34" transform="translate(8.55 -0.11)"/><path class="cls-10" d="M69,161.75c1,2.31,3.22,3.57,5.56,2.57a6.07,6.07,0,0,1,5,0A4.07,4.07,0,0,0,85,161.75Zm-3-.85c-2.27.07-3.47,1.14-3.64,3.27a7.23,7.23,0,0,0,2.39,5.91c5.66,5.53,18.91,5.53,24.59,0a7.17,7.17,0,0,0,2.38-5.9C91.5,162,90.37,160.91,88,161c-1,3-2.77,5.39-6,5.74a46.11,46.11,0,0,1-10.17,0c-3.19-.36-5-2.77-6-5.81m1.26-2.35a31.11,31.11,0,0,0,5.81.88c4.09,0,8.19-.36,12.28-.74,3-.28,5.94-.4,7.8,2.57s1.14,5.7-.52,8.4a9.23,9.23,0,0,1-1.16,1.48c-6.8,7.21-22,7.33-28.72.05a11.86,11.86,0,0,1-2.65-5.34c-.88-4.19,2.06-7.35,7.16-7.3" transform="translate(8.55 -0.11)"/><path class="cls-10" d="M88.09,183.86a3.65,3.65,0,1,0,3.81-3.59,3.56,3.56,0,0,0-3.81,3.59m-2.41,0A6.05,6.05,0,1,1,91.63,190a6.27,6.27,0,0,1-5.95-6.17" transform="translate(8.55 -0.11)"/><path class="cls-10" d="M62.24,180.26a3.69,3.69,0,1,0,.17,7.38A3.48,3.48,0,0,0,65.9,184a3.53,3.53,0,0,0-3.66-3.73m-6,3.63a6.06,6.06,0,1,1,6,6.13,6.24,6.24,0,0,1-6-6.13" transform="translate(8.55 -0.11)"/><path class="cls-10" d="M62.22,195.9c-4.61,0-7.88-1.87-10-5.54-.33-.57,0-1.5,0-2.26.66.31,1.63.44,2,1,2.13,3.48,5.18,4.82,9.21,4.41a7.3,7.3,0,0,1,2.43.66,17.21,17.21,0,0,1-2.16,1.6,3.39,3.39,0,0,1-1.36.18" transform="translate(8.55 -0.11)"/><path class="cls-10" d="M89.5,193.23c4.83.87,8.2-.48,10.51-4.33.25-.43,1.09-.51,1.66-.76.1.67.5,1.47.26,2-1.88,4.23-8,6.91-12.39,5.45-.55-.19-.88-1-1.31-1.56l1.27-.79" transform="translate(8.55 -0.11)"/><path d="M108.89,76.18A31.6,31.6,0,0,0,77.3,44.81c-18,0-32.2,13.9-32.2,31.53,0,17.23,14.35,31.23,32,31.22a31.6,31.6,0,0,0,31.81-31.38m2.12,0c0,18.57-15.24,33.47-34.18,33.46A33.73,33.73,0,0,1,43,76c0-18.34,15.33-33.29,34.07-33.27s34,15,34,33.45" transform="translate(8.55 -0.11)"/><path class="cls-11" d="M108.89,76.18A31.6,31.6,0,0,0,77.3,44.81c-18,0-32.2,13.9-32.2,31.53,0,17.23,14.35,31.23,32,31.22A31.6,31.6,0,0,0,108.89,76.18Zm2.12,0c0,18.57-15.24,33.47-34.18,33.46A33.73,33.73,0,0,1,43,76c0-18.34,15.33-33.29,34.07-33.27S111,57.73,111,76.18Z" transform="translate(8.55 -0.11)"/><path d="M76.21,95.25a20.35,20.35,0,0,1-14.14-5.87,23.72,23.72,0,0,1-2.43-3.12,1.09,1.09,0,0,1,.21-1.69c.57-.33,1.15-.09,1.6.64a16.32,16.32,0,0,0,11.29,7.51,19.63,19.63,0,0,0,16-3.28,14,14,0,0,0,3.84-4.26c.42-.72,1-.94,1.6-.6s.64.93.22,1.64a18.13,18.13,0,0,1-10,7.82,24.06,24.06,0,0,1-8.15,1.21" transform="translate(8.55 -0.11)"/><path class="cls-11" d="M76.21,95.25a20.35,20.35,0,0,1-14.14-5.87,23.72,23.72,0,0,1-2.43-3.12,1.09,1.09,0,0,1,.21-1.69c.57-.33,1.15-.09,1.6.64a16.32,16.32,0,0,0,11.29,7.51,19.63,19.63,0,0,0,16-3.28,14,14,0,0,0,3.84-4.26c.42-.72,1-.94,1.6-.6s.64.93.22,1.64a18.13,18.13,0,0,1-10,7.82A24.06,24.06,0,0,1,76.21,95.25Z" transform="translate(8.55 -0.11)"/><path d="M88.87,72.33a5.56,5.56,0,0,1-5.32-4.08,1.06,1.06,0,1,1,2-.57,3.43,3.43,0,0,0,6.62,0c.25-.74.71-1,1.34-.87s.85.71.67,1.45a5.57,5.57,0,0,1-5.34,4.07" transform="translate(8.55 -0.11)"/><path class="cls-11" d="M88.87,72.33a5.56,5.56,0,0,1-5.32-4.08,1.06,1.06,0,1,1,2-.57,3.43,3.43,0,0,0,6.62,0c.25-.74.71-1,1.34-.87s.85.71.67,1.45A5.57,5.57,0,0,1,88.87,72.33Z" transform="translate(8.55 -0.11)"/><path d="M65.1,72.33a5.57,5.57,0,0,1-5.28-4c-.22-.78,0-1.35.59-1.55s1.14.11,1.42,1a3.43,3.43,0,0,0,6.58,0c.24-.77.75-1.1,1.38-.91s.85.77.64,1.52a5.57,5.57,0,0,1-5.33,4" transform="translate(8.55 -0.11)"/><path class="cls-11" d="M65.1,72.33a5.57,5.57,0,0,1-5.28-4c-.22-.78,0-1.35.59-1.55s1.14.11,1.42,1a3.43,3.43,0,0,0,6.58,0c.24-.77.75-1.1,1.38-.91s.85.77.64,1.52A5.57,5.57,0,0,1,65.1,72.33Z" transform="translate(8.55 -0.11)"/></g></g></g></g><g id="Layer_2" data-name="Layer 2"><rect class="cls-12" x="9.02" y="0.25" width="153.07" height="252.28" rx="9.74"/></g></g></svg>