<svg xmlns="http://www.w3.org/2000/svg" xmlns:xlink="http://www.w3.org/1999/xlink" viewBox="0 0 171.11 261.42"><defs><style>.cls-1,.cls-10,.cls-4{fill:none;}.cls-2{clip-path:url(#clip-path);}.cls-3{clip-path:url(#clip-path-2);}.cls-10,.cls-4{stroke:#000;}.cls-5,.cls-6{font-size:10.03px;font-family:Cambria;}.cls-6,.cls-9{fill:#fff;}.cls-7{letter-spacing:-0.01em;}.cls-8{letter-spacing:-0.01em;}.cls-10{stroke-miterlimit:10;stroke-width:0.5px;}</style><clipPath id="clip-path" transform="translate(8.55 -0.11)"><rect class="cls-1" width="154" height="253" rx="9.78"/></clipPath><clipPath id="clip-path-2" transform="translate(8.55 -0.11)"><rect class="cls-1" x="-1.43" y="-1.42" width="156.85" height="255.84"/></clipPath></defs><g id="Capa_2" data-name="Capa 2"><g id="Capa_1-2" data-name="Capa 1"><g class="cls-2"><g class="cls-3"><g class="cls-3"><rect x="0.5" y="126.32" width="170.11" height="134.59"/><rect class="cls-4" x="0.5" y="126.32" width="170.11" height="134.59"/></g><text class="cls-5" transform="translate(37.17 19.17)">SORPRESA/ASOMBRO</text><text class="cls-6" transform="translate(121.09 233.19) rotate(180)">ABURRIMIE<tspan class="cls-7" x="51.78" y="0">N</tspan><tspan class="cls-8" x="58.49" y="0">T</tspan><tspan x="64.3" y="0">O</tspan></text><g class="cls-3"><path class="cls-9" d="M77,208.25a31.6,31.6,0,1,0,.09-63.19c-16.29-.08-33,13.1-31.91,33.6.87,16.65,15,29.59,31.82,29.59M111.38,177a34.39,34.39,0,1,1-32.6-34.29A34.09,34.09,0,0,1,111.38,177" transform="translate(8.55 -0.11)"/><path class="cls-9" d="M67,155.87H87.51c.19,4.36-4,8.38-9,8.75-6.21.46-10.95-3.1-11.5-8.75" transform="translate(8.55 -0.11)"/><path class="cls-9" d="M98,172.75c.43,1.07.8,2,1.22,3l-11.1,4.56c-.44-1-.85-1.89-1.32-3l11.2-4.6" transform="translate(8.55 -0.11)"/><path class="cls-9" d="M53.84,175.74l1.28-3,11.14,4.56c-.42,1-.81,1.94-1.25,3l-11.17-4.57" transform="translate(8.55 -0.11)"/><path d="M77,107.56A31.58,31.58,0,1,0,45.25,76,31.68,31.68,0,0,0,77,107.56m0,2.76A34.34,34.34,0,1,1,111.38,76,34.43,34.43,0,0,1,77,110.32" transform="translate(8.55 -0.11)"/><path d="M82.45,92.13a9.59,9.59,0,0,0-1.75-5.87,4.5,4.5,0,0,0-7.52,0,9.58,9.58,0,0,0,0,11,4.5,4.5,0,0,0,7.57,0,8.8,8.8,0,0,0,1.73-5.12m2.77-.24a11.19,11.19,0,0,1-3.09,7.89,7,7,0,0,1-10.39,0,11.31,11.31,0,0,1-3-9.34,11,11,0,0,1,2.2-5.75c3.26-4.3,8.84-4.27,12,.07a11.9,11.9,0,0,1,2.23,7.14" transform="translate(8.55 -0.11)"/><path d="M96.46,62.06a1.6,1.6,0,0,1,0,.49c0,.16-.18.39-.3.41a.63.63,0,0,1-.5-.24c-.2-.26-.31-.59-.5-.86-.34-.5-.68-1-1.05-1.47A13.34,13.34,0,0,0,91.33,58a10,10,0,0,0-2.9-1.21,1.11,1.11,0,0,1-.9-1.06,1.06,1.06,0,0,1,1.27-1.16,9.2,9.2,0,0,1,3.41,1.31,12.24,12.24,0,0,1,2,1.56,7.18,7.18,0,0,1,2.3,4.65" transform="translate(8.55 -0.11)"/><path d="M57.64,62.07a6.46,6.46,0,0,1,1.16-3.26,10.58,10.58,0,0,1,2.73-2.69,9.84,9.84,0,0,1,3.65-1.55,1.09,1.09,0,0,1,1.38.74,1.15,1.15,0,0,1-.8,1.43l-.18,0a11.33,11.33,0,0,0-7.07,5.86A.45.45,0,0,1,58,63c-.27,0-.33-.25-.33-.49,0-.08,0-.15,0-.23s0-.13,0-.19" transform="translate(8.55 -0.11)"/><path d="M66.5,65.36a2.91,2.91,0,0,0-3.11,2.93,3,3,0,0,0,6.09.19,3,3,0,0,0-3-3.12m5.7,3a5.82,5.82,0,0,1-6,5.64,5.77,5.77,0,0,1,.28-11.54,5.76,5.76,0,0,1,5.77,5.9" transform="translate(8.55 -0.11)"/><path d="M88.57,71.43a3,3,0,1,0-3.06-3.06,3.12,3.12,0,0,0,3.06,3.06m.1,2.57a5.77,5.77,0,1,1,5.68-5.76A5.79,5.79,0,0,1,88.67,74" transform="translate(8.55 -0.11)"/></g></g></g></g><g id="Layer_2" data-name="Layer 2"><rect class="cls-10" x="9.02" y="0.25" width="153.07" height="252.28" rx="9.74"/></g></g></svg>