<svg xmlns="http://www.w3.org/2000/svg" xmlns:xlink="http://www.w3.org/1999/xlink" viewBox="0 0 171.11 261.42"><defs><style>.cls-1,.cls-11,.cls-12,.cls-13,.cls-4{fill:none;}.cls-2{clip-path:url(#clip-path);}.cls-3{clip-path:url(#clip-path-2);}.cls-11,.cls-12,.cls-13,.cls-4{stroke:#000;}.cls-5,.cls-8{font-size:10.03px;font-family:Cambria;}.cls-6{letter-spacing:-0.01em;}.cls-7{letter-spacing:0.01em;}.cls-10,.cls-8{fill:#fff;}.cls-9{letter-spacing:-0.01em;}.cls-11,.cls-12,.cls-13{stroke-miterlimit:10;}.cls-11{stroke-width:1.5px;}.cls-13{stroke-width:0.5px;}</style><clipPath id="clip-path" transform="translate(8.55 -0.11)"><rect class="cls-1" width="154" height="253" rx="9.78"/></clipPath><clipPath id="clip-path-2" transform="translate(8.55 -0.11)"><rect class="cls-1" x="-1.43" y="-1.42" width="156.85" height="255.84"/></clipPath></defs><g id="Capa_2" data-name="Capa 2"><g id="Capa_1-2" data-name="Capa 1"><g class="cls-2"><g class="cls-3"><g class="cls-3"><rect x="0.5" y="126.32" width="170.11" height="134.59"/><rect class="cls-4" x="0.5" y="126.32" width="170.11" height="134.59"/></g><text class="cls-5" transform="translate(22.4 19.17)">COMPROMISO/E<tspan class="cls-6" x="72.49" y="0">N</tspan><tspan x="79.19" y="0">TUS</tspan><tspan class="cls-7" x="96.61" y="0">I</tspan><tspan x="99.94" y="0">ASMO</tspan></text><text class="cls-8" transform="translate(140.41 233.19) rotate(180)">DESI<tspan class="cls-9" x="20.63" y="0">N</tspan><tspan x="27.33" y="0">TERÉS/DESÁNIMO</tspan></text><g class="cls-3"><path class="cls-10" d="M45.05,176c-.23,17.18,13.86,31.15,31.67,31.37A31.46,31.46,0,0,0,109,176.33c.17-17.1-13.78-30.91-31.56-31.25A31.42,31.42,0,0,0,45.05,176m-2.43.13c0-18.17,15.64-33.4,34.29-33.45s34.42,15.19,34.47,33.5S95.71,209.78,77,209.76s-34.4-15.32-34.36-33.61" transform="translate(8.55 -0.11)"/><path class="cls-10" d="M76,158.85c3.11,0,6.23,0,9.34,0,1.14,0,2,.34,2.07,1.5s-.83,1.62-2,1.62H66.57c-1.12,0-2-.39-2-1.59s.9-1.54,2-1.53c3.11,0,6.22,0,9.34,0" transform="translate(8.55 -0.11)"/><path class="cls-10" d="M87.72,177.44a9.88,9.88,0,0,1,8.69,5c.31.52-.09,1.42-.16,2.15-.62-.33-1.47-.5-1.82-1-3.45-4.89-9.36-5-13.18-.35a2.21,2.21,0,0,1-1.85.7c-1.06-.5-.55-1.37,0-2.09a10.21,10.21,0,0,1,8.36-4.38" transform="translate(8.55 -0.11)"/><path class="cls-10" d="M65,176.74a9.43,9.43,0,0,1,7.66,4.87c.31.52,0,1.43-.08,2.15-.62-.28-1.49-.39-1.83-.86-3.61-5-9.31-5.18-13.28-.39-.36.44-1.26.45-1.91.67,0-.69-.24-1.52.07-2,1.58-2.71,5-4.42,9.37-4.4" transform="translate(8.55 -0.11)"/><path class="cls-10" d="M57.23,187.23a73.26,73.26,0,0,1,12.89,2.87c-1.53.86-12.08-1.49-12.89-2.87" transform="translate(8.55 -0.11)"/><path class="cls-10" d="M95.28,188.68a12.21,12.21,0,0,1-1.6.49c-3.13.5-6.26,1-9.4,1.42-.39.06-.82-.22-1.24-.34.31-.29.59-.76.94-.82,3.36-.57,6.74-1.07,10.11-1.55a3.46,3.46,0,0,1,1.12.21c0,.2,0,.4.07.59" transform="translate(8.55 -0.11)"/><path d="M76.9,108.44c18,0,32.84-14.4,32.9-32.1S95.09,43.92,77,43.92,44.22,58.41,44.19,76.14s14.71,32.27,32.71,32.3m33.73-32.21c0,18.21-15.25,33.12-33.74,33S43.31,94.29,43.37,76C43.43,57.91,58.59,43.07,77,43.11c18.59,0,33.67,14.89,33.65,33.12" transform="translate(8.55 -0.11)"/><path class="cls-11" d="M76.9,108.44c18,0,32.84-14.4,32.9-32.1S95.09,43.92,77,43.92,44.22,58.41,44.19,76.14,58.9,108.41,76.9,108.44Zm33.73-32.21c0,18.21-15.25,33.12-33.74,33S43.31,94.29,43.37,76C43.43,57.91,58.59,43.07,77,43.11,95.57,43.15,110.65,58,110.63,76.23Z" transform="translate(8.55 -0.11)"/><path d="M84.5,99a7.93,7.93,0,0,0-14.92-.27A21.35,21.35,0,0,0,84.5,99M95.59,80.86c-12.13,5.92-24.15,5.82-36.16,0-.31,4.45-.29,4.41,3.53,6a37.68,37.68,0,0,0,29.29-.06c3.57-1.45,3.58-1.43,3.34-5.93m-.33,5.5c-12,5.68-23.64,5.57-35.5,0,1.43,5.5,4,9.39,8.75,11.8,2-3.52,4.84-5.49,8.78-5.38s6.6,2.37,8.4,5.77c5.28-2.33,8-6.34,9.57-12.21M94.54,80h-1.9c0-.24,0-.45.09-.48,2.31-.93,3.6-.43,4.89,1.52a10.34,10.34,0,0,0-1,2.43c-.91,8.69-5.62,14.74-13.17,16.8-13.06,3.55-23.89-3.93-25-17.29,0-.55-.06-1.1-.11-1.88L56.75,82c1.17-2.88,2.77-3.51,5.6-2.19l-2.19.4c11.72,5.57,23.07,5.55,34.38-.22" transform="translate(8.55 -0.11)"/><path class="cls-12" d="M84.5,99a7.93,7.93,0,0,0-14.92-.27A21.35,21.35,0,0,0,84.5,99ZM95.59,80.86c-12.13,5.92-24.15,5.82-36.16,0-.31,4.45-.29,4.41,3.53,6a37.68,37.68,0,0,0,29.29-.06C95.82,85.34,95.83,85.36,95.59,80.86Zm-.33,5.5c-12,5.68-23.64,5.57-35.5,0,1.43,5.5,4,9.39,8.75,11.8,2-3.52,4.84-5.49,8.78-5.38s6.6,2.37,8.4,5.77C91,96.24,93.74,92.23,95.26,86.36ZM94.54,80h-1.9c0-.24,0-.45.09-.48,2.31-.93,3.6-.43,4.89,1.52a10.34,10.34,0,0,0-1,2.43c-.91,8.69-5.62,14.74-13.17,16.8-13.06,3.55-23.89-3.93-25-17.29,0-.55-.06-1.1-.11-1.88L56.75,82c1.17-2.88,2.77-3.51,5.6-2.19l-2.19.4C71.88,85.81,83.23,85.79,94.54,80Z" transform="translate(8.55 -0.11)"/><path d="M67.11,65.51a6.6,6.6,0,0,1,4.21,2.06c.18.18.44.38.55.52.29.36.6,1.18.46,1.39a1.58,1.58,0,0,1-1.59.61c-2.4-.74-4.73-1.11-7.14,0a1.36,1.36,0,0,1-1.27-.26,1.81,1.81,0,0,1-.11-1.49c.89-2,2.73-2.65,4.89-2.8" transform="translate(8.55 -0.11)"/><path d="M87.57,65.37a5.36,5.36,0,0,1,4.08,2.73,2.6,2.6,0,0,1,0,1.68,1.47,1.47,0,0,1-1.49.25,7.54,7.54,0,0,0-6.4-.06c-.68.27-2,.16-2.18-.38-.18-.73.54-1.56,1-2,1.35-1,2.41-2.13,4.94-2.27" transform="translate(8.55 -0.11)"/><path d="M58.93,62.15c2-3.76,5.07-4.84,9.38-2.67a3.64,3.64,0,0,1-2.57.7,4.89,4.89,0,0,0-4.88,2c-.31.44-1.28,1-1.7.78a.59.59,0,0,1-.23-.83" transform="translate(8.55 -0.11)"/><path d="M95.11,62.57a1.13,1.13,0,0,1-1,.45c-2.43-3.55-7.7-2.6-7.91-3.38,2.83-2.55,7.42-1.27,8.91,2.93" transform="translate(8.55 -0.11)"/></g></g></g><rect class="cls-13" x="9.02" y="0.25" width="153.07" height="252.28" rx="9.74"/></g></g></svg>