<svg xmlns="http://www.w3.org/2000/svg" xmlns:xlink="http://www.w3.org/1999/xlink" viewBox="0 0 171.11 261.42"><defs><style>.cls-1,.cls-10,.cls-12,.cls-13,.cls-14,.cls-4{fill:none;}.cls-2{clip-path:url(#clip-path);}.cls-3{clip-path:url(#clip-path-2);}.cls-10,.cls-12,.cls-13,.cls-14,.cls-4{stroke:#000;}.cls-5,.cls-7{font-size:10.03px;font-family:Cambria;}.cls-6{letter-spacing:-0.01em;}.cls-11,.cls-7{fill:#fff;}.cls-8{letter-spacing:0.01em;}.cls-9{letter-spacing:-0.09em;}.cls-10,.cls-12,.cls-13,.cls-14{stroke-miterlimit:10;}.cls-10{stroke-width:1.97px;}.cls-12{stroke-width:0.75px;}.cls-14{stroke-width:0.5px;}</style><clipPath id="clip-path" transform="translate(8.55 -0.11)"><rect class="cls-1" width="154" height="253" rx="9.78"/></clipPath><clipPath id="clip-path-2" transform="translate(8.55 -0.11)"><rect class="cls-1" x="-1.43" y="-1.42" width="156.85" height="255.84"/></clipPath></defs><g id="Capa_2" data-name="Capa 2"><g id="Capa_1-2" data-name="Capa 1"><g class="cls-2"><g class="cls-3"><g class="cls-3"><rect x="0.5" y="126.32" width="170.11" height="134.59"/><rect class="cls-4" x="0.5" y="126.32" width="170.11" height="134.59"/></g><text class="cls-5" transform="translate(64.19 19.17)">ORGUL<tspan class="cls-6" x="30.79" y="0">L</tspan><tspan x="36.05" y="0">O</tspan></text><text class="cls-7" transform="translate(129.94 233.19) rotate(180)">VERGÜEN<tspan class="cls-8" x="43.27" y="0">Z</tspan><tspan x="48.72" y="0">A/CUL</tspan><tspan class="cls-9" x="77.4" y="0">P</tspan><tspan x="82.24" y="0">A</tspan></text><g class="cls-3"><path d="M77.06,44.11c-18.12,0-32.83,14.37-32.83,32.09S59,108.41,77,108.4s32.73-14.54,32.73-32.28-14.7-32-32.71-32M77,109c-18.63,0-33.43-14.61-33.4-33,0-18.1,15-32.72,33.49-32.7a33.07,33.07,0,0,1,33.29,32.9C110.37,94.46,95.53,109,77,109" transform="translate(8.55 -0.11)"/><path class="cls-10" d="M77.06,44.11c-18.12,0-32.83,14.37-32.83,32.09S59,108.41,77,108.4s32.73-14.54,32.73-32.28S95.07,44.12,77.06,44.11ZM77,109c-18.63,0-33.43-14.61-33.4-33,0-18.1,15-32.72,33.49-32.7a33.07,33.07,0,0,1,33.29,32.9C110.37,94.46,95.53,109,77,109Z" transform="translate(8.55 -0.11)"/><path d="M69.15,85.76l.71-1.68a36.34,36.34,0,0,0,5.77.74c3.24-.14,10.57.66,10.72-1.36,0-.33.31.73,1,1.22-.11.36-.23.72-.35,1.08Z" transform="translate(8.55 -0.11)"/><path d="M55.7,82.31c.12-.21.41-.68.78-1.3l-1.43-.84c.14-.23.29-.57.35-.55.67.18,1.57.21,1.93.67,2.08,2.6,5.07,3.59,7.6,2,1.27-.81,2.1-2.32,3.37-3.8a4.17,4.17,0,0,1-1.12,4,7.29,7.29,0,0,1-8.82.93,15.83,15.83,0,0,0-2.66-1" transform="translate(8.55 -0.11)"/><path d="M98.71,76.53c-.24,1.78-.36,2.68-.51,3.81a39,39,0,0,1-3.77,2.44c-3.1,1.6-6.19.29-7.05-2.85,0-.13,0-.28.11-.61a5.71,5.71,0,0,1,1.05.62c3,2.88,6.27,2.31,8.24-1.37a11.52,11.52,0,0,1,1.93-2" transform="translate(8.55 -0.11)"/><path d="M58.73,72.17A45.41,45.41,0,0,1,62.26,67,2.38,2.38,0,0,1,65,66.5c.29.17.91,1.38.71,1.83a4.28,4.28,0,0,1-1.85,1.77c-1.5.83-3.1,1.47-4.67,2.18l-.48-.11" transform="translate(8.55 -0.11)"/><path d="M94.86,70.68c-1.65-.68-3.06-1-4-1.76A4.26,4.26,0,0,1,89.45,66a1.31,1.31,0,0,1,2.24-1,9.42,9.42,0,0,1,3.17,5.72" transform="translate(8.55 -0.11)"/><path class="cls-11" d="M53.09,157.51a31.06,31.06,0,0,1,41-6.13,29.8,29.8,0,0,1,11.44,36.39A8.35,8.35,0,0,0,97.15,182a1.64,1.64,0,0,0,.67-2.36,7.62,7.62,0,0,0-6.44-5,9.32,9.32,0,0,0-6.56,1.21,7.19,7.19,0,0,0-3.27,4.43,1.44,1.44,0,0,0,1,1.85,1.41,1.41,0,0,0,1.79-1c1-4.23,6.79-4.56,9.2-2.59a6.68,6.68,0,0,1,1.53,2.07c.31.61.51,1.23,1.45,1.42-.69.19-1.2.3-1.68.48a8.09,8.09,0,0,0-5.34,8.74,28.45,28.45,0,0,0,3.22,9.06c.28.55.58,1.1.86,1.64-10.08,6.77-26.63,7.24-38.12-3.85a29.86,29.86,0,0,1-2.35-40.58m51,33.33a26.3,26.3,0,0,1-1.44,5.26,49.13,49.13,0,0,1-5.07,9.43c-1.07-1.84-2.11-3.51-3-5.23a29.26,29.26,0,0,1-3.39-8.78,6.56,6.56,0,1,1,13-.68m-60.52-8.17c3.82,20.34,25.6,32.47,45.29,25.18,2.2-.82,4.28-1.93,6.46-2.93.69,1,1.46,2.16,2.25,3.35.19-.24.34-.41.47-.59a59.26,59.26,0,0,0,6-10.63,6.34,6.34,0,0,1,.57-1,32.37,32.37,0,0,0,5.7-26c-3.66-18.53-22.22-30.34-40.93-26.14a33.5,33.5,0,0,0-25.82,38.74" transform="translate(8.55 -0.11)"/><path class="cls-12" d="M53.09,157.51a31.06,31.06,0,0,1,41-6.13,29.8,29.8,0,0,1,11.44,36.39A8.35,8.35,0,0,0,97.15,182a1.64,1.64,0,0,0,.67-2.36,7.62,7.62,0,0,0-6.44-5,9.32,9.32,0,0,0-6.56,1.21,7.19,7.19,0,0,0-3.27,4.43,1.44,1.44,0,0,0,1,1.85,1.41,1.41,0,0,0,1.79-1c1-4.23,6.79-4.56,9.2-2.59a6.68,6.68,0,0,1,1.53,2.07c.31.61.51,1.23,1.45,1.42-.69.19-1.2.3-1.68.48a8.09,8.09,0,0,0-5.34,8.74,28.45,28.45,0,0,0,3.22,9.06c.28.55.58,1.1.86,1.64-10.08,6.77-26.63,7.24-38.12-3.85A29.86,29.86,0,0,1,53.09,157.51Zm51,33.33a26.3,26.3,0,0,1-1.44,5.26,49.13,49.13,0,0,1-5.07,9.43c-1.07-1.84-2.11-3.51-3-5.23a29.26,29.26,0,0,1-3.39-8.78,6.56,6.56,0,1,1,13-.68Zm-60.52-8.17c3.82,20.34,25.6,32.47,45.29,25.18,2.2-.82,4.28-1.93,6.46-2.93.69,1,1.46,2.16,2.25,3.35.19-.24.34-.41.47-.59a59.26,59.26,0,0,0,6-10.63,6.34,6.34,0,0,1,.57-1,32.37,32.37,0,0,0,5.7-26c-3.66-18.53-22.22-30.34-40.93-26.14A33.5,33.5,0,0,0,43.57,182.67Z" transform="translate(8.55 -0.11)"/><path class="cls-11" d="M77,164.34c-4.17-.06-8.07-1-11.37-3.66a16.06,16.06,0,0,1-2.27-2.32,1.91,1.91,0,0,1,.26-2.87,2,2,0,0,1,2.86.58,11.22,11.22,0,0,0,7.07,4.06,16.14,16.14,0,0,0,10.59-1.26A9.71,9.71,0,0,0,87.57,156a2,2,0,0,1,2.82-.51,1.92,1.92,0,0,1,.3,2.81,14.1,14.1,0,0,1-7.92,5.21c-1.87.49-3.83.68-5.74,1a1.06,1.06,0,0,1,0-.19" transform="translate(8.55 -0.11)"/><path class="cls-13" d="M77,164.34c-4.17-.06-8.07-1-11.37-3.66a16.06,16.06,0,0,1-2.27-2.32,1.91,1.91,0,0,1,.26-2.87,2,2,0,0,1,2.86.58,11.22,11.22,0,0,0,7.07,4.06,16.14,16.14,0,0,0,10.59-1.26A9.71,9.71,0,0,0,87.57,156a2,2,0,0,1,2.82-.51,1.92,1.92,0,0,1,.3,2.81,14.1,14.1,0,0,1-7.92,5.21c-1.87.49-3.83.68-5.74,1A1.06,1.06,0,0,1,77,164.34Z" transform="translate(8.55 -0.11)"/><path class="cls-11" d="M64.22,174.45c4.12,0,7.37,2.32,8.27,5.86a1.45,1.45,0,0,1-1.56,1.88,1.33,1.33,0,0,1-1.24-1.06c-1-4.3-7-4.61-9.34-2.5a6.8,6.8,0,0,0-1.49,2.19c-.45.94-1.08,1.41-1.92,1.14a1.46,1.46,0,0,1-.88-2.07c1.09-3.17,3.44-4.8,6.7-5.3.48-.08,1-.09,1.46-.14" transform="translate(8.55 -0.11)"/><path class="cls-13" d="M64.22,174.45c4.12,0,7.37,2.32,8.27,5.86a1.45,1.45,0,0,1-1.56,1.88,1.33,1.33,0,0,1-1.24-1.06c-1-4.3-7-4.61-9.34-2.5a6.8,6.8,0,0,0-1.49,2.19c-.45.94-1.08,1.41-1.92,1.14a1.46,1.46,0,0,1-.88-2.07c1.09-3.17,3.44-4.8,6.7-5.3C63.24,174.51,63.73,174.5,64.22,174.45Z" transform="translate(8.55 -0.11)"/></g></g></g><rect class="cls-14" x="9.02" y="0.25" width="153.07" height="252.28" rx="9.74"/></g></g></svg>