<svg xmlns="http://www.w3.org/2000/svg" xmlns:xlink="http://www.w3.org/1999/xlink" viewBox="0 0 171.11 261.42"><defs><style>.cls-1,.cls-11,.cls-12,.cls-4{fill:none;}.cls-2{clip-path:url(#clip-path);}.cls-3{clip-path:url(#clip-path-2);}.cls-12,.cls-4{stroke:#000;}.cls-5,.cls-8{font-size:10.03px;font-family:Cambria;}.cls-6{letter-spacing:0.01em;}.cls-7{letter-spacing:0em;}.cls-10,.cls-8{fill:#fff;}.cls-9{letter-spacing:0.01em;}.cls-11{stroke:#fff;stroke-width:0.75px;}.cls-11,.cls-12{stroke-miterlimit:10;}.cls-12{stroke-width:0.5px;}</style><clipPath id="clip-path" transform="translate(8.55 -0.11)"><rect class="cls-1" width="154" height="253" rx="9.78"/></clipPath><clipPath id="clip-path-2" transform="translate(8.55 -0.11)"><rect class="cls-1" x="-1.43" y="-1.42" width="156.85" height="255.84"/></clipPath></defs><g id="Capa_2" data-name="Capa 2"><g id="Capa_1-2" data-name="Capa 1"><g class="cls-2"><g class="cls-3"><g class="cls-3"><rect x="0.5" y="126.32" width="170.11" height="134.59"/><rect class="cls-4" x="0.5" y="126.32" width="170.11" height="134.59"/></g><text class="cls-5" transform="translate(58.86 19.17)">ESPERAN<tspan class="cls-6" x="41.51" y="0">Z</tspan><tspan class="cls-7" x="46.97" y="0">A</tspan></text><text class="cls-8" transform="translate(120.96 233.19) rotate(180)">DESESPERAN<tspan class="cls-9" x="58.89" y="0">Z</tspan><tspan x="64.34" y="0">A</tspan></text><g class="cls-3"><path d="M76.84,45.17a31,31,0,1,0,30.94,31.17A31,31,0,0,0,76.84,45.17m.07-3A33.9,33.9,0,1,1,42.78,76,34,34,0,0,1,76.91,42.21" transform="translate(8.55 -0.11)"/><path d="M100,43.2c-.24-1-.84-2.05-.55-2.61,1.42-2.69,3-5.28,4.7-7.82a2.1,2.1,0,0,1,1.82-.55c.35.07.91,1.17.75,1.46-1.69,3-3.5,5.91-5.31,8.83-.14.22-.54.28-1.41.69" transform="translate(8.55 -0.11)"/><path d="M114.71,43.3a9.31,9.31,0,0,1-1.29,1.4c-2.22,1.58-4.42,3.19-6.75,4.59-.59.35-1.64-.06-2.47-.12.26-.74.3-1.76.83-2.17,2.21-1.71,4.54-3.28,6.9-4.79a3,3,0,0,1,2-.17c.3.06.48.72.8,1.26" transform="translate(8.55 -0.11)"/><path d="M94.93,30.34c-.69,3.39-1.23,6.38-2,9.32-.13.52-1.14.82-1.74,1.22-.34-.64-1-1.33-1-1.9.44-2.92,1-5.83,1.73-8.7A2.18,2.18,0,0,1,93.65,29c.48,0,.95.94,1.28,1.3" transform="translate(8.55 -0.11)"/><path d="M77.33,78.62A27.84,27.84,0,0,1,63.71,75c-.64-.36-.87-1.47-1.29-2.22.9-.11,2-.61,2.67-.26,7.87,4,15.64,4.62,23.49-.07.57-.35,1.64.15,2.48.26-.31.72-.42,1.69-1,2.13-2.73,2.22-8.28,3.79-12.76,3.8" transform="translate(8.55 -0.11)"/><path d="M63,59.85a28.16,28.16,0,0,1,4,2.2c.42.32.27,1.36.38,2.08-.66.08-1.55.48-1.94.2-1.57-1.13-2.92-1.48-4.5,0a1.88,1.88,0,0,1-1.84-.25,1.85,1.85,0,0,1,.09-1.84A33.89,33.89,0,0,1,63,59.85" transform="translate(8.55 -0.11)"/><path d="M90.14,59.88A28.09,28.09,0,0,1,94.07,62c.44.33.35,1.36.51,2.06-.72.1-1.68.53-2.11.22-1.51-1.07-2.77-1.38-4.3,0-.34.31-1.37-.13-2.09-.22.1-.66,0-1.6.35-1.9a29.64,29.64,0,0,1,3.71-2.25" transform="translate(8.55 -0.11)"/><path class="cls-10" d="M61,186.13a4.06,4.06,0,1,1,4,4,4,4,0,0,1-4-4" transform="translate(8.55 -0.11)"/><path class="cls-10" d="M85.68,186.13a4.06,4.06,0,1,1,4,4,4,4,0,0,1-4-4" transform="translate(8.55 -0.11)"/><path class="cls-10" d="M45.08,176.36a31.79,31.79,0,0,0,31.67,31.83c17.76,0,32.14-14.05,32.17-31.48a31.92,31.92,0,0,0-63.84-.35M77,142.65a33.81,33.81,0,1,1-34,33.79,34,34,0,0,1,34-33.79" transform="translate(8.55 -0.11)"/><path class="cls-11" d="M45.08,176.36a31.79,31.79,0,0,0,31.67,31.83c17.76,0,32.14-14.05,32.17-31.48a31.92,31.92,0,0,0-63.84-.35ZM77,142.65a33.81,33.81,0,1,1-34,33.79A34,34,0,0,1,77,142.65Z" transform="translate(8.55 -0.11)"/><path class="cls-10" d="M89.51,175.84a17.33,17.33,0,0,1-2.6-1.87c-1-1-1.72-1.1-2.77,0-2.19,2.26-3.59,2.25-5.79,0-1-1.09-1.77-1-2.76.06-2.11,2.17-3.54,2.13-5.71,0-1.32-1.29-1.45-1.29-2.83.05-2.09,2.05-3.51,2.05-5.6,0a17.94,17.94,0,0,1-2-2.07c-.25-.34-.12-1-.16-1.45.53,0,1.19-.14,1.56.11a15.34,15.34,0,0,1,2,1.89c1.3,1.28,1.57,1.28,2.87.05a6.89,6.89,0,0,1,1.53-1.23c1.35-.7,2.55-.34,4,1,1.55,1.52,1.59,1.52,3.17,0,1.9-1.85,3.46-1.83,5.4.06,1.49,1.44,1.57,1.44,3.06,0,1.93-1.89,3.45-1.89,5.38,0,1.52,1.47,1.66,1.47,3.19,0a22.16,22.16,0,0,1,2-1.9,1.31,1.31,0,0,1,1.2,0c.26.19.48,1,.33,1.12-1.36,1.34-2.79,2.61-4.24,3.86-.19.17-.59.1-.89.15l-.23.28" transform="translate(8.55 -0.11)"/></g></g></g><rect class="cls-12" x="9.02" y="0.25" width="153.07" height="252.28" rx="9.74"/></g></g></svg>