<svg xmlns="http://www.w3.org/2000/svg" xmlns:xlink="http://www.w3.org/1999/xlink" viewBox="0 0 171.11 261.42"><defs><style>.cls-1,.cls-10,.cls-11,.cls-4,.cls-9{fill:none;}.cls-2{clip-path:url(#clip-path);}.cls-3{clip-path:url(#clip-path-2);}.cls-10,.cls-11,.cls-4,.cls-9{stroke:#000;}.cls-5,.cls-7{font-size:10.03px;font-family:Cambria;}.cls-6{letter-spacing:0em;}.cls-7,.cls-8{fill:#fff;}.cls-10,.cls-11,.cls-9{stroke-miterlimit:10;}.cls-9{stroke-width:1.5px;}.cls-11{stroke-width:0.5px;}</style><clipPath id="clip-path" transform="translate(8.55 -0.11)"><rect class="cls-1" width="154" height="253" rx="9.78"/></clipPath><clipPath id="clip-path-2" transform="translate(8.55 -0.11)"><rect class="cls-1" x="-1.43" y="-1.42" width="156.85" height="255.84"/></clipPath></defs><g id="Capa_2" data-name="Capa 2"><g id="Capa_1-2" data-name="Capa 1"><g class="cls-2"><g class="cls-3"><g class="cls-3"><rect x="0.5" y="126.32" width="170.11" height="134.59"/><rect class="cls-4" x="0.5" y="126.32" width="170.11" height="134.59"/></g><text class="cls-5" transform="translate(24.04 19.17)">INSPIR<tspan class="cls-6" x="30.23" y="0">A</tspan><tspan x="36.44" y="0">CIÓN/ADMIR</tspan><tspan class="cls-6" x="94.16" y="0">A</tspan><tspan x="100.37" y="0">CIÓN</tspan></text><text class="cls-7" transform="translate(141.14 233.19) rotate(180)">DESPRECIO/DES<tspan class="cls-6" x="72.81" y="0">A</tspan><tspan x="79.02" y="0">GRADO</tspan></text><g class="cls-3"><path class="cls-8" d="M108.93,176.84c-.09-18-14.27-31.78-32.55-31.71-17,.06-31.41,14.51-31.34,31.44.07,18.38,15.39,32.07,32.75,31.76,16.9-.31,31.23-14.58,31.14-31.49m2.45,3c-.48,2.2-.83,4.44-1.48,6.59a34.27,34.27,0,1,1-38.8-43.2l3.29-.56h5.5a3.09,3.09,0,0,0,.7.25,34,34,0,0,1,29.33,24.16c.66,2.19,1,4.48,1.46,6.72Z" transform="translate(8.55 -0.11)"/><path class="cls-8" d="M69.36,163.49H84.61a7.47,7.47,0,0,1,6.73-6c.81-.06,1.6,0,1.72,1s-.61,1.23-1.43,1.36c-2.87.46-4.7,2.38-4.66,4.88s1.86,4.47,4.71,4.83c.9.11,1.63.51,1.31,1.38a2.05,2.05,0,0,1-1.68,1A7.35,7.35,0,0,1,84.65,166H69.34A7.46,7.46,0,0,1,63,171.93c-.91.16-1.86.2-2-1s.7-1.31,1.65-1.42a4.85,4.85,0,0,0,.08-9.66c-.25,0-.6,0-.74-.11-.39-.37-1-.86-.94-1.26s.72-.95,1.18-1c2.52-.3,5.58,1.77,6.66,4.41.19.46.33.95.53,1.55" transform="translate(8.55 -0.11)"/><path class="cls-8" d="M91.75,183.6a4.44,4.44,0,1,1,4.4-4.44,4.36,4.36,0,0,1-4.4,4.44" transform="translate(8.55 -0.11)"/><path class="cls-8" d="M57.82,179.17a4.49,4.49,0,1,1,4.41,4.43,4.4,4.4,0,0,1-4.41-4.43" transform="translate(8.55 -0.11)"/><path class="cls-8" d="M59.87,188.61c-.25,0-.57.14-.74,0-.47-.27-1.17-.62-1.21-1a1.6,1.6,0,0,1,.92-1.25,6.22,6.22,0,0,1,6.25,1.8,6,6,0,0,1,1.59,6.1c-.11.39-.87.61-1.33.91-.31-.5-1-1-.89-1.49A3.77,3.77,0,0,0,63.39,190a18.08,18.08,0,0,0-3.32-1.76c-.06.14-.13.26-.2.39" transform="translate(8.55 -0.11)"/><path class="cls-8" d="M94,186.19a3.35,3.35,0,0,1,1.34.28,1.52,1.52,0,0,1,.73,1.23c-.06.37-.66.74-1.11.93s-.8,0-1.2,0a4.14,4.14,0,0,0-4.24,4.74c.14.93.07,1.7-.93,1.86s-1.3-.66-1.44-1.53c-.62-3.87,2.44-7.43,6.85-7.46" transform="translate(8.55 -0.11)"/><path class="cls-8" d="M77,161.71a38.11,38.11,0,0,1-4.18-.9c-.44-.14-.67-.9-1-1.37.55-.27,1.19-.87,1.65-.76a13.56,13.56,0,0,0,7.18,0c.42-.12,1,.46,1.55.72-.3.5-.5,1.29-.92,1.42a40.14,40.14,0,0,1-4.28.92" transform="translate(8.55 -0.11)"/><path d="M75.6,106.72a31.06,31.06,0,1,0-31.06-31.1,31.19,31.19,0,0,0,31.06,31.1m32.05-31a31.95,31.95,0,1,1-32-31.89,32,32,0,0,1,32,31.89" transform="translate(8.55 -0.11)"/><path class="cls-9" d="M75.6,106.72a31.06,31.06,0,1,0-31.06-31.1A31.19,31.19,0,0,0,75.6,106.72Zm32.05-31a31.95,31.95,0,1,1-32-31.89A32,32,0,0,1,107.65,75.71Z" transform="translate(8.55 -0.11)"/><path d="M80.66,96.75a5.94,5.94,0,0,0-11.24-.2,15.83,15.83,0,0,0,11.24.2M89,82.92a29.36,29.36,0,0,1-27.25,0c-.23,3.39-.22,3.37,2.66,4.55a28.08,28.08,0,0,0,22.08,0c2.69-1.11,2.69-1.09,2.51-4.53m-.25,4.2c-9,4.34-17.81,4.26-26.75,0,1.08,4.2,3,7.17,6.59,9C70.1,93.46,72.26,92,75.23,92s5,1.81,6.33,4.41c4-1.79,6.07-4.85,7.21-9.33m-.54-4.84H86.8c0-.18,0-.34.07-.36,1.74-.72,2.71-.34,3.68,1.15a7.81,7.81,0,0,0-.76,1.86c-.69,6.64-4.24,11.26-9.93,12.83-9.84,2.71-18-3-18.87-13.21,0-.41-.05-.83-.08-1.43l-1.16.7c.88-2.21,2.09-2.69,4.22-1.68l-1.65.31c8.83,4.25,17.38,4.23,25.91-.17" transform="translate(8.55 -0.11)"/><path class="cls-10" d="M80.66,96.75a5.94,5.94,0,0,0-11.24-.2A15.83,15.83,0,0,0,80.66,96.75ZM89,82.92a29.36,29.36,0,0,1-27.25,0c-.23,3.39-.22,3.37,2.66,4.55a28.08,28.08,0,0,0,22.08,0C89.2,86.34,89.2,86.36,89,82.92Zm-.25,4.2c-9,4.34-17.81,4.26-26.75,0,1.08,4.2,3,7.17,6.59,9C70.1,93.46,72.26,92,75.23,92s5,1.81,6.33,4.41C85.54,94.66,87.63,91.6,88.77,87.12Zm-.54-4.84H86.8c0-.18,0-.34.07-.36,1.74-.72,2.71-.34,3.68,1.15a7.81,7.81,0,0,0-.76,1.86c-.69,6.64-4.24,11.26-9.93,12.83-9.84,2.71-18-3-18.87-13.21,0-.41-.05-.83-.08-1.43l-1.16.7c.88-2.21,2.09-2.69,4.22-1.68l-1.65.31C71.15,86.7,79.7,86.68,88.23,82.28Z" transform="translate(8.55 -0.11)"/><path d="M70.09,70.94c-.15,2.41-1.81,4.28-3.7,4.16s-3.31-2.17-3.16-4.59,1.81-4.27,3.7-4.15,3.31,2.17,3.16,4.58" transform="translate(8.55 -0.11)"/><path class="cls-8" d="M68.21,69.49a1.52,1.52,0,1,1-2.94-.18,1.52,1.52,0,1,1,2.94.18" transform="translate(8.55 -0.11)"/><path d="M89.28,70.8c-.15,2.42-1.81,4.28-3.7,4.16s-3.31-2.17-3.16-4.58,1.81-4.28,3.71-4.16,3.3,2.17,3.15,4.58" transform="translate(8.55 -0.11)"/><path class="cls-8" d="M87.4,69.35a1.51,1.51,0,1,1-1.35-2,1.7,1.7,0,0,1,1.35,2" transform="translate(8.55 -0.11)"/><path d="M97,64.12a2.08,2.08,0,0,1,0,.56c-.07.18-.21.44-.35.46a.75.75,0,0,1-.56-.27c-.23-.29-.35-.66-.56-1-.38-.56-.76-1.12-1.19-1.65a14.3,14.3,0,0,0-3.12-2.73A11,11,0,0,0,88,58.16,1.24,1.24,0,0,1,87,57a1.2,1.2,0,0,1,1.44-1.31,10.29,10.29,0,0,1,3.83,1.48,12.75,12.75,0,0,1,2.19,1.75A8.12,8.12,0,0,1,97,64.12" transform="translate(8.55 -0.11)"/><path d="M55.33,64.13a7.21,7.21,0,0,1,1.31-3.66,12,12,0,0,1,3.07-3,11.1,11.1,0,0,1,4.11-1.75,1.23,1.23,0,0,1,1.55.83,1.29,1.29,0,0,1-.9,1.61l-.21.07a11,11,0,0,0-5.35,3,11.21,11.21,0,0,0-2.59,3.54.54.54,0,0,1-.62.38c-.3-.06-.36-.29-.37-.56,0-.09,0-.17,0-.26s0-.14,0-.22" transform="translate(8.55 -0.11)"/><path class="cls-8" d="M108.64,78.61c.14-.2.23-.34.32-.48a8.27,8.27,0,0,0-2.48-11.58c-1.64-1-3.47-.06-3.44,1.81a25.31,25.31,0,0,0,.59,4.83c.59,2.87.16,5.36-2.1,7.43a3.92,3.92,0,0,0-1.36,3.64,28.37,28.37,0,0,0,1,3.33c.06.2.13.49,0,.63a5.18,5.18,0,0,0-.66,3.83A4.91,4.91,0,0,0,104,96.27a1.21,1.21,0,0,1,.52.34c2.74,3.24,7.29,3.19,10.11,1.75a3.36,3.36,0,0,0,1.86-3.56c0-.29-.14-.58-.22-.87a5.15,5.15,0,0,0,2.59-2.67,3.11,3.11,0,0,0-1-3.36c.61-.54,1.22-1,1.75-1.54a2.69,2.69,0,0,0,.49-3.45A7,7,0,0,0,117,80a13.86,13.86,0,0,0-8.31-1.41" transform="translate(8.55 -0.11)"/><path class="cls-10" d="M108.64,78.61c.14-.2.23-.34.32-.48a8.27,8.27,0,0,0-2.48-11.58c-1.64-1-3.47-.06-3.44,1.81a25.31,25.31,0,0,0,.59,4.83c.59,2.87.16,5.36-2.1,7.43a3.92,3.92,0,0,0-1.36,3.64,28.37,28.37,0,0,0,1,3.33c.06.2.13.49,0,.63a5.18,5.18,0,0,0-.66,3.83A4.91,4.91,0,0,0,104,96.27a1.21,1.21,0,0,1,.52.34c2.74,3.24,7.29,3.19,10.11,1.75a3.36,3.36,0,0,0,1.86-3.56c0-.29-.14-.58-.22-.87a5.15,5.15,0,0,0,2.59-2.67,3.11,3.11,0,0,0-1-3.36c.61-.54,1.22-1,1.75-1.54a2.69,2.69,0,0,0,.49-3.45A7,7,0,0,0,117,80,13.86,13.86,0,0,0,108.64,78.61Z" transform="translate(8.55 -0.11)"/><path d="M115.24,94.44c-.6.2-1.19.42-1.79.58a10,10,0,0,1-5.4.35,6.19,6.19,0,0,1-3-2c-1,.87-1,2,0,3.14A8.36,8.36,0,0,0,114,98.2a2.8,2.8,0,0,0,1.25-3.76M105,89.51a7.6,7.6,0,0,0-.25,1.18,4.26,4.26,0,0,0,3.43,4.13,10.23,10.23,0,0,0,8.88-2.13,2.68,2.68,0,0,0,.38-3.9c-.27-.36-.48-.43-.9-.17a18.49,18.49,0,0,1-5.7,2.34,5.68,5.68,0,0,1-5.48-1.22,2.57,2.57,0,0,0-.36-.23m3.54-4.2c0-.39.07-.82-.09-1A4.69,4.69,0,0,0,105.84,83a2,2,0,0,0-2.43,2.27,6,6,0,0,0,1.76,3.61,5.09,5.09,0,0,0,5.23,1.71A18.9,18.9,0,0,0,117,87.7a10.8,10.8,0,0,0,2.07-2,2.06,2.06,0,0,0,.3-2.15,4.74,4.74,0,0,0-1.93-2.39,13.15,13.15,0,0,0-9.07-1.88,1.83,1.83,0,0,0-.77.42c-.34.24-.64.52-.95.78l-.14-.18.45-.4c2.11-1.84,3.32-4.08,2.87-7a6.88,6.88,0,0,0-3.31-5.13c-1.35-.81-2.19-.37-2.44,1.17a12,12,0,0,0,.33,4.46,7.18,7.18,0,0,1-2.1,7.19,4.5,4.5,0,0,0-1.6,4.07c.16,1,.48,2,.76,3.12l.85-.67c-1.43,1.25-1.23,2.93-1.16,4.49a4.14,4.14,0,0,0,2.59,3.79,2,2,0,0,1,1-2.45l-.14-.33a3.81,3.81,0,0,1-.13-3.39c.07-.13-.06-.43-.17-.59a7.91,7.91,0,0,1-1.49-3,2.46,2.46,0,0,1,2.46-3.19,4.82,4.82,0,0,1,3.48,1.4.59.59,0,0,0,.84.09,7.62,7.62,0,0,1,1.57-.77c.75-.27,1.53-.45,2.29-.66a.85.85,0,0,1,0,.17c-.4.13-.83.23-1.22.4a6.47,6.47,0,0,0-3.23,2.1c-.09.12-.39.11-.5.13m.09-6.7A13.86,13.86,0,0,1,117,80a7,7,0,0,1,3.1,2.89,2.69,2.69,0,0,1-.49,3.45c-.53.54-1.14,1-1.75,1.54a3.11,3.11,0,0,1,1,3.36,5.15,5.15,0,0,1-2.59,2.67c.08.29.17.58.22.87a3.36,3.36,0,0,1-1.86,3.56c-2.82,1.44-7.37,1.49-10.11-1.75a1.21,1.21,0,0,0-.52-.34,4.91,4.91,0,0,1-3.41-4.22,5.18,5.18,0,0,1,.66-3.83c.09-.14,0-.43,0-.63a28.37,28.37,0,0,1-1-3.33,3.92,3.92,0,0,1,1.36-3.64c2.26-2.07,2.69-4.56,2.1-7.43a25.31,25.31,0,0,1-.59-4.83c0-1.87,1.8-2.76,3.44-1.81A8.27,8.27,0,0,1,109,78.13c-.09.14-.18.28-.32.48" transform="translate(8.55 -0.11)"/><path class="cls-10" d="M115.24,94.44c-.6.2-1.19.42-1.79.58a10,10,0,0,1-5.4.35,6.19,6.19,0,0,1-3-2c-1,.87-1,2,0,3.14A8.36,8.36,0,0,0,114,98.2,2.8,2.8,0,0,0,115.24,94.44ZM105,89.51a7.6,7.6,0,0,0-.25,1.18,4.26,4.26,0,0,0,3.43,4.13,10.23,10.23,0,0,0,8.88-2.13,2.68,2.68,0,0,0,.38-3.9c-.27-.36-.48-.43-.9-.17a18.49,18.49,0,0,1-5.7,2.34,5.68,5.68,0,0,1-5.48-1.22A2.57,2.57,0,0,0,105,89.51Zm3.54-4.2c0-.39.07-.82-.09-1A4.69,4.69,0,0,0,105.84,83a2,2,0,0,0-2.43,2.27,6,6,0,0,0,1.76,3.61,5.09,5.09,0,0,0,5.23,1.71A18.9,18.9,0,0,0,117,87.7a10.8,10.8,0,0,0,2.07-2,2.06,2.06,0,0,0,.3-2.15,4.74,4.74,0,0,0-1.93-2.39,13.15,13.15,0,0,0-9.07-1.88,1.83,1.83,0,0,0-.77.42c-.34.24-.64.52-.95.78l-.14-.18.45-.4c2.11-1.84,3.32-4.08,2.87-7a6.88,6.88,0,0,0-3.31-5.13c-1.35-.81-2.19-.37-2.44,1.17a12,12,0,0,0,.33,4.46,7.18,7.18,0,0,1-2.1,7.19,4.5,4.5,0,0,0-1.6,4.07c.16,1,.48,2,.76,3.12l.85-.67c-1.43,1.25-1.23,2.93-1.16,4.49a4.14,4.14,0,0,0,2.59,3.79,2,2,0,0,1,1-2.45l-.14-.33a3.81,3.81,0,0,1-.13-3.39c.07-.13-.06-.43-.17-.59a7.91,7.91,0,0,1-1.49-3,2.46,2.46,0,0,1,2.46-3.19,4.82,4.82,0,0,1,3.48,1.4.59.59,0,0,0,.84.09,7.62,7.62,0,0,1,1.57-.77c.75-.27,1.53-.45,2.29-.66a.85.85,0,0,1,0,.17c-.4.13-.83.23-1.22.4a6.47,6.47,0,0,0-3.23,2.1C109,85.3,108.66,85.29,108.55,85.31Zm.09-6.7A13.86,13.86,0,0,1,117,80a7,7,0,0,1,3.1,2.89,2.69,2.69,0,0,1-.49,3.45c-.53.54-1.14,1-1.75,1.54a3.11,3.11,0,0,1,1,3.36,5.15,5.15,0,0,1-2.59,2.67c.08.29.17.58.22.87a3.36,3.36,0,0,1-1.86,3.56c-2.82,1.44-7.37,1.49-10.11-1.75a1.21,1.21,0,0,0-.52-.34,4.91,4.91,0,0,1-3.41-4.22,5.18,5.18,0,0,1,.66-3.83c.09-.14,0-.43,0-.63a28.37,28.37,0,0,1-1-3.33,3.92,3.92,0,0,1,1.36-3.64c2.26-2.07,2.69-4.56,2.1-7.43a25.31,25.31,0,0,1-.59-4.83c0-1.87,1.8-2.76,3.44-1.81A8.27,8.27,0,0,1,109,78.13C108.87,78.27,108.78,78.41,108.64,78.61Z" transform="translate(8.55 -0.11)"/><path class="cls-8" d="M108.55,85.31c.11,0,.41,0,.5-.13a6.47,6.47,0,0,1,3.23-2.1,12.43,12.43,0,0,1,1.22-.4.85.85,0,0,0,0-.17c-.76.21-1.54.39-2.29.66a8,8,0,0,0-1.58.77.58.58,0,0,1-.83-.09,4.82,4.82,0,0,0-3.48-1.4,2.46,2.46,0,0,0-2.46,3.19,7.91,7.91,0,0,0,1.49,3c.11.16.24.46.17.59a3.81,3.81,0,0,0,.13,3.39c0,.1.09.19.14.33a2,2,0,0,0-1,2.45,4.18,4.18,0,0,1-2.6-3.79c-.06-1.56-.26-3.24,1.16-4.49l-.84.67c-.28-1.09-.6-2.09-.76-3.12a4.5,4.5,0,0,1,1.6-4.07,7.18,7.18,0,0,0,2.1-7.19,12,12,0,0,1-.33-4.46c.25-1.53,1.09-2,2.44-1.17a6.88,6.88,0,0,1,3.31,5.13c.44,2.87-.76,5.11-2.87,7l-.45.4.14.18c.31-.26.61-.54.94-.78a1.93,1.93,0,0,1,.78-.42,13.15,13.15,0,0,1,9.07,1.88,4.74,4.74,0,0,1,1.93,2.39,2.06,2.06,0,0,1-.3,2.15,10.8,10.8,0,0,1-2.07,2,18.9,18.9,0,0,1-6.6,2.87,5.09,5.09,0,0,1-5.23-1.71,6,6,0,0,1-1.76-3.61A2,2,0,0,1,105.84,83a4.69,4.69,0,0,1,2.62,1.36c.16.15.07.58.09,1" transform="translate(8.55 -0.11)"/><path class="cls-10" d="M108.55,85.31c.11,0,.41,0,.5-.13a6.47,6.47,0,0,1,3.23-2.1,12.43,12.43,0,0,1,1.22-.4.85.85,0,0,0,0-.17c-.76.21-1.54.39-2.29.66a8,8,0,0,0-1.58.77.58.58,0,0,1-.83-.09,4.82,4.82,0,0,0-3.48-1.4,2.46,2.46,0,0,0-2.46,3.19,7.91,7.91,0,0,0,1.49,3c.11.16.24.46.17.59a3.81,3.81,0,0,0,.13,3.39c0,.1.09.19.14.33a2,2,0,0,0-1,2.45,4.18,4.18,0,0,1-2.6-3.79c-.06-1.56-.26-3.24,1.16-4.49l-.84.67c-.28-1.09-.6-2.09-.76-3.12a4.5,4.5,0,0,1,1.6-4.07,7.18,7.18,0,0,0,2.1-7.19,12,12,0,0,1-.33-4.46c.25-1.53,1.09-2,2.44-1.17a6.88,6.88,0,0,1,3.31,5.13c.44,2.87-.76,5.11-2.87,7l-.45.4.14.18c.31-.26.61-.54.94-.78a1.93,1.93,0,0,1,.78-.42,13.15,13.15,0,0,1,9.07,1.88,4.74,4.74,0,0,1,1.93,2.39,2.06,2.06,0,0,1-.3,2.15,10.8,10.8,0,0,1-2.07,2,18.9,18.9,0,0,1-6.6,2.87,5.09,5.09,0,0,1-5.23-1.71,6,6,0,0,1-1.76-3.61A2,2,0,0,1,105.84,83a4.69,4.69,0,0,1,2.62,1.36C108.62,84.49,108.53,84.92,108.55,85.31Z" transform="translate(8.55 -0.11)"/><path class="cls-8" d="M105,89.51a2.57,2.57,0,0,1,.36.23A5.68,5.68,0,0,0,110.85,91a18.27,18.27,0,0,0,5.7-2.35.56.56,0,0,1,.9.18,2.68,2.68,0,0,1-.38,3.9,10.23,10.23,0,0,1-8.88,2.13,4.25,4.25,0,0,1-3.43-4.13,7.6,7.6,0,0,1,.25-1.18" transform="translate(8.55 -0.11)"/><path class="cls-10" d="M105,89.51a2.57,2.57,0,0,1,.36.23A5.68,5.68,0,0,0,110.85,91a18.27,18.27,0,0,0,5.7-2.35.56.56,0,0,1,.9.18,2.68,2.68,0,0,1-.38,3.9,10.23,10.23,0,0,1-8.88,2.13,4.25,4.25,0,0,1-3.43-4.13A7.6,7.6,0,0,1,105,89.51Z" transform="translate(8.55 -0.11)"/><path class="cls-8" d="M115.23,94.44A2.78,2.78,0,0,1,114,98.19a8.34,8.34,0,0,1-8.93-1.66c-1-1.16-1-2.27,0-3.14a6.19,6.19,0,0,0,3,2,9.88,9.88,0,0,0,5.39-.35c.61-.15,1.2-.38,1.79-.58" transform="translate(8.55 -0.11)"/><path class="cls-10" d="M115.23,94.44A2.78,2.78,0,0,1,114,98.19a8.34,8.34,0,0,1-8.93-1.66c-1-1.16-1-2.27,0-3.14a6.19,6.19,0,0,0,3,2,9.88,9.88,0,0,0,5.39-.35C114.05,94.87,114.64,94.64,115.23,94.44Z" transform="translate(8.55 -0.11)"/><path class="cls-8" d="M44.27,78.8l-.33-.48a8.14,8.14,0,0,1,2.55-11.58c1.69-1,3.56-.07,3.54,1.81a24.56,24.56,0,0,1-.61,4.83c-.61,2.87-.16,5.36,2.16,7.43A3.88,3.88,0,0,1,53,84.45a28.54,28.54,0,0,1-1,3.33c-.06.2-.14.49,0,.63a5.1,5.1,0,0,1,.68,3.83,5,5,0,0,1-3.51,4.22,1.28,1.28,0,0,0-.54.34C45.7,100,41,100,38.13,98.55A3.33,3.33,0,0,1,36.22,95c.05-.29.14-.58.22-.87a5.25,5.25,0,0,1-2.66-2.67,3.08,3.08,0,0,1,1.06-3.37c-.63-.53-1.25-1-1.8-1.53a2.63,2.63,0,0,1-.5-3.45,7,7,0,0,1,3.19-2.89,14.58,14.58,0,0,1,8.54-1.41" transform="translate(8.55 -0.11)"/><path class="cls-10" d="M44.27,78.8l-.33-.48a8.14,8.14,0,0,1,2.55-11.58c1.69-1,3.56-.07,3.54,1.81a24.56,24.56,0,0,1-.61,4.83c-.61,2.87-.16,5.36,2.16,7.43A3.88,3.88,0,0,1,53,84.45a28.54,28.54,0,0,1-1,3.33c-.06.2-.14.49,0,.63a5.1,5.1,0,0,1,.68,3.83,5,5,0,0,1-3.51,4.22,1.28,1.28,0,0,0-.54.34C45.7,100,41,100,38.13,98.55A3.33,3.33,0,0,1,36.22,95c.05-.29.14-.58.22-.87a5.25,5.25,0,0,1-2.66-2.67,3.08,3.08,0,0,1,1.06-3.37c-.63-.53-1.25-1-1.8-1.53a2.63,2.63,0,0,1-.5-3.45,7,7,0,0,1,3.19-2.89A14.58,14.58,0,0,1,44.27,78.8Z" transform="translate(8.55 -0.11)"/><path d="M37.49,94.63c.61.2,1.21.42,1.84.58a10.43,10.43,0,0,0,5.54.34,6.31,6.31,0,0,0,3.07-2c1.07.87,1.06,2,0,3.14-2,2.19-6.48,3-9.19,1.66a2.76,2.76,0,0,1-1.27-3.75M48,89.7a7.71,7.71,0,0,1,.26,1.18A4.29,4.29,0,0,1,44.73,95a10.73,10.73,0,0,1-9.13-2.13,2.64,2.64,0,0,1-.39-3.9.58.58,0,0,1,.92-.18A19.06,19.06,0,0,0,42,91.15a6,6,0,0,0,5.64-1.22A2.89,2.89,0,0,1,48,89.7m-3.64-4.2c0-.39-.08-.82.09-1a4.94,4.94,0,0,1,2.7-1.35,2,2,0,0,1,2.5,2.27A5.85,5.85,0,0,1,47.83,89a5.26,5.26,0,0,1-5.37,1.71,19.45,19.45,0,0,1-6.79-2.86,11.1,11.1,0,0,1-2.13-2,2,2,0,0,1-.31-2.15,4.76,4.76,0,0,1,2-2.39,13.82,13.82,0,0,1,9.32-1.88,1.77,1.77,0,0,1,.8.42c.34.24.65.51,1,.77,0-.05.09-.11.14-.17l-.46-.4c-2.17-1.84-3.41-4.08-3-7A6.84,6.84,0,0,1,46.45,68c1.39-.8,2.25-.36,2.51,1.18a11.71,11.71,0,0,1-.34,4.45,7.08,7.08,0,0,0,2.16,7.2,4.46,4.46,0,0,1,1.65,4.07c-.17,1-.5,2-.78,3.12l-.88-.67C52.24,88.56,52,90.23,52,91.8a4.17,4.17,0,0,1-2.68,3.79,2,2,0,0,0-1-2.45c.07-.14.11-.23.15-.33a3.69,3.69,0,0,0,.13-3.39c-.07-.13.07-.43.19-.59a7.8,7.8,0,0,0,1.52-3,2.47,2.47,0,0,0-2.53-3.18A5,5,0,0,0,44.15,84a.61.61,0,0,1-.86.09,8.28,8.28,0,0,0-1.62-.77c-.77-.27-1.57-.45-2.36-.66,0,0,0,.11,0,.16.42.14.85.24,1.26.41a6.77,6.77,0,0,1,3.32,2.09c.09.13.4.11.51.14m-.09-6.7a14.58,14.58,0,0,0-8.54,1.41,7,7,0,0,0-3.19,2.89,2.63,2.63,0,0,0,.5,3.45c.55.53,1.17,1,1.8,1.53a3.08,3.08,0,0,0-1.06,3.37,5.25,5.25,0,0,0,2.66,2.67c-.08.29-.17.58-.22.87a3.33,3.33,0,0,0,1.91,3.56C41,100,45.7,100,48.52,96.8a1.28,1.28,0,0,1,.54-.34,5,5,0,0,0,3.51-4.22,5.1,5.1,0,0,0-.68-3.83c-.1-.14,0-.43,0-.63a28.54,28.54,0,0,0,1-3.33,3.88,3.88,0,0,0-1.4-3.64c-2.32-2.07-2.77-4.56-2.16-7.43A24.56,24.56,0,0,0,50,68.55c0-1.88-1.85-2.77-3.54-1.81a8.14,8.14,0,0,0-2.55,11.58l.33.48" transform="translate(8.55 -0.11)"/><path class="cls-10" d="M37.49,94.63c.61.2,1.21.42,1.84.58a10.43,10.43,0,0,0,5.54.34,6.31,6.31,0,0,0,3.07-2c1.07.87,1.06,2,0,3.14-2,2.19-6.48,3-9.19,1.66A2.76,2.76,0,0,1,37.49,94.63ZM48,89.7a7.71,7.71,0,0,1,.26,1.18A4.29,4.29,0,0,1,44.73,95a10.73,10.73,0,0,1-9.13-2.13,2.64,2.64,0,0,1-.39-3.9.58.58,0,0,1,.92-.18A19.06,19.06,0,0,0,42,91.15a6,6,0,0,0,5.64-1.22A2.89,2.89,0,0,1,48,89.7Zm-3.64-4.2c0-.39-.08-.82.09-1a4.94,4.94,0,0,1,2.7-1.35,2,2,0,0,1,2.5,2.27A5.85,5.85,0,0,1,47.83,89a5.26,5.26,0,0,1-5.37,1.71,19.45,19.45,0,0,1-6.79-2.86,11.1,11.1,0,0,1-2.13-2,2,2,0,0,1-.31-2.15,4.76,4.76,0,0,1,2-2.39,13.82,13.82,0,0,1,9.32-1.88,1.77,1.77,0,0,1,.8.42c.34.24.65.51,1,.77,0-.05.09-.11.14-.17l-.46-.4c-2.17-1.84-3.41-4.08-3-7A6.84,6.84,0,0,1,46.45,68c1.39-.8,2.25-.36,2.51,1.18a11.71,11.71,0,0,1-.34,4.45,7.08,7.08,0,0,0,2.16,7.2,4.46,4.46,0,0,1,1.65,4.07c-.17,1-.5,2-.78,3.12l-.88-.67C52.24,88.56,52,90.23,52,91.8a4.17,4.17,0,0,1-2.68,3.79,2,2,0,0,0-1-2.45c.07-.14.11-.23.15-.33a3.69,3.69,0,0,0,.13-3.39c-.07-.13.07-.43.19-.59a7.8,7.8,0,0,0,1.52-3,2.47,2.47,0,0,0-2.53-3.18A5,5,0,0,0,44.15,84a.61.61,0,0,1-.86.09,8.28,8.28,0,0,0-1.62-.77c-.77-.27-1.57-.45-2.36-.66,0,0,0,.11,0,.16.42.14.85.24,1.26.41a6.77,6.77,0,0,1,3.32,2.09C43.94,85.49,44.25,85.47,44.36,85.5Zm-.09-6.7a14.58,14.58,0,0,0-8.54,1.41,7,7,0,0,0-3.19,2.89,2.63,2.63,0,0,0,.5,3.45c.55.53,1.17,1,1.8,1.53a3.08,3.08,0,0,0-1.06,3.37,5.25,5.25,0,0,0,2.66,2.67c-.08.29-.17.58-.22.87a3.33,3.33,0,0,0,1.91,3.56C41,100,45.7,100,48.52,96.8a1.28,1.28,0,0,1,.54-.34,5,5,0,0,0,3.51-4.22,5.1,5.1,0,0,0-.68-3.83c-.1-.14,0-.43,0-.63a28.54,28.54,0,0,0,1-3.33,3.88,3.88,0,0,0-1.4-3.64c-2.32-2.07-2.77-4.56-2.16-7.43A24.56,24.56,0,0,0,50,68.55c0-1.88-1.85-2.77-3.54-1.81a8.14,8.14,0,0,0-2.55,11.58Z" transform="translate(8.55 -0.11)"/><path class="cls-8" d="M44.36,85.5c-.11,0-.42,0-.51-.14a6.77,6.77,0,0,0-3.32-2.09c-.41-.17-.84-.27-1.26-.41l0-.16c.79.21,1.59.39,2.36.66a8.28,8.28,0,0,1,1.62.77.61.61,0,0,0,.86-.09,5,5,0,0,1,3.57-1.4,2.47,2.47,0,0,1,2.53,3.18,7.8,7.8,0,0,1-1.52,3c-.12.16-.26.46-.19.59a3.69,3.69,0,0,1-.13,3.39,2.87,2.87,0,0,1-.15.32,2,2,0,0,1,1,2.46A4.17,4.17,0,0,0,52,91.8c.07-1.57.27-3.24-1.2-4.49l.88.67c.28-1.09.61-2.09.78-3.12a4.46,4.46,0,0,0-1.65-4.07,7.08,7.08,0,0,1-2.16-7.2A11.71,11.71,0,0,0,49,69.14c-.26-1.54-1.12-2-2.51-1.18a6.86,6.86,0,0,0-3.4,5.14c-.46,2.87.78,5.11,3,7l.46.4-.14.18c-.33-.27-.64-.54-1-.78a1.77,1.77,0,0,0-.8-.42,13.82,13.82,0,0,0-9.32,1.88,4.76,4.76,0,0,0-2,2.39,2,2,0,0,0,.31,2.15,11.1,11.1,0,0,0,2.13,2,19.45,19.45,0,0,0,6.79,2.86,5.28,5.28,0,0,0,5.37-1.7,5.9,5.9,0,0,0,1.82-3.61,2,2,0,0,0-2.5-2.27,4.94,4.94,0,0,0-2.7,1.35c-.17.16-.06.59-.09,1" transform="translate(8.55 -0.11)"/><path class="cls-10" d="M44.36,85.5c-.11,0-.42,0-.51-.14a6.77,6.77,0,0,0-3.32-2.09c-.41-.17-.84-.27-1.26-.41l0-.16c.79.21,1.59.39,2.36.66a8.28,8.28,0,0,1,1.62.77.61.61,0,0,0,.86-.09,5,5,0,0,1,3.57-1.4,2.47,2.47,0,0,1,2.53,3.18,7.8,7.8,0,0,1-1.52,3c-.12.16-.26.46-.19.59a3.69,3.69,0,0,1-.13,3.39,2.87,2.87,0,0,1-.15.32,2,2,0,0,1,1,2.46A4.17,4.17,0,0,0,52,91.8c.07-1.57.27-3.24-1.2-4.49l.88.67c.28-1.09.61-2.09.78-3.12a4.46,4.46,0,0,0-1.65-4.07,7.08,7.08,0,0,1-2.16-7.2A11.71,11.71,0,0,0,49,69.14c-.26-1.54-1.12-2-2.51-1.18a6.86,6.86,0,0,0-3.4,5.14c-.46,2.87.78,5.11,3,7l.46.4-.14.18c-.33-.27-.64-.54-1-.78a1.77,1.77,0,0,0-.8-.42,13.82,13.82,0,0,0-9.32,1.88,4.76,4.76,0,0,0-2,2.39,2,2,0,0,0,.31,2.15,11.1,11.1,0,0,0,2.13,2,19.45,19.45,0,0,0,6.79,2.86,5.28,5.28,0,0,0,5.37-1.7,5.9,5.9,0,0,0,1.82-3.61,2,2,0,0,0-2.5-2.27,4.94,4.94,0,0,0-2.7,1.35C44.28,84.68,44.39,85.11,44.36,85.5Z" transform="translate(8.55 -0.11)"/><path class="cls-8" d="M48,89.7a2.89,2.89,0,0,0-.37.23A6,6,0,0,1,42,91.15a19.06,19.06,0,0,1-5.86-2.35.58.58,0,0,0-.92.18,2.64,2.64,0,0,0,.39,3.9A10.73,10.73,0,0,0,44.73,95a4.29,4.29,0,0,0,3.53-4.13A7.71,7.71,0,0,0,48,89.7" transform="translate(8.55 -0.11)"/><path class="cls-10" d="M48,89.7a2.89,2.89,0,0,0-.37.23A6,6,0,0,1,42,91.15a19.06,19.06,0,0,1-5.86-2.35.58.58,0,0,0-.92.18,2.64,2.64,0,0,0,.39,3.9A10.73,10.73,0,0,0,44.73,95a4.29,4.29,0,0,0,3.53-4.13A7.71,7.71,0,0,0,48,89.7Z" transform="translate(8.55 -0.11)"/><path class="cls-8" d="M37.49,94.63a2.76,2.76,0,0,0,1.27,3.75c2.71,1.33,7.2.53,9.19-1.67,1-1.15,1.06-2.26,0-3.13a6.31,6.31,0,0,1-3.07,2,10.43,10.43,0,0,1-5.54-.34c-.63-.16-1.23-.38-1.84-.58" transform="translate(8.55 -0.11)"/><path class="cls-10" d="M37.49,94.63a2.76,2.76,0,0,0,1.27,3.75c2.71,1.33,7.2.53,9.19-1.67,1-1.15,1.06-2.26,0-3.13a6.31,6.31,0,0,1-3.07,2,10.43,10.43,0,0,1-5.54-.34C38.7,95.05,38.1,94.83,37.49,94.63Z" transform="translate(8.55 -0.11)"/></g></g></g></g><g id="Layer_2" data-name="Layer 2"><rect class="cls-11" x="9.02" y="0.25" width="153.07" height="252.28" rx="9.74"/></g></g></svg>