<svg xmlns="http://www.w3.org/2000/svg" xmlns:xlink="http://www.w3.org/1999/xlink" viewBox="0 0 171.11 261.42"><defs><style>.cls-1,.cls-12,.cls-14,.cls-15,.cls-4{fill:none;}.cls-2{clip-path:url(#clip-path);}.cls-3{clip-path:url(#clip-path-2);}.cls-12,.cls-15,.cls-4{stroke:#000;}.cls-5,.cls-9{font-size:10.03px;font-family:Cambria;}.cls-6{letter-spacing:-0.01em;}.cls-7{letter-spacing:0em;}.cls-8{letter-spacing:-0.04em;}.cls-13,.cls-9{fill:#fff;}.cls-10{letter-spacing:-0.04em;}.cls-11{letter-spacing:-0.04em;}.cls-12,.cls-14,.cls-15{stroke-miterlimit:10;}.cls-12,.cls-14{stroke-width:2.5px;}.cls-14{stroke:#fff;}.cls-15{stroke-width:0.5px;}</style><clipPath id="clip-path" transform="translate(8.55 -0.11)"><rect class="cls-1" width="154" height="253" rx="9.78"/></clipPath><clipPath id="clip-path-2" transform="translate(8.55 -0.11)"><rect class="cls-1" x="-1.43" y="-1.42" width="156.85" height="255.84"/></clipPath></defs><g id="Capa_2" data-name="Capa 2"><g id="Capa_1-2" data-name="Capa 1"><g class="cls-2"><g class="cls-3"><g class="cls-3"><rect x="0.5" y="126.32" width="170.11" height="134.59"/><rect class="cls-4" x="0.5" y="126.32" width="170.11" height="134.59"/></g><text class="cls-5" transform="translate(42.19 19.17)">EMOCIÓN POS<tspan class="cls-6" x="62.2" y="0">I</tspan><tspan class="cls-7" x="65.32" y="0">TI</tspan><tspan class="cls-8" x="74.51" y="0">V</tspan><tspan x="80.21" y="0">A</tspan></text><text class="cls-9" transform="translate(131.02 233.19) rotate(180)">EMOCIÓN NEG<tspan class="cls-10" x="63.7" y="0">A</tspan><tspan x="69.51" y="0">TI</tspan><tspan class="cls-11" x="78.71" y="0">V</tspan><tspan x="84.4" y="0">A</tspan></text><g class="cls-3"><path class="cls-12" d="M95.72,104.52a11.22,11.22,0,0,1,10.93-11.19A32.5,32.5,0,0,0,43.87,105H95.75C95.74,104.84,95.72,104.68,95.72,104.52ZM91.24,55.6a17.09,17.09,0,1,1-17.08-17A17.06,17.06,0,0,1,91.24,55.6Z" transform="translate(8.55 -0.11)"/><path class="cls-13" d="M118.21,104.52A11.25,11.25,0,1,1,107,93.31a11.22,11.22,0,0,1,11.25,11.21" transform="translate(8.55 -0.11)"/><ellipse class="cls-12" cx="115.52" cy="104.41" rx="11.24" ry="11.21"/></g><path class="cls-13" d="M101.23,105h0Z" transform="translate(8.55 -0.11)"/><path class="cls-12" d="M101.23,105h0Z" transform="translate(8.55 -0.11)"/><path class="cls-13" d="M107.27,111v0Z" transform="translate(8.55 -0.11)"/><path class="cls-12" d="M107.27,98.71v0Z" transform="translate(8.55 -0.11)"/><g class="cls-3"><path class="cls-14" d="M35.81,148.1a11.25,11.25,0,1,1,11.25,11.11A11.18,11.18,0,0,1,35.81,148.1Zm22.49,0a11.17,11.17,0,0,1-10.93,11.09,32.54,32.54,0,0,0,62.77-11.57H58.27C58.28,147.78,58.3,147.94,58.3,148.1Zm4.48,48.49a17.09,17.09,0,1,1,17.08,16.89A17,17,0,0,1,62.78,196.59Z" transform="translate(8.55 -0.11)"/></g><path class="cls-13" d="M40.72,147.59h0Z" transform="translate(8.55 -0.11)"/><path class="cls-14" d="M52.79,147.59h0Z" transform="translate(8.55 -0.11)"/></g></g><rect class="cls-15" x="9.02" y="0.25" width="153.07" height="252.28" rx="9.74"/></g></g></svg>