<svg xmlns="http://www.w3.org/2000/svg" xmlns:xlink="http://www.w3.org/1999/xlink" viewBox="0 0 171.11 261.78"><defs><style>.cls-1,.cls-12,.cls-4{fill:none;}.cls-2{clip-path:url(#clip-path);}.cls-3{clip-path:url(#clip-path-2);}.cls-12,.cls-4{stroke:#000;}.cls-5,.cls-9{font-size:10.03px;font-family:Cambria;}.cls-6{letter-spacing:0.01em;}.cls-7{letter-spacing:0em;}.cls-8{letter-spacing:-0.01em;}.cls-11,.cls-9{fill:#fff;}.cls-10{letter-spacing:0.01em;}.cls-12{stroke-miterlimit:10;stroke-width:0.5px;}</style><clipPath id="clip-path" transform="translate(8.3)"><rect class="cls-1" x="0.25" y="0.25" width="154" height="253" rx="9.78"/></clipPath><clipPath id="clip-path-2" transform="translate(8.3)"><rect class="cls-1" x="-1.18" y="-1.17" width="156.85" height="255.84"/></clipPath></defs><g id="Capa_2" data-name="Capa 2"><g id="Layer_2" data-name="Layer 2"><g class="cls-2"><g class="cls-3"><g class="cls-3"><rect x="0.5" y="126.68" width="170.11" height="134.59"/><rect class="cls-4" x="0.5" y="126.68" width="170.11" height="134.59"/></g><text class="cls-5" transform="translate(39.22 19.53)">ALEGR<tspan class="cls-6" x="29.75" y="0">Í</tspan><tspan class="cls-7" x="33.09" y="0">A/FELICI</tspan><tspan class="cls-8" x="72.93" y="0">D</tspan><tspan x="79.48" y="0">AD</tspan></text><text class="cls-9" transform="translate(107.53 233.55) rotate(180)">TRISTE<tspan class="cls-10" x="32.11" y="0">Z</tspan><tspan class="cls-7" x="37.56" y="0">A</tspan></text><g class="cls-3"><path d="M77.21,107.07A31.14,31.14,0,1,0,46,75.51a31.21,31.21,0,0,0,31.2,31.56m0,3.19a34.32,34.32,0,1,1,34.47-34.21,34.3,34.3,0,0,1-34.47,34.21" transform="translate(8.3)"/><path d="M78.68,93c-9.28,0-16-5-18.31-12.52-.34-1.12,0-2,.91-2.25a1.77,1.77,0,0,1,2.09,1.32c2.17,6.31,6.62,9.74,13.26,10.31,5.45.48,11.21-3,13.67-8.26a16.08,16.08,0,0,0,.78-2.1c.27-.86.76-1.45,1.71-1.29s1.66.78,1.38,1.85a15.27,15.27,0,0,1-1.26,3.36c-3.34,6.19-8.6,9.35-14.23,9.58" transform="translate(8.3)"/><path d="M66,60.72a6.1,6.1,0,0,1,5.76,3.7c.33.89.32,1.7-.67,2.1s-1.5-.15-1.82-1A3.11,3.11,0,0,0,66,63.45a3.16,3.16,0,0,0-3.24,2.11c-.32.87-.92,1.34-1.84.94s-1-1.16-.65-2A6.09,6.09,0,0,1,66,60.72" transform="translate(8.3)"/><path d="M94.45,65.47c-.32.32-.65.9-1.13,1.09-.79.3-1.31-.22-1.64-1a3.29,3.29,0,0,0-4.41-1.92,5.06,5.06,0,0,0-2,1.83c-.5.72-.9,1.38-1.85,1s-1-1.17-.71-2.07a6.26,6.26,0,0,1,11.46,0c.09.23.14.48.3,1" transform="translate(8.3)"/><path class="cls-11" d="M77.22,208.5a31.6,31.6,0,1,0,.09-63.19c-16.29-.08-33,13.1-31.91,33.6.87,16.65,15,29.59,31.82,29.59m34.41-31.22A34.39,34.39,0,1,1,79,143a34.09,34.09,0,0,1,32.6,34.28" transform="translate(8.3)"/><path class="cls-11" d="M77.74,174.57A24.28,24.28,0,0,1,67,172.29a23.42,23.42,0,0,1-9.86-8.15c-.44-.63-.85-1.29-1.26-1.94s-.71-1.56.24-2.09,1.43.11,1.86.84a22.1,22.1,0,0,0,9.6,8.93,21.84,21.84,0,0,0,14.3,1.64,21.62,21.62,0,0,0,14.22-9.9c.18-.27.35-.55.51-.83.41-.75,1-1.12,1.81-.64a1.16,1.16,0,0,1,.31,1.8,52.86,52.86,0,0,1-3.9,5.13,23.3,23.3,0,0,1-11.21,6.59,46.43,46.43,0,0,1-5.92.9" transform="translate(8.3)"/><path class="cls-11" d="M57.64,193.54a1.55,1.55,0,0,1,0-.53c.05-.16.19-.41.32-.42a.71.71,0,0,1,.53.24c.21.28.33.62.52.91.36.53.72,1,1.12,1.54a13.42,13.42,0,0,0,2.93,2.54,10.47,10.47,0,0,0,3.07,1.28,1.16,1.16,0,0,1,1,1.11,1.13,1.13,0,0,1-1.36,1.22,9.7,9.7,0,0,1-3.6-1.38,12.52,12.52,0,0,1-2.06-1.63,7.57,7.57,0,0,1-2.45-4.88" transform="translate(8.3)"/><path class="cls-11" d="M96.86,193.52a6.6,6.6,0,0,1-1.23,3.42,11.4,11.4,0,0,1-2.88,2.83,10.42,10.42,0,0,1-3.87,1.63,1.15,1.15,0,0,1-1.46-.78,1.21,1.21,0,0,1,.84-1.5l.2-.06a12,12,0,0,0,7.48-6.15.5.5,0,0,1,.57-.35c.29.05.35.27.36.52v.24a1.27,1.27,0,0,1,0,.2" transform="translate(8.3)"/><path class="cls-11" d="M87.48,190.06a3.07,3.07,0,0,0,3.3-3.07,3.23,3.23,0,1,0-3.3,3.07m-6-3.15a6.14,6.14,0,0,1,6.4-5.92,6.06,6.06,0,0,1-.29,12.12,6.07,6.07,0,0,1-6.11-6.2" transform="translate(8.3)"/><path class="cls-11" d="M66,183.69a3.19,3.19,0,1,0,3.23,3.22A3.28,3.28,0,0,0,66,183.69m-.12-2.7a6.06,6.06,0,1,1-6,6,6.12,6.12,0,0,1,6-6" transform="translate(8.3)"/></g></g></g><rect class="cls-12" x="8.55" y="0.25" width="154" height="253" rx="9.78"/></g></g></svg>