<svg xmlns="http://www.w3.org/2000/svg" xmlns:xlink="http://www.w3.org/1999/xlink" viewBox="0 0 171.11 261.42"><defs><style>.cls-1,.cls-15,.cls-16,.cls-17,.cls-18,.cls-19,.cls-4{fill:none;}.cls-2{clip-path:url(#clip-path);}.cls-3{clip-path:url(#clip-path-2);}.cls-18,.cls-19,.cls-4{stroke:#000;}.cls-5,.cls-8{font-size:10.03px;font-family:Cambria;}.cls-6{letter-spacing:-0.04em;}.cls-7{letter-spacing:-0.01em;}.cls-14,.cls-8{fill:#fff;}.cls-9{letter-spacing:-0.04em;}.cls-10{letter-spacing:-0.01em;}.cls-11{letter-spacing:-0.1em;}.cls-12{letter-spacing:-0.05em;}.cls-13{letter-spacing:0em;}.cls-15,.cls-16,.cls-17{stroke:#fff;}.cls-15,.cls-16,.cls-17,.cls-18,.cls-19{stroke-miterlimit:10;}.cls-16{stroke-width:0.75px;}.cls-17,.cls-19{stroke-width:0.5px;}.cls-18{stroke-width:1.75px;}</style><clipPath id="clip-path" transform="translate(8.55 -0.11)"><rect class="cls-1" width="154" height="253" rx="9.78"/></clipPath><clipPath id="clip-path-2" transform="translate(8.55 -0.11)"><rect class="cls-1" x="-1.43" y="-1.42" width="156.85" height="255.84"/></clipPath></defs><g id="Capa_2" data-name="Capa 2"><g id="Capa_1-2" data-name="Capa 1"><g class="cls-2"><g class="cls-3"><g class="cls-3"><rect x="0.5" y="126.32" width="170.11" height="134.59"/><rect class="cls-4" x="0.5" y="126.32" width="170.11" height="134.59"/></g><text class="cls-5" transform="translate(62.33 19.17)">GR<tspan class="cls-6" x="12.35" y="0">A</tspan><tspan x="18.17" y="0">T</tspan><tspan class="cls-7" x="24.12" y="0">I</tspan><tspan x="27.23" y="0">TUD</tspan></text><text class="cls-8" transform="translate(145.12 233.19) rotate(180)">INGR<tspan class="cls-9" x="22.43" y="0">A</tspan><tspan x="28.25" y="0">T</tspan><tspan class="cls-10" x="34.19" y="0">I</tspan><tspan x="37.3" y="0">TUD/DESLEA</tspan><tspan class="cls-11" x="96.07" y="0">L</tspan><tspan class="cls-12" x="100.45" y="0">T</tspan><tspan class="cls-13" x="105.87" y="0">AD</tspan></text><g class="cls-3"><path class="cls-14" d="M109.59,175.9c0-17.36-14.31-31.25-32.19-31.27-18.51,0-33,13.61-33,31,0,17.63,14.57,31.89,32.64,31.92,17.88,0,32.58-14.26,32.58-31.66M77,143.48c18.86,0,33.9,14.57,33.85,32.73,0,17.87-15.5,32.46-34.34,32.43-18.28,0-33.47-15-33.42-33,0-17.7,15.3-32.16,33.91-32.12" transform="translate(8.55 -0.11)"/><path class="cls-15" d="M109.59,175.9c0-17.36-14.31-31.25-32.19-31.27-18.51,0-33,13.61-33,31,0,17.63,14.57,31.89,32.64,31.92C94.89,207.58,109.59,193.3,109.59,175.9ZM77,143.48c18.86,0,33.9,14.57,33.85,32.73,0,17.87-15.5,32.46-34.34,32.43-18.28,0-33.47-15-33.42-33C43.16,157.9,58.42,143.44,77,143.48Z" transform="translate(8.55 -0.11)"/><path class="cls-14" d="M83.9,215.21c4.19.94,4.82,1.07,10.63-7.17.11.7.39,1.33.2,1.55A68.35,68.35,0,0,1,88,216.76c-1.38,1.15-3.17.58-4.09-1.55" transform="translate(8.55 -0.11)"/><path class="cls-16" d="M83.9,215.21c4.19.94,4.82,1.07,10.63-7.17.11.7.39,1.33.2,1.55A68.35,68.35,0,0,1,88,216.76C86.61,217.91,84.82,217.34,83.9,215.21Z" transform="translate(8.55 -0.11)"/><path class="cls-14" d="M68.53,209.63c4.82,7.17,4.82,7.17,9.86,4.48a3.93,3.93,0,0,1-4.67,3.37c-2.78-.45-5.61-4.46-5.19-7.85" transform="translate(8.55 -0.11)"/><path class="cls-17" d="M68.53,209.63c4.82,7.17,4.82,7.17,9.86,4.48a3.93,3.93,0,0,1-4.67,3.37C70.94,217,68.11,213,68.53,209.63Z" transform="translate(8.55 -0.11)"/><path class="cls-14" d="M93.52,198.61c-4.31-3.49-4.9-4.59-9.65-1.26A3.33,3.33,0,0,1,87.35,194a5.63,5.63,0,0,1,6.17,4.59" transform="translate(8.55 -0.11)"/><path class="cls-15" d="M93.52,198.61c-4.31-3.49-4.9-4.59-9.65-1.26A3.33,3.33,0,0,1,87.35,194,5.63,5.63,0,0,1,93.52,198.61Z" transform="translate(8.55 -0.11)"/><path class="cls-14" d="M78.1,197.79c-5.13-2.88-5.13-2.88-9.71.93-.29-2,1.17-3.55,4-4.18,3-.67,4.69.22,5.76,3.25" transform="translate(8.55 -0.11)"/><path class="cls-15" d="M78.1,197.79c-5.13-2.88-5.13-2.88-9.71.93-.29-2,1.17-3.55,4-4.18C75.29,193.87,77,194.76,78.1,197.79Z" transform="translate(8.55 -0.11)"/><path class="cls-14" d="M77.16,184.85c2.49,1.37,4.54,4.24,8,1.61-2.22,3.59-5.88,2.79-8-1.61" transform="translate(8.55 -0.11)"/><path class="cls-15" d="M77.16,184.85c2.49,1.37,4.54,4.24,8,1.61C82.92,190.05,79.26,189.25,77.16,184.85Z" transform="translate(8.55 -0.11)"/><path class="cls-14" d="M101.66,98.75a18.93,18.93,0,0,0,2.3-.81c2.66-1.37,5.26-2.87,8-4.15a2.64,2.64,0,0,1,2.37.21,1.71,1.71,0,0,1-.4,2.68,68.71,68.71,0,0,1-6.13,3.5c-.89.47-2,.62-2.82,1.11-.45.25-1.19.94-1,1.39s1.18.42,1.63.25c1.69-.63,3.3-1.46,5-2.11a8.45,8.45,0,0,1,2.63-.54c.46,0,1.26.35,1.34.69a1.88,1.88,0,0,1-.49,1.6,7.62,7.62,0,0,1-2.47,1.42c-1.92.64-3.9,1.09-5.83,1.72-.45.15-1.24.48-1.16,1.08.18.38.94.43,1.39.4a44.32,44.32,0,0,1,4.7-.49c.68,0,2.19,0,2,1.28.16.76-1.15,1-1.81,1.16a13.83,13.83,0,0,1-2.67.34,15.14,15.14,0,0,0-5.63,1.55,14.28,14.28,0,0,1-10.86,1c-4.43-1.27-6.59-5.49-5.3-10.48a7.83,7.83,0,0,1,2-3.58,41.47,41.47,0,0,0,7.34-9.09c.47-.81,1-2.11,2.07-1.43a3.22,3.22,0,0,1,1.25,2.65,13.28,13.28,0,0,1-1.85,3.66c-.24.42-.75.73-.9,1.17a1.32,1.32,0,0,0,.26,1.18,1.27,1.27,0,0,0,1.21,0c1.54-1.31,3-2.69,4.5-4.06a35.21,35.21,0,0,1,3.76-3.38,2.41,2.41,0,0,1,2.36.08,2.43,2.43,0,0,1,.06,2.37A55.2,55.2,0,0,1,104,95.74c-.87.83-1.8,1.58-2.71,2.36-.38.38-.21.85.36.65" transform="translate(8.55 -0.11)"/><path class="cls-18" d="M101.66,98.75a18.93,18.93,0,0,0,2.3-.81c2.66-1.37,5.26-2.87,8-4.15a2.64,2.64,0,0,1,2.37.21,1.71,1.71,0,0,1-.4,2.68,68.71,68.71,0,0,1-6.13,3.5c-.89.47-2,.62-2.82,1.11-.45.25-1.19.94-1,1.39s1.18.42,1.63.25c1.69-.63,3.3-1.46,5-2.11a8.45,8.45,0,0,1,2.63-.54c.46,0,1.26.35,1.34.69a1.88,1.88,0,0,1-.49,1.6,7.62,7.62,0,0,1-2.47,1.42c-1.92.64-3.9,1.09-5.83,1.72-.45.15-1.24.48-1.16,1.08.18.38.94.43,1.39.4a44.32,44.32,0,0,1,4.7-.49c.68,0,2.19,0,2,1.28.16.76-1.15,1-1.81,1.16a13.83,13.83,0,0,1-2.67.34,15.14,15.14,0,0,0-5.63,1.55,14.28,14.28,0,0,1-10.86,1c-4.43-1.27-6.59-5.49-5.3-10.48a7.83,7.83,0,0,1,2-3.58,41.47,41.47,0,0,0,7.34-9.09c.47-.81,1-2.11,2.07-1.43a3.22,3.22,0,0,1,1.25,2.65,13.28,13.28,0,0,1-1.85,3.66c-.24.42-.75.73-.9,1.17a1.32,1.32,0,0,0,.26,1.18,1.27,1.27,0,0,0,1.21,0c1.54-1.31,3-2.69,4.5-4.06a35.21,35.21,0,0,1,3.76-3.38,2.41,2.41,0,0,1,2.36.08,2.43,2.43,0,0,1,.06,2.37A55.2,55.2,0,0,1,104,95.74c-.87.83-1.8,1.58-2.71,2.36C100.92,98.48,101.09,99,101.66,98.75Z" transform="translate(8.55 -0.11)"/><path class="cls-14" d="M52.38,98.5a18,18,0,0,1-2.31-.79c-2.66-1.34-5.26-2.81-8-4a2.68,2.68,0,0,0-2.39.2,1.66,1.66,0,0,0,.41,2.62c2,1.27,4,2.35,6.14,3.43.89.46,1.95.6,2.83,1.08.45.24,1.19.92,1,1.36s-1.17.41-1.63.24c-1.69-.61-3.3-1.43-5-2.06a8.42,8.42,0,0,0-2.63-.52c-.46,0-1.26.34-1.34.67a1.83,1.83,0,0,0,.49,1.57,7.89,7.89,0,0,0,2.47,1.38c1.92.63,3.91,1.07,5.84,1.69.46.14,1.24.46,1.16,1.05-.17.38-.94.42-1.39.39a47,47,0,0,0-4.7-.47c-.69,0-2.19-.05-2,1.25-.15.74,1.15.94,1.81,1.14a14.76,14.76,0,0,0,2.68.32,15.53,15.53,0,0,1,5.64,1.52,14.56,14.56,0,0,0,10.88,1c4.44-1.24,6.6-5.36,5.31-10.24a7.71,7.71,0,0,0-2-3.51,40.72,40.72,0,0,1-7.35-8.9c-.47-.78-1-2.06-2.07-1.4a3.12,3.12,0,0,0-1.25,2.59,12.52,12.52,0,0,0,1.85,3.59c.24.42.75.71.9,1.15A1,1,0,0,1,56.2,96c-1.55-1.28-3-2.64-4.51-4a35.58,35.58,0,0,0-3.77-3.31,2.48,2.48,0,0,0-2.37.08,2.3,2.3,0,0,0,0,2.31A52.64,52.64,0,0,0,50,95.56c.87.81,1.81,1.54,2.72,2.31.38.37.21.83-.36.63" transform="translate(8.55 -0.11)"/><path class="cls-18" d="M52.38,98.5a18,18,0,0,1-2.31-.79c-2.66-1.34-5.26-2.81-8-4a2.68,2.68,0,0,0-2.39.2,1.66,1.66,0,0,0,.41,2.62c2,1.27,4,2.35,6.14,3.43.89.46,1.95.6,2.83,1.08.45.24,1.19.92,1,1.36s-1.17.41-1.63.24c-1.69-.61-3.3-1.43-5-2.06a8.42,8.42,0,0,0-2.63-.52c-.46,0-1.26.34-1.34.67a1.83,1.83,0,0,0,.49,1.57,7.89,7.89,0,0,0,2.47,1.38c1.92.63,3.91,1.07,5.84,1.69.46.14,1.24.46,1.16,1.05-.17.38-.94.42-1.39.39a47,47,0,0,0-4.7-.47c-.69,0-2.19-.05-2,1.25-.15.74,1.15.94,1.81,1.14a14.76,14.76,0,0,0,2.68.32,15.53,15.53,0,0,1,5.64,1.52,14.56,14.56,0,0,0,10.88,1c4.44-1.24,6.6-5.36,5.31-10.24a7.71,7.71,0,0,0-2-3.51,40.72,40.72,0,0,1-7.35-8.9c-.47-.78-1-2.06-2.07-1.4a3.12,3.12,0,0,0-1.25,2.59,12.52,12.52,0,0,0,1.85,3.59c.24.42.75.71.9,1.15A1,1,0,0,1,56.2,96c-1.55-1.28-3-2.64-4.51-4a35.58,35.58,0,0,0-3.77-3.31,2.48,2.48,0,0,0-2.37.08,2.3,2.3,0,0,0,0,2.31A52.64,52.64,0,0,0,50,95.56c.87.81,1.81,1.54,2.72,2.31C53.12,98.24,53,98.7,52.38,98.5Z" transform="translate(8.55 -0.11)"/><path d="M108.85,87.16h-3a29.54,29.54,0,0,0,.31-22.06A30.25,30.25,0,0,0,95.49,50.8a31,31,0,0,0-35.4-1.12A30.4,30.4,0,0,0,47.35,66.3a29.64,29.64,0,0,0,.72,20.9H45.22C41.2,77.64,42,61,55.05,49.87,66.52,40.11,84.37,39.24,96.6,48.1a33.59,33.59,0,0,1,12.25,39.06" transform="translate(8.55 -0.11)"/><path d="M61.56,83.06c10.31,8.26,20.57,6.92,31-.29-1.48,4.76-6.66,9.84-14.67,10-7.56.14-14.92-4-16.29-9.69" transform="translate(8.55 -0.11)"/><path d="M81.51,76.22c-1.76-3.31.14-9.86,3.09-11a4.59,4.59,0,0,1,3.38.28c2.65,1.29,4.24,7.46,2.7,10.41a9,9,0,0,1-1.18-1.4C88.73,73,87.64,71.88,86,71.91s-2.57,1.26-3.25,2.67a11.88,11.88,0,0,1-1.19,1.64" transform="translate(8.55 -0.11)"/><path d="M72.7,76c-1.48-1.71-2.21-4.13-4.69-4.09s-3,2.63-4.48,4.37c-.35-.65-.7-1-.71-1.38-.1-3.06.18-6,2.26-8.53a3.71,3.71,0,0,1,5.7-.4c2,1.77,3.17,7.07,1.92,10" transform="translate(8.55 -0.11)"/><path d="M84.5,105.81c.31,1,.55,1.69.85,2.66a35.22,35.22,0,0,1-16.86,0l.75-2.66a30.12,30.12,0,0,0,15.26,0" transform="translate(8.55 -0.11)"/></g></g></g><rect class="cls-19" x="9.02" y="0.25" width="153.07" height="252.28" rx="9.74"/></g></g></svg>