<svg xmlns="http://www.w3.org/2000/svg" xmlns:xlink="http://www.w3.org/1999/xlink" viewBox="0 0 171.11 261.42"><defs><style>.cls-1,.cls-11,.cls-12,.cls-13,.cls-4{fill:none;}.cls-2{clip-path:url(#clip-path);}.cls-3{clip-path:url(#clip-path-2);}.cls-13,.cls-4{stroke:#000;}.cls-5,.cls-8{font-size:10.03px;font-family:Cambria;}.cls-6{letter-spacing:-0.01em;}.cls-7{letter-spacing:-0.01em;}.cls-10,.cls-8{fill:#fff;}.cls-9{letter-spacing:0.01em;}.cls-11,.cls-12{stroke:#fff;}.cls-11,.cls-12,.cls-13{stroke-miterlimit:10;}.cls-11{stroke-width:0.75px;}.cls-12{stroke-width:1.33px;}.cls-13{stroke-width:0.5px;}</style><clipPath id="clip-path" transform="translate(8.55 -0.11)"><rect class="cls-1" width="154" height="253" rx="9.78"/></clipPath><clipPath id="clip-path-2" transform="translate(8.55 -0.11)"><rect class="cls-1" x="-1.43" y="-1.42" width="156.85" height="255.84"/></clipPath></defs><g id="Capa_2" data-name="Capa 2"><g id="Capa_1-2" data-name="Capa 1"><g class="cls-2"><g class="cls-3"><g class="cls-3"><rect x="0.5" y="126.32" width="170.11" height="134.59"/><rect class="cls-4" x="0.5" y="126.32" width="170.11" height="134.59"/></g><text class="cls-5" transform="translate(35.7 19.17)">CURIOSI<tspan class="cls-6" x="36.4" y="0">D</tspan><tspan x="42.95" y="0">AD/I</tspan><tspan class="cls-7" x="64" y="0">N</tspan><tspan x="70.7" y="0">TERÉS</tspan></text><text class="cls-8" transform="translate(118.24 233.19) rotate(180)">INDIFERENC<tspan class="cls-9" x="55.58" y="0">I</tspan><tspan x="58.92" y="0">A</tspan></text><g class="cls-3"><path class="cls-10" d="M108.81,176.67a31.82,31.82,0,0,0-63.63-.07c0,17.81,14.13,31.51,32.54,31.53,16.91,0,31.09-14.32,31.09-31.46M80.68,143.08c1.53.34,3.08.64,4.61,1A33.73,33.73,0,0,1,111,179c-.88,15.61-13.45,28.83-29.43,31a34,34,0,0,1-38.11-27.77,10.46,10.46,0,0,0-.42-1.42v-8.14c.14-.47.32-.94.42-1.42,2.88-14,11.28-23,25.1-27,1.57-.46,3.2-.73,4.8-1.09Z" transform="translate(8.55 -0.11)"/><path class="cls-11" d="M108.81,176.67a31.82,31.82,0,0,0-63.63-.07c0,17.81,14.13,31.51,32.54,31.53C94.63,208.16,108.81,193.81,108.81,176.67ZM80.68,143.08c1.53.34,3.08.64,4.61,1A33.73,33.73,0,0,1,111,179c-.88,15.61-13.45,28.83-29.43,31a34,34,0,0,1-38.11-27.77,10.46,10.46,0,0,0-.42-1.42v-8.14c.14-.47.32-.94.42-1.42,2.88-14,11.28-23,25.1-27,1.57-.46,3.2-.73,4.8-1.09Z" transform="translate(8.55 -0.11)"/><path class="cls-10" d="M55.15,184.15a8.7,8.7,0,0,0,9.76,7.35c4-.39,7.39-3.75,7.39-7.35Zm17.41-2.23A8.76,8.76,0,0,0,63.05,174c-4.39.4-8.1,4.17-7.74,7.89h5.8c.12-1.63.54-3.31,2.34-3,1,.17,1.83,1.63,2.73,2.52l-.4.52Zm18.52-.17h6.7a11.17,11.17,0,0,0-12.3-9.56c-5.15.4-9.74,4.91-9.83,9.74h9.69l-.29-.48c.94-.69,1.88-1.92,2.82-1.92s1.88,1.24,3.21,2.22m6.69,2.45H75.56c.19,5.72,5.25,10.22,11.34,10.24A11,11,0,0,0,97.77,184.2m-23.86,3.67c-5.8,6.73-12.81,7.69-17.93,2.59a10.8,10.8,0,0,1,.67-16C61.27,170.64,69.26,170.3,74,178c6.31-7.72,11.36-9.71,17.86-7A13.23,13.23,0,0,1,89,196.34c-6.2,1.17-11.61-1.84-15-8.47" transform="translate(8.55 -0.11)"/><path class="cls-10" d="M84,155.88a7.82,7.82,0,0,1,7.72,6.47c.09.59-.46,1.27-.72,1.9-.44-.45-1.09-.84-1.28-1.38-1.32-3.74-3.43-5.51-6.79-4.69-1.68.42-3.2,2-4.49,3.32-1.72,1.78-3.63,2.86-6.11,2.46a6.36,6.36,0,0,1-5.22-4.3,3.46,3.46,0,0,1-.31-1.65,6.54,6.54,0,0,1,.82-1.71c.42.46.86.91,1.26,1.39.08.09,0,.28.06.42a4.14,4.14,0,0,0,3.42,3.67,4.24,4.24,0,0,0,4.5-1.84c2.6-3.25,4.11-4.07,7.14-4.06" transform="translate(8.55 -0.11)"/><path d="M78,90.81c1.92,0,3.84,0,5.76,0,1.35,0,2.35.53,2.4,2s-1,2.16-2.41,2.17q-5.86,0-11.73,0c-1.34,0-2.31-.66-2.3-2.07s.93-2,2.31-2Z" transform="translate(8.55 -0.11)"/><path class="cls-12" d="M78,90.81c1.92,0,3.84,0,5.76,0,1.35,0,2.35.53,2.4,2s-1,2.16-2.41,2.17q-5.86,0-11.73,0c-1.34,0-2.31-.66-2.3-2.07s.93-2,2.31-2Z" transform="translate(8.55 -0.11)"/><path d="M77,108A31.54,31.54,0,1,0,45.35,76.45,31.65,31.65,0,0,0,77,108m0,2.75a34.29,34.29,0,1,1,34.36-34.26A34.38,34.38,0,0,1,77,110.72" transform="translate(8.55 -0.11)"/><path d="M63.89,65.83a2.92,2.92,0,0,0-3.11,2.93,3,3,0,1,0,3.11-2.93m5.69,3a5.81,5.81,0,0,1-6,5.63,5.76,5.76,0,0,1,.27-11.52,5.75,5.75,0,0,1,5.77,5.89" transform="translate(8.55 -0.11)"/><path d="M92.17,71.89a3,3,0,1,0-3-3,3.1,3.1,0,0,0,3,3m.11,2.57a5.76,5.76,0,1,1,5.66-5.75,5.79,5.79,0,0,1-5.66,5.75" transform="translate(8.55 -0.11)"/><path d="M48.43,82.33c.12.15.18.24.25.31.3.35.62.69.91,1a.52.52,0,0,1-.07.74.48.48,0,0,1-.71-.08l-1.44-1.53c-.86-.93-1.72-1.87-2.59-2.8a1.06,1.06,0,0,0-.43-.29,1.39,1.39,0,0,0-1.58.48,1.42,1.42,0,0,0,.06,1.62c.15.16.28.34.42.51.32.38.65.76.94,1.16a.44.44,0,0,1-.13.63.49.49,0,0,1-.64,0c-.13-.12-.25-.24-.37-.37-.73-.77-1.45-1.55-2.18-2.31a1.3,1.3,0,0,0-1.88,0,1.32,1.32,0,0,0,0,1.85c.74.87,1.5,1.72,2.26,2.57a.62.62,0,0,1,0,.78.51.51,0,0,1-.74,0c-.12-.11-.24-.24-.35-.36-.44-.47-.87-1-1.33-1.4A1.31,1.31,0,0,0,37,84.82a1.34,1.34,0,0,0-.2,1.88c.16.2.33.4.5.59l1,1.19a.5.5,0,0,1,.17.53.55.55,0,0,1-.9.23c-.17-.15-.33-.32-.51-.47a1.41,1.41,0,0,0-1.48-.1,1.34,1.34,0,0,0-.3,2.09C36.86,92.5,38.4,94.23,40,96a10.9,10.9,0,0,0,1.55,1.49,5.68,5.68,0,0,0,3,1,5.62,5.62,0,0,0,4-1.2c.87-.7,1.71-1.46,2.52-2.23a4.32,4.32,0,0,0,1.5-3.38,1.21,1.21,0,0,1,0-.19c.11-1.85.21-3.71.31-5.56a.88.88,0,0,0,0-.28,3.8,3.8,0,0,0-3.67-3.22c-.21,0-.43,0-.73-.07M65.92,56.84a13.11,13.11,0,0,0-4.83.87A13.53,13.53,0,0,0,56,61.14a12.79,12.79,0,0,0-2.54,4,12.48,12.48,0,0,0-.79,3.24A12.73,12.73,0,0,0,53,73.17a11.93,11.93,0,0,0,1.33,3.12,13.25,13.25,0,0,0,4.92,4.8,12.92,12.92,0,0,0,3.51,1.36,13.84,13.84,0,0,0,2.87.37,13.07,13.07,0,0,0,3.52-.39,13.74,13.74,0,0,0,1.69-.51,13.88,13.88,0,0,0,4.23-2.64A12.85,12.85,0,0,0,78,75.4,13.17,13.17,0,0,0,79.1,72a13.35,13.35,0,0,0,.05-4,11.69,11.69,0,0,0-.84-3.06A13.11,13.11,0,0,0,76,61.25a13.59,13.59,0,0,0-5.66-3.7,13.17,13.17,0,0,0-4.4-.71M41.07,79.4a3.54,3.54,0,0,1,1.31-1.24,2,2,0,0,1,1.12-.32c.36,0,.72,0,1.08,0a2.7,2.7,0,0,1,1.62.92c.45.48.9,1,1.34,1.46a.7.7,0,0,0,.53.24c.7,0,1.41.06,2.12.12a2.29,2.29,0,0,1,.61.16.27.27,0,0,0,.34-.07,12.6,12.6,0,0,1,.91-.88c.13-.13.15-.21,0-.37A16,16,0,0,1,50,75.64a15.79,15.79,0,0,1-.85-3.17,16.53,16.53,0,0,1-.21-3.58,15.75,15.75,0,0,1,1.29-5.45,16.63,16.63,0,0,1,6.08-7.27,15.25,15.25,0,0,1,3.55-1.81c.95-.33,1.94-.56,2.92-.8a16,16,0,0,1,4.32-.27,9.3,9.3,0,0,1,1.75.21,10.21,10.21,0,0,1,1.25.23c.82.27,1.65.51,2.44.84a20.71,20.71,0,0,1,2.36,1.17A15.83,15.83,0,0,1,78.8,59a16.75,16.75,0,0,1,2.55,3.8,16,16,0,0,1,1.25,3.6,16.25,16.25,0,0,1,.24,5.43,15.7,15.7,0,0,1-1.15,4.31A16.62,16.62,0,0,1,77,82.44a17.12,17.12,0,0,1-7.91,3.68,17.61,17.61,0,0,1-4.35.23A17.5,17.5,0,0,1,56,83.28c-.14-.09-.22-.11-.35,0-.33.34-.69.66-1,1-.07.07-.14.2-.11.28a6.7,6.7,0,0,1,.15,2.19c0,.77,0,1.54-.06,2.31-.08,1.21-.13,2.42-.3,3.61a6.28,6.28,0,0,1-2.18,3.85c-.94.82-1.84,1.69-2.84,2.45a9.23,9.23,0,0,1-1.89.93,7.85,7.85,0,0,1-3.63.33,5.93,5.93,0,0,1-2.5-.8c-.52-.28-1-.62-1.54-.95l-.89.85a2.57,2.57,0,0,1-4.15-.86,2.42,2.42,0,0,1,.61-2.7c.33-.34.64-.69,1-1.07-.53-.57-1.13-1.17-1.66-1.81A7.91,7.91,0,0,1,33.32,91a3.13,3.13,0,0,1,1.08-3.78c.15-.09.28-.2.4-.28a6.13,6.13,0,0,1-.17-1.32,2.92,2.92,0,0,1,.5-1.49,3.32,3.32,0,0,1,1.49-1.26c.08,0,.14-.19.14-.28a3,3,0,0,1,.63-2.12,3.23,3.23,0,0,1,3.68-1.11" transform="translate(8.55 -0.11)"/><path class="cls-10" d="M48.43,82.33c.3,0,.52.06.73.07a3.8,3.8,0,0,1,3.67,3.22.88.88,0,0,1,0,.28c-.1,1.85-.2,3.71-.31,5.56a1.21,1.21,0,0,0,0,.19A4.32,4.32,0,0,1,51,95c-.81.77-1.65,1.53-2.52,2.23a5.62,5.62,0,0,1-4,1.2,5.68,5.68,0,0,1-3-1A10.9,10.9,0,0,1,40,96c-1.56-1.72-3.1-3.45-4.65-5.19a1.34,1.34,0,0,1,.3-2.09,1.41,1.41,0,0,1,1.48.1c.18.15.34.32.51.47a.55.55,0,0,0,.9-.23.51.51,0,0,0-.17-.53l-1-1.19c-.17-.19-.34-.39-.5-.59a1.35,1.35,0,0,1,.2-1.88,1.31,1.31,0,0,1,1.81.07c.46.45.89.93,1.33,1.4.11.12.23.25.35.36a.51.51,0,0,0,.74,0,.62.62,0,0,0,0-.78c-.76-.85-1.52-1.7-2.26-2.57a1.32,1.32,0,0,1,0-1.85,1.29,1.29,0,0,1,1.88,0c.73.76,1.45,1.54,2.18,2.31a4.31,4.31,0,0,0,.37.37.49.49,0,0,0,.64,0,.44.44,0,0,0,.13-.63c-.29-.4-.62-.78-.94-1.16-.14-.17-.27-.35-.42-.51a1.42,1.42,0,0,1-.06-1.62,1.39,1.39,0,0,1,1.58-.48,1.06,1.06,0,0,1,.43.29c.87.93,1.73,1.87,2.59,2.8l1.44,1.53a.49.49,0,0,0,.71.08.52.52,0,0,0,.07-.74c-.3-.36-.61-.7-.91-1-.07-.07-.13-.16-.25-.31" transform="translate(8.55 -0.11)"/><path d="M77.12,69.53A1.45,1.45,0,0,1,76.46,71a1.41,1.41,0,0,1-2.08-.68,1.05,1.05,0,0,1-.06-.24A22.7,22.7,0,0,0,74,67.72a7.59,7.59,0,0,0-.74-1.8A8.06,8.06,0,0,0,69,62.25a9.55,9.55,0,0,0-3.27-.59,1.37,1.37,0,0,1-1.19-1.13,1.35,1.35,0,0,1,.82-1.45,3,3,0,0,1,1-.13,11.22,11.22,0,0,1,3.25.58,10.8,10.8,0,0,1,4.16,2.53,11.06,11.06,0,0,1,2.73,4.11,11.69,11.69,0,0,1,.64,3.36" transform="translate(8.55 -0.11)"/></g></g></g><rect class="cls-13" x="9.02" y="0.25" width="153.07" height="252.28" rx="9.74"/></g></g></svg>