<svg xmlns="http://www.w3.org/2000/svg" xmlns:xlink="http://www.w3.org/1999/xlink" viewBox="0 0 171.11 261.42"><defs><style>.cls-1,.cls-11,.cls-4,.cls-9{fill:none;}.cls-2{clip-path:url(#clip-path);}.cls-3{clip-path:url(#clip-path-2);}.cls-11,.cls-4{stroke:#000;}.cls-5,.cls-8{font-size:10.03px;font-family:Cambria;}.cls-6{letter-spacing:-0.01em;}.cls-7{letter-spacing:0em;}.cls-10,.cls-8{fill:#fff;}.cls-9{stroke:#fff;}.cls-11,.cls-9{stroke-miterlimit:10;stroke-width:0.5px;}</style><clipPath id="clip-path" transform="translate(8.55 -0.11)"><rect class="cls-1" width="154" height="253" rx="9.78"/></clipPath><clipPath id="clip-path-2" transform="translate(8.55 -0.11)"><rect class="cls-1" x="-1.43" y="-1.42" width="156.85" height="255.84"/></clipPath></defs><g id="Capa_2" data-name="Capa 2"><g id="Capa_1-2" data-name="Capa 1"><g class="cls-2"><g class="cls-3"><g class="cls-3"><rect x="0.5" y="126.32" width="170.11" height="134.59"/><rect class="cls-4" x="0.5" y="126.32" width="170.11" height="134.59"/></g><text class="cls-5" transform="translate(45.64 19.17)">AFE<tspan class="cls-6" x="17.4" y="0">CT</tspan><tspan class="cls-7" x="28.72" y="0">O/APRECIO</tspan></text><text class="cls-8" transform="translate(117.52 233.19) rotate(180)">ODIO/CÓLERA</text><g class="cls-3"><path d="M98,113.8c5.6-4,10.23-7.88,13.4-13.06a23.4,23.4,0,0,0,3-7.75,6.87,6.87,0,0,0-4.54-8,8,8,0,0,0-9.53,2.62c-1.49,2.16-2.44,2-3.95.06a7.55,7.55,0,0,0-9.76-2.14c-3.6,1.81-5.24,5.09-4.06,9a17.5,17.5,0,0,0,3.15,6.31c3.84,4.44,8.06,8.56,12.27,13M98.2,85c1.61-1,2.9-2.33,4.34-2.5,4-.48,4.17-3.06,4-6a46.26,46.26,0,0,0-.28-5c-2.1-14.15-14.52-25.28-28.59-25.68C62.06,45.38,49.45,55.1,46.34,70c-2.91,14,5,28.37,18.57,33.73a32.07,32.07,0,0,0,18.92,1.33,60.15,60.15,0,0,1-3.28-6.25c-.74-1.91-1.62-2.56-3.84-2.47-6.92.26-12.3-3-16.47-8.2-.44-.55-.14-1.68-.18-2.54a10.59,10.59,0,0,1,2.5.69c.66.38,1.08,1.15,1.64,1.71a16.81,16.81,0,0,0,12.35,5.32C78.2,93.34,79,93,79.24,91a10.31,10.31,0,0,1,9.4-9.27A11.92,11.92,0,0,1,98.2,85m11.07-3.42c1.12.5,2.11.88,3,1.38,4.45,2.36,6.35,7.09,5,12.44a26,26,0,0,1-7.44,12.29c-2.9,2.82-6.17,5.29-9.22,8-1.56,1.37-2.94,1.22-4.44-.08-2.55-2.19-5.28-4.19-7.67-6.53A4.06,4.06,0,0,0,84.11,108,33.54,33.54,0,0,1,43.87,84.51,32.94,32.94,0,0,1,66.41,44.08c23.38-7.06,46.3,12.26,43,36.22,0,.35-.07.69-.12,1.29" transform="translate(8.55 -0.11)"/><path class="cls-9" d="M98,113.8c5.6-4,10.23-7.88,13.4-13.06a23.4,23.4,0,0,0,3-7.75,6.87,6.87,0,0,0-4.54-8,8,8,0,0,0-9.53,2.62c-1.49,2.16-2.44,2-3.95.06a7.55,7.55,0,0,0-9.76-2.14c-3.6,1.81-5.24,5.09-4.06,9a17.5,17.5,0,0,0,3.15,6.31C89.57,105.28,93.79,109.4,98,113.8ZM98.2,85c1.61-1,2.9-2.33,4.34-2.5,4-.48,4.17-3.06,4-6a46.26,46.26,0,0,0-.28-5c-2.1-14.15-14.52-25.28-28.59-25.68C62.06,45.38,49.45,55.1,46.34,70c-2.91,14,5,28.37,18.57,33.73a32.07,32.07,0,0,0,18.92,1.33,60.15,60.15,0,0,1-3.28-6.25c-.74-1.91-1.62-2.56-3.84-2.47-6.92.26-12.3-3-16.47-8.2-.44-.55-.14-1.68-.18-2.54a10.59,10.59,0,0,1,2.5.69c.66.38,1.08,1.15,1.64,1.71a16.81,16.81,0,0,0,12.35,5.32C78.2,93.34,79,93,79.24,91a10.31,10.31,0,0,1,9.4-9.27A11.92,11.92,0,0,1,98.2,85Zm11.07-3.42c1.12.5,2.11.88,3,1.38,4.45,2.36,6.35,7.09,5,12.44a26,26,0,0,1-7.44,12.29c-2.9,2.82-6.17,5.29-9.22,8-1.56,1.37-2.94,1.22-4.44-.08-2.55-2.19-5.28-4.19-7.67-6.53A4.06,4.06,0,0,0,84.11,108,33.54,33.54,0,0,1,43.87,84.51,32.94,32.94,0,0,1,66.41,44.08c23.38-7.06,46.3,12.26,43,36.22C109.34,80.65,109.32,81,109.27,81.59Z" transform="translate(8.55 -0.11)"/><path d="M65.92,64.65A3.36,3.36,0,0,0,62.31,68a3.53,3.53,0,1,0,3.61-3.36m6.6,3.45a6.73,6.73,0,0,1-7,6.48,6.63,6.63,0,0,1,.32-13.26,6.64,6.64,0,0,1,6.68,6.78" transform="translate(8.55 -0.11)"/><path class="cls-9" d="M65.92,64.65A3.36,3.36,0,0,0,62.31,68a3.53,3.53,0,1,0,3.61-3.36Zm6.6,3.45a6.73,6.73,0,0,1-7,6.48,6.63,6.63,0,0,1,.32-13.26A6.64,6.64,0,0,1,72.52,68.1Z" transform="translate(8.55 -0.11)"/><path d="M87.33,71.62a3.49,3.49,0,1,0-3.54-3.52,3.6,3.6,0,0,0,3.54,3.52m.13,3a6.7,6.7,0,0,1-6.82-6.65,6.7,6.7,0,1,1,6.82,6.65" transform="translate(8.55 -0.11)"/><path class="cls-9" d="M87.33,71.62a3.49,3.49,0,1,0-3.54-3.52A3.6,3.6,0,0,0,87.33,71.62Zm.13,3a6.7,6.7,0,0,1-6.82-6.65,6.7,6.7,0,1,1,6.82,6.65Z" transform="translate(8.55 -0.11)"/><path class="cls-10" d="M77,208.25a31.6,31.6,0,1,0,.09-63.19c-16.29-.08-33,13.1-31.91,33.6.87,16.65,15,29.59,31.82,29.59M111.38,177a34.39,34.39,0,1,1-32.6-34.28A34.09,34.09,0,0,1,111.38,177" transform="translate(8.55 -0.11)"/><path class="cls-10" d="M77,173c-4.21,0-11-5-12.2-9-.12-.43.25-1,.38-1.52.45.13,1,.13,1.3.42.84,1,1.51,2.06,2.32,3C74,172.23,80,172.25,85.1,166c.81-1,1.47-2.09,2.32-3,.29-.32,1-.28,1.49-.41.1.45.38,1,.28,1.35-1,3.93-8,9.1-12.15,9.11" transform="translate(8.55 -0.11)"/><path class="cls-9" d="M77,173c-4.21,0-11-5-12.2-9-.12-.43.25-1,.38-1.52.45.13,1,.13,1.3.42.84,1,1.51,2.06,2.32,3C74,172.23,80,172.25,85.1,166c.81-1,1.47-2.09,2.32-3,.29-.32,1-.28,1.49-.41.1.45.38,1,.28,1.35C88.16,167.79,81.23,173,77,173Z" transform="translate(8.55 -0.11)"/><path class="cls-10" d="M96.4,182c1.83,0,3.55-.08,5.24.06.46,0,.85.78,1.27,1.2-.43.31-.87.89-1.3.9-5.22,0-10.44,0-15.66-.12-.41,0-.81-.43-1.22-.66a5.69,5.69,0,0,1,.9-1.32c.47-.41,1.28-.5,1.62-1,3.13-4.36,6.27-4.13,9.15.91" transform="translate(8.55 -0.11)"/><path class="cls-9" d="M96.4,182c1.83,0,3.55-.08,5.24.06.46,0,.85.78,1.27,1.2-.43.31-.87.89-1.3.9-5.22,0-10.44,0-15.66-.12-.41,0-.81-.43-1.22-.66a5.69,5.69,0,0,1,.9-1.32c.47-.41,1.28-.5,1.62-1C90.38,176.74,93.52,177,96.4,182Z" transform="translate(8.55 -0.11)"/><path class="cls-10" d="M69.11,184.2c-5.61,0-11.23,0-16.84,0-.4,0-1-.58-1.13-1-.09-.23.46-.76.79-1.08a16.34,16.34,0,0,0,2.1-1.85c1.89-2.6,5.9-3,7.33-.35C62.53,182,64,182,65.9,182a5.06,5.06,0,0,1,2,.13,6,6,0,0,1,1.52,1.32c-.11.26-.23.53-.34.8" transform="translate(8.55 -0.11)"/><path class="cls-9" d="M69.11,184.2c-5.61,0-11.23,0-16.84,0-.4,0-1-.58-1.13-1-.09-.23.46-.76.79-1.08a16.34,16.34,0,0,0,2.1-1.85c1.89-2.6,5.9-3,7.33-.35C62.53,182,64,182,65.9,182a5.06,5.06,0,0,1,2,.13,6,6,0,0,1,1.52,1.32C69.34,183.66,69.22,183.93,69.11,184.2Z" transform="translate(8.55 -0.11)"/><path class="cls-10" d="M53.62,191.86a5.06,5.06,0,0,1,1.23-1c4-1.49,8-3,12-4.34.47-.16,1.14.27,1.72.42-.37.47-.64,1.18-1.13,1.37q-5.82,2.31-11.72,4.41a5.24,5.24,0,0,1-2-.17c0-.22-.08-.45-.11-.67" transform="translate(8.55 -0.11)"/><path class="cls-9" d="M53.62,191.86a5.06,5.06,0,0,1,1.23-1c4-1.49,8-3,12-4.34.47-.16,1.14.27,1.72.42-.37.47-.64,1.18-1.13,1.37q-5.82,2.31-11.72,4.41a5.24,5.24,0,0,1-2-.17C53.69,192.31,53.65,192.08,53.62,191.86Z" transform="translate(8.55 -0.11)"/><path class="cls-10" d="M99.08,193c-1-.35-2.11-.68-3.15-1.07-3.19-1.2-6.38-2.4-9.54-3.69-.43-.17-.68-.79-1-1.21.56-.2,1.22-.71,1.65-.56q6.17,2.11,12.26,4.45a1.9,1.9,0,0,1,.87,1.29c.09.43-.25.93-.4,1.4l-.67-.61" transform="translate(8.55 -0.11)"/><path class="cls-9" d="M99.08,193c-1-.35-2.11-.68-3.15-1.07-3.19-1.2-6.38-2.4-9.54-3.69-.43-.17-.68-.79-1-1.21.56-.2,1.22-.71,1.65-.56q6.17,2.11,12.26,4.45a1.9,1.9,0,0,1,.87,1.29c.09.43-.25.93-.4,1.4Z" transform="translate(8.55 -0.11)"/></g></g></g><rect class="cls-11" x="9.02" y="0.25" width="153.07" height="252.28" rx="9.74"/></g></g></svg>