<svg xmlns="http://www.w3.org/2000/svg" viewBox="0 0 484.15 757.98"><defs><style>.cls-1{isolation:isolate;}.cls-2{fill:#fffdf3;}.cls-3{opacity:0.6;}.cls-18,.cls-20,.cls-26,.cls-3{mix-blend-mode:multiply;}.cls-4{fill:#fff;}.cls-5{fill:#f5f5f5;}.cls-6{fill:#fcfcfc;}.cls-7{fill:#fbfbfb;}.cls-8{fill:#f2f2f2;}.cls-9{fill:#e4e4e4;}.cls-10{fill:#f3f3f3;}.cls-11{fill:#efefef;}.cls-12{fill:#f1f1f1;}.cls-13{fill:#f4f4f4;}.cls-14{fill:#f7f7f7;}.cls-15{fill:#e9e9e9;}.cls-16{fill:#ececec;}.cls-17{fill:#e5e5e5;}.cls-18{opacity:0.1;}.cls-19{fill:#636363;}.cls-20{opacity:0.2;}.cls-21{fill:silver;}.cls-22{fill:#3a3a3a;}.cls-23{fill:#787878;}.cls-24{fill:#3e3e3e;}.cls-25{fill:#898989;}.cls-26{opacity:0.15;}.cls-27{fill:#a8a8a8;}.cls-28{fill:#191919;}.cls-29{fill:#dadada;}.cls-30{fill:#cdcdcd;}.cls-31{fill:#626262;}.cls-32{fill:#525252;}.cls-33{fill:#a1a1a1;}.cls-34{fill:#818181;}.cls-35{fill:#a5a5a5;}.cls-36{fill:#494949;}.cls-37,.cls-38,.cls-39{fill:none;stroke-miterlimit:10;}.cls-37,.cls-38{stroke:#000;}.cls-37{stroke-width:0.59px;}.cls-38{stroke-width:0.39px;}.cls-39{stroke:#fff;stroke-width:0.52px;}</style></defs><g class="cls-1"><g id="Capa_2" data-name="Capa 2"><g id="Layer_1" data-name="Layer 1"><rect class="cls-2" x="0.96" y="38.8" width="481.89" height="680.31"/><g class="cls-3"><rect class="cls-4" x="76.56" y="719.68" width="38.29" height="38.3"/><rect class="cls-5" x="114.85" y="719.68" width="38.28" height="38.3"/><rect class="cls-4" x="153.13" y="719.68" width="38.29" height="38.3"/><rect class="cls-6" x="153.13" y="681.38" width="38.28" height="38.3"/><rect class="cls-4" x="114.85" y="681.38" width="38.29" height="38.3"/><rect class="cls-7" x="76.56" y="681.38" width="38.28" height="38.3"/><rect class="cls-8" x="76.56" y="643.08" width="38.29" height="38.3"/><rect class="cls-5" x="114.85" y="643.08" width="38.28" height="38.3"/><rect class="cls-4" x="153.13" y="643.08" width="38.29" height="38.3"/><rect class="cls-7" x="153.14" y="604.78" width="38.28" height="38.3"/><rect class="cls-4" x="114.85" y="604.78" width="38.29" height="38.3"/><rect class="cls-9" x="76.57" y="604.78" width="38.28" height="38.3"/><rect class="cls-4" x="76.57" y="566.47" width="38.28" height="38.3"/><rect class="cls-4" x="114.85" y="566.47" width="38.29" height="38.3"/><rect class="cls-4" x="153.14" y="566.47" width="38.29" height="38.3"/><rect class="cls-5" x="153.14" y="528.17" width="38.28" height="38.3"/><rect class="cls-4" x="114.85" y="528.17" width="38.29" height="38.3"/><rect class="cls-5" x="76.57" y="528.17" width="38.28" height="38.3"/><rect class="cls-4" y="719.68" width="38.28" height="38.3"/><rect class="cls-10" x="38.28" y="719.68" width="38.28" height="38.3"/><rect class="cls-4" x="38.28" y="681.38" width="38.28" height="38.3"/><rect class="cls-11" y="681.38" width="38.28" height="38.3"/><rect class="cls-4" y="643.08" width="38.28" height="38.3"/><rect class="cls-12" x="38.28" y="643.08" width="38.28" height="38.3"/><rect class="cls-13" x="38.28" y="604.78" width="38.28" height="38.3"/><rect class="cls-13" y="604.78" width="38.28" height="38.3"/><rect class="cls-4" y="566.47" width="38.28" height="38.3"/><rect class="cls-9" x="38.28" y="566.47" width="38.28" height="38.3"/><rect class="cls-14" x="38.28" y="528.17" width="38.28" height="38.3"/><rect class="cls-15" y="528.17" width="38.28" height="38.3"/><rect class="cls-11" x="153.14" y="493.9" width="38.28" height="34.28"/><rect class="cls-4" x="114.85" y="493.9" width="38.29" height="34.28"/><rect class="cls-16" x="76.57" y="493.9" width="38.28" height="34.28"/><rect class="cls-4" x="76.57" y="455.59" width="38.29" height="38.3"/><rect class="cls-17" x="114.86" y="455.59" width="38.28" height="38.3"/><rect class="cls-4" x="153.14" y="455.59" width="38.29" height="38.3"/><rect class="cls-6" x="153.14" y="417.29" width="38.28" height="38.3"/><rect class="cls-4" x="114.85" y="417.29" width="38.29" height="38.3"/><rect class="cls-7" x="76.57" y="417.29" width="38.28" height="38.3"/><rect class="cls-8" x="76.57" y="378.99" width="38.29" height="38.3"/><rect class="cls-5" x="114.86" y="378.99" width="38.28" height="38.3"/><rect class="cls-4" x="153.14" y="378.99" width="38.29" height="38.3"/><rect class="cls-7" x="153.14" y="340.69" width="38.28" height="38.3"/><rect class="cls-4" x="114.86" y="340.69" width="38.29" height="38.3"/><rect class="cls-9" x="76.57" y="340.69" width="38.28" height="38.3"/><rect class="cls-4" x="76.57" y="302.39" width="38.28" height="38.3"/><rect class="cls-4" x="114.86" y="302.39" width="38.29" height="38.3"/><rect class="cls-4" x="153.14" y="302.39" width="38.29" height="38.3"/><rect class="cls-5" x="153.14" y="264.09" width="38.28" height="38.3"/><rect class="cls-4" x="114.86" y="264.09" width="38.29" height="38.3"/><rect class="cls-5" x="76.57" y="264.09" width="38.28" height="38.3"/><rect class="cls-4" x="38.28" y="493.9" width="38.28" height="34.28"/><rect class="cls-9" y="493.9" width="38.28" height="34.28"/><rect class="cls-4" y="455.59" width="38.28" height="38.3"/><rect class="cls-10" x="38.28" y="455.59" width="38.28" height="38.3"/><rect class="cls-4" x="38.28" y="417.29" width="38.28" height="38.3"/><rect class="cls-11" y="417.29" width="38.28" height="38.3"/><rect class="cls-4" y="378.99" width="38.28" height="38.3"/><rect class="cls-12" x="38.28" y="378.99" width="38.28" height="38.3"/><rect class="cls-13" x="38.28" y="340.69" width="38.28" height="38.3"/><rect class="cls-13" y="340.69" width="38.28" height="38.3"/><rect class="cls-4" y="302.39" width="38.28" height="38.3"/><rect class="cls-9" x="38.29" y="302.39" width="38.28" height="38.3"/><rect class="cls-14" x="38.28" y="264.09" width="38.28" height="38.3"/><rect class="cls-15" y="264.09" width="38.28" height="38.3"/><rect class="cls-11" x="153.14" y="229.81" width="38.28" height="34.28"/><rect class="cls-4" x="114.85" y="229.81" width="38.29" height="34.28"/><rect class="cls-16" x="76.57" y="229.81" width="38.28" height="34.28"/><rect class="cls-4" x="76.57" y="191.51" width="38.29" height="38.3"/><rect class="cls-4" x="114.86" y="191.51" width="38.28" height="38.3"/><rect class="cls-4" x="153.14" y="191.51" width="38.29" height="38.3"/><rect class="cls-6" x="153.14" y="153.2" width="38.28" height="38.3"/><rect class="cls-4" x="114.85" y="153.2" width="38.29" height="38.3"/><rect class="cls-7" x="76.57" y="153.2" width="38.28" height="38.3"/><rect class="cls-8" x="76.57" y="114.91" width="38.29" height="38.3"/><rect class="cls-4" x="114.86" y="114.91" width="38.28" height="38.3"/><rect class="cls-4" x="153.14" y="114.91" width="38.29" height="38.3"/><rect class="cls-7" x="153.14" y="76.61" width="38.28" height="38.3"/><rect class="cls-4" x="114.86" y="76.61" width="38.29" height="38.3"/><rect class="cls-9" x="76.57" y="76.61" width="38.28" height="38.3"/><rect class="cls-4" x="76.57" y="38.3" width="38.28" height="38.3"/><rect class="cls-4" x="114.86" y="38.3" width="38.29" height="38.3"/><rect class="cls-4" x="153.14" y="38.3" width="38.29" height="38.3"/><rect class="cls-5" x="153.14" width="38.28" height="38.3"/><rect class="cls-4" x="114.86" width="38.29" height="38.3"/><rect class="cls-5" x="76.57" width="38.28" height="38.3"/><rect class="cls-4" x="38.28" y="229.81" width="38.28" height="34.28"/><rect class="cls-9" y="229.81" width="38.28" height="34.28"/><rect class="cls-4" y="191.51" width="38.28" height="38.3"/><rect class="cls-10" x="38.28" y="191.51" width="38.28" height="38.3"/><rect class="cls-4" x="38.28" y="153.2" width="38.28" height="38.3"/><rect class="cls-11" y="153.2" width="38.28" height="38.3"/><rect class="cls-4" y="114.91" width="38.28" height="38.3"/><rect class="cls-12" x="38.28" y="114.91" width="38.28" height="38.3"/><rect class="cls-13" x="38.28" y="76.61" width="38.28" height="38.3"/><rect class="cls-13" y="76.61" width="38.28" height="38.3"/><rect class="cls-4" y="38.3" width="38.28" height="38.3"/><rect class="cls-9" x="38.29" y="38.3" width="38.28" height="38.3"/><rect class="cls-14" x="38.28" width="38.28" height="38.3"/><rect class="cls-15" width="38.28" height="38.3"/></g><g class="cls-3"><rect class="cls-4" x="369.3" y="719.68" width="38.29" height="38.3"/><rect class="cls-5" x="331.02" y="719.68" width="38.28" height="38.3"/><rect class="cls-4" x="292.73" y="719.68" width="38.29" height="38.3"/><rect class="cls-6" x="292.73" y="681.38" width="38.28" height="38.3"/><rect class="cls-4" x="331.02" y="681.38" width="38.29" height="38.3"/><rect class="cls-7" x="369.3" y="681.38" width="38.28" height="38.3"/><rect class="cls-8" x="369.3" y="643.08" width="38.29" height="38.3"/><rect class="cls-5" x="331.02" y="643.08" width="38.28" height="38.3"/><rect class="cls-4" x="292.73" y="643.08" width="38.29" height="38.3"/><rect class="cls-7" x="292.73" y="604.78" width="38.28" height="38.3"/><rect class="cls-4" x="331.01" y="604.78" width="38.29" height="38.3"/><rect class="cls-9" x="369.3" y="604.78" width="38.28" height="38.3"/><rect class="cls-4" x="369.3" y="566.47" width="38.28" height="38.3"/><rect class="cls-4" x="331.01" y="566.47" width="38.29" height="38.3"/><rect class="cls-4" x="292.73" y="566.47" width="38.29" height="38.3"/><rect class="cls-5" x="292.73" y="528.17" width="38.28" height="38.3"/><rect class="cls-4" x="331.01" y="528.17" width="38.29" height="38.3"/><rect class="cls-5" x="369.3" y="528.17" width="38.28" height="38.3"/><rect class="cls-4" x="445.87" y="719.68" width="38.28" height="38.3"/><rect class="cls-10" x="407.59" y="719.68" width="38.28" height="38.3"/><rect class="cls-4" x="407.59" y="681.38" width="38.28" height="38.3"/><rect class="cls-11" x="445.87" y="681.38" width="38.28" height="38.3"/><rect class="cls-4" x="445.87" y="643.08" width="38.28" height="38.3"/><rect class="cls-12" x="407.59" y="643.08" width="38.28" height="38.3"/><rect class="cls-13" x="407.59" y="604.78" width="38.28" height="38.3"/><rect class="cls-13" x="445.87" y="604.78" width="38.28" height="38.3"/><rect class="cls-4" x="445.87" y="566.47" width="38.28" height="38.3"/><rect class="cls-9" x="407.59" y="566.47" width="38.28" height="38.3"/><rect class="cls-14" x="407.59" y="528.17" width="38.28" height="38.3"/><rect class="cls-15" x="445.87" y="528.17" width="38.28" height="38.3"/><rect class="cls-11" x="292.73" y="493.9" width="38.28" height="34.28"/><rect class="cls-4" x="331.01" y="493.9" width="38.29" height="34.28"/><rect class="cls-16" x="369.3" y="493.9" width="38.28" height="34.28"/><rect class="cls-4" x="369.29" y="455.59" width="38.29" height="38.3"/><rect class="cls-17" x="331.01" y="455.59" width="38.28" height="38.3"/><rect class="cls-4" x="292.73" y="455.59" width="38.29" height="38.3"/><rect class="cls-6" x="292.73" y="417.29" width="38.28" height="38.3"/><rect class="cls-4" x="331.01" y="417.29" width="38.29" height="38.3"/><rect class="cls-7" x="369.3" y="417.29" width="38.28" height="38.3"/><rect class="cls-8" x="369.29" y="378.99" width="38.29" height="38.3"/><rect class="cls-5" x="331.01" y="378.99" width="38.28" height="38.3"/><rect class="cls-4" x="292.73" y="378.99" width="38.29" height="38.3"/><rect class="cls-7" x="292.73" y="340.69" width="38.28" height="38.3"/><rect class="cls-4" x="331.01" y="340.69" width="38.29" height="38.3"/><rect class="cls-9" x="369.29" y="340.69" width="38.28" height="38.3"/><rect class="cls-4" x="369.29" y="302.39" width="38.28" height="38.3"/><rect class="cls-4" x="331.01" y="302.39" width="38.29" height="38.3"/><rect class="cls-4" x="292.72" y="302.39" width="38.29" height="38.3"/><rect class="cls-5" x="292.73" y="264.09" width="38.28" height="38.3"/><rect class="cls-4" x="331.01" y="264.09" width="38.29" height="38.3"/><rect class="cls-5" x="369.29" y="264.09" width="38.28" height="38.3"/><rect class="cls-4" x="407.58" y="493.9" width="38.28" height="34.28"/><rect class="cls-9" x="445.87" y="493.9" width="38.28" height="34.28"/><rect class="cls-4" x="445.87" y="455.59" width="38.28" height="38.3"/><rect class="cls-10" x="407.58" y="455.59" width="38.28" height="38.3"/><rect class="cls-4" x="407.58" y="417.29" width="38.28" height="38.3"/><rect class="cls-11" x="445.87" y="417.29" width="38.28" height="38.3"/><rect class="cls-4" x="445.87" y="378.99" width="38.28" height="38.3"/><rect class="cls-12" x="407.58" y="378.99" width="38.28" height="38.3"/><rect class="cls-13" x="407.58" y="340.69" width="38.28" height="38.3"/><rect class="cls-13" x="445.87" y="340.69" width="38.28" height="38.3"/><rect class="cls-4" x="445.86" y="302.39" width="38.28" height="38.3"/><rect class="cls-9" x="407.58" y="302.39" width="38.28" height="38.3"/><rect class="cls-14" x="407.58" y="264.09" width="38.28" height="38.3"/><rect class="cls-15" x="445.87" y="264.09" width="38.28" height="38.3"/><rect class="cls-11" x="292.73" y="229.81" width="38.28" height="34.28"/><rect class="cls-4" x="331.01" y="229.81" width="38.29" height="34.28"/><rect class="cls-16" x="369.3" y="229.81" width="38.28" height="34.28"/><rect class="cls-4" x="369.29" y="191.51" width="38.29" height="38.3"/><rect class="cls-4" x="331.01" y="191.51" width="38.28" height="38.3"/><rect class="cls-4" x="292.73" y="191.51" width="38.29" height="38.3"/><rect class="cls-6" x="292.73" y="153.2" width="38.28" height="38.3"/><rect class="cls-4" x="331.01" y="153.2" width="38.29" height="38.3"/><rect class="cls-7" x="369.3" y="153.2" width="38.28" height="38.3"/><rect class="cls-8" x="369.29" y="114.91" width="38.29" height="38.3"/><rect class="cls-4" x="331.01" y="114.91" width="38.28" height="38.3"/><rect class="cls-4" x="292.73" y="114.91" width="38.29" height="38.3"/><rect class="cls-7" x="292.73" y="76.61" width="38.28" height="38.3"/><rect class="cls-4" x="331.01" y="76.61" width="38.29" height="38.3"/><rect class="cls-9" x="369.29" y="76.61" width="38.28" height="38.3"/><rect class="cls-4" x="369.29" y="38.3" width="38.28" height="38.3"/><rect class="cls-4" x="331.01" y="38.3" width="38.29" height="38.3"/><rect class="cls-4" x="292.72" y="38.3" width="38.29" height="38.3"/><rect class="cls-5" x="292.73" width="38.28" height="38.3"/><rect class="cls-4" x="331.01" width="38.29" height="38.3"/><rect class="cls-5" x="369.29" width="38.28" height="38.3"/><rect class="cls-4" x="407.58" y="229.81" width="38.28" height="34.28"/><rect class="cls-9" x="445.87" y="229.81" width="38.28" height="34.28"/><rect class="cls-4" x="445.87" y="191.51" width="38.28" height="38.3"/><rect class="cls-10" x="407.58" y="191.51" width="38.28" height="38.3"/><rect class="cls-4" x="407.58" y="153.2" width="38.28" height="38.3"/><rect class="cls-11" x="445.87" y="153.2" width="38.28" height="38.3"/><rect class="cls-4" x="445.87" y="114.91" width="38.28" height="38.3"/><rect class="cls-12" x="407.58" y="114.91" width="38.28" height="38.3"/><rect class="cls-13" x="407.58" y="76.61" width="38.28" height="38.3"/><rect class="cls-13" x="445.87" y="76.61" width="38.28" height="38.3"/><rect class="cls-4" x="445.86" y="38.3" width="38.28" height="38.3"/><rect class="cls-9" x="407.58" y="38.3" width="38.28" height="38.3"/><rect class="cls-14" x="407.58" width="38.28" height="38.3"/><rect class="cls-15" x="445.87" width="38.28" height="38.3"/></g><g class="cls-18"><path class="cls-19" d="M84.92,56.06V55.2a1.71,1.71,0,0,1,1.72-1.71h.49a2.14,2.14,0,1,0-2.21,2.57"/><path class="cls-19" d="M86.94,73.57V66.18h-.3a1.72,1.72,0,0,1-1.72-1.71V56.76H81.67a.92.92,0,0,0-.92.92v8.1a.92.92,0,0,0,.92.92h.76V61.62a1.19,1.19,0,0,1,.09-.47V73.74a1.07,1.07,0,0,0,1,1.15H85V65.78h.09v9.11h1.48a.94.94,0,0,0,.65-.28,2.15,2.15,0,0,1-.27-1"/><path class="cls-19" d="M106.73,56.06V55.2A1.71,1.71,0,0,0,105,53.49h-.5a2.14,2.14,0,1,1,2.21,2.57"/><path class="cls-19" d="M104.71,73.57V66.18h.3a1.72,1.72,0,0,0,1.72-1.71V56.76H110a.92.92,0,0,1,.92.92v8.1a.92.92,0,0,1-.92.92h-.76V61.62a1.19,1.19,0,0,0-.09-.47V73.74a1.07,1.07,0,0,1-1,1.15h-1.48V65.78h-.09v9.11h-1.48a.94.94,0,0,1-.65-.28,2.15,2.15,0,0,0,.27-1"/><path class="cls-19" d="M91.77,52.81l-2.94-3.74A2.42,2.42,0,0,0,88,50.9a2.45,2.45,0,0,0,2.45,2.45A2.41,2.41,0,0,0,91.77,53Z"/><path class="cls-19" d="M91.77,73.33V54.15H86.59a1,1,0,0,0-1,1.05v9.27a1,1,0,0,0,1,1h.87V59.71a1.42,1.42,0,0,1,.1-.55V73.57a1.24,1.24,0,0,0,1.14,1.32h1.69V64.47h.1V74.89h1.69l.17,0a2.27,2.27,0,0,1-.58-1.54"/><path class="cls-19" d="M102.82,49.07l-2.94,3.74V53a2.41,2.41,0,0,0,1.33.39,2.45,2.45,0,0,0,2.45-2.45,2.42,2.42,0,0,0-.84-1.83"/><path class="cls-19" d="M105.06,54.15H99.88V73.33a2.27,2.27,0,0,1-.58,1.54l.17,0h1.69V64.47h.1V74.89H103a1.24,1.24,0,0,0,1.14-1.32V59.16a1.42,1.42,0,0,1,.1.55v5.81h.87a1,1,0,0,0,1-1V55.2a1,1,0,0,0-1-1.05"/><path d="M98.74,46.39a2.92,2.92,0,1,1-2.91-2.91,2.91,2.91,0,0,1,2.91,2.91"/><path d="M105.76,42.29a1.2,1.2,0,0,0-.79-.15,1.46,1.46,0,0,0-.79.54l-6,7.57H93.42l-6.19-7.88a.9.9,0,0,0-.92-.28,1.42,1.42,0,0,0-.42.2A1.25,1.25,0,0,0,85.68,44l6.72,8.55V73.33a1.47,1.47,0,0,0,1.36,1.56h2V62.51h.13V74.89h2a1.47,1.47,0,0,0,1.36-1.56V52.76h0v-.17L106,44a1.25,1.25,0,0,0-.21-1.75"/><polygon class="cls-4" points="96.21 52.03 95.44 52.03 95.34 51.06 96.31 51.06 96.21 52.03"/><polygon class="cls-4" points="96.41 57.88 95.82 58.43 95.24 57.88 95.44 53 96.21 53 96.41 57.88"/></g><g class="cls-20"><path class="cls-21" d="M385.22,584.13a2.8,2.8,0,1,0,2.8-2.81,2.8,2.8,0,0,0-2.8,2.81"/><path class="cls-21" d="M393.2,587.85l-2.55-.79a6,6,0,0,1-5.43-.11l-2.62.8s-2.63,6.52-1.52,8.49c0,0,2,.24,2.24-.85a19.59,19.59,0,0,0,.18-3l1.11-1.92-1.4,12.47H387l.22-7.6h1l.29,7.6h3.64l-1.2-12.38.46.36.91,1.58a19.59,19.59,0,0,0,.18,3c.22,1.08,2.24.85,2.24.85,1.11-2-1.52-8.5-1.52-8.5"/><path class="cls-22" d="M376.05,581.64a2.8,2.8,0,1,0,2.8-2.81,2.8,2.8,0,0,0-2.8,2.81"/><path class="cls-22" d="M394.72,581.64a2.8,2.8,0,1,0,2.79-2.81,2.79,2.79,0,0,0-2.79,2.81"/><path class="cls-22" d="M382.59,596.57c-.65.68-2.31.06-2.31.06-1.24-2.21,1.7-9.5,1.7-9.5l2.44-.74c-.23-.63-.39-1-.39-1l-2.55-.78a6,6,0,0,1-5.43-.12l-2.62.8s-2.63,6.52-1.52,8.49c0,0,2,.24,2.23-.85a18.34,18.34,0,0,0,.18-3l1.12-1.91L374,600.44h3.77l.22-7.61h1l.29,7.61H383Z"/><path class="cls-22" d="M392.62,600.44h3.86l.21-7.61h1l.3,7.61h3.63l-1.19-12.39.45.36.92,1.57a18.34,18.34,0,0,0,.18,3c.21,1.09,2.24.85,2.24.85,1.1-2-1.52-8.5-1.52-8.5l-2.55-.78a6,6,0,0,1-5.43-.12l-2.63.8s-.21.51-.48,1.3l2.21.68s.11.27.28.72v0c.7,1.9,2.42,7,1.42,8.76,0,0-1.84.7-2.41-.08"/><polygon class="cls-22" points="375.89 573.98 376.33 571.28 378.2 573.27 380.9 572.86 379.58 575.26 380.81 577.7 378.13 577.19 376.19 579.11 375.85 576.4 373.42 575.14 375.89 573.98"/><polygon class="cls-21" points="385.82 570.43 387.21 567.27 388.87 570.3 392.3 570.64 389.94 573.16 390.67 576.54 387.55 575.07 384.58 576.81 385.01 573.38 382.44 571.08 385.82 570.43"/><polygon class="cls-22" points="395.19 574.03 396.37 572.97 396.49 574.55 397.85 575.35 396.39 575.95 396.06 577.5 395.04 576.29 393.47 576.45 394.3 575.11 393.66 573.66 395.19 574.03"/><polygon class="cls-21" points="400.57 577.08 401.47 576.64 401.28 577.62 401.98 578.34 400.99 578.46 400.52 579.36 400.1 578.44 399.11 578.27 399.85 577.59 399.7 576.59 400.57 577.08"/></g><g class="cls-20"><path class="cls-23" d="M23,382.25a2.56,2.56,0,1,0,2.56,2.55A2.54,2.54,0,0,0,23,382.25m-1.64,5.42c-.09.29-.17.56-.27.87-.19,0-.39-.05-.59-.1a5.22,5.22,0,0,0-2.19,0,3.89,3.89,0,0,0-3,3.3,2.34,2.34,0,0,0,.14,1.36.46.46,0,0,0,.49.29.52.52,0,0,0,.46-.42,4.4,4.4,0,0,1,1.33-2.39A2.76,2.76,0,0,1,20,390c0,.22-.05.45-.07.7h-.2c-.47,0-.37-.05-.52.35-.42,1.1-.82,2.21-1.22,3.31-.16.44-.31.88-.44,1.33a1.5,1.5,0,0,0,.55,1.81l.08.08c-.11.19-.21.39-.34.62l-.52-.37c-.67.66-1.36,1.31-2,2a.46.46,0,0,1-.47.14,8.47,8.47,0,0,0-1-.1l-2.37-.14c-.37,0-.75-.07-1.11-.13a.73.73,0,0,0-.86.92.56.56,0,0,0,.44.42c.76.15,1.53.28,2.3.41l2.44.4.86.14a.48.48,0,0,0,.42-.13l3-2.39a1.4,1.4,0,0,1,.68-.39.32.32,0,0,0,.19-.2c.07-.25.23-.23.42-.2.43.07.86.15,1.3.21.64.08,1.28.19,1.92.22s.8.45,1.13.75c.93.83,1.84,1.7,2.75,2.55a3.31,3.31,0,0,1,.34.3.72.72,0,0,0,1.26-.36.78.78,0,0,0-.13-.56c-.75-1-1.52-1.94-2.29-2.92q-.51-.63-1-1.29a.93.93,0,0,0-.59-.31l-1.5-.37-1.85-.45c-.12,0-.24-.08-.38-.13.06-.27.11-.54.18-.8l.66-2.56c.17-.62.33-1.24.5-1.85,0-.14.07-.28.11-.43l.69.17c0,.18-.07.33-.12.54l1.22.07a4,4,0,0,0,2-.42,3.82,3.82,0,0,0,1.37-1.22,3.75,3.75,0,0,0,.66-1.52,2.39,2.39,0,0,0-.1-1.6.47.47,0,0,0-.47-.3.51.51,0,0,0-.48.42,4.72,4.72,0,0,1-1.19,2.26,2.66,2.66,0,0,1-1.79.75,4.87,4.87,0,0,1-2-.43s-.08-.13-.06-.18.16-.35.25-.53l.62.24a2.78,2.78,0,0,0,1.8.07A2.14,2.14,0,0,0,26,388a5.31,5.31,0,0,0,.68-1.61,1.2,1.2,0,0,1,1.09-.88,1.07,1.07,0,0,1,1.06.52,2.61,2.61,0,0,1,.35,1.89,4.88,4.88,0,0,1-1.51,2.94,4.28,4.28,0,0,1-1.16.75,5.18,5.18,0,0,1-2.74.41c-.23,0-.44-.07-.66-.08a.24.24,0,0,0-.19.15c-.18.67-.35,1.35-.52,2-.12.47-.25.94-.36,1.41a.19.19,0,0,0,.11.16c.46.13.93.24,1.4.35l1.18.31a3.64,3.64,0,0,0,.63.16A1,1,0,0,1,26,397l2.26,2.87a18.65,18.65,0,0,1,1.14,1.51,1.3,1.3,0,0,1-.09,1.6,1.44,1.44,0,0,1-1.51.56,2.13,2.13,0,0,1-1-.62l-2.11-2c-.38-.36-.76-.72-1.16-1.06a.76.76,0,0,0-.39-.16c-.62-.1-1.24-.17-1.86-.25l-1.13-.14a.31.31,0,0,0-.18.07l-2.37,1.89c-.54.44-1.08.87-1.64,1.29a.4.4,0,0,1-.29.05c-.49-.06-1-.14-1.45-.22s-.9-.16-1.34-.24c-.65-.1-1.3-.19-1.94-.3a8.75,8.75,0,0,1-1.44-.29,1.4,1.4,0,0,1-.84-1.64,1.45,1.45,0,0,1,1.64-1.06c.46.07.94.07,1.41.11l2.88.19A.39.39,0,0,0,15,399l1.76-1.73a.21.21,0,0,0,.07-.27,2.49,2.49,0,0,1,0-1.48c.15-.55.36-1.08.56-1.61.28-.8.57-1.6.86-2.4a2.67,2.67,0,0,0,.13-.4,1.62,1.62,0,0,0-.65.7c-.21.47-.39.95-.56,1.43a1.27,1.27,0,0,1-1.09.88,1.23,1.23,0,0,1-1.2-.72,3.21,3.21,0,0,1-.15-2A4.84,4.84,0,0,1,16,388.91a4.38,4.38,0,0,1,2.16-1.18,5.7,5.7,0,0,1,1.93-.09l.51,0a.42.42,0,0,1,0-.1c.16-.25.09-.42-.11-.65a3.07,3.07,0,0,1-.77-1.75,3.24,3.24,0,0,1,1.74-3.29,3,3,0,0,1,2.09-.33,3.19,3.19,0,0,1,2.25,1.52,3.38,3.38,0,0,1-.7,4.24,3.23,3.23,0,0,1-2.35.76,3.75,3.75,0,0,1-1.4-.41"/><path class="cls-23" d="M19.73,404.7h1.41c.12,0,.16-.06.15-.17,0-.58-.05-1.17-.08-1.75,0,0-.06-.14-.1-.14H19.82c0,.71-.06,1.38-.09,2.07m1.85,9.12c-.09-2.81-.19-5.6-.29-8.41H19.82s-.1.08-.13.14a.53.53,0,0,0,0,.18c-.05,1.87-.09,3.75-.15,5.62,0,.68-.06,1.36-.09,2,0,.14,0,.27,0,.42H7.52v-.73h11.2c0-.09,0-.16,0-.24,0-1.68.09-3.36.14-5,0-1.27.08-2.53.13-3.8,0-.65.06-1.31.08-2,0-.12.05-.16.17-.16h2.49c.13,0,.16.06.17.18,0,.43,0,.87,0,1.3,0,1.08.08,2.15.11,3.22s.07,2.37.1,3.56c0,1,.07,1.93.1,2.94H33.35c0,.26,0,.49.07.73Z"/><path class="cls-23" d="M11.57,389v.74l-4.67-.16v-.72l4.67.14"/><path class="cls-23" d="M4.87,394.56h4v.71H5.13c-.21,0-.28-.07-.26-.27s0-.28,0-.45"/></g><g class="cls-18"><path class="cls-24" d="M388,60.19a2.22,2.22,0,0,0,.21-.63c0-.45-.07-.9-.1-1.34,0-.23-.11-.28-.3-.2,0,.4-.09.79-.11,1.17a.94.94,0,0,0,.3,1M399.7,46.27a3.9,3.9,0,0,0-.46.36c-.45.52-.89,1.06-1.34,1.59l-1.27,1.53a.41.41,0,0,0,0,.56.66.66,0,0,0,.48.18c.12,0,.25-.16.35-.27.38-.43.75-.87,1.12-1.31l1.49-1.81a.38.38,0,0,0,.06-.49,2.55,2.55,0,0,0-.41-.34m-18-3.11a.49.49,0,0,0-.46.67c.07.23.16.45.25.68.39,1.08.78,2.16,1.19,3.23a.43.43,0,0,0,.58.31.46.46,0,0,0,.28-.63c-.18-.51-.37-1-.55-1.51-.28-.78-.57-1.55-.85-2.33a.54.54,0,0,0-.44-.42m-5.52,3.16a2.07,2.07,0,0,0-.26.1c-.29.19-.3.49-.05.79L377,48.52c.5.6,1,1.2,1.51,1.79a.44.44,0,0,0,.68.1.48.48,0,0,0,0-.71l-2.64-3.16a1.13,1.13,0,0,0-.36-.22m18.51-2.76c-.11-.11-.2-.27-.34-.34s-.52,0-.67.4l-1.35,3.74a.67.67,0,0,0,0,.34.46.46,0,0,0,.43.38c.3,0,.42-.19.51-.43l1.08-3c.13-.35.24-.71.39-1.13m-6.29,1.12h0v-2c0-.36-.17-.57-.46-.57a.47.47,0,0,0-.49.54c0,1.36,0,2.71,0,4.06a.51.51,0,0,0,.15.39.7.7,0,0,0,.48.12c.23,0,.32-.27.32-.51v-2m-.51,12.24A1.94,1.94,0,0,0,389.84,55a2,2,0,0,0-1.93-1.87A1.91,1.91,0,0,0,386,55a1.88,1.88,0,0,0,1.9,1.89M384.2,64c0-.62,0-1.22,0-1.82a.47.47,0,0,0-.32-.51c-.91-.39-1.8-.8-2.71-1.18a.48.48,0,0,0-.39,0L378.38,62,372,65.78l-2.5,1.51,1,1.7.22-.12,3-1.81,7.2-4.34a.31.31,0,0,1,.23,0c.68.28,1.35.58,2,.87l1,.44m15.89-6.1-.18.13L392,62.66a.74.74,0,0,0-.48.76c0,.6,0,1.21,0,1.84l9.6-5.64v2.61c1.75-2.3,3.47-4.54,5.2-6.82l-8.43,1.21v.06l2.16,1.23m-12.43,8.35c.52-.11.53-.09.53.37,0,1.44,0,2.89,0,4.33a1.78,1.78,0,0,0,.06.51,1.14,1.14,0,0,0,1.31.81,1.18,1.18,0,0,0,.93-1.13c0-2.2,0-4.39,0-6.58,0-.92,0-1.84,0-2.76a8.91,8.91,0,0,1,.58-2.79,4.62,4.62,0,0,1,1.05-1.87c.26-.24.52-.48.76-.73a1,1,0,0,0,.25-.41c.25-1,.48-2,.71-3a.83.83,0,1,0-1.61-.36c-.1.39-.19.78-.27,1.18a4.17,4.17,0,0,1-1.15,2.31c-.36.33-.69.69-1.05,1a.41.41,0,0,1-.3.11.32.32,0,0,0-.36.26c-.24.7-.48,1.42-.72,2.13-.15.47-.32.93-.5,1.46a2,2,0,0,0-.1-.28c-.38-1.11-.76-2.21-1.13-3.32a.3.3,0,0,0-.32-.25.58.58,0,0,1-.34-.14c-.35-.33-.68-.68-1-1a2.74,2.74,0,0,1-.79-1.2c-.24-.74-.41-1.51-.61-2.27a.85.85,0,0,0-1-.66.82.82,0,0,0-.66,1c.22,1,.43,1.92.68,2.87a1.47,1.47,0,0,0,.32.57,10.1,10.1,0,0,1,1,1,9.87,9.87,0,0,1,1.37,4.22,17.58,17.58,0,0,1,.07,2.18q0,3.52-.05,7.06a1.32,1.32,0,0,0,.46,1.13,1.16,1.16,0,0,0,1.86-.94V66.26Z"/><path class="cls-24" d="M387.66,66.26v4.85a1.16,1.16,0,0,1-1.86.94,1.32,1.32,0,0,1-.46-1.13q0-3.54.05-7.06a17.58,17.58,0,0,0-.07-2.18A9.87,9.87,0,0,0,384,57.46a10.1,10.1,0,0,0-1-1,1.47,1.47,0,0,1-.32-.57c-.25-1-.46-1.91-.68-2.87a.82.82,0,0,1,.66-1,.85.85,0,0,1,1,.66c.2.76.37,1.53.61,2.27a2.74,2.74,0,0,0,.79,1.2c.35.33.68.68,1,1a.58.58,0,0,0,.34.14.3.3,0,0,1,.32.25c.37,1.11.75,2.21,1.13,3.32a2,2,0,0,1,.1.28c.18-.53.35-1,.5-1.46.24-.71.48-1.43.72-2.13a.32.32,0,0,1,.36-.26.41.41,0,0,0,.3-.11c.36-.33.69-.69,1.05-1A4.17,4.17,0,0,0,392,53.84c.08-.4.17-.79.27-1.18a.83.83,0,1,1,1.61.36c-.23,1-.46,2-.71,3a1,1,0,0,1-.25.41c-.24.25-.5.49-.76.73A4.62,4.62,0,0,0,391.11,59a8.91,8.91,0,0,0-.58,2.79c0,.92,0,1.84,0,2.76,0,2.19,0,4.38,0,6.58a1.18,1.18,0,0,1-.93,1.13,1.14,1.14,0,0,1-1.31-.81,1.78,1.78,0,0,1-.06-.51c0-1.44,0-2.89,0-4.33,0-.46,0-.48-.53-.37"/><path class="cls-25" d="M400.09,57.91l-2.16-1.23v-.06l8.43-1.21c-1.73,2.28-3.45,4.52-5.2,6.82V59.62l-9.6,5.64c0-.63,0-1.24,0-1.84a.75.75,0,0,1,.47-.76c2.64-1.53,5.27-3.08,7.9-4.62l.18-.13"/><path class="cls-25" d="M384.2,64l-1-.44c-.67-.29-1.34-.59-2-.87a.31.31,0,0,0-.23,0l-7.2,4.34-3,1.81-.22.12-1-1.7,2.5-1.51L378.38,62l2.4-1.43a.48.48,0,0,1,.39,0c.91.38,1.8.79,2.71,1.18a.47.47,0,0,1,.32.51c0,.6,0,1.2,0,1.82"/><path class="cls-24" d="M387.9,56.92A1.88,1.88,0,0,1,386,55a1.9,1.9,0,0,1,1.91-1.92A2,2,0,0,1,389.84,55a1.94,1.94,0,0,1-1.94,1.94"/><path class="cls-25" d="M388.41,44.68v2c0,.24-.09.46-.32.51a.7.7,0,0,1-.48-.12.51.51,0,0,1-.15-.39c0-1.35,0-2.7,0-4.06a.47.47,0,0,1,.49-.54c.29,0,.46.21.46.57v2Z"/><path class="cls-25" d="M394.7,43.56c-.15.42-.26.78-.39,1.13l-1.08,3c-.09.24-.21.45-.51.43a.46.46,0,0,1-.43-.38.67.67,0,0,1,0-.34l1.35-3.74c.15-.4.39-.55.67-.4s.23.23.34.34"/><path class="cls-25" d="M376.19,46.32a1.13,1.13,0,0,1,.36.22l2.64,3.16a.48.48,0,0,1,0,.71.44.44,0,0,1-.68-.1c-.52-.59-1-1.19-1.51-1.79l-1.12-1.31c-.25-.3-.24-.6.05-.79a2.07,2.07,0,0,1,.26-.1"/><path class="cls-25" d="M381.71,43.16a.54.54,0,0,1,.44.42c.28.78.57,1.55.85,2.33.18.5.37,1,.55,1.51a.46.46,0,0,1-.28.63.43.43,0,0,1-.58-.31c-.41-1.07-.8-2.15-1.19-3.23-.09-.23-.18-.45-.25-.68a.49.49,0,0,1,.46-.67"/><path class="cls-25" d="M399.7,46.27a2.55,2.55,0,0,1,.41.34.38.38,0,0,1-.06.49l-1.49,1.81c-.37.44-.74.88-1.12,1.31-.1.11-.23.27-.35.27a.66.66,0,0,1-.48-.18.41.41,0,0,1,0-.56l1.27-1.53c.45-.53.89-1.07,1.34-1.59a3.9,3.9,0,0,1,.46-.36"/><path class="cls-24" d="M388,60.19a.94.94,0,0,1-.3-1c0-.38.07-.77.11-1.17.19-.08.28,0,.3.2,0,.44.1.89.1,1.34a2.22,2.22,0,0,1-.21.63"/></g><g class="cls-26"><polygon class="cls-27" points="24.06 330.7 22.85 331.96 18.75 327.31 6.18 336.87 4.98 339.94 33.3 339.94 24.06 330.7"/><path class="cls-28" d="M9.69,318.61l2.18-.28s.47.83.92,1.66l-1.39,3.56c.35-3-.85-4.3-1.71-4.94m2.41-3.68a7.56,7.56,0,0,0,3.6-2.38l-2.35,6a2.73,2.73,0,0,0-1-1.41,4.37,4.37,0,0,0-2.62-.27c.65-.64,1-1.54,2.37-1.93m-.42-1.74a.59.59,0,0,0,.52-.19,1,1,0,0,0,.12-.23,12.13,12.13,0,0,1,3.78-1.24l-.1.24a39.33,39.33,0,0,1-4.4,1.73h0c0-.1.09-.21.12-.31m7.7-10.06-3.17,8.12a7.14,7.14,0,0,0-3.92.18,1,1,0,0,0-1.26-.67.94.94,0,0,0-.7,1.2,1.23,1.23,0,0,0,.08.23,6.71,6.71,0,0,0-.68.4A5.7,5.7,0,0,0,7,317c-.12,2.19,3.21,4.35,3.21,4.35l.62,3.77L7,334.79l11.9-9.06,4,4.52L24,329l9,9Z"/></g><g class="cls-26"><path d="M464.71,386.39A3.27,3.27,0,0,0,466,382a3.2,3.2,0,0,0-4.37-1.27,3.26,3.26,0,0,0-1.27,4.41,3.22,3.22,0,0,0,4.38,1.28"/><path d="M475.35,382l-.79-.48a.84.84,0,0,0-1.14.28l-3.13,5.06-3.36.65a2.19,2.19,0,0,0-1.75-.67l-3.59.3A2.22,2.22,0,0,0,460,388l-3.87-.6L453.23,382a.85.85,0,0,0-1.12-.36l-.82.42a.8.8,0,0,0-.34,1.1l3.32,6.33a.85.85,0,0,0,.65.52l4.76.74.78,9.48a2.72,2.72,0,0,0,0,.28l.66,6.67a1.91,1.91,0,1,0,3.76-.38l-.46-4.65.48,0,1.33,12.32A1.91,1.91,0,1,0,470,414l-1.57-14.52s0-.09,0-.13l-.76-9.26,3.35-.65a.87.87,0,0,0,.45-.25.82.82,0,0,0,.64-.39l3.52-5.69a.82.82,0,0,0-.26-1.13"/><path class="cls-29" d="M478.53,398.48v-3.69c-9.54.38-19.08,2.47-28.62,2.62V400c9.54.22,19.08-1.5,28.62-1.5"/><path class="cls-30" d="M478.53,398.48v-1a155.88,155.88,0,0,0-16.46.19,106.29,106.29,0,0,1-12.16,1.12V400c9.54.22,19.08-1.5,28.62-1.5"/><path d="M451.45,397.88l.86,0v.33l-.35,0v.31h.31v.31H452v.69h-.51Z"/><path d="M452.94,397.83v1.67h-.51v-1.66l.51,0"/><path d="M454.27,397.75v1.71h-.44c-.09-.25-.18-.5-.26-.76v.77h-.43v-1.67l.43,0,.28.75v-.76l.42,0"/><path d="M455,397.71v1.72l-.51,0v-1.71l.51,0"/><path d="M456.26,398.14l-.47,0v-.13c0-.06,0-.1,0-.12l-.06,0a.07.07,0,0,0-.06,0,.15.15,0,0,0,0,.1.23.23,0,0,0,0,.13s.06.06.14.1a1.12,1.12,0,0,1,.43.27.56.56,0,0,1,.09.36.63.63,0,0,1-.05.28.44.44,0,0,1-.19.16.8.8,0,0,1-.33.08.72.72,0,0,1-.34-.05.32.32,0,0,1-.19-.17.78.78,0,0,1,0-.3v-.11l.47,0V399a.29.29,0,0,0,0,.12.06.06,0,0,0,.07,0,.1.1,0,0,0,.08,0,.18.18,0,0,0,0-.11.31.31,0,0,0,0-.2,1,1,0,0,0-.24-.14l-.25-.15a.27.27,0,0,1-.1-.13.5.5,0,0,1,0-.23.69.69,0,0,1,.05-.29.44.44,0,0,1,.19-.16.89.89,0,0,1,.31-.07.84.84,0,0,1,.33,0,.28.28,0,0,1,.19.13.68.68,0,0,1,0,.29Z"/><path d="M457.63,397.5v1.78l-.51,0v-.74H457v.74l-.5,0V397.6l.5-.05v.64l.15,0v-.63l.51,0"/><path d="M461.63,397.09l.86-.1v.38l-.35,0v.36l.31,0v.36l-.31,0v.8l-.51,0Z"/><path d="M463.12,396.92v1.92l-.51.05V397l.51-.06"/><path d="M464.46,396.77v2l-.45,0c-.09-.29-.18-.57-.26-.86v.88l-.43,0V396.9l.43,0c.09.28.19.56.28.84v-.87l.43-.05"/><path d="M465.17,396.68v2l-.51.05v-2l.51-.06"/><path d="M466.45,397.14l-.48.05V397a.31.31,0,0,0,0-.12.09.09,0,0,0-.06,0s-.06,0-.07.05a.21.21,0,0,0,0,.12.26.26,0,0,0,0,.14.28.28,0,0,0,.14.11,1.23,1.23,0,0,1,.43.29.73.73,0,0,1,.09.42.85.85,0,0,1-.05.32.49.49,0,0,1-.19.19.8.8,0,0,1-.33.09.62.62,0,0,1-.34,0,.34.34,0,0,1-.19-.18,1,1,0,0,1-.05-.34v-.13l.47-.05v.24a.4.4,0,0,0,0,.15s0,0,.08,0,0,0,.07-.05a.21.21,0,0,0,0-.12.39.39,0,0,0-.05-.23,1.29,1.29,0,0,0-.24-.15l-.25-.16a.36.36,0,0,1-.1-.15.6.6,0,0,1,0-.25.74.74,0,0,1,.06-.34.39.39,0,0,1,.18-.18.76.76,0,0,1,.31-.1.63.63,0,0,1,.34,0,.3.3,0,0,1,.18.14.8.8,0,0,1,.05.33Z"/><path d="M467.81,396.38v2l-.5,0v-.85h-.16v.85l-.5,0v-2l.5-.06v.73l.16,0v-.72l.5-.06"/><path d="M471.81,396l.86-.08v.43l-.35,0v.41l.31,0v.41l-.31,0v.9l-.51,0Z"/><path d="M473.3,395.82V398l-.51,0v-2.15l.51-.05"/><path d="M474.64,395.72v2.2l-.45,0-.26-1v1l-.43,0v-2.17l.43,0c.09.32.19.64.28,1v-1l.43,0"/><path d="M475.35,395.67v2.21l-.51,0V395.7l.51,0"/><path d="M476.63,396.27l-.47,0v-.16a.4.4,0,0,0,0-.15.06.06,0,0,0-.06,0s-.06,0-.07.05a.23.23,0,0,0,0,.13.37.37,0,0,0,0,.17.61.61,0,0,0,.14.13,1.29,1.29,0,0,1,.43.36.9.9,0,0,1,.09.47,1.06,1.06,0,0,1-.05.36.43.43,0,0,1-.19.19.57.57,0,0,1-.32.09.63.63,0,0,1-.35-.07.4.4,0,0,1-.19-.22,1.29,1.29,0,0,1,0-.38v-.15l.47,0v.27c0,.08,0,.14,0,.16a.06.06,0,0,0,.07,0,.07.07,0,0,0,.07,0,.26.26,0,0,0,0-.14.49.49,0,0,0-.05-.26,1.27,1.27,0,0,0-.24-.19l-.25-.19a.5.5,0,0,1-.1-.18.78.78,0,0,1,0-.29.89.89,0,0,1,.06-.37.49.49,0,0,1,.18-.2.62.62,0,0,1,.31-.08.74.74,0,0,1,.34.05.33.33,0,0,1,.18.17,1.11,1.11,0,0,1,.05.38Z"/><path d="M478,395.53v2.28h-.5v-1h-.15v.95h-.51v-2.25l.51,0v.81h.15v-.81l.5,0"/></g><g class="cls-26"><path d="M467.53,217.32a3.58,3.58,0,1,0-3.59-3.58,3.58,3.58,0,0,0,3.59,3.58"/><path d="M458.65,215.42l4.49,6.46a1.46,1.46,0,0,0,.16.19v6.79h8.47v-9.12a2.1,2.1,0,0,0-2.1-2.09H465.4a1.85,1.85,0,0,0-.58.09l-2.67-3.83V206.5a1.4,1.4,0,0,0-1.4-1.4h-.95a1.4,1.4,0,0,0-1.4,1.4v7.85s0,.09,0,.13a1.34,1.34,0,0,0,.24.94"/><path class="cls-29" d="M465.4,197.53a4.14,4.14,0,0,0-5.26,2.57,4.08,4.08,0,0,0,.11,3,7,7,0,0,1-.2,2.47l4.66,1.59a7.05,7.05,0,0,1,1.36-2.08,4.12,4.12,0,0,0-.67-7.51"/><path class="cls-29" d="M464.28,207.32,460.35,206a.28.28,0,0,0-.35.17l-.12.37a.28.28,0,0,0,.17.35L464,208.2a.26.26,0,0,0,.34-.17l.13-.36a.28.28,0,0,0-.17-.35"/><path class="cls-29" d="M463.83,208.62l-3.92-1.34a.28.28,0,0,0-.35.17l-.13.37a.28.28,0,0,0,.17.35l3.93,1.33a.28.28,0,0,0,.35-.17L464,209a.26.26,0,0,0-.17-.34"/><path class="cls-29" d="M459.45,208.54s0,0-.08.09.07.35.25.6a9.85,9.85,0,0,1,.51,1.07,6.59,6.59,0,0,0,.66.28c.34.11.75.3.9.23l1.63-.74s.17-.09.13-.17-4-1.36-4-1.36"/><path class="cls-29" d="M473.48,200.7a.75.75,0,0,0-.81-.69l-3,.18a.76.76,0,0,0-.72.78.75.75,0,0,0,.81.69l3-.17a.76.76,0,0,0,.72-.79"/><path class="cls-29" d="M469.13,198.74l2.53-1.55a.76.76,0,0,0,.26-1,.77.77,0,0,0-1.05-.23l-2.52,1.55a.76.76,0,0,0-.27,1,.77.77,0,0,0,1.05.23"/><path class="cls-29" d="M465.52,197a.76.76,0,0,0,1-.48l1-2.8a.75.75,0,1,0-1.41-.48l-1,2.8a.75.75,0,0,0,.46,1"/><path class="cls-29" d="M471.64,205.46l-2.23-2a.75.75,0,0,0-1.06,0,.74.74,0,0,0,.08,1.06l2.22,2a.78.78,0,0,0,1.07,0,.75.75,0,0,0-.08-1.06"/><path class="cls-29" d="M457.24,196.2l2.23,2a.74.74,0,1,0,1-1.11l-2.23-1.95a.77.77,0,0,0-1.07,0,.75.75,0,0,0,.09,1.06"/><path class="cls-29" d="M461.8,196.25a.74.74,0,1,0,1.39-.52l-1-2.77a.75.75,0,1,0-1.4.52Z"/><path class="cls-29" d="M459.46,200.52a.76.76,0,0,0-.82-.69l-3,.2a.74.74,0,1,0,.1,1.47l3-.19a.76.76,0,0,0,.72-.79"/><path d="M462.31,206.79a1,1,0,0,1-1,1h-1.89a1,1,0,0,1-1-1v-1.88a1,1,0,0,1,1-1h1.89a1,1,0,0,1,1,1Z"/><path class="cls-29" d="M468.57,220.58a1.59,1.59,0,0,0-1.58.07,20.28,20.28,0,0,1-1-2.09,4.74,4.74,0,0,1,3.51.16,17.77,17.77,0,0,0-.9,1.86"/><path class="cls-29" d="M468.41,220.66c-.25,0-.25-.09-.64-.08s-.37.12-.61.13a31.64,31.64,0,0,0,1.54,8.15h2.87a17.91,17.91,0,0,1-3.16-8.2"/></g><g class="cls-20"><path class="cls-31" d="M474.8,151.37a38.49,38.49,0,0,1-1.41-4.77c-.62-2.7-.53-5.72.77-7.47,0,0,9.14-10.51,1-18.67-6.8-6.84-16.49-3-19.69,1.57,0,0-2.42,3.9-1.21,7a3.1,3.1,0,0,1,.12,1.4c-.26.81-4.48,4.11-2.33,5s1.1,1.46,1.1,1.46a.67.67,0,0,0,.15,1.17s-.37.65,0,1,.74.61.66,2.29a2.14,2.14,0,0,0,2.45,2.4c1.39-.08,6.92-1.06,4.71,7.57Z"/><path class="cls-4" d="M465.2,131.63h2.38v2.43H465.2Zm1.38-4.88a5.19,5.19,0,0,0,1.11-1.07,2.13,2.13,0,0,0,.45-1.24,1.88,1.88,0,0,0-.57-1.48,2,2,0,0,0-1.37-.45,2.07,2.07,0,0,0-1.64.77,3,3,0,0,0-.65,2l-2.21-.38a4.22,4.22,0,0,1,1.4-3.15,4.71,4.71,0,0,1,3.38-1.33,4.34,4.34,0,0,1,3.12,1.18,3.58,3.58,0,0,1,1.2,2.68,3.46,3.46,0,0,1-.38,1.6,4.43,4.43,0,0,1-.89,1.17,10.5,10.5,0,0,1-1,.88l-.82.54a1.1,1.1,0,0,0-.38.9l-.05.75h-1.89l-.07-1.11a2.4,2.4,0,0,1,.44-1.4,3.09,3.09,0,0,1,.85-.84"/></g><g class="cls-20"><path class="cls-32" d="M66.51,715.43h4.88a1.68,1.68,0,0,0-.18-.28l-3.31-2.54a.71.71,0,0,0-1.2.55c-.09.73-.12,1.45-.19,2.27M50.64,688.88l-.4.18a21.15,21.15,0,0,1,0,2.39c0,.33-.35.83-.62.89a.87.87,0,0,0-.8,1c0,1.77,0,3.54,0,5.3,0,2.92,0,5.83,0,8.74,0,2.21,0,4.42-.09,6.63,0,1.18.22,1.51,1.42,1.51H63.28a6.1,6.1,0,0,0,.83-.08c0-1.81,0-3.47,0-5.11,0-.24.37-.53.64-.67a3.86,3.86,0,0,1,1.08-.16c-.28-1.2-.53-2.29-.78-3.38l-.34-.06c-.85.93-1.67,1.88-2.55,2.78-.49.51-1,1.39-1.81.75-.36-.29-.23-1.18-.36-2-1,0-1.63-1-2.05-2.08-.12-.33-.27-.66-.41-1l-.55.37-.33,2.48c-.11.84-.4,1.54-1.41,1.5-.8,0-1.24-.72-1.11-1.83.2-1.79.49-3.57.7-5.36a22.83,22.83,0,0,0,.38-4.42,37.66,37.66,0,0,0-1.06-5.3,1.77,1.77,0,0,0-.5-1c-1-.74-2-1.39-3-2.07m-2.41-1.22c-.12-.34-.21-.47-.2-.59,0-.42-.06-1,.17-1.2a1.36,1.36,0,0,1,1.23,0c1.22.64,2.35,1.44,3.57,2.09a5.63,5.63,0,0,0,2,.63c1.55.19,2.08.62,2.44,2.15a48.06,48.06,0,0,1,1.73,11,5.84,5.84,0,0,0,.1.84c.35,1.68,1.41,2.22,2.89,1.41,1.08-.58,2.1-1.26,3-1.81a13.15,13.15,0,0,1-1.53-2,1.68,1.68,0,0,1,.2-1.3,1.6,1.6,0,0,1,2.23-.52c1,.57,1,1.48.23,3.08,1.5.84,1.48.85,1.92,2.73s1,3.91,1.45,5.86a3.36,3.36,0,0,0,1.93,2.26,14.47,14.47,0,0,1,1.38.79c.81.5,1.44,1.09,1,2.29l1.58.25v.11H39.38v-.13a3.93,3.93,0,0,1,.9-.06c1.09.16,1.34-.45,1.32-1.36,0-2.19,0-4.37-.05-6.56,0-4.19,0-8.38-.06-12.58,0-.38.13-.77.1-1.15,0-.7.14-1.56-1-1.61-.18,0-.46-.51-.48-.8-.07-.88,0-1.76,0-2.65s.38-1.11,1.17-1.09c1.94,0,3.89,0,5.84,0,.34,0,.67-.06,1.17-.1"/><path class="cls-32" d="M56.6,686.3A1.65,1.65,0,0,1,54.92,688a1.66,1.66,0,1,1,1.68-1.67"/></g><g class="cls-20"><path class="cls-33" d="M24.14,196.91a3.54,3.54,0,0,0-3.67-3.48c-2,0-3.88,1.51-3.82,3.37a3.63,3.63,0,0,0,3.7,3.53,3.66,3.66,0,0,0,3.79-3.42m-3,12.68c.25-.08.62-.1.75-.28A14.83,14.83,0,0,0,23,207.6a14,14,0,0,1,1.55-2.79c1.69-1.89,3.57-3.65,5.34-5.48a3.31,3.31,0,0,0,.92-1.32,1.59,1.59,0,0,0-.32-1.4,2.1,2.1,0,0,0-1.56-.22,2.89,2.89,0,0,0-1.2.85q-2.16,2.14-4.28,4.34a1.07,1.07,0,0,1-1.63.16,3.46,3.46,0,0,0-4.12-.14,1.3,1.3,0,0,1-1.05-.14c-.3-.17-.47-.55-.69-.83-1.22-1.57-2.41-3.14-3.65-4.69a2,2,0,0,0-2.53-.64c-.76.53-.81,1.27-.13,2.2,1.77,2.4,3.53,4.8,5.33,7.17a2.07,2.07,0,0,1,.5,1.72,1.32,1.32,0,0,0,.3,1.11,11.65,11.65,0,0,0,5.41,2.09m-4,1.14a13.4,13.4,0,0,1-1.62-.55c-.83-.4-1.16-.32-1.29.57a12.83,12.83,0,0,1-2.11,5c-.77,1.2-.75,1.16-2.1.47a3.12,3.12,0,0,0-1.78-.42,1.44,1.44,0,0,0-.59,2.56c1,.83,2,1.57,3,2.36,1.62,1.25,2.45,1.11,3.52-.53.83-1.29,1.72-2.55,2.75-4.08a12.78,12.78,0,0,1,.65,1.33c.38,1.22.74,2.45,1,3.69a3.14,3.14,0,0,1,0,1.55c-.39,1.34-.9,2.65-1.36,4a1.7,1.7,0,0,0,1,2.3,1.84,1.84,0,0,0,2.31-1.45,27.88,27.88,0,0,1,1-3,9.57,9.57,0,0,0,.37-7.26,9.79,9.79,0,0,1-.57-3.63c.05-1.28.2-1.19-1.17-1.6a25.32,25.32,0,0,1-3.12-1.35c.49.11,1,.17,1.48.32a5.5,5.5,0,0,0,3.66.3A28.81,28.81,0,0,0,25.74,210a22.67,22.67,0,0,1,9-2.47c.54,0,1.08-.08,1.05-.75s-.56-.75-1.1-.69a23.7,23.7,0,0,0-10.11,3c-1.43.87-3.05,1.58-4.82.95a17.07,17.07,0,0,1-3.55-1.7,20.23,20.23,0,0,0-11.22-3,4.5,4.5,0,0,0-1.52.17c-.4.16-1,.58-1,.85.05.61.66.61,1.27.57A25.82,25.82,0,0,1,7,206.78a19.45,19.45,0,0,1,8.43,2.57,13.14,13.14,0,0,1,1.79,1.38"/><path class="cls-33" d="M17.14,210.7a25.32,25.32,0,0,0,3.12,1.35c1.37.41,1.22.32,1.17,1.6a9.79,9.79,0,0,0,.57,3.63,9.57,9.57,0,0,1-.37,7.26,27.88,27.88,0,0,0-1,3A1.84,1.84,0,0,1,18.31,229a1.7,1.7,0,0,1-1-2.3c.46-1.32,1-2.63,1.36-4a3.14,3.14,0,0,0,0-1.55c-.29-1.24-.66-2.47-1-3.69a11,11,0,0,0-.65-1.33c-1,1.53-1.92,2.79-2.75,4.08-1.07,1.64-1.9,1.78-3.52.53-1-.78-2-1.53-3-2.36a1.44,1.44,0,0,1,.59-2.56,3.14,3.14,0,0,1,1.78.42c1.35.69,1.33.73,2.1-.47a12.77,12.77,0,0,0,2.11-5c.13-.89.46-1,1.29-.57a13.4,13.4,0,0,0,1.62.55Z"/><path class="cls-33" d="M21.14,209.59a11.66,11.66,0,0,1-5.4-2.09,1.29,1.29,0,0,1-.3-1.11,2.07,2.07,0,0,0-.5-1.72c-1.8-2.37-3.56-4.77-5.33-7.17-.68-.93-.63-1.67.13-2.2a2,2,0,0,1,2.53.64c1.24,1.55,2.43,3.12,3.65,4.69.22.28.39.66.69.83a1.3,1.3,0,0,0,1.05.14,3.46,3.46,0,0,1,4.12.14,1.07,1.07,0,0,0,1.63-.16q2.11-2.19,4.28-4.34a2.89,2.89,0,0,1,1.2-.85,2.1,2.1,0,0,1,1.56.22,1.59,1.59,0,0,1,.32,1.4,3.31,3.31,0,0,1-.92,1.32c-1.77,1.83-3.65,3.59-5.34,5.48A14,14,0,0,0,23,207.6a14.83,14.83,0,0,1-1.06,1.71c-.13.18-.5.2-.76.28"/><path class="cls-33" d="M17.17,210.73a13.14,13.14,0,0,0-1.79-1.38A19.45,19.45,0,0,0,7,206.78a25.82,25.82,0,0,0-3.17.09c-.61,0-1.22,0-1.27-.57,0-.27.55-.69,1-.85A4.5,4.5,0,0,1,5,205.28a20.23,20.23,0,0,1,11.22,3,17.07,17.07,0,0,0,3.55,1.7c1.77.63,3.39-.08,4.82-.95a23.7,23.7,0,0,1,10.11-3c.54-.06,1.08,0,1.1.69s-.51.72-1.05.75a22.67,22.67,0,0,0-9,2.47,28.81,28.81,0,0,1-3.46,1.34,5.5,5.5,0,0,1-3.66-.3c-.48-.15-1-.21-1.48-.32l0,0"/><path class="cls-33" d="M24.14,196.91a3.66,3.66,0,0,1-3.79,3.42,3.63,3.63,0,0,1-3.7-3.53c-.06-1.86,1.78-3.4,3.82-3.37a3.54,3.54,0,0,1,3.67,3.48"/></g><g class="cls-20"><path class="cls-34" d="M33.75,130.05a3.44,3.44,0,0,0,3.36-3.45,3.51,3.51,0,0,0-3.39-3.26,3.45,3.45,0,0,0-3.34,3.3,3.41,3.41,0,0,0,3.37,3.41m-20.28,5.7.56-.19c.82.61,1.6,1.26,2.47,1.8,1.09.68,1.08,1.49.54,2.51-.73,1.36-1.49,2.72-2.08,4.14a2.27,2.27,0,0,0,.09,1.79c.83,1.29,2.07,1,3.05-.6.83-1.41,1.47-2.94,2.3-4.35,1.21-2,2-3.93-.73-5.44a1.06,1.06,0,0,1-.28-1c.11-.24.61-.39.94-.4,1.41,0,2.82,0,4.23,0,1.11,0,1.62.58,1.62,1.67,0,1.45,0,2.91,0,4.37,0,1.64,0,3.28.05,4.93,0,1,.64,1.75,1.58,1.57.61-.12,1.13-.91,1.57-1.49.18-.25.08-.73.08-1.11,0-4.18,0-8.36,0-12.54,0-2.81-1.17-4-4-4.5-4.82-.76-9.2.49-13.37,2.82a4.2,4.2,0,0,0-2.25,3.79c0,1.46-.08,2.92,0,4.37a2.88,2.88,0,0,1-2,3.13,37.14,37.14,0,0,0-5.31,2.85,1.91,1.91,0,0,0-.36,1.78,1.44,1.44,0,0,0,2.09.8c2.17-1,4.3-2.11,6.51-3a3.74,3.74,0,0,0,2.58-4.28,27.88,27.88,0,0,1,.11-3.41"/><path class="cls-34" d="M33.75,130.05a3.41,3.41,0,0,1-3.37-3.41,3.45,3.45,0,0,1,3.34-3.3,3.51,3.51,0,0,1,3.39,3.26,3.44,3.44,0,0,1-3.36,3.45"/></g><g class="cls-20"><path class="cls-35" d="M408.1,713c.15-.65.29-1.29.43-1.94a1.18,1.18,0,1,1,2.3.5c-.13.61-.24,1.23-.38,1.84a1.17,1.17,0,0,1-1.1,1,1.15,1.15,0,0,1-1.19-.86s0-.06-.06-.09Z"/><path class="cls-35" d="M413.8,705.09,411.14,707c.65.47,1.2.93,1.8,1.3a1.77,1.77,0,0,1,.92,1.78c-.05,1,0,2,0,3.06a1.19,1.19,0,0,1-1,1.17,1.14,1.14,0,0,1-1.28-.76,1.82,1.82,0,0,1-.07-.57c0-.81,0-1.63,0-2.44a.61.61,0,0,0-.28-.54c-.75-.61-1.51-1.2-2.2-1.87a1.25,1.25,0,0,1-.18-1.78,8.81,8.81,0,0,1,1.46-1.65,19.69,19.69,0,0,1,3.79-2.46,1.17,1.17,0,0,1,1.79.9c.29,1.69.54,3.38.9,5.06.32,1.49.79,2.95,1.17,4.44a2,2,0,0,1,0,.92,1.09,1.09,0,0,1-1.08.76,1.15,1.15,0,0,1-1.14-.88c-.21-.69-.39-1.39-.56-2.1-.37-1.46-.74-2.92-1.08-4.39-.14-.58-.2-1.18-.31-1.89"/><path class="cls-35" d="M443,712h.61a1.17,1.17,0,0,1,0,2.32c-.63,0-1.26,0-1.89,0a1.1,1.1,0,0,1-1.07-1.15c0-1.25,0-2.5,0-3.74a8.48,8.48,0,0,0-.48-3.24A1.82,1.82,0,0,1,440,705a1.17,1.17,0,0,1,1-.86,1.09,1.09,0,0,1,1.19.7,10.33,10.33,0,0,1,.83,3.76c-.05,1,0,2,0,3V712"/><path class="cls-35" d="M445.35,703.94a3.44,3.44,0,0,1-.3.53,1.15,1.15,0,0,1-1.68.11,5,5,0,0,1-1.58-2.52c-.26-.95-.44-1.92-.66-2.89a.74.74,0,0,0-.13-.31c-.13.9-.29,1.79-.39,2.69a21.23,21.23,0,0,1-1,3.6c-.14.46-.32.91-.44,1.38a11.45,11.45,0,0,1-1.95,3.58L436,711.93c.35,0,.64.07.93.08a1.14,1.14,0,0,1,1.16,1.22,1.11,1.11,0,0,1-1.21,1.11,7.27,7.27,0,0,1-1.81-.28,2.08,2.08,0,0,1-1.19-3.14,19.1,19.1,0,0,1,1.48-2.19,14.44,14.44,0,0,0,2.14-4.52,31.52,31.52,0,0,0,1.15-5.59q.11-.63.15-1.26a7.45,7.45,0,0,0-.93,2.35c-.23,1-.39,1.93-.58,2.91a1.18,1.18,0,0,1-1.34,1,1.17,1.17,0,0,1-1-1.34,20.11,20.11,0,0,1,1.31-5.25,6.23,6.23,0,0,1,1.56-2.3,2.92,2.92,0,0,1,4.9,1.21c.37,1,.53,2.17.81,3.26.23.9.46,1.8.73,2.68a3.5,3.5,0,0,0,.5.75c.19.28.39.56.58.85"/><path class="cls-35" d="M426.92,698.91a4.31,4.31,0,0,0-2.76,1.21,4.21,4.21,0,0,0-1.21,3c0,.28,0,.56,0,.84a1.16,1.16,0,0,1-1.1,1.28,1.17,1.17,0,0,1-1.24-1.12,6.83,6.83,0,0,1,1.5-5.25,6.47,6.47,0,0,1,4.29-2.26,5.23,5.23,0,0,1,2.19.2,2.82,2.82,0,0,1,2.1,2.54c.15,1.18.17,2.37.24,3.55a6.06,6.06,0,0,0,.84,3.14c.19.28.41.52.61.77a1.17,1.17,0,0,1-1.75,1.56,6.47,6.47,0,0,1-1.87-3.84c-.15-1-.17-2.07-.24-3.11,0-.18,0-.35,0-.64l-.27.33c-.53.73-1,1.48-1.59,2.18a4,4,0,0,0-.76,1.84c-.2,1.09-.46,2.17-.71,3.25a1.9,1.9,0,0,1-.95,1.25c-.9.53-1.77,1.1-2.66,1.65l-.33.21c.22.12.42.22.6.33a1.14,1.14,0,0,1,.56,1.42,1.12,1.12,0,0,1-1.35.75,3.4,3.4,0,0,1-2.12-1.54,2,2,0,0,1,.64-2.66c1-.67,2-1.28,3-1.9a.92.92,0,0,0,.49-.66c.23-1.21.46-2.42.72-3.62a2.3,2.3,0,0,1,.34-.82q1.26-1.78,2.54-3.54l.22-.32"/><path class="cls-35" d="M440.58,686.7a3.26,3.26,0,0,1,2.09.92,1.17,1.17,0,0,1,.13,1.6,1.13,1.13,0,0,1-1.61.21,1.15,1.15,0,0,0-1-.34.88.88,0,0,0-.74.81.94.94,0,0,0,.43.93,1,1,0,0,0,1.09-.05,1.3,1.3,0,0,1,1.25-.38,1.18,1.18,0,0,1,.51,2,3.32,3.32,0,0,1-5.41-3.62,3.43,3.43,0,0,1,3.28-2"/><path class="cls-35" d="M432,691.28a3,3,0,0,1,2.17.87,1.14,1.14,0,0,1,.1,1.6,1.16,1.16,0,0,1-1.59.2c-.26-.18-.49-.39-.85-.29a.63.63,0,0,0-.52.62,1.07,1.07,0,0,0,.31.67.66.66,0,0,0,.81,0,3.18,3.18,0,0,1,.94-.39,1.07,1.07,0,0,1,1.09.69,1.12,1.12,0,0,1-.25,1.27,3.09,3.09,0,1,1-2.21-5.25"/><path class="cls-35" d="M428.49,712l.4,0a1.17,1.17,0,0,1,0,2.33h-1.6a1.14,1.14,0,0,1-1.12-1.11q0-3.37,0-6.76a1.13,1.13,0,0,1,1.17-1.09,1.12,1.12,0,0,1,1.16,1.11c0,1.68,0,3.36,0,5V712"/><path class="cls-35" d="M419.55,701.75a1.57,1.57,0,0,1-1.56,1.61,1.59,1.59,0,0,1-1.62-1.57,1.59,1.59,0,0,1,3.18,0"/></g><g class="cls-26"><path class="cls-36" d="M95,604.31c-.54-1.33-1.08-2.65-1.61-4-1.74-4.31-3.46-8.62-5.2-12.93a.4.4,0,0,1,.13-.55c.43-.32.85-.65,1.34-1l6.06,15,6.06-15c.52.41,1,.77,1.46,1.17.07.06,0,.28,0,.4L101,593q-2.2,5.49-4.4,11c0,.1-.09.19-.14.29Z"/><path class="cls-36" d="M86.73,571.79c0,.52,0,1,0,1.48a.49.49,0,0,0,.07.19.8.8,0,0,1-.2,1.23c.12.54.25,1.07.37,1.6s0,.82-.66.83c-1,0-1.07-.14-.87-1.08.09-.37.21-.73.28-1.1a.49.49,0,0,0-.09-.36.81.81,0,0,1-.12-1.05.83.83,0,0,0,.11-.4c0-.6,0-1.2,0-1.8,0-.42.19-.67.6-.63A5.23,5.23,0,0,0,89,570c1.79-.77,3.6-1.52,5.39-2.3a2.31,2.31,0,0,1,1.84,0q4.4,1.69,8.82,3.37c.32.12.56.29.57.65s-.2.55-.51.7l-7.35,3.46a2.05,2.05,0,0,1-1.73.06l-7.57-3c-.11,0-.18-.16-.27-.23a1.08,1.08,0,0,1,.35-.1h6.65c.28,0,.53-.08.53-.41s-.25-.38-.53-.38H86.73Z"/><path class="cls-36" d="M90.25,577.38c0,.87,0,1.69.15,2.5a7.73,7.73,0,0,0,1.58,4,4.53,4.53,0,0,0,3.49,1.92,4.61,4.61,0,0,0,4.1-2.14,9.37,9.37,0,0,0,1.6-5.23c0-.35,0-.7,0-1.05a14.45,14.45,0,0,1-10.87,0m-1.47-3.11,3.5,1.36c1.18.46,2.36.91,3.53,1.38a2.59,2.59,0,0,0,2.21-.08c1.42-.68,2.85-1.34,4.27-2l.41-.18c.09.67.2,1.32.27,2a.34.34,0,0,0,.3.36,1.57,1.57,0,0,1,1.21,1.48,4.8,4.8,0,0,1-.68,3,2,2,0,0,1-1.32,1,.63.63,0,0,0-.36.37,9,9,0,0,1-2.49,3.51,6,6,0,0,1-8.31-.41,9.1,9.1,0,0,1-2-3.11.59.59,0,0,0-.49-.39,1.83,1.83,0,0,1-1.16-.85,4.71,4.71,0,0,1-.72-3.25,1.48,1.48,0,0,1,1.12-1.31c.32-.08.35-.28.39-.54.1-.75.22-1.5.33-2.29"/><path class="cls-36" d="M104.2,587.89c.47.71.94,1.33,1.32,2a16.93,16.93,0,0,1,2,6,35.51,35.51,0,0,1,.34,3.71,2.23,2.23,0,0,1-2.21,2.26c-.67,0-1.33.08-2,.13a.64.64,0,0,0-.35.14,7.56,7.56,0,0,1-3.83,1.8c-.57.12-1.15.18-1.81.29,2.19-5.48,4.35-10.86,6.55-16.34"/><path class="cls-36" d="M87.25,588l6.53,16.28c-.82-.14-1.54-.23-2.24-.39a6.92,6.92,0,0,1-3.44-1.73.53.53,0,0,0-.32-.12c-.67,0-1.34-.1-2-.13a2.26,2.26,0,0,1-2.21-2.27,30.66,30.66,0,0,1,.3-3.46,18.35,18.35,0,0,1,1.36-4.88,12.89,12.89,0,0,1,2-3.3"/></g><g class="cls-26"><path d="M426.46,524a12.13,12.13,0,1,0-12.09-12.15A12.16,12.16,0,0,0,426.46,524m12.47-12.11a12.43,12.43,0,1,1-12.44-12.45,12.47,12.47,0,0,1,12.44,12.45"/><path class="cls-37" d="M426.46,524a12.13,12.13,0,1,0-12.09-12.15A12.16,12.16,0,0,0,426.46,524Zm12.47-12.11a12.43,12.43,0,1,1-12.44-12.45A12.47,12.47,0,0,1,438.93,511.85Z"/><path d="M428.43,520.06a2.32,2.32,0,0,0-4.38-.08,6.12,6.12,0,0,0,4.38.08m3.25-5.4a11.38,11.38,0,0,1-10.61,0c-.08,1.33-.08,1.32,1,1.78a10.86,10.86,0,0,0,8.59,0c1.05-.43,1.05-.42,1-1.77m-.1,1.64a11.41,11.41,0,0,1-10.41,0,5,5,0,0,0,2.57,3.52,2.74,2.74,0,0,1,2.57-1.61,2.83,2.83,0,0,1,2.47,1.72,4.91,4.91,0,0,0,2.8-3.64m-.21-1.89h-.56c0-.07,0-.13,0-.14a1,1,0,0,1,1.43.45,3.29,3.29,0,0,0-.29.73,5.37,5.37,0,0,1-3.86,5,5.54,5.54,0,0,1-7.35-5.16c0-.16,0-.33,0-.56l-.45.27c.34-.86.81-1,1.64-.65l-.64.12a10.65,10.65,0,0,0,10.08-.07"/><path class="cls-38" d="M428.43,520.06a2.32,2.32,0,0,0-4.38-.08A6.12,6.12,0,0,0,428.43,520.06Zm3.25-5.4a11.38,11.38,0,0,1-10.61,0c-.08,1.33-.08,1.32,1,1.78a10.86,10.86,0,0,0,8.59,0C431.75,516,431.75,516,431.68,514.66Zm-.1,1.64a11.41,11.41,0,0,1-10.41,0,5,5,0,0,0,2.57,3.52,2.74,2.74,0,0,1,2.57-1.61,2.83,2.83,0,0,1,2.47,1.72A4.91,4.91,0,0,0,431.58,516.3Zm-.21-1.89h-.56c0-.07,0-.13,0-.14a1,1,0,0,1,1.43.45,3.29,3.29,0,0,0-.29.73,5.37,5.37,0,0,1-3.86,5,5.54,5.54,0,0,1-7.35-5.16c0-.16,0-.33,0-.56l-.45.27c.34-.86.81-1,1.64-.65l-.64.12A10.65,10.65,0,0,0,431.37,514.41Z"/><path d="M424.31,510a1.38,1.38,0,1,1-1.23-1.79,1.55,1.55,0,0,1,1.23,1.79"/><path class="cls-4" d="M423.58,509.42a.59.59,0,1,1-.52-.77.67.67,0,0,1,.52.77"/><path d="M431.78,509.93a1.38,1.38,0,1,1-1.23-1.79,1.57,1.57,0,0,1,1.23,1.79"/><path class="cls-4" d="M431.05,509.37a.59.59,0,1,1-.53-.77.66.66,0,0,1,.53.77"/><path d="M434.79,507.32a.81.81,0,0,1,0,.22c0,.07-.08.17-.14.18a.25.25,0,0,1-.21-.1c-.09-.12-.14-.26-.22-.38s-.3-.44-.46-.65a5.64,5.64,0,0,0-1.22-1.06,4.34,4.34,0,0,0-1.26-.53.49.49,0,0,1-.4-.47.46.46,0,0,1,.56-.51,4,4,0,0,1,1.49.58,5.07,5.07,0,0,1,.85.68,3.15,3.15,0,0,1,1,2"/><path d="M418.57,507.33a2.81,2.81,0,0,1,.51-1.43,4.6,4.6,0,0,1,1.19-1.18,4.37,4.37,0,0,1,1.6-.69.49.49,0,0,1,.61.33.51.51,0,0,1-.35.63l-.08,0A4.34,4.34,0,0,0,420,506.2a4.52,4.52,0,0,0-1,1.39.21.21,0,0,1-.24.14c-.11,0-.14-.11-.14-.22v-.18"/><path class="cls-4" d="M439.31,513l.13-.19a3.23,3.23,0,0,0-1-4.52.84.84,0,0,0-1.34.71,11,11,0,0,0,.23,1.89,2.82,2.82,0,0,1-.81,2.89,1.54,1.54,0,0,0-.53,1.43,10.76,10.76,0,0,0,.4,1.3c0,.08.05.19,0,.24a2.09,2.09,0,0,0-.26,1.5,1.91,1.91,0,0,0,1.33,1.64.48.48,0,0,1,.2.14,3.29,3.29,0,0,0,3.94.68,1.32,1.32,0,0,0,.72-1.39c0-.11-.05-.22-.08-.34a2,2,0,0,0,1-1,1.23,1.23,0,0,0-.41-1.31c.24-.21.48-.39.68-.6a1,1,0,0,0,.19-1.35,2.68,2.68,0,0,0-1.2-1.13,5.38,5.38,0,0,0-3.24-.55"/><path class="cls-38" d="M439.31,513l.13-.19a3.23,3.23,0,0,0-1-4.52.84.84,0,0,0-1.34.71,11,11,0,0,0,.23,1.89,2.82,2.82,0,0,1-.81,2.89,1.54,1.54,0,0,0-.53,1.43,10.76,10.76,0,0,0,.4,1.3c0,.08.05.19,0,.24a2.09,2.09,0,0,0-.26,1.5,1.91,1.91,0,0,0,1.33,1.64.48.48,0,0,1,.2.14,3.29,3.29,0,0,0,3.94.68,1.32,1.32,0,0,0,.72-1.39c0-.11-.05-.22-.08-.34a2,2,0,0,0,1-1,1.23,1.23,0,0,0-.41-1.31c.24-.21.48-.39.68-.6a1,1,0,0,0,.19-1.35,2.68,2.68,0,0,0-1.2-1.13A5.38,5.38,0,0,0,439.31,513Z"/><path d="M441.88,519.16c-.23.08-.46.17-.7.23a3.81,3.81,0,0,1-2.09.13,2.36,2.36,0,0,1-1.16-.77c-.41.34-.41.77,0,1.23a3.25,3.25,0,0,0,3.48.65,1.09,1.09,0,0,0,.48-1.47m-4-1.92a3,3,0,0,0-.1.46,1.68,1.68,0,0,0,1.34,1.61,4,4,0,0,0,3.46-.83,1.06,1.06,0,0,0,.14-1.53c-.1-.14-.18-.16-.35-.06a7,7,0,0,1-2.21.91,2.22,2.22,0,0,1-2.14-.47.48.48,0,0,0-.14-.09m1.38-1.64c0-.15,0-.32,0-.38a1.72,1.72,0,0,0-1-.53.77.77,0,0,0-.94.88A2.31,2.31,0,0,0,438,517a2,2,0,0,0,2,.67,7.38,7.38,0,0,0,2.57-1.12,4,4,0,0,0,.8-.8.8.8,0,0,0,.12-.84,1.81,1.81,0,0,0-.75-.93,5,5,0,0,0-3.53-.73.63.63,0,0,0-.3.16c-.13.09-.25.2-.37.3l-.05-.06a1.29,1.29,0,0,1,.17-.16,2.88,2.88,0,0,0,1.12-2.71,2.69,2.69,0,0,0-1.29-2c-.53-.31-.85-.14-.95.46a4.85,4.85,0,0,0,.13,1.74,2.84,2.84,0,0,1-.82,2.81,1.76,1.76,0,0,0-.62,1.59c.06.4.19.79.29,1.22l.33-.27a2,2,0,0,0-.45,1.76,1.64,1.64,0,0,0,1,1.48.79.79,0,0,1,.39-1,1.12,1.12,0,0,1-.05-.13,1.46,1.46,0,0,1-.05-1.32.36.36,0,0,0-.07-.23,3.1,3.1,0,0,1-.58-1.18,1,1,0,0,1,1-1.24,1.85,1.85,0,0,1,1.35.55.24.24,0,0,0,.33,0,3.45,3.45,0,0,1,.61-.3c.29-.1.59-.17.89-.26l0,.07a3.86,3.86,0,0,0-.48.16,2.51,2.51,0,0,0-1.26.81c0,.05-.15.05-.19.06m0-2.62a5.38,5.38,0,0,1,3.24.55,2.68,2.68,0,0,1,1.2,1.13,1,1,0,0,1-.19,1.35c-.2.21-.44.39-.68.6a1.23,1.23,0,0,1,.41,1.31,2,2,0,0,1-1,1c0,.12.06.23.08.34a1.32,1.32,0,0,1-.72,1.39,3.29,3.29,0,0,1-3.94-.68.48.48,0,0,0-.2-.14,1.91,1.91,0,0,1-1.33-1.64,2.09,2.09,0,0,1,.26-1.5c0-.05,0-.16,0-.24a10.76,10.76,0,0,1-.4-1.3,1.54,1.54,0,0,1,.53-1.43,2.82,2.82,0,0,0,.81-2.89,11,11,0,0,1-.23-1.89.84.84,0,0,1,1.34-.71,3.23,3.23,0,0,1,1,4.52l-.13.19"/><path class="cls-38" d="M441.88,519.16c-.23.08-.46.17-.7.23a3.81,3.81,0,0,1-2.09.13,2.36,2.36,0,0,1-1.16-.77c-.41.34-.41.77,0,1.23a3.25,3.25,0,0,0,3.48.65A1.09,1.09,0,0,0,441.88,519.16Zm-4-1.92a3,3,0,0,0-.1.46,1.68,1.68,0,0,0,1.34,1.61,4,4,0,0,0,3.46-.83,1.06,1.06,0,0,0,.14-1.53c-.1-.14-.18-.16-.35-.06a7,7,0,0,1-2.21.91,2.22,2.22,0,0,1-2.14-.47A.48.48,0,0,0,437.9,517.24Zm1.38-1.64c0-.15,0-.32,0-.38a1.72,1.72,0,0,0-1-.53.77.77,0,0,0-.94.88A2.31,2.31,0,0,0,438,517a2,2,0,0,0,2,.67,7.38,7.38,0,0,0,2.57-1.12,4,4,0,0,0,.8-.8.8.8,0,0,0,.12-.84,1.81,1.81,0,0,0-.75-.93,5,5,0,0,0-3.53-.73.63.63,0,0,0-.3.16c-.13.09-.25.2-.37.3l-.05-.06a1.29,1.29,0,0,1,.17-.16,2.88,2.88,0,0,0,1.12-2.71,2.69,2.69,0,0,0-1.29-2c-.53-.31-.85-.14-.95.46a4.85,4.85,0,0,0,.13,1.74,2.84,2.84,0,0,1-.82,2.81,1.76,1.76,0,0,0-.62,1.59c.06.4.19.79.29,1.22l.33-.27a2,2,0,0,0-.45,1.76,1.64,1.64,0,0,0,1,1.48.79.79,0,0,1,.39-1,1.12,1.12,0,0,1-.05-.13,1.46,1.46,0,0,1-.05-1.32.36.36,0,0,0-.07-.23,3.1,3.1,0,0,1-.58-1.18,1,1,0,0,1,1-1.24,1.85,1.85,0,0,1,1.35.55.24.24,0,0,0,.33,0,3.45,3.45,0,0,1,.61-.3c.29-.1.59-.17.89-.26l0,.07a3.86,3.86,0,0,0-.48.16,2.51,2.51,0,0,0-1.26.81C439.44,515.59,439.32,515.59,439.28,515.6Zm0-2.62a5.38,5.38,0,0,1,3.24.55,2.68,2.68,0,0,1,1.2,1.13,1,1,0,0,1-.19,1.35c-.2.21-.44.39-.68.6a1.23,1.23,0,0,1,.41,1.31,2,2,0,0,1-1,1c0,.12.06.23.08.34a1.32,1.32,0,0,1-.72,1.39,3.29,3.29,0,0,1-3.94-.68.48.48,0,0,0-.2-.14,1.91,1.91,0,0,1-1.33-1.64,2.09,2.09,0,0,1,.26-1.5c0-.05,0-.16,0-.24a10.76,10.76,0,0,1-.4-1.3,1.54,1.54,0,0,1,.53-1.43,2.82,2.82,0,0,0,.81-2.89,11,11,0,0,1-.23-1.89.84.84,0,0,1,1.34-.71,3.23,3.23,0,0,1,1,4.52Z"/><path class="cls-4" d="M439.28,515.6s.16,0,.19-.06a2.51,2.51,0,0,1,1.26-.81,3.86,3.86,0,0,1,.48-.16l0-.07c-.3.09-.6.16-.89.26a3.45,3.45,0,0,0-.61.3.24.24,0,0,1-.33,0,1.85,1.85,0,0,0-1.35-.55,1,1,0,0,0-1,1.24,3,3,0,0,0,.58,1.18.36.36,0,0,1,.07.23,1.46,1.46,0,0,0,.05,1.32,1.12,1.12,0,0,0,.05.13.79.79,0,0,0-.39,1,1.64,1.64,0,0,1-1-1.48,2,2,0,0,1,.45-1.76l-.33.27c-.1-.43-.23-.82-.29-1.22a1.76,1.76,0,0,1,.62-1.59,2.84,2.84,0,0,0,.82-2.81,4.85,4.85,0,0,1-.13-1.74c.1-.6.42-.77.95-.46a2.69,2.69,0,0,1,1.29,2,2.88,2.88,0,0,1-1.12,2.71l-.18.16.06.06c.12-.1.24-.21.37-.3a.63.63,0,0,1,.3-.16,5,5,0,0,1,3.53.73,1.81,1.81,0,0,1,.75.93.8.8,0,0,1-.12.84,4,4,0,0,1-.8.8,7.38,7.38,0,0,1-2.57,1.12,2,2,0,0,1-2-.67,2.31,2.31,0,0,1-.69-1.41.77.77,0,0,1,.94-.88,1.77,1.77,0,0,1,1,.53c.06.06,0,.23,0,.38"/><path class="cls-38" d="M439.28,515.6s.16,0,.19-.06a2.51,2.51,0,0,1,1.26-.81,3.86,3.86,0,0,1,.48-.16l0-.07c-.3.09-.6.16-.89.26a3.45,3.45,0,0,0-.61.3.24.24,0,0,1-.33,0,1.85,1.85,0,0,0-1.35-.55,1,1,0,0,0-1,1.24,3,3,0,0,0,.58,1.18.36.36,0,0,1,.07.23,1.46,1.46,0,0,0,.05,1.32,1.12,1.12,0,0,0,.05.13.79.79,0,0,0-.39,1,1.64,1.64,0,0,1-1-1.48,2,2,0,0,1,.45-1.76l-.33.27c-.1-.43-.23-.82-.29-1.22a1.76,1.76,0,0,1,.62-1.59,2.84,2.84,0,0,0,.82-2.81,4.85,4.85,0,0,1-.13-1.74c.1-.6.42-.77.95-.46a2.69,2.69,0,0,1,1.29,2,2.88,2.88,0,0,1-1.12,2.71l-.18.16.06.06c.12-.1.24-.21.37-.3a.63.63,0,0,1,.3-.16,5,5,0,0,1,3.53.73,1.81,1.81,0,0,1,.75.93.8.8,0,0,1-.12.84,4,4,0,0,1-.8.8,7.38,7.38,0,0,1-2.57,1.12,2,2,0,0,1-2-.67,2.31,2.31,0,0,1-.69-1.41.77.77,0,0,1,.94-.88,1.77,1.77,0,0,1,1,.53C439.31,515.28,439.27,515.45,439.28,515.6Z"/><path class="cls-4" d="M437.9,517.24a.48.48,0,0,1,.14.09,2.22,2.22,0,0,0,2.14.47,7,7,0,0,0,2.21-.91c.17-.1.25-.08.35.06a1.06,1.06,0,0,1-.14,1.53,4,4,0,0,1-3.46.83,1.68,1.68,0,0,1-1.34-1.61,3,3,0,0,1,.1-.46"/><path class="cls-38" d="M437.9,517.24a.48.48,0,0,1,.14.09,2.22,2.22,0,0,0,2.14.47,7,7,0,0,0,2.21-.91c.17-.1.25-.08.35.06a1.06,1.06,0,0,1-.14,1.53,4,4,0,0,1-3.46.83,1.68,1.68,0,0,1-1.34-1.61A3,3,0,0,1,437.9,517.24Z"/><path class="cls-4" d="M441.88,519.16a1.09,1.09,0,0,1-.48,1.47,3.25,3.25,0,0,1-3.48-.65c-.4-.46-.4-.89,0-1.23a2.43,2.43,0,0,0,1.17.77,3.81,3.81,0,0,0,2.09-.13c.24-.06.47-.15.7-.23"/><path class="cls-38" d="M441.88,519.16a1.09,1.09,0,0,1-.48,1.47,3.25,3.25,0,0,1-3.48-.65c-.4-.46-.4-.89,0-1.23a2.43,2.43,0,0,0,1.17.77,3.81,3.81,0,0,0,2.09-.13C441.42,519.33,441.65,519.24,441.88,519.16Z"/><path class="cls-4" d="M414.26,513.05l-.13-.18a3.19,3.19,0,0,1,1-4.52.86.86,0,0,1,1.38.7,10.08,10.08,0,0,1-.24,1.89,2.79,2.79,0,0,0,.84,2.9,1.52,1.52,0,0,1,.54,1.42,12.17,12.17,0,0,1-.4,1.3c0,.08-.06.19,0,.25a2,2,0,0,1,.27,1.49,2,2,0,0,1-1.37,1.65.42.42,0,0,0-.21.13,3.45,3.45,0,0,1-4,.69,1.3,1.3,0,0,1-.75-1.39c0-.12.06-.23.09-.35a2,2,0,0,1-1-1,1.19,1.19,0,0,1,.42-1.31c-.25-.21-.49-.39-.71-.6a1,1,0,0,1-.19-1.35,2.77,2.77,0,0,1,1.24-1.13,5.71,5.71,0,0,1,3.32-.55"/><path class="cls-38" d="M414.26,513.05l-.13-.18a3.19,3.19,0,0,1,1-4.52.86.86,0,0,1,1.38.7,10.08,10.08,0,0,1-.24,1.89,2.79,2.79,0,0,0,.84,2.9,1.52,1.52,0,0,1,.54,1.42,12.17,12.17,0,0,1-.4,1.3c0,.08-.06.19,0,.25a2,2,0,0,1,.27,1.49,2,2,0,0,1-1.37,1.65.42.42,0,0,0-.21.13,3.45,3.45,0,0,1-4,.69,1.3,1.3,0,0,1-.75-1.39c0-.12.06-.23.09-.35a2,2,0,0,1-1-1,1.19,1.19,0,0,1,.42-1.31c-.25-.21-.49-.39-.71-.6a1,1,0,0,1-.19-1.35,2.77,2.77,0,0,1,1.24-1.13A5.71,5.71,0,0,1,414.26,513.05Z"/><path d="M411.63,519.24c.23.07.47.16.71.22a4.07,4.07,0,0,0,2.16.14,2.52,2.52,0,0,0,1.19-.77c.42.33.42.77,0,1.22a3.4,3.4,0,0,1-3.58.65,1.07,1.07,0,0,1-.49-1.46m4.09-1.93a3.21,3.21,0,0,1,.1.46,1.67,1.67,0,0,1-1.38,1.61,4.16,4.16,0,0,1-3.55-.83,1,1,0,0,1-.15-1.52c.11-.14.19-.17.36-.07a7.33,7.33,0,0,0,2.28.92,2.32,2.32,0,0,0,2.19-.48,1.13,1.13,0,0,1,.15-.09m-1.42-1.64c0-.15,0-.32,0-.38a1.86,1.86,0,0,1,1.05-.53.79.79,0,0,1,1,.89,2.23,2.23,0,0,1-.71,1.4,2,2,0,0,1-2.09.67,7.63,7.63,0,0,1-2.64-1.12,4.14,4.14,0,0,1-.83-.79A.8.8,0,0,1,410,515a1.92,1.92,0,0,1,.77-.94,5.42,5.42,0,0,1,3.63-.73.77.77,0,0,1,.31.16l.38.31.06-.07-.18-.16a2.82,2.82,0,0,1-1.15-2.71,2.67,2.67,0,0,1,1.32-2c.54-.31.88-.14,1,.46A4.64,4.64,0,0,1,416,511a2.74,2.74,0,0,0,.84,2.81,1.76,1.76,0,0,1,.64,1.59c-.07.4-.2.79-.3,1.22l-.34-.26a1.9,1.9,0,0,1,.46,1.75,1.61,1.61,0,0,1-1,1.48.77.77,0,0,0-.4-1l.06-.13a1.46,1.46,0,0,0,.05-1.32c0-.05,0-.17.07-.23a3.08,3.08,0,0,0,.59-1.17,1,1,0,0,0-1-1.25,2,2,0,0,0-1.39.55.24.24,0,0,1-.34,0,3.32,3.32,0,0,0-.63-.3c-.3-.1-.61-.17-.92-.25v.06a4.66,4.66,0,0,1,.49.16,2.63,2.63,0,0,1,1.29.82s.16,0,.2,0m0-2.62a5.71,5.71,0,0,0-3.32.55,2.77,2.77,0,0,0-1.24,1.13,1,1,0,0,0,.19,1.35c.22.21.46.39.71.6a1.19,1.19,0,0,0-.42,1.31,2,2,0,0,0,1,1c0,.12-.07.23-.09.35a1.3,1.3,0,0,0,.75,1.39,3.45,3.45,0,0,0,4-.69.42.42,0,0,1,.21-.13,2,2,0,0,0,1.37-1.65,2,2,0,0,0-.27-1.49c0-.06,0-.17,0-.25a12.17,12.17,0,0,0,.4-1.3,1.52,1.52,0,0,0-.54-1.42,2.79,2.79,0,0,1-.84-2.9,10.08,10.08,0,0,0,.24-1.89.86.86,0,0,0-1.38-.7,3.19,3.19,0,0,0-1,4.52l.13.18"/><path class="cls-38" d="M411.63,519.24c.23.07.47.16.71.22a4.07,4.07,0,0,0,2.16.14,2.52,2.52,0,0,0,1.19-.77c.42.33.42.77,0,1.22a3.4,3.4,0,0,1-3.58.65A1.07,1.07,0,0,1,411.63,519.24Zm4.09-1.93a3.21,3.21,0,0,1,.1.46,1.67,1.67,0,0,1-1.38,1.61,4.16,4.16,0,0,1-3.55-.83,1,1,0,0,1-.15-1.52c.11-.14.19-.17.36-.07a7.33,7.33,0,0,0,2.28.92,2.32,2.32,0,0,0,2.19-.48A1.13,1.13,0,0,1,415.72,517.31Zm-1.42-1.64c0-.15,0-.32,0-.38a1.86,1.86,0,0,1,1.05-.53.79.79,0,0,1,1,.89,2.23,2.23,0,0,1-.71,1.4,2,2,0,0,1-2.09.67,7.63,7.63,0,0,1-2.64-1.12,4.14,4.14,0,0,1-.83-.79A.8.8,0,0,1,410,515a1.92,1.92,0,0,1,.77-.94,5.42,5.42,0,0,1,3.63-.73.77.77,0,0,1,.31.16l.38.31.06-.07-.18-.16a2.82,2.82,0,0,1-1.15-2.71,2.67,2.67,0,0,1,1.32-2c.54-.31.88-.14,1,.46A4.64,4.64,0,0,1,416,511a2.74,2.74,0,0,0,.84,2.81,1.76,1.76,0,0,1,.64,1.59c-.07.4-.2.79-.3,1.22l-.34-.26a1.9,1.9,0,0,1,.46,1.75,1.61,1.61,0,0,1-1,1.48.77.77,0,0,0-.4-1l.06-.13a1.46,1.46,0,0,0,.05-1.32c0-.05,0-.17.07-.23a3.08,3.08,0,0,0,.59-1.17,1,1,0,0,0-1-1.25,2,2,0,0,0-1.39.55.24.24,0,0,1-.34,0,3.32,3.32,0,0,0-.63-.3c-.3-.1-.61-.17-.92-.25v.06a4.66,4.66,0,0,1,.49.16,2.63,2.63,0,0,1,1.29.82S414.26,515.66,414.3,515.67Zm0-2.62a5.71,5.71,0,0,0-3.32.55,2.77,2.77,0,0,0-1.24,1.13,1,1,0,0,0,.19,1.35c.22.21.46.39.71.6a1.19,1.19,0,0,0-.42,1.31,2,2,0,0,0,1,1c0,.12-.07.23-.09.35a1.3,1.3,0,0,0,.75,1.39,3.45,3.45,0,0,0,4-.69.42.42,0,0,1,.21-.13,2,2,0,0,0,1.37-1.65,2,2,0,0,0-.27-1.49c0-.06,0-.17,0-.25a12.17,12.17,0,0,0,.4-1.3,1.52,1.52,0,0,0-.54-1.42,2.79,2.79,0,0,1-.84-2.9,10.08,10.08,0,0,0,.24-1.89.86.86,0,0,0-1.38-.7,3.19,3.19,0,0,0-1,4.52Z"/><path class="cls-4" d="M414.3,515.67s-.17,0-.2,0a2.63,2.63,0,0,0-1.29-.82,4.66,4.66,0,0,0-.49-.16v-.06c.31.08.62.15.92.25a3.32,3.32,0,0,1,.63.3.24.24,0,0,0,.34,0,2,2,0,0,1,1.39-.55,1,1,0,0,1,1,1.25A3.08,3.08,0,0,1,416,517c-.05.06-.1.18-.07.23a1.46,1.46,0,0,1-.05,1.32l-.06.13a.77.77,0,0,1,.4,1,1.61,1.61,0,0,0,1-1.48,1.9,1.9,0,0,0-.46-1.75l.34.26c.1-.43.23-.82.3-1.22a1.76,1.76,0,0,0-.64-1.59A2.74,2.74,0,0,1,416,511a4.64,4.64,0,0,0,.13-1.74c-.1-.6-.44-.77-1-.46a2.67,2.67,0,0,0-1.32,2,2.82,2.82,0,0,0,1.15,2.71l.18.16-.06.07-.38-.31a.77.77,0,0,0-.31-.16,5.42,5.42,0,0,0-3.63.73,1.92,1.92,0,0,0-.77.94.8.8,0,0,0,.12.84,4.14,4.14,0,0,0,.83.79,7.63,7.63,0,0,0,2.64,1.12,2,2,0,0,0,2.09-.67,2.23,2.23,0,0,0,.71-1.4.79.79,0,0,0-1-.89,1.86,1.86,0,0,0-1.05.53c-.07.06,0,.23,0,.38"/><path class="cls-38" d="M414.3,515.67s-.17,0-.2,0a2.63,2.63,0,0,0-1.29-.82,4.66,4.66,0,0,0-.49-.16v-.06c.31.08.62.15.92.25a3.32,3.32,0,0,1,.63.3.24.24,0,0,0,.34,0,2,2,0,0,1,1.39-.55,1,1,0,0,1,1,1.25A3.08,3.08,0,0,1,416,517c-.05.06-.1.18-.07.23a1.46,1.46,0,0,1-.05,1.32l-.06.13a.77.77,0,0,1,.4,1,1.61,1.61,0,0,0,1-1.48,1.9,1.9,0,0,0-.46-1.75l.34.26c.1-.43.23-.82.3-1.22a1.76,1.76,0,0,0-.64-1.59A2.74,2.74,0,0,1,416,511a4.64,4.64,0,0,0,.13-1.74c-.1-.6-.44-.77-1-.46a2.67,2.67,0,0,0-1.32,2,2.82,2.82,0,0,0,1.15,2.71l.18.16-.06.07-.38-.31a.77.77,0,0,0-.31-.16,5.42,5.42,0,0,0-3.63.73,1.92,1.92,0,0,0-.77.94.8.8,0,0,0,.12.84,4.14,4.14,0,0,0,.83.79,7.63,7.63,0,0,0,2.64,1.12,2,2,0,0,0,2.09-.67,2.23,2.23,0,0,0,.71-1.4.79.79,0,0,0-1-.89,1.86,1.86,0,0,0-1.05.53C414.27,515.35,414.31,515.52,414.3,515.67Z"/><path class="cls-4" d="M415.72,517.31a1.13,1.13,0,0,0-.15.09,2.32,2.32,0,0,1-2.19.48,7.33,7.33,0,0,1-2.28-.92c-.17-.1-.25-.07-.36.07a1,1,0,0,0,.15,1.52,4.16,4.16,0,0,0,3.55.83,1.67,1.67,0,0,0,1.38-1.61,3.21,3.21,0,0,0-.1-.46"/><path class="cls-38" d="M415.72,517.31a1.13,1.13,0,0,0-.15.09,2.32,2.32,0,0,1-2.19.48,7.33,7.33,0,0,1-2.28-.92c-.17-.1-.25-.07-.36.07a1,1,0,0,0,.15,1.52,4.16,4.16,0,0,0,3.55.83,1.67,1.67,0,0,0,1.38-1.61A3.21,3.21,0,0,0,415.72,517.31Z"/><path class="cls-4" d="M411.63,519.24a1.07,1.07,0,0,0,.49,1.46,3.4,3.4,0,0,0,3.58-.65c.41-.45.41-.89,0-1.22a2.52,2.52,0,0,1-1.19.77,4.07,4.07,0,0,1-2.16-.14c-.24-.06-.48-.15-.71-.22"/><path class="cls-38" d="M411.63,519.24a1.07,1.07,0,0,0,.49,1.46,3.4,3.4,0,0,0,3.58-.65c.41-.45.41-.89,0-1.22a2.52,2.52,0,0,1-1.19.77,4.07,4.07,0,0,1-2.16-.14C412.1,519.4,411.86,519.31,411.63,519.24Z"/></g><g class="cls-26"><path d="M59.66,516.36h2.25c.53,0,.92.21.94.76s-.39.85-.94.85H57.33c-.53,0-.9-.26-.9-.81s.36-.8.9-.79h2.33Z"/><path class="cls-39" d="M59.66,516.36h2.25c.53,0,.92.21.94.76s-.39.85-.94.85H57.33c-.53,0-.9-.26-.9-.81s.36-.8.9-.79h2.33Z"/><path d="M59.28,523.09a12.35,12.35,0,1,0-12.35-12.35,12.38,12.38,0,0,0,12.35,12.35m0,1.07A13.43,13.43,0,1,1,72.7,510.75a13.43,13.43,0,0,1-13.41,13.41"/><path d="M54.16,506.58A1.14,1.14,0,0,0,53,507.73,1.19,1.19,0,0,0,54.1,509a1.19,1.19,0,1,0,.06-2.38m2.22,1.18A2.26,2.26,0,0,1,54,510a2.26,2.26,0,0,1,.11-4.51,2.24,2.24,0,0,1,2.24,2.31"/><path d="M65.2,509a1.17,1.17,0,0,0,1.19-1.18,1.16,1.16,0,0,0-1.18-1.19,1.18,1.18,0,0,0-1.2,1.17A1.21,1.21,0,0,0,65.2,509m0,1a2.26,2.26,0,1,1,2.21-2.25A2.27,2.27,0,0,1,65.25,510"/><path d="M48.13,513l.1.13c.11.13.24.27.35.41a.2.2,0,0,1,0,.29.18.18,0,0,1-.27,0l-.56-.6-1-1.1a.45.45,0,0,0-.17-.11.54.54,0,0,0-.62.18.58.58,0,0,0,0,.64,1.63,1.63,0,0,1,.17.2l.37.45a.2.2,0,0,1-.3.25,1,1,0,0,1-.15-.14c-.29-.3-.56-.61-.85-.91a.5.5,0,0,0-.73,0,.51.51,0,0,0,0,.72c.29.35.59.68.88,1a.24.24,0,0,1,0,.31.22.22,0,0,1-.29,0l-.14-.14c-.17-.19-.34-.38-.52-.55a.5.5,0,0,0-.7,0,.52.52,0,0,0-.08.74c.06.08.13.15.2.23l.4.46a.2.2,0,0,1,.06.21.21.21,0,0,1-.35.09c-.07-.06-.13-.13-.2-.18a.53.53,0,0,0-.58,0,.52.52,0,0,0-.11.82l1.81,2a4.16,4.16,0,0,0,.61.58,2.34,2.34,0,0,0,2.73-.07c.35-.27.67-.57,1-.87a1.71,1.71,0,0,0,.58-1.32.22.22,0,0,1,0-.08l.12-2.18a.45.45,0,0,0,0-.11,1.5,1.5,0,0,0-1.43-1.26l-.29,0m6.83-10a5.21,5.21,0,0,0-3.88,1.69,5,5,0,0,0-1,1.57,5.13,5.13,0,0,0-.31,1.27,4.9,4.9,0,0,0,.14,1.87,4.53,4.53,0,0,0,.52,1.22,5.17,5.17,0,0,0,3.29,2.41,5.29,5.29,0,0,0,1.12.15,4.89,4.89,0,0,0,1.37-.16,5,5,0,0,0,.66-.2,5.33,5.33,0,0,0,1.65-1A5.18,5.18,0,0,0,60.1,509a5.23,5.23,0,0,0,0-1.58,4.11,4.11,0,0,0-.33-1.2,4.9,4.9,0,0,0-.91-1.43A5.27,5.27,0,0,0,55,503.06m-9.7,8.84a1.27,1.27,0,0,1,.51-.49.73.73,0,0,1,.44-.12h.42a1.06,1.06,0,0,1,.63.36l.52.57a.28.28,0,0,0,.21.1l.83,0a.88.88,0,0,1,.23.07.11.11,0,0,0,.14,0l.35-.35c.06,0,.06-.08,0-.14a6.07,6.07,0,0,1-.82-1.5,5.83,5.83,0,0,1-.34-1.24,7.27,7.27,0,0,1-.08-1.4,6.27,6.27,0,0,1,.51-2.13,6.46,6.46,0,0,1,2.37-2.85,6,6,0,0,1,1.38-.71c.38-.13.76-.22,1.14-.31a6.42,6.42,0,0,1,1.69-.11,4.08,4.08,0,0,1,.69.09,4,4,0,0,1,.48.08c.32.11.64.2,1,.33a10,10,0,0,1,.93.46A6.38,6.38,0,0,1,60,503.9a6.48,6.48,0,0,1,1,1.49,6.37,6.37,0,0,1,.49,1.41,6.29,6.29,0,0,1,.09,2.12,6.47,6.47,0,0,1-.44,1.69,6.66,6.66,0,0,1-1.85,2.48,6.85,6.85,0,0,1-1.57,1,6.54,6.54,0,0,1-1.52.47,6.91,6.91,0,0,1-1.7.09,6.45,6.45,0,0,1-1.38-.25,6.75,6.75,0,0,1-2-1c-.06,0-.09,0-.14,0l-.4.39s0,.08,0,.11a2.75,2.75,0,0,1,.06.86q0,.45,0,.9a13.57,13.57,0,0,1-.11,1.42,2.44,2.44,0,0,1-.85,1.5c-.37.33-.72.67-1.11,1a3.66,3.66,0,0,1-.74.37,3.21,3.21,0,0,1-1.41.13,2.27,2.27,0,0,1-1-.32c-.2-.11-.4-.24-.6-.37l-.35.33a1,1,0,0,1-1.62-.33,1,1,0,0,1,.24-1.06l.39-.42c-.21-.22-.44-.46-.65-.71a3,3,0,0,1-.52-.73,1.24,1.24,0,0,1,.42-1.48l.16-.11a2.4,2.4,0,0,1-.07-.52,1.26,1.26,0,0,1,.2-.59,1.32,1.32,0,0,1,.58-.49.11.11,0,0,0,0-.11,1.24,1.24,0,0,1,.25-.83,1.26,1.26,0,0,1,1.44-.43"/><path class="cls-4" d="M48.13,513l.29,0a1.5,1.5,0,0,1,1.43,1.26.45.45,0,0,1,0,.11l-.12,2.18a.19.19,0,0,0,0,.08,1.71,1.71,0,0,1-.58,1.32c-.32.3-.64.6-1,.87a2.34,2.34,0,0,1-2.73.07,4.76,4.76,0,0,1-.61-.58l-1.81-2a.52.52,0,0,1,.11-.82.53.53,0,0,1,.58,0c.07,0,.13.12.2.18a.22.22,0,0,0,.36-.09.23.23,0,0,0-.07-.21l-.4-.46c-.07-.08-.14-.15-.2-.23a.53.53,0,0,1,.08-.74.5.5,0,0,1,.7,0c.18.17.35.36.52.55l.14.14a.22.22,0,0,0,.29,0,.24.24,0,0,0,0-.31c-.29-.33-.59-.66-.88-1a.52.52,0,0,1,0-.73.5.5,0,0,1,.73,0c.29.3.56.61.85.91a.67.67,0,0,0,.15.14.2.2,0,0,0,.3-.25l-.37-.45a1.63,1.63,0,0,0-.17-.2.58.58,0,0,1,0-.64.54.54,0,0,1,.62-.18.45.45,0,0,1,.17.11l1,1.1.56.6a.18.18,0,0,0,.27,0,.2.2,0,0,0,0-.29c-.11-.14-.24-.28-.35-.41l-.1-.13"/><path d="M59.33,508a.56.56,0,0,1-.26.57.55.55,0,0,1-.81-.27.29.29,0,0,1,0-.09,9.26,9.26,0,0,0-.13-.92,3,3,0,0,0-.29-.7,3.16,3.16,0,0,0-1.66-1.44,3.71,3.71,0,0,0-1.28-.23.53.53,0,0,1-.46-.44.52.52,0,0,1,.31-.57,1,1,0,0,1,.39-.05,4.41,4.41,0,0,1,4,2.83,4.47,4.47,0,0,1,.25,1.31"/></g><g class="cls-20"><path d="M464.47,311.91a12.25,12.25,0,1,0,12.2,12.32,12.25,12.25,0,0,0-12.2-12.32m0-1.17a13.41,13.41,0,1,1-13.45,13.36,13.43,13.43,0,0,1,13.45-13.36"/><path d="M473.6,311.13c-.1-.4-.34-.81-.22-1,.56-1.06,1.19-2.09,1.85-3.09a.83.83,0,0,1,.72-.22c.14,0,.36.46.29.57-.66,1.19-1.37,2.34-2.09,3.5,0,.08-.21.11-.55.27"/><path d="M479.4,311.17a3.42,3.42,0,0,1-.51.55c-.87.63-1.74,1.27-2.66,1.82-.23.14-.65,0-1-.05.1-.29.12-.7.32-.86.87-.67,1.79-1.3,2.72-1.89a1.15,1.15,0,0,1,.78-.07c.12,0,.19.29.32.5"/><path d="M471.6,306c-.27,1.34-.48,2.53-.78,3.69-.05.21-.45.32-.68.48-.14-.25-.42-.52-.38-.75.17-1.15.4-2.3.68-3.44a.85.85,0,0,1,.66-.49c.19,0,.37.37.5.51"/><path d="M464.67,325.13a10.85,10.85,0,0,1-5.37-1.44c-.26-.14-.34-.57-.51-.87.36-.05.79-.24,1-.11,3.1,1.6,6.17,1.83,9.26,0,.22-.13.65.07,1,.11-.12.28-.17.67-.38.84a9,9,0,0,1-5,1.5"/><path d="M459,317.71a12.42,12.42,0,0,1,1.57.87c.16.13.1.54.14.82-.26,0-.61.2-.76.08-.62-.44-1.15-.58-1.77,0a.75.75,0,0,1-.73-.1.73.73,0,0,1,0-.73,12.94,12.94,0,0,1,1.51-.94"/><path d="M469.71,317.72a11.12,11.12,0,0,1,1.55.84c.18.13.14.53.2.81-.28,0-.66.21-.83.09a1.16,1.16,0,0,0-1.69,0c-.14.13-.54-.05-.82-.09,0-.25,0-.63.13-.75a12.55,12.55,0,0,1,1.46-.89"/></g></g></g></g></svg>