<svg xmlns="http://www.w3.org/2000/svg" viewBox="0 0 154.5 255.99"><defs><style>.cls-1{fill:none;stroke:#000;stroke-miterlimit:10;stroke-width:0.5px;}</style></defs><g id="Capa_2" data-name="Capa 2"><g id="Layer_1" data-name="Layer 1"><path d="M16.62,171.73h1.22a1.55,1.55,0,0,0,.33,0,.69.69,0,0,0,.23-.07.46.46,0,0,0,.17-.14.77.77,0,0,0,.15-.22,1.84,1.84,0,0,0,.13-.36c0-.14.1-.35.16-.64h.47l-.1,1.89H15.21v-.23a1,1,0,0,0,.39-.17.49.49,0,0,0,.13-.26,3.19,3.19,0,0,0,0-.52v-4a2.67,2.67,0,0,0,0-.47.63.63,0,0,0-.07-.23.57.57,0,0,0-.14-.13,1.68,1.68,0,0,0-.31-.11v-.23h2V166a1.51,1.51,0,0,0-.29.1.44.44,0,0,0-.15.12.76.76,0,0,0-.08.23,2.93,2.93,0,0,0,0,.49Z"/><path d="M22.93,171.49l-.07,0a2.85,2.85,0,0,1-.76.59,1.79,1.79,0,0,1-.75.17,1.21,1.21,0,0,1-.62-.14,1,1,0,0,1-.42-.39,1.17,1.17,0,0,1-.14-.57,1.16,1.16,0,0,1,.67-1.06,4.7,4.7,0,0,1,2-.43v-.31a2.66,2.66,0,0,0-.09-.77.8.8,0,0,0-.3-.41.93.93,0,0,0-.53-.13.85.85,0,0,0-.58.19,1.13,1.13,0,0,0-.33.58h-.61v-.61a5.45,5.45,0,0,1,.74-.34,3.42,3.42,0,0,1,.6-.18,2.91,2.91,0,0,1,.6-.06,1.6,1.6,0,0,1,.74.15.87.87,0,0,1,.41.45,2.19,2.19,0,0,1,.14.92v1.63c0,.23,0,.39,0,.49a1.09,1.09,0,0,0,0,.26.52.52,0,0,0,.06.2.87.87,0,0,0,.14.12,1.81,1.81,0,0,0,.3.11v.23H22.9ZM22.85,170a3.32,3.32,0,0,0-1.41.25A.8.8,0,0,0,21,171a.72.72,0,0,0,.11.42.56.56,0,0,0,.27.21,1,1,0,0,0,.38.06,1.1,1.1,0,0,0,.57-.15,1.21,1.21,0,0,0,.41-.4.94.94,0,0,0,.14-.47Z"/><path d="M29.56,168.41h0a4.45,4.45,0,0,1,.57-.52,1.7,1.7,0,0,1,.42-.22,1.27,1.27,0,0,1,.44-.08,1.65,1.65,0,0,1,.46.06,1.08,1.08,0,0,1,.35.19.89.89,0,0,1,.24.3,1.36,1.36,0,0,1,.14.43,3.69,3.69,0,0,1,0,.64V171a2.33,2.33,0,0,0,0,.56.39.39,0,0,0,.12.23.87.87,0,0,0,.36.16v.23H31v-.23l.26-.1a.49.49,0,0,0,.13-.12.76.76,0,0,0,.08-.23,2.72,2.72,0,0,0,0-.48v-1.22a5.76,5.76,0,0,0-.06-1,.79.79,0,0,0-.25-.49.73.73,0,0,0-.51-.16.88.88,0,0,0-.33.06,1.22,1.22,0,0,0-.35.24,1.28,1.28,0,0,0-.29.34.75.75,0,0,0-.1.38V171a2.64,2.64,0,0,0,0,.46.7.7,0,0,0,.06.23.4.4,0,0,0,.14.15,1.26,1.26,0,0,0,.29.11v.23H28.24v-.23l.29-.11a.58.58,0,0,0,.14-.13.9.9,0,0,0,.07-.23c0-.1,0-.26,0-.48v-4.54a2.36,2.36,0,0,0,0-.31.48.48,0,0,0-.09-.19.31.31,0,0,0-.14-.11,1.42,1.42,0,0,0-.33-.09v-.24l1.12-.05h.28Z"/><path d="M33.61,171.93l.25-.1a.37.37,0,0,0,.13-.12.55.55,0,0,0,.09-.23,2.72,2.72,0,0,0,0-.48v-2c0-.2,0-.36,0-.49a.77.77,0,0,0-.07-.29.3.3,0,0,0-.17-.16,1,1,0,0,0-.32-.09v-.25l1.08,0h.29V171a3.67,3.67,0,0,0,0,.57.41.41,0,0,0,.14.23.89.89,0,0,0,.35.15v.23H33.61Zm1.32-6.09v.91h-.85v-.91Z"/><path d="M39.4,168.7H39a1.41,1.41,0,0,0-.25-.44.76.76,0,0,0-.31-.23A1.35,1.35,0,0,0,38,168a.94.94,0,0,0-.59.17.58.58,0,0,0-.22.48.64.64,0,0,0,.08.36.89.89,0,0,0,.28.26,5.23,5.23,0,0,0,.65.33,3.69,3.69,0,0,1,.73.38,1.42,1.42,0,0,1,.41.4,1,1,0,0,1,.14.55,1.46,1.46,0,0,1-.12.62,1,1,0,0,1-.36.41,1.47,1.47,0,0,1-.54.23,2.84,2.84,0,0,1-.68.07,4.77,4.77,0,0,1-.76-.06c-.24,0-.48-.09-.71-.15v-1h.45a1.27,1.27,0,0,0,.37.63,1.08,1.08,0,0,0,.68.19l.33,0a1,1,0,0,0,.28-.12.6.6,0,0,0,.2-.22.77.77,0,0,0,.08-.36.74.74,0,0,0-.09-.38,1.11,1.11,0,0,0-.29-.28,5.82,5.82,0,0,0-.69-.33,4.66,4.66,0,0,1-.68-.35,1.27,1.27,0,0,1-.4-.4,1,1,0,0,1-.14-.54,1.09,1.09,0,0,1,.2-.67,1.29,1.29,0,0,1,.6-.43,2.52,2.52,0,0,1,.91-.15,5.54,5.54,0,0,1,.59,0q.28,0,.72.12Z"/><path d="M40.14,167.91a.94.94,0,0,0,.38-.13.56.56,0,0,0,.22-.24,1.15,1.15,0,0,0,.13-.37c0-.15.07-.36.1-.65h.66v1.16h1.5v.47h-1.5v2.09a4.67,4.67,0,0,0,0,.72,1,1,0,0,0,.13.42.71.71,0,0,0,.24.22.75.75,0,0,0,.33.06.84.84,0,0,0,.35-.07,1.28,1.28,0,0,0,.32-.23l.21.26a2.7,2.7,0,0,1-.63.47,1.43,1.43,0,0,1-.61.14,1.08,1.08,0,0,1-.89-.36,1.79,1.79,0,0,1-.29-1.12v-2.6h-.69Z"/><path d="M45.7,172.23a1.87,1.87,0,0,1-1.47-.57,2.5,2.5,0,0,1-.51-1.7,2.89,2.89,0,0,1,.27-1.31,1.81,1.81,0,0,1,.73-.79,2.16,2.16,0,0,1,1.06-.26,1.88,1.88,0,0,1,1.5.58,2.48,2.48,0,0,1,.51,1.68,3.06,3.06,0,0,1-.26,1.31,1.81,1.81,0,0,1-.72.8A2.28,2.28,0,0,1,45.7,172.23Zm-1.1-2.37a3,3,0,0,0,.3,1.48,1,1,0,0,0,.87.52.9.9,0,0,0,.53-.15,1.2,1.2,0,0,0,.36-.41,2,2,0,0,0,.19-.6,4,4,0,0,0,.06-.71,3.66,3.66,0,0,0-.15-1.14,1.45,1.45,0,0,0-.41-.67.91.91,0,0,0-.59-.21.94.94,0,0,0-.86.49A2.72,2.72,0,0,0,44.6,169.86Z"/><path d="M50,168.46h.06a3.75,3.75,0,0,1,.47-.49,1.67,1.67,0,0,1,.48-.28,1.42,1.42,0,0,1,.57-.1,3.68,3.68,0,0,1,.49,0v1.07h-.53a1.06,1.06,0,0,0-.23-.36.5.5,0,0,0-.35-.12.6.6,0,0,0-.33.1,1.22,1.22,0,0,0-.32.29,1.2,1.2,0,0,0-.21.35,1.14,1.14,0,0,0-.06.39V171a2.41,2.41,0,0,0,0,.59.44.44,0,0,0,.17.24,1.07,1.07,0,0,0,.36.12v.23H48.78v-.23l.25-.1a.37.37,0,0,0,.13-.12.55.55,0,0,0,.09-.23,2.72,2.72,0,0,0,0-.48v-2c0-.2,0-.36,0-.49a.77.77,0,0,0-.07-.29A.33.33,0,0,0,49,168a1,1,0,0,0-.32-.09v-.25l1.09,0h.28Z"/><path d="M52.75,171.93a1.58,1.58,0,0,0,.26-.1.49.49,0,0,0,.13-.12.76.76,0,0,0,.08-.23,2.72,2.72,0,0,0,0-.48v-2c0-.2,0-.36,0-.49a.78.78,0,0,0-.06-.29A.37.37,0,0,0,53,168a1.1,1.1,0,0,0-.33-.09v-.25l1.09,0h.28V171a2.54,2.54,0,0,0,0,.57.36.36,0,0,0,.14.23.83.83,0,0,0,.34.15v.23H52.75Zm1.33-6.09v.91h-.86v-.91Z"/><path d="M58.12,171.49l-.07,0a2.85,2.85,0,0,1-.76.59,1.79,1.79,0,0,1-.75.17,1.21,1.21,0,0,1-.62-.14,1,1,0,0,1-.42-.39,1.17,1.17,0,0,1-.14-.57,1.16,1.16,0,0,1,.67-1.06,4.7,4.7,0,0,1,2-.43v-.31a2.66,2.66,0,0,0-.09-.77.75.75,0,0,0-.3-.41.93.93,0,0,0-.53-.13.85.85,0,0,0-.58.19,1.13,1.13,0,0,0-.33.58H55.6v-.61a5.45,5.45,0,0,1,.74-.34,3.42,3.42,0,0,1,.6-.18,2.91,2.91,0,0,1,.6-.06,1.57,1.57,0,0,1,.74.15.87.87,0,0,1,.41.45,2.19,2.19,0,0,1,.14.92v1.63c0,.23,0,.39,0,.49a1.09,1.09,0,0,0,0,.26.52.52,0,0,0,.06.2.87.87,0,0,0,.14.12,1.81,1.81,0,0,0,.3.11v.23H58.1ZM58,170a3.32,3.32,0,0,0-1.41.25.8.8,0,0,0-.47.74.72.72,0,0,0,.11.42.56.56,0,0,0,.27.21,1,1,0,0,0,.38.06,1.1,1.1,0,0,0,.57-.15,1.21,1.21,0,0,0,.41-.4.94.94,0,0,0,.14-.47Z"/><path d="M66.61,168.7h-.44a1.64,1.64,0,0,0-.24-.44.79.79,0,0,0-.32-.23,1.31,1.31,0,0,0-.43-.06,1,1,0,0,0-.59.17.58.58,0,0,0-.22.48.64.64,0,0,0,.09.36,1,1,0,0,0,.27.26,5.57,5.57,0,0,0,.66.33,4.37,4.37,0,0,1,.73.38,1.38,1.38,0,0,1,.4.4,1,1,0,0,1,.15.55,1.46,1.46,0,0,1-.13.62,1,1,0,0,1-.35.41,1.47,1.47,0,0,1-.54.23,3,3,0,0,1-.69.07,4.56,4.56,0,0,1-.75-.06c-.25,0-.48-.09-.72-.15v-1H64a1.14,1.14,0,0,0,.37.63,1.06,1.06,0,0,0,.68.19,1.66,1.66,0,0,0,.32,0,1.26,1.26,0,0,0,.29-.12.7.7,0,0,0,.2-.22.77.77,0,0,0,.07-.36.74.74,0,0,0-.09-.38,1,1,0,0,0-.29-.28,5.82,5.82,0,0,0-.69-.33,4.49,4.49,0,0,1-.67-.35,1.18,1.18,0,0,1-.4-.4,1,1,0,0,1-.15-.54,1.09,1.09,0,0,1,.21-.67,1.21,1.21,0,0,1,.59-.43,2.57,2.57,0,0,1,.92-.15,5.68,5.68,0,0,1,.59,0,7,7,0,0,1,.71.12Z"/><path d="M71.34,171.36a4.43,4.43,0,0,1-.54.49,2.19,2.19,0,0,1-.55.28,1.89,1.89,0,0,1-.65.1,1.75,1.75,0,0,1-1.44-.58,2.54,2.54,0,0,1-.49-1.7,2.86,2.86,0,0,1,.25-1.24,1.88,1.88,0,0,1,.7-.82,2,2,0,0,1,1.06-.29,1.94,1.94,0,0,1,.8.15,1.37,1.37,0,0,1,.53.41,1.86,1.86,0,0,1,.3.65,4.07,4.07,0,0,1,.13,1H68.51v.08a2.78,2.78,0,0,0,.13.93,1.14,1.14,0,0,0,.4.59,1.19,1.19,0,0,0,.73.21,1.51,1.51,0,0,0,.68-.14,1.92,1.92,0,0,0,.61-.46Zm-.78-1.9a3.49,3.49,0,0,0-.12-.83,1.07,1.07,0,0,0-.29-.49.77.77,0,0,0-.51-.17.93.93,0,0,0-.77.38,2.09,2.09,0,0,0-.33,1.11Z"/><path d="M79.16,167.79v1h-.59a1.51,1.51,0,0,0-.2-.49.62.62,0,0,0-.27-.24.83.83,0,0,0-.38-.07.87.87,0,0,0-.57.21,1.38,1.38,0,0,0-.4.64,3.28,3.28,0,0,0-.14,1.06,4.07,4.07,0,0,0,0,.72,1.82,1.82,0,0,0,.19.57,1,1,0,0,0,.36.36,1,1,0,0,0,.55.13,1.53,1.53,0,0,0,.6-.12,2,2,0,0,0,.57-.45l.26.31a3.14,3.14,0,0,1-.41.41,2.55,2.55,0,0,1-.39.24,2.21,2.21,0,0,1-.41.14,2,2,0,0,1-.44,0,1.59,1.59,0,0,1-1.34-.59,2.66,2.66,0,0,1-.46-1.69,2.79,2.79,0,0,1,.26-1.23,1.85,1.85,0,0,1,.73-.83,2,2,0,0,1,1.08-.29,5.08,5.08,0,0,1,.7,0A3.81,3.81,0,0,1,79.16,167.79Z"/><path d="M83.64,171.36a3.79,3.79,0,0,1-.54.49,2.19,2.19,0,0,1-.55.28,1.89,1.89,0,0,1-.65.1,1.75,1.75,0,0,1-1.44-.58A2.54,2.54,0,0,1,80,170a2.86,2.86,0,0,1,.25-1.24,1.84,1.84,0,0,1,.71-.82,1.92,1.92,0,0,1,1-.29,1.9,1.9,0,0,1,.8.15,1.37,1.37,0,0,1,.53.41,1.86,1.86,0,0,1,.3.65,4.07,4.07,0,0,1,.13,1H80.81v.08a3.06,3.06,0,0,0,.13.93,1.14,1.14,0,0,0,.4.59,1.19,1.19,0,0,0,.73.21,1.55,1.55,0,0,0,.69-.14,2,2,0,0,0,.6-.46Zm-.78-1.9a3.49,3.49,0,0,0-.12-.83,1.07,1.07,0,0,0-.29-.49.77.77,0,0,0-.51-.17.93.93,0,0,0-.77.38,2.09,2.09,0,0,0-.33,1.11Z"/><path d="M89.14,172.16H87.31v-.23a1.58,1.58,0,0,0,.26-.1.37.37,0,0,0,.13-.12.44.44,0,0,0,.08-.23,2,2,0,0,0,0-.48v-1.22c0-.22,0-.42,0-.6a3.4,3.4,0,0,0-.07-.44.94.94,0,0,0-.1-.26.61.61,0,0,0-.15-.17,1,1,0,0,0-.2-.11,1.12,1.12,0,0,0-.29,0,.77.77,0,0,0-.34.07,1.39,1.39,0,0,0-.36.25,1.08,1.08,0,0,0-.28.35.87.87,0,0,0-.09.4V171a2.54,2.54,0,0,0,0,.57.36.36,0,0,0,.14.23.83.83,0,0,0,.34.15v.23H84.62v-.23a1.58,1.58,0,0,0,.26-.1.49.49,0,0,0,.13-.12.76.76,0,0,0,.08-.23,2.72,2.72,0,0,0,0-.48v-2c0-.2,0-.36,0-.49a1.05,1.05,0,0,0-.06-.29.37.37,0,0,0-.17-.16,1.1,1.1,0,0,0-.33-.09v-.25l1.09,0h.28l0,.76.07,0a4.17,4.17,0,0,1,.55-.5,1.63,1.63,0,0,1,.43-.23,1.13,1.13,0,0,1,.45-.09,1.53,1.53,0,0,1,.45.06,1,1,0,0,1,.6.48,1.75,1.75,0,0,1,.14.44,2.91,2.91,0,0,1,0,.64V171a4.55,4.55,0,0,0,0,.47.57.57,0,0,0,.07.23.33.33,0,0,0,.13.13,1.1,1.1,0,0,0,.31.12Z"/><path d="M89.69,167.91a1,1,0,0,0,.38-.13.64.64,0,0,0,.22-.24,1.44,1.44,0,0,0,.13-.37c0-.15.06-.36.1-.65h.65v1.16h1.5v.47h-1.5v2.09a6.42,6.42,0,0,0,0,.72,1,1,0,0,0,.14.42.79.79,0,0,0,.23.22.83.83,0,0,0,.34.06.77.77,0,0,0,.34-.07,1.12,1.12,0,0,0,.32-.23l.21.26a2.67,2.67,0,0,1-.62.47,1.47,1.47,0,0,1-.61.14,1.07,1.07,0,0,1-.89-.36,1.73,1.73,0,0,1-.29-1.12v-2.6h-.69Z"/><path d="M94.48,168.46h.07A3.75,3.75,0,0,1,95,168a1.63,1.63,0,0,1,.47-.28,1.48,1.48,0,0,1,.57-.1,3.58,3.58,0,0,1,.49,0v1.07H96a1.24,1.24,0,0,0-.24-.36.47.47,0,0,0-.34-.12.6.6,0,0,0-.33.1,1.22,1.22,0,0,0-.32.29,1.2,1.2,0,0,0-.21.35,1.14,1.14,0,0,0-.06.39V171a2.41,2.41,0,0,0,0,.59.4.4,0,0,0,.17.24,1.09,1.09,0,0,0,.35.12v.23H93.24v-.23l.25-.1a.49.49,0,0,0,.13-.12.56.56,0,0,0,.08-.23,2.72,2.72,0,0,0,0-.48v-2c0-.2,0-.36,0-.49a.78.78,0,0,0-.06-.29.37.37,0,0,0-.17-.16,1,1,0,0,0-.32-.09v-.25l1.08,0h.28Z"/><path d="M99.89,171.49l-.07,0a2.85,2.85,0,0,1-.76.59,1.79,1.79,0,0,1-.75.17,1.27,1.27,0,0,1-.63-.14,1,1,0,0,1-.41-.39,1.17,1.17,0,0,1-.14-.57,1.16,1.16,0,0,1,.67-1.06,4.7,4.7,0,0,1,2-.43v-.31a2.66,2.66,0,0,0-.09-.77.8.8,0,0,0-.3-.41.93.93,0,0,0-.53-.13.85.85,0,0,0-.58.19,1.13,1.13,0,0,0-.33.58h-.61v-.61a5.45,5.45,0,0,1,.74-.34,3.42,3.42,0,0,1,.6-.18,2.91,2.91,0,0,1,.6-.06,1.6,1.6,0,0,1,.74.15.87.87,0,0,1,.41.45,2.19,2.19,0,0,1,.14.92v1.63c0,.23,0,.39,0,.49a1.09,1.09,0,0,0,0,.26.52.52,0,0,0,.06.2.87.87,0,0,0,.14.12,1.81,1.81,0,0,0,.3.11v.23H99.86ZM99.81,170a3.32,3.32,0,0,0-1.41.25.8.8,0,0,0-.47.74.72.72,0,0,0,.11.42.56.56,0,0,0,.27.21,1,1,0,0,0,.38.06,1.1,1.1,0,0,0,.57-.15,1.21,1.21,0,0,0,.41-.4.94.94,0,0,0,.14-.47Z"/><path d="M109,171.36a3.79,3.79,0,0,1-.54.49,2.19,2.19,0,0,1-.55.28,1.93,1.93,0,0,1-.65.1,1.75,1.75,0,0,1-1.44-.58,2.54,2.54,0,0,1-.49-1.7,2.86,2.86,0,0,1,.25-1.24,1.84,1.84,0,0,1,.71-.82,1.92,1.92,0,0,1,1-.29,1.9,1.9,0,0,1,.8.15,1.37,1.37,0,0,1,.53.41,1.86,1.86,0,0,1,.3.65,4.07,4.07,0,0,1,.13,1h-2.93v.08a2.78,2.78,0,0,0,.13.93,1.14,1.14,0,0,0,.4.59,1.19,1.19,0,0,0,.73.21,1.58,1.58,0,0,0,.69-.14,2,2,0,0,0,.6-.46Zm-.78-1.9a4.1,4.1,0,0,0-.12-.83,1.07,1.07,0,0,0-.29-.49.77.77,0,0,0-.51-.17.93.93,0,0,0-.77.38,2.09,2.09,0,0,0-.33,1.11Z"/><path d="M114.48,172.16h-1.83v-.23a1.58,1.58,0,0,0,.26-.1.49.49,0,0,0,.13-.12.56.56,0,0,0,.08-.23,2.72,2.72,0,0,0,0-.48v-1.22c0-.22,0-.42,0-.6a3.4,3.4,0,0,0-.07-.44.94.94,0,0,0-.1-.26,1.29,1.29,0,0,0-.15-.17l-.2-.11a1.12,1.12,0,0,0-.29,0,.84.84,0,0,0-.35.07,1.55,1.55,0,0,0-.35.25,1.08,1.08,0,0,0-.28.35.87.87,0,0,0-.09.4V171a3.67,3.67,0,0,0,0,.57.48.48,0,0,0,.14.23,1,1,0,0,0,.35.15v.23H110v-.23l.26-.1a.49.49,0,0,0,.13-.12.76.76,0,0,0,.08-.23,2.72,2.72,0,0,0,0-.48v-2c0-.2,0-.36,0-.49a1.05,1.05,0,0,0-.06-.29.37.37,0,0,0-.17-.16,1.1,1.1,0,0,0-.33-.09v-.25l1.09,0h.28l-.05.76.07,0a3.62,3.62,0,0,1,.55-.5,1.63,1.63,0,0,1,.43-.23,1.13,1.13,0,0,1,.45-.09,1.53,1.53,0,0,1,.45.06,1,1,0,0,1,.6.48,1.75,1.75,0,0,1,.14.44,2.91,2.91,0,0,1,0,.64V171a4.55,4.55,0,0,0,0,.47.45.45,0,0,0,.07.23.33.33,0,0,0,.13.13,1.1,1.1,0,0,0,.31.12Z"/><path d="M122.4,171.36a3.81,3.81,0,0,1-.55.49,2,2,0,0,1-1.2.38,1.76,1.76,0,0,1-1.44-.58,2.59,2.59,0,0,1-.49-1.7,3,3,0,0,1,.25-1.24,1.9,1.9,0,0,1,.71-.82,2,2,0,0,1,1.06-.29,1.89,1.89,0,0,1,.79.15,1.37,1.37,0,0,1,.53.41,2.07,2.07,0,0,1,.31.65,4.65,4.65,0,0,1,.12,1h-2.92v.08a3.09,3.09,0,0,0,.12.93,1.08,1.08,0,0,0,1.13.8,1.52,1.52,0,0,0,.69-.14,2,2,0,0,0,.6-.46Zm-.78-1.9a3.44,3.44,0,0,0-.13-.83,1,1,0,0,0-.29-.49.77.77,0,0,0-.51-.17.91.91,0,0,0-.76.38,2.08,2.08,0,0,0-.34,1.11Z"/><path d="M124.61,171a2.54,2.54,0,0,0,0,.57.36.36,0,0,0,.14.23.83.83,0,0,0,.34.15v.23h-1.84v-.23a1.14,1.14,0,0,0,.32-.13.4.4,0,0,0,.13-.16.7.7,0,0,0,.06-.24c0-.11,0-.25,0-.42v-4.54a2.36,2.36,0,0,0,0-.31.48.48,0,0,0-.09-.19.31.31,0,0,0-.14-.11,1.42,1.42,0,0,0-.33-.09v-.24l1.12-.05h.28Z"/><path d="M131.77,168.15h-1.11V171a2.8,2.8,0,0,0,0,.48.6.6,0,0,0,.09.24.38.38,0,0,0,.15.13,1.28,1.28,0,0,0,.3.1v.23h-1.89v-.23l.29-.11a.58.58,0,0,0,.14-.13.9.9,0,0,0,.07-.23c0-.1,0-.26,0-.48v-2.83h-.56v-.24a.77.77,0,0,0,.35-.1.47.47,0,0,0,.15-.21,1.32,1.32,0,0,0,0-.39,2.25,2.25,0,0,1,.27-1,1.47,1.47,0,0,1,.61-.6,2,2,0,0,1,.9-.2,2.74,2.74,0,0,1,.5,0v.86h-.38a.93.93,0,0,0-.15-.37.36.36,0,0,0-.29-.12.55.55,0,0,0-.29.08.65.65,0,0,0-.21.25,1.28,1.28,0,0,0-.12.45,5.92,5.92,0,0,0,0,.65v.41h1.11Z"/><path d="M132.31,171.93l.25-.1a.37.37,0,0,0,.13-.12.55.55,0,0,0,.09-.23,2.72,2.72,0,0,0,0-.48v-2c0-.2,0-.36,0-.49a.77.77,0,0,0-.07-.29.3.3,0,0,0-.17-.16,1,1,0,0,0-.32-.09v-.25l1.08,0h.28V171a3.35,3.35,0,0,0,0,.57.41.41,0,0,0,.14.23.9.9,0,0,0,.34.15v.23h-1.81Zm1.32-6.09v.91h-.85v-.91Z"/><path d="M139.51,172.16h-1.83v-.23a1.58,1.58,0,0,0,.26-.1.41.41,0,0,0,.14-.12.76.76,0,0,0,.08-.23,2.72,2.72,0,0,0,0-.48v-1.22c0-.22,0-.42,0-.6a2.34,2.34,0,0,0-.06-.44.92.92,0,0,0-.11-.26.61.61,0,0,0-.15-.17.86.86,0,0,0-.19-.11,1.26,1.26,0,0,0-.3,0,.8.8,0,0,0-.34.07,1.39,1.39,0,0,0-.36.25,1.23,1.23,0,0,0-.28.35.87.87,0,0,0-.09.4V171a2.54,2.54,0,0,0,0,.57.36.36,0,0,0,.14.23.83.83,0,0,0,.34.15v.23H135v-.23a1.58,1.58,0,0,0,.26-.1.37.37,0,0,0,.13-.12.56.56,0,0,0,.08-.23,2.72,2.72,0,0,0,0-.48v-2c0-.2,0-.36,0-.49a.62.62,0,0,0-.06-.29.33.33,0,0,0-.17-.16,1,1,0,0,0-.32-.09v-.25l1.08,0h.29l-.05.76.06,0a4.17,4.17,0,0,1,.55-.5,2,2,0,0,1,.43-.23,1.18,1.18,0,0,1,.46-.09,1.58,1.58,0,0,1,.45.06,1,1,0,0,1,.34.18.91.91,0,0,1,.25.3,1.43,1.43,0,0,1,.15.44,3.69,3.69,0,0,1,.05.64V171a2.77,2.77,0,0,0,0,.47.58.58,0,0,0,.06.23.35.35,0,0,0,.14.13,1,1,0,0,0,.3.12Z"/><path d="M18.23,178.58V178a2,2,0,0,0,0-.3.64.64,0,0,0-.08-.2.58.58,0,0,0-.15-.11,1.11,1.11,0,0,0-.33-.08V177l1.13,0H19v5.42c0,.24,0,.42,0,.52a.7.7,0,0,0,.06.25.39.39,0,0,0,.15.16,2.11,2.11,0,0,0,.35.11v.24l-1.09.05h-.28l.05-.77-.07,0a3.38,3.38,0,0,1-.5.47,2.3,2.3,0,0,1-.46.25,1.5,1.5,0,0,1-.52.09,1.36,1.36,0,0,1-1.18-.58,3.49,3.49,0,0,1-.14-3,1.94,1.94,0,0,1,.72-.8,2.1,2.1,0,0,1,1-.26,3.15,3.15,0,0,1,.56,0,2.5,2.5,0,0,1,.51.16Zm0,2.31a4.4,4.4,0,0,0,0-.58,1.16,1.16,0,0,0-.11-.37.86.86,0,0,0-.2-.26.89.89,0,0,0-.29-.15,1.35,1.35,0,0,0-.37,0,1,1,0,0,0-.91.48,2.52,2.52,0,0,0-.31,1.38,2.87,2.87,0,0,0,.26,1.36.81.81,0,0,0,.77.47,1.58,1.58,0,0,0,.34,0,.88.88,0,0,0,.26-.12,1.24,1.24,0,0,0,.27-.21,1.36,1.36,0,0,0,.2-.25.92.92,0,0,0,.09-.25,2,2,0,0,0,0-.38Z"/><path d="M24.13,182.87a3.29,3.29,0,0,1-.55.49,2,2,0,0,1-1.2.38,1.78,1.78,0,0,1-1.44-.57,2.58,2.58,0,0,1-.49-1.71,2.79,2.79,0,0,1,.25-1.23,1.86,1.86,0,0,1,.71-.83,2,2,0,0,1,1.05-.29,1.9,1.9,0,0,1,.8.15,1.37,1.37,0,0,1,.53.41,2,2,0,0,1,.31.66,4.55,4.55,0,0,1,.12,1H21.3v.08a3.09,3.09,0,0,0,.12.93,1.15,1.15,0,0,0,.4.59,1.13,1.13,0,0,0,.73.22,1.55,1.55,0,0,0,.69-.15,2,2,0,0,0,.6-.46Zm-.78-1.9a3.44,3.44,0,0,0-.13-.83,1,1,0,0,0-.29-.49.77.77,0,0,0-.51-.17.92.92,0,0,0-.77.39,2.14,2.14,0,0,0-.33,1.1Z"/><path d="M28.78,179.19h1.33v2.39a5.9,5.9,0,0,0,0,.83,1.51,1.51,0,0,0,.12.43.69.69,0,0,0,.24.24.73.73,0,0,0,.42.1.8.8,0,0,0,.34-.07,1.6,1.6,0,0,0,.36-.24,1.25,1.25,0,0,0,.29-.35,1,1,0,0,0,.08-.41v-1.75c0-.18,0-.31,0-.41a.81.81,0,0,0,0-.21.91.91,0,0,0-.07-.14l-.13-.09a1.07,1.07,0,0,0-.26-.09v-.23H32.8v3.2c0,.24,0,.41,0,.52a.7.7,0,0,0,.06.25.39.39,0,0,0,.15.16,1.83,1.83,0,0,0,.35.11v.24l-1.07.05H32l0-.77-.07,0a3,3,0,0,1-.74.62,1.39,1.39,0,0,1-.7.19,1.31,1.31,0,0,1-.69-.16,1,1,0,0,1-.41-.51,2.58,2.58,0,0,1-.14-.94v-1.77a3.14,3.14,0,0,0,0-.54.53.53,0,0,0-.11-.24.86.86,0,0,0-.38-.16Z"/><path d="M38.71,183.67H36.88v-.23a1.58,1.58,0,0,0,.26-.1.49.49,0,0,0,.13-.12.51.51,0,0,0,.08-.23,2.67,2.67,0,0,0,0-.47v-1.23c0-.22,0-.42,0-.6a3.21,3.21,0,0,0-.07-.43.9.9,0,0,0-.1-.27,1.17,1.17,0,0,0-.15-.16.49.49,0,0,0-.2-.11.78.78,0,0,0-.29,0,.77.77,0,0,0-.34.07,1.39,1.39,0,0,0-.36.25,1.19,1.19,0,0,0-.28.35.87.87,0,0,0-.09.4v1.75a3.51,3.51,0,0,0,0,.56.49.49,0,0,0,.15.24,1,1,0,0,0,.34.14v.23H34.19v-.23l.26-.1a.49.49,0,0,0,.13-.12.67.67,0,0,0,.08-.23,2.72,2.72,0,0,0,0-.48v-2c0-.2,0-.36,0-.48a1.13,1.13,0,0,0-.06-.3.44.44,0,0,0-.17-.16,1.1,1.1,0,0,0-.33-.09v-.25l1.09,0h.28l-.05.76.07,0a4.26,4.26,0,0,1,.55-.5,1.63,1.63,0,0,1,.43-.23,1.12,1.12,0,0,1,.45-.08,2,2,0,0,1,.45,0,1.06,1.06,0,0,1,.35.18,1.26,1.26,0,0,1,.25.31,1.55,1.55,0,0,1,.14.43,2.91,2.91,0,0,1,0,.64v1.77c0,.21,0,.37,0,.47a.44.44,0,0,0,.07.22.43.43,0,0,0,.13.14,1.68,1.68,0,0,0,.31.11Z"/><path d="M46.79,179.3v1H46.2a1.36,1.36,0,0,0-.2-.48.59.59,0,0,0-.27-.25.83.83,0,0,0-.38-.07.87.87,0,0,0-.57.21,1.44,1.44,0,0,0-.4.64,3.58,3.58,0,0,0-.14,1.06,5.46,5.46,0,0,0,0,.73,1.76,1.76,0,0,0,.19.56,1,1,0,0,0,.36.37,1.15,1.15,0,0,0,.55.13,1.54,1.54,0,0,0,.6-.13,1.9,1.9,0,0,0,.57-.44l.26.3a2.62,2.62,0,0,1-.41.41,1.58,1.58,0,0,1-.39.24,2.21,2.21,0,0,1-.41.14,2,2,0,0,1-.44,0,1.61,1.61,0,0,1-1.34-.58,2.71,2.71,0,0,1-.46-1.7,2.85,2.85,0,0,1,.26-1.23,1.91,1.91,0,0,1,.73-.83,2,2,0,0,1,1.08-.29,5,5,0,0,1,.7,0A3.78,3.78,0,0,1,46.79,179.3Z"/><path d="M47.57,183.44l.26-.1a.49.49,0,0,0,.13-.12A.67.67,0,0,0,48,183a2.72,2.72,0,0,0,0-.48v-2c0-.2,0-.36,0-.48a1.13,1.13,0,0,0-.06-.3.44.44,0,0,0-.17-.16,1.1,1.1,0,0,0-.33-.09v-.25l1.08,0h.29v3.35a3.51,3.51,0,0,0,0,.56.49.49,0,0,0,.15.24,1,1,0,0,0,.34.14v.23H47.57Zm1.32-6.09v.91H48v-.91Z"/><path d="M53.71,179.3v1h-.59a1.59,1.59,0,0,0-.19-.48.7.7,0,0,0-.27-.25.86.86,0,0,0-.38-.07.88.88,0,0,0-.58.21,1.43,1.43,0,0,0-.39.64,3.26,3.26,0,0,0-.15,1.06,4.15,4.15,0,0,0,.06.73,1.54,1.54,0,0,0,.19.56,1,1,0,0,0,.35.37,1.18,1.18,0,0,0,.55.13,1.47,1.47,0,0,0,.6-.13,1.69,1.69,0,0,0,.57-.44l.27.3a3.11,3.11,0,0,1-.42.41,1.58,1.58,0,0,1-.39.24,1.76,1.76,0,0,1-.84.18,1.6,1.6,0,0,1-1.34-.58,2.71,2.71,0,0,1-.47-1.7,2.85,2.85,0,0,1,.26-1.23,1.92,1.92,0,0,1,1.81-1.12,5,5,0,0,1,.7,0A3.78,3.78,0,0,1,53.71,179.3Z"/><path d="M55.73,182.5a2.44,2.44,0,0,0,0,.56.42.42,0,0,0,.14.24,1,1,0,0,0,.34.14v.23H54.41v-.23a.9.9,0,0,0,.32-.13.37.37,0,0,0,.13-.15,1.15,1.15,0,0,0,.06-.25c0-.11,0-.24,0-.41V178a2,2,0,0,0,0-.3.46.46,0,0,0-.09-.2.4.4,0,0,0-.14-.11,1.11,1.11,0,0,0-.33-.08V177l1.12,0h.28Z"/><path d="M59.14,183.74a1.88,1.88,0,0,1-1.48-.57,2.49,2.49,0,0,1-.51-1.7,2.84,2.84,0,0,1,.27-1.3,1.84,1.84,0,0,1,.73-.8,2.16,2.16,0,0,1,1.06-.26,1.91,1.91,0,0,1,1.5.58,2.48,2.48,0,0,1,.51,1.68,3,3,0,0,1-.25,1.31,1.73,1.73,0,0,1-.73.8A2.16,2.16,0,0,1,59.14,183.74ZM58,181.37a2.9,2.9,0,0,0,.31,1.49,1,1,0,0,0,.86.51.9.9,0,0,0,.53-.15,1.1,1.1,0,0,0,.36-.41,2,2,0,0,0,.2-.6,4,4,0,0,0,.06-.7,3.77,3.77,0,0,0-.15-1.15,1.43,1.43,0,0,0-.42-.67.91.91,0,0,0-.59-.21,1,1,0,0,0-.86.49A2.72,2.72,0,0,0,58,181.37Z"/><path d="M63.19,182.58a3.69,3.69,0,0,1,.07.65,1.46,1.46,0,0,1-.12.6,1.84,1.84,0,0,1-.35.54,4.65,4.65,0,0,1-.67.59l-.25-.28a1.87,1.87,0,0,0,.34-.41,1.34,1.34,0,0,0,.15-.41,2.35,2.35,0,0,0,0-.58c0-.23,0-.47,0-.7Z"/><path d="M71.13,178.58c0-.3,0-.51,0-.63a1.21,1.21,0,0,0,0-.3.46.46,0,0,0-.08-.2.4.4,0,0,0-.14-.11,1.11,1.11,0,0,0-.33-.08V177l1.12,0h.28v5.42c0,.24,0,.42,0,.52a.7.7,0,0,0,.06.25.33.33,0,0,0,.15.16,1.83,1.83,0,0,0,.35.11v.24l-1.1.05h-.28l.06-.77-.07,0a3,3,0,0,1-.51.47,1.86,1.86,0,0,1-.46.25,1.46,1.46,0,0,1-.52.09,1.33,1.33,0,0,1-1.17-.58,2.85,2.85,0,0,1-.42-1.68,2.91,2.91,0,0,1,.27-1.31,2,2,0,0,1,.73-.8,2.07,2.07,0,0,1,1-.26,3,3,0,0,1,.55,0,2.8,2.8,0,0,1,.52.16Zm0,2.31a4.4,4.4,0,0,0,0-.58,1.48,1.48,0,0,0-.11-.37.75.75,0,0,0-.21-.26.85.85,0,0,0-.28-.15,1.43,1.43,0,0,0-.38,0,1,1,0,0,0-.9.48,2.52,2.52,0,0,0-.31,1.38,2.89,2.89,0,0,0,.25,1.36.82.82,0,0,0,.78.47,1.55,1.55,0,0,0,.33,0,1.07,1.07,0,0,0,.27-.12,1.2,1.2,0,0,0,.26-.21,1,1,0,0,0,.2-.25,1.45,1.45,0,0,0,.1-.25,2,2,0,0,0,0-.38Z"/><path d="M77,182.87a3.73,3.73,0,0,1-.54.49,1.91,1.91,0,0,1-.55.28,1.93,1.93,0,0,1-.65.1,1.81,1.81,0,0,1-1.45-.57,2.64,2.64,0,0,1-.48-1.71,2.79,2.79,0,0,1,.25-1.23,1.91,1.91,0,0,1,.7-.83,2,2,0,0,1,1.06-.29,1.94,1.94,0,0,1,.8.15,1.34,1.34,0,0,1,.52.41,1.69,1.69,0,0,1,.31.66,4.55,4.55,0,0,1,.12,1H74.19v.08a3.09,3.09,0,0,0,.12.93,1.17,1.17,0,0,0,.41.59,1.12,1.12,0,0,0,.73.22,1.51,1.51,0,0,0,.68-.15,2,2,0,0,0,.61-.46Zm-.78-1.9a4.1,4.1,0,0,0-.12-.83,1.14,1.14,0,0,0-.3-.49.77.77,0,0,0-.51-.17.9.9,0,0,0-.76.39,2.14,2.14,0,0,0-.34,1.1Z"/><path d="M81.68,179.19H83v2.39a8,8,0,0,0,0,.83,1.22,1.22,0,0,0,.13.43.59.59,0,0,0,.23.24.78.78,0,0,0,.43.1.83.83,0,0,0,.34-.07,2.23,2.23,0,0,0,.36-.24,1.19,1.19,0,0,0,.28-.35.88.88,0,0,0,.09-.41v-1.75a4,4,0,0,0,0-.41.56.56,0,0,0,0-.21.47.47,0,0,0-.08-.14l-.12-.09-.27-.09v-.23H85.7v3.2c0,.24,0,.41,0,.52a.7.7,0,0,0,.06.25.36.36,0,0,0,.14.16,2.49,2.49,0,0,0,.35.11v.24l-1.06.05h-.28l0-.77-.06,0a3.24,3.24,0,0,1-.74.62,1.42,1.42,0,0,1-.7.19,1.34,1.34,0,0,1-.7-.16,1.05,1.05,0,0,1-.41-.51,2.61,2.61,0,0,1-.13-.94v-1.77a3.14,3.14,0,0,0,0-.54.46.46,0,0,0-.12-.24.81.81,0,0,0-.37-.16Z"/><path d="M91.6,183.67H89.77v-.23a1.58,1.58,0,0,0,.26-.1.41.41,0,0,0,.14-.12.67.67,0,0,0,.08-.23,2.67,2.67,0,0,0,0-.47v-1.23c0-.22,0-.42,0-.6a2.22,2.22,0,0,0-.06-.43.88.88,0,0,0-.11-.27.57.57,0,0,0-.15-.16.45.45,0,0,0-.19-.11.87.87,0,0,0-.3,0,.8.8,0,0,0-.34.07,1.54,1.54,0,0,0-.64.6.87.87,0,0,0-.09.4v1.75a2.44,2.44,0,0,0,0,.56.42.42,0,0,0,.14.24,1,1,0,0,0,.34.14v.23H87.08v-.23a1.58,1.58,0,0,0,.26-.1.37.37,0,0,0,.13-.12.64.64,0,0,0,.09-.23,4.27,4.27,0,0,0,0-.48v-2c0-.2,0-.36,0-.48a.83.83,0,0,0-.07-.3.38.38,0,0,0-.17-.16,1,1,0,0,0-.32-.09v-.25l1.08,0h.29l0,.76.06,0a4.22,4.22,0,0,1,.56-.5,1.75,1.75,0,0,1,.42-.23,1.21,1.21,0,0,1,.46-.08,2,2,0,0,1,.45,0,1.16,1.16,0,0,1,.35.18,1.23,1.23,0,0,1,.24.31,1.28,1.28,0,0,1,.15.43,3.69,3.69,0,0,1,0,.64v1.77a2.91,2.91,0,0,0,0,.47.58.58,0,0,0,.06.22.47.47,0,0,0,.14.14,1.51,1.51,0,0,0,.3.11Z"/><path d="M99.93,182.87a3.27,3.27,0,0,1-.54.49,2,2,0,0,1-1.2.38,1.78,1.78,0,0,1-1.44-.57,2.58,2.58,0,0,1-.49-1.71,2.79,2.79,0,0,1,.25-1.23,1.86,1.86,0,0,1,.71-.83,1.92,1.92,0,0,1,1-.29,1.9,1.9,0,0,1,.8.15,1.37,1.37,0,0,1,.53.41,1.83,1.83,0,0,1,.3.66,4,4,0,0,1,.13,1H97.1v.08a3.06,3.06,0,0,0,.13.93,1.1,1.1,0,0,0,.4.59,1.13,1.13,0,0,0,.73.22,1.55,1.55,0,0,0,.69-.15,2,2,0,0,0,.6-.46Zm-.78-1.9a3.49,3.49,0,0,0-.12-.83,1.12,1.12,0,0,0-.29-.49.77.77,0,0,0-.51-.17.91.91,0,0,0-.77.39,2,2,0,0,0-.33,1.1Z"/><path d="M105.36,185.68h-1.89v-.23a1.21,1.21,0,0,0,.32-.1.5.5,0,0,0,.15-.14A.67.67,0,0,0,104,185a4.4,4.4,0,0,0,0-.45V182.9a4.94,4.94,0,0,1-.47.46,2.24,2.24,0,0,1-.48.28,1.5,1.5,0,0,1-.56.1,1.38,1.38,0,0,1-1.18-.57,2.93,2.93,0,0,1-.41-1.68,2.89,2.89,0,0,1,.27-1.31,1.75,1.75,0,0,1,.74-.8,2.23,2.23,0,0,1,1.11-.27,2.17,2.17,0,0,1,.59.07,2,2,0,0,1,.54.22l.33-.29.31.08v5.33c0,.18,0,.33,0,.44a.73.73,0,0,0,.08.25.39.39,0,0,0,.16.15l.27.09Zm-1.32-4.8a3,3,0,0,0-.06-.68,1,1,0,0,0-.19-.4.75.75,0,0,0-.32-.24,1.09,1.09,0,0,0-.42-.07,1,1,0,0,0-.92.48,2.56,2.56,0,0,0-.32,1.38,2.87,2.87,0,0,0,.26,1.36.82.82,0,0,0,.77.47,1.72,1.72,0,0,0,.34,0,.88.88,0,0,0,.26-.12,1.24,1.24,0,0,0,.27-.21,1.28,1.28,0,0,0,.2-.25.92.92,0,0,0,.09-.25,1.92,1.92,0,0,0,0-.38Z"/><path d="M106,179.19h1.32v2.39a8,8,0,0,0,0,.83,1.22,1.22,0,0,0,.13.43.62.62,0,0,0,.24.24.73.73,0,0,0,.42.1.8.8,0,0,0,.34-.07,1.6,1.6,0,0,0,.36-.24,1.19,1.19,0,0,0,.28-.35.88.88,0,0,0,.09-.41v-1.75c0-.18,0-.31,0-.41a.81.81,0,0,0,0-.21.47.47,0,0,0-.08-.14l-.12-.09a1.26,1.26,0,0,0-.26-.09v-.23h1.32v3.2c0,.24,0,.41,0,.52a.7.7,0,0,0,.06.25.33.33,0,0,0,.15.16,1.92,1.92,0,0,0,.34.11v.24l-1.06.05h-.28l0-.77-.07,0a3.24,3.24,0,0,1-.74.62,1.42,1.42,0,0,1-.7.19,1.37,1.37,0,0,1-.7-.16,1.05,1.05,0,0,1-.41-.51,2.61,2.61,0,0,1-.13-.94v-1.77a3.14,3.14,0,0,0,0-.54.46.46,0,0,0-.12-.24.81.81,0,0,0-.37-.16Z"/><path d="M111.45,183.44l.25-.1a.37.37,0,0,0,.13-.12.5.5,0,0,0,.09-.23,2.72,2.72,0,0,0,0-.48v-2c0-.2,0-.36,0-.48a.83.83,0,0,0-.07-.3.33.33,0,0,0-.17-.16,1,1,0,0,0-.32-.09v-.25l1.08,0h.28v3.35a3.21,3.21,0,0,0,0,.56.48.48,0,0,0,.14.24,1.12,1.12,0,0,0,.34.14v.23h-1.81Zm1.32-6.09v.91h-.85v-.91Z"/><path d="M115.39,183.53v1c0,.2,0,.35,0,.45a.68.68,0,0,0,.07.24.44.44,0,0,0,.16.14,1,1,0,0,0,.32.1v.23h-1.89v-.23l.27-.09a.33.33,0,0,0,.16-.15.58.58,0,0,0,.07-.26,2.62,2.62,0,0,0,0-.43v-4c0-.23,0-.39,0-.48a1.29,1.29,0,0,0,0-.24.38.38,0,0,0-.09-.15.4.4,0,0,0-.14-.11l-.3-.08v-.25l1.09,0h.28l-.06.76.07,0c.2-.2.35-.34.46-.43a1.79,1.79,0,0,1,.34-.22,1.35,1.35,0,0,1,.7-.16,1.35,1.35,0,0,1,1.17.57,2.88,2.88,0,0,1,.41,1.7,3.15,3.15,0,0,1-.23,1.3,1.69,1.69,0,0,1-.67.79,2,2,0,0,1-1.06.26,3.89,3.89,0,0,1-.62-.05A3.07,3.07,0,0,1,115.39,183.53Zm0-1.55a3.18,3.18,0,0,0,.06.7.8.8,0,0,0,.19.39,1,1,0,0,0,.34.23,1.36,1.36,0,0,0,.5.07.92.92,0,0,0,.85-.47,2.7,2.7,0,0,0,.28-1.39c0-1.22-.35-1.83-1.06-1.83a1.25,1.25,0,0,0-.45.08,1.39,1.39,0,0,0-.37.26,1.12,1.12,0,0,0-.26.36.91.91,0,0,0-.08.37Z"/><path d="M121.48,183.74a1.87,1.87,0,0,1-1.47-.57,2.49,2.49,0,0,1-.51-1.7,2.84,2.84,0,0,1,.27-1.3,1.78,1.78,0,0,1,.73-.8,2.16,2.16,0,0,1,1.06-.26,1.91,1.91,0,0,1,1.5.58,2.48,2.48,0,0,1,.51,1.68,3,3,0,0,1-.26,1.31,1.76,1.76,0,0,1-.72.8A2.17,2.17,0,0,1,121.48,183.74Zm-1.1-2.37a3,3,0,0,0,.3,1.49,1,1,0,0,0,.87.51.92.92,0,0,0,.53-.15,1.08,1.08,0,0,0,.35-.41,1.77,1.77,0,0,0,.2-.6,4,4,0,0,0,.06-.7,3.77,3.77,0,0,0-.15-1.15,1.51,1.51,0,0,0-.41-.67.91.91,0,0,0-.59-.21,1,1,0,0,0-.86.49A2.72,2.72,0,0,0,120.38,181.37Z"/><path d="M125.54,182.58a3.66,3.66,0,0,1,.06.65,1.64,1.64,0,0,1-.11.6,1.84,1.84,0,0,1-.35.54,4.8,4.8,0,0,1-.68.59l-.25-.28a2,2,0,0,0,.35-.41,1.34,1.34,0,0,0,.15-.41,3,3,0,0,0,.05-.58,5.48,5.48,0,0,0,0-.7Z"/><path d="M133.47,178.58V178a2,2,0,0,0,0-.3.64.64,0,0,0-.08-.2.58.58,0,0,0-.15-.11,1.11,1.11,0,0,0-.32-.08V177l1.12,0h.27v5.42c0,.24,0,.42,0,.52a.7.7,0,0,0,.06.25.36.36,0,0,0,.14.16,2.49,2.49,0,0,0,.35.11v.24l-1.09.05h-.28l.05-.77-.06,0a3.93,3.93,0,0,1-.51.47,2.3,2.3,0,0,1-.46.25,1.5,1.5,0,0,1-.52.09,1.36,1.36,0,0,1-1.18-.58,3.49,3.49,0,0,1-.14-3,1.89,1.89,0,0,1,.73-.8,2,2,0,0,1,1-.26,3.15,3.15,0,0,1,.56,0,2.5,2.5,0,0,1,.51.16Zm0,2.31a4.4,4.4,0,0,0,0-.58,1.16,1.16,0,0,0-.11-.37.86.86,0,0,0-.2-.26.89.89,0,0,0-.29-.15,1.35,1.35,0,0,0-.37,0,1,1,0,0,0-.91.48,2.61,2.61,0,0,0-.31,1.38,2.87,2.87,0,0,0,.26,1.36.82.82,0,0,0,.77.47,1.58,1.58,0,0,0,.34,0,1.07,1.07,0,0,0,.27-.12,1.5,1.5,0,0,0,.26-.21,1,1,0,0,0,.2-.25.92.92,0,0,0,.09-.25,2,2,0,0,0,0-.38Z"/><path d="M139.37,182.87a3.29,3.29,0,0,1-.55.49,1.85,1.85,0,0,1-.54.28,2,2,0,0,1-.66.1,1.78,1.78,0,0,1-1.44-.57,2.58,2.58,0,0,1-.49-1.71,2.79,2.79,0,0,1,.25-1.23,1.93,1.93,0,0,1,.71-.83,2,2,0,0,1,1.06-.29,1.89,1.89,0,0,1,.79.15,1.37,1.37,0,0,1,.53.41,2,2,0,0,1,.31.66,4.55,4.55,0,0,1,.12,1h-2.92v.08a3.09,3.09,0,0,0,.12.93,1.15,1.15,0,0,0,.4.59,1.13,1.13,0,0,0,.73.22,1.52,1.52,0,0,0,.69-.15,2,2,0,0,0,.6-.46Zm-.78-1.9a3.44,3.44,0,0,0-.13-.83,1,1,0,0,0-.29-.49.77.77,0,0,0-.51-.17.89.89,0,0,0-.76.39,2,2,0,0,0-.34,1.1Z"/><path d="M15,190.7h1.32v2.39a8,8,0,0,0,0,.83,1.22,1.22,0,0,0,.13.43.71.71,0,0,0,.24.25.82.82,0,0,0,.42.09.8.8,0,0,0,.34-.07,1.32,1.32,0,0,0,.36-.24,1.19,1.19,0,0,0,.28-.35.87.87,0,0,0,.09-.4v-1.76c0-.18,0-.31,0-.4a.9.9,0,0,0-.05-.22.47.47,0,0,0-.08-.14L18,191a1.26,1.26,0,0,0-.26-.09v-.23H19v3.2c0,.24,0,.42,0,.52a.83.83,0,0,0,.06.26.36.36,0,0,0,.15.15,1.33,1.33,0,0,0,.34.11v.24l-1.06,0h-.28l0-.77-.07,0a3.24,3.24,0,0,1-.74.62,1.43,1.43,0,0,1-.7.2,1.37,1.37,0,0,1-.7-.17,1.05,1.05,0,0,1-.41-.51,2.82,2.82,0,0,1-.13-.94v-1.77a3.22,3.22,0,0,0,0-.54.46.46,0,0,0-.12-.24.93.93,0,0,0-.37-.16Z"/><path d="M24.91,195.18H23.09V195l.26-.1a.45.45,0,0,0,.13-.11.74.74,0,0,0,.08-.24,2.67,2.67,0,0,0,0-.47V192.8a5.34,5.34,0,0,0,0-.59,2.22,2.22,0,0,0-.06-.44.76.76,0,0,0-.11-.27.73.73,0,0,0-.14-.16.78.78,0,0,0-.2-.11,1,1,0,0,0-.64,0,1.36,1.36,0,0,0-.35.25,1.45,1.45,0,0,0-.29.35.87.87,0,0,0-.09.4V194a3.12,3.12,0,0,0,0,.56.48.48,0,0,0,.14.24,1.12,1.12,0,0,0,.34.14v.23H20.4V195l.25-.1a.35.35,0,0,0,.13-.11.55.55,0,0,0,.09-.23,2.93,2.93,0,0,0,0-.49v-2c0-.2,0-.36,0-.48a.73.73,0,0,0-.07-.29.31.31,0,0,0-.17-.17,1.9,1.9,0,0,0-.32-.09v-.25l1.09,0h.28l-.05.76.06,0a5,5,0,0,1,.56-.5,1.75,1.75,0,0,1,.42-.23,1.44,1.44,0,0,1,.46-.08,1.53,1.53,0,0,1,.45.06,1.06,1.06,0,0,1,.35.18.89.89,0,0,1,.24.3,1.28,1.28,0,0,1,.15.43,3.69,3.69,0,0,1,.05.64V194c0,.22,0,.37,0,.47a.53.53,0,0,0,.06.22.38.38,0,0,0,.14.14,1.81,1.81,0,0,0,.3.11Z"/><path d="M28.43,194.51l-.07,0a2.8,2.8,0,0,1-.76.59,1.67,1.67,0,0,1-.76.18,1.38,1.38,0,0,1-.62-.14,1,1,0,0,1-.41-.39,1.11,1.11,0,0,1-.14-.58,1.16,1.16,0,0,1,.67-1.06,4.78,4.78,0,0,1,2-.43v-.3a2.28,2.28,0,0,0-.1-.77.67.67,0,0,0-.29-.41.92.92,0,0,0-.53-.14.83.83,0,0,0-.58.2,1.09,1.09,0,0,0-.33.57h-.61v-.61a6.23,6.23,0,0,1,.74-.34,4.83,4.83,0,0,1,.59-.17,2.48,2.48,0,0,1,.61-.07,1.52,1.52,0,0,1,.73.15.92.92,0,0,1,.42.45,2.39,2.39,0,0,1,.14.92v2.12c0,.1,0,.18,0,.27a.69.69,0,0,0,.07.19.33.33,0,0,0,.14.12,1.26,1.26,0,0,0,.29.11v.23H28.4ZM28.35,193a3.3,3.3,0,0,0-1.41.26.77.77,0,0,0-.47.73.71.71,0,0,0,.11.43.58.58,0,0,0,.26.21,1.14,1.14,0,0,0,.39.06,1,1,0,0,0,.57-.16,1.07,1.07,0,0,0,.4-.39.89.89,0,0,0,.15-.47Z"/><path d="M44.5,190.81v1h-.59a1.55,1.55,0,0,0-.19-.48.7.7,0,0,0-.27-.25,1,1,0,0,0-.38-.07.88.88,0,0,0-.58.21,1.41,1.41,0,0,0-.39.65A3.15,3.15,0,0,0,42,192.9a4.07,4.07,0,0,0,.06.73,1.48,1.48,0,0,0,.19.56,1,1,0,0,0,.35.37,1.08,1.08,0,0,0,.56.13,1.31,1.31,0,0,0,.59-.13,1.69,1.69,0,0,0,.57-.44l.27.31a3.66,3.66,0,0,1-.42.4,1.58,1.58,0,0,1-.39.24,2.12,2.12,0,0,1-.4.14,2,2,0,0,1-.44,0,1.61,1.61,0,0,1-1.34-.59,2.69,2.69,0,0,1-.47-1.7,2.85,2.85,0,0,1,.26-1.23,1.92,1.92,0,0,1,1.81-1.12,4.9,4.9,0,0,1,.7,0A4.69,4.69,0,0,1,44.5,190.81Z"/><path d="M48,194.51l-.07,0a2.78,2.78,0,0,1-.75.59,1.67,1.67,0,0,1-.76.18,1.38,1.38,0,0,1-.62-.14.91.91,0,0,1-.41-.39,1.11,1.11,0,0,1-.15-.58,1.17,1.17,0,0,1,.67-1.06,4.85,4.85,0,0,1,2-.43v-.3a2.61,2.61,0,0,0-.09-.77.72.72,0,0,0-.29-.41A.92.92,0,0,0,47,191a.88.88,0,0,0-.59.2,1.25,1.25,0,0,0-.33.57h-.61v-.61a7.07,7.07,0,0,1,.75-.34,4,4,0,0,1,.59-.17,2.46,2.46,0,0,1,.6-.07,1.54,1.54,0,0,1,.74.15.92.92,0,0,1,.42.45,2.39,2.39,0,0,1,.14.92v2.12a1.18,1.18,0,0,0,0,.27.69.69,0,0,0,.07.19.33.33,0,0,0,.14.12,1.1,1.1,0,0,0,.29.11v.23H47.94ZM47.88,193a3.37,3.37,0,0,0-1.41.26.85.85,0,0,0-.36,1.16.56.56,0,0,0,.27.21,1.14,1.14,0,0,0,.39.06,1,1,0,0,0,.57-.16,1.15,1.15,0,0,0,.4-.39.88.88,0,0,0,.14-.47Z"/><path d="M51.22,191.48h.07a3.74,3.74,0,0,1,.47-.49,1.72,1.72,0,0,1,.47-.28,1.7,1.7,0,0,1,.57-.1,3.68,3.68,0,0,1,.49,0v1.08h-.52a1.31,1.31,0,0,0-.24-.37.49.49,0,0,0-.35-.11.68.68,0,0,0-.33.09,1.39,1.39,0,0,0-.31.29,1.06,1.06,0,0,0-.22.35,1.48,1.48,0,0,0,0,.39V194a2.07,2.07,0,0,0,0,.59.37.37,0,0,0,.17.23,1,1,0,0,0,.35.12v.23H50V195l.26-.1a.45.45,0,0,0,.13-.11.76.76,0,0,0,.08-.23,2.93,2.93,0,0,0,0-.49v-2c0-.2,0-.36,0-.48a.73.73,0,0,0-.07-.29.33.33,0,0,0-.16-.17L49.9,191v-.24l1.09-.05h.28Z"/><path d="M56.63,194.51l-.07,0a2.8,2.8,0,0,1-.76.59,1.67,1.67,0,0,1-.76.18,1.38,1.38,0,0,1-.62-.14.91.91,0,0,1-.41-.39,1.11,1.11,0,0,1-.14-.58,1.16,1.16,0,0,1,.67-1.06,4.78,4.78,0,0,1,2-.43v-.3a2.28,2.28,0,0,0-.1-.77.72.72,0,0,0-.29-.41.92.92,0,0,0-.53-.14.83.83,0,0,0-.58.2,1.17,1.17,0,0,0-.34.57h-.6v-.61a6.23,6.23,0,0,1,.74-.34,4.36,4.36,0,0,1,.59-.17,2.48,2.48,0,0,1,.61-.07,1.52,1.52,0,0,1,.73.15.92.92,0,0,1,.42.45,2.39,2.39,0,0,1,.14.92v2.12c0,.1,0,.18,0,.27a.69.69,0,0,0,.07.19.33.33,0,0,0,.14.12,1.26,1.26,0,0,0,.29.11v.23H56.6ZM56.55,193a3.3,3.3,0,0,0-1.41.26.77.77,0,0,0-.47.73.78.78,0,0,0,.1.43.6.6,0,0,0,.27.21,1.14,1.14,0,0,0,.39.06,1,1,0,0,0,.57-.16,1.07,1.07,0,0,0,.4-.39.89.89,0,0,0,.15-.47Z"/><path d="M62.09,190.81v1H61.5a1.82,1.82,0,0,0-.2-.48.59.59,0,0,0-.27-.25,1,1,0,0,0-.38-.07.86.86,0,0,0-.57.21,1.42,1.42,0,0,0-.4.65,3.15,3.15,0,0,0-.15,1.05,4.07,4.07,0,0,0,.06.73,1.68,1.68,0,0,0,.19.56,1,1,0,0,0,.36.37,1,1,0,0,0,.55.13,1.38,1.38,0,0,0,.6-.13,1.9,1.9,0,0,0,.57-.44l.26.31a3,3,0,0,1-.41.4,1.58,1.58,0,0,1-.39.24,2.49,2.49,0,0,1-.41.14,2,2,0,0,1-.44,0,1.62,1.62,0,0,1-1.34-.59,3.23,3.23,0,0,1-.2-2.93,1.91,1.91,0,0,1,.73-.83,2,2,0,0,1,1.08-.29,5.12,5.12,0,0,1,.7,0A5.42,5.42,0,0,1,62.09,190.81Z"/><path d="M62.59,190.94a1.06,1.06,0,0,0,.37-.13.68.68,0,0,0,.23-.25,1.32,1.32,0,0,0,.13-.37c0-.14.06-.36.09-.64h.66v1.15h1.5v.48h-1.5v2.08a6.42,6.42,0,0,0,0,.72,1,1,0,0,0,.14.43.57.57,0,0,0,.23.21.67.67,0,0,0,.33.07.82.82,0,0,0,.35-.08,1.08,1.08,0,0,0,.32-.22l.21.25a2.6,2.6,0,0,1-.62.47,1.34,1.34,0,0,1-.61.15,1.07,1.07,0,0,1-.89-.36,1.74,1.74,0,0,1-.3-1.12v-2.6h-.68Z"/><path d="M69.84,194.38a4,4,0,0,1-.55.5,2.31,2.31,0,0,1-.54.28,2.28,2.28,0,0,1-.66.1,1.78,1.78,0,0,1-1.44-.58,2.58,2.58,0,0,1-.49-1.71,2.79,2.79,0,0,1,.25-1.23,1.86,1.86,0,0,1,.71-.83,2,2,0,0,1,1-.29,1.9,1.9,0,0,1,.8.15,1.37,1.37,0,0,1,.53.41,2.13,2.13,0,0,1,.31.66,4.55,4.55,0,0,1,.12,1H67V193a3.18,3.18,0,0,0,.12.93,1.24,1.24,0,0,0,.4.59,1.19,1.19,0,0,0,.73.21,1.7,1.7,0,0,0,.69-.14,2.06,2.06,0,0,0,.6-.47Zm-.78-1.9a3.35,3.35,0,0,0-.13-.82,1,1,0,0,0-.29-.5.77.77,0,0,0-.51-.17.92.92,0,0,0-.77.39,2.17,2.17,0,0,0-.33,1.1Z"/><path d="M72.06,191.48h.07a4.53,4.53,0,0,1,.47-.49,1.89,1.89,0,0,1,.47-.28,1.7,1.7,0,0,1,.57-.1,3.58,3.58,0,0,1,.49,0v1.08h-.52a1.31,1.31,0,0,0-.24-.37.47.47,0,0,0-.34-.11.68.68,0,0,0-.33.09,1.43,1.43,0,0,0-.32.29,1.2,1.2,0,0,0-.21.35,1.14,1.14,0,0,0-.06.39V194a2.53,2.53,0,0,0,0,.59.37.37,0,0,0,.17.23,1.09,1.09,0,0,0,.35.12v.23H70.81V195a1.58,1.58,0,0,0,.26-.1.45.45,0,0,0,.13-.11.56.56,0,0,0,.08-.23,2.93,2.93,0,0,0,0-.49v-2c0-.2,0-.36,0-.48a.74.74,0,0,0-.06-.29.4.4,0,0,0-.17-.17l-.33-.09v-.24l1.09-.05h.28Z"/><path d="M74.79,195l.25-.1a.28.28,0,0,0,.13-.11.55.55,0,0,0,.09-.23,2.93,2.93,0,0,0,0-.49v-2c0-.2,0-.36,0-.48a.73.73,0,0,0-.07-.29A.31.31,0,0,0,75,191a1.9,1.9,0,0,0-.32-.09v-.25l1.08,0h.29V194a3.43,3.43,0,0,0,0,.56.48.48,0,0,0,.14.24,1.12,1.12,0,0,0,.34.14v.23H74.79Zm2.07-6.52v.23l-1.47,1.51-.3-.25,1-1.49Z"/><path d="M80.58,191.73h-.44a1.21,1.21,0,0,0-.25-.44.68.68,0,0,0-.31-.23,1.33,1.33,0,0,0-.43-.07.89.89,0,0,0-.59.18.58.58,0,0,0-.22.48.8.8,0,0,0,.08.36.89.89,0,0,0,.28.26,4.31,4.31,0,0,0,.65.32,4.32,4.32,0,0,1,.73.38,1.57,1.57,0,0,1,.41.4,1.1,1.1,0,0,1,.14.55,1.4,1.4,0,0,1-.12.62,1.12,1.12,0,0,1-.36.42,1.66,1.66,0,0,1-.54.23,3.47,3.47,0,0,1-.68.07,4.77,4.77,0,0,1-.76-.06,5.62,5.62,0,0,1-.71-.16v-1h.45a1.22,1.22,0,0,0,.38.62,1,1,0,0,0,.67.2,1.86,1.86,0,0,0,.33,0,.65.65,0,0,0,.28-.12.43.43,0,0,0,.2-.22.72.72,0,0,0,.08-.35.75.75,0,0,0-.09-.39,1,1,0,0,0-.29-.27,4.36,4.36,0,0,0-.69-.34,4.75,4.75,0,0,1-.68-.34,1.52,1.52,0,0,1-.4-.4,1.1,1.1,0,0,1-.14-.55,1.14,1.14,0,0,1,.2-.66,1.31,1.31,0,0,1,.6-.44,2.52,2.52,0,0,1,.91-.15,5.54,5.54,0,0,1,.59,0,7.14,7.14,0,0,1,.72.12Z"/><path d="M81.32,190.94a1.13,1.13,0,0,0,.38-.13.78.78,0,0,0,.23-.25,1.34,1.34,0,0,0,.12-.37,6.31,6.31,0,0,0,.1-.64h.66v1.15h1.5v.48h-1.5v2.08a4.67,4.67,0,0,0,0,.72,1.15,1.15,0,0,0,.13.43.59.59,0,0,0,.24.21.65.65,0,0,0,.33.07.82.82,0,0,0,.35-.08,1.22,1.22,0,0,0,.32-.22l.21.25a2.44,2.44,0,0,1-.63.47,1.31,1.31,0,0,1-.61.15,1.1,1.1,0,0,1-.89-.36,1.81,1.81,0,0,1-.29-1.12v-2.6h-.69Z"/><path d="M84.87,195l.25-.1a.35.35,0,0,0,.13-.11.55.55,0,0,0,.09-.23,2.93,2.93,0,0,0,0-.49v-2c0-.2,0-.36,0-.48a.73.73,0,0,0-.07-.29.31.31,0,0,0-.17-.17,1.9,1.9,0,0,0-.32-.09v-.25l1.08,0h.28V194a3.12,3.12,0,0,0,0,.56.48.48,0,0,0,.14.24,1.12,1.12,0,0,0,.34.14v.23H84.87Zm1.32-6.08v.9h-.85v-.9Z"/><path d="M91,190.81v1h-.59a1.84,1.84,0,0,0-.19-.48.7.7,0,0,0-.27-.25,1.07,1.07,0,0,0-.38-.07.88.88,0,0,0-.58.21,1.42,1.42,0,0,0-.4.65,3.46,3.46,0,0,0-.14,1.05,5.35,5.35,0,0,0,.05.73,1.68,1.68,0,0,0,.19.56,1,1,0,0,0,.36.37,1,1,0,0,0,.55.13,1.35,1.35,0,0,0,.6-.13,1.9,1.9,0,0,0,.57-.44l.27.31a3.66,3.66,0,0,1-.42.4,1.58,1.58,0,0,1-.39.24,2.21,2.21,0,0,1-.41.14,2,2,0,0,1-.44,0,1.62,1.62,0,0,1-1.34-.59,2.69,2.69,0,0,1-.46-1.7,2.85,2.85,0,0,1,.26-1.23,2,2,0,0,1,.73-.83,2,2,0,0,1,1.08-.29,4.86,4.86,0,0,1,1.35.19Z"/><path d="M94.47,194.51l-.07,0a2.66,2.66,0,0,1-.76.59,1.66,1.66,0,0,1-.75.18,1.35,1.35,0,0,1-.62-.14,1,1,0,0,1-.42-.39,1.21,1.21,0,0,1-.14-.58,1.16,1.16,0,0,1,.67-1.06,4.85,4.85,0,0,1,2-.43v-.3a2.61,2.61,0,0,0-.09-.77.72.72,0,0,0-.29-.41,1,1,0,0,0-.54-.14.85.85,0,0,0-.58.2,1.09,1.09,0,0,0-.33.57H92v-.61a8.14,8.14,0,0,1,.74-.34,4.5,4.5,0,0,1,.6-.17,2.4,2.4,0,0,1,.6-.07,1.57,1.57,0,0,1,.74.15,1,1,0,0,1,.41.45,2.22,2.22,0,0,1,.14.92v1.63c0,.23,0,.4,0,.49a1.18,1.18,0,0,0,0,.27.47.47,0,0,0,.07.19.3.3,0,0,0,.13.12,1.2,1.2,0,0,0,.3.11v.23H94.45ZM94.39,193a3.3,3.3,0,0,0-1.41.26.83.83,0,0,0-.36,1.16.56.56,0,0,0,.27.21,1.17,1.17,0,0,0,1-.1,1.15,1.15,0,0,0,.4-.39,1,1,0,0,0,.14-.47Z"/><path d="M97.46,194.09a3.66,3.66,0,0,1,.06.65,1.46,1.46,0,0,1-.11.6,1.84,1.84,0,0,1-.35.54,5.26,5.26,0,0,1-.67.59l-.25-.28a2.21,2.21,0,0,0,.34-.41,1.25,1.25,0,0,0,.15-.41,2.94,2.94,0,0,0,.05-.57c0-.24,0-.48,0-.71Z"/><path d="M112.22,190.09c0-.3,0-.51,0-.63a2,2,0,0,0,0-.3.57.57,0,0,0-.08-.19.36.36,0,0,0-.15-.12,1.28,1.28,0,0,0-.32-.08v-.25l1.12,0H113v5.42c0,.25,0,.42,0,.52a.83.83,0,0,0,.06.26.4.4,0,0,0,.14.15,1.62,1.62,0,0,0,.35.11v.24l-1.09,0h-.28l.06-.77-.07,0a3.93,3.93,0,0,1-.51.47,1.72,1.72,0,0,1-.46.25,1.5,1.5,0,0,1-.52.1,1.34,1.34,0,0,1-1.17-.59,2.85,2.85,0,0,1-.42-1.68,2.91,2.91,0,0,1,.27-1.31,1.81,1.81,0,0,1,.73-.79,1.94,1.94,0,0,1,1-.27,3.15,3.15,0,0,1,.56,0,2.8,2.8,0,0,1,.52.16Zm0,2.31a3,3,0,0,0,0-.58,1,1,0,0,0-.11-.37.73.73,0,0,0-.2-.26,1.32,1.32,0,0,0-.29-.15,1.35,1.35,0,0,0-.37,0,1,1,0,0,0-.9.48,2.51,2.51,0,0,0-.32,1.38,3,3,0,0,0,.26,1.37.83.83,0,0,0,.77.46,1.58,1.58,0,0,0,.34,0,1,1,0,0,0,.27-.11,2.35,2.35,0,0,0,.26-.22,1,1,0,0,0,.2-.25.92.92,0,0,0,.09-.25,1.34,1.34,0,0,0,0-.38Z"/><path d="M118.11,194.38a4,4,0,0,1-.55.5,2,2,0,0,1-.54.28,2.28,2.28,0,0,1-.66.1,1.81,1.81,0,0,1-1.44-.58,2.64,2.64,0,0,1-.49-1.71,2.93,2.93,0,0,1,.25-1.23,1.93,1.93,0,0,1,.71-.83,2,2,0,0,1,1.06-.29,1.94,1.94,0,0,1,.8.15,1.34,1.34,0,0,1,.52.41,1.93,1.93,0,0,1,.31.66,4.55,4.55,0,0,1,.12,1h-2.92V193a3.18,3.18,0,0,0,.12.93,1.19,1.19,0,0,0,.41.59,1.17,1.17,0,0,0,.73.21,1.65,1.65,0,0,0,.68-.14,2.23,2.23,0,0,0,.61-.47Zm-.78-1.9a3.35,3.35,0,0,0-.13-.82,1,1,0,0,0-.29-.5.77.77,0,0,0-.51-.17.89.89,0,0,0-.76.39,2.17,2.17,0,0,0-.34,1.1Z"/><path d="M129.59,190.7h1.32v2.39a5.9,5.9,0,0,0,0,.83,1.22,1.22,0,0,0,.13.43.68.68,0,0,0,.23.25.84.84,0,0,0,.42.09.77.77,0,0,0,.34-.07,1.32,1.32,0,0,0,.36-.24,1.25,1.25,0,0,0,.29-.35.87.87,0,0,0,.09-.4v-1.76a3.59,3.59,0,0,0,0-.4,1,1,0,0,0,0-.22.47.47,0,0,0-.08-.14.48.48,0,0,0-.13-.09,1.07,1.07,0,0,0-.26-.09v-.23h1.32v3.2c0,.24,0,.42,0,.52a.83.83,0,0,0,.06.26.4.4,0,0,0,.14.15,1.45,1.45,0,0,0,.35.11v.24l-1.06,0h-.29l0-.77-.07,0a3,3,0,0,1-.73.62,1.46,1.46,0,0,1-.7.2,1.32,1.32,0,0,1-.7-.17,1.05,1.05,0,0,1-.41-.51,2.58,2.58,0,0,1-.13-.94v-1.77a3.22,3.22,0,0,0,0-.54.46.46,0,0,0-.12-.24,1,1,0,0,0-.37-.16Z"/><path d="M139.51,195.18h-1.83V195a1.58,1.58,0,0,0,.26-.1.35.35,0,0,0,.13-.11.55.55,0,0,0,.09-.24,2.67,2.67,0,0,0,0-.47V192.8c0-.22,0-.42,0-.59a2.22,2.22,0,0,0-.06-.44,1,1,0,0,0-.11-.27.57.57,0,0,0-.15-.16.64.64,0,0,0-.2-.11.78.78,0,0,0-.29,0,.8.8,0,0,0-.34.07,1.54,1.54,0,0,0-.64.6.87.87,0,0,0-.09.4V194a2.38,2.38,0,0,0,0,.56.42.42,0,0,0,.14.24,1,1,0,0,0,.34.14v.23H135V195a1.58,1.58,0,0,0,.26-.1.45.45,0,0,0,.13-.11.76.76,0,0,0,.08-.23,2.93,2.93,0,0,0,0-.49v-2c0-.2,0-.36,0-.48a.6.6,0,0,0-.06-.29.35.35,0,0,0-.17-.17l-.32-.09v-.25l1.08,0h.29l-.06.76.07,0a5,5,0,0,1,.55-.5,1.8,1.8,0,0,1,.43-.23,1.39,1.39,0,0,1,.46-.08,1.51,1.51,0,0,1,.44.06,1,1,0,0,1,.35.18.91.91,0,0,1,.25.3,1.55,1.55,0,0,1,.15.43,3.69,3.69,0,0,1,.05.64V194c0,.22,0,.37,0,.47a.71.71,0,0,0,.07.22.35.35,0,0,0,.13.14,1.68,1.68,0,0,0,.31.11Z"/><path d="M16.36,206.55v1c0,.2,0,.36,0,.46a.63.63,0,0,0,.07.23.46.46,0,0,0,.16.15,1.35,1.35,0,0,0,.32.1v.23H15v-.23a1.18,1.18,0,0,0,.27-.1.36.36,0,0,0,.16-.14.62.62,0,0,0,.07-.26,2.76,2.76,0,0,0,0-.44v-4c0-.22,0-.38,0-.48a1.29,1.29,0,0,0,0-.23.35.35,0,0,0-.09-.16.39.39,0,0,0-.14-.1,1.38,1.38,0,0,0-.3-.09v-.24l1.09-.05h.28l-.06.77.07,0a5,5,0,0,1,.46-.43,1.85,1.85,0,0,1,.34-.23,1.82,1.82,0,0,1,.35-.12,1.29,1.29,0,0,1,.35,0,1.33,1.33,0,0,1,1.17.58,2.85,2.85,0,0,1,.41,1.69,3.12,3.12,0,0,1-.23,1.3,1.64,1.64,0,0,1-.67.79,2,2,0,0,1-1.06.27,3,3,0,0,1-.62-.06A2.35,2.35,0,0,1,16.36,206.55Zm0-1.54a3.9,3.9,0,0,0,.05.69.81.81,0,0,0,.54.62,1.34,1.34,0,0,0,.5.08.93.93,0,0,0,.85-.47,2.75,2.75,0,0,0,.28-1.39c0-1.22-.35-1.84-1.06-1.84a1.25,1.25,0,0,0-.45.08,1.45,1.45,0,0,0-.37.27,1.09,1.09,0,0,0-.26.35.8.8,0,0,0-.08.37Z"/><path d="M21.68,203l.07,0a3.92,3.92,0,0,1,.47-.5,1.89,1.89,0,0,1,.47-.28,1.72,1.72,0,0,1,.58-.09l.48,0v1.08h-.52a1,1,0,0,0-.24-.37.5.5,0,0,0-.34-.11.6.6,0,0,0-.33.1,1.17,1.17,0,0,0-.32.28,1.53,1.53,0,0,0-.21.35,1.14,1.14,0,0,0-.06.39v1.64a2.47,2.47,0,0,0,.05.59.44.44,0,0,0,.17.24.9.9,0,0,0,.36.11v.23H20.44v-.23a1.59,1.59,0,0,0,.25-.09.37.37,0,0,0,.13-.12.55.55,0,0,0,.09-.23c0-.1,0-.27,0-.48v-2c0-.2,0-.36,0-.48a.6.6,0,0,0-.06-.29.4.4,0,0,0-.17-.17l-.32-.09v-.24l1.08-.05h.29Z"/><path d="M26.43,206.77a1.85,1.85,0,0,1-1.48-.58,2.51,2.51,0,0,1-.5-1.69,2.89,2.89,0,0,1,.26-1.31,1.76,1.76,0,0,1,.73-.79,2.06,2.06,0,0,1,1.06-.26,1.88,1.88,0,0,1,1.5.58,2.47,2.47,0,0,1,.51,1.67,3.08,3.08,0,0,1-.25,1.32,1.74,1.74,0,0,1-.72.79A2.23,2.23,0,0,1,26.43,206.77Zm-1.11-2.37a2.86,2.86,0,0,0,.31,1.48,1,1,0,0,0,1.4.37,1.18,1.18,0,0,0,.35-.41,2,2,0,0,0,.2-.6,4.08,4.08,0,0,0,.06-.71,3.66,3.66,0,0,0-.15-1.14,1.4,1.4,0,0,0-.41-.67.93.93,0,0,0-.6-.21,1,1,0,0,0-.86.49A2.7,2.7,0,0,0,25.32,204.4Z"/><path d="M32.63,201.6c0-.3,0-.51,0-.63a1.32,1.32,0,0,0,0-.3.56.56,0,0,0-.09-.19.26.26,0,0,0-.14-.11,1.42,1.42,0,0,0-.33-.09V200l1.12,0h.28v5.42c0,.25,0,.42,0,.53a.76.76,0,0,0,.06.25.36.36,0,0,0,.15.15,1,1,0,0,0,.35.11v.24l-1.1.05h-.28l.06-.77-.07,0a3,3,0,0,1-.51.47,1.58,1.58,0,0,1-.46.25,1.27,1.27,0,0,1-.52.1,1.35,1.35,0,0,1-1.17-.58,2.87,2.87,0,0,1-.41-1.69,3,3,0,0,1,.26-1.3,1.84,1.84,0,0,1,.73-.8,2,2,0,0,1,1-.26,3.09,3.09,0,0,1,.55,0,2.86,2.86,0,0,1,.52.17Zm0,2.32a4.58,4.58,0,0,0,0-.59,1.16,1.16,0,0,0-.11-.37.72.72,0,0,0-.21-.25.85.85,0,0,0-.28-.15,1.4,1.4,0,0,0-.38-.05,1,1,0,0,0-.9.48,2.52,2.52,0,0,0-.31,1.38,2.94,2.94,0,0,0,.25,1.37.84.84,0,0,0,.78.47,1.59,1.59,0,0,0,.34,0,1,1,0,0,0,.26-.11,1.24,1.24,0,0,0,.27-.21,2.37,2.37,0,0,0,.19-.25,1,1,0,0,0,.1-.26,1.94,1.94,0,0,0,0-.38Z"/><path d="M34.7,202.22H36v2.38a5.9,5.9,0,0,0,0,.83,1.42,1.42,0,0,0,.12.43.69.69,0,0,0,.66.35,1,1,0,0,0,.34-.07,1.39,1.39,0,0,0,.36-.25,1.28,1.28,0,0,0,.29-.35,1,1,0,0,0,.08-.4v-1.76c0-.18,0-.31,0-.4a1,1,0,0,0,0-.22.4.4,0,0,0-.07-.13.34.34,0,0,0-.13-.1l-.26-.08v-.23h1.32v3.19c0,.25,0,.42,0,.52a.58.58,0,0,0,.07.26.33.33,0,0,0,.14.15,1,1,0,0,0,.35.11v.24l-1.06.05h-.29l0-.77-.07,0a3,3,0,0,1-.74.62,1.41,1.41,0,0,1-.7.2,1.31,1.31,0,0,1-.69-.17,1,1,0,0,1-.41-.5,2.64,2.64,0,0,1-.14-.95v-1.77a3.22,3.22,0,0,0,0-.54.45.45,0,0,0-.11-.23.76.76,0,0,0-.38-.16Z"/><path d="M43.56,202.32v1H43a1.82,1.82,0,0,0-.2-.48.61.61,0,0,0-.27-.24.86.86,0,0,0-.38-.07.84.84,0,0,0-.57.21,1.38,1.38,0,0,0-.4.64,3.24,3.24,0,0,0-.15,1,4.07,4.07,0,0,0,.06.73,1.82,1.82,0,0,0,.19.57,1,1,0,0,0,.91.49,1.45,1.45,0,0,0,.59-.12,2,2,0,0,0,.58-.45l.26.31a3,3,0,0,1-.42.4,1.73,1.73,0,0,1-.38.24,1.81,1.81,0,0,1-.41.14,2,2,0,0,1-.44.05,1.62,1.62,0,0,1-1.34-.59,3.23,3.23,0,0,1-.2-2.93,1.92,1.92,0,0,1,.72-.82,2,2,0,0,1,1.08-.29,5.23,5.23,0,0,1,.71,0A4.89,4.89,0,0,1,43.56,202.32Z"/><path d="M44.07,202.45a1.06,1.06,0,0,0,.37-.13.66.66,0,0,0,.23-.24,2,2,0,0,0,.13-.37c0-.15.06-.37.09-.65h.66v1.16h1.5v.47h-1.5v2.08a4.73,4.73,0,0,0,0,.73.9.9,0,0,0,.14.42.68.68,0,0,0,.23.22.81.81,0,0,0,.33.06.69.69,0,0,0,.35-.08,1.08,1.08,0,0,0,.32-.22l.21.26a2.52,2.52,0,0,1-.62.46,1.34,1.34,0,0,1-.61.15,1.07,1.07,0,0,1-.89-.36,1.72,1.72,0,0,1-.3-1.12v-2.6h-.68Z"/><path d="M49.63,206.77a1.85,1.85,0,0,1-1.48-.58,2.46,2.46,0,0,1-.51-1.69,2.89,2.89,0,0,1,.27-1.31,1.76,1.76,0,0,1,.73-.79,2.06,2.06,0,0,1,1.06-.26,1.88,1.88,0,0,1,1.5.58,2.47,2.47,0,0,1,.51,1.67,3.08,3.08,0,0,1-.25,1.32,1.7,1.7,0,0,1-.73.79A2.16,2.16,0,0,1,49.63,206.77Zm-1.11-2.37a3,3,0,0,0,.3,1.48,1,1,0,0,0,.87.52.9.9,0,0,0,.53-.15,1.1,1.1,0,0,0,.36-.41,2,2,0,0,0,.2-.6,4.08,4.08,0,0,0,.06-.71,3.36,3.36,0,0,0-.16-1.14,1.33,1.33,0,0,0-.41-.67.91.91,0,0,0-.59-.21,1,1,0,0,0-.86.49A2.7,2.7,0,0,0,48.52,204.4Z"/><path d="M53.68,205.61a3.55,3.55,0,0,1,.06.64,1.46,1.46,0,0,1-.11.6,1.84,1.84,0,0,1-.35.54,5.32,5.32,0,0,1-.67.6l-.25-.29a1.85,1.85,0,0,0,.34-.4,1.44,1.44,0,0,0,.15-.41,2.45,2.45,0,0,0,0-.58c0-.24,0-.47,0-.7Z"/><path d="M61.67,201.6c0-.3,0-.51,0-.63a1.28,1.28,0,0,0,0-.3.42.42,0,0,0-.08-.19.26.26,0,0,0-.14-.11,1.42,1.42,0,0,0-.33-.09V200l1.12,0h.28v5.42c0,.25,0,.42,0,.53a.76.76,0,0,0,.06.25.36.36,0,0,0,.15.15,1,1,0,0,0,.35.11v.24l-1.1.05h-.28l.06-.77-.07,0a3.37,3.37,0,0,1-.51.47,1.58,1.58,0,0,1-.46.25,1.27,1.27,0,0,1-.52.1,1.35,1.35,0,0,1-1.17-.58,3.45,3.45,0,0,1-.15-3,1.78,1.78,0,0,1,.73-.8,2,2,0,0,1,1-.26,3.09,3.09,0,0,1,.55,0,2.86,2.86,0,0,1,.52.17Zm0,2.32a4.58,4.58,0,0,0,0-.59,1.48,1.48,0,0,0-.11-.37.72.72,0,0,0-.21-.25.8.8,0,0,0-.29-.15,1.27,1.27,0,0,0-.37-.05,1,1,0,0,0-.9.48,2.52,2.52,0,0,0-.31,1.38,2.94,2.94,0,0,0,.25,1.37.84.84,0,0,0,.78.47,1.41,1.41,0,0,0,.33,0,1,1,0,0,0,.27-.11,1.2,1.2,0,0,0,.26-.21,1.66,1.66,0,0,0,.2-.25,1.57,1.57,0,0,0,.1-.26,1.94,1.94,0,0,0,0-.38Z"/><path d="M67.56,205.9a4.43,4.43,0,0,1-.54.49,2.19,2.19,0,0,1-.55.28,2,2,0,0,1-.65.1,1.79,1.79,0,0,1-1.45-.58,2.62,2.62,0,0,1-.48-1.71,3,3,0,0,1,.24-1.23,1.88,1.88,0,0,1,1.77-1.11,1.94,1.94,0,0,1,.8.15,1.25,1.25,0,0,1,.52.41,1.87,1.87,0,0,1,.31.65,4.62,4.62,0,0,1,.12,1H64.73v.09a3.09,3.09,0,0,0,.12.93,1.15,1.15,0,0,0,.41.59,1.17,1.17,0,0,0,.73.21,1.65,1.65,0,0,0,.68-.14,2.09,2.09,0,0,0,.61-.47Zm-.78-1.9a4,4,0,0,0-.12-.83,1.08,1.08,0,0,0-.3-.49.72.72,0,0,0-.51-.17.88.88,0,0,0-.76.38,2.18,2.18,0,0,0-.34,1.11Z"/><path d="M72.27,202.22h1.32v2.38a5.9,5.9,0,0,0,0,.83,1.15,1.15,0,0,0,.13.43.68.68,0,0,0,.23.25.88.88,0,0,0,.43.1,1,1,0,0,0,.34-.07,1.82,1.82,0,0,0,.36-.25,1.23,1.23,0,0,0,.28-.35.84.84,0,0,0,.09-.4v-1.76a3.59,3.59,0,0,0,0-.4,1.09,1.09,0,0,0,0-.22.41.41,0,0,0-.08-.13.4.4,0,0,0-.12-.1l-.27-.08v-.23h1.33v3.19c0,.25,0,.42,0,.52a.77.77,0,0,0,.06.26.4.4,0,0,0,.14.15,1.1,1.1,0,0,0,.35.11v.24l-1.06.05h-.28l0-.77-.07,0a3,3,0,0,1-.73.62,1.43,1.43,0,0,1-.7.2,1.34,1.34,0,0,1-.7-.17,1,1,0,0,1-.41-.5,2.67,2.67,0,0,1-.13-.95v-1.77a3.22,3.22,0,0,0,0-.54.39.39,0,0,0-.12-.23.76.76,0,0,0-.37-.16Z"/><path d="M82.19,206.69H80.36v-.23a1.81,1.81,0,0,0,.26-.09.41.41,0,0,0,.14-.12.76.76,0,0,0,.08-.23,2.88,2.88,0,0,0,0-.48v-1.23c0-.21,0-.41,0-.59a2.22,2.22,0,0,0-.06-.44,1.16,1.16,0,0,0-.11-.27.75.75,0,0,0-.15-.16.86.86,0,0,0-.19-.11,1.21,1.21,0,0,0-.3,0,.81.81,0,0,0-.34.08,1.18,1.18,0,0,0-.36.25,1.11,1.11,0,0,0-.28.35.84.84,0,0,0-.09.4v1.74a2.38,2.38,0,0,0,0,.56.36.36,0,0,0,.14.24.84.84,0,0,0,.34.14v.23H77.67v-.23a1.81,1.81,0,0,0,.26-.09.37.37,0,0,0,.13-.12.56.56,0,0,0,.08-.23,2.59,2.59,0,0,0,0-.48v-2c0-.2,0-.36,0-.48a.73.73,0,0,0-.07-.29.4.4,0,0,0-.17-.17l-.32-.09v-.24l1.08-.05H79l0,.77.06,0a3.77,3.77,0,0,1,.56-.51,2.18,2.18,0,0,1,.42-.23,1.44,1.44,0,0,1,.46-.08,1.53,1.53,0,0,1,.45.06,1.16,1.16,0,0,1,.35.18,1,1,0,0,1,.24.3,1.36,1.36,0,0,1,.15.43,3.82,3.82,0,0,1,0,.65v1.76a2.84,2.84,0,0,0,0,.47.64.64,0,0,0,.06.23.44.44,0,0,0,.14.13,1.06,1.06,0,0,0,.3.11Z"/><path d="M85.7,206h-.07a3,3,0,0,1-.75.59,1.8,1.8,0,0,1-.76.17,1.38,1.38,0,0,1-.62-.14.91.91,0,0,1-.41-.39,1.11,1.11,0,0,1-.15-.58,1.17,1.17,0,0,1,.67-1,4.7,4.7,0,0,1,2-.44v-.3a2.57,2.57,0,0,0-.1-.77.75.75,0,0,0-.29-.41.93.93,0,0,0-.53-.13.87.87,0,0,0-.59.19,1.29,1.29,0,0,0-.33.58h-.61v-.61a7.47,7.47,0,0,1,.75-.35,4.36,4.36,0,0,1,.59-.17,3.05,3.05,0,0,1,.6-.06,1.55,1.55,0,0,1,.74.14.9.9,0,0,1,.42.46,2.3,2.3,0,0,1,.14.91v2.12a2,2,0,0,0,0,.27.69.69,0,0,0,.07.19.44.44,0,0,0,.14.13,1.34,1.34,0,0,0,.29.1v.23H85.68Zm-.07-1.46a3.17,3.17,0,0,0-1.41.25.85.85,0,0,0-.37,1.16.56.56,0,0,0,.27.21,1.14,1.14,0,0,0,.39.06,1,1,0,0,0,.57-.16,1.07,1.07,0,0,0,.4-.39.89.89,0,0,0,.15-.47Z"/><path d="M91.69,202.18a2,2,0,0,1-.07-.35,1.89,1.89,0,0,1,0-.31,1.69,1.69,0,0,1,.08-.53,1.91,1.91,0,0,1,.28-.49,5.87,5.87,0,0,1,.57-.59l.27.25a2.09,2.09,0,0,0-.35.62,2.38,2.38,0,0,0-.09.7,3.76,3.76,0,0,0,.08.7Zm1.56,0a2,2,0,0,1-.08-.35,1.89,1.89,0,0,1,0-.31,1.44,1.44,0,0,1,.09-.53,1.65,1.65,0,0,1,.28-.49,5.87,5.87,0,0,1,.57-.59l.26.25a2,2,0,0,0-.34.62,2.38,2.38,0,0,0-.09.7,3.68,3.68,0,0,0,.07.7Z"/><path d="M96.42,202.94l.07,0a5.38,5.38,0,0,1,.45-.43,3,3,0,0,1,.35-.23,1.1,1.1,0,0,1,.31-.12,1,1,0,0,1,.3,0,1.22,1.22,0,0,1,.76.22,1.1,1.1,0,0,1,.4.66,6,6,0,0,1,.56-.53,2,2,0,0,1,.44-.26,1.33,1.33,0,0,1,.49-.09,1.49,1.49,0,0,1,.54.09,1.14,1.14,0,0,1,.38.28,1.33,1.33,0,0,1,.22.48,3.2,3.2,0,0,1,.07.77v1.76a2.62,2.62,0,0,0,0,.49,1,1,0,0,0,.06.22.33.33,0,0,0,.14.12.83.83,0,0,0,.29.11v.23h-1.82v-.23a1.81,1.81,0,0,0,.26-.09.37.37,0,0,0,.13-.12.55.55,0,0,0,.09-.23,2.88,2.88,0,0,0,0-.48v-1.23c0-.26,0-.48,0-.65a2.58,2.58,0,0,0-.07-.42.67.67,0,0,0-.11-.24,1.07,1.07,0,0,0-.14-.16.52.52,0,0,0-.18-.1,1.06,1.06,0,0,0-.29,0,.81.81,0,0,0-.34.08,1.36,1.36,0,0,0-.35.25,1.41,1.41,0,0,0-.27.36.93.93,0,0,0-.08.42v1.71a2.92,2.92,0,0,0,0,.49.63.63,0,0,0,.07.22.3.3,0,0,0,.13.12.9.9,0,0,0,.3.11v.23H97.81v-.23a1.81,1.81,0,0,0,.26-.09.37.37,0,0,0,.13-.12.55.55,0,0,0,.09-.23,2.88,2.88,0,0,0,0-.48v-1.23a6.39,6.39,0,0,0,0-.68,1.53,1.53,0,0,0-.07-.42.73.73,0,0,0-.12-.25.55.55,0,0,0-.16-.15.49.49,0,0,0-.18-.08.93.93,0,0,0-.24,0,.74.74,0,0,0-.36.09,1.48,1.48,0,0,0-.34.25,1,1,0,0,0-.26.34.86.86,0,0,0-.09.39v1.75c0,.18,0,.32,0,.41s0,.17,0,.22a.74.74,0,0,0,.08.13l.13.09.26.09v.23H95.17v-.23a2.42,2.42,0,0,0,.26-.09.49.49,0,0,0,.13-.12.56.56,0,0,0,.08-.23,2.8,2.8,0,0,0,0-.48v-2c0-.2,0-.36,0-.48a1,1,0,0,0-.06-.29.46.46,0,0,0-.17-.17l-.33-.09v-.24l1.09-.05h.28Z"/><path d="M105.8,206h-.07a3.08,3.08,0,0,1-.76.59,1.72,1.72,0,0,1-.75.17,1.35,1.35,0,0,1-.62-.14,1,1,0,0,1-.42-.39,1.21,1.21,0,0,1-.14-.58,1.17,1.17,0,0,1,.67-1,4.68,4.68,0,0,1,2-.44v-.3a2.61,2.61,0,0,0-.09-.77.75.75,0,0,0-.29-.41,1,1,0,0,0-.54-.13.85.85,0,0,0-.58.19,1.2,1.2,0,0,0-.33.58h-.61v-.61c.3-.16.55-.27.74-.35a4.5,4.5,0,0,1,.6-.17,3.05,3.05,0,0,1,.6-.06,1.58,1.58,0,0,1,.74.14,1,1,0,0,1,.42.46,2.3,2.3,0,0,1,.14.91v2.12a1.12,1.12,0,0,0,0,.27.47.47,0,0,0,.07.19.36.36,0,0,0,.14.13,1,1,0,0,0,.29.1v.23h-1.27Zm-.08-1.46a3.23,3.23,0,0,0-1.41.25.79.79,0,0,0-.47.74.77.77,0,0,0,.11.42.56.56,0,0,0,.27.21,1.12,1.12,0,0,0,.38.06,1.06,1.06,0,0,0,.58-.16,1.15,1.15,0,0,0,.4-.39.88.88,0,0,0,.14-.47Z"/><path d="M112.32,206.69H110.5v-.23a2.42,2.42,0,0,0,.26-.09.49.49,0,0,0,.13-.12A.76.76,0,0,0,111,206a2.88,2.88,0,0,0,0-.48v-1.23a5.53,5.53,0,0,0,0-.59,2.22,2.22,0,0,0-.06-.44.84.84,0,0,0-.11-.27,1.07,1.07,0,0,0-.14-.16l-.2-.11a1.12,1.12,0,0,0-.29,0,.85.85,0,0,0-.35.08,1.28,1.28,0,0,0-.35.25,1.15,1.15,0,0,0-.29.35,1,1,0,0,0-.08.4v1.74a3.43,3.43,0,0,0,0,.56.41.41,0,0,0,.14.24.9.9,0,0,0,.35.14v.23h-1.82v-.23a1.59,1.59,0,0,0,.25-.09.37.37,0,0,0,.13-.12.55.55,0,0,0,.09-.23,2.8,2.8,0,0,0,0-.48v-2c0-.2,0-.36,0-.48a.73.73,0,0,0-.07-.29.35.35,0,0,0-.17-.17,1.9,1.9,0,0,0-.32-.09v-.24l1.09-.05h.28l0,.77.06,0a4.35,4.35,0,0,1,.56-.51,2.18,2.18,0,0,1,.42-.23,1.44,1.44,0,0,1,.46-.08,1.53,1.53,0,0,1,.45.06,1,1,0,0,1,.6.48,1.67,1.67,0,0,1,.14.43,3.82,3.82,0,0,1,0,.65v1.76c0,.22,0,.37,0,.47a.64.64,0,0,0,.06.23.44.44,0,0,0,.14.13,1.2,1.2,0,0,0,.3.11Z"/><path d="M116.86,205.9a4.43,4.43,0,0,1-.54.49,2.19,2.19,0,0,1-.55.28,1.93,1.93,0,0,1-.65.1,1.75,1.75,0,0,1-1.44-.58,2.57,2.57,0,0,1-.49-1.71,2.85,2.85,0,0,1,.25-1.23,1.83,1.83,0,0,1,.7-.82,1.9,1.9,0,0,1,1.06-.29,1.94,1.94,0,0,1,.8.15,1.35,1.35,0,0,1,.53.41,1.86,1.86,0,0,1,.3.65,4.1,4.1,0,0,1,.12,1H114v.09a2.78,2.78,0,0,0,.13.93,1.14,1.14,0,0,0,.4.59,1.19,1.19,0,0,0,.73.21,1.65,1.65,0,0,0,.68-.14,2,2,0,0,0,.61-.47Zm-.78-1.9a4,4,0,0,0-.12-.83,1.07,1.07,0,0,0-.29-.49.73.73,0,0,0-.52-.17.89.89,0,0,0-.76.38,2.09,2.09,0,0,0-.33,1.11Z"/><path d="M119.09,203l.06,0a3.33,3.33,0,0,1,.48-.5,1.72,1.72,0,0,1,.47-.28,1.7,1.7,0,0,1,.57-.09l.49,0v1.08h-.53a1.12,1.12,0,0,0-.23-.37.54.54,0,0,0-.35-.11.6.6,0,0,0-.33.1,1.34,1.34,0,0,0-.32.28,1.53,1.53,0,0,0-.21.35,1.15,1.15,0,0,0,0,.39v1.64a2,2,0,0,0,0,.59.4.4,0,0,0,.17.24.8.8,0,0,0,.35.11v.23h-1.87v-.23a1.59,1.59,0,0,0,.25-.09.53.53,0,0,0,.14-.12.76.76,0,0,0,.08-.23,2.8,2.8,0,0,0,0-.48v-2c0-.2,0-.36,0-.48a.73.73,0,0,0-.07-.29.35.35,0,0,0-.17-.17,1.9,1.9,0,0,0-.32-.09v-.24l1.09-.05h.28Z"/><path d="M124.49,206h-.06a3.27,3.27,0,0,1-.76.59,1.8,1.8,0,0,1-.76.17,1.38,1.38,0,0,1-.62-.14.91.91,0,0,1-.41-.39,1.11,1.11,0,0,1-.15-.58,1.17,1.17,0,0,1,.67-1,4.7,4.7,0,0,1,2-.44v-.3a2.28,2.28,0,0,0-.1-.77.75.75,0,0,0-.29-.41.93.93,0,0,0-.53-.13.83.83,0,0,0-.58.19,1.21,1.21,0,0,0-.34.58H122v-.61a6.53,6.53,0,0,1,.74-.35,4.36,4.36,0,0,1,.59-.17,3.05,3.05,0,0,1,.6-.06,1.55,1.55,0,0,1,.74.14.9.9,0,0,1,.42.46,2.3,2.3,0,0,1,.14.91v2.12l0,.27a.69.69,0,0,0,.07.19.44.44,0,0,0,.14.13,1.34,1.34,0,0,0,.29.1v.23h-1.27Zm-.07-1.46a3.17,3.17,0,0,0-1.41.25.85.85,0,0,0-.37,1.16.6.6,0,0,0,.27.21,1.14,1.14,0,0,0,.39.06,1,1,0,0,0,.57-.16,1.07,1.07,0,0,0,.4-.39.89.89,0,0,0,.15-.47Z"/><path d="M133.48,201.6c0-.3,0-.51,0-.63a2.19,2.19,0,0,0,0-.3.57.57,0,0,0-.08-.19.33.33,0,0,0-.15-.11,1.46,1.46,0,0,0-.32-.09V200l1.12,0h.27v5.42c0,.25,0,.42,0,.53a.76.76,0,0,0,.06.25.4.4,0,0,0,.14.15,1.2,1.2,0,0,0,.35.11v.24l-1.09.05h-.28l.06-.77-.07,0a3.93,3.93,0,0,1-.51.47,1.72,1.72,0,0,1-.46.25,1.3,1.3,0,0,1-.52.1,1.38,1.38,0,0,1-1.18-.58,3,3,0,0,1-.41-1.69,2.84,2.84,0,0,1,.27-1.3,1.78,1.78,0,0,1,.73-.8,1.94,1.94,0,0,1,1-.26,3.2,3.2,0,0,1,.56,0,2.86,2.86,0,0,1,.52.17Zm0,2.32a4.3,4.3,0,0,0,0-.59,1,1,0,0,0-.11-.37.82.82,0,0,0-.2-.25.8.8,0,0,0-.29-.15,1.32,1.32,0,0,0-.37-.05,1,1,0,0,0-.91.48,2.61,2.61,0,0,0-.31,1.38,2.92,2.92,0,0,0,.26,1.37.83.83,0,0,0,.77.47,1.51,1.51,0,0,0,.34,0,1,1,0,0,0,.27-.11,1.5,1.5,0,0,0,.26-.21,1.66,1.66,0,0,0,.2-.25,1,1,0,0,0,.09-.26,1.84,1.84,0,0,0,0-.38Z"/><path d="M139.37,205.9a3.81,3.81,0,0,1-.55.49,2,2,0,0,1-1.2.38,1.78,1.78,0,0,1-1.44-.58,2.62,2.62,0,0,1-.49-1.71,3,3,0,0,1,.25-1.23,1.85,1.85,0,0,1,.71-.82,2.11,2.11,0,0,1,1.85-.14,1.29,1.29,0,0,1,.53.41,2.07,2.07,0,0,1,.31.65,4.62,4.62,0,0,1,.12,1h-2.92v.09a3.09,3.09,0,0,0,.12.93,1.08,1.08,0,0,0,1.14.8,1.65,1.65,0,0,0,.68-.14,2.06,2.06,0,0,0,.6-.47Zm-.78-1.9a3.36,3.36,0,0,0-.13-.83,1,1,0,0,0-.29-.49.72.72,0,0,0-.51-.17.88.88,0,0,0-.76.38,2.18,2.18,0,0,0-.34,1.11Z"/><path d="M18.21,214.75h-.45a1.23,1.23,0,0,0-.24-.44.76.76,0,0,0-.31-.23,1.35,1.35,0,0,0-.43-.06,1,1,0,0,0-.6.17.61.61,0,0,0-.22.48.64.64,0,0,0,.09.36.89.89,0,0,0,.28.26,5.23,5.23,0,0,0,.65.33,3.69,3.69,0,0,1,.73.38,1.18,1.18,0,0,1,.4.4,1,1,0,0,1,.15.55,1.46,1.46,0,0,1-.12.62,1.1,1.1,0,0,1-.36.41,1.47,1.47,0,0,1-.54.23,2.9,2.9,0,0,1-.68.07,4.77,4.77,0,0,1-.76-.06c-.24,0-.48-.09-.71-.15v-1h.45a1.27,1.27,0,0,0,.37.63,1.08,1.08,0,0,0,.68.19,1.84,1.84,0,0,0,.33,0,1.18,1.18,0,0,0,.28-.12.6.6,0,0,0,.2-.22.77.77,0,0,0,.08-.36.65.65,0,0,0-.1-.38.83.83,0,0,0-.28-.28,5.82,5.82,0,0,0-.69-.33,4.66,4.66,0,0,1-.68-.35,1.27,1.27,0,0,1-.4-.4,1,1,0,0,1-.15-.54,1.09,1.09,0,0,1,.21-.67,1.29,1.29,0,0,1,.6-.43,2.52,2.52,0,0,1,.91-.15,5.54,5.54,0,0,1,.59,0q.29,0,.72.12Z"/><path d="M22.94,217.41a3.81,3.81,0,0,1-.55.49,2,2,0,0,1-1.2.38,1.78,1.78,0,0,1-1.44-.58,2.59,2.59,0,0,1-.49-1.7,3,3,0,0,1,.25-1.24,2,2,0,0,1,2.56-1,1.29,1.29,0,0,1,.53.41,2.07,2.07,0,0,1,.31.65,4.65,4.65,0,0,1,.12,1H20.11V216a3.09,3.09,0,0,0,.12.93,1.08,1.08,0,0,0,1.14.8,1.51,1.51,0,0,0,.68-.14,2,2,0,0,0,.6-.46Zm-.78-1.9a3.44,3.44,0,0,0-.13-.83,1,1,0,0,0-.29-.49.77.77,0,0,0-.51-.17.91.91,0,0,0-.76.38,2.18,2.18,0,0,0-.34,1.11Z"/><path d="M25.17,214.51h.06a3.75,3.75,0,0,1,.47-.49,1.77,1.77,0,0,1,.47-.28,1.5,1.5,0,0,1,.58-.1,3.43,3.43,0,0,1,.48,0v1.07h-.52a.94.94,0,0,0-.24-.36.45.45,0,0,0-.34-.12.6.6,0,0,0-.33.1,1.22,1.22,0,0,0-.32.29,1.2,1.2,0,0,0-.21.35,1.14,1.14,0,0,0-.06.39V217a2.41,2.41,0,0,0,.05.59.44.44,0,0,0,.17.24,1.07,1.07,0,0,0,.36.12v.23H23.92V218l.25-.1a.37.37,0,0,0,.13-.12.55.55,0,0,0,.09-.23c0-.1,0-.26,0-.48v-2c0-.2,0-.36,0-.49a.62.62,0,0,0-.06-.29.33.33,0,0,0-.17-.16,1,1,0,0,0-.32-.09v-.25l1.08,0h.29Z"/><path d="M28.86,211.5a2.21,2.21,0,0,1,.08.35,1.89,1.89,0,0,1,0,.31,1.44,1.44,0,0,1-.09.53,1.46,1.46,0,0,1-.27.48,6,6,0,0,1-.58.6l-.26-.25a3.09,3.09,0,0,0,.27-.42,1.61,1.61,0,0,0,.12-.39,2.64,2.64,0,0,0,0-.51,3.68,3.68,0,0,0-.07-.7Zm1.56,0a2.17,2.17,0,0,1,.07.35,1.89,1.89,0,0,1,0,.31,1.69,1.69,0,0,1-.08.53,1.71,1.71,0,0,1-.28.48,5.73,5.73,0,0,1-.57.6l-.27-.25a2.34,2.34,0,0,0,.27-.42,1.63,1.63,0,0,0,.13-.39,3.17,3.17,0,0,0,0-1.21Z"/><path d="M32.49,217.12a3.57,3.57,0,0,1,.06.65,1.52,1.52,0,0,1-.11.6,1.84,1.84,0,0,1-.35.54,6.18,6.18,0,0,1-.67.59l-.25-.29a2.2,2.2,0,0,0,.34-.4,1.34,1.34,0,0,0,.15-.41,3,3,0,0,0,.05-.58c0-.23,0-.47,0-.7Z"/><path d="M39.35,217.41a3.81,3.81,0,0,1-.55.49,2.13,2.13,0,0,1-.54.28,2,2,0,0,1-.66.1,1.75,1.75,0,0,1-1.44-.58,2.54,2.54,0,0,1-.49-1.7,2.86,2.86,0,0,1,.25-1.24,1.9,1.9,0,0,1,.71-.82,1.86,1.86,0,0,1,1-.29,1.9,1.9,0,0,1,.8.15,1.29,1.29,0,0,1,.53.41,1.86,1.86,0,0,1,.3.65,4.07,4.07,0,0,1,.13,1H36.52V216a3.09,3.09,0,0,0,.12.93,1.14,1.14,0,0,0,.4.59,1.19,1.19,0,0,0,.73.21,1.55,1.55,0,0,0,.69-.14,2,2,0,0,0,.6-.46Zm-.78-1.9a3.44,3.44,0,0,0-.13-.83,1,1,0,0,0-.29-.49.77.77,0,0,0-.51-.17.91.91,0,0,0-.76.38,2,2,0,0,0-.34,1.11Z"/><path d="M44.84,218.21H43V218a1.58,1.58,0,0,0,.26-.1.37.37,0,0,0,.13-.12.55.55,0,0,0,.09-.23,2.72,2.72,0,0,0,0-.48v-1.22c0-.22,0-.42,0-.6a2.25,2.25,0,0,0-.07-.44.71.71,0,0,0-.1-.26.61.61,0,0,0-.15-.17,1,1,0,0,0-.2-.11,1.12,1.12,0,0,0-.29,0,.8.8,0,0,0-.34.07,1.39,1.39,0,0,0-.36.25,1.23,1.23,0,0,0-.28.35.87.87,0,0,0-.09.4V217a2.38,2.38,0,0,0,0,.56.36.36,0,0,0,.14.24.83.83,0,0,0,.34.15v.23H40.32V218a1.58,1.58,0,0,0,.26-.1.49.49,0,0,0,.13-.12.76.76,0,0,0,.08-.23,2.72,2.72,0,0,0,0-.48v-2c0-.2,0-.36,0-.49a.78.78,0,0,0-.06-.29.37.37,0,0,0-.17-.16,1.12,1.12,0,0,0-.32-.09v-.25l1.08,0h.28l0,.76.07,0a4.17,4.17,0,0,1,.55-.5,1.8,1.8,0,0,1,.43-.23,1.14,1.14,0,0,1,.46-.09,1.51,1.51,0,0,1,.44.06,1,1,0,0,1,.6.48,2.05,2.05,0,0,1,.15.44,3.82,3.82,0,0,1,0,.64V217a4.55,4.55,0,0,0,0,.47.79.79,0,0,0,.07.23.33.33,0,0,0,.13.13,1.1,1.1,0,0,0,.31.12Z"/><path d="M45.39,214a.94.94,0,0,0,.38-.13.64.64,0,0,0,.22-.24,1.15,1.15,0,0,0,.13-.37c0-.15.06-.36.1-.65h.66v1.16h1.49v.47H46.88v2.09a6.83,6.83,0,0,0,0,.72,1,1,0,0,0,.14.42.79.79,0,0,0,.23.22.83.83,0,0,0,.34.06.84.84,0,0,0,.35-.07,1.49,1.49,0,0,0,.32-.23l.2.26a2.67,2.67,0,0,1-.62.47,1.47,1.47,0,0,1-.61.14,1.07,1.07,0,0,1-.89-.36,1.79,1.79,0,0,1-.29-1.12v-2.6h-.69Z"/><path d="M50.18,214.51h.07a3.75,3.75,0,0,1,.47-.49,1.63,1.63,0,0,1,.47-.28,1.5,1.5,0,0,1,.58-.1,3.43,3.43,0,0,1,.48,0v1.07h-.52a1.07,1.07,0,0,0-.24-.36.47.47,0,0,0-.34-.12.6.6,0,0,0-.33.1,1.22,1.22,0,0,0-.32.29,1.2,1.2,0,0,0-.21.35,1.14,1.14,0,0,0-.06.39V217a2.41,2.41,0,0,0,.05.59.44.44,0,0,0,.17.24,1.07,1.07,0,0,0,.36.12v.23H48.94V218l.25-.1a.49.49,0,0,0,.13-.12.44.44,0,0,0,.08-.23,2.72,2.72,0,0,0,0-.48v-2c0-.2,0-.36,0-.49a.62.62,0,0,0-.06-.29.33.33,0,0,0-.17-.16,1,1,0,0,0-.32-.09v-.25l1.08,0h.29Z"/><path d="M56.61,217.41a3.79,3.79,0,0,1-.54.49,2.19,2.19,0,0,1-.55.28,1.89,1.89,0,0,1-.65.1,1.75,1.75,0,0,1-1.44-.58,2.54,2.54,0,0,1-.49-1.7,2.86,2.86,0,0,1,.25-1.24,1.84,1.84,0,0,1,.71-.82,1.86,1.86,0,0,1,1.05-.29,1.9,1.9,0,0,1,.8.15,1.29,1.29,0,0,1,.53.41,1.86,1.86,0,0,1,.3.65,4.07,4.07,0,0,1,.13,1H53.78V216a3.06,3.06,0,0,0,.13.93,1.14,1.14,0,0,0,.4.59,1.19,1.19,0,0,0,.73.21,1.55,1.55,0,0,0,.69-.14,2,2,0,0,0,.6-.46Zm-.77-1.9a4,4,0,0,0-.13-.83,1.07,1.07,0,0,0-.29-.49.77.77,0,0,0-.51-.17.93.93,0,0,0-.77.38,2.09,2.09,0,0,0-.33,1.11Z"/><path d="M61.75,218.28a1.88,1.88,0,0,1-1.48-.57,2.5,2.5,0,0,1-.5-1.7A2.89,2.89,0,0,1,60,214.7a1.81,1.81,0,0,1,.73-.79,2.16,2.16,0,0,1,1.06-.26,1.88,1.88,0,0,1,1.5.58,2.48,2.48,0,0,1,.51,1.68,3.06,3.06,0,0,1-.25,1.31,1.78,1.78,0,0,1-.73.8A2.26,2.26,0,0,1,61.75,218.28Zm-1.11-2.37a2.86,2.86,0,0,0,.31,1.48,1,1,0,0,0,1.4.37,1.18,1.18,0,0,0,.35-.41,2,2,0,0,0,.2-.6A4,4,0,0,0,63,216a3.66,3.66,0,0,0-.15-1.14,1.45,1.45,0,0,0-.41-.67,1,1,0,0,0-1.46.28A2.72,2.72,0,0,0,60.64,215.91Z"/><path d="M64.54,214a1,1,0,0,0,.38-.13.64.64,0,0,0,.22-.24,1.44,1.44,0,0,0,.13-.37c0-.15.06-.36.1-.65H66v1.16h1.5v.47H66v2.09a6.42,6.42,0,0,0,0,.72,1,1,0,0,0,.14.42.79.79,0,0,0,.23.22.83.83,0,0,0,.34.06.77.77,0,0,0,.34-.07,1.12,1.12,0,0,0,.32-.23l.21.26a2.67,2.67,0,0,1-.62.47,1.47,1.47,0,0,1-.61.14,1.07,1.07,0,0,1-.89-.36,1.73,1.73,0,0,1-.29-1.12v-2.6h-.69Z"/><path d="M69.33,214.51h.07a3.75,3.75,0,0,1,.47-.49,1.63,1.63,0,0,1,.47-.28,1.48,1.48,0,0,1,.57-.1,3.58,3.58,0,0,1,.49,0v1.07h-.52a1.24,1.24,0,0,0-.24-.36.47.47,0,0,0-.34-.12.6.6,0,0,0-.33.1,1.22,1.22,0,0,0-.32.29,1.2,1.2,0,0,0-.21.35,1.14,1.14,0,0,0-.06.39V217a2.41,2.41,0,0,0,.05.59.4.4,0,0,0,.17.24A1.09,1.09,0,0,0,70,218v.23H68.09V218l.25-.1a.49.49,0,0,0,.13-.12.56.56,0,0,0,.08-.23,2.72,2.72,0,0,0,0-.48v-2c0-.2,0-.36,0-.49a.78.78,0,0,0-.06-.29.37.37,0,0,0-.17-.16A1.12,1.12,0,0,0,68,214v-.25l1.08,0h.28Z"/><path d="M74.07,218.28a1.87,1.87,0,0,1-1.47-.57,2.5,2.5,0,0,1-.51-1.7,2.89,2.89,0,0,1,.27-1.31,1.81,1.81,0,0,1,.73-.79,2.16,2.16,0,0,1,1.06-.26,1.88,1.88,0,0,1,1.5.58,2.48,2.48,0,0,1,.51,1.68,3.06,3.06,0,0,1-.25,1.31,1.78,1.78,0,0,1-.73.8A2.28,2.28,0,0,1,74.07,218.28ZM73,215.91a3,3,0,0,0,.3,1.48,1,1,0,0,0,.87.52.9.9,0,0,0,.53-.15,1.1,1.1,0,0,0,.36-.41,2.35,2.35,0,0,0,.2-.6,4,4,0,0,0,.06-.71,3.63,3.63,0,0,0-.16-1.14,1.37,1.37,0,0,0-.41-.67.91.91,0,0,0-.59-.21,1,1,0,0,0-.86.49A2.72,2.72,0,0,0,73,215.91Z"/><path d="M80.25,214.75h-.44a1.64,1.64,0,0,0-.24-.44.87.87,0,0,0-.32-.23,1.35,1.35,0,0,0-.43-.06,1,1,0,0,0-.59.17.58.58,0,0,0-.22.48.64.64,0,0,0,.09.36,1,1,0,0,0,.27.26,5.23,5.23,0,0,0,.65.33,4.14,4.14,0,0,1,.74.38,1.27,1.27,0,0,1,.4.4,1,1,0,0,1,.15.55,1.46,1.46,0,0,1-.13.62,1,1,0,0,1-.35.41,1.47,1.47,0,0,1-.54.23,3,3,0,0,1-.69.07,4.56,4.56,0,0,1-.75-.06q-.37-.06-.72-.15v-1h.46a1.14,1.14,0,0,0,.37.63,1.06,1.06,0,0,0,.68.19,1.73,1.73,0,0,0,.32,0,1.26,1.26,0,0,0,.29-.12.7.7,0,0,0,.2-.22.77.77,0,0,0,.07-.36.74.74,0,0,0-.09-.38.87.87,0,0,0-.29-.28,5.82,5.82,0,0,0-.69-.33,4.49,4.49,0,0,1-.67-.35,1.18,1.18,0,0,1-.4-.4,1,1,0,0,1-.15-.54,1.09,1.09,0,0,1,.21-.67,1.21,1.21,0,0,1,.59-.43,2.57,2.57,0,0,1,.92-.15,5.68,5.68,0,0,1,.59,0,7,7,0,0,1,.71.12Z"/><path d="M82.27,217.12v1.09h-.94v-1.09Z"/><path d="M30.82,21.73a1,1,0,0,0-.35.16.48.48,0,0,0-.13.23,2.1,2.1,0,0,0,0,.52v4.27a2.91,2.91,0,0,0,0,.47.48.48,0,0,0,.12.27.86.86,0,0,0,.37.16v.33H28.31v-.33a1.43,1.43,0,0,0,.3-.1.3.3,0,0,0,.13-.12.47.47,0,0,0,.07-.21c0-.1,0-.26,0-.48V24.48c0-.27,0-.58,0-.94s0-.62,0-.77h-.11l-.12.39c0,.12-.13.35-.25.67l-1.31,3.56h-.86l-1.37-4c-.08-.22-.16-.45-.22-.67h-.09c0,.54.05,1.18.05,1.92v2.27a2.06,2.06,0,0,0,0,.51.56.56,0,0,0,.13.24.88.88,0,0,0,.36.15v.33H23.28v-.33a1.18,1.18,0,0,0,.29-.11.46.46,0,0,0,.16-.15.61.61,0,0,0,.07-.25c0-.11,0-.24,0-.39V22.64a2.81,2.81,0,0,0,0-.51.58.58,0,0,0-.13-.23,1,1,0,0,0-.37-.17v-.32h2.43l1.35,4.05,1.47-4.05h2.29Z"/><path d="M33.8,26.9c0,.12,0,.22,0,.32a.75.75,0,0,0,0,.24.4.4,0,0,0,.08.16.5.5,0,0,0,.16.11,1,1,0,0,0,.23.08v.33H31.76v-.33a1.9,1.9,0,0,0,.29-.1.33.33,0,0,0,.15-.16.62.62,0,0,0,.07-.26c0-.1,0-.23,0-.39V22.65c0-.16,0-.29,0-.39a.83.83,0,0,0-.06-.26.41.41,0,0,0-.16-.16,1.48,1.48,0,0,0-.29-.11v-.32h2.56v.32a1.2,1.2,0,0,0-.29.12.4.4,0,0,0-.14.15.52.52,0,0,0-.07.23,2.43,2.43,0,0,0,0,.42Z"/><path d="M36.5,28.14v-.33a1,1,0,0,0,.32-.09.4.4,0,0,0,.18-.16.66.66,0,0,0,.08-.26c0-.11,0-.24,0-.4V22h-.4a1.22,1.22,0,0,0-.44.07.64.64,0,0,0-.27.22,1.15,1.15,0,0,0-.2.4c-.06.16-.1.32-.14.47H35V21.41h5.75v1.73h-.67a4.46,4.46,0,0,0-.15-.49.85.85,0,0,0-.12-.27.72.72,0,0,0-.14-.19.57.57,0,0,0-.15-.12.65.65,0,0,0-.21-.06A1.39,1.39,0,0,0,39,22H38.6V26.9a3.59,3.59,0,0,0,0,.4,1,1,0,0,0,.05.22.45.45,0,0,0,.1.13.56.56,0,0,0,.15.1,1.37,1.37,0,0,0,.27.06v.33Z"/><path d="M44.3,28.22a2.69,2.69,0,0,1-2.15-.85,3.85,3.85,0,0,1-.72-2.54,4.57,4.57,0,0,1,.35-1.9,2.51,2.51,0,0,1,1-1.19,3,3,0,0,1,1.61-.41,2.74,2.74,0,0,1,2.19.84,3.77,3.77,0,0,1,.74,2.52,5.38,5.38,0,0,1-.22,1.6,2.89,2.89,0,0,1-.62,1.09,2.37,2.37,0,0,1-1,.63A3.52,3.52,0,0,1,44.3,28.22ZM43,24.7a5.36,5.36,0,0,0,.35,2.21,1.15,1.15,0,0,0,1.09.73,1.06,1.06,0,0,0,.64-.2,1.53,1.53,0,0,0,.42-.58,3.22,3.22,0,0,0,.24-.87,7.45,7.45,0,0,0,.07-1.1,7.67,7.67,0,0,0-.15-1.65,2.27,2.27,0,0,0-.47-1,1,1,0,0,0-.79-.33,1.13,1.13,0,0,0-1.06.68A5.06,5.06,0,0,0,43,24.7Z"/><path d="M53.07,21.41a5.89,5.89,0,0,1,1.37.13,3.1,3.1,0,0,1,1,.4,2.26,2.26,0,0,1,.68.66,2.49,2.49,0,0,1,.39.89,4.36,4.36,0,0,1,.13,1.14A4.91,4.91,0,0,1,56.43,26a3,3,0,0,1-.53,1,2.55,2.55,0,0,1-.78.64,3.4,3.4,0,0,1-1.06.36,7.89,7.89,0,0,1-1.31.09H50.53v-.33a1.9,1.9,0,0,0,.29-.1.41.41,0,0,0,.16-.16.83.83,0,0,0,.06-.26,3.84,3.84,0,0,0,0-.39V22.65c0-.15,0-.28,0-.39A.53.53,0,0,0,51,22a.46.46,0,0,0-.15-.16,1.62,1.62,0,0,0-.3-.11v-.32Zm-.5,6.13a3.43,3.43,0,0,0,.45,0,2.41,2.41,0,0,0,.9-.16,1.29,1.29,0,0,0,.46-.33,2.19,2.19,0,0,0,.48-.88A5,5,0,0,0,55,24.75a4.32,4.32,0,0,0-.25-1.56A1.79,1.79,0,0,0,53,22h-.44Z"/><path d="M62.42,21.41V23h-.66a2.74,2.74,0,0,0-.28-.64.75.75,0,0,0-.27-.26,1.09,1.09,0,0,0-.53-.1H59.62v2.37h.64a.8.8,0,0,0,.34-.06.48.48,0,0,0,.2-.2,1.79,1.79,0,0,0,.15-.45h.56v2H61a1.41,1.41,0,0,0-.15-.43.52.52,0,0,0-.19-.22.82.82,0,0,0-.35-.06h-.64v2.63h1.06l.28,0a.66.66,0,0,0,.21-.08.43.43,0,0,0,.18-.15,1,1,0,0,0,.15-.2,1.82,1.82,0,0,0,.14-.28,3.13,3.13,0,0,0,.16-.49h.67l-.09,1.8h-4.8v-.33a1.9,1.9,0,0,0,.29-.1.33.33,0,0,0,.15-.16.62.62,0,0,0,.07-.26c0-.1,0-.23,0-.39V22.65c0-.15,0-.28,0-.39A.91.91,0,0,0,58,22a.49.49,0,0,0-.16-.16,1.79,1.79,0,0,0-.29-.11v-.32Z"/><path d="M67.6,26.9c0,.18,0,.31,0,.4a1,1,0,0,0,0,.22.45.45,0,0,0,.1.13.56.56,0,0,0,.15.1,1.33,1.33,0,0,0,.28.06v.33H65.56v-.33a1.11,1.11,0,0,0,.28-.1.35.35,0,0,0,.16-.16.62.62,0,0,0,.07-.26c0-.11,0-.24,0-.39V22.65c0-.15,0-.28,0-.39A.91.91,0,0,0,66,22a.49.49,0,0,0-.16-.16,1.79,1.79,0,0,0-.29-.11v-.32h4.72V23h-.67a3.42,3.42,0,0,0-.27-.64,1,1,0,0,0-.27-.26,1.09,1.09,0,0,0-.53-.1H67.6v2.51h.62a.68.68,0,0,0,.35-.07.46.46,0,0,0,.21-.24,1.81,1.81,0,0,0,.13-.47h.56v2.15h-.56a1.74,1.74,0,0,0-.14-.48.54.54,0,0,0-.2-.24.68.68,0,0,0-.35-.07H67.6Z"/><path d="M73.11,26.9c0,.12,0,.22,0,.32a.75.75,0,0,0,0,.24.4.4,0,0,0,.08.16.5.5,0,0,0,.16.11,1,1,0,0,0,.24.08v.33H71.07v-.33a1.9,1.9,0,0,0,.29-.1.33.33,0,0,0,.15-.16.62.62,0,0,0,.07-.26c0-.1,0-.23,0-.39V22.65c0-.16,0-.29,0-.39a.83.83,0,0,0-.06-.26.41.41,0,0,0-.16-.16,1.48,1.48,0,0,0-.29-.11v-.32h2.57v.32a1.14,1.14,0,0,0-.3.12.4.4,0,0,0-.14.15.52.52,0,0,0-.07.23,2.43,2.43,0,0,0,0,.42Z"/><path d="M80.49,21.41v.32a2.72,2.72,0,0,0-.28.11.53.53,0,0,0-.14.12.68.68,0,0,0-.08.22,2.67,2.67,0,0,0,0,.47v5.49H78.72l-2.2-3.84c-.29-.52-.51-.92-.65-1.22h-.05c0,.71.05,1.45.05,2.24v1.59a2.06,2.06,0,0,0,0,.51.47.47,0,0,0,.13.24.77.77,0,0,0,.36.15v.33H74.55v-.33a1.18,1.18,0,0,0,.29-.11.41.41,0,0,0,.16-.16.76.76,0,0,0,.06-.25,3.79,3.79,0,0,0,0-.38V22.64a2.55,2.55,0,0,0,0-.51.41.41,0,0,0-.13-.23.75.75,0,0,0-.36-.17v-.32h2l1.73,3c.11.19.25.45.42.77s.32.64.46.93h.08q-.06-1.18-.06-2.58v-.91c0-.22,0-.37,0-.47a.56.56,0,0,0-.08-.22.5.5,0,0,0-.13-.12l-.29-.11v-.32Z"/><path d="M84.92,26.05H82.84l-.16.47a3.3,3.3,0,0,0-.12.38,1.75,1.75,0,0,0,0,.4q0,.48.51.51v.33H80.94v-.33a.54.54,0,0,0,.32-.13,1.22,1.22,0,0,0,.25-.29,4.33,4.33,0,0,0,.24-.54l2-5.48h1.31L86.7,26.9a3.62,3.62,0,0,0,.18.52.69.69,0,0,0,.19.25.72.72,0,0,0,.33.14v.33H84.7v-.33a.63.63,0,0,0,.38-.14.42.42,0,0,0,.12-.32,2.14,2.14,0,0,0,0-.34c0-.13-.07-.28-.12-.47ZM83,25.48h1.76L84,22.7Z"/><path d="M90.53,21.41v.32a1.63,1.63,0,0,0-.28.11.36.36,0,0,0-.15.15.61.61,0,0,0-.08.26,3.84,3.84,0,0,0,0,.39v4.91h1a1,1,0,0,0,.46-.09.82.82,0,0,0,.29-.27,2,2,0,0,0,.22-.48c.06-.2.1-.39.14-.56h.67l-.11,2H88v-.33a1.09,1.09,0,0,0,.28-.11.35.35,0,0,0,.16-.16.75.75,0,0,0,.07-.25c0-.11,0-.24,0-.39V22.65c0-.15,0-.28,0-.39a.91.91,0,0,0-.06-.26.49.49,0,0,0-.16-.16,1.79,1.79,0,0,0-.29-.11v-.32Z"/><path d="M95.51,26.9c0,.12,0,.22,0,.32a1.19,1.19,0,0,0,0,.24.42.42,0,0,0,.09.16.37.37,0,0,0,.15.11,1.12,1.12,0,0,0,.24.08v.33H93.48v-.33a1.73,1.73,0,0,0,.28-.1.41.41,0,0,0,.16-.16.83.83,0,0,0,.06-.26,3.84,3.84,0,0,0,0-.39V22.65c0-.16,0-.29,0-.39a.62.62,0,0,0-.07-.26.33.33,0,0,0-.15-.16,1.79,1.79,0,0,0-.29-.11v-.32H96v.32a1.54,1.54,0,0,0-.3.12.4.4,0,0,0-.14.15.69.69,0,0,0-.07.23,4.19,4.19,0,0,0,0,.42Z"/><path d="M98.69,27.55h1.4a.88.88,0,0,0,.45-.11.9.9,0,0,0,.31-.35,3.46,3.46,0,0,0,.27-.83h.67v1.88h-4.9v-.33L100,22H98.7a.92.92,0,0,0-.51.12.94.94,0,0,0-.32.38,3.37,3.37,0,0,0-.23.7H97V21.41h4.85v.32Z"/><path d="M106.17,26.05h-2.09l-.16.47c0,.13-.08.26-.11.38a1.75,1.75,0,0,0,0,.4.46.46,0,0,0,.5.51v.33h-2.08v-.33a.56.56,0,0,0,.32-.13,1,1,0,0,0,.24-.29,2.57,2.57,0,0,0,.24-.54l2-5.48h1.3l1.61,5.53a5,5,0,0,0,.19.52.6.6,0,0,0,.19.25.63.63,0,0,0,.32.14v.33H106v-.33a.6.6,0,0,0,.37-.14.43.43,0,0,0,.13-.32,2.23,2.23,0,0,0,0-.34c0-.13-.06-.28-.11-.47Zm-1.9-.57H106l-.79-2.78Z"/><path d="M114,21.56V23h-.66a1.69,1.69,0,0,0-.37-.82.87.87,0,0,0-.67-.26,1.24,1.24,0,0,0-1.16.74,4.81,4.81,0,0,0-.4,2.22,4.69,4.69,0,0,0,.36,2.07,1.14,1.14,0,0,0,1.06.7,1.22,1.22,0,0,0,.58-.12.89.89,0,0,0,.36-.36,2.43,2.43,0,0,0,.23-.68H114V28a8.8,8.8,0,0,1-1,.19,6.77,6.77,0,0,1-.92.06,3.37,3.37,0,0,1-1.66-.37,2.24,2.24,0,0,1-1-1.12,5.13,5.13,0,0,1-.3-1.89,4.47,4.47,0,0,1,.36-1.86,2.68,2.68,0,0,1,1-1.22,3.12,3.12,0,0,1,1.67-.43,8.12,8.12,0,0,1,.9.05A7.34,7.34,0,0,1,114,21.56Z"/><path d="M116.93,26.9c0,.12,0,.22,0,.32a1.19,1.19,0,0,0,0,.24.42.42,0,0,0,.09.16.45.45,0,0,0,.15.11l.24.08v.33H114.9v-.33a1.73,1.73,0,0,0,.28-.1.35.35,0,0,0,.16-.16.83.83,0,0,0,.06-.26,3.84,3.84,0,0,0,0-.39V22.65c0-.16,0-.29,0-.39a.62.62,0,0,0-.07-.26.33.33,0,0,0-.15-.16,1.79,1.79,0,0,0-.29-.11v-.32h2.56v.32a1.54,1.54,0,0,0-.3.12A.4.4,0,0,0,117,22a1,1,0,0,0-.07.23,4.19,4.19,0,0,0,0,.42Z"/><path d="M121.32,28.22a2.69,2.69,0,0,1-2.16-.85,3.85,3.85,0,0,1-.72-2.54,4.74,4.74,0,0,1,.35-1.9,2.56,2.56,0,0,1,1-1.19,3,3,0,0,1,1.61-.41,2.76,2.76,0,0,1,2.2.84,3.77,3.77,0,0,1,.73,2.52,5.07,5.07,0,0,1-.22,1.6,2.76,2.76,0,0,1-.62,1.09,2.24,2.24,0,0,1-1,.63A3.47,3.47,0,0,1,121.32,28.22ZM120,24.7a5.18,5.18,0,0,0,.36,2.21,1.13,1.13,0,0,0,1.08.73,1.06,1.06,0,0,0,.64-.2,1.45,1.45,0,0,0,.43-.58,3.23,3.23,0,0,0,.23-.87,7.45,7.45,0,0,0,.07-1.1,7.67,7.67,0,0,0-.15-1.65,2.17,2.17,0,0,0-.47-1,1,1,0,0,0-.79-.33,1.11,1.11,0,0,0-1,.68A4.87,4.87,0,0,0,120,24.7Zm2.86-5.43v.33l-2,1.3-.32-.35,1.19-1.28Z"/><path d="M131.26,21.41v.32l-.27.11a.41.41,0,0,0-.14.12.51.51,0,0,0-.08.22,2.67,2.67,0,0,0,0,.47v5.49H129.5l-2.2-3.84c-.3-.52-.52-.92-.66-1.22h0c0,.71.05,1.45.05,2.24v1.59a2.06,2.06,0,0,0,0,.51.41.41,0,0,0,.13.24.77.77,0,0,0,.36.15v.33h-1.85v-.33a1.18,1.18,0,0,0,.29-.11.33.33,0,0,0,.15-.16.57.57,0,0,0,.07-.25c0-.1,0-.23,0-.38V22.64a2.81,2.81,0,0,0,0-.51.41.41,0,0,0-.13-.23.86.86,0,0,0-.36-.17v-.32h2l1.73,3,.42.77c.17.33.32.64.46.93H130c0-.79-.05-1.65-.05-2.58v-.91c0-.22,0-.37,0-.47a.56.56,0,0,0-.08-.22.42.42,0,0,0-.14-.12,1.46,1.46,0,0,0-.28-.11v-.32Z"/><path d="M107.32,90.15l2-.7,3.94-1.35c1.13-.39,2.26-.74,3.37-1.16.74-.28.92-1,.8-2.19-.27-2.8-.48-5.61-.74-8.41-.11-1.26-.26-2.51-.41-3.84l-11.11,4.3c.72,4.51,1.42,8.89,2.13,13.35m-.24.39-13,.33c.39,1.38.7,2.64,1.09,3.88.83,2.64,1.68,5.26,2.54,7.89a2.36,2.36,0,0,0,2.74,2,42.71,42.71,0,0,0,7.64-1.06,1.06,1.06,0,0,0,.92-1.3c-.14-1.11-.31-2.22-.49-3.33-.3-1.78-.62-3.56-.93-5.34-.17-1-.32-2-.48-3M102.89,63.4c-6.19.93-11.84-.65-17.37-3.61.31,1.24.58,2.34.86,3.43q.75,2.94,1.51,5.89c.3,1.18.62,2.35.91,3.53a2.78,2.78,0,0,0,1.79,2.26c.46.15.92.33,1.38.5a21.1,21.1,0,0,0,8.57,1.42c.91,0,1.81-.12,2.71-.21a3.4,3.4,0,0,0,.78-.18,1.14,1.14,0,0,0,.76-1.15c-.25-1.64-.49-3.28-.76-4.92-.36-2.3-.75-4.59-1.14-7M93.48,90.11c-.35-1.16-.66-2.16-1-3.17C92,85,91.42,83,90.87,81.05c-.33-1.18-.6-2.37-1-3.52a6.7,6.7,0,0,0-1.74-3.14A16.7,16.7,0,0,0,83.79,72c-2.62-1.19-5.31-2.24-8-3.34-.17-.07-.47-.1-.56,0a.91.91,0,0,0-.22.66c.22,1,.49,2,.75,3,.49,1.88,1,3.76,1.47,5.64.74,2.71,1.48,5.41,2.28,8.1a1.79,1.79,0,0,0,.91,1.08,27.51,27.51,0,0,0,3.47,1c1.9.44,3.81.83,5.72,1.23l3.84.8m-9.38,12c-.71-2.31-1.42-4.59-2.12-6.87-.59-1.93-1.17-3.87-1.76-5.8A2.81,2.81,0,0,0,78,87.21a30.72,30.72,0,0,0-3.79-.58,29.93,29.93,0,0,0-8.8.57L62.17,88c.33.93.62,1.76.92,2.58.65,1.8,1.29,3.6,2,5.39s1.43,3.55,2.1,5.34c.6,1.56,1.18,1.72,2.65,1.38a20.86,20.86,0,0,1,4.2-.66c2.93-.07,5.87.06,8.8.1H84.1M50.67,51.82a8.24,8.24,0,0,0,.16.92c.59,2,1.18,3.95,1.78,5.93.86,2.84,1.75,5.67,2.58,8.52.13.42.3.51.68.5l17.87-.28a2.88,2.88,0,0,0,.35,0c-.14-.58-.28-1.11-.41-1.65-.56-2.32-1.11-4.63-1.68-6.94-.45-1.83-1-3.65-1.39-5.48A1.66,1.66,0,0,0,69.24,52a18.34,18.34,0,0,0-2.54-.48c-1.82-.25-3.64-.54-5.47-.65a37,37,0,0,0-7.72.37c-.95.14-1.88.38-2.84.57M61.54,87.34c-2.16-6.43-4.3-12.77-6.44-19.16L51.47,70c-2.83,1.42-5.67,2.81-8.49,4.25A2.3,2.3,0,0,0,41.72,77c.36,1.51.73,3,1.11,4.51.55,2.14,1.07,4.29,1.66,6.42.71,2.5,1.48,5,2.23,7.47.09.32.29.36.56.2,1.58-.93,3.16-1.86,4.75-2.77s3.35-1.88,5-2.83,3-1.77,4.5-2.62m37.59,21.23c-2.31-.3-4.63-.56-6.93-.9s-4.46-.81-6.7-1.11a52,52,0,0,0-10.21-.36,27.6,27.6,0,0,0-5.39,1,38.83,38.83,0,0,0-12.46,6.41c-1,.75-2,1.53-3,2.35a1.91,1.91,0,0,0-.5,2.26c.8,2.32,1.6,4.64,2.43,6.94s1.71,4.68,2.58,7c.77,2.08,1.53,4.17,2.34,6.24.66,1.68,1.4,3.34,2,5a2.5,2.5,0,0,1-.23,2.76c-.87,1-2.87,1.6-3.85.57a4,4,0,0,1-.8-1.36c-.95-2.37-1.86-4.75-2.78-7.13-.58-1.52-1.16-3-1.71-4.56s-1.09-3.15-1.65-4.73-1.11-3.1-1.63-4.66c-.71-2.11-1.39-4.23-2.09-6.34-.4-1.24-.81-2.47-1.2-3.71q-.9-2.89-1.78-5.79c-.43-1.38-.87-2.76-1.28-4.14-.58-2-1.13-4-1.7-6-.27-1-.57-1.9-.83-2.86C41.16,93.2,40.58,91,40,88.72c-.3-1.12-.63-2.23-.92-3.35-.45-1.8-.87-3.61-1.31-5.41-.3-1.21-.65-2.4-.93-3.6-.45-1.91-.87-3.84-1.31-5.75-.31-1.33-.66-2.66-.95-4-.44-2-.85-4.05-1.28-6.07-.2-.94-.45-1.86-.64-2.79-.3-1.44-.56-2.89-.84-4.33-.14-.69-.3-1.38-.41-2.07s-.27-1.68-.32-2.52.47-1.55,1.51-1.89a1.48,1.48,0,0,1,1.78.77,19.35,19.35,0,0,1,1.15,2.78c.2.58.25,1.21.41,1.81a.46.46,0,0,0,.41.11c1-.55,2-1.22,3-1.69q3-1.35,6-2.5a19.62,19.62,0,0,1,3.54-1A53.66,53.66,0,0,1,55,46.38a52.23,52.23,0,0,1,6.38,0,39.79,39.79,0,0,1,5.2.68,40,40,0,0,1,4.94,1.21,46,46,0,0,1,5.18,2c1.82.85,3.59,1.83,5.34,2.83,1.54.87,3,1.85,4.54,2.78a25.61,25.61,0,0,0,7.2,3.18,23.71,23.71,0,0,0,7.93.48,28.79,28.79,0,0,0,5.9-1.23c1.71-.54,3.35-1.29,5-2,1.09-.46,2.11-1.06,3.19-1.51a2.39,2.39,0,0,1,3.53,1.94c.23,1.58.34,3.17.51,4.76s.36,3.35.53,5,.31,3.19.46,4.79c.22,2.41.45,4.81.67,7.22.15,1.58.29,3.15.44,4.73.22,2.32.44,4.65.67,7,.14,1.39.31,2.77.43,4.16.15,1.73.26,3.45.39,5.18A2.84,2.84,0,0,1,122,102.4a34.93,34.93,0,0,1-3.79,1.85c-1.12.49-2.27.92-3.43,1.3-1.51.49-3,.92-4.59,1.35a23,23,0,0,1-2.58.61q-2.75.42-5.5.75c-1,.11-1.94.12-2.91.18a.59.59,0,0,0,0,.13"/><rect class="cls-1" x="0.25" y="0.25" width="154" height="255.49" rx="9.73"/></g></g></svg>