<svg xmlns="http://www.w3.org/2000/svg" viewBox="0 0 154.5 255.99"><defs><style>.cls-1{fill:#f69223;}.cls-2{fill:none;stroke:#000;stroke-miterlimit:10;stroke-width:0.5px;}</style></defs><g id="Capa_2" data-name="Capa 2"><g id="Layer_1" data-name="Layer 1"><path d="M16.62,165.67h1.22a1.55,1.55,0,0,0,.33,0,.69.69,0,0,0,.23-.07.55.55,0,0,0,.17-.14,1,1,0,0,0,.15-.22,1.84,1.84,0,0,0,.13-.36c0-.14.09-.35.16-.64h.47l-.1,1.89H15.21v-.23a1,1,0,0,0,.39-.17.49.49,0,0,0,.12-.26,3.13,3.13,0,0,0,0-.51v-4.06a2.91,2.91,0,0,0,0-.47.69.69,0,0,0-.07-.23.64.64,0,0,0-.15-.13,1.51,1.51,0,0,0-.3-.11v-.23h1.95v.23l-.29.1a.53.53,0,0,0-.14.12.76.76,0,0,0-.08.23,2.93,2.93,0,0,0,0,.49Z"/><path d="M22.93,165.43l-.07,0a2.85,2.85,0,0,1-.76.59,1.79,1.79,0,0,1-.75.17,1.27,1.27,0,0,1-.63-.14,1,1,0,0,1-.41-.38,1.21,1.21,0,0,1-.14-.58,1.16,1.16,0,0,1,.67-1.06,4.66,4.66,0,0,1,2-.43v-.31a2.66,2.66,0,0,0-.09-.77.8.8,0,0,0-.3-.41.93.93,0,0,0-.53-.13.88.88,0,0,0-.58.19,1.13,1.13,0,0,0-.33.58h-.61v-.61a5.45,5.45,0,0,1,.74-.34,3.59,3.59,0,0,1,.59-.18,3.08,3.08,0,0,1,.61-.06,1.6,1.6,0,0,1,.74.15,1,1,0,0,1,.41.45,2.19,2.19,0,0,1,.14.92v1.63c0,.23,0,.39,0,.49a2.11,2.11,0,0,0,0,.26.77.77,0,0,0,.07.2.42.42,0,0,0,.14.12,1.81,1.81,0,0,0,.3.11v.23H22.9ZM22.85,164a3.32,3.32,0,0,0-1.41.25A.8.8,0,0,0,21,165a.72.72,0,0,0,.11.42.5.5,0,0,0,.27.21,1,1,0,0,0,.38.06,1.1,1.1,0,0,0,.57-.15,1.07,1.07,0,0,0,.4-.39.9.9,0,0,0,.15-.48Z"/><path d="M32.43,162.35h0a4.45,4.45,0,0,1,.57-.52,1.7,1.7,0,0,1,.42-.22,1.23,1.23,0,0,1,.44-.08,1.25,1.25,0,0,1,.45.07,1,1,0,0,1,.35.18.81.81,0,0,1,.25.3,1.63,1.63,0,0,1,.14.44,3.48,3.48,0,0,1,0,.63v1.77a3.28,3.28,0,0,0,0,.55.47.47,0,0,0,.13.23.87.87,0,0,0,.36.16v.23H33.81v-.23a1.28,1.28,0,0,0,.26-.1.41.41,0,0,0,.14-.12.67.67,0,0,0,.08-.23,2.67,2.67,0,0,0,0-.47v-1.23a5.84,5.84,0,0,0-.06-1,.85.85,0,0,0-.25-.49.73.73,0,0,0-.51-.16.84.84,0,0,0-.33.06,1.46,1.46,0,0,0-.35.24,1.12,1.12,0,0,0-.29.34.75.75,0,0,0-.1.38v1.8c0,.21,0,.36,0,.45a1,1,0,0,0,.07.23.33.33,0,0,0,.14.15,1.26,1.26,0,0,0,.29.11v.23H31.11v-.23l.29-.11a.44.44,0,0,0,.14-.13.79.79,0,0,0,.07-.23c0-.1,0-.26,0-.47V161c0-.3,0-.51,0-.63a1.26,1.26,0,0,0,0-.3.46.46,0,0,0-.09-.2.31.31,0,0,0-.14-.11,1.42,1.42,0,0,0-.33-.09v-.24l1.12-.05h.28Z"/><path d="M36.47,165.87a1.58,1.58,0,0,0,.26-.1.37.37,0,0,0,.13-.12.51.51,0,0,0,.08-.23,2.51,2.51,0,0,0,0-.48v-2c0-.2,0-.36,0-.48a.78.78,0,0,0-.07-.3.33.33,0,0,0-.17-.16,1,1,0,0,0-.32-.09v-.25l1.08,0h.28v3.35a3.21,3.21,0,0,0,0,.56.36.36,0,0,0,.14.23.83.83,0,0,0,.34.15v.23H36.47Zm1.33-6.09v.91H37v-.91Z"/><path d="M42.27,162.64h-.45a1.4,1.4,0,0,0-.24-.44.71.71,0,0,0-.31-.22,1.11,1.11,0,0,0-.43-.07.93.93,0,0,0-.6.18.57.57,0,0,0-.22.47.64.64,0,0,0,.09.36.89.89,0,0,0,.28.26,4.12,4.12,0,0,0,.65.33,4,4,0,0,1,.73.38,1.27,1.27,0,0,1,.4.4,1,1,0,0,1,.15.55,1.32,1.32,0,0,1-.13.62,1,1,0,0,1-.35.41,1.32,1.32,0,0,1-.54.23,3,3,0,0,1-.68.07,4.77,4.77,0,0,1-.76-.06c-.24,0-.48-.09-.71-.15v-1h.45a1.2,1.2,0,0,0,.37.63,1.08,1.08,0,0,0,.68.19l.33,0a1.18,1.18,0,0,0,.28-.12.53.53,0,0,0,.2-.22.81.81,0,0,0,0-.74.93.93,0,0,0-.28-.28,5.82,5.82,0,0,0-.69-.33,4.66,4.66,0,0,1-.68-.35,1.27,1.27,0,0,1-.4-.4,1,1,0,0,1-.15-.54,1.09,1.09,0,0,1,.21-.67,1.29,1.29,0,0,1,.6-.43,2.52,2.52,0,0,1,.91-.15,5.68,5.68,0,0,1,.59,0q.29,0,.72.12Z"/><path d="M43,161.85a.94.94,0,0,0,.38-.13.64.64,0,0,0,.22-.24,1.15,1.15,0,0,0,.13-.37c0-.15.06-.36.1-.65h.66v1.16H46v.47H44.5v2.09a6.83,6.83,0,0,0,0,.72,1,1,0,0,0,.14.42.68.68,0,0,0,.23.22.82.82,0,0,0,.34.07.85.85,0,0,0,.35-.08,1.84,1.84,0,0,0,.32-.22l.21.25a2.7,2.7,0,0,1-.63.47,1.47,1.47,0,0,1-.61.14,1.08,1.08,0,0,1-.89-.36,1.79,1.79,0,0,1-.29-1.12v-2.6H43Z"/><path d="M48.57,166.17a1.87,1.87,0,0,1-1.47-.57,2.49,2.49,0,0,1-.51-1.7,2.91,2.91,0,0,1,.27-1.31,1.76,1.76,0,0,1,.73-.79,2.15,2.15,0,0,1,1-.26,1.89,1.89,0,0,1,1.51.58,2.48,2.48,0,0,1,.51,1.68,3,3,0,0,1-.26,1.31,1.76,1.76,0,0,1-.72.8A2.28,2.28,0,0,1,48.57,166.17Zm-1.1-2.37a3,3,0,0,0,.3,1.48,1,1,0,0,0,.87.52.92.92,0,0,0,.53-.15,1.18,1.18,0,0,0,.35-.41,2,2,0,0,0,.2-.6,4,4,0,0,0,.06-.71,3.66,3.66,0,0,0-.15-1.14,1.51,1.51,0,0,0-.41-.67.91.91,0,0,0-.59-.21.93.93,0,0,0-.86.49A2.72,2.72,0,0,0,47.47,163.8Z"/><path d="M52.89,162.4H53a3.75,3.75,0,0,1,.47-.49,1.63,1.63,0,0,1,.47-.28,1.5,1.5,0,0,1,.58-.1,3.43,3.43,0,0,1,.48,0v1.07h-.52a1.07,1.07,0,0,0-.24-.36.47.47,0,0,0-.34-.12.7.7,0,0,0-.33.1,1.22,1.22,0,0,0-.32.29,1.2,1.2,0,0,0-.21.35,1.14,1.14,0,0,0-.06.39v1.64a2.37,2.37,0,0,0,.05.58.44.44,0,0,0,.17.24,1.07,1.07,0,0,0,.36.12v.23H51.65v-.23l.25-.1a.49.49,0,0,0,.13-.12.41.41,0,0,0,.08-.23,2.72,2.72,0,0,0,0-.48v-2c0-.2,0-.36,0-.48a.64.64,0,0,0-.06-.3.33.33,0,0,0-.17-.16,1,1,0,0,0-.32-.09v-.25l1.08,0H53Z"/><path d="M55.62,165.87l.26-.1a.49.49,0,0,0,.13-.12.67.67,0,0,0,.08-.23,2.72,2.72,0,0,0,0-.48v-2c0-.2,0-.36,0-.48a1.05,1.05,0,0,0-.06-.3.37.37,0,0,0-.17-.16,1.1,1.1,0,0,0-.33-.09v-.25l1.08,0h.29v3.35a3.51,3.51,0,0,0,0,.56.42.42,0,0,0,.15.23.83.83,0,0,0,.34.15v.23H55.62Zm1.32-6.09v.91h-.85v-.91Z"/><path d="M61,165.43l-.07,0a3,3,0,0,1-.76.59,1.8,1.8,0,0,1-.76.17,1.26,1.26,0,0,1-.62-.14,1,1,0,0,1-.41-.38,1.11,1.11,0,0,1-.14-.58A1.16,1.16,0,0,1,58.9,164a4.63,4.63,0,0,1,2-.43v-.31a2.32,2.32,0,0,0-.1-.77.74.74,0,0,0-.29-.41A.93.93,0,0,0,60,162a.88.88,0,0,0-.58.19,1.13,1.13,0,0,0-.33.58h-.61v-.61a5,5,0,0,1,.74-.34,3.59,3.59,0,0,1,.59-.18,3.08,3.08,0,0,1,.61-.06,1.52,1.52,0,0,1,.73.15.92.92,0,0,1,.42.45,2.36,2.36,0,0,1,.14.92v1.63c0,.23,0,.39,0,.49a2.11,2.11,0,0,0,0,.26.77.77,0,0,0,.07.2.42.42,0,0,0,.14.12l.29.11v.23H61ZM60.91,164a3.32,3.32,0,0,0-1.41.25A.79.79,0,0,0,59,165a.66.66,0,0,0,.11.42.52.52,0,0,0,.26.21,1.14,1.14,0,0,0,.39.06,1.1,1.1,0,0,0,.57-.15,1.15,1.15,0,0,0,.4-.39.9.9,0,0,0,.15-.48Z"/><path d="M72.35,162.64h-.44a1.41,1.41,0,0,0-.25-.44.66.66,0,0,0-.31-.22,1.11,1.11,0,0,0-.43-.07.89.89,0,0,0-.59.18.55.55,0,0,0-.22.47.74.74,0,0,0,.08.36.89.89,0,0,0,.28.26,4.12,4.12,0,0,0,.65.33,3.69,3.69,0,0,1,.73.38,1.42,1.42,0,0,1,.41.4,1.07,1.07,0,0,1,.14.55,1.46,1.46,0,0,1-.12.62,1,1,0,0,1-.36.41,1.32,1.32,0,0,1-.54.23,2.84,2.84,0,0,1-.68.07,4.77,4.77,0,0,1-.76-.06c-.24,0-.48-.09-.71-.15v-1h.45a1.21,1.21,0,0,0,.38.63,1,1,0,0,0,.67.19l.33,0a1.26,1.26,0,0,0,.29-.12.51.51,0,0,0,.19-.22.85.85,0,0,0,0-.74,1.11,1.11,0,0,0-.29-.28,5.82,5.82,0,0,0-.69-.33,4.66,4.66,0,0,1-.68-.35,1.27,1.27,0,0,1-.4-.4,1,1,0,0,1-.14-.54,1.15,1.15,0,0,1,.2-.67,1.29,1.29,0,0,1,.6-.43,2.52,2.52,0,0,1,.91-.15,5.88,5.88,0,0,1,.6,0c.19,0,.42.06.71.12Z"/><path d="M77.08,165.3a3.81,3.81,0,0,1-.55.49,2,2,0,0,1-1.19.38,1.79,1.79,0,0,1-1.45-.58,2.59,2.59,0,0,1-.48-1.7,3,3,0,0,1,.24-1.24,1.88,1.88,0,0,1,1.77-1.11,1.94,1.94,0,0,1,.8.15,1.34,1.34,0,0,1,.52.41,1.84,1.84,0,0,1,.31.66,4.47,4.47,0,0,1,.12,1H74.25v.08a3.09,3.09,0,0,0,.12.93,1.15,1.15,0,0,0,.41.59,1.17,1.17,0,0,0,.73.22,1.51,1.51,0,0,0,.68-.15,2,2,0,0,0,.61-.46Zm-.78-1.9a4.1,4.1,0,0,0-.12-.83,1.14,1.14,0,0,0-.3-.49.77.77,0,0,0-.51-.17.89.89,0,0,0-.76.39,2.11,2.11,0,0,0-.34,1.1Z"/><path d="M87.76,161.73v1h-.59a1.37,1.37,0,0,0-.19-.48.7.7,0,0,0-.27-.25.86.86,0,0,0-.38-.07.88.88,0,0,0-.58.21,1.52,1.52,0,0,0-.39.64,3.26,3.26,0,0,0-.15,1.06,4,4,0,0,0,.06.72,1.53,1.53,0,0,0,.19.57.93.93,0,0,0,.35.36,1.08,1.08,0,0,0,.56.14,1.45,1.45,0,0,0,.59-.13,1.72,1.72,0,0,0,.58-.45l.26.31a3.88,3.88,0,0,1-.42.41A3,3,0,0,1,87,166a2.49,2.49,0,0,1-.41.14,2.06,2.06,0,0,1-.44,0,1.58,1.58,0,0,1-1.34-.59,2.66,2.66,0,0,1-.47-1.69,2.79,2.79,0,0,1,.26-1.23,2,2,0,0,1,.73-.83,2,2,0,0,1,1.08-.29,5.23,5.23,0,0,1,.71,0A3.71,3.71,0,0,1,87.76,161.73Z"/><path d="M92.25,165.3a3.81,3.81,0,0,1-.55.49,2,2,0,0,1-1.2.38,1.78,1.78,0,0,1-1.44-.58,2.59,2.59,0,0,1-.48-1.7,3,3,0,0,1,.24-1.24,1.9,1.9,0,0,1,.71-.82,2,2,0,0,1,1.06-.29,1.94,1.94,0,0,1,.8.15,1.34,1.34,0,0,1,.52.41,1.84,1.84,0,0,1,.31.66,4.47,4.47,0,0,1,.12,1H89.42v.08a3.09,3.09,0,0,0,.12.93,1.15,1.15,0,0,0,.41.59,1.17,1.17,0,0,0,.73.22,1.51,1.51,0,0,0,.68-.15A2,2,0,0,0,92,165Zm-.78-1.9a3.44,3.44,0,0,0-.13-.83,1,1,0,0,0-.29-.49.77.77,0,0,0-.51-.17.89.89,0,0,0-.76.39,2.11,2.11,0,0,0-.34,1.1Z"/><path d="M97.74,166.1H95.91v-.23a1.58,1.58,0,0,0,.26-.1.41.41,0,0,0,.14-.12.67.67,0,0,0,.08-.23,2.67,2.67,0,0,0,0-.47v-1.23c0-.22,0-.42,0-.6a2.11,2.11,0,0,0-.06-.43.88.88,0,0,0-.11-.27.61.61,0,0,0-.15-.17.57.57,0,0,0-.19-.1.87.87,0,0,0-.3,0,.8.8,0,0,0-.34.07,1.54,1.54,0,0,0-.64.6.87.87,0,0,0-.09.4v1.75a3.21,3.21,0,0,0,0,.56.36.36,0,0,0,.14.23.83.83,0,0,0,.34.15v.23H93.22v-.23a1.58,1.58,0,0,0,.26-.1.37.37,0,0,0,.13-.12.51.51,0,0,0,.08-.23,2.51,2.51,0,0,0,0-.48v-2c0-.2,0-.36,0-.48a.78.78,0,0,0-.07-.3.33.33,0,0,0-.17-.16,1,1,0,0,0-.32-.09v-.25l1.08,0h.29l0,.76.06,0a4.22,4.22,0,0,1,.56-.5,1.75,1.75,0,0,1,.42-.23,1.22,1.22,0,0,1,.46-.09,1.53,1.53,0,0,1,.45.06,1,1,0,0,1,.34.18,1,1,0,0,1,.25.31,1.28,1.28,0,0,1,.15.43,3.69,3.69,0,0,1,0,.64v1.77a2.91,2.91,0,0,0,0,.47.58.58,0,0,0,.06.22.35.35,0,0,0,.14.13,1,1,0,0,0,.3.12Z"/><path d="M98.3,161.85a.89.89,0,0,0,.37-.13.66.66,0,0,0,.23-.24,1.46,1.46,0,0,0,.12-.37c0-.15.07-.36.1-.65h.66v1.16h1.5v.47h-1.5v2.09a4.67,4.67,0,0,0,0,.72.9.9,0,0,0,.14.42.54.54,0,0,0,.23.22.77.77,0,0,0,.33.07.82.82,0,0,0,.35-.08,1.53,1.53,0,0,0,.32-.22l.21.25a2.7,2.7,0,0,1-.63.47,1.43,1.43,0,0,1-.61.14,1.1,1.1,0,0,1-.89-.36,1.79,1.79,0,0,1-.29-1.12v-2.6H98.3Z"/><path d="M103.09,162.4h.06a3.21,3.21,0,0,1,.48-.49,1.5,1.5,0,0,1,.47-.28,1.48,1.48,0,0,1,.57-.1,3.68,3.68,0,0,1,.49,0v1.07h-.53a1.06,1.06,0,0,0-.23-.36.5.5,0,0,0-.35-.12.7.7,0,0,0-.33.1,1.4,1.4,0,0,0-.32.29,1.2,1.2,0,0,0-.21.35,1.14,1.14,0,0,0-.06.39v1.64a1.86,1.86,0,0,0,.06.58.43.43,0,0,0,.16.24,1.07,1.07,0,0,0,.36.12v.23h-1.87v-.23l.25-.1a.53.53,0,0,0,.14-.12.67.67,0,0,0,.08-.23,2.72,2.72,0,0,0,0-.48v-2c0-.2,0-.36,0-.48a.78.78,0,0,0-.07-.3.3.3,0,0,0-.17-.16,1,1,0,0,0-.32-.09v-.25l1.09,0h.28Z"/><path d="M108.49,165.43l-.07,0a2.85,2.85,0,0,1-.76.59,1.72,1.72,0,0,1-.75.17,1.26,1.26,0,0,1-.62-.14,1,1,0,0,1-.41-.38,1.11,1.11,0,0,1-.15-.58,1.17,1.17,0,0,1,.67-1.06,4.7,4.7,0,0,1,2-.43v-.31a2.66,2.66,0,0,0-.09-.77.79.79,0,0,0-.29-.41.93.93,0,0,0-.53-.13.91.91,0,0,0-.59.19,1.29,1.29,0,0,0-.33.58H106v-.61a5.49,5.49,0,0,1,.75-.34,3.09,3.09,0,0,1,.59-.18,3.05,3.05,0,0,1,.6-.06,1.54,1.54,0,0,1,.74.15.92.92,0,0,1,.42.45,2.36,2.36,0,0,1,.14.92v2.12a1.09,1.09,0,0,0,0,.26.77.77,0,0,0,.07.2.42.42,0,0,0,.14.12,1.63,1.63,0,0,0,.29.11v.23h-1.27Zm-.08-1.47a3.39,3.39,0,0,0-1.41.25.79.79,0,0,0-.46.74.73.73,0,0,0,.1.42.5.5,0,0,0,.27.21,1.14,1.14,0,0,0,.39.06,1.1,1.1,0,0,0,.57-.15,1.24,1.24,0,0,0,.4-.39.88.88,0,0,0,.14-.48Z"/><path d="M120.46,165.3a3.81,3.81,0,0,1-.55.49,2.13,2.13,0,0,1-.54.28,2,2,0,0,1-.66.1,1.76,1.76,0,0,1-1.44-.58,2.54,2.54,0,0,1-.49-1.7,3,3,0,0,1,.25-1.24,1.9,1.9,0,0,1,.71-.82,2,2,0,0,1,1.06-.29,1.89,1.89,0,0,1,.79.15,1.37,1.37,0,0,1,.53.41,2,2,0,0,1,.31.66,4.47,4.47,0,0,1,.12,1h-2.92v.08a3.09,3.09,0,0,0,.12.93,1.1,1.1,0,0,0,1.13.81,1.52,1.52,0,0,0,.69-.15,2,2,0,0,0,.6-.46Zm-.78-1.9a3.44,3.44,0,0,0-.13-.83,1,1,0,0,0-.29-.49.77.77,0,0,0-.51-.17.89.89,0,0,0-.76.39,2,2,0,0,0-.34,1.1Z"/><path d="M126,166.1h-1.83v-.23a1.58,1.58,0,0,0,.26-.1.37.37,0,0,0,.13-.12.5.5,0,0,0,.09-.23,2.67,2.67,0,0,0,0-.47v-1.23c0-.22,0-.42,0-.6a2.11,2.11,0,0,0-.06-.43.88.88,0,0,0-.11-.27.61.61,0,0,0-.15-.17.63.63,0,0,0-.2-.1.78.78,0,0,0-.29,0,.8.8,0,0,0-.34.07,1.54,1.54,0,0,0-.64.6.87.87,0,0,0-.09.4v1.75a2.44,2.44,0,0,0,0,.56.36.36,0,0,0,.14.23.83.83,0,0,0,.34.15v.23h-1.82v-.23a1.58,1.58,0,0,0,.26-.1.49.49,0,0,0,.13-.12.67.67,0,0,0,.08-.23,2.72,2.72,0,0,0,0-.48v-2c0-.2,0-.36,0-.48a.64.64,0,0,0-.06-.3.37.37,0,0,0-.17-.16,1,1,0,0,0-.32-.09v-.25l1.08,0h.28l0,.76.07,0a5,5,0,0,1,.55-.5,1.8,1.8,0,0,1,.43-.23,1.18,1.18,0,0,1,.46-.09,1.51,1.51,0,0,1,.44.06,1,1,0,0,1,.35.18,1,1,0,0,1,.25.31,1.55,1.55,0,0,1,.15.43,3.69,3.69,0,0,1,.05.64v1.77c0,.21,0,.37,0,.47a.81.81,0,0,0,.07.22.33.33,0,0,0,.13.13,1.1,1.1,0,0,0,.31.12Z"/><path d="M136.74,165.3a3.81,3.81,0,0,1-.55.49,2,2,0,0,1-1.19.38,1.79,1.79,0,0,1-1.45-.58,2.59,2.59,0,0,1-.48-1.7,3,3,0,0,1,.24-1.24,1.9,1.9,0,0,1,.71-.82,2,2,0,0,1,1.06-.29,1.94,1.94,0,0,1,.8.15,1.34,1.34,0,0,1,.52.41,1.84,1.84,0,0,1,.31.66,4.47,4.47,0,0,1,.12,1h-2.92v.08a3.09,3.09,0,0,0,.12.93,1.15,1.15,0,0,0,.41.59,1.17,1.17,0,0,0,.73.22,1.51,1.51,0,0,0,.68-.15,2,2,0,0,0,.61-.46Zm-.78-1.9a3.44,3.44,0,0,0-.13-.83,1,1,0,0,0-.29-.49.77.77,0,0,0-.51-.17.89.89,0,0,0-.76.39,2.11,2.11,0,0,0-.34,1.1Z"/><path d="M139,164.93a2.44,2.44,0,0,0,0,.56.36.36,0,0,0,.14.23.83.83,0,0,0,.34.15v.23h-1.84v-.23a1,1,0,0,0,.32-.13.29.29,0,0,0,.13-.16.7.7,0,0,0,.06-.24c0-.11,0-.24,0-.41v-4.55a2,2,0,0,0,0-.3.64.64,0,0,0-.08-.2.42.42,0,0,0-.15-.11,1.46,1.46,0,0,0-.32-.09v-.24l1.11-.05H139Z"/><path d="M18.56,173.24v1H18a1.82,1.82,0,0,0-.2-.48.59.59,0,0,0-.27-.25,1,1,0,0,0-.38-.07.87.87,0,0,0-.57.21,1.44,1.44,0,0,0-.4.64,3.28,3.28,0,0,0-.14,1.06,4.19,4.19,0,0,0,0,.73,1.68,1.68,0,0,0,.19.56,1,1,0,0,0,.36.37,1.15,1.15,0,0,0,.55.13,1.38,1.38,0,0,0,.6-.13,1.9,1.9,0,0,0,.57-.44l.26.31a3,3,0,0,1-.41.4,1.58,1.58,0,0,1-.39.24,2.21,2.21,0,0,1-.41.14,2,2,0,0,1-.44.05,1.62,1.62,0,0,1-1.34-.59,3.23,3.23,0,0,1-.2-2.93,1.91,1.91,0,0,1,.73-.83,2,2,0,0,1,1.08-.29,5.12,5.12,0,0,1,.7,0A4,4,0,0,1,18.56,173.24Z"/><path d="M22,176.94l-.07,0a2.66,2.66,0,0,1-.76.59,1.66,1.66,0,0,1-.75.18,1.39,1.39,0,0,1-.63-.14,1,1,0,0,1-.41-.39,1.21,1.21,0,0,1-.14-.58,1.16,1.16,0,0,1,.67-1.06,4.7,4.7,0,0,1,2-.43v-.3a2.57,2.57,0,0,0-.09-.77.73.73,0,0,0-.3-.41.92.92,0,0,0-.53-.14.85.85,0,0,0-.58.2,1.09,1.09,0,0,0-.33.57H19.5v-.61a7.06,7.06,0,0,1,.74-.34,4.5,4.5,0,0,1,.6-.17,2.35,2.35,0,0,1,.6-.07,1.6,1.6,0,0,1,.74.15,1,1,0,0,1,.41.45,2.19,2.19,0,0,1,.14.92v1.63c0,.23,0,.39,0,.49a1.09,1.09,0,0,0,0,.26.47.47,0,0,0,.06.2.41.41,0,0,0,.14.12,1.2,1.2,0,0,0,.3.11v.23H22Zm-.08-1.47a3.15,3.15,0,0,0-1.41.26.78.78,0,0,0-.47.73.72.72,0,0,0,.11.42.52.52,0,0,0,.27.22,1,1,0,0,0,.38.06,1.2,1.2,0,0,0,1-.55,1,1,0,0,0,.14-.48Z"/><path d="M25.28,173.85l.06,0c.19-.18.34-.33.46-.42a2,2,0,0,1,.34-.23,1.66,1.66,0,0,1,.32-.13,1.39,1.39,0,0,1,.3,0,1.26,1.26,0,0,1,.75.21,1.17,1.17,0,0,1,.41.66,7.14,7.14,0,0,1,.56-.52,1.82,1.82,0,0,1,.44-.26,1.28,1.28,0,0,1,.48-.09,1.45,1.45,0,0,1,.54.09.88.88,0,0,1,.38.28,1.26,1.26,0,0,1,.23.48,3.11,3.11,0,0,1,.07.76v1.77a4.72,4.72,0,0,0,0,.49.73.73,0,0,0,.07.21.4.4,0,0,0,.13.13,1.2,1.2,0,0,0,.3.11v.23H29.32v-.23l.26-.1a.69.69,0,0,0,.13-.11.74.74,0,0,0,.08-.24,2.67,2.67,0,0,0,0-.47v-1.23c0-.26,0-.48,0-.66a1.89,1.89,0,0,0-.06-.41.84.84,0,0,0-.11-.25.67.67,0,0,0-.14-.15.57.57,0,0,0-.19-.1.72.72,0,0,0-.28,0,.84.84,0,0,0-.35.07,1.4,1.4,0,0,0-.34.26,1.26,1.26,0,0,0-.28.36,1.08,1.08,0,0,0-.08.42v1.71a4.72,4.72,0,0,0,0,.49.73.73,0,0,0,.07.21.53.53,0,0,0,.13.13,1.2,1.2,0,0,0,.3.11v.23H26.67v-.23l.26-.1a.69.69,0,0,0,.13-.11.56.56,0,0,0,.08-.24,2.67,2.67,0,0,0,0-.47v-1.23a6.65,6.65,0,0,0,0-.68,3,3,0,0,0-.07-.42.79.79,0,0,0-.13-.26,1.06,1.06,0,0,0-.15-.15l-.19-.08-.24,0a.74.74,0,0,0-.36.09,1.4,1.4,0,0,0-.34.25,1.34,1.34,0,0,0-.26.34.85.85,0,0,0-.09.38v1.76a4,4,0,0,0,0,.41,1.09,1.09,0,0,0,0,.22.57.57,0,0,0,.08.13.48.48,0,0,0,.13.09,1.26,1.26,0,0,0,.26.09v.23H24v-.23l.25-.1a.47.47,0,0,0,.13-.11.55.55,0,0,0,.09-.23,3.19,3.19,0,0,0,0-.49v-2.52a.73.73,0,0,0-.07-.29.35.35,0,0,0-.17-.17,1.9,1.9,0,0,0-.32-.09v-.25l1.08,0h.29Z"/><path d="M33.14,173.87h0a4.08,4.08,0,0,1,.54-.49,1.64,1.64,0,0,1,.45-.24,1.35,1.35,0,0,1,.5-.08,1.4,1.4,0,0,1,.85.25,1.61,1.61,0,0,1,.55.77,3.54,3.54,0,0,1,.19,1.25,3.1,3.1,0,0,1-.23,1.29,1.72,1.72,0,0,1-.67.8,2,2,0,0,1-1.06.27,3.32,3.32,0,0,1-.65-.07,2.56,2.56,0,0,1-.64-.22l-.32.29-.32-.08v-5.09c0-.3,0-.51,0-.63a2,2,0,0,0,0-.3.76.76,0,0,0-.08-.2.53.53,0,0,0-.14-.11,1.75,1.75,0,0,0-.33-.08V171l1.12,0h.27Zm0,2a4.14,4.14,0,0,0,0,.58.85.85,0,0,0,.11.35.77.77,0,0,0,.22.26.78.78,0,0,0,.33.16,1.62,1.62,0,0,0,.4,0,.94.94,0,0,0,.84-.46,2.68,2.68,0,0,0,.29-1.38,3,3,0,0,0-.26-1.39.85.85,0,0,0-.79-.47,1.17,1.17,0,0,0-.45.08,1.25,1.25,0,0,0-.37.26,1.34,1.34,0,0,0-.27.34.79.79,0,0,0-.09.38Z"/><path d="M37.22,177.38a1.58,1.58,0,0,0,.26-.1.69.69,0,0,0,.13-.11.56.56,0,0,0,.08-.23,2.93,2.93,0,0,0,0-.49v-2c0-.2,0-.36,0-.48a.6.6,0,0,0-.06-.29.35.35,0,0,0-.17-.17l-.32-.09v-.25l1.08,0h.28v3.35a2.44,2.44,0,0,0,0,.56.42.42,0,0,0,.14.24,1,1,0,0,0,.34.14v.23H37.22Zm1.33-6.08v.9H37.7v-.9Z"/><path d="M41.93,177.69a1.85,1.85,0,0,1-1.47-.58,2.49,2.49,0,0,1-.51-1.7,3,3,0,0,1,.26-1.3,1.9,1.9,0,0,1,.73-.8,2.19,2.19,0,0,1,1.06-.26,1.89,1.89,0,0,1,1.5.59,2.39,2.39,0,0,1,.52,1.67,3,3,0,0,1-.26,1.31,1.76,1.76,0,0,1-.72.8A2.23,2.23,0,0,1,41.93,177.69Zm-1.11-2.38a2.9,2.9,0,0,0,.31,1.49,1,1,0,0,0,.87.52,1,1,0,0,0,.53-.16,1.18,1.18,0,0,0,.35-.41,2,2,0,0,0,.2-.59,4.17,4.17,0,0,0,.06-.71A3.77,3.77,0,0,0,43,174.3a1.41,1.41,0,0,0-.41-.66.89.89,0,0,0-.6-.22,1,1,0,0,0-.86.49A2.72,2.72,0,0,0,40.82,175.31Z"/><path d="M53.55,177.69a1.88,1.88,0,0,1-1.47-.58,2.49,2.49,0,0,1-.51-1.7,2.84,2.84,0,0,1,.27-1.3,1.84,1.84,0,0,1,.73-.8,2.16,2.16,0,0,1,1.06-.26,1.89,1.89,0,0,1,1.5.59,2.44,2.44,0,0,1,.51,1.67,3,3,0,0,1-.26,1.31,1.76,1.76,0,0,1-.72.8A2.17,2.17,0,0,1,53.55,177.69Zm-1.1-2.38a3,3,0,0,0,.3,1.49,1,1,0,0,0,.87.52.92.92,0,0,0,.53-.16,1.08,1.08,0,0,0,.35-.41,1.79,1.79,0,0,0,.2-.59,4.17,4.17,0,0,0,.06-.71,3.77,3.77,0,0,0-.15-1.15,1.41,1.41,0,0,0-.41-.66.87.87,0,0,0-.59-.22,1,1,0,0,0-.86.49A2.72,2.72,0,0,0,52.45,175.31Z"/><path d="M62.88,173.37a1.21,1.21,0,0,0,.38-.13.75.75,0,0,0,.22-.25,1.32,1.32,0,0,0,.13-.37c0-.14.06-.36.1-.64h.65v1.15h1.5v.48h-1.5v2.08a6.42,6.42,0,0,0,0,.72,1.14,1.14,0,0,0,.14.43.64.64,0,0,0,.23.21.69.69,0,0,0,.34.07.77.77,0,0,0,.34-.08,1.31,1.31,0,0,0,.32-.22l.21.25a2.41,2.41,0,0,1-.62.47,1.34,1.34,0,0,1-.61.15,1.07,1.07,0,0,1-.89-.36,1.76,1.76,0,0,1-.29-1.13v-2.59h-.69Z"/><path d="M67.67,173.91h.07a3.75,3.75,0,0,1,.47-.49,1.89,1.89,0,0,1,.47-.28,1.7,1.7,0,0,1,.57-.1,3.58,3.58,0,0,1,.49,0v1.08h-.52a1.31,1.31,0,0,0-.24-.37.47.47,0,0,0-.34-.11.68.68,0,0,0-.33.09,1.22,1.22,0,0,0-.32.29,1.2,1.2,0,0,0-.21.35,1.14,1.14,0,0,0-.06.39v1.64a2.53,2.53,0,0,0,0,.59.4.4,0,0,0,.17.23,1.09,1.09,0,0,0,.35.12v.23H66.42v-.23a1.58,1.58,0,0,0,.26-.1.69.69,0,0,0,.13-.11.56.56,0,0,0,.08-.23,2.93,2.93,0,0,0,0-.49v-2c0-.2,0-.36,0-.48a.74.74,0,0,0-.06-.29.4.4,0,0,0-.17-.17l-.33-.09v-.24l1.09,0h.28Z"/><path d="M73.08,176.94l-.07,0a2.66,2.66,0,0,1-.76.59,1.66,1.66,0,0,1-.75.18,1.39,1.39,0,0,1-.63-.14,1,1,0,0,1-.41-.39,1.21,1.21,0,0,1-.14-.58,1.16,1.16,0,0,1,.67-1.06,4.63,4.63,0,0,1,2-.43v-.3a2.57,2.57,0,0,0-.09-.77.73.73,0,0,0-.3-.41.92.92,0,0,0-.53-.14.83.83,0,0,0-.58.2,1.09,1.09,0,0,0-.33.57h-.61v-.61a7.06,7.06,0,0,1,.74-.34,4.83,4.83,0,0,1,.59-.17,2.48,2.48,0,0,1,.61-.07,1.6,1.6,0,0,1,.74.15,1,1,0,0,1,.41.45,2.19,2.19,0,0,1,.14.92v1.63c0,.23,0,.39,0,.49a2.11,2.11,0,0,0,0,.26.66.66,0,0,0,.07.2.33.33,0,0,0,.14.12,1.2,1.2,0,0,0,.3.11v.23H73.05ZM73,175.47a3.15,3.15,0,0,0-1.41.26.78.78,0,0,0-.47.73.72.72,0,0,0,.11.42.52.52,0,0,0,.27.22,1,1,0,0,0,.38.06,1.11,1.11,0,0,0,.57-.16,1.07,1.07,0,0,0,.4-.39.9.9,0,0,0,.15-.48Z"/><path d="M79.6,177.61H77.77v-.23a1.58,1.58,0,0,0,.26-.1.36.36,0,0,0,.13-.11.55.55,0,0,0,.09-.24,2.67,2.67,0,0,0,0-.47v-1.23c0-.22,0-.42,0-.59a2.22,2.22,0,0,0-.06-.44.88.88,0,0,0-.11-.27.57.57,0,0,0-.15-.16.59.59,0,0,0-.19-.11.87.87,0,0,0-.3,0,.8.8,0,0,0-.34.07,1.54,1.54,0,0,0-.64.6.87.87,0,0,0-.09.4v1.75a2.44,2.44,0,0,0,0,.56.42.42,0,0,0,.14.24,1,1,0,0,0,.34.14v.23H75.08v-.23a1.58,1.58,0,0,0,.26-.1.69.69,0,0,0,.13-.11.56.56,0,0,0,.08-.23,2.93,2.93,0,0,0,0-.49v-2c0-.2,0-.36,0-.48a.6.6,0,0,0-.06-.29.35.35,0,0,0-.17-.17l-.32-.09v-.25l1.08,0h.29l-.06.76.07,0a5,5,0,0,1,.55-.5,2,2,0,0,1,.43-.23,1.17,1.17,0,0,1,.46-.08,1.63,1.63,0,0,1,.45.06.75.75,0,0,1,.34.18.91.91,0,0,1,.25.3A1.28,1.28,0,0,1,79,174a3.69,3.69,0,0,1,0,.64v1.77a2.91,2.91,0,0,0,0,.47.58.58,0,0,0,.06.22.44.44,0,0,0,.13.14l.31.11Z"/><path d="M83.54,174.16h-.45a1.2,1.2,0,0,0-.24-.45.74.74,0,0,0-.31-.22,1.11,1.11,0,0,0-.43-.07.89.89,0,0,0-.59.18.57.57,0,0,0-.23.48.63.63,0,0,0,.09.35.81.81,0,0,0,.28.27,4.31,4.31,0,0,0,.65.32,4.32,4.32,0,0,1,.73.38,1.27,1.27,0,0,1,.4.4,1,1,0,0,1,.15.55,1.43,1.43,0,0,1-.12.62,1.22,1.22,0,0,1-.36.42,1.66,1.66,0,0,1-.54.23,3.55,3.55,0,0,1-.68.07,4.77,4.77,0,0,1-.76-.06,5.62,5.62,0,0,1-.71-.16v-1h.45a1.28,1.28,0,0,0,.37.62,1.08,1.08,0,0,0,.68.2,1.86,1.86,0,0,0,.33,0,.7.7,0,0,0,.28-.12.53.53,0,0,0,.2-.22.72.72,0,0,0,.08-.35.67.67,0,0,0-.1-.39.81.81,0,0,0-.28-.27,4.36,4.36,0,0,0-.69-.34,3.85,3.85,0,0,1-.68-.35,1.36,1.36,0,0,1-.4-.39,1,1,0,0,1-.14-.55,1.06,1.06,0,0,1,.2-.66,1.31,1.31,0,0,1,.6-.44,2.52,2.52,0,0,1,.91-.15,5.54,5.54,0,0,1,.59,0q.29,0,.72.12Z"/><path d="M84.56,177.38a1.58,1.58,0,0,0,.26-.1.69.69,0,0,0,.13-.11.76.76,0,0,0,.08-.23,2.93,2.93,0,0,0,0-.49v-2c0-.2,0-.36,0-.48a.6.6,0,0,0-.06-.29.4.4,0,0,0-.17-.17l-.32-.09v-.25l1.08,0h.28v3.35a2.44,2.44,0,0,0,0,.56.42.42,0,0,0,.14.24,1,1,0,0,0,.34.14v.23H84.56Zm1.33-6.08v.9H85v-.9Z"/><path d="M90.7,173.24v1h-.59a1.55,1.55,0,0,0-.19-.48.7.7,0,0,0-.27-.25,1,1,0,0,0-.38-.07.84.84,0,0,0-.57.21,1.44,1.44,0,0,0-.4.64,3.26,3.26,0,0,0-.15,1.06,4.15,4.15,0,0,0,.06.73,1.68,1.68,0,0,0,.19.56,1,1,0,0,0,.36.37,1.12,1.12,0,0,0,.55.13,1.31,1.31,0,0,0,.59-.13,1.82,1.82,0,0,0,.58-.44l.26.31a3.66,3.66,0,0,1-.42.4,1.73,1.73,0,0,1-.38.24,2.49,2.49,0,0,1-.41.14,2,2,0,0,1-.44.05,1.62,1.62,0,0,1-1.34-.59,3.23,3.23,0,0,1-.2-2.93,2,2,0,0,1,.72-.83,2.08,2.08,0,0,1,1.08-.29,5.16,5.16,0,0,1,.71,0A3.67,3.67,0,0,1,90.7,173.24Z"/><path d="M91.48,177.38a1.58,1.58,0,0,0,.26-.1.47.47,0,0,0,.13-.11.73.73,0,0,0,.09-.23,2.93,2.93,0,0,0,0-.49v-2c0-.2,0-.36,0-.48a.73.73,0,0,0-.07-.29.35.35,0,0,0-.17-.17,1.9,1.9,0,0,0-.32-.09v-.25l1.08,0h.28v3.35a3.21,3.21,0,0,0,0,.56.48.48,0,0,0,.14.24,1,1,0,0,0,.34.14v.23H91.48Zm1.33-6.08v.9H92v-.9Z"/><path d="M96.19,177.69a1.88,1.88,0,0,1-1.47-.58,2.49,2.49,0,0,1-.51-1.7,2.84,2.84,0,0,1,.27-1.3,1.78,1.78,0,0,1,.73-.8,2.15,2.15,0,0,1,1.05-.26,1.89,1.89,0,0,1,1.51.59,2.44,2.44,0,0,1,.51,1.67,3,3,0,0,1-.26,1.31,1.76,1.76,0,0,1-.72.8A2.17,2.17,0,0,1,96.19,177.69Zm-1.1-2.38a3,3,0,0,0,.3,1.49,1,1,0,0,0,.87.52.92.92,0,0,0,.53-.16,1.18,1.18,0,0,0,.35-.41,2,2,0,0,0,.2-.59,4.17,4.17,0,0,0,.06-.71,3.77,3.77,0,0,0-.15-1.15,1.41,1.41,0,0,0-.41-.66.87.87,0,0,0-.59-.22,1,1,0,0,0-.87.49A2.73,2.73,0,0,0,95.09,175.31Zm2.32-4.46v.24l-1.47,1.51-.3-.25,1-1.5Z"/><path d="M103.78,177.61H102v-.23a1.58,1.58,0,0,0,.26-.1.47.47,0,0,0,.13-.11.55.55,0,0,0,.09-.24,2.67,2.67,0,0,0,0-.47v-1.23c0-.22,0-.42,0-.59a2.22,2.22,0,0,0-.06-.44.88.88,0,0,0-.11-.27.57.57,0,0,0-.15-.16.64.64,0,0,0-.2-.11.78.78,0,0,0-.29,0,.8.8,0,0,0-.34.07,1.54,1.54,0,0,0-.64.6.87.87,0,0,0-.09.4v1.75a2.44,2.44,0,0,0,0,.56.42.42,0,0,0,.14.24,1,1,0,0,0,.34.14v.23H99.26v-.23a1.58,1.58,0,0,0,.26-.1.69.69,0,0,0,.13-.11.76.76,0,0,0,.08-.23,2.93,2.93,0,0,0,0-.49v-2c0-.2,0-.36,0-.48a.6.6,0,0,0-.06-.29.4.4,0,0,0-.17-.17l-.32-.09v-.25l1.08,0h.28l0,.76.07,0a5,5,0,0,1,.55-.5,1.8,1.8,0,0,1,.43-.23,1.17,1.17,0,0,1,.46-.08,1.51,1.51,0,0,1,.44.06.73.73,0,0,1,.35.18.91.91,0,0,1,.25.3,2,2,0,0,1,.15.43,3.82,3.82,0,0,1,0,.64v1.77c0,.21,0,.37,0,.47a.81.81,0,0,0,.07.22.35.35,0,0,0,.13.14,1.68,1.68,0,0,0,.31.11Z"/><path d="M114.85,176.81a4.61,4.61,0,0,1-.54.5,2.16,2.16,0,0,1-.55.27,1.93,1.93,0,0,1-.65.11,1.82,1.82,0,0,1-1.45-.58,2.64,2.64,0,0,1-.48-1.71,2.79,2.79,0,0,1,.25-1.23,1.91,1.91,0,0,1,.7-.83,2,2,0,0,1,1.06-.29,1.94,1.94,0,0,1,.8.15,1.34,1.34,0,0,1,.52.41,1.76,1.76,0,0,1,.31.66,4.55,4.55,0,0,1,.12,1H112v.09a3.18,3.18,0,0,0,.12.93,1.26,1.26,0,0,0,.41.59,1.17,1.17,0,0,0,.73.21A1.65,1.65,0,0,0,114,177a2.28,2.28,0,0,0,.61-.47Zm-.78-1.9a3.88,3.88,0,0,0-.12-.82,1.12,1.12,0,0,0-.3-.5.77.77,0,0,0-.51-.17.9.9,0,0,0-.76.39,2.14,2.14,0,0,0-.34,1.1Z"/><path d="M117.79,174.91l.6-.78a1.11,1.11,0,0,0,.16-.24.54.54,0,0,0,.06-.25.25.25,0,0,0-.08-.18.54.54,0,0,0-.25-.1v-.23h1.52v.23a1.08,1.08,0,0,0-.36.2,3.3,3.3,0,0,0-.45.49l-1,1.19,1.06,1.43a3.12,3.12,0,0,0,.41.48,1.21,1.21,0,0,0,.36.23v.23H118v-.23c.25,0,.38-.13.38-.29a.58.58,0,0,0,0-.19.62.62,0,0,0-.12-.2l-.67-.95-.72.94a1.45,1.45,0,0,0-.12.19.38.38,0,0,0,0,.19.26.26,0,0,0,.09.21.42.42,0,0,0,.27.1v.23h-1.55v-.23a1.22,1.22,0,0,0,.28-.14A2.32,2.32,0,0,0,116,177l.34-.39,1-1.21-1-1.37a3.64,3.64,0,0,0-.32-.4.92.92,0,0,0-.23-.19.54.54,0,0,0-.2-.1v-.23h1.82v.23c-.25,0-.37.14-.37.29a.59.59,0,0,0,0,.22,1.14,1.14,0,0,0,.15.24Z"/><path d="M121.72,177.47v1c0,.2,0,.35,0,.45a.67.67,0,0,0,.08.24.34.34,0,0,0,.15.14,1.43,1.43,0,0,0,.32.11v.22H120.4v-.22l.27-.1a.33.33,0,0,0,.16-.15.73.73,0,0,0,.08-.26c0-.11,0-.25,0-.43V174a1.19,1.19,0,0,0,0-.24.53.53,0,0,0-.08-.15.58.58,0,0,0-.15-.11l-.3-.08v-.25l1.09,0h.29l-.06.76.07,0c.19-.19.34-.34.45-.43a1.86,1.86,0,0,1,.35-.22,1.81,1.81,0,0,1,.34-.13,2,2,0,0,1,.35,0,1.36,1.36,0,0,1,1.18.58,2.93,2.93,0,0,1,.41,1.69,3.14,3.14,0,0,1-.24,1.3,1.64,1.64,0,0,1-.67.79,2,2,0,0,1-1.06.27,3,3,0,0,1-.62-.06A2.76,2.76,0,0,1,121.72,177.47Zm0-1.55a3.18,3.18,0,0,0,.06.7.81.81,0,0,0,.2.39.86.86,0,0,0,.33.23,1.43,1.43,0,0,0,.51.08.92.92,0,0,0,.84-.48,2.69,2.69,0,0,0,.28-1.38c0-1.23-.35-1.84-1.06-1.84a1,1,0,0,0-.82.35,1.26,1.26,0,0,0-.26.35.91.91,0,0,0-.08.37Z"/><path d="M129.5,176.81a3.93,3.93,0,0,1-.54.5,2.16,2.16,0,0,1-.55.27,1.88,1.88,0,0,1-.65.11,1.78,1.78,0,0,1-1.44-.58,2.58,2.58,0,0,1-.49-1.71,2.79,2.79,0,0,1,.25-1.23,1.86,1.86,0,0,1,.71-.83,1.92,1.92,0,0,1,1-.29,1.9,1.9,0,0,1,.8.15,1.37,1.37,0,0,1,.53.41,1.92,1.92,0,0,1,.3.66,4,4,0,0,1,.13,1h-2.93v.09a2.86,2.86,0,0,0,.13.93,1.18,1.18,0,0,0,.4.59,1.19,1.19,0,0,0,.73.21,1.74,1.74,0,0,0,.69-.14,2.24,2.24,0,0,0,.6-.47Zm-.78-1.9a3.32,3.32,0,0,0-.12-.82,1.1,1.1,0,0,0-.29-.5.77.77,0,0,0-.51-.17.91.91,0,0,0-.77.39,2,2,0,0,0-.33,1.1Z"/><path d="M131.73,173.91h.07a3.2,3.2,0,0,1,.47-.49,1.72,1.72,0,0,1,.47-.28,1.7,1.7,0,0,1,.57-.1,3.68,3.68,0,0,1,.49,0v1.08h-.52a1.31,1.31,0,0,0-.24-.37.47.47,0,0,0-.34-.11.69.69,0,0,0-.34.09,1.19,1.19,0,0,0-.31.29,1.06,1.06,0,0,0-.22.35,1.48,1.48,0,0,0-.05.39v1.64a2.07,2.07,0,0,0,.05.59.4.4,0,0,0,.17.23,1,1,0,0,0,.35.12v.23h-1.87v-.23l.26-.1a.69.69,0,0,0,.13-.11.56.56,0,0,0,.08-.23,2.93,2.93,0,0,0,0-.49v-2c0-.2,0-.36,0-.48a1,1,0,0,0-.06-.29.4.4,0,0,0-.17-.17l-.33-.09v-.24l1.09,0h.28Z"/><path d="M134.45,177.38a1.58,1.58,0,0,0,.26-.1.47.47,0,0,0,.13-.11.73.73,0,0,0,.09-.23,2.93,2.93,0,0,0,0-.49v-2c0-.2,0-.36,0-.48a.73.73,0,0,0-.07-.29.35.35,0,0,0-.17-.17,1.9,1.9,0,0,0-.32-.09v-.25l1.08,0h.28v3.35a3.21,3.21,0,0,0,0,.56.42.42,0,0,0,.14.24,1,1,0,0,0,.34.14v.23h-1.82Zm1.33-6.08v.9h-.85v-.9Z"/><path d="M139.34,175.51h-2.15v-.73h2.15Z"/><path d="M16.35,185.36l.07,0c.18-.18.34-.33.45-.42a2.09,2.09,0,0,1,.35-.23,1.22,1.22,0,0,1,.31-.12,1,1,0,0,1,.3,0,1.29,1.29,0,0,1,.76.21,1.16,1.16,0,0,1,.4.66,5.61,5.61,0,0,1,.57-.52,1.82,1.82,0,0,1,.44-.26,1.28,1.28,0,0,1,.48-.09,1.45,1.45,0,0,1,.54.09.94.94,0,0,1,.38.28,1.18,1.18,0,0,1,.22.48,3.07,3.07,0,0,1,.08.77V188a2.92,2.92,0,0,0,0,.49.73.73,0,0,0,.07.21.33.33,0,0,0,.13.13,1.2,1.2,0,0,0,.3.11v.23H20.39v-.23a1.58,1.58,0,0,0,.26-.1.3.3,0,0,0,.14-.11.76.76,0,0,0,.08-.23,2.88,2.88,0,0,0,0-.48v-1.23c0-.26,0-.48,0-.66a2.63,2.63,0,0,0-.07-.41.79.79,0,0,0-.1-.24,1.14,1.14,0,0,0-.15-.16.52.52,0,0,0-.18-.1.75.75,0,0,0-.28,0,.82.82,0,0,0-.35.08,1.36,1.36,0,0,0-.35.25,1.41,1.41,0,0,0-.27.36,1.08,1.08,0,0,0-.08.42V188a4.72,4.72,0,0,0,0,.49.73.73,0,0,0,.07.21.33.33,0,0,0,.13.13,1.2,1.2,0,0,0,.3.11v.23H17.74v-.23a1.28,1.28,0,0,0,.26-.1.3.3,0,0,0,.14-.11.76.76,0,0,0,.08-.23,2.88,2.88,0,0,0,0-.48v-1.23c0-.28,0-.5,0-.68a3,3,0,0,0-.07-.42,1.26,1.26,0,0,0-.13-.26.75.75,0,0,0-.16-.15.48.48,0,0,0-.18-.07.88.88,0,0,0-.24,0,.74.74,0,0,0-.36.09,1.73,1.73,0,0,0-.34.25,1.14,1.14,0,0,0-.26.34.85.85,0,0,0-.09.38V188c0,.18,0,.31,0,.41a.9.9,0,0,0,.05.22.54.54,0,0,0,.07.13.56.56,0,0,0,.14.09,1.13,1.13,0,0,0,.25.09v.23H15.11v-.23l.25-.1a.33.33,0,0,0,.13-.11.44.44,0,0,0,.08-.23,2.88,2.88,0,0,0,0-.48v-2.05c0-.2,0-.36,0-.48a.74.74,0,0,0-.06-.29.4.4,0,0,0-.17-.17l-.32-.09v-.25l1.08,0h.28Z"/><path d="M26.76,188.33a3.81,3.81,0,0,1-.55.49,2,2,0,0,1-.54.28,2.28,2.28,0,0,1-.66.1,1.81,1.81,0,0,1-1.44-.58,2.64,2.64,0,0,1-.49-1.71,3,3,0,0,1,.25-1.23,1.93,1.93,0,0,1,.71-.83,2,2,0,0,1,1.06-.29,1.94,1.94,0,0,1,.8.15,1.34,1.34,0,0,1,.52.41,2,2,0,0,1,.31.66,4.55,4.55,0,0,1,.12,1H23.93v.09a3.14,3.14,0,0,0,.12.93,1.19,1.19,0,0,0,.41.59,1.17,1.17,0,0,0,.73.21,1.65,1.65,0,0,0,.68-.14,2.23,2.23,0,0,0,.61-.47ZM26,186.42a3.35,3.35,0,0,0-.13-.82,1,1,0,0,0-.29-.49.72.72,0,0,0-.51-.18.89.89,0,0,0-.76.39,2.17,2.17,0,0,0-.34,1.1Z"/><path d="M32.25,189.12H30.43v-.23l.25-.1a.3.3,0,0,0,.14-.11.76.76,0,0,0,.08-.23,2.88,2.88,0,0,0,0-.48v-1.23c0-.22,0-.41,0-.59a2.22,2.22,0,0,0-.06-.44,1.16,1.16,0,0,0-.11-.27.57.57,0,0,0-.15-.16.59.59,0,0,0-.19-.11.84.84,0,0,0-.3,0,1,1,0,0,0-.34.07,1.39,1.39,0,0,0-.36.25,1.26,1.26,0,0,0-.28.36.8.8,0,0,0-.09.39V188a3.12,3.12,0,0,0,0,.56.48.48,0,0,0,.14.24,1,1,0,0,0,.34.14v.23H27.73v-.23a1.58,1.58,0,0,0,.26-.1.28.28,0,0,0,.13-.11.73.73,0,0,0,.09-.23,2.88,2.88,0,0,0,0-.48v-2.05c0-.2,0-.36,0-.48a.73.73,0,0,0-.07-.29A.35.35,0,0,0,28,185a1.9,1.9,0,0,0-.32-.09v-.25l1.09,0H29l-.05.76.06,0a5,5,0,0,1,.56-.5,2.18,2.18,0,0,1,.42-.23,1.44,1.44,0,0,1,.46-.08,1.53,1.53,0,0,1,.45.06,1.16,1.16,0,0,1,.35.18.89.89,0,0,1,.24.3,1.28,1.28,0,0,1,.15.43,3.82,3.82,0,0,1,.05.65V188a2.84,2.84,0,0,0,0,.47.53.53,0,0,0,.06.22.38.38,0,0,0,.14.14,1.81,1.81,0,0,0,.3.11Z"/><path d="M32.81,184.88a1.06,1.06,0,0,0,.37-.13.87.87,0,0,0,.23-.24,1.61,1.61,0,0,0,.12-.37c0-.15.07-.37.1-.65h.66v1.15h1.5v.48h-1.5v2.08a4.59,4.59,0,0,0,0,.72.91.91,0,0,0,.14.43.51.51,0,0,0,.23.21.65.65,0,0,0,.33.07.82.82,0,0,0,.35-.08,1.22,1.22,0,0,0,.32-.22l.21.25a2.23,2.23,0,0,1-.63.47,1.28,1.28,0,0,1-.61.15,1.1,1.1,0,0,1-.89-.36,1.79,1.79,0,0,1-.29-1.12v-2.6h-.68Z"/><path d="M39,188.45l-.07,0a2.66,2.66,0,0,1-.76.59,1.66,1.66,0,0,1-.75.18,1.39,1.39,0,0,1-.63-.14,1,1,0,0,1-.41-.39,1.11,1.11,0,0,1-.14-.58,1.14,1.14,0,0,1,.67-1.05,4.61,4.61,0,0,1,2-.44v-.3a2.61,2.61,0,0,0-.09-.77.73.73,0,0,0-.3-.41A.93.93,0,0,0,38,185a.83.83,0,0,0-.58.19,1.14,1.14,0,0,0-.33.57h-.61v-.61a7.06,7.06,0,0,1,.74-.34,4.83,4.83,0,0,1,.59-.17,3.08,3.08,0,0,1,.61-.07,1.52,1.52,0,0,1,.73.15.92.92,0,0,1,.42.45,2.39,2.39,0,0,1,.14.92v1.63c0,.23,0,.4,0,.49a2.13,2.13,0,0,0,0,.27.69.69,0,0,0,.07.19.33.33,0,0,0,.14.12,1.26,1.26,0,0,0,.29.11v.23H39ZM39,187a3.17,3.17,0,0,0-1.41.25.79.79,0,0,0-.47.73.71.71,0,0,0,.11.43.56.56,0,0,0,.27.21,1,1,0,0,0,.38.06,1,1,0,0,0,.57-.16,1.07,1.07,0,0,0,.4-.39.89.89,0,0,0,.15-.47Z"/><path d="M44.16,184v-.63a2,2,0,0,0,0-.3.57.57,0,0,0-.08-.19.44.44,0,0,0-.15-.12,1.56,1.56,0,0,0-.33-.08v-.24l1.13-.05H45v5.42c0,.25,0,.42,0,.53a.61.61,0,0,0,.07.25.33.33,0,0,0,.14.15,1.45,1.45,0,0,0,.35.11v.24l-1.09,0h-.28l.05-.77-.07,0a3.38,3.38,0,0,1-.5.47,1.88,1.88,0,0,1-.46.25,1.3,1.3,0,0,1-.52.1,1.37,1.37,0,0,1-1.18-.59,3.49,3.49,0,0,1-.14-3,1.85,1.85,0,0,1,.72-.79,2,2,0,0,1,1-.27,3.15,3.15,0,0,1,.56.05,3.33,3.33,0,0,1,.51.16Zm0,2.31a4.4,4.4,0,0,0,0-.58,1.16,1.16,0,0,0-.11-.37.71.71,0,0,0-.2-.25.89.89,0,0,0-.29-.15,1,1,0,0,0-.37-.05,1,1,0,0,0-.91.48,2.52,2.52,0,0,0-.31,1.38,3,3,0,0,0,.26,1.37.82.82,0,0,0,.77.46,1.58,1.58,0,0,0,.34,0,.85.85,0,0,0,.26-.11,1.31,1.31,0,0,0,.27-.22A1.8,1.8,0,0,0,44,188a1.14,1.14,0,0,0,.09-.26,1.94,1.94,0,0,0,0-.38Z"/><path d="M48.37,189.2a1.85,1.85,0,0,1-1.48-.58,2.54,2.54,0,0,1-.5-1.7,3,3,0,0,1,.26-1.3,1.84,1.84,0,0,1,.73-.8,2.19,2.19,0,0,1,1.06-.26,1.89,1.89,0,0,1,1.5.59,2.45,2.45,0,0,1,.51,1.67,3,3,0,0,1-.25,1.31,1.71,1.71,0,0,1-.72.8A2.23,2.23,0,0,1,48.37,189.2Zm-1.11-2.37a2.89,2.89,0,0,0,.31,1.48,1,1,0,0,0,.87.52.88.88,0,0,0,.53-.16,1.09,1.09,0,0,0,.35-.41,2,2,0,0,0,.2-.59,4.17,4.17,0,0,0,.06-.71,3.77,3.77,0,0,0-.15-1.15,1.41,1.41,0,0,0-.41-.66.94.94,0,0,0-.6-.22,1,1,0,0,0-.86.5A2.67,2.67,0,0,0,47.26,186.83Z"/><path d="M54.55,185.67H54.1a1.38,1.38,0,0,0-.24-.44.71.71,0,0,0-.32-.23,1.29,1.29,0,0,0-.43-.07.92.92,0,0,0-.59.18.58.58,0,0,0-.22.48.69.69,0,0,0,.09.36,1,1,0,0,0,.27.26,4.56,4.56,0,0,0,.66.32,5.85,5.85,0,0,1,.73.38,1.52,1.52,0,0,1,.4.4,1,1,0,0,1,.15.55,1.27,1.27,0,0,1-.13.62,1.1,1.1,0,0,1-.35.42,1.66,1.66,0,0,1-.54.23,3.66,3.66,0,0,1-.69.07,4.65,4.65,0,0,1-.75-.06c-.25,0-.48-.09-.72-.15v-1h.46a1.21,1.21,0,0,0,.37.62,1.06,1.06,0,0,0,.68.2,1.12,1.12,0,0,0,.32,0,.69.69,0,0,0,.29-.12.54.54,0,0,0,.2-.22.73.73,0,0,0,.07-.35.75.75,0,0,0-.09-.39.85.85,0,0,0-.29-.27,5.93,5.93,0,0,0-.68-.34,4.75,4.75,0,0,1-.68-.34,1.52,1.52,0,0,1-.4-.4,1,1,0,0,1-.15-.55,1.08,1.08,0,0,1,.21-.66,1.28,1.28,0,0,1,.59-.44,2.57,2.57,0,0,1,.92-.15,5.68,5.68,0,0,1,.59,0c.19,0,.43.06.72.12Z"/><path d="M62.7,189v1a2.7,2.7,0,0,0,0,.45.68.68,0,0,0,.07.24.36.36,0,0,0,.16.14,1,1,0,0,0,.32.11v.23h-1.9v-.23a1.73,1.73,0,0,0,.28-.1.36.36,0,0,0,.16-.14.89.89,0,0,0,.07-.26c0-.11,0-.26,0-.44v-4c0-.22,0-.38,0-.48a1.5,1.5,0,0,0,0-.24.36.36,0,0,0-.08-.15.3.3,0,0,0-.14-.1,1.38,1.38,0,0,0-.3-.09v-.25l1.09,0h.28l-.06.76.07,0a3.72,3.72,0,0,1,.46-.42,1.85,1.85,0,0,1,.34-.23,1.26,1.26,0,0,1,.34-.12,1.37,1.37,0,0,1,.36,0,1.34,1.34,0,0,1,1.17.58,2.93,2.93,0,0,1,.41,1.69,3.29,3.29,0,0,1-.23,1.3,1.66,1.66,0,0,1-.68.79,2,2,0,0,1-1,.27,2.9,2.9,0,0,1-.62-.06A2.35,2.35,0,0,1,62.7,189Zm0-1.54a3.9,3.9,0,0,0,0,.69.9.9,0,0,0,.2.39.82.82,0,0,0,.33.23,1.43,1.43,0,0,0,.51.08.93.93,0,0,0,.85-.47,2.86,2.86,0,0,0,.28-1.39c0-1.23-.36-1.84-1.06-1.84a1.17,1.17,0,0,0-.45.08,1.29,1.29,0,0,0-.37.27,1.14,1.14,0,0,0-.27.35.94.94,0,0,0-.07.37Z"/><path d="M68.79,189.2a1.83,1.83,0,0,1-1.47-.58,2.49,2.49,0,0,1-.51-1.7,3,3,0,0,1,.26-1.3,1.86,1.86,0,0,1,.74-.8,2.12,2.12,0,0,1,1-.26,1.91,1.91,0,0,1,1.51.59,2.45,2.45,0,0,1,.51,1.67,3,3,0,0,1-.26,1.31,1.71,1.71,0,0,1-.72.8A2.2,2.2,0,0,1,68.79,189.2Zm-1.11-2.37a3,3,0,0,0,.31,1.48,1,1,0,0,0,.87.52.86.86,0,0,0,.53-.16,1.09,1.09,0,0,0,.35-.41,2,2,0,0,0,.2-.59A4.17,4.17,0,0,0,70,187a3.77,3.77,0,0,0-.15-1.15,1.41,1.41,0,0,0-.41-.66.94.94,0,0,0-.6-.22,1,1,0,0,0-.86.5A2.67,2.67,0,0,0,67.68,186.83Z"/><path d="M73.11,185.42l.07,0a3.92,3.92,0,0,1,.47-.5,1.89,1.89,0,0,1,.47-.28,1.7,1.7,0,0,1,.57-.1,3.58,3.58,0,0,1,.49,0v1.08h-.52a1.31,1.31,0,0,0-.24-.37.51.51,0,0,0-.34-.11.6.6,0,0,0-.33.1,1.17,1.17,0,0,0-.32.28,1.35,1.35,0,0,0-.21.35,1.14,1.14,0,0,0-.06.39V188a2.47,2.47,0,0,0,0,.59.35.35,0,0,0,.17.23.89.89,0,0,0,.35.12v.23H71.86v-.23a1.58,1.58,0,0,0,.26-.1.33.33,0,0,0,.13-.11.56.56,0,0,0,.08-.23,2.88,2.88,0,0,0,0-.48v-2.05c0-.2,0-.36,0-.48a.74.74,0,0,0-.06-.29.4.4,0,0,0-.17-.17l-.33-.09v-.24l1.09-.05h.28Z"/><path d="M81.6,184.64h1.32V187a5.9,5.9,0,0,0,0,.83,1.15,1.15,0,0,0,.13.43.68.68,0,0,0,.23.25.84.84,0,0,0,.42.09.77.77,0,0,0,.34-.07,1.53,1.53,0,0,0,.65-.59.87.87,0,0,0,.09-.4v-1.76a3.59,3.59,0,0,0,0-.4,1,1,0,0,0,0-.22.49.49,0,0,0-.08-.13.34.34,0,0,0-.13-.1,1.07,1.07,0,0,0-.26-.09v-.23h1.32v3.2c0,.24,0,.42,0,.52a.83.83,0,0,0,.06.26.4.4,0,0,0,.14.15,1.45,1.45,0,0,0,.35.11v.24l-1.06,0h-.29l0-.77-.07,0a3,3,0,0,1-.73.62,1.47,1.47,0,0,1-.71.2,1.31,1.31,0,0,1-.69-.17,1,1,0,0,1-.41-.51,2.58,2.58,0,0,1-.13-.94v-1.77a3.22,3.22,0,0,0,0-.54A.39.39,0,0,0,82,185a.85.85,0,0,0-.37-.17Z"/><path d="M91.52,189.12H89.69v-.23a1.58,1.58,0,0,0,.26-.1.28.28,0,0,0,.13-.11.55.55,0,0,0,.09-.23,2.88,2.88,0,0,0,0-.48v-1.23c0-.22,0-.41,0-.59a2.22,2.22,0,0,0-.06-.44,1.16,1.16,0,0,0-.11-.27.57.57,0,0,0-.15-.16.64.64,0,0,0-.2-.11.78.78,0,0,0-.29,0,1,1,0,0,0-.34.07,1.39,1.39,0,0,0-.36.25,1.26,1.26,0,0,0-.28.36.8.8,0,0,0-.09.39V188a2.38,2.38,0,0,0,0,.56.42.42,0,0,0,.14.24,1,1,0,0,0,.34.14v.23H87v-.23a1.58,1.58,0,0,0,.26-.1.33.33,0,0,0,.13-.11.76.76,0,0,0,.08-.23,2.88,2.88,0,0,0,0-.48v-2.05c0-.2,0-.36,0-.48a.6.6,0,0,0-.06-.29.4.4,0,0,0-.17-.17l-.32-.09v-.25l1.08,0h.29l-.06.76.07,0a5,5,0,0,1,.55-.5,2.25,2.25,0,0,1,.43-.23,1.39,1.39,0,0,1,.46-.08,1.51,1.51,0,0,1,.44.06,1,1,0,0,1,.35.18.91.91,0,0,1,.25.3,1.55,1.55,0,0,1,.15.43,3.82,3.82,0,0,1,0,.65V188c0,.22,0,.37,0,.47a.71.71,0,0,0,.07.22.35.35,0,0,0,.13.14,1.68,1.68,0,0,0,.31.11Z"/><path d="M95,188.45l-.07,0a2.66,2.66,0,0,1-.76.59,1.6,1.6,0,0,1-.75.18,1.38,1.38,0,0,1-.62-.14.91.91,0,0,1-.41-.39,1.11,1.11,0,0,1-.15-.58,1.16,1.16,0,0,1,.67-1.05,4.68,4.68,0,0,1,2-.44v-.3a2.61,2.61,0,0,0-.09-.77.72.72,0,0,0-.29-.41A.93.93,0,0,0,94,185a.85.85,0,0,0-.59.19,1.3,1.3,0,0,0-.33.57h-.61v-.61a7.07,7.07,0,0,1,.75-.34,4,4,0,0,1,.59-.17,3.07,3.07,0,0,1,.6-.07,1.57,1.57,0,0,1,.74.15,1,1,0,0,1,.42.45,2.39,2.39,0,0,1,.14.92v2.12a1.12,1.12,0,0,0,0,.27.47.47,0,0,0,.07.19.33.33,0,0,0,.14.12,1.1,1.1,0,0,0,.29.11v.23H95ZM95,187a3.23,3.23,0,0,0-1.41.25.85.85,0,0,0-.36,1.16.56.56,0,0,0,.27.21,1.14,1.14,0,0,0,.39.06,1,1,0,0,0,.57-.16,1.15,1.15,0,0,0,.4-.39.88.88,0,0,0,.14-.47Z"/><path d="M106.62,188.33a3.81,3.81,0,0,1-.55.49,2.13,2.13,0,0,1-.54.28,2.28,2.28,0,0,1-.66.1,1.78,1.78,0,0,1-1.44-.58,2.58,2.58,0,0,1-.49-1.71,2.85,2.85,0,0,1,.25-1.23,1.93,1.93,0,0,1,.71-.83,2,2,0,0,1,1.06-.29,1.89,1.89,0,0,1,.79.15,1.37,1.37,0,0,1,.53.41,2.24,2.24,0,0,1,.31.66,4.55,4.55,0,0,1,.12,1h-2.92v.09a3.14,3.14,0,0,0,.12.93,1.24,1.24,0,0,0,.4.59,1.19,1.19,0,0,0,.73.21,1.7,1.7,0,0,0,.69-.14,2.06,2.06,0,0,0,.6-.47Zm-.78-1.91a3.35,3.35,0,0,0-.13-.82,1,1,0,0,0-.29-.49.72.72,0,0,0-.51-.18.89.89,0,0,0-.76.39,2.08,2.08,0,0,0-.34,1.1Z"/><path d="M108.84,185.36l.07,0c.18-.18.34-.33.45-.42a2.09,2.09,0,0,1,.35-.23,1.22,1.22,0,0,1,.31-.12,1,1,0,0,1,.3,0,1.29,1.29,0,0,1,.76.21,1.16,1.16,0,0,1,.4.66,5.61,5.61,0,0,1,.57-.52,1.82,1.82,0,0,1,.44-.26,1.28,1.28,0,0,1,.48-.09,1.45,1.45,0,0,1,.54.09.94.94,0,0,1,.38.28,1.18,1.18,0,0,1,.22.48,3.07,3.07,0,0,1,.08.77V188a2.92,2.92,0,0,0,0,.49.73.73,0,0,0,.07.21.33.33,0,0,0,.13.13,1.2,1.2,0,0,0,.3.11v.23h-1.83v-.23a1.58,1.58,0,0,0,.26-.1.3.3,0,0,0,.14-.11.76.76,0,0,0,.08-.23,2.88,2.88,0,0,0,0-.48v-1.23c0-.26,0-.48,0-.66a2.63,2.63,0,0,0-.07-.41.79.79,0,0,0-.1-.24,1.14,1.14,0,0,0-.15-.16.52.52,0,0,0-.18-.1.75.75,0,0,0-.28,0,.82.82,0,0,0-.35.08,1.36,1.36,0,0,0-.35.25,1.41,1.41,0,0,0-.27.36,1.08,1.08,0,0,0-.08.42V188a4.72,4.72,0,0,0,0,.49.73.73,0,0,0,.07.21.33.33,0,0,0,.13.13,1.2,1.2,0,0,0,.3.11v.23h-1.83v-.23a1.28,1.28,0,0,0,.26-.1.3.3,0,0,0,.14-.11.76.76,0,0,0,.08-.23,2.88,2.88,0,0,0,0-.48v-1.23c0-.28,0-.5,0-.68a2,2,0,0,0-.08-.42.89.89,0,0,0-.12-.26.75.75,0,0,0-.16-.15.48.48,0,0,0-.18-.07.88.88,0,0,0-.24,0,.74.74,0,0,0-.36.09,1.73,1.73,0,0,0-.34.25,1.14,1.14,0,0,0-.26.34.85.85,0,0,0-.09.38V188c0,.18,0,.31,0,.41a.9.9,0,0,0,0,.22.54.54,0,0,0,.07.13.56.56,0,0,0,.14.09,1.13,1.13,0,0,0,.25.09v.23H107.6v-.23l.25-.1a.33.33,0,0,0,.13-.11.56.56,0,0,0,.08-.23,2.88,2.88,0,0,0,0-.48v-2.05c0-.2,0-.36,0-.48a.74.74,0,0,0-.06-.29.4.4,0,0,0-.17-.17l-.32-.09v-.25l1.08,0h.28Z"/><path d="M116.8,189v1c0,.2,0,.35,0,.45a.68.68,0,0,0,.07.24.36.36,0,0,0,.16.14,1,1,0,0,0,.32.11v.23h-1.89v-.23a2,2,0,0,0,.27-.1.36.36,0,0,0,.16-.14.66.66,0,0,0,.07-.26,2.76,2.76,0,0,0,0-.44v-4c0-.22,0-.38,0-.48a1.57,1.57,0,0,0,0-.24.38.38,0,0,0-.09-.15.3.3,0,0,0-.14-.1,1.38,1.38,0,0,0-.3-.09v-.25l1.09,0h.28l-.06.76.07,0a4.62,4.62,0,0,1,.46-.42,1.85,1.85,0,0,1,.34-.23,1.32,1.32,0,0,1,.35-.12,1.29,1.29,0,0,1,.35,0,1.33,1.33,0,0,1,1.17.58,2.85,2.85,0,0,1,.41,1.69,3.12,3.12,0,0,1-.23,1.3,1.64,1.64,0,0,1-.67.79,2,2,0,0,1-1.06.27,3,3,0,0,1-.62-.06A2.35,2.35,0,0,1,116.8,189Zm0-1.54a3.9,3.9,0,0,0,0,.69.9.9,0,0,0,.2.39.86.86,0,0,0,.34.23,1.34,1.34,0,0,0,.5.08.93.93,0,0,0,.85-.47A2.75,2.75,0,0,0,119,187c0-1.23-.35-1.84-1.06-1.84a1.25,1.25,0,0,0-.45.08,1.45,1.45,0,0,0-.37.27,1.09,1.09,0,0,0-.26.35.8.8,0,0,0-.08.37Z"/><path d="M122.12,185.42l.07,0a3.92,3.92,0,0,1,.47-.5,2.08,2.08,0,0,1,.47-.28,1.72,1.72,0,0,1,.58-.1,3.43,3.43,0,0,1,.48,0v1.08h-.52a1,1,0,0,0-.24-.37.5.5,0,0,0-.34-.11.6.6,0,0,0-.33.1,1.17,1.17,0,0,0-.32.28,1.35,1.35,0,0,0-.21.35,1.14,1.14,0,0,0-.06.39V188a2.47,2.47,0,0,0,0,.59.38.38,0,0,0,.17.23.89.89,0,0,0,.36.12v.23h-1.87v-.23l.25-.1a.28.28,0,0,0,.13-.11.55.55,0,0,0,.09-.23c0-.11,0-.27,0-.48v-2.05c0-.2,0-.36,0-.48a.6.6,0,0,0-.06-.29.35.35,0,0,0-.17-.17l-.32-.09v-.24l1.08-.05h.29Z"/><path d="M128.56,188.33a3.81,3.81,0,0,1-.55.49,2.13,2.13,0,0,1-.54.28,2.28,2.28,0,0,1-.66.1,1.78,1.78,0,0,1-1.44-.58,2.58,2.58,0,0,1-.49-1.71,2.85,2.85,0,0,1,.25-1.23,1.86,1.86,0,0,1,1.76-1.12,1.9,1.9,0,0,1,.8.15,1.37,1.37,0,0,1,.53.41,2.24,2.24,0,0,1,.31.66,4.55,4.55,0,0,1,.12,1h-2.92v.09a3.14,3.14,0,0,0,.12.93,1.24,1.24,0,0,0,.4.59,1.19,1.19,0,0,0,.73.21,1.7,1.7,0,0,0,.69-.14,2.06,2.06,0,0,0,.6-.47Zm-.78-1.91a3.35,3.35,0,0,0-.13-.82,1,1,0,0,0-.29-.49.72.72,0,0,0-.51-.18.89.89,0,0,0-.76.39,2.08,2.08,0,0,0-.34,1.1Z"/><path d="M132.64,185.67h-.45a1.38,1.38,0,0,0-.24-.44.74.74,0,0,0-.31-.23,1.38,1.38,0,0,0-.43-.07.93.93,0,0,0-.6.18.61.61,0,0,0-.22.48.69.69,0,0,0,.09.36.89.89,0,0,0,.28.26,4.31,4.31,0,0,0,.65.32,5.85,5.85,0,0,1,.73.38,1.38,1.38,0,0,1,.4.4,1,1,0,0,1,.15.55,1.27,1.27,0,0,1-.13.62,1.1,1.1,0,0,1-.35.42,1.66,1.66,0,0,1-.54.23,3.64,3.64,0,0,1-.68.07,4.77,4.77,0,0,1-.76-.06c-.24,0-.48-.09-.71-.15v-1H130a1.21,1.21,0,0,0,.37.62,1.08,1.08,0,0,0,.68.2,1.24,1.24,0,0,0,.33,0,.7.7,0,0,0,.28-.12.48.48,0,0,0,.2-.22.72.72,0,0,0,.08-.35.75.75,0,0,0-.1-.39.85.85,0,0,0-.29-.27,5.17,5.17,0,0,0-.68-.34,4.75,4.75,0,0,1-.68-.34,1.52,1.52,0,0,1-.4-.4,1,1,0,0,1-.15-.55,1.08,1.08,0,0,1,.21-.66,1.31,1.31,0,0,1,.6-.44,2.52,2.52,0,0,1,.91-.15,5.68,5.68,0,0,1,.59,0c.19,0,.43.06.72.12Z"/><path d="M136.34,188.45l-.07,0a2.66,2.66,0,0,1-.76.59,1.6,1.6,0,0,1-.75.18,1.35,1.35,0,0,1-.62-.14,1,1,0,0,1-.42-.39,1.21,1.21,0,0,1-.14-.58,1.14,1.14,0,0,1,.67-1.05,4.68,4.68,0,0,1,2-.44v-.3a2.61,2.61,0,0,0-.09-.77.72.72,0,0,0-.29-.41,1,1,0,0,0-.54-.13.85.85,0,0,0-.58.19,1.14,1.14,0,0,0-.33.57h-.61v-.61a8.14,8.14,0,0,1,.74-.34,4.5,4.5,0,0,1,.6-.17,3.07,3.07,0,0,1,.6-.07,1.57,1.57,0,0,1,.74.15,1,1,0,0,1,.42.45,2.39,2.39,0,0,1,.14.92v2.12a1.12,1.12,0,0,0,0,.27.47.47,0,0,0,.07.19.3.3,0,0,0,.13.12,1.2,1.2,0,0,0,.3.11v.23h-1.27Zm-.08-1.46a3.17,3.17,0,0,0-1.41.25.83.83,0,0,0-.36,1.16.56.56,0,0,0,.27.21,1.12,1.12,0,0,0,.38.06,1.06,1.06,0,0,0,.58-.16,1.15,1.15,0,0,0,.4-.39,1,1,0,0,0,.14-.47Z"/><path d="M139.33,188a3.47,3.47,0,0,1,.06.64,1.46,1.46,0,0,1-.11.6,1.84,1.84,0,0,1-.35.54,4.65,4.65,0,0,1-.67.59l-.25-.28a1.87,1.87,0,0,0,.34-.41,1.25,1.25,0,0,0,.15-.41,2.32,2.32,0,0,0,.05-.57c0-.24,0-.47,0-.7Z"/><path d="M19.26,196.63l-.86,0,0,.05a1.06,1.06,0,0,1,.23.39,1.92,1.92,0,0,1,.08.55,1.48,1.48,0,0,1-.46,1.17,1.93,1.93,0,0,1-1.33.42,1.87,1.87,0,0,1-.66-.1.71.71,0,0,0-.35.53.49.49,0,0,0,.06.27.36.36,0,0,0,.23.12,1.84,1.84,0,0,0,.47,0h1.11a1.81,1.81,0,0,1,.8.15,1,1,0,0,1,.45.42,1.41,1.41,0,0,1,.13.61,1.34,1.34,0,0,1-.25.78,1.65,1.65,0,0,1-.73.54,3,3,0,0,1-1.1.19,5.71,5.71,0,0,1-.86-.06,2.34,2.34,0,0,1-.66-.19,1.07,1.07,0,0,1-.43-.35.93.93,0,0,1-.15-.54.84.84,0,0,1,.2-.54,1.79,1.79,0,0,1,.55-.43.64.64,0,0,1-.34-.26.62.62,0,0,1-.13-.4.84.84,0,0,1,.15-.49,2.28,2.28,0,0,1,.52-.51,1.24,1.24,0,0,1-.5-.54,1.58,1.58,0,0,1-.18-.76,1.82,1.82,0,0,1,.13-.7,1.34,1.34,0,0,1,.37-.5,1.65,1.65,0,0,1,.56-.29,2.72,2.72,0,0,1,1.35,0h1.64Zm-3.1,4.08a1.28,1.28,0,0,0-.36.38.84.84,0,0,0-.12.45.68.68,0,0,0,.34.62,2,2,0,0,0,1,.2,2.18,2.18,0,0,0,.72-.11,1,1,0,0,0,.45-.33.76.76,0,0,0,.16-.49,1,1,0,0,0,0-.25.51.51,0,0,0-.12-.23.6.6,0,0,0-.26-.15,1.33,1.33,0,0,0-.44-.06h-.69A6.38,6.38,0,0,1,16.16,200.71ZM16,197.58a1.46,1.46,0,0,0,.24.9.78.78,0,0,0,.68.32.82.82,0,0,0,.4-.09.68.68,0,0,0,.28-.25,1.11,1.11,0,0,0,.15-.37,2,2,0,0,0,.05-.43,1.71,1.71,0,0,0-.12-.69.89.89,0,0,0-.31-.41.91.91,0,0,0-.46-.13.81.81,0,0,0-.68.3A1.37,1.37,0,0,0,16,197.58Z"/><path d="M21.09,196.93l.07,0a3.92,3.92,0,0,1,.47-.5,1.59,1.59,0,0,1,.47-.27,1.5,1.5,0,0,1,.58-.1,3.43,3.43,0,0,1,.48,0v1.07h-.52a1,1,0,0,0-.24-.37.5.5,0,0,0-.34-.11.6.6,0,0,0-.33.1,1.17,1.17,0,0,0-.32.28,1.38,1.38,0,0,0-.21.36,1,1,0,0,0-.06.38v1.64a2.47,2.47,0,0,0,.05.59.44.44,0,0,0,.17.24.9.9,0,0,0,.36.11v.23H19.85v-.23l.25-.09a.37.37,0,0,0,.13-.12.55.55,0,0,0,.09-.23c0-.1,0-.26,0-.48v-2c0-.2,0-.37,0-.49a.6.6,0,0,0-.06-.29.33.33,0,0,0-.17-.16,1.35,1.35,0,0,0-.32-.1v-.24l1.08,0h.29Z"/><path d="M23.71,196.16H25v2.38a5.81,5.81,0,0,0,0,.83,1.28,1.28,0,0,0,.13.44.75.75,0,0,0,.23.24.88.88,0,0,0,.43.1.93.93,0,0,0,.33-.07,1.6,1.6,0,0,0,.37-.25,1.23,1.23,0,0,0,.28-.35.84.84,0,0,0,.09-.4v-1.76a3.59,3.59,0,0,0,0-.4,1.09,1.09,0,0,0,0-.22.41.41,0,0,0-.08-.13.4.4,0,0,0-.12-.1l-.27-.08v-.23h1.33v3.2c0,.24,0,.41,0,.52a.76.76,0,0,0,.06.25.4.4,0,0,0,.14.15,1.1,1.1,0,0,0,.35.11v.24l-1.06.05H27l0-.77-.07,0a2.8,2.8,0,0,1-.73.62,1.43,1.43,0,0,1-.7.2,1.32,1.32,0,0,1-.7-.17,1,1,0,0,1-.41-.5,2.67,2.67,0,0,1-.13-.95v-1.77a3.22,3.22,0,0,0,0-.54.42.42,0,0,0-.12-.23.86.86,0,0,0-.37-.16Z"/><path d="M30.37,200.49v1c0,.21,0,.36,0,.46a.44.44,0,0,0,.08.23.36.36,0,0,0,.15.15,1.35,1.35,0,0,0,.32.1v.23H29.05v-.23a1.18,1.18,0,0,0,.27-.1.36.36,0,0,0,.16-.14.62.62,0,0,0,.07-.26,2.76,2.76,0,0,0,0-.44v-4c0-.22,0-.38,0-.48a1.29,1.29,0,0,0,0-.23.35.35,0,0,0-.09-.16.39.39,0,0,0-.14-.1,1.38,1.38,0,0,0-.3-.09v-.24l1.09,0h.28l-.06.77.07,0c.2-.2.35-.34.46-.43a1.41,1.41,0,0,1,.34-.22,1.37,1.37,0,0,1,.35-.13,1.29,1.29,0,0,1,.35,0,1.33,1.33,0,0,1,1.17.58,2.87,2.87,0,0,1,.41,1.69,3.12,3.12,0,0,1-.23,1.3,1.72,1.72,0,0,1-.67.8,2.11,2.11,0,0,1-1.06.26,3,3,0,0,1-.62-.06A2.35,2.35,0,0,1,30.37,200.49Zm0-1.54a3,3,0,0,0,.06.69.83.83,0,0,0,.19.4,1,1,0,0,0,.34.22,1.34,1.34,0,0,0,.5.08.93.93,0,0,0,.85-.47,2.75,2.75,0,0,0,.28-1.39c0-1.22-.35-1.84-1.06-1.84a1.06,1.06,0,0,0-.45.09,1.2,1.2,0,0,0-.37.26,1.09,1.09,0,0,0-.26.35,1,1,0,0,0-.08.37Z"/><path d="M36.46,200.71a1.87,1.87,0,0,1-1.47-.57,2.5,2.5,0,0,1-.51-1.7,2.89,2.89,0,0,1,.27-1.31,1.76,1.76,0,0,1,.73-.79,2.06,2.06,0,0,1,1.06-.26,1.88,1.88,0,0,1,1.5.58,2.47,2.47,0,0,1,.51,1.67,3.07,3.07,0,0,1-.26,1.32,1.81,1.81,0,0,1-.72.8A2.28,2.28,0,0,1,36.46,200.71Zm-1.1-2.37a3,3,0,0,0,.3,1.48,1,1,0,0,0,.87.52.92.92,0,0,0,.53-.15,1.08,1.08,0,0,0,.35-.41,1.77,1.77,0,0,0,.2-.6,4.08,4.08,0,0,0,.06-.71,3.66,3.66,0,0,0-.15-1.14,1.4,1.4,0,0,0-.41-.67.91.91,0,0,0-.59-.21.94.94,0,0,0-.86.49A2.7,2.7,0,0,0,35.36,198.34Z"/><path d="M44.17,200.71a1.87,1.87,0,0,1-1.47-.57,2.5,2.5,0,0,1-.51-1.7,2.89,2.89,0,0,1,.27-1.31,1.76,1.76,0,0,1,.73-.79,2.06,2.06,0,0,1,1.06-.26,1.88,1.88,0,0,1,1.5.58,2.47,2.47,0,0,1,.51,1.67,2.93,2.93,0,0,1-.26,1.32,1.81,1.81,0,0,1-.72.8A2.28,2.28,0,0,1,44.17,200.71Zm-1.1-2.37a3,3,0,0,0,.3,1.48,1,1,0,0,0,.87.52.9.9,0,0,0,.53-.15,1.2,1.2,0,0,0,.36-.41,2,2,0,0,0,.19-.6,4.08,4.08,0,0,0,.06-.71,3.66,3.66,0,0,0-.15-1.14,1.33,1.33,0,0,0-.41-.67.91.91,0,0,0-.59-.21.94.94,0,0,0-.86.49A2.7,2.7,0,0,0,43.07,198.34Z"/><path d="M51.12,200.49v1c0,.21,0,.36,0,.46a.56.56,0,0,0,.08.23.36.36,0,0,0,.15.15,1.53,1.53,0,0,0,.32.1v.23H49.8v-.23a1.18,1.18,0,0,0,.27-.1.32.32,0,0,0,.16-.14.8.8,0,0,0,.08-.26c0-.11,0-.26,0-.44v-4c0-.22,0-.38,0-.48a1.2,1.2,0,0,0,0-.23.48.48,0,0,0-.08-.16.56.56,0,0,0-.15-.1,1.38,1.38,0,0,0-.3-.09v-.24l1.09,0h.29l-.06.77.07,0a5.19,5.19,0,0,1,.45-.43,1.46,1.46,0,0,1,.35-.22,1.31,1.31,0,0,1,.34-.13,1.34,1.34,0,0,1,.35,0,1.36,1.36,0,0,1,1.18.58,3,3,0,0,1,.41,1.69,3.29,3.29,0,0,1-.23,1.3,1.73,1.73,0,0,1-.68.8,2.11,2.11,0,0,1-1.06.26,3,3,0,0,1-.62-.06A2.76,2.76,0,0,1,51.12,200.49Zm0-1.54a3,3,0,0,0,.06.69.82.82,0,0,0,.53.62,1.43,1.43,0,0,0,.51.08.93.93,0,0,0,.84-.47,2.75,2.75,0,0,0,.28-1.39c0-1.22-.35-1.84-1.06-1.84a1.06,1.06,0,0,0-.45.09,1.32,1.32,0,0,0-.37.26,1.26,1.26,0,0,0-.26.35,1,1,0,0,0-.08.37Z"/><path d="M58.9,199.84a3.79,3.79,0,0,1-.54.49,2.19,2.19,0,0,1-.55.28,1.93,1.93,0,0,1-.65.1,1.75,1.75,0,0,1-1.44-.58,2.55,2.55,0,0,1-.49-1.71,2.85,2.85,0,0,1,.25-1.23,1.85,1.85,0,0,1,1.76-1.11,1.94,1.94,0,0,1,.8.15,1.35,1.35,0,0,1,.53.41,1.86,1.86,0,0,1,.3.65,4,4,0,0,1,.13,1H56.07v.09a2.78,2.78,0,0,0,.13.93,1.14,1.14,0,0,0,.4.59,1.19,1.19,0,0,0,.73.21A1.51,1.51,0,0,0,58,200a2,2,0,0,0,.61-.47Zm-.78-1.9a4,4,0,0,0-.12-.83,1.07,1.07,0,0,0-.29-.49.72.72,0,0,0-.51-.17.93.93,0,0,0-.77.38,2.09,2.09,0,0,0-.33,1.11Z"/><path d="M61.13,196.93l.07,0a3.32,3.32,0,0,1,.47-.5,1.62,1.62,0,0,1,1-.37,3.68,3.68,0,0,1,.49,0v1.07h-.52a1.31,1.31,0,0,0-.24-.37.53.53,0,0,0-.34-.11.61.61,0,0,0-.34.1,1.14,1.14,0,0,0-.31.28,1.2,1.2,0,0,0-.22.36,1.35,1.35,0,0,0,0,.38v1.64a2,2,0,0,0,0,.59.4.4,0,0,0,.17.24.85.85,0,0,0,.35.11v.23H59.88v-.23a2.42,2.42,0,0,0,.26-.09.49.49,0,0,0,.13-.12.56.56,0,0,0,.08-.23,2.72,2.72,0,0,0,0-.48v-2c0-.2,0-.37,0-.49a1,1,0,0,0-.06-.29.37.37,0,0,0-.17-.16,1.45,1.45,0,0,0-.33-.1v-.24l1.09,0h.28Z"/><path d="M67,197.18h-.44a1.5,1.5,0,0,0-.24-.44.87.87,0,0,0-.32-.23,1.35,1.35,0,0,0-.43-.06.94.94,0,0,0-.59.17.58.58,0,0,0-.22.48.66.66,0,0,0,.09.36.84.84,0,0,0,.27.26,4.31,4.31,0,0,0,.65.32,5.21,5.21,0,0,1,.73.38,1.33,1.33,0,0,1,.41.41,1,1,0,0,1,.14.54,1.48,1.48,0,0,1-.12.63,1.16,1.16,0,0,1-.35.41,1.63,1.63,0,0,1-.54.23,3,3,0,0,1-.69.07,4.77,4.77,0,0,1-.76-.06c-.24,0-.48-.09-.71-.15v-1h.45a1.21,1.21,0,0,0,.38.63,1.11,1.11,0,0,0,.67.19,1.24,1.24,0,0,0,.33,0,.92.92,0,0,0,.29-.11.64.64,0,0,0,.2-.23.87.87,0,0,0,.07-.35.75.75,0,0,0-.09-.39,1,1,0,0,0-.29-.27,5.82,5.82,0,0,0-.69-.33,4.49,4.49,0,0,1-.67-.35,1.31,1.31,0,0,1-.41-.4,1,1,0,0,1-.14-.54,1.15,1.15,0,0,1,.2-.67,1.29,1.29,0,0,1,.6-.43,2.52,2.52,0,0,1,.91-.15,5.74,5.74,0,0,1,.6,0c.19,0,.42.06.71.12Z"/><path d="M70,200.71a1.87,1.87,0,0,1-1.47-.57,2.5,2.5,0,0,1-.51-1.7,2.89,2.89,0,0,1,.27-1.31,1.76,1.76,0,0,1,.73-.79,2.06,2.06,0,0,1,1.06-.26,1.88,1.88,0,0,1,1.5.58,2.47,2.47,0,0,1,.51,1.67,3.07,3.07,0,0,1-.26,1.32,1.81,1.81,0,0,1-.72.8A2.28,2.28,0,0,1,70,200.71Zm-1.1-2.37a3,3,0,0,0,.3,1.48,1,1,0,0,0,.87.52.92.92,0,0,0,.53-.15,1.08,1.08,0,0,0,.35-.41,1.77,1.77,0,0,0,.2-.6,4.08,4.08,0,0,0,.06-.71,3.66,3.66,0,0,0-.15-1.14,1.4,1.4,0,0,0-.41-.67.91.91,0,0,0-.59-.21.94.94,0,0,0-.86.49A2.7,2.7,0,0,0,68.9,198.34Z"/><path d="M77.59,200.63H75.76v-.23a1.81,1.81,0,0,0,.26-.09.41.41,0,0,0,.14-.12.76.76,0,0,0,.08-.23,2.88,2.88,0,0,0,0-.48v-1.23c0-.21,0-.41,0-.59a2.34,2.34,0,0,0-.06-.44.92.92,0,0,0-.11-.26.61.61,0,0,0-.15-.17.86.86,0,0,0-.19-.11,1.21,1.21,0,0,0-.3,0,.81.81,0,0,0-.34.08,1.18,1.18,0,0,0-.36.25,1.23,1.23,0,0,0-.28.35.84.84,0,0,0-.09.4v1.74a2.38,2.38,0,0,0,0,.56.36.36,0,0,0,.14.24.84.84,0,0,0,.34.14v.23H73.07v-.23a1.81,1.81,0,0,0,.26-.09.37.37,0,0,0,.13-.12.56.56,0,0,0,.08-.23,2.72,2.72,0,0,0,0-.48v-2c0-.2,0-.37,0-.49a.6.6,0,0,0-.06-.29.33.33,0,0,0-.17-.16,1.35,1.35,0,0,0-.32-.1v-.24l1.08,0h.29l0,.77.06,0a4.44,4.44,0,0,1,.56-.51,2.91,2.91,0,0,1,.42-.23,1.44,1.44,0,0,1,.46-.08,1.58,1.58,0,0,1,.45.06,1,1,0,0,1,.34.18.91.91,0,0,1,.25.3,1.34,1.34,0,0,1,.15.44,3.6,3.6,0,0,1,0,.64v1.76a2.84,2.84,0,0,0,0,.47.64.64,0,0,0,.06.23.44.44,0,0,0,.14.13,1.06,1.06,0,0,0,.3.11Z"/><path d="M81.1,200H81a3,3,0,0,1-.75.59,1.8,1.8,0,0,1-.76.17,1.38,1.38,0,0,1-.62-.14.91.91,0,0,1-.41-.39,1.09,1.09,0,0,1-.15-.58,1.17,1.17,0,0,1,.67-1,4.83,4.83,0,0,1,2-.44v-.3a2.61,2.61,0,0,0-.09-.77.75.75,0,0,0-.29-.41.93.93,0,0,0-.53-.13.87.87,0,0,0-.59.19,1.29,1.29,0,0,0-.33.58h-.61v-.61a7.47,7.47,0,0,1,.75-.35,4,4,0,0,1,.59-.17,3.05,3.05,0,0,1,.6-.06,1.68,1.68,0,0,1,.74.14.9.9,0,0,1,.42.46,2.3,2.3,0,0,1,.14.91v2.12a2,2,0,0,0,0,.27.69.69,0,0,0,.07.19.44.44,0,0,0,.14.13,1.34,1.34,0,0,0,.29.1v.23H81.08ZM81,198.5a3.23,3.23,0,0,0-1.41.25.78.78,0,0,0-.46.74.73.73,0,0,0,.1.42.56.56,0,0,0,.27.21,1.14,1.14,0,0,0,.39.06,1.1,1.1,0,0,0,.57-.15,1.18,1.18,0,0,0,.4-.4.85.85,0,0,0,.14-.47Z"/><path d="M84.09,199.55a2.85,2.85,0,0,1,.07.64,1.64,1.64,0,0,1-.11.6,2,2,0,0,1-.36.54,4.7,4.7,0,0,1-.67.6l-.25-.29a1.85,1.85,0,0,0,.34-.4,1.35,1.35,0,0,0,.16-.41,3.22,3.22,0,0,0,0-.58c0-.24,0-.47,0-.7Z"/><path d="M89.69,201a6.09,6.09,0,0,1-.5.94,1.82,1.82,0,0,1-.53.54,1.19,1.19,0,0,1-.69.19,3.07,3.07,0,0,1-.57-.06v-.93h.41A.52.52,0,0,0,88,202a.29.29,0,0,0,.24.08.66.66,0,0,0,.25,0,.92.92,0,0,0,.23-.19,3,3,0,0,0,.27-.4,7,7,0,0,0,.36-.69L88,197.18a3.9,3.9,0,0,0-.2-.48.54.54,0,0,0-.43-.31v-.23h1.89v.23a.93.93,0,0,0-.31.1.3.3,0,0,0-.13.12.4.4,0,0,0,0,.2,1.15,1.15,0,0,0,0,.26,2.66,2.66,0,0,0,.09.32l.83,2.35.93-2.25a3.54,3.54,0,0,0,.12-.34,1.11,1.11,0,0,0,0-.3.41.41,0,0,0-.11-.3.85.85,0,0,0-.38-.16v-.23h1.73v.23a.66.66,0,0,0-.28.11.83.83,0,0,0-.19.24c-.07.12-.14.27-.23.47Z"/><path d="M98.89,199.84a3.81,3.81,0,0,1-.55.49,2,2,0,0,1-1.2.38,1.78,1.78,0,0,1-1.44-.58,2.6,2.6,0,0,1-.49-1.71,3,3,0,0,1,.25-1.23,1.88,1.88,0,0,1,1.77-1.11,1.94,1.94,0,0,1,.8.15,1.25,1.25,0,0,1,.52.41,1.87,1.87,0,0,1,.31.65,4.62,4.62,0,0,1,.12,1H96.06v.09a3.09,3.09,0,0,0,.12.93,1.15,1.15,0,0,0,.41.59,1.17,1.17,0,0,0,.73.21A1.51,1.51,0,0,0,98,200a2.23,2.23,0,0,0,.61-.47Zm-.78-1.9a3.36,3.36,0,0,0-.13-.83,1,1,0,0,0-.29-.49.72.72,0,0,0-.51-.17.91.91,0,0,0-.76.38,2.18,2.18,0,0,0-.34,1.11Z"/><path d="M101.1,199.46a2.38,2.38,0,0,0,0,.56.36.36,0,0,0,.14.24.84.84,0,0,0,.34.14v.23H99.78v-.23a1.2,1.2,0,0,0,.32-.12.33.33,0,0,0,.13-.16.7.7,0,0,0,.06-.25c0-.1,0-.24,0-.41v-4.55a2.43,2.43,0,0,0,0-.3.68.68,0,0,0-.08-.19.33.33,0,0,0-.15-.11,1.46,1.46,0,0,0-.32-.09V194l1.11,0h.28Z"/><path d="M107.79,200h-.07a3.24,3.24,0,0,1-.75.59,1.8,1.8,0,0,1-.76.17,1.38,1.38,0,0,1-.62-.14.91.91,0,0,1-.41-.39,1.09,1.09,0,0,1-.15-.58,1.17,1.17,0,0,1,.67-1,4.83,4.83,0,0,1,2-.44v-.3a2.61,2.61,0,0,0-.09-.77.75.75,0,0,0-.29-.41.93.93,0,0,0-.53-.13.85.85,0,0,0-.59.19,1.29,1.29,0,0,0-.33.58h-.61v-.61a7.47,7.47,0,0,1,.75-.35,4,4,0,0,1,.59-.17,3.05,3.05,0,0,1,.6-.06,1.68,1.68,0,0,1,.74.14.9.9,0,0,1,.42.46,2.3,2.3,0,0,1,.14.91v2.12a2,2,0,0,0,0,.27.69.69,0,0,0,.07.19.44.44,0,0,0,.14.13,1.17,1.17,0,0,0,.29.1v.23h-1.27Zm-.08-1.46a3.23,3.23,0,0,0-1.41.25.78.78,0,0,0-.46.74.73.73,0,0,0,.1.42.56.56,0,0,0,.27.21,1.14,1.14,0,0,0,.39.06,1.1,1.1,0,0,0,.57-.15,1.27,1.27,0,0,0,.4-.4.85.85,0,0,0,.14-.47Z"/><path d="M111.06,200.49v1a2.77,2.77,0,0,0,0,.46.45.45,0,0,0,.07.23.54.54,0,0,0,.15.15,1.67,1.67,0,0,0,.33.1v.23h-1.9v-.23a1.18,1.18,0,0,0,.27-.1.32.32,0,0,0,.16-.14.61.61,0,0,0,.08-.26c0-.11,0-.26,0-.44v-4c0-.22,0-.38,0-.48a1.2,1.2,0,0,0,0-.23.48.48,0,0,0-.08-.16.5.5,0,0,0-.14-.1,1.38,1.38,0,0,0-.3-.09v-.24l1.09,0h.28l-.06.77.07,0a5.19,5.19,0,0,1,.45-.43,1.69,1.69,0,0,1,.35-.22,1.31,1.31,0,0,1,.34-.13,1.34,1.34,0,0,1,.35,0,1.36,1.36,0,0,1,1.18.58,3,3,0,0,1,.41,1.69,3.29,3.29,0,0,1-.23,1.3,1.73,1.73,0,0,1-.68.8,2,2,0,0,1-1,.26,2.9,2.9,0,0,1-.62-.06A2.35,2.35,0,0,1,111.06,200.49Zm0-1.54a3.13,3.13,0,0,0,0,.69.82.82,0,0,0,.53.62,1.43,1.43,0,0,0,.51.08.92.92,0,0,0,.84-.47,2.74,2.74,0,0,0,.29-1.39c0-1.22-.36-1.84-1.07-1.84a1,1,0,0,0-.44.09,1.23,1.23,0,0,0-.38.26,1.26,1.26,0,0,0-.26.35.94.94,0,0,0-.07.37Z"/><path d="M116.38,196.93l.07,0a3.32,3.32,0,0,1,.47-.5,1.62,1.62,0,0,1,1-.37,3.58,3.58,0,0,1,.49,0v1.07h-.52a1.31,1.31,0,0,0-.24-.37.51.51,0,0,0-.34-.11.61.61,0,0,0-.34.1,1.36,1.36,0,0,0-.52.64,1,1,0,0,0-.06.38v1.64a2,2,0,0,0,0,.59.4.4,0,0,0,.17.24.9.9,0,0,0,.35.11v.23h-1.87v-.23a1.81,1.81,0,0,0,.26-.09.49.49,0,0,0,.13-.12.56.56,0,0,0,.08-.23,2.72,2.72,0,0,0,0-.48v-2c0-.2,0-.37,0-.49a1,1,0,0,0-.06-.29.37.37,0,0,0-.17-.16,1.45,1.45,0,0,0-.33-.1v-.24l1.09,0h.28Z"/><path d="M122.81,199.84a4.43,4.43,0,0,1-.54.49,2.19,2.19,0,0,1-.55.28,1.93,1.93,0,0,1-.65.1,1.79,1.79,0,0,1-1.45-.58,2.6,2.6,0,0,1-.48-1.71,2.85,2.85,0,0,1,.25-1.23,1.85,1.85,0,0,1,1.76-1.11,1.94,1.94,0,0,1,.8.15,1.35,1.35,0,0,1,.53.41,1.86,1.86,0,0,1,.3.65,4.62,4.62,0,0,1,.12,1H120v.09a3.09,3.09,0,0,0,.12.93,1.21,1.21,0,0,0,.41.59,1.19,1.19,0,0,0,.73.21,1.51,1.51,0,0,0,.68-.14,2,2,0,0,0,.61-.47Zm-.78-1.9a4,4,0,0,0-.12-.83,1.08,1.08,0,0,0-.3-.49.72.72,0,0,0-.51-.17.92.92,0,0,0-.76.38,2.18,2.18,0,0,0-.34,1.11Z"/><path d="M128.3,200.63h-1.82v-.23a2.42,2.42,0,0,0,.26-.09.49.49,0,0,0,.13-.12A.76.76,0,0,0,127,200a2.88,2.88,0,0,0,0-.48v-1.23a5.53,5.53,0,0,0,0-.59,2.34,2.34,0,0,0-.06-.44.7.7,0,0,0-.11-.26.79.79,0,0,0-.14-.17l-.2-.11a1.12,1.12,0,0,0-.29,0,.85.85,0,0,0-.35.08,1.72,1.72,0,0,0-.64.6.84.84,0,0,0-.08.4v1.74a3.43,3.43,0,0,0,0,.56.41.41,0,0,0,.14.24.91.91,0,0,0,.34.14v.23h-1.81v-.23a1.59,1.59,0,0,0,.25-.09.37.37,0,0,0,.13-.12.55.55,0,0,0,.09-.23,2.72,2.72,0,0,0,0-.48v-2c0-.2,0-.37,0-.49a.73.73,0,0,0-.07-.29.3.3,0,0,0-.17-.16,1.21,1.21,0,0,0-.32-.1v-.24l1.09,0h.28l0,.77.06,0a5.27,5.27,0,0,1,.56-.51,2.91,2.91,0,0,1,.42-.23,1.44,1.44,0,0,1,.46-.08,1.53,1.53,0,0,1,.45.06,1,1,0,0,1,.6.48,1.63,1.63,0,0,1,.14.44,3.6,3.6,0,0,1,0,.64v1.76c0,.22,0,.37,0,.47a.64.64,0,0,0,.06.23.44.44,0,0,0,.14.13,1.2,1.2,0,0,0,.3.11Z"/><path d="M132.27,195.54c0-.3,0-.51,0-.63a2.43,2.43,0,0,0,0-.3.68.68,0,0,0-.08-.19.3.3,0,0,0-.14-.11,1.59,1.59,0,0,0-.33-.09V194l1.12,0h.27v5.43c0,.24,0,.41,0,.52a.76.76,0,0,0,.06.25.4.4,0,0,0,.14.15,1.2,1.2,0,0,0,.35.11v.24l-1.09.05h-.28l.06-.77-.07,0a5.09,5.09,0,0,1-.51.48,2.55,2.55,0,0,1-.46.25,1.5,1.5,0,0,1-.52.09,1.33,1.33,0,0,1-1.17-.58,3.45,3.45,0,0,1-.15-3,1.78,1.78,0,0,1,.73-.8,2,2,0,0,1,1-.26,2.39,2.39,0,0,1,.55,0,2.21,2.21,0,0,1,.52.16Zm0,2.32a3.13,3.13,0,0,0,0-.59,1,1,0,0,0-.11-.37.69.69,0,0,0-.2-.25.8.8,0,0,0-.29-.15,1.27,1.27,0,0,0-.37-.05,1,1,0,0,0-.9.48,2.51,2.51,0,0,0-.32,1.38,2.92,2.92,0,0,0,.26,1.37.83.83,0,0,0,.77.47,1.09,1.09,0,0,0,.34,0,1,1,0,0,0,.27-.11,1.5,1.5,0,0,0,.26-.21,1.28,1.28,0,0,0,.2-.25,1,1,0,0,0,.09-.26,1.31,1.31,0,0,0,0-.37Z"/><path d="M134.45,200.4a1.81,1.81,0,0,0,.26-.09.49.49,0,0,0,.13-.12.56.56,0,0,0,.08-.23,2.72,2.72,0,0,0,0-.48v-2c0-.2,0-.37,0-.49a.6.6,0,0,0-.06-.29.33.33,0,0,0-.17-.16,1.35,1.35,0,0,0-.32-.1v-.24l1.08,0h.28v3.35a2.38,2.38,0,0,0,0,.56.36.36,0,0,0,.14.24.84.84,0,0,0,.34.14v.23h-1.82Zm1.33-6.08v.91h-.85v-.91Z"/><path d="M139.34,198.53h-2.15v-.72h2.15Z"/><path d="M18.6,210.79v1.36H15v-.23l2.54-3.87H16.31a.78.78,0,0,0-.37.08,1,1,0,0,0-.25.28,2.46,2.46,0,0,0-.23.53h-.41v-1.27h3.52v.23L16,211.77h1.22a1.11,1.11,0,0,0,.36,0,.37.37,0,0,0,.21-.12.83.83,0,0,0,.18-.26,5,5,0,0,0,.19-.56Z"/><path d="M22.15,211.48l-.07,0a2.85,2.85,0,0,1-.76.59,1.79,1.79,0,0,1-.75.17,1.27,1.27,0,0,1-.63-.14,1.07,1.07,0,0,1-.41-.38,1.21,1.21,0,0,1-.14-.58,1.16,1.16,0,0,1,.67-1.06,4.7,4.7,0,0,1,2-.43v-.31a2.66,2.66,0,0,0-.09-.77.8.8,0,0,0-.3-.41.93.93,0,0,0-.53-.13.9.9,0,0,0-.58.19,1.13,1.13,0,0,0-.33.58h-.61v-.61a5.45,5.45,0,0,1,.74-.34,3.42,3.42,0,0,1,.6-.18,2.91,2.91,0,0,1,.6-.06,1.6,1.6,0,0,1,.74.15,1,1,0,0,1,.41.45,2.19,2.19,0,0,1,.14.92v1.63c0,.23,0,.39,0,.49a2.11,2.11,0,0,0,0,.26.77.77,0,0,0,.07.2.55.55,0,0,0,.14.12,1.81,1.81,0,0,0,.3.11v.23H22.12ZM22.07,210a3.32,3.32,0,0,0-1.41.25.8.8,0,0,0-.47.74.72.72,0,0,0,.11.42.5.5,0,0,0,.27.21,1,1,0,0,0,.38.06,1.1,1.1,0,0,0,.57-.15,1.18,1.18,0,0,0,.41-.39,1,1,0,0,0,.14-.48Z"/><path d="M25.41,212.06a3.32,3.32,0,0,1-.13,1.05,1.55,1.55,0,0,1-.47.67,2.52,2.52,0,0,1-.93.44l-.15-.41a2.46,2.46,0,0,0,.43-.21.82.82,0,0,0,.25-.24.85.85,0,0,0,.15-.36,2.32,2.32,0,0,0,.05-.57V209c0-.25,0-.42,0-.53a.76.76,0,0,0-.06-.25.29.29,0,0,0-.15-.14,1,1,0,0,0-.35-.11v-.25l1.09,0h.28Zm0-6.23v.91h-.85v-.91Z"/><path d="M30.44,211.35a3.81,3.81,0,0,1-.55.49,2.13,2.13,0,0,1-.54.28,2,2,0,0,1-.66.1,1.75,1.75,0,0,1-1.44-.58,2.54,2.54,0,0,1-.49-1.7A2.86,2.86,0,0,1,27,208.7a1.9,1.9,0,0,1,.71-.82,2,2,0,0,1,1.05-.29,1.9,1.9,0,0,1,.8.15,1.37,1.37,0,0,1,.53.41,2,2,0,0,1,.31.66,4.47,4.47,0,0,1,.12,1H27.61v.08a3.09,3.09,0,0,0,.12.93,1.1,1.1,0,0,0,1.13.81,1.55,1.55,0,0,0,.69-.15,2,2,0,0,0,.6-.46Zm-.78-1.9a3.44,3.44,0,0,0-.13-.83,1,1,0,0,0-.29-.49.77.77,0,0,0-.51-.17.89.89,0,0,0-.76.39,2,2,0,0,0-.34,1.1Z"/><path d="M39.9,212.22a1.86,1.86,0,0,1-1.47-.57,2.49,2.49,0,0,1-.51-1.7,3.06,3.06,0,0,1,.26-1.31,1.87,1.87,0,0,1,.73-.79,2.19,2.19,0,0,1,1.06-.26,1.9,1.9,0,0,1,1.51.58,2.48,2.48,0,0,1,.51,1.68,3,3,0,0,1-.26,1.31,1.76,1.76,0,0,1-.72.8A2.3,2.3,0,0,1,39.9,212.22Zm-1.11-2.37a2.94,2.94,0,0,0,.31,1.48,1,1,0,0,0,.87.52.92.92,0,0,0,.53-.15,1.18,1.18,0,0,0,.35-.41,2,2,0,0,0,.2-.6,4,4,0,0,0,.06-.71,3.66,3.66,0,0,0-.15-1.14,1.45,1.45,0,0,0-.41-.67A.93.93,0,0,0,40,208a1,1,0,0,0-.86.49A2.72,2.72,0,0,0,38.79,209.85Z"/><path d="M50.68,211a2.49,2.49,0,0,0,0,.56.36.36,0,0,0,.14.23.83.83,0,0,0,.34.15v.23H49.36v-.23a1.14,1.14,0,0,0,.32-.13.34.34,0,0,0,.13-.16,1.11,1.11,0,0,0,0-.24,2.43,2.43,0,0,0,0-.41v-3.92c0-.3,0-.51,0-.63a1.26,1.26,0,0,0,0-.3.46.46,0,0,0-.09-.2.31.31,0,0,0-.14-.11,1.42,1.42,0,0,0-.33-.09v-.24l1.12-.05h.28Z"/><path d="M55.77,211.35a3.79,3.79,0,0,1-.54.49,2.19,2.19,0,0,1-.55.28,1.93,1.93,0,0,1-.65.1,1.75,1.75,0,0,1-1.44-.58,2.54,2.54,0,0,1-.49-1.7,2.86,2.86,0,0,1,.25-1.24,1.88,1.88,0,0,1,.7-.82,2,2,0,0,1,1.06-.29,1.94,1.94,0,0,1,.8.15,1.37,1.37,0,0,1,.53.41,1.83,1.83,0,0,1,.3.66,3.92,3.92,0,0,1,.13,1H52.94v.08a2.78,2.78,0,0,0,.13.93,1.14,1.14,0,0,0,.4.59,1.2,1.2,0,0,0,.73.22,1.51,1.51,0,0,0,.68-.15,1.92,1.92,0,0,0,.61-.46Zm-.78-1.9a3.49,3.49,0,0,0-.12-.83,1.07,1.07,0,0,0-.29-.49.77.77,0,0,0-.51-.17.91.91,0,0,0-.77.39,2,2,0,0,0-.33,1.1Z"/><path d="M60.2,207.78v1h-.59a1.37,1.37,0,0,0-.19-.48.7.7,0,0,0-.27-.25.86.86,0,0,0-.38-.07.84.84,0,0,0-.57.21,1.44,1.44,0,0,0-.4.64,3.26,3.26,0,0,0-.15,1.06,4,4,0,0,0,.06.72,1.82,1.82,0,0,0,.19.57,1,1,0,0,0,.36.36,1,1,0,0,0,.55.14,1.45,1.45,0,0,0,.59-.13,1.72,1.72,0,0,0,.58-.45l.26.31a3.88,3.88,0,0,1-.42.41,3,3,0,0,1-.38.24,2.49,2.49,0,0,1-.41.14,2.06,2.06,0,0,1-.44,0,1.59,1.59,0,0,1-1.34-.59,3.21,3.21,0,0,1-.2-2.92,1.89,1.89,0,0,1,.72-.83,2.08,2.08,0,0,1,1.08-.29,5.23,5.23,0,0,1,.71,0A3.71,3.71,0,0,1,60.2,207.78Z"/><path d="M64.44,207.78v1h-.59a1.59,1.59,0,0,0-.19-.48.7.7,0,0,0-.27-.25A.86.86,0,0,0,63,208a.88.88,0,0,0-.58.21,1.44,1.44,0,0,0-.4.64,3.58,3.58,0,0,0-.14,1.06,5.31,5.31,0,0,0,0,.72,1.82,1.82,0,0,0,.19.57,1,1,0,0,0,.36.36,1,1,0,0,0,.55.14,1.47,1.47,0,0,0,.6-.13,1.8,1.8,0,0,0,.57-.45l.27.31a3.88,3.88,0,0,1-.42.41,2.55,2.55,0,0,1-.39.24,2.21,2.21,0,0,1-.41.14,2,2,0,0,1-.43,0,1.57,1.57,0,0,1-1.34-.59,2.66,2.66,0,0,1-.47-1.69,2.79,2.79,0,0,1,.26-1.23,1.91,1.91,0,0,1,.73-.83,2,2,0,0,1,1.08-.29,5.08,5.08,0,0,1,.7,0A3.81,3.81,0,0,1,64.44,207.78Z"/><path d="M65.22,211.92a1.58,1.58,0,0,0,.26-.1.49.49,0,0,0,.13-.12.67.67,0,0,0,.08-.23,2.72,2.72,0,0,0,0-.48v-2c0-.2,0-.36,0-.49a.78.78,0,0,0-.06-.29.37.37,0,0,0-.17-.16,1.1,1.1,0,0,0-.33-.09v-.25l1.09,0h.28V211a2.49,2.49,0,0,0,0,.56.36.36,0,0,0,.14.23.83.83,0,0,0,.34.15v.23H65.22Zm1.33-6.09v.91h-.86v-.91Z"/><path d="M69.93,212.22a1.88,1.88,0,0,1-1.48-.57,2.49,2.49,0,0,1-.51-1.7,2.91,2.91,0,0,1,.27-1.31,1.81,1.81,0,0,1,.73-.79,2.16,2.16,0,0,1,1.06-.26,1.88,1.88,0,0,1,1.5.58,2.48,2.48,0,0,1,.51,1.68,3,3,0,0,1-.25,1.31,1.73,1.73,0,0,1-.73.8A2.26,2.26,0,0,1,69.93,212.22Zm-1.11-2.37a3,3,0,0,0,.3,1.48,1,1,0,0,0,.87.52.9.9,0,0,0,.53-.15,1.1,1.1,0,0,0,.36-.41,2,2,0,0,0,.2-.6,4,4,0,0,0,.06-.71,3.66,3.66,0,0,0-.15-1.14,1.46,1.46,0,0,0-.42-.67A.91.91,0,0,0,70,208a1,1,0,0,0-.86.49A2.72,2.72,0,0,0,68.82,209.85Zm2.33-4.46v.24l-1.47,1.51-.3-.25,1-1.5Z"/><path d="M77.51,212.15H75.69v-.23l.26-.1a.49.49,0,0,0,.13-.12.67.67,0,0,0,.08-.23,2.67,2.67,0,0,0,0-.47v-1.23a5.62,5.62,0,0,0,0-.6,2.11,2.11,0,0,0-.06-.43.69.69,0,0,0-.11-.27.79.79,0,0,0-.14-.17.75.75,0,0,0-.2-.1.81.81,0,0,0-.29,0,.84.84,0,0,0-.35.07,1.55,1.55,0,0,0-.35.25,1.45,1.45,0,0,0-.29.35,1,1,0,0,0-.08.4V211a3.6,3.6,0,0,0,0,.56.41.41,0,0,0,.14.23.89.89,0,0,0,.35.15v.23H73v-.23l.25-.1a.3.3,0,0,0,.13-.12.5.5,0,0,0,.09-.23,2.72,2.72,0,0,0,0-.48v-2c0-.2,0-.36,0-.49a.77.77,0,0,0-.07-.29.3.3,0,0,0-.17-.16,1,1,0,0,0-.32-.09v-.25l1.09,0h.28l0,.76.06,0a4.12,4.12,0,0,1,.56-.5,1.63,1.63,0,0,1,.43-.23,1.13,1.13,0,0,1,.45-.09,1.53,1.53,0,0,1,.45.06,1.06,1.06,0,0,1,.35.18,1.1,1.1,0,0,1,.25.31,1.55,1.55,0,0,1,.14.43,3.69,3.69,0,0,1,0,.64V211c0,.21,0,.37,0,.47a.58.58,0,0,0,.06.22.35.35,0,0,0,.14.13,1.14,1.14,0,0,0,.3.12Z"/><path d="M88.27,207.78v1h-.59a1.37,1.37,0,0,0-.19-.48.7.7,0,0,0-.27-.25.86.86,0,0,0-.38-.07.88.88,0,0,0-.58.21,1.43,1.43,0,0,0-.39.64,3.26,3.26,0,0,0-.15,1.06,4,4,0,0,0,.06.72,1.6,1.6,0,0,0,.19.57,1,1,0,0,0,.35.36,1.08,1.08,0,0,0,.56.14,1.45,1.45,0,0,0,.59-.13,1.61,1.61,0,0,0,.57-.45l.27.31a3.88,3.88,0,0,1-.42.41,2.55,2.55,0,0,1-.39.24,2.12,2.12,0,0,1-.4.14,2.06,2.06,0,0,1-.44,0,1.58,1.58,0,0,1-1.34-.59,2.66,2.66,0,0,1-.47-1.69,2.79,2.79,0,0,1,.26-1.23,2,2,0,0,1,.73-.83,2,2,0,0,1,1.08-.29,5,5,0,0,1,.7,0A3.61,3.61,0,0,1,88.27,207.78Z"/><path d="M91.07,212.22a1.87,1.87,0,0,1-1.47-.57,2.49,2.49,0,0,1-.51-1.7,2.91,2.91,0,0,1,.27-1.31,1.76,1.76,0,0,1,.73-.79,2.15,2.15,0,0,1,1-.26,1.89,1.89,0,0,1,1.51.58,2.48,2.48,0,0,1,.51,1.68,3,3,0,0,1-.26,1.31,1.76,1.76,0,0,1-.72.8A2.28,2.28,0,0,1,91.07,212.22ZM90,209.85a3,3,0,0,0,.3,1.48,1,1,0,0,0,.87.52.92.92,0,0,0,.53-.15,1.18,1.18,0,0,0,.35-.41,2,2,0,0,0,.2-.6,4,4,0,0,0,.06-.71,3.66,3.66,0,0,0-.15-1.14,1.45,1.45,0,0,0-.41-.67.91.91,0,0,0-.59-.21.93.93,0,0,0-.86.49A2.72,2.72,0,0,0,90,209.85Z"/><path d="M95.39,208.39l.07,0a3.81,3.81,0,0,1,.46-.42,1.57,1.57,0,0,1,.34-.23,1.89,1.89,0,0,1,.31-.13,1.54,1.54,0,0,1,.3,0,1.29,1.29,0,0,1,.76.22,1.1,1.1,0,0,1,.4.66,5.49,5.49,0,0,1,.57-.52,1.54,1.54,0,0,1,.44-.26,1.12,1.12,0,0,1,.48-.1,1.27,1.27,0,0,1,.54.1.94.94,0,0,1,.38.28,1.22,1.22,0,0,1,.23.47,3.81,3.81,0,0,1,.07.77V211a4.88,4.88,0,0,0,0,.49.73.73,0,0,0,.07.21.4.4,0,0,0,.13.13,1.81,1.81,0,0,0,.3.11v.23H99.43v-.23a1.28,1.28,0,0,0,.26-.1.41.41,0,0,0,.14-.12.67.67,0,0,0,.08-.23,2.67,2.67,0,0,0,0-.47v-1.23c0-.27,0-.49,0-.66a2,2,0,0,0-.07-.42.91.91,0,0,0-.1-.24.67.67,0,0,0-.14-.15.72.72,0,0,0-.19-.11,1,1,0,0,0-.28,0,.81.81,0,0,0-.35.07,2,2,0,0,0-.35.25,1.41,1.41,0,0,0-.27.36,1.1,1.1,0,0,0-.08.43V211a4.88,4.88,0,0,0,0,.49.73.73,0,0,0,.07.21.4.4,0,0,0,.13.13,1.81,1.81,0,0,0,.3.11v.23H96.79v-.23l.26-.1a.49.49,0,0,0,.13-.12.67.67,0,0,0,.08-.23,2.67,2.67,0,0,0,0-.47v-1.23c0-.28,0-.51,0-.68a2.58,2.58,0,0,0-.07-.42.9.9,0,0,0-.13-.26.53.53,0,0,0-.15-.15l-.19-.08-.24,0a.73.73,0,0,0-.36.08,1.73,1.73,0,0,0-.34.25,1.18,1.18,0,0,0-.26.35.79.79,0,0,0-.09.38V211c0,.17,0,.31,0,.4a.8.8,0,0,0,0,.22.24.24,0,0,0,.08.13.34.34,0,0,0,.13.1,1.13,1.13,0,0,0,.25.09v.23H94.15v-.23l.25-.1a.49.49,0,0,0,.13-.12.41.41,0,0,0,.08-.23,2.72,2.72,0,0,0,0-.48v-2c0-.2,0-.36,0-.49a.62.62,0,0,0-.06-.29.33.33,0,0,0-.17-.16,1,1,0,0,0-.32-.09v-.25l1.08,0h.29Z"/><path d="M104.11,212.22a1.87,1.87,0,0,1-1.47-.57,2.49,2.49,0,0,1-.51-1.7,2.91,2.91,0,0,1,.27-1.31,1.81,1.81,0,0,1,.73-.79,2.16,2.16,0,0,1,1.06-.26,1.88,1.88,0,0,1,1.5.58,2.48,2.48,0,0,1,.51,1.68,3,3,0,0,1-.26,1.31,1.76,1.76,0,0,1-.72.8A2.28,2.28,0,0,1,104.11,212.22Zm-1.1-2.37a3,3,0,0,0,.3,1.48,1,1,0,0,0,.87.52.92.92,0,0,0,.53-.15,1.18,1.18,0,0,0,.35-.41,1.77,1.77,0,0,0,.2-.6,4,4,0,0,0,.06-.71,3.66,3.66,0,0,0-.15-1.14,1.45,1.45,0,0,0-.41-.67.91.91,0,0,0-.59-.21.94.94,0,0,0-.86.49A2.72,2.72,0,0,0,103,209.85Z"/><path d="M117.11,207.78v1h-.59a1.59,1.59,0,0,0-.19-.48.7.7,0,0,0-.27-.25,1,1,0,0,0-1,.14,1.44,1.44,0,0,0-.4.64,3.58,3.58,0,0,0-.14,1.06,5.31,5.31,0,0,0,0,.72,1.82,1.82,0,0,0,.19.57,1,1,0,0,0,.36.36,1,1,0,0,0,.55.14,1.5,1.5,0,0,0,.6-.13,1.8,1.8,0,0,0,.57-.45l.27.31a3.88,3.88,0,0,1-.42.41,2.55,2.55,0,0,1-.39.24,2.21,2.21,0,0,1-.41.14,2,2,0,0,1-.44,0,1.59,1.59,0,0,1-1.34-.59,2.66,2.66,0,0,1-.46-1.69,2.79,2.79,0,0,1,.26-1.23,1.91,1.91,0,0,1,.73-.83,2,2,0,0,1,1.08-.29,5.08,5.08,0,0,1,.7,0A3.81,3.81,0,0,1,117.11,207.78Z"/><path d="M119.91,212.22a1.88,1.88,0,0,1-1.48-.57,2.54,2.54,0,0,1-.5-1.7,2.92,2.92,0,0,1,.26-1.31,1.81,1.81,0,0,1,.73-.79,2.16,2.16,0,0,1,1.06-.26,1.88,1.88,0,0,1,1.5.58,2.48,2.48,0,0,1,.51,1.68,3,3,0,0,1-.25,1.31,1.76,1.76,0,0,1-.72.8A2.33,2.33,0,0,1,119.91,212.22Zm-1.11-2.37a2.84,2.84,0,0,0,.31,1.48,1,1,0,0,0,1.4.37,1.18,1.18,0,0,0,.35-.41,2,2,0,0,0,.2-.6,4,4,0,0,0,.06-.71,3.66,3.66,0,0,0-.15-1.14,1.45,1.45,0,0,0-.41-.67,1,1,0,0,0-1.46.28A2.72,2.72,0,0,0,118.8,209.85Z"/><path d="M127.5,212.15h-1.83v-.23a1.58,1.58,0,0,0,.26-.1.37.37,0,0,0,.13-.12.51.51,0,0,0,.08-.23,2.67,2.67,0,0,0,0-.47v-1.23c0-.22,0-.42,0-.6a3,3,0,0,0-.07-.43.9.9,0,0,0-.1-.27.61.61,0,0,0-.15-.17.63.63,0,0,0-.2-.1.78.78,0,0,0-.29,0,.77.77,0,0,0-.34.07,1.39,1.39,0,0,0-.36.25,1.19,1.19,0,0,0-.28.35.87.87,0,0,0-.09.4V211a3.6,3.6,0,0,0,0,.56.42.42,0,0,0,.15.23.83.83,0,0,0,.34.15v.23H123v-.23l.26-.1a.49.49,0,0,0,.13-.12.67.67,0,0,0,.08-.23,2.72,2.72,0,0,0,0-.48v-2c0-.2,0-.36,0-.49a1.05,1.05,0,0,0-.06-.29.37.37,0,0,0-.17-.16,1.1,1.1,0,0,0-.33-.09v-.25l1.09,0h.28l0,.76.07,0a3.62,3.62,0,0,1,.55-.5,1.63,1.63,0,0,1,.43-.23,1.13,1.13,0,0,1,.45-.09,1.53,1.53,0,0,1,.45.06,1.06,1.06,0,0,1,.35.18,1.1,1.1,0,0,1,.25.31,1.55,1.55,0,0,1,.14.43,2.91,2.91,0,0,1,0,.64V211c0,.21,0,.37,0,.47a.57.57,0,0,0,.07.22.33.33,0,0,0,.13.13,1.1,1.1,0,0,0,.31.12Z"/><path d="M131.44,208.69H131a1.64,1.64,0,0,0-.24-.44.69.69,0,0,0-.32-.22A1.08,1.08,0,0,0,130,208a.9.9,0,0,0-.59.18.55.55,0,0,0-.22.47.64.64,0,0,0,.09.36,1,1,0,0,0,.27.26,5.57,5.57,0,0,0,.66.33,4,4,0,0,1,.73.38,1.38,1.38,0,0,1,.4.4,1,1,0,0,1,.15.55,1.32,1.32,0,0,1-.13.62,1,1,0,0,1-.35.41,1.47,1.47,0,0,1-.54.23,3,3,0,0,1-.69.07,4.56,4.56,0,0,1-.75-.06c-.25,0-.48-.09-.72-.15v-1h.46a1.2,1.2,0,0,0,.37.63,1.06,1.06,0,0,0,.68.19,1.66,1.66,0,0,0,.32,0,1.1,1.1,0,0,0,.29-.12.61.61,0,0,0,.2-.22.9.9,0,0,0,0-.74,1,1,0,0,0-.29-.28,6.33,6.33,0,0,0-.68-.33,4.19,4.19,0,0,1-.68-.35,1.18,1.18,0,0,1-.4-.4,1,1,0,0,1-.15-.54,1.09,1.09,0,0,1,.21-.67,1.26,1.26,0,0,1,.59-.43,2.57,2.57,0,0,1,.92-.15,5.68,5.68,0,0,1,.59,0q.28,0,.72.12Z"/><path d="M136.16,211.35a3.79,3.79,0,0,1-.54.49,2.19,2.19,0,0,1-.55.28,1.89,1.89,0,0,1-.65.1,1.75,1.75,0,0,1-1.44-.58,2.54,2.54,0,0,1-.49-1.7,2.86,2.86,0,0,1,.25-1.24,1.84,1.84,0,0,1,.71-.82,1.92,1.92,0,0,1,1.05-.29,1.9,1.9,0,0,1,.8.15,1.37,1.37,0,0,1,.53.41,1.83,1.83,0,0,1,.3.66,3.92,3.92,0,0,1,.13,1h-2.93v.08a2.78,2.78,0,0,0,.13.93,1.14,1.14,0,0,0,.4.59,1.2,1.2,0,0,0,.73.22,1.58,1.58,0,0,0,.69-.15,2,2,0,0,0,.6-.46Zm-.78-1.9a3.49,3.49,0,0,0-.12-.83,1.07,1.07,0,0,0-.29-.49.77.77,0,0,0-.51-.17.91.91,0,0,0-.77.39,2,2,0,0,0-.33,1.1Z"/><path d="M139.34,210h-2.15v-.72h2.15Z"/><path d="M18.56,219.29v1H18a1.57,1.57,0,0,0-.2-.48.59.59,0,0,0-.27-.25.86.86,0,0,0-.38-.07.87.87,0,0,0-.57.21,1.44,1.44,0,0,0-.4.64,3.28,3.28,0,0,0-.14,1.06,4.19,4.19,0,0,0,0,.73,1.76,1.76,0,0,0,.19.56,1,1,0,0,0,.36.37,1.15,1.15,0,0,0,.55.13,1.54,1.54,0,0,0,.6-.13,1.9,1.9,0,0,0,.57-.44l.26.3a2.62,2.62,0,0,1-.41.41,1.58,1.58,0,0,1-.39.24,2.21,2.21,0,0,1-.41.14,2,2,0,0,1-.44,0,1.61,1.61,0,0,1-1.34-.58,3.23,3.23,0,0,1-.2-2.93,1.91,1.91,0,0,1,.73-.83,2,2,0,0,1,1.08-.29,5.12,5.12,0,0,1,.7.05A4,4,0,0,1,18.56,219.29Z"/><path d="M19.23,219.18h1.32v2.39a5.9,5.9,0,0,0,0,.83,1.51,1.51,0,0,0,.12.43.69.69,0,0,0,.24.24.73.73,0,0,0,.42.1.8.8,0,0,0,.34-.07,1.6,1.6,0,0,0,.36-.24,1.25,1.25,0,0,0,.29-.35.88.88,0,0,0,.08-.41v-1.75c0-.18,0-.32,0-.41a.54.54,0,0,0-.05-.21.46.46,0,0,0-.07-.14.48.48,0,0,0-.13-.09,1.07,1.07,0,0,0-.26-.09v-.23h1.32v3.2c0,.24,0,.41,0,.52a.7.7,0,0,0,.06.25.29.29,0,0,0,.14.15,1.36,1.36,0,0,0,.35.12v.24l-1.06.05h-.29l0-.77-.07,0a3.21,3.21,0,0,1-.73.62,1.46,1.46,0,0,1-.71.19,1.31,1.31,0,0,1-.69-.16,1.05,1.05,0,0,1-.41-.51,2.61,2.61,0,0,1-.13-.94v-1.77a3.14,3.14,0,0,0,0-.54.54.54,0,0,0-.12-.24.86.86,0,0,0-.37-.16Z"/><path d="M28.34,222.86a3.29,3.29,0,0,1-.55.49,1.73,1.73,0,0,1-.54.28,2,2,0,0,1-.66.1,1.8,1.8,0,0,1-1.44-.57,2.64,2.64,0,0,1-.49-1.71,2.93,2.93,0,0,1,.25-1.23,1.93,1.93,0,0,1,.71-.83,2,2,0,0,1,1.06-.29,1.89,1.89,0,0,1,.79.15,1.37,1.37,0,0,1,.53.41,2,2,0,0,1,.31.66,4.55,4.55,0,0,1,.12,1H25.51v.08a3.09,3.09,0,0,0,.12.93,1.1,1.1,0,0,0,1.14.81,1.51,1.51,0,0,0,.68-.15,2,2,0,0,0,.6-.46Zm-.78-1.9a3.44,3.44,0,0,0-.13-.83,1,1,0,0,0-.29-.49.77.77,0,0,0-.51-.17.89.89,0,0,0-.76.39,2,2,0,0,0-.34,1.1Z"/><path d="M33.83,223.66H32v-.23a1.58,1.58,0,0,0,.26-.1.37.37,0,0,0,.13-.12.5.5,0,0,0,.09-.23,2.67,2.67,0,0,0,0-.47v-1.23c0-.22,0-.42,0-.6a2.22,2.22,0,0,0-.06-.43.88.88,0,0,0-.11-.27.57.57,0,0,0-.15-.16.49.49,0,0,0-.2-.11.78.78,0,0,0-.29,0,.8.8,0,0,0-.34.07,1.54,1.54,0,0,0-.64.6.87.87,0,0,0-.09.4v1.75a2.44,2.44,0,0,0,0,.56.42.42,0,0,0,.14.24,1,1,0,0,0,.34.14v.23H29.31v-.23a1.58,1.58,0,0,0,.26-.1.49.49,0,0,0,.13-.12.67.67,0,0,0,.08-.23,2.72,2.72,0,0,0,0-.48v-2c0-.2,0-.36,0-.48a.67.67,0,0,0-.06-.3.38.38,0,0,0-.17-.16,1,1,0,0,0-.32-.09v-.25l1.08,0h.29l-.06.76.07,0a5,5,0,0,1,.55-.5,1.8,1.8,0,0,1,.43-.23,1.17,1.17,0,0,1,.46-.08,2.14,2.14,0,0,1,.45,0,1,1,0,0,1,.34.18,1.07,1.07,0,0,1,.25.31,1.28,1.28,0,0,1,.15.43,3.69,3.69,0,0,1,.05.64v1.77c0,.21,0,.37,0,.47a.81.81,0,0,0,.07.22.4.4,0,0,0,.13.13,1.1,1.1,0,0,0,.31.12Z"/><path d="M38.12,219.29v1h-.59a1.36,1.36,0,0,0-.2-.48.59.59,0,0,0-.27-.25.83.83,0,0,0-.38-.07.87.87,0,0,0-.57.21,1.44,1.44,0,0,0-.4.64,3.28,3.28,0,0,0-.14,1.06,4.19,4.19,0,0,0,0,.73,1.76,1.76,0,0,0,.19.56,1,1,0,0,0,.36.37,1.15,1.15,0,0,0,.55.13,1.54,1.54,0,0,0,.6-.13,1.9,1.9,0,0,0,.57-.44l.26.3a2.62,2.62,0,0,1-.41.41,1.58,1.58,0,0,1-.39.24,2.21,2.21,0,0,1-.41.14,2,2,0,0,1-.44,0,1.61,1.61,0,0,1-1.34-.58,2.71,2.71,0,0,1-.46-1.7,2.85,2.85,0,0,1,.26-1.23,1.91,1.91,0,0,1,.73-.83,2,2,0,0,1,1.08-.29,5.12,5.12,0,0,1,.7.05A4,4,0,0,1,38.12,219.29Z"/><path d="M38.9,223.43l.25-.1a.3.3,0,0,0,.13-.12.5.5,0,0,0,.09-.23,2.72,2.72,0,0,0,0-.48v-2c0-.2,0-.36,0-.48a.83.83,0,0,0-.07-.3.33.33,0,0,0-.17-.16,1,1,0,0,0-.32-.09v-.25l1.08,0h.29v3.35a3.51,3.51,0,0,0,0,.56.57.57,0,0,0,.14.24,1.09,1.09,0,0,0,.35.14v.23H38.9Zm1.32-6.09v.91h-.85v-.91Z"/><path d="M44.27,223l-.07,0a2.8,2.8,0,0,1-.76.59,1.66,1.66,0,0,1-.76.17,1.38,1.38,0,0,1-.62-.13,1,1,0,0,1-.55-1,1.16,1.16,0,0,1,.67-1.06,4.63,4.63,0,0,1,2-.43v-.31a2.22,2.22,0,0,0-.1-.76.78.78,0,0,0-.29-.42,1,1,0,0,0-.53-.13.88.88,0,0,0-.58.19,1.21,1.21,0,0,0-.34.58h-.6v-.61a6.23,6.23,0,0,1,.74-.34,4.92,4.92,0,0,1,.59-.18,3.08,3.08,0,0,1,.61-.06,1.52,1.52,0,0,1,.73.15.92.92,0,0,1,.42.45,2.36,2.36,0,0,1,.14.92v2.12l0,.26a.77.77,0,0,0,.07.2.33.33,0,0,0,.14.12,1.26,1.26,0,0,0,.29.11v.23H44.24Zm-.08-1.47a3.15,3.15,0,0,0-1.41.26.76.76,0,0,0-.47.73.73.73,0,0,0,.1.42.61.61,0,0,0,.27.22,1.15,1.15,0,0,0,.39,0,1.1,1.1,0,0,0,.57-.15,1.07,1.07,0,0,0,.4-.39.9.9,0,0,0,.15-.48Z"/><path d="M51.54,218.57c0-.3,0-.51,0-.63a1.26,1.26,0,0,0,0-.3.46.46,0,0,0-.09-.2.4.4,0,0,0-.14-.11,1.11,1.11,0,0,0-.33-.08V217l1.13,0h.27v5.42c0,.24,0,.42,0,.52a.7.7,0,0,0,.06.25.28.28,0,0,0,.15.15,1.36,1.36,0,0,0,.35.12v.24l-1.1.05h-.27l.05-.77-.07,0a3,3,0,0,1-.51.47,2,2,0,0,1-.45.25,1.55,1.55,0,0,1-.53.09,1.35,1.35,0,0,1-1.17-.58,3.49,3.49,0,0,1-.14-3,1.94,1.94,0,0,1,.72-.8,2.1,2.1,0,0,1,1-.26,3.24,3.24,0,0,1,.56.05,3,3,0,0,1,.51.16Zm0,2.31a4.4,4.4,0,0,0,0-.58,1.16,1.16,0,0,0-.11-.37.82.82,0,0,0-.49-.41,1.43,1.43,0,0,0-.38,0,1,1,0,0,0-.9.48,2.52,2.52,0,0,0-.31,1.38,2.89,2.89,0,0,0,.25,1.36.82.82,0,0,0,.78.47,1.65,1.65,0,0,0,.34,0A.88.88,0,0,0,51,223a1.24,1.24,0,0,0,.27-.21,1,1,0,0,0,.19-.25.67.67,0,0,0,.1-.26,1.83,1.83,0,0,0,0-.37Z"/><path d="M57.43,222.86a3.27,3.27,0,0,1-.54.49,2,2,0,0,1-1.2.38,1.78,1.78,0,0,1-1.44-.57,2.58,2.58,0,0,1-.49-1.71,2.79,2.79,0,0,1,.25-1.23,1.86,1.86,0,0,1,.71-.83,1.92,1.92,0,0,1,1.05-.29,1.9,1.9,0,0,1,.8.15,1.37,1.37,0,0,1,.53.41,1.83,1.83,0,0,1,.3.66,4,4,0,0,1,.13,1H54.6v.08a2.78,2.78,0,0,0,.13.93,1.1,1.1,0,0,0,.4.59,1.13,1.13,0,0,0,.73.22,1.58,1.58,0,0,0,.69-.15,2,2,0,0,0,.6-.46Zm-.78-1.9a3.49,3.49,0,0,0-.12-.83,1.12,1.12,0,0,0-.29-.49.77.77,0,0,0-.51-.17.91.91,0,0,0-.77.39,2,2,0,0,0-.33,1.1Z"/><path d="M64.25,222.86a3.27,3.27,0,0,1-.54.49,2,2,0,0,1-1.2.38,1.78,1.78,0,0,1-1.44-.57,2.58,2.58,0,0,1-.49-1.71,2.79,2.79,0,0,1,.25-1.23,1.86,1.86,0,0,1,.71-.83,1.92,1.92,0,0,1,1.05-.29,1.9,1.9,0,0,1,.8.15,1.37,1.37,0,0,1,.53.41,1.83,1.83,0,0,1,.3.66,4,4,0,0,1,.13,1H61.42v.08a3.06,3.06,0,0,0,.13.93,1.1,1.1,0,0,0,.4.59,1.13,1.13,0,0,0,.73.22,1.58,1.58,0,0,0,.69-.15,2,2,0,0,0,.6-.46Zm-.78-1.9a3.49,3.49,0,0,0-.12-.83,1.12,1.12,0,0,0-.29-.49.77.77,0,0,0-.51-.17.91.91,0,0,0-.77.39,2,2,0,0,0-.33,1.1Z"/><path d="M66.47,222.49a3.51,3.51,0,0,0,0,.56.49.49,0,0,0,.15.24,1,1,0,0,0,.34.14v.23H65.14v-.23a.89.89,0,0,0,.33-.13.37.37,0,0,0,.13-.15,1.22,1.22,0,0,0,.05-.25c0-.11,0-.24,0-.41v-3.92c0-.3,0-.51,0-.63a1.26,1.26,0,0,0,0-.3.63.63,0,0,0-.09-.2.4.4,0,0,0-.14-.11,1.11,1.11,0,0,0-.33-.08V217l1.12,0h.28Z"/><path d="M69.09,222.49a3.21,3.21,0,0,0,0,.56.48.48,0,0,0,.14.24,1.12,1.12,0,0,0,.34.14v.23H67.77v-.23a.83.83,0,0,0,.32-.13.31.31,0,0,0,.13-.15.76.76,0,0,0,.06-.25c0-.11,0-.24,0-.41v-3.92c0-.3,0-.51,0-.63a2,2,0,0,0,0-.3.64.64,0,0,0-.08-.2.45.45,0,0,0-.15-.11,1,1,0,0,0-.32-.08V217l1.12,0h.27Z"/><path d="M72.5,223.73a1.87,1.87,0,0,1-1.47-.57,2.49,2.49,0,0,1-.51-1.7,2.84,2.84,0,0,1,.27-1.3,1.73,1.73,0,0,1,.73-.8,2.15,2.15,0,0,1,1-.26,1.92,1.92,0,0,1,1.51.58,2.48,2.48,0,0,1,.51,1.68,3,3,0,0,1-.26,1.31,1.76,1.76,0,0,1-.72.8A2.17,2.17,0,0,1,72.5,223.73Zm-1.1-2.37a3,3,0,0,0,.3,1.49,1,1,0,0,0,.87.51.92.92,0,0,0,.53-.15,1.18,1.18,0,0,0,.35-.41,2,2,0,0,0,.2-.6,4,4,0,0,0,.06-.7,3.77,3.77,0,0,0-.15-1.15,1.51,1.51,0,0,0-.41-.67.91.91,0,0,0-.59-.21,1,1,0,0,0-.86.49A2.72,2.72,0,0,0,71.4,221.36Z"/><path d="M76.56,222.57v1.09h-.93v-1.09Z"/><path d="M33.38,21.73a1,1,0,0,0-.35.16.58.58,0,0,0-.13.23,2.76,2.76,0,0,0,0,.52v4.27a2.91,2.91,0,0,0,0,.47.48.48,0,0,0,.12.27.93.93,0,0,0,.37.16v.33h-2.5v-.33l.3-.1a.34.34,0,0,0,.12-.12.37.37,0,0,0,.07-.21,3,3,0,0,0,0-.48V24.48c0-.27,0-.58,0-.94s0-.62,0-.77h-.1c0,.13-.08.26-.13.39s-.12.35-.24.67l-1.31,3.56H28.8l-1.38-4c-.08-.22-.15-.45-.21-.67h-.09c0,.54.05,1.18.05,1.92v2.27a3,3,0,0,0,0,.51.49.49,0,0,0,.14.24.83.83,0,0,0,.35.15v.33H25.85v-.33a1.09,1.09,0,0,0,.28-.11.39.39,0,0,0,.16-.15.61.61,0,0,0,.07-.25c0-.11,0-.24,0-.39V22.64a2.81,2.81,0,0,0,0-.51.41.41,0,0,0-.13-.23,1,1,0,0,0-.36-.17v-.32h2.42l1.36,4.05,1.46-4.05h2.29Z"/><path d="M36.36,26.9c0,.12,0,.22,0,.32a1.19,1.19,0,0,0,0,.24.6.6,0,0,0,.08.16.5.5,0,0,0,.16.11,1,1,0,0,0,.24.08v.33H34.32v-.33a1.9,1.9,0,0,0,.29-.1.41.41,0,0,0,.16-.16.83.83,0,0,0,.06-.26,3.84,3.84,0,0,0,0-.39V22.65a3.84,3.84,0,0,0,0-.39.5.5,0,0,0-.06-.26.39.39,0,0,0-.15-.16,1.62,1.62,0,0,0-.3-.11v-.32h2.57v.32a1.31,1.31,0,0,0-.3.12.4.4,0,0,0-.14.15.69.69,0,0,0-.07.23,4.19,4.19,0,0,0,0,.42Z"/><path d="M39.06,28.14v-.33a1.1,1.1,0,0,0,.33-.09.4.4,0,0,0,.18-.16.89.89,0,0,0,.07-.26c0-.11,0-.24,0-.4V22h-.39a1.24,1.24,0,0,0-.45.07.64.64,0,0,0-.27.22,1.35,1.35,0,0,0-.2.4c-.06.16-.1.32-.14.47h-.67V21.41h5.75v1.73h-.67c-.06-.23-.11-.39-.14-.49a1.78,1.78,0,0,0-.12-.27,1,1,0,0,0-.14-.19.61.61,0,0,0-.16-.12.53.53,0,0,0-.21-.06,1.39,1.39,0,0,0-.32,0h-.35V26.9c0,.18,0,.31,0,.4a.64.64,0,0,0,.06.22.3.3,0,0,0,.09.13.49.49,0,0,0,.16.1,1.1,1.1,0,0,0,.27.06v.33Z"/><path d="M46.87,28.22a2.69,2.69,0,0,1-2.16-.85A3.85,3.85,0,0,1,44,24.83a4.74,4.74,0,0,1,.35-1.9,2.56,2.56,0,0,1,1-1.19A3,3,0,0,1,47,21.33a2.76,2.76,0,0,1,2.2.84,3.77,3.77,0,0,1,.73,2.52,5.07,5.07,0,0,1-.22,1.6,2.76,2.76,0,0,1-.62,1.09,2.24,2.24,0,0,1-1,.63A3.47,3.47,0,0,1,46.87,28.22ZM45.54,24.7a5.18,5.18,0,0,0,.36,2.21,1.13,1.13,0,0,0,1.08.73,1.06,1.06,0,0,0,.64-.2,1.45,1.45,0,0,0,.43-.58,3.23,3.23,0,0,0,.23-.87,7.45,7.45,0,0,0,.07-1.1,7.67,7.67,0,0,0-.15-1.65,2.17,2.17,0,0,0-.47-1,1,1,0,0,0-.79-.33,1.11,1.11,0,0,0-1,.68A4.87,4.87,0,0,0,45.54,24.7Z"/><path d="M55.64,21.41a5.8,5.8,0,0,1,1.36.13,3,3,0,0,1,1,.4,2.42,2.42,0,0,1,.69.66,2.89,2.89,0,0,1,.39.89A5.42,5.42,0,0,1,59,26a2.7,2.7,0,0,1-.53,1,2.44,2.44,0,0,1-.78.64,3.4,3.4,0,0,1-1.06.36,7.89,7.89,0,0,1-1.31.09H53.1v-.33a1.73,1.73,0,0,0,.28-.1.35.35,0,0,0,.16-.16.81.81,0,0,0,.07-.26c0-.1,0-.23,0-.39V22.65c0-.15,0-.28,0-.39a.91.91,0,0,0-.06-.26.49.49,0,0,0-.16-.16,1.79,1.79,0,0,0-.29-.11v-.32Zm-.51,6.13a3.43,3.43,0,0,0,.45,0,2.34,2.34,0,0,0,.9-.16,1.43,1.43,0,0,0,.47-.33,2.06,2.06,0,0,0,.47-.88,5,5,0,0,0,.18-1.44,4.11,4.11,0,0,0-.25-1.56A1.79,1.79,0,0,0,55.57,22h-.44Z"/><path d="M65,21.41V23h-.67a3.42,3.42,0,0,0-.27-.64,1,1,0,0,0-.27-.26,1.14,1.14,0,0,0-.54-.1H62.18v2.37h.64a.77.77,0,0,0,.34-.06.48.48,0,0,0,.2-.2,1.74,1.74,0,0,0,.16-.45h.55v2h-.55a2.29,2.29,0,0,0-.15-.43.54.54,0,0,0-.2-.22.79.79,0,0,0-.35-.06h-.64v2.63h1.06l.29,0a.66.66,0,0,0,.21-.08.6.6,0,0,0,.18-.15l.15-.2c0-.07.09-.17.14-.28a4.73,4.73,0,0,0,.16-.49H65l-.1,1.8h-4.8v-.33a1.9,1.9,0,0,0,.29-.1.41.41,0,0,0,.16-.16.83.83,0,0,0,.06-.26,3.84,3.84,0,0,0,0-.39V22.65c0-.15,0-.28,0-.39a.66.66,0,0,0-.06-.26.41.41,0,0,0-.16-.16,1.48,1.48,0,0,0-.29-.11v-.32Z"/><path d="M70.69,28.14H68.12v-.33a1.9,1.9,0,0,0,.29-.1.33.33,0,0,0,.15-.16.62.62,0,0,0,.07-.26c0-.1,0-.23,0-.39V22.65c0-.15,0-.28,0-.39a.91.91,0,0,0-.06-.26.49.49,0,0,0-.16-.16,1.48,1.48,0,0,0-.29-.11v-.32H71a4.67,4.67,0,0,1,1,.08,2.31,2.31,0,0,1,.7.25,1.35,1.35,0,0,1,.43.35,1.42,1.42,0,0,1,.27.48,1.89,1.89,0,0,1,.1.65,1.92,1.92,0,0,1-.17.83,1.71,1.71,0,0,1-.45.58,3.58,3.58,0,0,1-.77.43v.05a1.63,1.63,0,0,1,.6.42,2.67,2.67,0,0,1,.43.67l.31.67a2.8,2.8,0,0,0,.4.67.84.84,0,0,0,.48.27v.33H72.4A8,8,0,0,1,71.77,27l-.39-.84a2.58,2.58,0,0,0-.29-.53.63.63,0,0,0-.25-.22,1,1,0,0,0-.4-.06h-.28V26.9a3,3,0,0,0,0,.52.55.55,0,0,0,.13.24,1,1,0,0,0,.37.15ZM70.16,22v2.75h.48a1.73,1.73,0,0,0,.65-.11,1,1,0,0,0,.6-.74,2.47,2.47,0,0,0,.06-.56,1.42,1.42,0,0,0-.31-1,1.23,1.23,0,0,0-.93-.34Z"/><path d="M79.58,21.41V23h-.67a2.44,2.44,0,0,0-.27-.64.83.83,0,0,0-.27-.26,1.09,1.09,0,0,0-.53-.1H76.77v2.37h.65a.8.8,0,0,0,.34-.06.55.55,0,0,0,.2-.2,2.32,2.32,0,0,0,.15-.45h.55v2h-.55a1.41,1.41,0,0,0-.15-.43.48.48,0,0,0-.2-.22.74.74,0,0,0-.34-.06h-.65v2.63h1.06l.29,0a.66.66,0,0,0,.21-.08.6.6,0,0,0,.18-.15,1,1,0,0,0,.15-.2,1.82,1.82,0,0,0,.14-.28,4.73,4.73,0,0,0,.16-.49h.67l-.09,1.8h-4.8v-.33a1.73,1.73,0,0,0,.28-.1.35.35,0,0,0,.16-.16.62.62,0,0,0,.07-.26c0-.1,0-.23,0-.39V22.65c0-.15,0-.28,0-.39a.91.91,0,0,0-.06-.26.49.49,0,0,0-.16-.16,1.79,1.79,0,0,0-.29-.11v-.32Z"/><path d="M86.43,21.41v.32l-.27.11A.41.41,0,0,0,86,22a.5.5,0,0,0-.09.22c0,.1,0,.26,0,.47v5.49H84.67l-2.2-3.84c-.3-.52-.52-.92-.66-1.22h0c0,.71,0,1.45,0,2.24v1.59a3,3,0,0,0,0,.51.48.48,0,0,0,.14.24.77.77,0,0,0,.36.15v.33H80.5v-.33a1.18,1.18,0,0,0,.29-.11.33.33,0,0,0,.15-.16.57.57,0,0,0,.07-.25c0-.1,0-.23,0-.38V22.64a2.81,2.81,0,0,0,0-.51.41.41,0,0,0-.13-.23.86.86,0,0,0-.36-.17v-.32h2l1.73,3,.42.77c.17.33.32.64.46.93h.07c0-.79,0-1.65,0-2.58v-.91c0-.22,0-.37,0-.47A.79.79,0,0,0,85,22a.42.42,0,0,0-.14-.12,1.46,1.46,0,0,0-.28-.11v-.32Z"/><path d="M90.23,28.22a2.67,2.67,0,0,1-2.15-.85,3.85,3.85,0,0,1-.72-2.54,4.57,4.57,0,0,1,.35-1.9,2.54,2.54,0,0,1,1-1.19,3,3,0,0,1,1.62-.41,2.75,2.75,0,0,1,2.19.84,3.77,3.77,0,0,1,.73,2.52,5.4,5.4,0,0,1-.21,1.6,2.89,2.89,0,0,1-.62,1.09,2.37,2.37,0,0,1-1,.63A3.52,3.52,0,0,1,90.23,28.22ZM88.91,24.7a5.36,5.36,0,0,0,.35,2.21,1.15,1.15,0,0,0,1.08.73,1,1,0,0,0,.64-.2,1.45,1.45,0,0,0,.43-.58,2.9,2.9,0,0,0,.23-.87,7.37,7.37,0,0,0,.08-1.1,7.61,7.61,0,0,0-.16-1.65,2.17,2.17,0,0,0-.46-1,1,1,0,0,0-.79-.33,1.11,1.11,0,0,0-1.06.68A4.9,4.9,0,0,0,88.91,24.7Z"/><path d="M98.31,23a3.3,3.3,0,0,0,.12-.38,2.45,2.45,0,0,0,0-.39.49.49,0,0,0-.13-.37.64.64,0,0,0-.38-.15v-.32h2.1v.32a.72.72,0,0,0-.31.12.87.87,0,0,0-.24.26,3.28,3.28,0,0,0-.24.56l-2,5.5H96.09l-1.61-5.52a3.87,3.87,0,0,0-.18-.53.79.79,0,0,0-.19-.25.84.84,0,0,0-.33-.14v-.32h2.7v.32a.6.6,0,0,0-.37.15.41.41,0,0,0-.12.32,1.82,1.82,0,0,0,0,.32,4.61,4.61,0,0,0,.12.49l1,3.54Z"/><path d="M103.6,26.05h-2.08l-.16.47a2,2,0,0,0-.11.38,1.75,1.75,0,0,0,0,.4q0,.48.51.51v.33H99.62v-.33a.54.54,0,0,0,.32-.13,1,1,0,0,0,.25-.29,2.57,2.57,0,0,0,.24-.54l2-5.48h1.3l1.61,5.53a3.62,3.62,0,0,0,.18.52.69.69,0,0,0,.19.25.72.72,0,0,0,.33.14v.33h-2.7v-.33a.63.63,0,0,0,.38-.14.42.42,0,0,0,.12-.32,2.14,2.14,0,0,0,0-.34c0-.13-.06-.28-.11-.47Zm-1.9-.57h1.76l-.78-2.78Z"/><path d="M111.45,21.56V23h-.66a1.7,1.7,0,0,0-.38-.82.85.85,0,0,0-.66-.26,1.26,1.26,0,0,0-1.17.74,5,5,0,0,0-.39,2.22,4.69,4.69,0,0,0,.36,2.07,1.13,1.13,0,0,0,1.06.7,1.22,1.22,0,0,0,.58-.12.89.89,0,0,0,.36-.36,2.43,2.43,0,0,0,.23-.68h.67V28a9.26,9.26,0,0,1-1,.19,7,7,0,0,1-.92.06,3.37,3.37,0,0,1-1.66-.37,2.19,2.19,0,0,1-1-1.12,5.13,5.13,0,0,1-.3-1.89A4.64,4.64,0,0,1,107,23a2.7,2.7,0,0,1,1.06-1.22,3.1,3.1,0,0,1,1.67-.43,7.8,7.8,0,0,1,.89.05A7,7,0,0,1,111.45,21.56Z"/><path d="M114.37,26.9c0,.12,0,.22,0,.32a1.19,1.19,0,0,0,0,.24.6.6,0,0,0,.08.16.5.5,0,0,0,.16.11,1,1,0,0,0,.24.08v.33h-2.57v-.33a1.9,1.9,0,0,0,.29-.1.33.33,0,0,0,.15-.16.62.62,0,0,0,.07-.26,3.84,3.84,0,0,0,0-.39V22.65a3.84,3.84,0,0,0,0-.39.62.62,0,0,0-.06-.26.35.35,0,0,0-.16-.16,1.48,1.48,0,0,0-.29-.11v-.32h2.57v.32a1.31,1.31,0,0,0-.3.12.4.4,0,0,0-.14.15.69.69,0,0,0-.07.23,4.19,4.19,0,0,0,0,.42Z"/><path d="M118.75,28.22a2.69,2.69,0,0,1-2.15-.85,3.85,3.85,0,0,1-.72-2.54,4.57,4.57,0,0,1,.35-1.9,2.51,2.51,0,0,1,1-1.19,3,3,0,0,1,1.61-.41,2.73,2.73,0,0,1,2.19.84,3.77,3.77,0,0,1,.74,2.52,5.38,5.38,0,0,1-.22,1.6,2.89,2.89,0,0,1-.62,1.09,2.37,2.37,0,0,1-1,.63A3.52,3.52,0,0,1,118.75,28.22Zm-1.32-3.52a5.36,5.36,0,0,0,.35,2.21,1.15,1.15,0,0,0,1.09.73,1.06,1.06,0,0,0,.64-.2,1.53,1.53,0,0,0,.42-.58,3.22,3.22,0,0,0,.24-.87,7.45,7.45,0,0,0,.07-1.1,7.67,7.67,0,0,0-.15-1.65,2.27,2.27,0,0,0-.47-1,1,1,0,0,0-.79-.33,1.13,1.13,0,0,0-1.06.68A5.06,5.06,0,0,0,117.43,24.7Zm2.86-5.43v.33l-2,1.3-.32-.35,1.19-1.28Z"/><path d="M128.7,21.41v.32l-.27.11a.41.41,0,0,0-.14.12.5.5,0,0,0-.09.22,2.67,2.67,0,0,0,0,.47v5.49h-1.24l-2.19-3.84c-.3-.52-.52-.92-.66-1.22h0c0,.71,0,1.45,0,2.24v1.59a3,3,0,0,0,0,.51.48.48,0,0,0,.14.24.77.77,0,0,0,.35.15v.33h-1.84v-.33a1.09,1.09,0,0,0,.28-.11.35.35,0,0,0,.16-.16.75.75,0,0,0,.07-.25c0-.1,0-.23,0-.38V22.64a2.81,2.81,0,0,0,0-.51.48.48,0,0,0-.13-.23.86.86,0,0,0-.36-.17v-.32h2l1.72,3c.11.19.25.45.42.77s.33.64.46.93h.08c0-.79-.05-1.65-.05-2.58v-.91a2.59,2.59,0,0,0,0-.47.57.57,0,0,0-.07-.22.55.55,0,0,0-.14-.12,1.63,1.63,0,0,0-.29-.11v-.32Z"/><path class="cls-1" d="M23.62,131.84c.41-1.87.81-3.75,1.23-5.62A3.42,3.42,0,0,1,29,123.4a3.49,3.49,0,0,1,2.45,4.26c-.37,1.79-.7,3.58-1.1,5.35a3.37,3.37,0,0,1-3.16,2.85,3.29,3.29,0,0,1-3.42-2.51,1,1,0,0,0-.17-.24Z"/><path class="cls-1" d="M40,109l-7.65,5.62c1.87,1.38,3.45,2.72,5.19,3.8a5.17,5.17,0,0,1,2.66,5.17c-.16,3,0,5.92-.05,8.88a3.44,3.44,0,0,1-2.83,3.43,3.32,3.32,0,0,1-3.71-2.23,5.4,5.4,0,0,1-.2-1.66c0-2.36,0-4.72,0-7.08a1.76,1.76,0,0,0-.79-1.57c-2.16-1.77-4.37-3.5-6.36-5.45a3.7,3.7,0,0,1-.51-5.18A25.54,25.54,0,0,1,30,107.9a55.47,55.47,0,0,1,10.94-7.17,3.37,3.37,0,0,1,5.15,2.61c.84,4.91,1.53,9.86,2.57,14.72.93,4.35,2.28,8.6,3.37,12.92a5.83,5.83,0,0,1,0,2.66,3.13,3.13,0,0,1-3.09,2.23,3.34,3.34,0,0,1-3.31-2.56c-.6-2-1.11-4.06-1.62-6.1-1-4.25-2.12-8.5-3.1-12.76-.39-1.7-.57-3.44-.9-5.5"/><path class="cls-1" d="M124.21,129.08c.69,0,1.22,0,1.73,0a3.4,3.4,0,0,1,0,6.76c-1.81.06-3.63.06-5.44,0a3.24,3.24,0,0,1-3.08-3.35c0-3.63-.08-7.27,0-10.9a24.81,24.81,0,0,0-1.4-9.4c-.41-1.15-1-2.33-.57-3.67a3.4,3.4,0,0,1,2.92-2.51,3.14,3.14,0,0,1,3.42,2c1.17,3.55,2.56,7.05,2.38,10.93-.13,2.92,0,5.85,0,8.78v1.3"/><path class="cls-1" d="M130.88,105.6a9.89,9.89,0,0,1-.86,1.53,3.32,3.32,0,0,1-4.85.32,14.52,14.52,0,0,1-4.53-7.32c-.77-2.76-1.29-5.6-1.92-8.4a1.92,1.92,0,0,0-.37-.9c-.38,2.6-.84,5.2-1.13,7.82-.4,3.63-1.73,7-2.77,10.45-.4,1.35-.91,2.66-1.25,4-1,4-3.39,7.13-5.61,10.4-1.15,1.71-2.34,3.41-3.64,5.29,1,.1,1.84.21,2.69.25A3.31,3.31,0,0,1,110,132.6a3.21,3.21,0,0,1-3.49,3.24,21.22,21.22,0,0,1-5.22-.82,6.07,6.07,0,0,1-3.42-9.12,51.85,51.85,0,0,1,4.28-6.38c3.1-3.91,4.56-8.52,6.14-13.15,1.81-5.29,2.49-10.78,3.33-16.26.18-1.21.34-2.42.42-3.66a21.63,21.63,0,0,0-2.68,6.83c-.66,2.79-1.14,5.64-1.68,8.46a3.39,3.39,0,1,1-6.71-.89,58.69,58.69,0,0,1,3.79-15.28,18.21,18.21,0,0,1,4.49-6.67c5-4.48,11.85-2.88,14.1,3.52,1.07,3,1.54,6.31,2.33,9.47.66,2.61,1.32,5.23,2.11,7.8a9.31,9.31,0,0,0,1.43,2.18l1.68,2.47"/><path class="cls-1" d="M77.82,91a12,12,0,0,0-11.45,12.21c0,.8,0,1.61.06,2.43a3.36,3.36,0,0,1-3.16,3.72,3.41,3.41,0,0,1-3.59-3.24c-.42-5.63.57-10.9,4.34-15.29a18.64,18.64,0,0,1,12.36-6.57,15.15,15.15,0,0,1,6.28.58,8.23,8.23,0,0,1,6.07,7.41c.43,3.41.47,6.87.67,10.31.19,3.22.62,6.38,2.44,9.14.52.79,1.18,1.49,1.76,2.24a3.38,3.38,0,0,1-.27,4.74,3.33,3.33,0,0,1-4.79-.21,19,19,0,0,1-5.39-11.18c-.42-3-.47-6-.67-9,0-.51,0-1,0-1.85-.42.5-.63.72-.8,1-1.51,2.11-2.94,4.29-4.55,6.32a11.44,11.44,0,0,0-2.2,5.34c-.59,3.17-1.34,6.31-2.05,9.46a5.49,5.49,0,0,1-2.75,3.65c-2.58,1.53-5.1,3.19-7.64,4.79l-1,.62c.64.34,1.19.63,1.73.94a3.35,3.35,0,0,1,1.62,4.13A3.25,3.25,0,0,1,61,134.76a9.85,9.85,0,0,1-6.11-4.48,5.8,5.8,0,0,1,1.86-7.74c2.82-1.94,5.75-3.72,8.67-5.52a2.7,2.7,0,0,0,1.39-1.92c.66-3.52,1.35-7,2.1-10.53a6.59,6.59,0,0,1,1-2.39c2.4-3.46,4.88-6.87,7.33-10.3.16-.22.3-.45.63-.93"/><path class="cls-1" d="M117.14,55.45a9.29,9.29,0,0,1,6,2.68,3.44,3.44,0,0,1,.39,4.67,3.27,3.27,0,0,1-4.65.6c-.88-.67-1.7-1.31-2.91-1a2.57,2.57,0,0,0-2.15,2.37,2.75,2.75,0,0,0,1.24,2.7,2.82,2.82,0,0,0,3.13-.16c1.07-.87,2.14-1.54,3.61-1.09A3.43,3.43,0,0,1,123.27,72a9.57,9.57,0,0,1-13.47,0,9.66,9.66,0,0,1,7.34-16.49"/><path class="cls-1" d="M92.53,68.76a8.66,8.66,0,0,1,6.23,2.53,3.4,3.4,0,0,1-4.28,5.26c-.74-.54-1.41-1.16-2.45-.84a1.84,1.84,0,0,0-1.51,1.78,3.27,3.27,0,0,0,.92,2,1.89,1.89,0,0,0,2.32,0,9.11,9.11,0,0,1,2.71-1.14,3,3,0,0,1,3.12,2,3.26,3.26,0,0,1-.7,3.71,8.89,8.89,0,0,1-14.59-3,9,9,0,0,1,8.23-12.31"/><path class="cls-1" d="M82.32,129l1.16.07a3.39,3.39,0,0,1,0,6.78c-1.53,0-3.07,0-4.61,0a3.28,3.28,0,0,1-3.23-3.21q-.06-9.84,0-19.67A3.28,3.28,0,0,1,79,109.82,3.21,3.21,0,0,1,82.29,113c0,4.89,0,9.79,0,14.69V129"/><path class="cls-1" d="M56.57,99.22A4.57,4.57,0,1,1,52,94.67a4.49,4.49,0,0,1,4.62,4.55"/><rect class="cls-2" x="0.25" y="0.25" width="154" height="255.49" rx="9.73"/></g></g></svg>