<svg xmlns="http://www.w3.org/2000/svg" viewBox="0 0 154.5 255.99"><defs><style>.cls-1{fill:#fab687;}.cls-2{fill:none;stroke:#000;stroke-miterlimit:10;stroke-width:0.5px;}</style></defs><g id="Capa_2" data-name="Capa 2"><g id="Layer_1" data-name="Layer 1"><path d="M16.62,165.67h1.22a1.55,1.55,0,0,0,.33,0,.69.69,0,0,0,.23-.07.55.55,0,0,0,.17-.14,1,1,0,0,0,.15-.22,1.84,1.84,0,0,0,.13-.36c0-.14.1-.35.16-.64h.47l-.1,1.89H15.21v-.23a1,1,0,0,0,.39-.17.49.49,0,0,0,.13-.26,3.13,3.13,0,0,0,0-.51v-4.06a2.67,2.67,0,0,0,0-.47.69.69,0,0,0-.07-.23.64.64,0,0,0-.15-.13,1.51,1.51,0,0,0-.3-.11v-.23h2v.23a1.51,1.51,0,0,0-.29.1.44.44,0,0,0-.15.12.76.76,0,0,0-.08.23,2.93,2.93,0,0,0,0,.49Z"/><path d="M22.78,165.43l-.06,0A3,3,0,0,1,22,166a1.8,1.8,0,0,1-.76.17,1.26,1.26,0,0,1-.62-.14,1,1,0,0,1-.41-.38,1.11,1.11,0,0,1-.15-.58A1.17,1.17,0,0,1,20.7,164a4.63,4.63,0,0,1,2-.43v-.31a2.32,2.32,0,0,0-.1-.77.79.79,0,0,0-.29-.41.93.93,0,0,0-.53-.13.88.88,0,0,0-.58.19,1.21,1.21,0,0,0-.34.58h-.6v-.61a5,5,0,0,1,.74-.34,3.32,3.32,0,0,1,.59-.18,3.08,3.08,0,0,1,.61-.06,1.52,1.52,0,0,1,.73.15.92.92,0,0,1,.42.45,2.36,2.36,0,0,1,.14.92v2.12l0,.26a.77.77,0,0,0,.07.2.42.42,0,0,0,.14.12l.29.11v.23H22.76ZM22.71,164a3.32,3.32,0,0,0-1.41.25.79.79,0,0,0-.47.74.73.73,0,0,0,.1.42.54.54,0,0,0,.27.21,1.14,1.14,0,0,0,.39.06,1.1,1.1,0,0,0,.57-.15,1.15,1.15,0,0,0,.4-.39.9.9,0,0,0,.15-.48Z"/><path d="M28,162.35h0a4.45,4.45,0,0,1,.57-.52,1.7,1.7,0,0,1,.42-.22,1.39,1.39,0,0,1,.9,0,1,1,0,0,1,.6.48,1.63,1.63,0,0,1,.14.44,3.62,3.62,0,0,1,0,.63v1.77a2.28,2.28,0,0,0,0,.55.39.39,0,0,0,.12.23.86.86,0,0,0,.37.16v.23H29.34v-.23a1.58,1.58,0,0,0,.26-.1.37.37,0,0,0,.13-.12.64.64,0,0,0,.09-.23,2.67,2.67,0,0,0,0-.47v-1.23a5.64,5.64,0,0,0-.07-1,.84.84,0,0,0-.24-.49.77.77,0,0,0-.52-.16.88.88,0,0,0-.33.06,1.44,1.44,0,0,0-.34.24,1.33,1.33,0,0,0-.3.34.86.86,0,0,0-.1.38v1.8a4.24,4.24,0,0,0,0,.45.7.7,0,0,0,.06.23.4.4,0,0,0,.14.15,1.38,1.38,0,0,0,.3.11v.23H26.63v-.23a1.63,1.63,0,0,0,.29-.11.35.35,0,0,0,.14-.13.57.57,0,0,0,.07-.23,2.67,2.67,0,0,0,0-.47V161c0-.3,0-.51,0-.63a2,2,0,0,0,0-.3.64.64,0,0,0-.08-.2.42.42,0,0,0-.15-.11,1.46,1.46,0,0,0-.32-.09v-.24l1.11-.05H28Z"/><path d="M31.86,165.87l.25-.1a.37.37,0,0,0,.13-.12.5.5,0,0,0,.09-.23,2.72,2.72,0,0,0,0-.48v-2c0-.2,0-.36,0-.48a.78.78,0,0,0-.07-.3.3.3,0,0,0-.17-.16,1,1,0,0,0-.32-.09v-.25l1.08,0h.29v3.35a3.51,3.51,0,0,0,0,.56.41.41,0,0,0,.14.23.89.89,0,0,0,.35.15v.23H31.86Zm1.32-6.09v.91h-.85v-.91Z"/><path d="M37.51,162.64h-.45a1.4,1.4,0,0,0-.24-.44.71.71,0,0,0-.31-.22,1.11,1.11,0,0,0-.43-.07.93.93,0,0,0-.6.18.57.57,0,0,0-.22.47.64.64,0,0,0,.09.36.89.89,0,0,0,.28.26,4.12,4.12,0,0,0,.65.33,4,4,0,0,1,.73.38,1.27,1.27,0,0,1,.4.4,1,1,0,0,1,.15.55,1.32,1.32,0,0,1-.13.62,1,1,0,0,1-.35.41,1.32,1.32,0,0,1-.54.23,3,3,0,0,1-.68.07,4.77,4.77,0,0,1-.76-.06c-.24,0-.48-.09-.71-.15v-1h.45a1.2,1.2,0,0,0,.37.63,1.08,1.08,0,0,0,.68.19l.33,0a1.18,1.18,0,0,0,.28-.12.53.53,0,0,0,.2-.22.81.81,0,0,0,0-.74,1,1,0,0,0-.29-.28,4.83,4.83,0,0,0-.68-.33,4.66,4.66,0,0,1-.68-.35,1.27,1.27,0,0,1-.4-.4,1,1,0,0,1-.15-.54,1.09,1.09,0,0,1,.21-.67,1.29,1.29,0,0,1,.6-.43,2.52,2.52,0,0,1,.91-.15,5.68,5.68,0,0,1,.59,0q.28,0,.72.12Z"/><path d="M38.11,161.85a1,1,0,0,0,.38-.13.64.64,0,0,0,.22-.24,1.44,1.44,0,0,0,.13-.37c0-.15.06-.36.09-.65h.66v1.16h1.5v.47h-1.5v2.09a6.42,6.42,0,0,0,0,.72,1,1,0,0,0,.14.42.68.68,0,0,0,.23.22.82.82,0,0,0,.34.07.77.77,0,0,0,.34-.08,1.31,1.31,0,0,0,.32-.22l.21.25a2.67,2.67,0,0,1-.62.47,1.47,1.47,0,0,1-.61.14,1.07,1.07,0,0,1-.89-.36,1.73,1.73,0,0,1-.29-1.12v-2.6h-.69Z"/><path d="M43.53,166.17a1.88,1.88,0,0,1-1.48-.57,2.49,2.49,0,0,1-.51-1.7,2.91,2.91,0,0,1,.27-1.31,1.81,1.81,0,0,1,.73-.79,2.16,2.16,0,0,1,1.06-.26,1.88,1.88,0,0,1,1.5.58,2.48,2.48,0,0,1,.51,1.68,3,3,0,0,1-.25,1.31,1.73,1.73,0,0,1-.73.8A2.26,2.26,0,0,1,43.53,166.17Zm-1.11-2.37a2.84,2.84,0,0,0,.31,1.48.94.94,0,0,0,.86.52.9.9,0,0,0,.53-.15,1.1,1.1,0,0,0,.36-.41,2,2,0,0,0,.2-.6,4,4,0,0,0,.06-.71,3.66,3.66,0,0,0-.15-1.14,1.52,1.52,0,0,0-.42-.67.91.91,0,0,0-.59-.21,1,1,0,0,0-.86.49A2.72,2.72,0,0,0,42.42,163.8Z"/><path d="M47.71,162.4h.06a3.21,3.21,0,0,1,.48-.49,1.5,1.5,0,0,1,.47-.28,1.45,1.45,0,0,1,.57-.1,3.68,3.68,0,0,1,.49,0v1.07h-.53a1.06,1.06,0,0,0-.23-.36.5.5,0,0,0-.35-.12.7.7,0,0,0-.33.1,1.22,1.22,0,0,0-.32.29,1.2,1.2,0,0,0-.21.35,1.14,1.14,0,0,0-.06.39v1.64a2.37,2.37,0,0,0,0,.58.44.44,0,0,0,.17.24,1.07,1.07,0,0,0,.36.12v.23H46.46v-.23l.25-.1a.37.37,0,0,0,.13-.12.5.5,0,0,0,.09-.23,2.72,2.72,0,0,0,0-.48v-2c0-.2,0-.36,0-.48a.78.78,0,0,0-.07-.3.33.33,0,0,0-.17-.16,1,1,0,0,0-.32-.09v-.25l1.09,0h.28Z"/><path d="M50.29,165.87l.26-.1a.49.49,0,0,0,.13-.12.67.67,0,0,0,.08-.23,2.72,2.72,0,0,0,0-.48v-2c0-.2,0-.36,0-.48a1.05,1.05,0,0,0-.06-.3.37.37,0,0,0-.17-.16,1.1,1.1,0,0,0-.33-.09v-.25l1.08,0h.29v3.35a3.51,3.51,0,0,0,0,.56.42.42,0,0,0,.15.23.83.83,0,0,0,.34.15v.23H50.29Zm1.32-6.09v.91h-.85v-.91Z"/><path d="M55.51,165.43l-.07,0a2.83,2.83,0,0,1-.75.59,1.8,1.8,0,0,1-.76.17,1.26,1.26,0,0,1-.62-.14,1,1,0,0,1-.41-.38,1.11,1.11,0,0,1-.15-.58,1.17,1.17,0,0,1,.67-1.06,4.71,4.71,0,0,1,2-.43v-.31a2.61,2.61,0,0,0-.1-.77.79.79,0,0,0-.29-.41,1.07,1.07,0,0,0-1.12.06,1.29,1.29,0,0,0-.33.58H53v-.61a5,5,0,0,1,.74-.34,3.32,3.32,0,0,1,.59-.18,3.05,3.05,0,0,1,.6-.06,1.54,1.54,0,0,1,.74.15.92.92,0,0,1,.42.45,2.36,2.36,0,0,1,.14.92v2.12l0,.26a.77.77,0,0,0,.07.2.42.42,0,0,0,.14.12l.29.11v.23H55.49ZM55.44,164a3.32,3.32,0,0,0-1.41.25.79.79,0,0,0-.47.74.73.73,0,0,0,.1.42.5.5,0,0,0,.27.21,1.14,1.14,0,0,0,.39.06,1.1,1.1,0,0,0,.57-.15,1.15,1.15,0,0,0,.4-.39.9.9,0,0,0,.15-.48Z"/><path d="M62.55,162.64H62.1a1.64,1.64,0,0,0-.24-.44.69.69,0,0,0-.32-.22,1.08,1.08,0,0,0-.43-.07.92.92,0,0,0-.59.18.57.57,0,0,0-.22.47.64.64,0,0,0,.09.36,1,1,0,0,0,.27.26,4.9,4.9,0,0,0,.66.33,4,4,0,0,1,.73.38,1.38,1.38,0,0,1,.4.4,1,1,0,0,1,.15.55,1.32,1.32,0,0,1-.13.62,1,1,0,0,1-.35.41,1.32,1.32,0,0,1-.54.23,3,3,0,0,1-.68.07,4.68,4.68,0,0,1-.76-.06c-.24,0-.48-.09-.71-.15v-1h.45a1.2,1.2,0,0,0,.37.63,1.06,1.06,0,0,0,.68.19l.33,0a1.18,1.18,0,0,0,.28-.12.61.61,0,0,0,.2-.22.9.9,0,0,0,0-.74,1,1,0,0,0-.29-.28,5.48,5.48,0,0,0-.68-.33,4.66,4.66,0,0,1-.68-.35,1.27,1.27,0,0,1-.4-.4,1,1,0,0,1-.15-.54,1.09,1.09,0,0,1,.21-.67,1.29,1.29,0,0,1,.6-.43,2.48,2.48,0,0,1,.91-.15,5.68,5.68,0,0,1,.59,0q.29,0,.72.12Z"/><path d="M67.13,165.3a4.43,4.43,0,0,1-.54.49,2.19,2.19,0,0,1-.55.28,1.93,1.93,0,0,1-.65.1,1.75,1.75,0,0,1-1.44-.58,2.54,2.54,0,0,1-.49-1.7,2.86,2.86,0,0,1,.25-1.24,1.88,1.88,0,0,1,.7-.82,2,2,0,0,1,1.06-.29,1.94,1.94,0,0,1,.8.15,1.45,1.45,0,0,1,.53.41,1.83,1.83,0,0,1,.3.66,4.4,4.4,0,0,1,.13,1H64.3v.08a2.78,2.78,0,0,0,.13.93,1.14,1.14,0,0,0,.4.59,1.2,1.2,0,0,0,.73.22,1.51,1.51,0,0,0,.68-.15,1.92,1.92,0,0,0,.61-.46Zm-.78-1.9a4.1,4.1,0,0,0-.12-.83,1.12,1.12,0,0,0-.29-.49.77.77,0,0,0-.51-.17.91.91,0,0,0-.77.39,2,2,0,0,0-.33,1.1Z"/><path d="M73.48,161.73v1h-.59a1.37,1.37,0,0,0-.19-.48.7.7,0,0,0-.27-.25.86.86,0,0,0-.38-.07.88.88,0,0,0-.58.21,1.52,1.52,0,0,0-.39.64,3.26,3.26,0,0,0-.15,1.06,4,4,0,0,0,.06.72,1.53,1.53,0,0,0,.19.57.93.93,0,0,0,.35.36,1.08,1.08,0,0,0,.56.14,1.45,1.45,0,0,0,.59-.13,1.72,1.72,0,0,0,.58-.45l.26.31a3.88,3.88,0,0,1-.42.41,3,3,0,0,1-.38.24,2.49,2.49,0,0,1-.41.14,2.06,2.06,0,0,1-.44,0,1.58,1.58,0,0,1-1.34-.59,2.66,2.66,0,0,1-.47-1.69,2.79,2.79,0,0,1,.26-1.23,2,2,0,0,1,.73-.83,2,2,0,0,1,1.08-.29,5.23,5.23,0,0,1,.71,0A3.71,3.71,0,0,1,73.48,161.73Z"/><path d="M77.83,165.3a3.81,3.81,0,0,1-.55.49,2.13,2.13,0,0,1-.54.28,2,2,0,0,1-.66.1,1.76,1.76,0,0,1-1.44-.58,2.59,2.59,0,0,1-.49-1.7,3,3,0,0,1,.25-1.24,1.9,1.9,0,0,1,.71-.82,2,2,0,0,1,1.06-.29,1.89,1.89,0,0,1,.79.15,1.37,1.37,0,0,1,.53.41,2,2,0,0,1,.31.66,4.47,4.47,0,0,1,.12,1H75v.08a3.09,3.09,0,0,0,.12.93,1.1,1.1,0,0,0,1.13.81,1.52,1.52,0,0,0,.69-.15,2,2,0,0,0,.6-.46Zm-.78-1.9a3.44,3.44,0,0,0-.13-.83,1,1,0,0,0-.29-.49.77.77,0,0,0-.51-.17.89.89,0,0,0-.76.39,2,2,0,0,0-.34,1.1Z"/><path d="M83.18,166.1H81.35v-.23a1.58,1.58,0,0,0,.26-.1.37.37,0,0,0,.13-.12.5.5,0,0,0,.09-.23,2.67,2.67,0,0,0,0-.47v-1.23c0-.22,0-.42,0-.6a3,3,0,0,0-.07-.43.9.9,0,0,0-.1-.27.61.61,0,0,0-.15-.17.63.63,0,0,0-.2-.1.78.78,0,0,0-.29,0,.77.77,0,0,0-.34.07,1.39,1.39,0,0,0-.36.25,1.19,1.19,0,0,0-.28.35.87.87,0,0,0-.09.4v1.75a2.44,2.44,0,0,0,0,.56.36.36,0,0,0,.14.23.83.83,0,0,0,.34.15v.23H78.66v-.23a1.58,1.58,0,0,0,.26-.1.49.49,0,0,0,.13-.12.67.67,0,0,0,.08-.23,2.72,2.72,0,0,0,0-.48v-2c0-.2,0-.36,0-.48a1.05,1.05,0,0,0-.06-.3.37.37,0,0,0-.17-.16,1.1,1.1,0,0,0-.33-.09v-.25l1.09,0H80l0,.76.07,0a5,5,0,0,1,.55-.5,1.63,1.63,0,0,1,.43-.23,1.13,1.13,0,0,1,.45-.09,1.53,1.53,0,0,1,.45.06,1.06,1.06,0,0,1,.35.18,1.1,1.1,0,0,1,.25.31,1.55,1.55,0,0,1,.14.43,2.91,2.91,0,0,1,.05.64v1.77c0,.21,0,.37,0,.47a.57.57,0,0,0,.07.22.33.33,0,0,0,.13.13,1.1,1.1,0,0,0,.31.12Z"/><path d="M83.59,161.85a.89.89,0,0,0,.37-.13.66.66,0,0,0,.23-.24,1.44,1.44,0,0,0,.13-.37c0-.15.06-.36.09-.65h.66v1.16h1.5v.47h-1.5v2.09a4.67,4.67,0,0,0,0,.72.9.9,0,0,0,.14.42.6.6,0,0,0,.23.22.81.81,0,0,0,.33.07.82.82,0,0,0,.35-.08,1.31,1.31,0,0,0,.32-.22l.21.25a2.89,2.89,0,0,1-.62.47,1.47,1.47,0,0,1-.61.14,1.07,1.07,0,0,1-.89-.36,1.72,1.72,0,0,1-.3-1.12v-2.6h-.68Z"/><path d="M88.24,162.4h.06a3.21,3.21,0,0,1,.48-.49,1.5,1.5,0,0,1,.47-.28,1.48,1.48,0,0,1,.57-.1,3.68,3.68,0,0,1,.49,0v1.07h-.53a1.06,1.06,0,0,0-.23-.36.5.5,0,0,0-.35-.12.7.7,0,0,0-.33.1,1.4,1.4,0,0,0-.32.29,1.2,1.2,0,0,0-.21.35,1.15,1.15,0,0,0,0,.39v1.64a2,2,0,0,0,0,.58.4.4,0,0,0,.17.24.93.93,0,0,0,.35.12v.23H87v-.23l.25-.1a.53.53,0,0,0,.14-.12.67.67,0,0,0,.08-.23,2.72,2.72,0,0,0,0-.48v-2c0-.2,0-.36,0-.48a.78.78,0,0,0-.07-.3.3.3,0,0,0-.17-.16,1,1,0,0,0-.32-.09v-.25l1.09,0h.28Z"/><path d="M93.5,165.43l-.07,0a2.85,2.85,0,0,1-.76.59,1.75,1.75,0,0,1-.75.17,1.23,1.23,0,0,1-.62-.14,1,1,0,0,1-.42-.38,1.21,1.21,0,0,1-.14-.58,1.16,1.16,0,0,1,.67-1.06,4.7,4.7,0,0,1,2-.43v-.31a2.66,2.66,0,0,0-.09-.77.79.79,0,0,0-.29-.41,1,1,0,0,0-.54-.13.9.9,0,0,0-.58.19,1.13,1.13,0,0,0-.33.58H91v-.61a6.07,6.07,0,0,1,.74-.34,3.42,3.42,0,0,1,.6-.18,3.05,3.05,0,0,1,.6-.06,1.57,1.57,0,0,1,.74.15,1,1,0,0,1,.42.45,2.36,2.36,0,0,1,.14.92v2.12a1.09,1.09,0,0,0,0,.26.52.52,0,0,0,.07.2.38.38,0,0,0,.13.12,1.81,1.81,0,0,0,.3.11v.23H93.48ZM93.42,164a3.32,3.32,0,0,0-1.41.25.8.8,0,0,0-.47.74.72.72,0,0,0,.11.42.5.5,0,0,0,.27.21,1.12,1.12,0,0,0,.38.06,1.14,1.14,0,0,0,.58-.15,1.24,1.24,0,0,0,.4-.39,1,1,0,0,0,.14-.48Z"/><path d="M101.13,165.3a4.43,4.43,0,0,1-.54.49,2.19,2.19,0,0,1-.55.28,1.93,1.93,0,0,1-.65.1,1.75,1.75,0,0,1-1.44-.58,2.54,2.54,0,0,1-.49-1.7,2.86,2.86,0,0,1,.25-1.24,1.88,1.88,0,0,1,.7-.82,2,2,0,0,1,1.06-.29,1.94,1.94,0,0,1,.8.15,1.45,1.45,0,0,1,.53.41,1.83,1.83,0,0,1,.3.66,4,4,0,0,1,.12,1H98.3v.08a2.78,2.78,0,0,0,.13.93,1.14,1.14,0,0,0,.4.59,1.2,1.2,0,0,0,.73.22,1.51,1.51,0,0,0,.68-.15,1.92,1.92,0,0,0,.61-.46Zm-.78-1.9a4.1,4.1,0,0,0-.12-.83,1.14,1.14,0,0,0-.3-.49.73.73,0,0,0-.51-.17.9.9,0,0,0-.76.39,2,2,0,0,0-.33,1.1Z"/><path d="M106.48,166.1h-1.82v-.23l.25-.1a.41.41,0,0,0,.14-.12.67.67,0,0,0,.08-.23,2.67,2.67,0,0,0,0-.47v-1.23c0-.22,0-.42,0-.6a2.11,2.11,0,0,0-.06-.43.88.88,0,0,0-.11-.27.61.61,0,0,0-.15-.17.57.57,0,0,0-.19-.1.84.84,0,0,0-.3,0,.8.8,0,0,0-.34.07,1.54,1.54,0,0,0-.64.6.87.87,0,0,0-.09.4v1.75a3.21,3.21,0,0,0,0,.56.41.41,0,0,0,.14.23.83.83,0,0,0,.34.15v.23H102v-.23a1.58,1.58,0,0,0,.26-.1.37.37,0,0,0,.13-.12.64.64,0,0,0,.09-.23,2.72,2.72,0,0,0,0-.48v-2c0-.2,0-.36,0-.48a.78.78,0,0,0-.07-.3.33.33,0,0,0-.17-.16,1,1,0,0,0-.32-.09v-.25l1.09,0h.28l0,.76.06,0a5,5,0,0,1,.56-.5,1.75,1.75,0,0,1,.42-.23,1.22,1.22,0,0,1,.46-.09,1.53,1.53,0,0,1,.45.06,1.16,1.16,0,0,1,.35.18.92.92,0,0,1,.24.31,1.28,1.28,0,0,1,.15.43,3.69,3.69,0,0,1,0,.64v1.77a2.91,2.91,0,0,0,0,.47.58.58,0,0,0,.06.22.35.35,0,0,0,.14.13,1.14,1.14,0,0,0,.3.12Z"/><path d="M112.94,165.3a3.81,3.81,0,0,1-.55.49,2,2,0,0,1-1.19.38,1.79,1.79,0,0,1-1.45-.58,2.59,2.59,0,0,1-.48-1.7,3,3,0,0,1,.24-1.24,1.88,1.88,0,0,1,1.77-1.11,1.94,1.94,0,0,1,.8.15,1.34,1.34,0,0,1,.52.41,1.84,1.84,0,0,1,.31.66,4.47,4.47,0,0,1,.12,1h-2.92v.08a3.09,3.09,0,0,0,.12.93,1.15,1.15,0,0,0,.41.59,1.17,1.17,0,0,0,.73.22,1.51,1.51,0,0,0,.68-.15,2,2,0,0,0,.61-.46Zm-.78-1.9a4.1,4.1,0,0,0-.12-.83,1.14,1.14,0,0,0-.3-.49.77.77,0,0,0-.51-.17.89.89,0,0,0-.76.39,2.11,2.11,0,0,0-.34,1.1Z"/><path d="M115,164.93a2.44,2.44,0,0,0,0,.56.36.36,0,0,0,.14.23.83.83,0,0,0,.34.15v.23h-1.84v-.23a1.14,1.14,0,0,0,.32-.13.34.34,0,0,0,.13-.16.7.7,0,0,0,.06-.24c0-.11,0-.24,0-.41v-4.55a2,2,0,0,0,0-.3.64.64,0,0,0-.08-.2.42.42,0,0,0-.15-.11,1.42,1.42,0,0,0-.33-.09v-.24l1.12-.05H115Z"/><path d="M118.32,165.87l.26-.1a.49.49,0,0,0,.13-.12.67.67,0,0,0,.08-.23,2.72,2.72,0,0,0,0-.48v-2c0-.2,0-.36,0-.48a1.05,1.05,0,0,0-.06-.3.37.37,0,0,0-.17-.16,1.1,1.1,0,0,0-.33-.09v-.25l1.08,0h.29v3.35a3.51,3.51,0,0,0,0,.56.42.42,0,0,0,.15.23.83.83,0,0,0,.34.15v.23h-1.82Zm1.32-6.09v.91h-.85v-.91Z"/><path d="M125.38,166.1h-1.83v-.23a1.58,1.58,0,0,0,.26-.1.41.41,0,0,0,.14-.12.67.67,0,0,0,.08-.23,2.67,2.67,0,0,0,0-.47v-1.23c0-.22,0-.42,0-.6a2.11,2.11,0,0,0-.06-.43.88.88,0,0,0-.11-.27.61.61,0,0,0-.15-.17.57.57,0,0,0-.19-.1.87.87,0,0,0-.3,0,.8.8,0,0,0-.34.07,1.54,1.54,0,0,0-.64.6.87.87,0,0,0-.09.4v1.75a2.44,2.44,0,0,0,0,.56.36.36,0,0,0,.14.23.83.83,0,0,0,.34.15v.23h-1.82v-.23a1.58,1.58,0,0,0,.26-.1.37.37,0,0,0,.13-.12.51.51,0,0,0,.08-.23,2.72,2.72,0,0,0,0-.48v-2c0-.2,0-.36,0-.48a.64.64,0,0,0-.06-.3.33.33,0,0,0-.17-.16,1,1,0,0,0-.32-.09v-.25l1.08,0h.29l0,.76.06,0a4.22,4.22,0,0,1,.56-.5,1.75,1.75,0,0,1,.42-.23,1.22,1.22,0,0,1,.46-.09,1.58,1.58,0,0,1,.45.06,1,1,0,0,1,.34.18,1,1,0,0,1,.25.31,1.28,1.28,0,0,1,.15.43,3.69,3.69,0,0,1,0,.64v1.77a2.91,2.91,0,0,0,0,.47.58.58,0,0,0,.06.22.35.35,0,0,0,.14.13,1,1,0,0,0,.3.12Z"/><path d="M126.07,165.87a1.58,1.58,0,0,0,.26-.1.49.49,0,0,0,.13-.12.67.67,0,0,0,.08-.23,2.72,2.72,0,0,0,0-.48v-2c0-.2,0-.36,0-.48a.79.79,0,0,0-.06-.3.37.37,0,0,0-.17-.16,1.1,1.1,0,0,0-.33-.09v-.25l1.09,0h.28v3.35a2.44,2.44,0,0,0,0,.56.36.36,0,0,0,.14.23.83.83,0,0,0,.34.15v.23h-1.82Zm1.33-6.09v.91h-.86v-.91Z"/><path d="M132.07,161.73v1h-.59a1.59,1.59,0,0,0-.19-.48A.7.7,0,0,0,131,162a.86.86,0,0,0-.38-.07.88.88,0,0,0-.58.21,1.43,1.43,0,0,0-.39.64,3.26,3.26,0,0,0-.15,1.06,4,4,0,0,0,.06.72,1.53,1.53,0,0,0,.19.57.81.81,0,0,0,.35.36,1.07,1.07,0,0,0,.55.14,1.47,1.47,0,0,0,.6-.13,1.7,1.7,0,0,0,.57-.45l.27.31a3.88,3.88,0,0,1-.42.41,2.55,2.55,0,0,1-.39.24,2,2,0,0,1-.41.14,2,2,0,0,1-.43,0,1.58,1.58,0,0,1-1.34-.59,2.66,2.66,0,0,1-.47-1.69,2.79,2.79,0,0,1,.26-1.23,1.91,1.91,0,0,1,.73-.83,2,2,0,0,1,1.08-.29,5.08,5.08,0,0,1,.7,0A3.81,3.81,0,0,1,132.07,161.73Z"/><path d="M132.71,165.87l.26-.1a.49.49,0,0,0,.13-.12.67.67,0,0,0,.08-.23,2.72,2.72,0,0,0,0-.48v-2c0-.2,0-.36,0-.48a1.05,1.05,0,0,0-.06-.3A.37.37,0,0,0,133,162a1.1,1.1,0,0,0-.33-.09v-.25l1.08,0H134v3.35a3.51,3.51,0,0,0,0,.56.42.42,0,0,0,.15.23.83.83,0,0,0,.34.15v.23h-1.82Zm1.32-6.09v.91h-.85v-.91Z"/><path d="M137.27,166.17a1.87,1.87,0,0,1-1.47-.57,2.49,2.49,0,0,1-.51-1.7,2.91,2.91,0,0,1,.27-1.31,1.76,1.76,0,0,1,.73-.79,2.16,2.16,0,0,1,1.06-.26,1.88,1.88,0,0,1,1.5.58,2.48,2.48,0,0,1,.51,1.68,3,3,0,0,1-.26,1.31,1.76,1.76,0,0,1-.72.8A2.28,2.28,0,0,1,137.27,166.17Zm-1.1-2.37a3,3,0,0,0,.3,1.48,1,1,0,0,0,.87.52.92.92,0,0,0,.53-.15,1.18,1.18,0,0,0,.35-.41,1.77,1.77,0,0,0,.2-.6,4,4,0,0,0,.06-.71,3.66,3.66,0,0,0-.15-1.14,1.51,1.51,0,0,0-.41-.67.91.91,0,0,0-.59-.21.94.94,0,0,0-.86.49A2.72,2.72,0,0,0,136.17,163.8Z"/><path d="M15,173.13h1.32v2.39a8,8,0,0,0,0,.83,1.22,1.22,0,0,0,.13.43.56.56,0,0,0,.24.24.73.73,0,0,0,.42.1.8.8,0,0,0,.34-.07,1.49,1.49,0,0,0,.36-.24,1.19,1.19,0,0,0,.28-.35.88.88,0,0,0,.09-.41V174.3c0-.18,0-.31,0-.4a.8.8,0,0,0-.05-.22.47.47,0,0,0-.08-.14l-.12-.09a1.19,1.19,0,0,0-.27-.09v-.23H19v3.2c0,.24,0,.42,0,.52a.7.7,0,0,0,.06.25.33.33,0,0,0,.15.16,1.33,1.33,0,0,0,.34.11v.24l-1.06,0h-.28l0-.77-.07,0a3.24,3.24,0,0,1-.74.62,1.43,1.43,0,0,1-.7.2,1.34,1.34,0,0,1-.7-.17,1.05,1.05,0,0,1-.41-.51,2.58,2.58,0,0,1-.13-.94V174.3a3.22,3.22,0,0,0,0-.54.46.46,0,0,0-.12-.24.93.93,0,0,0-.37-.16Z"/><path d="M28.69,177.69a1.88,1.88,0,0,1-1.47-.58,2.49,2.49,0,0,1-.51-1.7,2.84,2.84,0,0,1,.27-1.3,1.84,1.84,0,0,1,.73-.8,2.16,2.16,0,0,1,1.06-.26,1.89,1.89,0,0,1,1.5.59,2.44,2.44,0,0,1,.51,1.67,3,3,0,0,1-.25,1.31,1.78,1.78,0,0,1-.73.8A2.17,2.17,0,0,1,28.69,177.69Zm-1.1-2.38a3,3,0,0,0,.3,1.49,1,1,0,0,0,.87.52.9.9,0,0,0,.53-.16,1.1,1.1,0,0,0,.36-.41,2,2,0,0,0,.19-.59,4.17,4.17,0,0,0,.06-.71,3.77,3.77,0,0,0-.15-1.15,1.34,1.34,0,0,0-.41-.66.87.87,0,0,0-.59-.22,1,1,0,0,0-.86.49A2.72,2.72,0,0,0,27.59,175.31Z"/><path d="M32.88,173.91h.06a3.75,3.75,0,0,1,.47-.49,2.08,2.08,0,0,1,.47-.28,1.72,1.72,0,0,1,.58-.1,3.43,3.43,0,0,1,.48,0v1.08h-.52a1,1,0,0,0-.24-.37.45.45,0,0,0-.34-.11.68.68,0,0,0-.33.09,1.22,1.22,0,0,0-.32.29,1.2,1.2,0,0,0-.21.35,1.14,1.14,0,0,0-.06.39v1.64a2.53,2.53,0,0,0,0,.59.45.45,0,0,0,.17.23,1.07,1.07,0,0,0,.36.12v.23H31.63v-.23l.25-.1a.47.47,0,0,0,.13-.11.55.55,0,0,0,.09-.23c0-.11,0-.27,0-.49v-2c0-.2,0-.36,0-.48a.6.6,0,0,0-.06-.29.35.35,0,0,0-.17-.17l-.32-.09v-.24l1.08,0h.29Z"/><path d="M35.46,177.38l.25-.1a.36.36,0,0,0,.13-.11.55.55,0,0,0,.09-.23,2.93,2.93,0,0,0,0-.49v-2c0-.2,0-.36,0-.48a.73.73,0,0,0-.07-.29.31.31,0,0,0-.17-.17,1.9,1.9,0,0,0-.32-.09v-.25l1.08,0h.29v3.35a3.51,3.51,0,0,0,0,.56.48.48,0,0,0,.14.24,1.09,1.09,0,0,0,.35.14v.23H35.46Zm1.32-6.08v.9h-.85v-.9Z"/><path d="M42.16,173.61l-.86,0,0,.05a1,1,0,0,1,.23.4,1.61,1.61,0,0,1,.08.54,1.5,1.5,0,0,1-.46,1.18,2.32,2.32,0,0,1-2,.31.72.72,0,0,0-.35.54.48.48,0,0,0,.06.26.42.42,0,0,0,.23.13,2.47,2.47,0,0,0,.47,0h1.11a1.81,1.81,0,0,1,.8.15,1,1,0,0,1,.45.41,1.48,1.48,0,0,1,.13.61,1.3,1.3,0,0,1-.25.79,1.71,1.71,0,0,1-.73.53,2.85,2.85,0,0,1-1.1.19,5.77,5.77,0,0,1-.86,0,2.44,2.44,0,0,1-.66-.19,1.25,1.25,0,0,1-.43-.35,1,1,0,0,1-.15-.55A.86.86,0,0,1,38,178a1.63,1.63,0,0,1,.55-.42.82.82,0,0,1-.34-.26.65.65,0,0,1-.13-.41.86.86,0,0,1,.15-.49,2.28,2.28,0,0,1,.52-.51,1.27,1.27,0,0,1-.5-.53,1.62,1.62,0,0,1-.18-.77,1.68,1.68,0,0,1,.14-.7,1.28,1.28,0,0,1,.36-.49,1.49,1.49,0,0,1,.56-.29,2.17,2.17,0,0,1,.69-.1,3,3,0,0,1,.66.08h1.64Zm-3.1,4.08a1.26,1.26,0,0,0-.36.37,1,1,0,0,0-.11.45.66.66,0,0,0,.33.62,2.55,2.55,0,0,0,1.73.09.9.9,0,0,0,.45-.32.78.78,0,0,0,.16-.49,1.09,1.09,0,0,0,0-.26.48.48,0,0,0-.12-.22.61.61,0,0,0-.26-.16,1.33,1.33,0,0,0-.44-.06h-.69Zm-.12-3.13a1.46,1.46,0,0,0,.24.9.8.8,0,0,0,.68.32.88.88,0,0,0,.41-.09.81.81,0,0,0,.27-.25,1.11,1.11,0,0,0,.15-.37,2.12,2.12,0,0,0,.05-.44,1.78,1.78,0,0,0-.12-.69.8.8,0,0,0-.31-.4.82.82,0,0,0-.46-.13.8.8,0,0,0-.67.29A1.34,1.34,0,0,0,38.94,174.56Z"/><path d="M46.31,176.81a4,4,0,0,1-.55.5,2.1,2.1,0,0,1-.54.27,2,2,0,0,1-.66.11,1.8,1.8,0,0,1-1.44-.58,2.64,2.64,0,0,1-.49-1.71,2.93,2.93,0,0,1,.25-1.23,1.93,1.93,0,0,1,.71-.83,2,2,0,0,1,1.06-.29,1.89,1.89,0,0,1,.79.15,1.37,1.37,0,0,1,.53.41,2.13,2.13,0,0,1,.31.66,4.55,4.55,0,0,1,.12,1H43.48v.09a3.18,3.18,0,0,0,.12.93,1.24,1.24,0,0,0,.4.59,1.19,1.19,0,0,0,.73.21,1.67,1.67,0,0,0,.69-.14,2.24,2.24,0,0,0,.6-.47Zm-.78-1.9a3.27,3.27,0,0,0-.13-.82,1,1,0,0,0-.29-.5.77.77,0,0,0-.51-.17.89.89,0,0,0-.76.39,2,2,0,0,0-.34,1.1Z"/><path d="M51.66,177.61H49.83v-.23a1.58,1.58,0,0,0,.26-.1.47.47,0,0,0,.13-.11.55.55,0,0,0,.09-.24,2.67,2.67,0,0,0,0-.47v-1.23c0-.22,0-.42,0-.59a2.13,2.13,0,0,0-.07-.44.69.69,0,0,0-.1-.27.57.57,0,0,0-.15-.16.64.64,0,0,0-.2-.11.78.78,0,0,0-.29,0,.8.8,0,0,0-.34.07,1.54,1.54,0,0,0-.64.6.87.87,0,0,0-.09.4v1.75a2.44,2.44,0,0,0,0,.56.42.42,0,0,0,.14.24,1,1,0,0,0,.34.14v.23H47.14v-.23a1.58,1.58,0,0,0,.26-.1.69.69,0,0,0,.13-.11.76.76,0,0,0,.08-.23,2.93,2.93,0,0,0,0-.49v-2c0-.2,0-.36,0-.48a.74.74,0,0,0-.06-.29.4.4,0,0,0-.17-.17l-.33-.09v-.25l1.09,0h.28l0,.76.07,0a5,5,0,0,1,.55-.5,1.63,1.63,0,0,1,.43-.23,1.12,1.12,0,0,1,.45-.08,1.53,1.53,0,0,1,.45.06.78.78,0,0,1,.35.18,1.05,1.05,0,0,1,.25.3,1.55,1.55,0,0,1,.14.43,2.91,2.91,0,0,1,.05.64v1.77c0,.21,0,.37,0,.47a.57.57,0,0,0,.07.22.35.35,0,0,0,.13.14,1.68,1.68,0,0,0,.31.11Z"/><path d="M61.9,172.52c0-.3,0-.51,0-.63a1.26,1.26,0,0,0,0-.3.53.53,0,0,0-.09-.2.4.4,0,0,0-.14-.11,1.56,1.56,0,0,0-.33-.08V171l1.13,0h.27v5.42c0,.24,0,.42,0,.52a.7.7,0,0,0,.06.25.33.33,0,0,0,.15.16,1.45,1.45,0,0,0,.35.11v.24l-1.1,0H61.9l.05-.77-.07,0a3,3,0,0,1-.51.47,1.66,1.66,0,0,1-.45.25,1.56,1.56,0,0,1-.53.1,1.36,1.36,0,0,1-1.17-.59,2.86,2.86,0,0,1-.41-1.68,2.91,2.91,0,0,1,.27-1.31,1.94,1.94,0,0,1,.72-.8,2.1,2.1,0,0,1,1-.26,3.24,3.24,0,0,1,.56,0,2.71,2.71,0,0,1,.51.16Zm0,2.31a4.4,4.4,0,0,0,0-.58,1.16,1.16,0,0,0-.11-.37.82.82,0,0,0-.49-.41,1.43,1.43,0,0,0-.38,0,1,1,0,0,0-.9.48,2.52,2.52,0,0,0-.31,1.38,2.89,2.89,0,0,0,.25,1.36.82.82,0,0,0,.78.47,1.58,1.58,0,0,0,.34,0,1.19,1.19,0,0,0,.26-.11,1.74,1.74,0,0,0,.27-.22,1,1,0,0,0,.19-.25.69.69,0,0,0,.1-.25,2,2,0,0,0,0-.38Z"/><path d="M67.65,176.81a4.61,4.61,0,0,1-.54.5,2.16,2.16,0,0,1-.55.27,2,2,0,0,1-.65.11,1.82,1.82,0,0,1-1.45-.58A2.64,2.64,0,0,1,64,175.4a2.79,2.79,0,0,1,.25-1.23,1.91,1.91,0,0,1,.7-.83,2,2,0,0,1,1.06-.29,1.94,1.94,0,0,1,.8.15,1.34,1.34,0,0,1,.52.41,1.76,1.76,0,0,1,.31.66,4.55,4.55,0,0,1,.12,1H64.82v.09a3.18,3.18,0,0,0,.12.93,1.26,1.26,0,0,0,.41.59,1.17,1.17,0,0,0,.73.21,1.65,1.65,0,0,0,.68-.14,2.28,2.28,0,0,0,.61-.47Zm-.78-1.9a3.88,3.88,0,0,0-.12-.82,1.12,1.12,0,0,0-.3-.5.77.77,0,0,0-.51-.17.9.9,0,0,0-.76.39,2.14,2.14,0,0,0-.34,1.1Z"/><path d="M77.59,176.94l-.07,0a2.66,2.66,0,0,1-.76.59,1.66,1.66,0,0,1-.75.18,1.32,1.32,0,0,1-.62-.14,1,1,0,0,1-.42-.39,1.21,1.21,0,0,1-.14-.58,1.16,1.16,0,0,1,.67-1.06,4.7,4.7,0,0,1,2-.43v-.3a2.57,2.57,0,0,0-.09-.77.73.73,0,0,0-.3-.41.92.92,0,0,0-.53-.14.85.85,0,0,0-.58.2,1.09,1.09,0,0,0-.33.57h-.61v-.61a7.06,7.06,0,0,1,.74-.34,4.5,4.5,0,0,1,.6-.17,2.35,2.35,0,0,1,.6-.07,1.6,1.6,0,0,1,.74.15,1,1,0,0,1,.41.45,2.19,2.19,0,0,1,.14.92v1.63c0,.23,0,.39,0,.49a1.09,1.09,0,0,0,0,.26.47.47,0,0,0,.06.2.41.41,0,0,0,.14.12,1.2,1.2,0,0,0,.3.11v.23H77.57Zm-.08-1.47a3.15,3.15,0,0,0-1.41.26.78.78,0,0,0-.47.73.72.72,0,0,0,.11.42.52.52,0,0,0,.27.22,1.08,1.08,0,0,0,.38.06,1.2,1.2,0,0,0,1-.55,1,1,0,0,0,.14-.48Z"/><path d="M80.69,176.44a2.44,2.44,0,0,0,0,.56.42.42,0,0,0,.14.24,1,1,0,0,0,.34.14v.23H79.37v-.23a.9.9,0,0,0,.32-.13.37.37,0,0,0,.13-.15,1.15,1.15,0,0,0,.06-.25c0-.11,0-.24,0-.41v-3.92c0-.3,0-.51,0-.63a1.26,1.26,0,0,0,0-.3.53.53,0,0,0-.09-.2.4.4,0,0,0-.14-.11,1.56,1.56,0,0,0-.33-.08V171l1.12,0h.28Z"/><path d="M86.1,173.61l-.86,0,0,.05a1,1,0,0,1,.22.4,1.61,1.61,0,0,1,.09.54,1.51,1.51,0,0,1-.47,1.18,1.9,1.9,0,0,1-1.32.41,1.93,1.93,0,0,1-.67-.1.75.75,0,0,0-.35.54.4.4,0,0,0,.07.26A.39.39,0,0,0,83,177a2.47,2.47,0,0,0,.47,0h1.11a1.89,1.89,0,0,1,.81.15,1,1,0,0,1,.44.41,1.33,1.33,0,0,1,.13.61,1.3,1.3,0,0,1-.25.79,1.68,1.68,0,0,1-.72.53,2.93,2.93,0,0,1-1.11.19,5.64,5.64,0,0,1-.85,0,2.41,2.41,0,0,1-.67-.19,1.13,1.13,0,0,1-.42-.35,1,1,0,0,1-.15-.55A.85.85,0,0,1,82,178a1.74,1.74,0,0,1,.55-.42.82.82,0,0,1-.34-.26.71.71,0,0,1-.12-.41.93.93,0,0,1,.14-.49,2.37,2.37,0,0,1,.53-.51,1.37,1.37,0,0,1-.51-.53,1.62,1.62,0,0,1-.17-.77,1.68,1.68,0,0,1,.13-.7,1.3,1.3,0,0,1,.37-.49,1.45,1.45,0,0,1,.55-.29,2.17,2.17,0,0,1,.69-.1,3,3,0,0,1,.66.08H86.1ZM83,177.69a1.21,1.21,0,0,0-.35.37.87.87,0,0,0-.12.45.66.66,0,0,0,.33.62,2,2,0,0,0,1,.2,1.93,1.93,0,0,0,.71-.11,1,1,0,0,0,.46-.32.84.84,0,0,0,.16-.49.75.75,0,0,0,0-.26.48.48,0,0,0-.12-.22.61.61,0,0,0-.26-.16,1.27,1.27,0,0,0-.43-.06h-.69Zm-.11-3.13a1.53,1.53,0,0,0,.23.9.82.82,0,0,0,.69.32.84.84,0,0,0,.4-.09.81.81,0,0,0,.27-.25,1.11,1.11,0,0,0,.15-.37,1.61,1.61,0,0,0,0-.44,2,2,0,0,0-.11-.69.88.88,0,0,0-.32-.4.8.8,0,0,0-.46-.13.81.81,0,0,0-.67.29A1.34,1.34,0,0,0,82.88,174.56Z"/><path d="M88.55,177.69a1.88,1.88,0,0,1-1.47-.58,2.49,2.49,0,0,1-.51-1.7,2.84,2.84,0,0,1,.27-1.3,1.84,1.84,0,0,1,.73-.8,2.16,2.16,0,0,1,1.06-.26,1.89,1.89,0,0,1,1.5.59,2.44,2.44,0,0,1,.51,1.67,3,3,0,0,1-.26,1.31,1.76,1.76,0,0,1-.72.8A2.17,2.17,0,0,1,88.55,177.69Zm-1.1-2.38a3,3,0,0,0,.3,1.49,1,1,0,0,0,.87.52.9.9,0,0,0,.53-.16,1.2,1.2,0,0,0,.36-.41,2,2,0,0,0,.19-.59,4.17,4.17,0,0,0,.06-.71,3.77,3.77,0,0,0-.15-1.15,1.41,1.41,0,0,0-.41-.66.87.87,0,0,0-.59-.22,1,1,0,0,0-.86.49A2.72,2.72,0,0,0,87.45,175.31Z"/><path d="M99.92,177.69a1.88,1.88,0,0,1-1.47-.58,2.49,2.49,0,0,1-.51-1.7,2.84,2.84,0,0,1,.27-1.3,1.84,1.84,0,0,1,.73-.8,2.16,2.16,0,0,1,1.06-.26,1.89,1.89,0,0,1,1.5.59,2.44,2.44,0,0,1,.51,1.67,2.86,2.86,0,0,1-.26,1.31,1.76,1.76,0,0,1-.72.8A2.17,2.17,0,0,1,99.92,177.69Zm-1.1-2.38a3,3,0,0,0,.3,1.49,1,1,0,0,0,.87.52.9.9,0,0,0,.53-.16,1.2,1.2,0,0,0,.36-.41,2,2,0,0,0,.19-.59,4.17,4.17,0,0,0,.06-.71,3.77,3.77,0,0,0-.15-1.15,1.34,1.34,0,0,0-.41-.66.87.87,0,0,0-.59-.22,1,1,0,0,0-.86.49A2.72,2.72,0,0,0,98.82,175.31Z"/><path d="M112,176.94l-.07,0a2.66,2.66,0,0,1-.76.59,1.66,1.66,0,0,1-.75.18,1.39,1.39,0,0,1-.63-.14,1,1,0,0,1-.41-.39,1.21,1.21,0,0,1-.14-.58,1.16,1.16,0,0,1,.67-1.06,4.63,4.63,0,0,1,2-.43v-.3a2.57,2.57,0,0,0-.09-.77.73.73,0,0,0-.3-.41.92.92,0,0,0-.53-.14.83.83,0,0,0-.58.2,1.09,1.09,0,0,0-.33.57h-.61v-.61a7.06,7.06,0,0,1,.74-.34,4.83,4.83,0,0,1,.59-.17,2.48,2.48,0,0,1,.61-.07,1.6,1.6,0,0,1,.74.15,1,1,0,0,1,.41.45,2.36,2.36,0,0,1,.14.92v1.63c0,.23,0,.39,0,.49a2.11,2.11,0,0,0,0,.26.66.66,0,0,0,.07.2.33.33,0,0,0,.14.12,1.2,1.2,0,0,0,.3.11v.23h-1.28Zm-.08-1.47a3.15,3.15,0,0,0-1.41.26.78.78,0,0,0-.47.73.72.72,0,0,0,.11.42.52.52,0,0,0,.27.22,1,1,0,0,0,.38.06,1.11,1.11,0,0,0,.57-.16,1.07,1.07,0,0,0,.4-.39.9.9,0,0,0,.15-.48Z"/><path d="M115.06,176.44a2.44,2.44,0,0,0,0,.56.42.42,0,0,0,.14.24,1,1,0,0,0,.34.14v.23h-1.84v-.23a.9.9,0,0,0,.32-.13.37.37,0,0,0,.13-.15,1.22,1.22,0,0,0,0-.25c0-.11,0-.24,0-.41v-3.92c0-.3,0-.51,0-.63a1.26,1.26,0,0,0,0-.3.53.53,0,0,0-.09-.2.4.4,0,0,0-.14-.11,1.56,1.56,0,0,0-.33-.08V171l1.12,0h.28Z"/><path d="M120.46,173.61l-.85,0,0,.05a.92.92,0,0,1,.23.4,1.61,1.61,0,0,1,.09.54,1.51,1.51,0,0,1-.47,1.18,1.9,1.9,0,0,1-1.32.41,1.93,1.93,0,0,1-.67-.1.75.75,0,0,0-.35.54.4.4,0,0,0,.07.26.39.39,0,0,0,.22.13,2.47,2.47,0,0,0,.47,0h1.11a1.89,1.89,0,0,1,.81.15,1,1,0,0,1,.44.41,1.33,1.33,0,0,1,.13.61,1.3,1.3,0,0,1-.25.79,1.74,1.74,0,0,1-.72.53,2.93,2.93,0,0,1-1.11.19,5.56,5.56,0,0,1-.85,0,2.41,2.41,0,0,1-.67-.19,1.13,1.13,0,0,1-.42-.35,1,1,0,0,1-.15-.55.85.85,0,0,1,.19-.54,1.63,1.63,0,0,1,.55-.42.82.82,0,0,1-.34-.26.71.71,0,0,1-.13-.41.86.86,0,0,1,.15-.49,2.37,2.37,0,0,1,.53-.51,1.3,1.3,0,0,1-.51-.53,1.62,1.62,0,0,1-.17-.77,1.68,1.68,0,0,1,.13-.7,1.39,1.39,0,0,1,.36-.49,1.49,1.49,0,0,1,.56-.29,2.17,2.17,0,0,1,.69-.1,3,3,0,0,1,.66.08h1.64Zm-3.1,4.08a1.21,1.21,0,0,0-.35.37.87.87,0,0,0-.12.45.66.66,0,0,0,.33.62,2.55,2.55,0,0,0,1.73.09,1,1,0,0,0,.46-.32.84.84,0,0,0,.15-.49,1.09,1.09,0,0,0,0-.26.48.48,0,0,0-.12-.22.61.61,0,0,0-.26-.16,1.27,1.27,0,0,0-.43-.06H118Zm-.11-3.13a1.46,1.46,0,0,0,.23.9.81.81,0,0,0,.68.32.86.86,0,0,0,.41-.09.81.81,0,0,0,.27-.25,1.11,1.11,0,0,0,.15-.37,2.12,2.12,0,0,0,.05-.44,1.78,1.78,0,0,0-.12-.69.79.79,0,0,0-.77-.53.81.81,0,0,0-.67.29A1.34,1.34,0,0,0,117.25,174.56Z"/><path d="M120.79,173.13h1.32v2.39a5.61,5.61,0,0,0,0,.83,1.24,1.24,0,0,0,.12.43.62.62,0,0,0,.24.24.73.73,0,0,0,.42.1.8.8,0,0,0,.34-.07,1.32,1.32,0,0,0,.36-.24,1.45,1.45,0,0,0,.29-.35,1,1,0,0,0,.08-.41V174.3c0-.18,0-.31,0-.4a.8.8,0,0,0,0-.22.47.47,0,0,0-.08-.14l-.12-.09a1.26,1.26,0,0,0-.26-.09v-.23h1.32v3.2c0,.24,0,.42,0,.52a.7.7,0,0,0,.06.25.33.33,0,0,0,.15.16,1.33,1.33,0,0,0,.34.11v.24l-1.06,0H124l0-.77-.07,0a3,3,0,0,1-.74.62,1.43,1.43,0,0,1-.7.2,1.37,1.37,0,0,1-.7-.17,1,1,0,0,1-.4-.51,2.55,2.55,0,0,1-.14-.94V174.3a3.22,3.22,0,0,0,0-.54.46.46,0,0,0-.12-.24.93.93,0,0,0-.37-.16Z"/><path d="M126.05,177.38a1.58,1.58,0,0,0,.26-.1.47.47,0,0,0,.13-.11.56.56,0,0,0,.08-.23,2.72,2.72,0,0,0,0-.49v-2c0-.2,0-.36,0-.48a.73.73,0,0,0-.07-.29.35.35,0,0,0-.17-.17,1.9,1.9,0,0,0-.32-.09v-.25l1.08,0h.28v3.35a3.21,3.21,0,0,0,0,.56.42.42,0,0,0,.14.24,1,1,0,0,0,.34.14v.23h-1.82Zm1.33-6.08v.9h-.85v-.9Z"/><path d="M132.31,176.81a4,4,0,0,1-.55.5,2.27,2.27,0,0,1-.54.27,2,2,0,0,1-.66.11,1.78,1.78,0,0,1-1.44-.58,2.58,2.58,0,0,1-.49-1.71,2.79,2.79,0,0,1,.25-1.23,1.86,1.86,0,0,1,.71-.83,2,2,0,0,1,1-.29,1.9,1.9,0,0,1,.8.15,1.37,1.37,0,0,1,.53.41,1.92,1.92,0,0,1,.3.66,4,4,0,0,1,.13,1h-2.92v.09a3.18,3.18,0,0,0,.12.93,1.18,1.18,0,0,0,.4.59,1.19,1.19,0,0,0,.73.21,1.7,1.7,0,0,0,.69-.14,2.24,2.24,0,0,0,.6-.47Zm-.78-1.9a3.27,3.27,0,0,0-.13-.82,1,1,0,0,0-.29-.5.77.77,0,0,0-.51-.17.92.92,0,0,0-.77.39,2,2,0,0,0-.33,1.1Z"/><path d="M137.66,177.61h-1.83v-.23a1.58,1.58,0,0,0,.26-.1.69.69,0,0,0,.13-.11.56.56,0,0,0,.08-.24,2.67,2.67,0,0,0,0-.47v-1.23a5.34,5.34,0,0,0,0-.59,2.22,2.22,0,0,0-.06-.44.9.9,0,0,0-.1-.27,1.17,1.17,0,0,0-.15-.16.72.72,0,0,0-.49-.15.84.84,0,0,0-.35.07,1.55,1.55,0,0,0-.35.25,1.45,1.45,0,0,0-.29.35,1,1,0,0,0-.08.4v1.75a3.51,3.51,0,0,0,0,.56.57.57,0,0,0,.14.24,1.09,1.09,0,0,0,.35.14v.23h-1.82v-.23a1.4,1.4,0,0,0,.25-.1.36.36,0,0,0,.13-.11.55.55,0,0,0,.09-.23,2.93,2.93,0,0,0,0-.49v-2c0-.2,0-.36,0-.48a.73.73,0,0,0-.07-.29.31.31,0,0,0-.17-.17,1.9,1.9,0,0,0-.32-.09v-.25l1.09,0h.28l-.05.76.07,0a4.26,4.26,0,0,1,.55-.5,1.63,1.63,0,0,1,.43-.23,1.12,1.12,0,0,1,.45-.08,1.53,1.53,0,0,1,.45.06.78.78,0,0,1,.35.18,1.05,1.05,0,0,1,.25.3,1.55,1.55,0,0,1,.14.43,2.91,2.91,0,0,1,0,.64v1.77c0,.21,0,.37,0,.47a.58.58,0,0,0,.06.22.47.47,0,0,0,.14.14,1.68,1.68,0,0,0,.31.11Z"/><path d="M139.34,176.52v1.09h-.94v-1.09Z"/><path d="M16.62,187.94a2.59,2.59,0,0,0,0,.44.62.62,0,0,0,.1.26.46.46,0,0,0,.16.15,2.08,2.08,0,0,0,.34.1v.23h-2v-.23a1.05,1.05,0,0,0,.39-.16.49.49,0,0,0,.13-.26,3.36,3.36,0,0,0,0-.52v-4a2.59,2.59,0,0,0,0-.47.57.57,0,0,0-.07-.23.37.37,0,0,0-.15-.13,1.06,1.06,0,0,0-.3-.11v-.23h2.3a2.57,2.57,0,0,1,1.62.42,1.53,1.53,0,0,1,.53,1.27,2.06,2.06,0,0,1-.17.88,1.59,1.59,0,0,1-.47.64,1.86,1.86,0,0,1-.72.35,3.6,3.6,0,0,1-.88.11l-.8,0Zm0-1.95h.54a2.2,2.2,0,0,0,.87-.14,1,1,0,0,0,.52-.45,1.76,1.76,0,0,0,.18-.85,1.9,1.9,0,0,0-.11-.68,1.13,1.13,0,0,0-.29-.43,1.07,1.07,0,0,0-.45-.23,2,2,0,0,0-.57-.07l-.69,0Z"/><path d="M20.29,184.64h1.32V187a8,8,0,0,0,0,.83,1.15,1.15,0,0,0,.13.43.64.64,0,0,0,.24.25.82.82,0,0,0,.42.09.83.83,0,0,0,.34-.07,1.39,1.39,0,0,0,.36-.24,1.08,1.08,0,0,0,.28-.35.87.87,0,0,0,.09-.4v-1.76a3.59,3.59,0,0,0,0-.4.62.62,0,0,0,0-.22.32.32,0,0,0-.08-.13.4.4,0,0,0-.12-.1l-.27-.09v-.23h1.33v3.2c0,.24,0,.42,0,.52a.83.83,0,0,0,.06.26.4.4,0,0,0,.14.15,1.62,1.62,0,0,0,.35.11v.24l-1.06,0h-.28l0-.77-.07,0a3.24,3.24,0,0,1-.74.62,1.43,1.43,0,0,1-.7.2,1.34,1.34,0,0,1-.7-.17,1,1,0,0,1-.41-.51,2.58,2.58,0,0,1-.13-.94v-1.77a3.22,3.22,0,0,0,0-.54.39.39,0,0,0-.12-.23.79.79,0,0,0-.37-.17Z"/><path d="M29.26,188.33a3.81,3.81,0,0,1-.55.49,2,2,0,0,1-.54.28,2.28,2.28,0,0,1-.66.1,1.81,1.81,0,0,1-1.44-.58,2.64,2.64,0,0,1-.49-1.71,3,3,0,0,1,.25-1.23,1.93,1.93,0,0,1,.71-.83,2,2,0,0,1,1.06-.29,1.94,1.94,0,0,1,.8.15,1.34,1.34,0,0,1,.52.41,2,2,0,0,1,.31.66,4.55,4.55,0,0,1,.12,1H26.43v.09a3.14,3.14,0,0,0,.12.93,1.19,1.19,0,0,0,.41.59,1.17,1.17,0,0,0,.73.21,1.65,1.65,0,0,0,.68-.14A2.23,2.23,0,0,0,29,188Zm-.78-1.91a3.35,3.35,0,0,0-.13-.82,1,1,0,0,0-.29-.49.72.72,0,0,0-.51-.18.89.89,0,0,0-.76.39,2.17,2.17,0,0,0-.34,1.1Z"/><path d="M33.22,184c0-.3,0-.51,0-.63a1.26,1.26,0,0,0,0-.3.42.42,0,0,0-.09-.19.33.33,0,0,0-.14-.12,1.56,1.56,0,0,0-.33-.08v-.24l1.13-.05H34v5.42c0,.25,0,.42,0,.53a.83.83,0,0,0,.06.25.36.36,0,0,0,.15.15,1.45,1.45,0,0,0,.35.11v.24l-1.09,0h-.28l.05-.77-.07,0a3.38,3.38,0,0,1-.5.47,1.88,1.88,0,0,1-.46.25,1.45,1.45,0,0,1-1.7-.49,3.49,3.49,0,0,1-.14-3,1.85,1.85,0,0,1,.72-.79,2,2,0,0,1,1-.27,3.24,3.24,0,0,1,.56.05,3.72,3.72,0,0,1,.51.16Zm0,2.31a4.4,4.4,0,0,0,0-.58,1.16,1.16,0,0,0-.11-.37.64.64,0,0,0-.21-.25.76.76,0,0,0-.28-.15,1.09,1.09,0,0,0-.38-.05,1,1,0,0,0-.9.48A2.52,2.52,0,0,0,31,186.8a3,3,0,0,0,.25,1.37.83.83,0,0,0,.78.46,1.58,1.58,0,0,0,.34,0,.85.85,0,0,0,.26-.11,1.31,1.31,0,0,0,.27-.22,1.16,1.16,0,0,0,.19-.24.82.82,0,0,0,.1-.26,1.94,1.94,0,0,0,0-.38Z"/><path d="M39,188.33a4.43,4.43,0,0,1-.54.49,2,2,0,0,1-1.2.38,1.78,1.78,0,0,1-1.44-.58,2.58,2.58,0,0,1-.49-1.71,2.85,2.85,0,0,1,.25-1.23,1.91,1.91,0,0,1,.7-.83,2,2,0,0,1,1.06-.29,1.94,1.94,0,0,1,.8.15,1.45,1.45,0,0,1,.53.41,2,2,0,0,1,.3.66,4,4,0,0,1,.12,1H36.14v.09a2.82,2.82,0,0,0,.13.93,1.18,1.18,0,0,0,.4.59,1.19,1.19,0,0,0,.73.21,1.65,1.65,0,0,0,.68-.14,2,2,0,0,0,.61-.47Zm-.78-1.91a4,4,0,0,0-.12-.82,1,1,0,0,0-.3-.49.71.71,0,0,0-.51-.18.9.9,0,0,0-.76.39,2.17,2.17,0,0,0-.34,1.1Z"/><path d="M49.06,185.67h-.45a1.38,1.38,0,0,0-.24-.44.71.71,0,0,0-.32-.23,1.29,1.29,0,0,0-.43-.07.92.92,0,0,0-.59.18.61.61,0,0,0-.22.48.69.69,0,0,0,.09.36,1,1,0,0,0,.27.26,5.17,5.17,0,0,0,.66.32,5.85,5.85,0,0,1,.73.38,1.52,1.52,0,0,1,.4.4,1,1,0,0,1,.15.55,1.27,1.27,0,0,1-.13.62,1.1,1.1,0,0,1-.35.42,1.66,1.66,0,0,1-.54.23,3.64,3.64,0,0,1-.68.07,4.68,4.68,0,0,1-.76-.06q-.36-.06-.72-.15v-1h.46a1.21,1.21,0,0,0,.37.62,1.06,1.06,0,0,0,.68.2,1.24,1.24,0,0,0,.33,0,.7.7,0,0,0,.28-.12.54.54,0,0,0,.2-.22.73.73,0,0,0,.07-.35.75.75,0,0,0-.09-.39.85.85,0,0,0-.29-.27,5.93,5.93,0,0,0-.68-.34,4.75,4.75,0,0,1-.68-.34,1.52,1.52,0,0,1-.4-.4,1,1,0,0,1-.15-.55,1.08,1.08,0,0,1,.21-.66,1.33,1.33,0,0,1,.59-.44,2.57,2.57,0,0,1,.92-.15,5.68,5.68,0,0,1,.59,0c.19,0,.43.06.72.12Z"/><path d="M53.64,188.33a4.43,4.43,0,0,1-.54.49,2,2,0,0,1-1.2.38,1.78,1.78,0,0,1-1.44-.58,2.58,2.58,0,0,1-.49-1.71,2.85,2.85,0,0,1,.25-1.23,1.91,1.91,0,0,1,.7-.83,2,2,0,0,1,1.06-.29,1.94,1.94,0,0,1,.8.15,1.45,1.45,0,0,1,.53.41,2,2,0,0,1,.3.66,4.48,4.48,0,0,1,.13,1H50.81v.09a2.82,2.82,0,0,0,.13.93,1.18,1.18,0,0,0,.4.59,1.19,1.19,0,0,0,.73.21,1.65,1.65,0,0,0,.68-.14,2,2,0,0,0,.61-.47Zm-.78-1.91a4,4,0,0,0-.12-.82,1,1,0,0,0-.29-.49.72.72,0,0,0-.51-.18.91.91,0,0,0-.77.39,2.08,2.08,0,0,0-.33,1.1Z"/><path d="M55.73,185.42l.06,0a3.33,3.33,0,0,1,.48-.5,1.72,1.72,0,0,1,.47-.28,1.66,1.66,0,0,1,.57-.1,3.68,3.68,0,0,1,.49,0v1.08h-.53a1.12,1.12,0,0,0-.23-.37.54.54,0,0,0-.35-.11.6.6,0,0,0-.33.1,1.17,1.17,0,0,0-.32.28,1.35,1.35,0,0,0-.21.35,1.14,1.14,0,0,0-.06.39V188a2.47,2.47,0,0,0,0,.59.38.38,0,0,0,.17.23.89.89,0,0,0,.36.12v.23H54.48v-.23l.25-.1a.28.28,0,0,0,.13-.11.55.55,0,0,0,.09-.23,2.88,2.88,0,0,0,0-.48v-2.05c0-.2,0-.36,0-.48a.73.73,0,0,0-.07-.29.35.35,0,0,0-.17-.17,1.9,1.9,0,0,0-.32-.09v-.24l1.09-.05h.28Z"/><path d="M68.16,188.33a4.43,4.43,0,0,1-.54.49,2.19,2.19,0,0,1-.55.28,2.27,2.27,0,0,1-.65.1,1.82,1.82,0,0,1-1.45-.58,2.64,2.64,0,0,1-.48-1.71,3,3,0,0,1,.24-1.23,1.87,1.87,0,0,1,1.77-1.12,1.94,1.94,0,0,1,.8.15,1.34,1.34,0,0,1,.52.41,1.84,1.84,0,0,1,.31.66,4.55,4.55,0,0,1,.12,1H65.33v.09a3.14,3.14,0,0,0,.12.93,1.26,1.26,0,0,0,.41.59,1.17,1.17,0,0,0,.73.21,1.65,1.65,0,0,0,.68-.14,2.09,2.09,0,0,0,.61-.47Zm-.78-1.91a4,4,0,0,0-.12-.82,1,1,0,0,0-.3-.49.72.72,0,0,0-.51-.18.89.89,0,0,0-.76.39,2.17,2.17,0,0,0-.34,1.1Z"/><path d="M70.23,188a2.38,2.38,0,0,0,0,.56.42.42,0,0,0,.14.24,1,1,0,0,0,.34.14v.23H68.91v-.23a1.2,1.2,0,0,0,.32-.12.48.48,0,0,0,.13-.16.7.7,0,0,0,.06-.25c0-.1,0-.24,0-.41V183.4a2,2,0,0,0,0-.3.57.57,0,0,0-.08-.19.44.44,0,0,0-.15-.12,1.56,1.56,0,0,0-.33-.08v-.24l1.12-.05h.28Z"/><path d="M79.64,189.2a1.84,1.84,0,0,1-1.47-.58,2.49,2.49,0,0,1-.51-1.7,2.84,2.84,0,0,1,.27-1.3,1.78,1.78,0,0,1,.73-.8,2.15,2.15,0,0,1,1-.26,1.89,1.89,0,0,1,1.51.59,2.45,2.45,0,0,1,.51,1.67,3,3,0,0,1-.26,1.31,1.71,1.71,0,0,1-.72.8A2.17,2.17,0,0,1,79.64,189.2Zm-1.1-2.37a3,3,0,0,0,.3,1.48,1,1,0,0,0,.87.52.86.86,0,0,0,.53-.16,1.09,1.09,0,0,0,.35-.41,2,2,0,0,0,.2-.59,4.17,4.17,0,0,0,.06-.71,3.77,3.77,0,0,0-.15-1.15,1.41,1.41,0,0,0-.41-.66.92.92,0,0,0-.59-.22,1,1,0,0,0-.87.5A2.78,2.78,0,0,0,78.54,186.83Z"/><path d="M83.82,185.42l.07,0a3.32,3.32,0,0,1,.47-.5,1.72,1.72,0,0,1,.47-.28,1.7,1.7,0,0,1,.57-.1,3.68,3.68,0,0,1,.49,0v1.08h-.52a1.31,1.31,0,0,0-.24-.37.51.51,0,0,0-.34-.11.61.61,0,0,0-.34.1,1.14,1.14,0,0,0-.31.28,1,1,0,0,0-.21.35,1.14,1.14,0,0,0-.06.39V188a2,2,0,0,0,0,.59.35.35,0,0,0,.17.23.84.84,0,0,0,.35.12v.23H82.57v-.23l.26-.1a.33.33,0,0,0,.13-.11.56.56,0,0,0,.08-.23,2.88,2.88,0,0,0,0-.48v-2.05c0-.2,0-.36,0-.48a1,1,0,0,0-.06-.29.4.4,0,0,0-.17-.17l-.33-.09v-.24l1.09-.05h.28Z"/><path d="M86.4,188.89a1.58,1.58,0,0,0,.26-.1.33.33,0,0,0,.13-.11.76.76,0,0,0,.08-.23,2.88,2.88,0,0,0,0-.48v-2.05c0-.2,0-.36,0-.48a.6.6,0,0,0-.06-.29.35.35,0,0,0-.17-.17l-.32-.09v-.25l1.08,0h.28V188a2.38,2.38,0,0,0,0,.56.42.42,0,0,0,.14.24,1,1,0,0,0,.34.14v.23H86.4Zm1.33-6.08v.91h-.86v-.91Z"/><path d="M93.11,185.12l-.86,0,0,.06a1,1,0,0,1,.23.39,1.91,1.91,0,0,1,.08.54,1.51,1.51,0,0,1-.47,1.18,1.9,1.9,0,0,1-1.32.42,2.2,2.2,0,0,1-.67-.1.74.74,0,0,0-.35.53.38.38,0,0,0,.07.26.39.39,0,0,0,.22.13,2.55,2.55,0,0,0,.47,0h1.12a1.87,1.87,0,0,1,.8.15.9.9,0,0,1,.44.42,1.26,1.26,0,0,1,.13.6,1.28,1.28,0,0,1-.25.79A1.48,1.48,0,0,1,92,191a2.88,2.88,0,0,1-1.1.2,5.61,5.61,0,0,1-.86-.06,2.24,2.24,0,0,1-.66-.19,1.09,1.09,0,0,1-.43-.35,1,1,0,0,1-.15-.55.82.82,0,0,1,.19-.53,1.69,1.69,0,0,1,.56-.43.77.77,0,0,1-.35-.26.71.71,0,0,1-.12-.41.86.86,0,0,1,.15-.49,2.28,2.28,0,0,1,.52-.5,1.39,1.39,0,0,1-.51-.54,1.71,1.71,0,0,1-.17-.77,1.68,1.68,0,0,1,.13-.7,1.3,1.3,0,0,1,.37-.49,1.45,1.45,0,0,1,.55-.29,2.56,2.56,0,0,1,.69-.1,3,3,0,0,1,.67.08h1.64ZM90,189.2a1.5,1.5,0,0,0-.35.37.9.9,0,0,0-.12.46.68.68,0,0,0,.33.62,2.06,2.06,0,0,0,1,.2,1.88,1.88,0,0,0,.71-.12.93.93,0,0,0,.46-.32.76.76,0,0,0,.16-.49,1.15,1.15,0,0,0,0-.26.71.71,0,0,0-.13-.22.55.55,0,0,0-.26-.16,1.27,1.27,0,0,0-.43-.06h-.69C90.42,189.22,90.2,189.22,90,189.2Zm-.11-3.13a1.53,1.53,0,0,0,.23.9.82.82,0,0,0,.69.32.84.84,0,0,0,.4-.09.81.81,0,0,0,.27-.25,1.38,1.38,0,0,0,.16-.37,2.06,2.06,0,0,0,0-.44,2,2,0,0,0-.11-.69.82.82,0,0,0-.32-.4.78.78,0,0,0-.46-.13.83.83,0,0,0-.67.29A1.42,1.42,0,0,0,89.89,186.07Z"/><path d="M97.25,188.33a4.43,4.43,0,0,1-.54.49,2,2,0,0,1-1.2.38,1.78,1.78,0,0,1-1.44-.58,2.58,2.58,0,0,1-.49-1.71,2.85,2.85,0,0,1,.25-1.23,1.91,1.91,0,0,1,.7-.83,2,2,0,0,1,1.06-.29,1.94,1.94,0,0,1,.8.15,1.45,1.45,0,0,1,.53.41,2,2,0,0,1,.3.66,4.48,4.48,0,0,1,.13,1H94.42v.09a2.82,2.82,0,0,0,.13.93,1.18,1.18,0,0,0,.4.59,1.19,1.19,0,0,0,.73.21,1.65,1.65,0,0,0,.68-.14A2,2,0,0,0,97,188Zm-.78-1.91a4,4,0,0,0-.12-.82,1,1,0,0,0-.29-.49.72.72,0,0,0-.51-.18.91.91,0,0,0-.77.39,2.08,2.08,0,0,0-.33,1.1Z"/><path d="M102.6,189.12h-1.82v-.23l.26-.1a.33.33,0,0,0,.13-.11.76.76,0,0,0,.08-.23,2.88,2.88,0,0,0,0-.48v-1.23c0-.22,0-.41,0-.59a2.22,2.22,0,0,0-.06-.44.84.84,0,0,0-.11-.27.57.57,0,0,0-.15-.16.59.59,0,0,0-.19-.11.81.81,0,0,0-.29,0,1,1,0,0,0-.35.07,1.36,1.36,0,0,0-.35.25,1.31,1.31,0,0,0-.29.36.8.8,0,0,0-.09.39V188a3.12,3.12,0,0,0,0,.56.48.48,0,0,0,.14.24,1.12,1.12,0,0,0,.34.14v.23H98.09v-.23l.25-.1a.28.28,0,0,0,.13-.11.55.55,0,0,0,.09-.23,2.88,2.88,0,0,0,0-.48v-2.05c0-.2,0-.36,0-.48a.73.73,0,0,0-.07-.29.31.31,0,0,0-.17-.17,1.9,1.9,0,0,0-.32-.09v-.25l1.09,0h.28l0,.76.06,0a5,5,0,0,1,.56-.5,2.18,2.18,0,0,1,.42-.23,1.44,1.44,0,0,1,.46-.08,1.53,1.53,0,0,1,.45.06,1.06,1.06,0,0,1,.35.18.89.89,0,0,1,.24.3,1.28,1.28,0,0,1,.15.43,3.82,3.82,0,0,1,0,.65V188c0,.22,0,.37,0,.47a.53.53,0,0,0,.06.22.38.38,0,0,0,.14.14,1.81,1.81,0,0,0,.3.11Z"/><path d="M112.57,184c0-.3,0-.51,0-.63a1.21,1.21,0,0,0,0-.3.42.42,0,0,0-.08-.19.41.41,0,0,0-.14-.12,1.56,1.56,0,0,0-.33-.08v-.24l1.12-.05h.28v5.42c0,.25,0,.42,0,.53a.83.83,0,0,0,.06.25.36.36,0,0,0,.15.15,1.3,1.3,0,0,0,.35.11v.24l-1.1,0h-.28l.06-.77-.07,0a3.93,3.93,0,0,1-.51.47,1.72,1.72,0,0,1-.46.25,1.27,1.27,0,0,1-.52.1,1.34,1.34,0,0,1-1.17-.59,2.85,2.85,0,0,1-.42-1.68,2.91,2.91,0,0,1,.27-1.31,1.81,1.81,0,0,1,.73-.79,2,2,0,0,1,1-.27,3,3,0,0,1,.55.05,3.84,3.84,0,0,1,.52.16Zm0,2.31a4.4,4.4,0,0,0,0-.58,1.48,1.48,0,0,0-.11-.37.64.64,0,0,0-.21-.25.8.8,0,0,0-.29-.15,1.15,1.15,0,0,0-1.27.43,2.52,2.52,0,0,0-.31,1.38,3,3,0,0,0,.25,1.37.83.83,0,0,0,.78.46,1.55,1.55,0,0,0,.33,0,1,1,0,0,0,.27-.11,1.88,1.88,0,0,0,.46-.46,2,2,0,0,0,.1-.26,1.94,1.94,0,0,0,0-.38Z"/><path d="M118.32,188.33a3.81,3.81,0,0,1-.55.49,2,2,0,0,1-.54.28,2.28,2.28,0,0,1-.66.1,1.81,1.81,0,0,1-1.44-.58,2.64,2.64,0,0,1-.49-1.71,3,3,0,0,1,.25-1.23,1.93,1.93,0,0,1,.71-.83,2,2,0,0,1,1.06-.29,1.94,1.94,0,0,1,.8.15,1.42,1.42,0,0,1,.52.41,2.24,2.24,0,0,1,.31.66,4.55,4.55,0,0,1,.12,1h-2.92v.09a3.14,3.14,0,0,0,.12.93,1.24,1.24,0,0,0,.4.59,1.22,1.22,0,0,0,.74.21,1.65,1.65,0,0,0,.68-.14,2.06,2.06,0,0,0,.6-.47Zm-.78-1.91a3.35,3.35,0,0,0-.13-.82,1,1,0,0,0-.29-.49.72.72,0,0,0-.51-.18.89.89,0,0,0-.76.39,2.17,2.17,0,0,0-.34,1.1Z"/><path d="M125.18,184.64h1.33V187a5.9,5.9,0,0,0,0,.83,1.42,1.42,0,0,0,.12.43.66.66,0,0,0,.66.34.8.8,0,0,0,.34-.07,1.12,1.12,0,0,0,.36-.24,1.28,1.28,0,0,0,.29-.35,1,1,0,0,0,.08-.4v-1.76c0-.18,0-.31,0-.4a.9.9,0,0,0,0-.22.32.32,0,0,0-.07-.13.45.45,0,0,0-.13-.1,1.07,1.07,0,0,0-.26-.09v-.23h1.32v3.2c0,.24,0,.42,0,.52a.83.83,0,0,0,.06.26.43.43,0,0,0,.15.15,1.3,1.3,0,0,0,.35.11v.24l-1.07,0h-.28l0-.77-.07,0a3,3,0,0,1-.74.62,1.41,1.41,0,0,1-.7.2,1.31,1.31,0,0,1-.69-.17,1,1,0,0,1-.41-.51,2.55,2.55,0,0,1-.14-.94v-1.77a3.22,3.22,0,0,0,0-.54.45.45,0,0,0-.11-.23.84.84,0,0,0-.38-.17Z"/><path d="M135,189.12h-1.82v-.23l.26-.1a.33.33,0,0,0,.13-.11.76.76,0,0,0,.08-.23,2.88,2.88,0,0,0,0-.48v-1.23a5.43,5.43,0,0,0,0-.59,2.22,2.22,0,0,0-.06-.44.84.84,0,0,0-.11-.27.73.73,0,0,0-.14-.16.78.78,0,0,0-.2-.11.81.81,0,0,0-.29,0,1,1,0,0,0-.35.07,1.55,1.55,0,0,0-.35.25,1.31,1.31,0,0,0-.29.36.8.8,0,0,0-.08.39V188a3.43,3.43,0,0,0,0,.56.48.48,0,0,0,.14.24,1.09,1.09,0,0,0,.35.14v.23h-1.82v-.23a1.4,1.4,0,0,0,.25-.1.28.28,0,0,0,.13-.11.55.55,0,0,0,.09-.23,2.88,2.88,0,0,0,0-.48v-2.05c0-.2,0-.36,0-.48a.73.73,0,0,0-.07-.29.31.31,0,0,0-.17-.17,1.9,1.9,0,0,0-.32-.09v-.25l1.09,0h.28l-.05.76.06,0a5,5,0,0,1,.56-.5,2,2,0,0,1,.43-.23,1.33,1.33,0,0,1,.45-.08,1.53,1.53,0,0,1,.45.06,1,1,0,0,1,.6.48,1.55,1.55,0,0,1,.14.43,3.82,3.82,0,0,1,.05.65V188c0,.22,0,.37,0,.47a.53.53,0,0,0,.06.22.38.38,0,0,0,.14.14,1.81,1.81,0,0,0,.3.11Z"/><path d="M138.33,188.45l-.07,0a2.63,2.63,0,0,1-.75.59,1.67,1.67,0,0,1-.76.18,1.38,1.38,0,0,1-.62-.14.91.91,0,0,1-.41-.39,1.11,1.11,0,0,1-.15-.58,1.16,1.16,0,0,1,.67-1.05,4.7,4.7,0,0,1,2-.44v-.3a2.57,2.57,0,0,0-.1-.77.72.72,0,0,0-.29-.41.93.93,0,0,0-.53-.13.87.87,0,0,0-.59.19,1.3,1.3,0,0,0-.33.57h-.6v-.61a6.23,6.23,0,0,1,.74-.34,4.36,4.36,0,0,1,.59-.17,3.07,3.07,0,0,1,.6-.07,1.54,1.54,0,0,1,.74.15.92.92,0,0,1,.42.45,2.39,2.39,0,0,1,.14.92v2.12q0,.15,0,.27a.69.69,0,0,0,.07.19.33.33,0,0,0,.14.12,1.26,1.26,0,0,0,.29.11v.23h-1.27Zm-.07-1.46a3.17,3.17,0,0,0-1.41.25.77.77,0,0,0-.47.73.78.78,0,0,0,.1.43.56.56,0,0,0,.27.21,1.14,1.14,0,0,0,.39.06,1,1,0,0,0,.57-.16,1.07,1.07,0,0,0,.4-.39.89.89,0,0,0,.15-.47Z"/><path d="M18.81,199.84a3.81,3.81,0,0,1-.55.49,2,2,0,0,1-1.2.38,1.78,1.78,0,0,1-1.44-.58,2.6,2.6,0,0,1-.49-1.71,3,3,0,0,1,.25-1.23,1.88,1.88,0,0,1,1.77-1.11,1.86,1.86,0,0,1,.79.15,1.29,1.29,0,0,1,.53.41,2.07,2.07,0,0,1,.31.65,4.62,4.62,0,0,1,.12,1H16v.09a3.09,3.09,0,0,0,.12.93,1.08,1.08,0,0,0,1.14.8,1.51,1.51,0,0,0,.68-.14,2.06,2.06,0,0,0,.6-.47Zm-.78-1.9a3.36,3.36,0,0,0-.13-.83,1,1,0,0,0-.29-.49.72.72,0,0,0-.51-.17.91.91,0,0,0-.76.38,2.18,2.18,0,0,0-.34,1.11Z"/><path d="M20.89,196.88l.07,0a5.38,5.38,0,0,1,.45-.43,3,3,0,0,1,.35-.23,1.22,1.22,0,0,1,.31-.12,1,1,0,0,1,.3,0,1.22,1.22,0,0,1,.76.22,1.1,1.1,0,0,1,.4.66,4.87,4.87,0,0,1,.57-.53,1.82,1.82,0,0,1,.44-.26,1.28,1.28,0,0,1,.48-.09,1.45,1.45,0,0,1,.54.09,1,1,0,0,1,.38.28,1.18,1.18,0,0,1,.22.48,3.13,3.13,0,0,1,.08.77v1.76a3.13,3.13,0,0,0,0,.5.52.52,0,0,0,.07.21.4.4,0,0,0,.13.13,1.28,1.28,0,0,0,.3.1v.23H24.93v-.23a1.81,1.81,0,0,0,.26-.09.3.3,0,0,0,.13-.12.55.55,0,0,0,.09-.23,2.88,2.88,0,0,0,0-.48v-1.23c0-.26,0-.48,0-.65a2.79,2.79,0,0,0-.07-.42.91.91,0,0,0-.1-.24,1.14,1.14,0,0,0-.15-.16.77.77,0,0,0-.18-.1,1,1,0,0,0-.28,0,.82.82,0,0,0-.35.08,1.36,1.36,0,0,0-.35.25,1.41,1.41,0,0,0-.27.36,1.08,1.08,0,0,0-.08.42v1.71c0,.24,0,.4,0,.5a.73.73,0,0,0,.07.21.4.4,0,0,0,.13.13,1.28,1.28,0,0,0,.3.1v.23H22.28v-.23a1.81,1.81,0,0,0,.26-.09.41.41,0,0,0,.14-.12.76.76,0,0,0,.08-.23,2.88,2.88,0,0,0,0-.48v-1.23c0-.27,0-.5,0-.67a2,2,0,0,0-.08-.43.73.73,0,0,0-.12-.25.45.45,0,0,0-.16-.15.49.49,0,0,0-.18-.08.88.88,0,0,0-.24,0,.74.74,0,0,0-.36.09,1.48,1.48,0,0,0-.34.25,1.14,1.14,0,0,0-.26.34.86.86,0,0,0-.09.39v1.75c0,.18,0,.32,0,.41a.9.9,0,0,0,.05.22.4.4,0,0,0,.07.13.56.56,0,0,0,.14.09,1.13,1.13,0,0,0,.25.09v.23H19.64v-.23a1.81,1.81,0,0,0,.26-.09.49.49,0,0,0,.13-.12.56.56,0,0,0,.08-.23,2.72,2.72,0,0,0,0-.48v-2c0-.2,0-.37,0-.49a.74.74,0,0,0-.06-.29.37.37,0,0,0-.17-.16,1.45,1.45,0,0,0-.33-.1v-.24l1.09,0h.28Z"/><path d="M28.71,200.49v1a2.77,2.77,0,0,0,0,.46.57.57,0,0,0,.07.23.54.54,0,0,0,.15.15,1.67,1.67,0,0,0,.33.1v.23h-1.9v-.23a1.11,1.11,0,0,0,.28-.1.36.36,0,0,0,.16-.14.81.81,0,0,0,.07-.26c0-.11,0-.26,0-.44v-4c0-.22,0-.38,0-.48a1.2,1.2,0,0,0,0-.23.34.34,0,0,0-.08-.16.39.39,0,0,0-.14-.1,1.38,1.38,0,0,0-.3-.09v-.24l1.09,0h.28l-.06.77.07,0a4,4,0,0,1,.46-.43,1.41,1.41,0,0,1,.34-.22,1.31,1.31,0,0,1,.34-.13,1.5,1.5,0,0,1,1.53.54,3,3,0,0,1,.41,1.69,3.29,3.29,0,0,1-.23,1.3,1.73,1.73,0,0,1-.68.8,2,2,0,0,1-1.05.26,2.9,2.9,0,0,1-.62-.06A2.35,2.35,0,0,1,28.71,200.49Zm0-1.54a3.9,3.9,0,0,0,.05.69.82.82,0,0,0,.53.62,1.43,1.43,0,0,0,.51.08.93.93,0,0,0,.85-.47,2.86,2.86,0,0,0,.28-1.39c0-1.22-.36-1.84-1.06-1.84a1,1,0,0,0-.45.09,1.09,1.09,0,0,0-.37.26,1.14,1.14,0,0,0-.27.35.94.94,0,0,0-.07.37Z"/><path d="M33.89,196.93l.07,0a2.88,2.88,0,0,1,.47-.5,1.62,1.62,0,0,1,1-.37,3.68,3.68,0,0,1,.49,0v1.07h-.53a1.12,1.12,0,0,0-.23-.37.54.54,0,0,0-.35-.11.6.6,0,0,0-.33.1,1.14,1.14,0,0,0-.31.28,1.2,1.2,0,0,0-.22.36,1.35,1.35,0,0,0-.05.38v1.64a2,2,0,0,0,.05.59.4.4,0,0,0,.17.24.85.85,0,0,0,.35.11v.23H32.64v-.23a1.59,1.59,0,0,0,.25-.09.41.41,0,0,0,.14-.12.76.76,0,0,0,.08-.23,2.72,2.72,0,0,0,0-.48v-2c0-.2,0-.37,0-.49a.73.73,0,0,0-.07-.29.3.3,0,0,0-.17-.16,1.21,1.21,0,0,0-.32-.1v-.24l1.09,0h.28Z"/><path d="M40.18,199.84a3.81,3.81,0,0,1-.55.49,2,2,0,0,1-1.2.38,1.78,1.78,0,0,1-1.44-.58,2.6,2.6,0,0,1-.49-1.71,3,3,0,0,1,.25-1.23,1.88,1.88,0,0,1,1.77-1.11,1.86,1.86,0,0,1,.79.15,1.29,1.29,0,0,1,.53.41,2.07,2.07,0,0,1,.31.65,4.62,4.62,0,0,1,.12,1H37.35v.09a3.09,3.09,0,0,0,.12.93,1.2,1.2,0,0,0,.4.59,1.22,1.22,0,0,0,.74.21,1.51,1.51,0,0,0,.68-.14,2.06,2.06,0,0,0,.6-.47Zm-.78-1.9a3.36,3.36,0,0,0-.13-.83,1,1,0,0,0-.29-.49.72.72,0,0,0-.51-.17.91.91,0,0,0-.76.38,2.18,2.18,0,0,0-.34,1.11Z"/><path d="M44.12,197.18h-.45a1.5,1.5,0,0,0-.24-.44.84.84,0,0,0-.31-.23,1.42,1.42,0,0,0-.44-.06,1,1,0,0,0-.59.17.61.61,0,0,0-.22.48.66.66,0,0,0,.09.36,1,1,0,0,0,.27.26,5.17,5.17,0,0,0,.66.32,5.85,5.85,0,0,1,.73.38,1.3,1.3,0,0,1,.4.41,1,1,0,0,1,.15.54A1.34,1.34,0,0,1,44,200a1.07,1.07,0,0,1-.35.41,1.47,1.47,0,0,1-.54.23,3,3,0,0,1-.68.07,4.68,4.68,0,0,1-.76-.06c-.24,0-.48-.09-.71-.15v-1h.45a1.2,1.2,0,0,0,.37.63,1.14,1.14,0,0,0,.68.19,1.24,1.24,0,0,0,.33,0,.86.86,0,0,0,.28-.11.64.64,0,0,0,.2-.23.72.72,0,0,0,.08-.35.75.75,0,0,0-.1-.39A.85.85,0,0,0,43,199a5.48,5.48,0,0,0-.68-.33,4.66,4.66,0,0,1-.68-.35,1.38,1.38,0,0,1-.4-.4,1,1,0,0,1-.15-.54,1.09,1.09,0,0,1,.21-.67,1.29,1.29,0,0,1,.6-.43,2.52,2.52,0,0,1,.91-.15,5.68,5.68,0,0,1,.59,0q.29,0,.72.12Z"/><path d="M47.68,200h-.07a3.08,3.08,0,0,1-.76.59,1.79,1.79,0,0,1-.75.17,1.32,1.32,0,0,1-.62-.14,1,1,0,0,1-.42-.39,1.18,1.18,0,0,1-.14-.58,1.15,1.15,0,0,1,.67-1,4.83,4.83,0,0,1,2-.44v-.3a2.61,2.61,0,0,0-.09-.77.76.76,0,0,0-.3-.41.93.93,0,0,0-.53-.13.85.85,0,0,0-.58.19,1.13,1.13,0,0,0-.33.58h-.61v-.61a7.46,7.46,0,0,1,.74-.35,4.5,4.5,0,0,1,.6-.17,2.91,2.91,0,0,1,.6-.06,1.74,1.74,0,0,1,.74.14.93.93,0,0,1,.41.46,2.13,2.13,0,0,1,.14.91v1.63c0,.24,0,.4,0,.49a1.12,1.12,0,0,0,0,.27.47.47,0,0,0,.06.19.58.58,0,0,0,.14.13,1.28,1.28,0,0,0,.3.1v.23H47.66Zm-.08-1.46a3.17,3.17,0,0,0-1.41.25.79.79,0,0,0-.47.74.72.72,0,0,0,.11.42.56.56,0,0,0,.27.21,1.08,1.08,0,0,0,.38.06,1.1,1.1,0,0,0,.57-.15,1.21,1.21,0,0,0,.41-.4.94.94,0,0,0,.14-.47Z"/><path d="M50.52,199.55a2.85,2.85,0,0,1,.07.64,1.64,1.64,0,0,1-.11.6,1.76,1.76,0,0,1-.36.54,4.7,4.7,0,0,1-.67.6l-.25-.29a2.31,2.31,0,0,0,.35-.4,1.34,1.34,0,0,0,.15-.41,3.13,3.13,0,0,0,0-.58c0-.24,0-.47,0-.7Z"/><path d="M58.88,195.54c0-.3,0-.51,0-.63a1.36,1.36,0,0,0,0-.3.47.47,0,0,0-.08-.19.3.3,0,0,0-.14-.11,1.42,1.42,0,0,0-.33-.09V194l1.12,0h.28v5.43c0,.24,0,.41,0,.52a.76.76,0,0,0,.06.25.36.36,0,0,0,.15.15,1,1,0,0,0,.35.11v.24l-1.1.05h-.28l.06-.77-.07,0a4.19,4.19,0,0,1-.51.48,2.55,2.55,0,0,1-.46.25,1.46,1.46,0,0,1-.52.09,1.33,1.33,0,0,1-1.17-.58,3.45,3.45,0,0,1-.15-3,1.78,1.78,0,0,1,.73-.8,2,2,0,0,1,1-.26,2.34,2.34,0,0,1,.55,0,2.21,2.21,0,0,1,.52.16Zm0,2.32a4.58,4.58,0,0,0,0-.59,1.48,1.48,0,0,0-.11-.37.72.72,0,0,0-.21-.25.8.8,0,0,0-.29-.15,1.27,1.27,0,0,0-.37-.05,1,1,0,0,0-.9.48,2.52,2.52,0,0,0-.31,1.38,2.94,2.94,0,0,0,.25,1.37.84.84,0,0,0,.78.47,1.06,1.06,0,0,0,.33,0,1,1,0,0,0,.27-.11,1.2,1.2,0,0,0,.26-.21,1.28,1.28,0,0,0,.2-.25,1.57,1.57,0,0,0,.1-.26,1.9,1.9,0,0,0,0-.37Z"/><path d="M64.63,199.84a3.81,3.81,0,0,1-.55.49,2,2,0,0,1-1.2.38,1.78,1.78,0,0,1-1.44-.58,2.6,2.6,0,0,1-.49-1.71,3,3,0,0,1,.25-1.23A1.88,1.88,0,0,1,63,196.08a1.94,1.94,0,0,1,.8.15,1.32,1.32,0,0,1,.52.41,2.07,2.07,0,0,1,.31.65,4.62,4.62,0,0,1,.12,1H61.8v.09a3.09,3.09,0,0,0,.12.93,1.2,1.2,0,0,0,.4.59,1.22,1.22,0,0,0,.74.21,1.51,1.51,0,0,0,.68-.14,2.06,2.06,0,0,0,.6-.47Zm-.78-1.9a3.36,3.36,0,0,0-.13-.83,1,1,0,0,0-.29-.49.72.72,0,0,0-.51-.17.91.91,0,0,0-.76.38,2.18,2.18,0,0,0-.34,1.11Z"/><path d="M69.7,196.16H71v2.38a5.52,5.52,0,0,0,0,.83,1.31,1.31,0,0,0,.12.44.91.91,0,0,0,.24.24.81.81,0,0,0,.42.1,1,1,0,0,0,.34-.07,1.39,1.39,0,0,0,.36-.25,1.28,1.28,0,0,0,.29-.35,1,1,0,0,0,.08-.4v-1.76c0-.18,0-.31,0-.4a1,1,0,0,0,0-.22.41.41,0,0,0-.08-.13.4.4,0,0,0-.12-.1l-.26-.08v-.23h1.32v3.2c0,.24,0,.41,0,.52a.76.76,0,0,0,.06.25.36.36,0,0,0,.15.15,1,1,0,0,0,.35.11v.24l-1.07.05h-.28l0-.77-.07,0a2.83,2.83,0,0,1-.74.62,1.43,1.43,0,0,1-.7.2,1.37,1.37,0,0,1-.7-.17,1,1,0,0,1-.4-.5,2.64,2.64,0,0,1-.14-.95v-1.77a3.22,3.22,0,0,0,0-.54.49.49,0,0,0-.11-.23.92.92,0,0,0-.38-.16Z"/><path d="M79.48,200.63H77.65v-.23a1.81,1.81,0,0,0,.26-.09.41.41,0,0,0,.14-.12.76.76,0,0,0,.08-.23,2.88,2.88,0,0,0,0-.48v-1.23c0-.21,0-.41,0-.59a2.34,2.34,0,0,0-.06-.44A.92.92,0,0,0,78,197a.61.61,0,0,0-.15-.17.86.86,0,0,0-.19-.11,1.14,1.14,0,0,0-.3,0,.81.81,0,0,0-.34.08,1.18,1.18,0,0,0-.36.25,1.23,1.23,0,0,0-.28.35.84.84,0,0,0-.09.4v1.74a3.12,3.12,0,0,0,0,.56.36.36,0,0,0,.14.24.84.84,0,0,0,.34.14v.23H75v-.23a1.81,1.81,0,0,0,.26-.09.37.37,0,0,0,.13-.12.56.56,0,0,0,.08-.23,1.88,1.88,0,0,0,0-.48v-2c0-.2,0-.37,0-.49a.73.73,0,0,0-.07-.29.33.33,0,0,0-.17-.16,1.21,1.21,0,0,0-.32-.1v-.24l1.08,0h.29l0,.77.06,0a4.44,4.44,0,0,1,.56-.51,2.91,2.91,0,0,1,.42-.23,1.44,1.44,0,0,1,.46-.08,1.53,1.53,0,0,1,.45.06,1.16,1.16,0,0,1,.35.18.89.89,0,0,1,.24.3,1.34,1.34,0,0,1,.15.44,3.6,3.6,0,0,1,0,.64v1.76a2.84,2.84,0,0,0,0,.47.64.64,0,0,0,.06.23.44.44,0,0,0,.14.13,1.06,1.06,0,0,0,.3.11Z"/><path d="M86.05,196.16v.23a1.38,1.38,0,0,0-.3.09.4.4,0,0,0-.13.13.37.37,0,0,0,0,.2,1.22,1.22,0,0,0,0,.26,3.29,3.29,0,0,0,.09.32l.81,2.37.95-2.27c.06-.15.1-.27.13-.37a1.39,1.39,0,0,0,0-.27.4.4,0,0,0-.1-.3.8.8,0,0,0-.38-.16v-.23h1.73v.23a.66.66,0,0,0-.28.11.83.83,0,0,0-.19.24,4.94,4.94,0,0,0-.24.47l-1.56,3.47h-.55l-1.25-3.5a4.05,4.05,0,0,0-.21-.49.58.58,0,0,0-.17-.2.64.64,0,0,0-.26-.1v-.23Z"/><path d="M91.9,200h-.07a3.08,3.08,0,0,1-.76.59,1.79,1.79,0,0,1-.75.17,1.39,1.39,0,0,1-.63-.14,1,1,0,0,1-.41-.39,1.09,1.09,0,0,1-.14-.58,1.15,1.15,0,0,1,.67-1,4.76,4.76,0,0,1,2-.44v-.3a2.61,2.61,0,0,0-.09-.77.76.76,0,0,0-.3-.41.93.93,0,0,0-.53-.13.83.83,0,0,0-.58.19,1.13,1.13,0,0,0-.33.58h-.61v-.61a7.46,7.46,0,0,1,.74-.35,4.83,4.83,0,0,1,.59-.17,3.08,3.08,0,0,1,.61-.06,1.74,1.74,0,0,1,.74.14.93.93,0,0,1,.41.46,2.3,2.3,0,0,1,.14.91v1.63c0,.24,0,.4,0,.49a2.13,2.13,0,0,0,0,.27.69.69,0,0,0,.07.19.44.44,0,0,0,.14.13,1.34,1.34,0,0,0,.29.1v.23H91.87Zm-.08-1.46a3.17,3.17,0,0,0-1.41.25.79.79,0,0,0-.47.74.72.72,0,0,0,.11.42.56.56,0,0,0,.27.21,1,1,0,0,0,.38.06,1.1,1.1,0,0,0,.57-.15,1.18,1.18,0,0,0,.4-.4.87.87,0,0,0,.15-.47Z"/><path d="M95,199.46a2.38,2.38,0,0,0,0,.56.36.36,0,0,0,.14.24.84.84,0,0,0,.34.14v.23H93.68v-.23a1.2,1.2,0,0,0,.32-.12.4.4,0,0,0,.13-.16,1.09,1.09,0,0,0,.05-.25c0-.1,0-.24,0-.41v-3.92c0-.3,0-.51,0-.63a1.39,1.39,0,0,0,0-.3.48.48,0,0,0-.09-.19.26.26,0,0,0-.14-.11,1.42,1.42,0,0,0-.33-.09V194l1.12,0H95Z"/><path d="M98.26,200.71a1.87,1.87,0,0,1-1.47-.57,2.5,2.5,0,0,1-.51-1.7,2.89,2.89,0,0,1,.27-1.31,1.76,1.76,0,0,1,.73-.79,2.06,2.06,0,0,1,1.06-.26,1.88,1.88,0,0,1,1.5.58,2.47,2.47,0,0,1,.51,1.67,3.07,3.07,0,0,1-.26,1.32,1.81,1.81,0,0,1-.72.8A2.28,2.28,0,0,1,98.26,200.71Zm-1.1-2.37a3,3,0,0,0,.3,1.48,1,1,0,0,0,.87.52.92.92,0,0,0,.53-.15,1.18,1.18,0,0,0,.35-.41,1.77,1.77,0,0,0,.2-.6,4.08,4.08,0,0,0,.06-.71,3.66,3.66,0,0,0-.15-1.14,1.4,1.4,0,0,0-.41-.67.91.91,0,0,0-.59-.21.94.94,0,0,0-.86.49A2.7,2.7,0,0,0,97.16,198.34Z"/><path d="M102.44,196.93l.07,0a3.92,3.92,0,0,1,.47-.5,1.59,1.59,0,0,1,.47-.27,1.48,1.48,0,0,1,.57-.1,3.58,3.58,0,0,1,.49,0v1.07H104a1.31,1.31,0,0,0-.24-.37.51.51,0,0,0-.34-.11.6.6,0,0,0-.33.1,1.17,1.17,0,0,0-.32.28,1.38,1.38,0,0,0-.21.36,1,1,0,0,0-.06.38v1.64a2.47,2.47,0,0,0,.05.59.4.4,0,0,0,.17.24.9.9,0,0,0,.35.11v.23H101.2v-.23l.25-.09a.49.49,0,0,0,.13-.12.56.56,0,0,0,.08-.23,2.72,2.72,0,0,0,0-.48v-2c0-.2,0-.37,0-.49a.74.74,0,0,0-.06-.29.37.37,0,0,0-.17-.16,1.35,1.35,0,0,0-.32-.1v-.24l1.08,0h.28Z"/><path d="M106,199.55a3.55,3.55,0,0,1,.06.64,1.46,1.46,0,0,1-.11.6,1.72,1.72,0,0,1-.35.54,6.14,6.14,0,0,1-.67.6l-.25-.29a2.2,2.2,0,0,0,.34-.4,1.34,1.34,0,0,0,.15-.41,3.13,3.13,0,0,0,0-.58c0-.24,0-.47,0-.7Z"/><path d="M114.36,195.54c0-.3,0-.51,0-.63a1.39,1.39,0,0,0,0-.3.48.48,0,0,0-.09-.19.26.26,0,0,0-.14-.11,1.42,1.42,0,0,0-.33-.09V194l1.13,0h.27v5.43c0,.24,0,.41,0,.52a.76.76,0,0,0,.06.25.36.36,0,0,0,.15.15,1.1,1.1,0,0,0,.35.11v.24l-1.1.05h-.27l0-.77-.07,0a3.57,3.57,0,0,1-.51.48,2.46,2.46,0,0,1-.45.25,1.55,1.55,0,0,1-.53.09,1.35,1.35,0,0,1-1.17-.58,3.49,3.49,0,0,1-.14-3,1.82,1.82,0,0,1,.72-.8,2,2,0,0,1,1-.26,2.48,2.48,0,0,1,.56,0,2.29,2.29,0,0,1,.51.16Zm0,2.32a4.58,4.58,0,0,0,0-.59,1.16,1.16,0,0,0-.11-.37.72.72,0,0,0-.21-.25.76.76,0,0,0-.28-.15,1.4,1.4,0,0,0-.38-.05,1,1,0,0,0-.9.48,2.52,2.52,0,0,0-.31,1.38,2.94,2.94,0,0,0,.25,1.37.84.84,0,0,0,.78.47,1.09,1.09,0,0,0,.34,0,.85.85,0,0,0,.26-.11,1.24,1.24,0,0,0,.27-.21,1.18,1.18,0,0,0,.19-.25.74.74,0,0,0,.1-.26,1.9,1.9,0,0,0,0-.37Z"/><path d="M120.11,199.84a4.43,4.43,0,0,1-.54.49,2.19,2.19,0,0,1-.55.28,1.93,1.93,0,0,1-.65.1,1.79,1.79,0,0,1-1.45-.58,2.6,2.6,0,0,1-.48-1.71,2.85,2.85,0,0,1,.25-1.23,1.85,1.85,0,0,1,1.76-1.11,1.94,1.94,0,0,1,.8.15,1.25,1.25,0,0,1,.52.41,1.71,1.71,0,0,1,.31.65,4.62,4.62,0,0,1,.12,1h-2.92v.09a3.09,3.09,0,0,0,.12.93,1.21,1.21,0,0,0,.41.59,1.19,1.19,0,0,0,.73.21,1.51,1.51,0,0,0,.68-.14,2,2,0,0,0,.61-.47Zm-.78-1.9a4,4,0,0,0-.12-.83,1.08,1.08,0,0,0-.3-.49.72.72,0,0,0-.51-.17.92.92,0,0,0-.76.38,2.18,2.18,0,0,0-.34,1.11Z"/><path d="M125.19,196.16h1.32v2.38a5.81,5.81,0,0,0,0,.83,1.59,1.59,0,0,0,.12.44.91.91,0,0,0,.24.24.81.81,0,0,0,.42.1,1,1,0,0,0,.34-.07,1.39,1.39,0,0,0,.36-.25,1.12,1.12,0,0,0,.29-.35.84.84,0,0,0,.08-.4v-1.76c0-.18,0-.31,0-.4a.65.65,0,0,0,0-.22.4.4,0,0,0-.07-.13.34.34,0,0,0-.13-.1l-.26-.08v-.23h1.32v3.2c0,.24,0,.41,0,.52a.76.76,0,0,0,.06.25.4.4,0,0,0,.14.15,1.1,1.1,0,0,0,.35.11v.24l-1.06.05h-.29l0-.77-.07,0a3,3,0,0,1-.73.62,1.47,1.47,0,0,1-.71.2,1.31,1.31,0,0,1-.69-.17,1,1,0,0,1-.41-.5,2.67,2.67,0,0,1-.13-.95v-1.77a2.94,2.94,0,0,0,0-.54.41.41,0,0,0-.11-.23.86.86,0,0,0-.37-.16Z"/><path d="M135,200.63h-1.83v-.23a1.81,1.81,0,0,0,.26-.09.49.49,0,0,0,.13-.12.56.56,0,0,0,.08-.23,2.88,2.88,0,0,0,0-.48v-1.23a5.53,5.53,0,0,0,0-.59,2.34,2.34,0,0,0-.06-.44.94.94,0,0,0-.1-.26,1.29,1.29,0,0,0-.15-.17l-.2-.11a1.06,1.06,0,0,0-.29,0,.85.85,0,0,0-.35.08,1.72,1.72,0,0,0-.64.6,1,1,0,0,0-.08.4v1.74a3.43,3.43,0,0,0,0,.56.46.46,0,0,0,.14.24.9.9,0,0,0,.35.14v.23h-1.82v-.23a2.42,2.42,0,0,0,.26-.09.34.34,0,0,0,.12-.12.55.55,0,0,0,.09-.23,2.72,2.72,0,0,0,0-.48v-2c0-.2,0-.37,0-.49a.73.73,0,0,0-.07-.29.31.31,0,0,0-.16-.16,1.45,1.45,0,0,0-.33-.1v-.24l1.09,0h.28l-.05.77.07,0a4.49,4.49,0,0,1,.55-.51,2.55,2.55,0,0,1,.43-.23,1.33,1.33,0,0,1,.45-.08,1.53,1.53,0,0,1,.45.06,1,1,0,0,1,.6.48,1.63,1.63,0,0,1,.14.44,2.85,2.85,0,0,1,.05.64v1.76c0,.22,0,.37,0,.47a.64.64,0,0,0,.06.23.58.58,0,0,0,.14.13,1.16,1.16,0,0,0,.31.11Z"/><path d="M138.34,200h-.07a3.27,3.27,0,0,1-.76.59,1.8,1.8,0,0,1-.76.17,1.38,1.38,0,0,1-.62-.14,1,1,0,0,1-.41-.39,1.09,1.09,0,0,1-.14-.58,1.15,1.15,0,0,1,.67-1,4.76,4.76,0,0,1,2-.44v-.3a2.28,2.28,0,0,0-.1-.77.75.75,0,0,0-.29-.41.93.93,0,0,0-.53-.13.83.83,0,0,0-.58.19,1.21,1.21,0,0,0-.34.58h-.6v-.61a6.53,6.53,0,0,1,.74-.35,4.83,4.83,0,0,1,.59-.17,3.08,3.08,0,0,1,.61-.06,1.66,1.66,0,0,1,.73.14.9.9,0,0,1,.42.46,2.3,2.3,0,0,1,.14.91v2.12q0,.15,0,.27a.69.69,0,0,0,.07.19.44.44,0,0,0,.14.13,1.34,1.34,0,0,0,.29.1v.23h-1.27Zm-.08-1.46a3.17,3.17,0,0,0-1.41.25.78.78,0,0,0-.47.74.73.73,0,0,0,.1.42.66.66,0,0,0,.27.21,1.14,1.14,0,0,0,.39.06,1.1,1.1,0,0,0,.57-.15,1.18,1.18,0,0,0,.4-.4.87.87,0,0,0,.15-.47Z"/><path d="M18.56,207.78v1H18a1.36,1.36,0,0,0-.2-.48.59.59,0,0,0-.27-.25.83.83,0,0,0-.38-.07.87.87,0,0,0-.57.21,1.44,1.44,0,0,0-.4.64,3.28,3.28,0,0,0-.14,1.06,4.07,4.07,0,0,0,0,.72,1.82,1.82,0,0,0,.19.57,1,1,0,0,0,.36.36,1,1,0,0,0,.55.14,1.54,1.54,0,0,0,.6-.13,1.8,1.8,0,0,0,.57-.45l.26.31a3.14,3.14,0,0,1-.41.41,2.55,2.55,0,0,1-.39.24,2.21,2.21,0,0,1-.41.14,2,2,0,0,1-.44,0,1.59,1.59,0,0,1-1.34-.59,2.66,2.66,0,0,1-.46-1.69,2.79,2.79,0,0,1,.26-1.23,1.85,1.85,0,0,1,.73-.83,2,2,0,0,1,1.08-.29,5.18,5.18,0,0,1,.7,0A4,4,0,0,1,18.56,207.78Z"/><path d="M21.88,211.48l-.07,0a3,3,0,0,1-.76.59,1.8,1.8,0,0,1-.76.17,1.26,1.26,0,0,1-.62-.14,1,1,0,0,1-.41-.38,1.11,1.11,0,0,1-.14-.58,1.16,1.16,0,0,1,.67-1.06,4.63,4.63,0,0,1,2-.43v-.31a2.32,2.32,0,0,0-.1-.77.79.79,0,0,0-.29-.41.93.93,0,0,0-.53-.13.88.88,0,0,0-.58.19,1.21,1.21,0,0,0-.34.58h-.6v-.61a5,5,0,0,1,.74-.34,3.59,3.59,0,0,1,.59-.18,3.08,3.08,0,0,1,.61-.06,1.52,1.52,0,0,1,.73.15.92.92,0,0,1,.42.45,2.36,2.36,0,0,1,.14.92v2.12l0,.26a.77.77,0,0,0,.07.2.42.42,0,0,0,.14.12l.29.11v.23H21.85ZM21.8,210a3.32,3.32,0,0,0-1.41.25.79.79,0,0,0-.47.74.73.73,0,0,0,.1.42.59.59,0,0,0,.27.21,1.14,1.14,0,0,0,.39.06,1.1,1.1,0,0,0,.57-.15,1.15,1.15,0,0,0,.4-.39.9.9,0,0,0,.15-.48Z"/><path d="M25,208.45h.07a3.2,3.2,0,0,1,.47-.49,1.5,1.5,0,0,1,.47-.28,1.48,1.48,0,0,1,.57-.1,3.68,3.68,0,0,1,.49,0v1.07h-.52a1.24,1.24,0,0,0-.24-.36.47.47,0,0,0-.34-.12.61.61,0,0,0-.34.1,1.19,1.19,0,0,0-.31.29.88.88,0,0,0-.21.35,1.14,1.14,0,0,0-.06.39V211a2,2,0,0,0,.05.58.4.4,0,0,0,.17.24,1,1,0,0,0,.35.12v.23H23.74v-.23l.26-.1a.49.49,0,0,0,.13-.12.51.51,0,0,0,.08-.23,2.72,2.72,0,0,0,0-.48v-2c0-.2,0-.36,0-.49a1.05,1.05,0,0,0-.06-.29A.37.37,0,0,0,24,208a1.1,1.1,0,0,0-.33-.09v-.25l1.09,0H25Z"/><path d="M30.25,211.48l-.07,0a3,3,0,0,1-.75.59,1.8,1.8,0,0,1-.76.17,1.26,1.26,0,0,1-.62-.14,1,1,0,0,1-.41-.38,1.11,1.11,0,0,1-.15-.58,1.17,1.17,0,0,1,.67-1.06,4.7,4.7,0,0,1,2-.43v-.31a2.66,2.66,0,0,0-.09-.77.79.79,0,0,0-.29-.41.93.93,0,0,0-.53-.13.91.91,0,0,0-.59.19,1.29,1.29,0,0,0-.33.58h-.61v-.61a5.49,5.49,0,0,1,.75-.34,3.09,3.09,0,0,1,.59-.18,3.05,3.05,0,0,1,.6-.06,1.54,1.54,0,0,1,.74.15.92.92,0,0,1,.42.45,2.36,2.36,0,0,1,.14.92v2.12a2.06,2.06,0,0,0,0,.26.77.77,0,0,0,.07.2.42.42,0,0,0,.14.12,1.63,1.63,0,0,0,.29.11v.23H30.23ZM30.17,210a3.39,3.39,0,0,0-1.41.25.79.79,0,0,0-.46.74.73.73,0,0,0,.1.42.5.5,0,0,0,.27.21,1.14,1.14,0,0,0,.39.06,1.1,1.1,0,0,0,.57-.15,1.24,1.24,0,0,0,.4-.39.88.88,0,0,0,.14-.48Z"/><path d="M35.57,207.78v1H35a1.37,1.37,0,0,0-.19-.48.7.7,0,0,0-.27-.25.86.86,0,0,0-.38-.07.88.88,0,0,0-.58.21,1.43,1.43,0,0,0-.39.64,3.26,3.26,0,0,0-.15,1.06,4,4,0,0,0,.06.72,1.6,1.6,0,0,0,.19.57,1,1,0,0,0,.35.36,1.08,1.08,0,0,0,.56.14,1.45,1.45,0,0,0,.59-.13,1.61,1.61,0,0,0,.57-.45l.27.31a3.88,3.88,0,0,1-.42.41,2.55,2.55,0,0,1-.39.24,2.12,2.12,0,0,1-.4.14,2.06,2.06,0,0,1-.44,0,1.58,1.58,0,0,1-1.34-.59,2.66,2.66,0,0,1-.47-1.69,2.79,2.79,0,0,1,.26-1.23,2,2,0,0,1,.73-.83,2,2,0,0,1,1.08-.29,5,5,0,0,1,.7,0A3.61,3.61,0,0,1,35.57,207.78Z"/><path d="M35.93,207.9a.94.94,0,0,0,.38-.13.64.64,0,0,0,.22-.24,1.15,1.15,0,0,0,.13-.37c0-.15.06-.36.1-.65h.66v1.16h1.49v.47H37.42v2.09a6.83,6.83,0,0,0,0,.72,1,1,0,0,0,.14.42.68.68,0,0,0,.23.22.82.82,0,0,0,.34.07.85.85,0,0,0,.35-.08,1.84,1.84,0,0,0,.32-.22l.2.25a2.67,2.67,0,0,1-.62.47,1.47,1.47,0,0,1-.61.14,1.07,1.07,0,0,1-.89-.36,1.73,1.73,0,0,1-.29-1.12v-2.6h-.69Z"/><path d="M43,211.35a3.81,3.81,0,0,1-.55.49,2.13,2.13,0,0,1-.54.28,2,2,0,0,1-.66.1,1.75,1.75,0,0,1-1.44-.58,2.54,2.54,0,0,1-.49-1.7,2.86,2.86,0,0,1,.25-1.24,1.9,1.9,0,0,1,.71-.82,2,2,0,0,1,1-.29,1.9,1.9,0,0,1,.8.15,1.37,1.37,0,0,1,.53.41,2,2,0,0,1,.31.66,4.47,4.47,0,0,1,.12,1H40.21v.08a3.09,3.09,0,0,0,.12.93,1.1,1.1,0,0,0,1.13.81,1.55,1.55,0,0,0,.69-.15,2,2,0,0,0,.6-.46Zm-.78-1.9a3.44,3.44,0,0,0-.13-.83,1,1,0,0,0-.29-.49.77.77,0,0,0-.51-.17.89.89,0,0,0-.76.39,2,2,0,0,0-.34,1.1Z"/><path d="M45.12,208.45h.07a3.2,3.2,0,0,1,.47-.49,1.5,1.5,0,0,1,.47-.28,1.48,1.48,0,0,1,.57-.1,3.68,3.68,0,0,1,.49,0v1.07h-.53a1.06,1.06,0,0,0-.23-.36.5.5,0,0,0-.35-.12.6.6,0,0,0-.33.1,1.19,1.19,0,0,0-.31.29,1.06,1.06,0,0,0-.22.35,1.48,1.48,0,0,0,0,.39V211a2,2,0,0,0,0,.58.4.4,0,0,0,.17.24,1,1,0,0,0,.35.12v.23H43.87v-.23l.26-.1a.49.49,0,0,0,.13-.12.67.67,0,0,0,.08-.23,2.72,2.72,0,0,0,0-.48v-2c0-.2,0-.36,0-.49a.77.77,0,0,0-.07-.29.31.31,0,0,0-.16-.16,1.1,1.1,0,0,0-.33-.09v-.25l1.09,0h.28Z"/><path d="M47.7,211.92a1.58,1.58,0,0,0,.26-.1.49.49,0,0,0,.13-.12.67.67,0,0,0,.08-.23,2.72,2.72,0,0,0,0-.48v-2c0-.2,0-.36,0-.49a.62.62,0,0,0-.06-.29A.33.33,0,0,0,48,208a1,1,0,0,0-.32-.09v-.25l1.08,0H49V211a2.49,2.49,0,0,0,0,.56.36.36,0,0,0,.14.23.83.83,0,0,0,.34.15v.23H47.7Zm2.08-6.53v.24l-1.48,1.51-.3-.25,1-1.5Z"/><path d="M53.35,208.69h-.44a1.64,1.64,0,0,0-.24-.44.74.74,0,0,0-.32-.22,1.11,1.11,0,0,0-.43-.07.9.9,0,0,0-.59.18.55.55,0,0,0-.22.47.64.64,0,0,0,.09.36,1,1,0,0,0,.27.26,5.23,5.23,0,0,0,.65.33,4.14,4.14,0,0,1,.74.38,1.38,1.38,0,0,1,.4.4,1,1,0,0,1,.15.55,1.46,1.46,0,0,1-.13.62,1,1,0,0,1-.35.41,1.47,1.47,0,0,1-.54.23,3,3,0,0,1-.69.07,4.56,4.56,0,0,1-.75-.06q-.37-.06-.72-.15v-1h.46a1.14,1.14,0,0,0,.37.63,1.06,1.06,0,0,0,.68.19,1.66,1.66,0,0,0,.32,0,1.26,1.26,0,0,0,.29-.12.61.61,0,0,0,.2-.22.9.9,0,0,0,0-.74,1,1,0,0,0-.29-.28,5.82,5.82,0,0,0-.69-.33,4.49,4.49,0,0,1-.67-.35,1.18,1.18,0,0,1-.4-.4,1,1,0,0,1-.15-.54,1.09,1.09,0,0,1,.21-.67,1.21,1.21,0,0,1,.59-.43,2.57,2.57,0,0,1,.92-.15,5.68,5.68,0,0,1,.59,0,7,7,0,0,1,.71.12Z"/><path d="M54,207.9a1,1,0,0,0,.37-.13.66.66,0,0,0,.23-.24,1.46,1.46,0,0,0,.12-.37c0-.15.07-.36.1-.65h.66v1.16h1.5v.47h-1.5v2.09a4.67,4.67,0,0,0,0,.72.9.9,0,0,0,.14.42.54.54,0,0,0,.23.22.77.77,0,0,0,.33.07.82.82,0,0,0,.35-.08,1.53,1.53,0,0,0,.32-.22l.21.25a2.7,2.7,0,0,1-.63.47,1.43,1.43,0,0,1-.61.14,1.1,1.1,0,0,1-.89-.36,1.79,1.79,0,0,1-.29-1.12v-2.6H54Z"/><path d="M57.35,211.92a1.58,1.58,0,0,0,.26-.1.37.37,0,0,0,.13-.12.51.51,0,0,0,.08-.23,2.72,2.72,0,0,0,0-.48v-2c0-.2,0-.36,0-.49a.62.62,0,0,0-.06-.29.33.33,0,0,0-.17-.16,1,1,0,0,0-.32-.09v-.25l1.08,0h.28V211a2.49,2.49,0,0,0,0,.56.36.36,0,0,0,.14.23.83.83,0,0,0,.34.15v.23H57.35Zm1.33-6.09v.91h-.85v-.91Z"/><path d="M63.35,207.78v1h-.59a1.37,1.37,0,0,0-.19-.48.7.7,0,0,0-.27-.25.86.86,0,0,0-.38-.07.84.84,0,0,0-.57.21,1.44,1.44,0,0,0-.4.64,3.26,3.26,0,0,0-.15,1.06,4,4,0,0,0,.06.72,1.6,1.6,0,0,0,.19.57,1,1,0,0,0,.36.36,1,1,0,0,0,.55.14,1.45,1.45,0,0,0,.59-.13,1.72,1.72,0,0,0,.58-.45l.26.31a3.88,3.88,0,0,1-.42.41,3,3,0,0,1-.38.24,2.49,2.49,0,0,1-.41.14,2.06,2.06,0,0,1-.44,0,1.58,1.58,0,0,1-1.34-.59,2.66,2.66,0,0,1-.47-1.69,2.79,2.79,0,0,1,.26-1.23,2,2,0,0,1,.73-.83,2.08,2.08,0,0,1,1.08-.29,5.23,5.23,0,0,1,.71,0A3.71,3.71,0,0,1,63.35,207.78Z"/><path d="M66.67,211.48l-.07,0a2.85,2.85,0,0,1-.76.59,1.72,1.72,0,0,1-.75.17,1.26,1.26,0,0,1-.62-.14,1,1,0,0,1-.41-.38,1.11,1.11,0,0,1-.15-.58,1.17,1.17,0,0,1,.67-1.06,4.7,4.7,0,0,1,2-.43v-.31a2.66,2.66,0,0,0-.09-.77.79.79,0,0,0-.29-.41.93.93,0,0,0-.53-.13.91.91,0,0,0-.59.19,1.29,1.29,0,0,0-.33.58h-.61v-.61a5.49,5.49,0,0,1,.75-.34,3.09,3.09,0,0,1,.59-.18,3.05,3.05,0,0,1,.6-.06,1.57,1.57,0,0,1,.74.15,1,1,0,0,1,.42.45,2.36,2.36,0,0,1,.14.92v2.12a1.09,1.09,0,0,0,0,.26.52.52,0,0,0,.07.2.42.42,0,0,0,.14.12,1.63,1.63,0,0,0,.29.11v.23H66.65ZM66.59,210a3.39,3.39,0,0,0-1.41.25.79.79,0,0,0-.46.74.73.73,0,0,0,.1.42.5.5,0,0,0,.27.21,1.14,1.14,0,0,0,.39.06,1.1,1.1,0,0,0,.57-.15,1.24,1.24,0,0,0,.4-.39.88.88,0,0,0,.14-.48Z"/><path d="M69.52,211.06a3.57,3.57,0,0,1,.06.65,1.46,1.46,0,0,1-.11.6,1.84,1.84,0,0,1-.35.54,6.18,6.18,0,0,1-.67.59l-.25-.29a2.2,2.2,0,0,0,.34-.4,1.34,1.34,0,0,0,.15-.41,3,3,0,0,0,0-.58c0-.23,0-.47,0-.7Z"/><path d="M77.33,207.06c0-.3,0-.51,0-.63a1.26,1.26,0,0,0,0-.3.46.46,0,0,0-.09-.2.31.31,0,0,0-.14-.11,1.42,1.42,0,0,0-.33-.09v-.24l1.12-.05h.28v5.43c0,.24,0,.42,0,.52a.7.7,0,0,0,.06.25.36.36,0,0,0,.15.15,1,1,0,0,0,.35.11v.25l-1.1,0h-.27l0-.76-.07,0a3.42,3.42,0,0,1-.51.47,1.86,1.86,0,0,1-.46.25,1.46,1.46,0,0,1-.52.09,1.34,1.34,0,0,1-1.17-.58,2.86,2.86,0,0,1-.41-1.68,3,3,0,0,1,.26-1.31,1.9,1.9,0,0,1,.73-.8,2.1,2.1,0,0,1,1-.26,3.24,3.24,0,0,1,.56,0,3,3,0,0,1,.51.16Zm0,2.31a4.68,4.68,0,0,0,0-.59,1.24,1.24,0,0,0-.11-.37.72.72,0,0,0-.21-.25.76.76,0,0,0-.28-.15,1.4,1.4,0,0,0-.38,0,1,1,0,0,0-.9.48,2.52,2.52,0,0,0-.31,1.38,2.94,2.94,0,0,0,.25,1.37.84.84,0,0,0,.78.47,1.13,1.13,0,0,0,.34,0,1,1,0,0,0,.26-.11,1.24,1.24,0,0,0,.27-.21,1,1,0,0,0,.19-.25.88.88,0,0,0,.1-.26,1.83,1.83,0,0,0,0-.37Z"/><path d="M83.08,211.35a3.81,3.81,0,0,1-.55.49,2,2,0,0,1-1.19.38,1.79,1.79,0,0,1-1.45-.58,2.59,2.59,0,0,1-.48-1.7,3,3,0,0,1,.24-1.24,1.88,1.88,0,0,1,1.77-1.11,1.94,1.94,0,0,1,.8.15,1.34,1.34,0,0,1,.52.41,1.84,1.84,0,0,1,.31.66,4.47,4.47,0,0,1,.12,1H80.25v.08a3.09,3.09,0,0,0,.12.93,1.15,1.15,0,0,0,.41.59,1.17,1.17,0,0,0,.73.22,1.51,1.51,0,0,0,.68-.15,2,2,0,0,0,.61-.46Zm-.78-1.9a4.1,4.1,0,0,0-.12-.83,1.08,1.08,0,0,0-.3-.49.77.77,0,0,0-.51-.17.89.89,0,0,0-.76.39,2.11,2.11,0,0,0-.34,1.1Z"/><path d="M87.61,207.67h1.32v2.38a5.67,5.67,0,0,0,0,.84,1.05,1.05,0,0,0,.12.43.69.69,0,0,0,.24.24.73.73,0,0,0,.42.1.8.8,0,0,0,.34-.07,1.39,1.39,0,0,0,.36-.25,1.25,1.25,0,0,0,.29-.34,1.07,1.07,0,0,0,.08-.41v-1.75c0-.18,0-.32,0-.41a1,1,0,0,0,0-.22.57.57,0,0,0-.08-.13l-.12-.09a1.26,1.26,0,0,0-.26-.09v-.23h1.32v3.2c0,.24,0,.41,0,.52a.76.76,0,0,0,.06.25.36.36,0,0,0,.15.15,1,1,0,0,0,.34.11v.25l-1.06,0h-.28l0-.76-.07,0a3.28,3.28,0,0,1-.74.62,1.42,1.42,0,0,1-.7.19,1.28,1.28,0,0,1-.7-.17,1,1,0,0,1-.4-.5,2.58,2.58,0,0,1-.14-.94v-1.77a3.28,3.28,0,0,0,0-.55.46.46,0,0,0-.12-.23.81.81,0,0,0-.37-.16Z"/><path d="M97.39,212.15H95.56v-.23a1.58,1.58,0,0,0,.26-.1.41.41,0,0,0,.14-.12.67.67,0,0,0,.08-.23,2.67,2.67,0,0,0,0-.47v-1.23c0-.22,0-.42,0-.6a2.11,2.11,0,0,0-.06-.43.88.88,0,0,0-.11-.27.61.61,0,0,0-.15-.17.57.57,0,0,0-.19-.1.84.84,0,0,0-.3,0,.8.8,0,0,0-.34.07,1.54,1.54,0,0,0-.64.6.87.87,0,0,0-.09.4V211a3.3,3.3,0,0,0,0,.56.36.36,0,0,0,.14.23.83.83,0,0,0,.34.15v.23H92.87v-.23a1.58,1.58,0,0,0,.26-.1.37.37,0,0,0,.13-.12.64.64,0,0,0,.09-.23,2.72,2.72,0,0,0,0-.48v-2c0-.2,0-.36,0-.49a.77.77,0,0,0-.07-.29.33.33,0,0,0-.17-.16,1,1,0,0,0-.32-.09v-.25l1.08,0h.29l-.05.76.06,0a3.6,3.6,0,0,1,.56-.5,1.75,1.75,0,0,1,.42-.23,1.22,1.22,0,0,1,.46-.09,1.53,1.53,0,0,1,.45.06,1.16,1.16,0,0,1,.35.18.92.92,0,0,1,.24.31,1.28,1.28,0,0,1,.15.43,3.69,3.69,0,0,1,.05.64V211a2.91,2.91,0,0,0,0,.47.58.58,0,0,0,.06.22.35.35,0,0,0,.14.13,1,1,0,0,0,.3.12Z"/><path d="M103.15,212v1c0,.2,0,.35,0,.45a.68.68,0,0,0,.07.24.56.56,0,0,0,.16.14,1,1,0,0,0,.32.1v.23h-1.89v-.23l.27-.09a.46.46,0,0,0,.16-.15.58.58,0,0,0,.07-.26c0-.11,0-.25,0-.43v-4c0-.23,0-.39,0-.48a.75.75,0,0,0,0-.24.35.35,0,0,0-.08-.16.39.39,0,0,0-.14-.1,1.51,1.51,0,0,0-.3-.08v-.25l1.09,0h.28l-.06.76.07,0a5,5,0,0,1,.46-.43,1.79,1.79,0,0,1,.34-.22,1.5,1.5,0,0,1,.7-.17,1.35,1.35,0,0,1,1.17.58,2.88,2.88,0,0,1,.41,1.7,3.18,3.18,0,0,1-.23,1.3,1.69,1.69,0,0,1-.67.79,2.11,2.11,0,0,1-1.06.26,2.9,2.9,0,0,1-.62-.06A3.09,3.09,0,0,1,103.15,212Zm0-1.55a3.9,3.9,0,0,0,0,.69.89.89,0,0,0,.2.4,1,1,0,0,0,.34.23,1.36,1.36,0,0,0,.5.07.92.92,0,0,0,.85-.47,2.73,2.73,0,0,0,.28-1.39c0-1.22-.35-1.83-1.06-1.83a1.06,1.06,0,0,0-.45.08,1.2,1.2,0,0,0-.37.26,1,1,0,0,0-.26.36.73.73,0,0,0-.08.36Z"/><path d="M108.33,208.45h.07a3.75,3.75,0,0,1,.47-.49,1.63,1.63,0,0,1,.47-.28,1.48,1.48,0,0,1,.57-.1,3.58,3.58,0,0,1,.49,0v1.07h-.52a1.24,1.24,0,0,0-.24-.36.47.47,0,0,0-.34-.12.6.6,0,0,0-.33.1,1.22,1.22,0,0,0-.32.29,1.2,1.2,0,0,0-.21.35,1.14,1.14,0,0,0-.06.39V211a2.37,2.37,0,0,0,.05.58.4.4,0,0,0,.17.24,1.09,1.09,0,0,0,.35.12v.23h-1.87v-.23a1.58,1.58,0,0,0,.26-.1.49.49,0,0,0,.13-.12.51.51,0,0,0,.08-.23,2.72,2.72,0,0,0,0-.48v-2c0-.2,0-.36,0-.49a.78.78,0,0,0-.06-.29.37.37,0,0,0-.17-.16,1.1,1.1,0,0,0-.33-.09v-.25l1.09,0h.28Z"/><path d="M112.93,212.22a1.87,1.87,0,0,1-1.47-.57A2.49,2.49,0,0,1,111,210a2.91,2.91,0,0,1,.27-1.31,1.81,1.81,0,0,1,.73-.79,2.16,2.16,0,0,1,1.06-.26,1.88,1.88,0,0,1,1.5.58,2.48,2.48,0,0,1,.51,1.68,3,3,0,0,1-.26,1.31,1.76,1.76,0,0,1-.72.8A2.28,2.28,0,0,1,112.93,212.22Zm-1.1-2.37a3,3,0,0,0,.3,1.48,1,1,0,0,0,.87.52.92.92,0,0,0,.53-.15,1.08,1.08,0,0,0,.35-.41,1.77,1.77,0,0,0,.2-.6,4,4,0,0,0,.06-.71,3.66,3.66,0,0,0-.15-1.14,1.45,1.45,0,0,0-.41-.67A.91.91,0,0,0,113,208a.94.94,0,0,0-.86.49A2.72,2.72,0,0,0,111.83,209.85Z"/><path d="M119,207.06c0-.3,0-.51,0-.63a1.26,1.26,0,0,0,0-.3.46.46,0,0,0-.09-.2.31.31,0,0,0-.14-.11,1.42,1.42,0,0,0-.33-.09v-.24l1.13-.05h.27v5.43c0,.24,0,.42,0,.52a.7.7,0,0,0,.06.25.36.36,0,0,0,.15.15,1.1,1.1,0,0,0,.35.11v.25l-1.09,0H119l.05-.76-.07,0a4,4,0,0,1-.5.47,2.3,2.3,0,0,1-.46.25,1.55,1.55,0,0,1-.53.09,1.35,1.35,0,0,1-1.17-.58,2.93,2.93,0,0,1-.41-1.68,2.89,2.89,0,0,1,.27-1.31,1.88,1.88,0,0,1,.72-.8,2.1,2.1,0,0,1,1-.26,3.24,3.24,0,0,1,.56,0,2.71,2.71,0,0,1,.51.16Zm0,2.31a4.68,4.68,0,0,0,0-.59,1.24,1.24,0,0,0-.11-.37.72.72,0,0,0-.21-.25.76.76,0,0,0-.28-.15,1.4,1.4,0,0,0-.38,0,1,1,0,0,0-.9.48,2.52,2.52,0,0,0-.31,1.38,2.94,2.94,0,0,0,.25,1.37.84.84,0,0,0,.78.47,1.09,1.09,0,0,0,.34,0,.85.85,0,0,0,.26-.11,1.24,1.24,0,0,0,.27-.21,1,1,0,0,0,.19-.25.67.67,0,0,0,.1-.26,1.83,1.83,0,0,0,0-.37Z"/><path d="M120.92,207.67h1.33v2.38a6,6,0,0,0,0,.84,1.51,1.51,0,0,0,.12.43.78.78,0,0,0,.24.24.73.73,0,0,0,.42.1.8.8,0,0,0,.34-.07,1.39,1.39,0,0,0,.36-.25,1.25,1.25,0,0,0,.29-.34,1.07,1.07,0,0,0,.08-.41v-1.75c0-.18,0-.32,0-.41a1,1,0,0,0,0-.22.54.54,0,0,0-.07-.13l-.13-.09a1.07,1.07,0,0,0-.26-.09v-.23h1.32v3.2c0,.24,0,.41,0,.52a.76.76,0,0,0,.06.25.43.43,0,0,0,.15.15,1,1,0,0,0,.35.11v.25l-1.07,0h-.28l0-.76-.07,0a3.28,3.28,0,0,1-.74.62,1.39,1.39,0,0,1-.7.19,1.22,1.22,0,0,1-.69-.17,1,1,0,0,1-.41-.5,2.58,2.58,0,0,1-.14-.94v-1.77a3.28,3.28,0,0,0,0-.55.55.55,0,0,0-.11-.23.86.86,0,0,0-.38-.16Z"/><path d="M129.64,207.78v1h-.59a1.37,1.37,0,0,0-.19-.48.7.7,0,0,0-.27-.25.86.86,0,0,0-.38-.07.88.88,0,0,0-.58.21,1.43,1.43,0,0,0-.39.64,3.26,3.26,0,0,0-.15,1.06,4,4,0,0,0,.06.72,1.6,1.6,0,0,0,.19.57,1,1,0,0,0,.35.36,1.08,1.08,0,0,0,.56.14,1.45,1.45,0,0,0,.59-.13,1.61,1.61,0,0,0,.57-.45l.27.31a3.88,3.88,0,0,1-.42.41,2.55,2.55,0,0,1-.39.24,2.12,2.12,0,0,1-.4.14,2.06,2.06,0,0,1-.44,0,1.58,1.58,0,0,1-1.34-.59,2.66,2.66,0,0,1-.47-1.69,2.79,2.79,0,0,1,.26-1.23,2,2,0,0,1,.73-.83,2,2,0,0,1,1.08-.29,5.23,5.23,0,0,1,.71,0A3.71,3.71,0,0,1,129.64,207.78Z"/><path d="M130,207.9a.94.94,0,0,0,.38-.13.64.64,0,0,0,.22-.24,1.15,1.15,0,0,0,.13-.37c0-.15.06-.36.1-.65h.66v1.16H133v.47h-1.49v2.09a6.83,6.83,0,0,0,0,.72,1,1,0,0,0,.14.42.68.68,0,0,0,.23.22.82.82,0,0,0,.34.07.85.85,0,0,0,.35-.08,1.84,1.84,0,0,0,.32-.22l.2.25a2.67,2.67,0,0,1-.62.47,1.47,1.47,0,0,1-.61.14,1.07,1.07,0,0,1-.89-.36,1.79,1.79,0,0,1-.29-1.12v-2.6H130Z"/><path d="M135.42,212.22a1.88,1.88,0,0,1-1.48-.57,2.54,2.54,0,0,1-.5-1.7,3.06,3.06,0,0,1,.26-1.31,1.81,1.81,0,0,1,.73-.79,2.19,2.19,0,0,1,1.06-.26,1.88,1.88,0,0,1,1.5.58,2.48,2.48,0,0,1,.51,1.68,3,3,0,0,1-.25,1.31,1.76,1.76,0,0,1-.72.8A2.33,2.33,0,0,1,135.42,212.22Zm-1.11-2.37a2.84,2.84,0,0,0,.31,1.48,1,1,0,0,0,1.4.37,1.18,1.18,0,0,0,.35-.41,2,2,0,0,0,.2-.6,4,4,0,0,0,.06-.71,3.66,3.66,0,0,0-.15-1.14,1.45,1.45,0,0,0-.41-.67.93.93,0,0,0-.6-.21,1,1,0,0,0-.86.49A2.72,2.72,0,0,0,134.31,209.85Z"/><path d="M139.33,211.06a3.57,3.57,0,0,1,.06.65,1.46,1.46,0,0,1-.11.6,1.84,1.84,0,0,1-.35.54,5.35,5.35,0,0,1-.67.59l-.25-.29a1.85,1.85,0,0,0,.34-.4,1.34,1.34,0,0,0,.15-.41,2.4,2.4,0,0,0,.05-.58c0-.23,0-.47,0-.7Z"/><path d="M18.23,218.57v-.63a2,2,0,0,0,0-.3.46.46,0,0,0-.09-.2.4.4,0,0,0-.14-.11,1.11,1.11,0,0,0-.33-.08V217l1.13,0H19v5.42c0,.24,0,.42,0,.52a.7.7,0,0,0,.06.25.31.31,0,0,0,.15.15,1.36,1.36,0,0,0,.35.12v.24l-1.09.05h-.28l.05-.77-.07,0a3.38,3.38,0,0,1-.5.47,2.3,2.3,0,0,1-.46.25,1.55,1.55,0,0,1-.53.09,1.35,1.35,0,0,1-1.17-.58,2.93,2.93,0,0,1-.41-1.68,2.89,2.89,0,0,1,.27-1.31,1.94,1.94,0,0,1,.72-.8,2.1,2.1,0,0,1,1-.26,3.15,3.15,0,0,1,.56.05,2.71,2.71,0,0,1,.51.16Zm0,2.31a4.4,4.4,0,0,0,0-.58,1.16,1.16,0,0,0-.11-.37.82.82,0,0,0-.49-.41,1.35,1.35,0,0,0-.37,0,1,1,0,0,0-.91.48,2.52,2.52,0,0,0-.31,1.38,2.87,2.87,0,0,0,.26,1.36.81.81,0,0,0,.77.47,1.58,1.58,0,0,0,.34,0,.88.88,0,0,0,.26-.12,1.24,1.24,0,0,0,.27-.21,1,1,0,0,0,.19-.25.67.67,0,0,0,.1-.26,1.83,1.83,0,0,0,0-.37Z"/><path d="M24,222.86a3.73,3.73,0,0,1-.54.49,1.91,1.91,0,0,1-.55.28,1.93,1.93,0,0,1-.65.1,1.78,1.78,0,0,1-1.44-.57,2.58,2.58,0,0,1-.49-1.71,2.79,2.79,0,0,1,.25-1.23,1.91,1.91,0,0,1,.7-.83,2,2,0,0,1,1.06-.29,1.94,1.94,0,0,1,.8.15,1.45,1.45,0,0,1,.53.41,1.83,1.83,0,0,1,.3.66,4,4,0,0,1,.12,1H21.15v.08a2.78,2.78,0,0,0,.13.93,1.1,1.1,0,0,0,.4.59,1.13,1.13,0,0,0,.73.22,1.51,1.51,0,0,0,.68-.15,1.92,1.92,0,0,0,.61-.46ZM23.2,221a4.1,4.1,0,0,0-.12-.83,1.23,1.23,0,0,0-.29-.49.77.77,0,0,0-.52-.17.9.9,0,0,0-.76.39,2,2,0,0,0-.33,1.1Z"/><path d="M26.7,219.18H28v2.39a8,8,0,0,0,0,.83,1.22,1.22,0,0,0,.13.43.56.56,0,0,0,.24.24.73.73,0,0,0,.42.1.8.8,0,0,0,.34-.07,2.23,2.23,0,0,0,.36-.24,1.19,1.19,0,0,0,.28-.35.88.88,0,0,0,.09-.41v-1.75c0-.18,0-.32,0-.41a.81.81,0,0,0-.05-.21.47.47,0,0,0-.08-.14l-.12-.09a1.19,1.19,0,0,0-.27-.09v-.23h1.33v3.2c0,.24,0,.41,0,.52a.7.7,0,0,0,.06.25.29.29,0,0,0,.14.15,1.52,1.52,0,0,0,.35.12v.24l-1.06.05h-.28l0-.77-.07,0a3.24,3.24,0,0,1-.74.62,1.42,1.42,0,0,1-.7.19,1.34,1.34,0,0,1-.7-.16,1.05,1.05,0,0,1-.41-.51,2.61,2.61,0,0,1-.13-.94v-1.77a3.14,3.14,0,0,0,0-.54.46.46,0,0,0-.12-.24.81.81,0,0,0-.37-.16Z"/><path d="M36.48,223.66H34.65v-.23a1.58,1.58,0,0,0,.26-.1.3.3,0,0,0,.13-.12.5.5,0,0,0,.09-.23,2.67,2.67,0,0,0,0-.47v-1.23c0-.22,0-.42,0-.6a2.22,2.22,0,0,0-.06-.43A.88.88,0,0,0,35,220a.57.57,0,0,0-.15-.16.43.43,0,0,0-.2-.11.78.78,0,0,0-.29,0,.8.8,0,0,0-.34.07,1.54,1.54,0,0,0-.64.6.87.87,0,0,0-.09.4v1.75a2.44,2.44,0,0,0,0,.56.42.42,0,0,0,.14.24,1,1,0,0,0,.34.14v.23H32v-.23a1.58,1.58,0,0,0,.26-.1.49.49,0,0,0,.13-.12.51.51,0,0,0,.08-.23,2.72,2.72,0,0,0,0-.48v-2c0-.2,0-.36,0-.48a.67.67,0,0,0-.06-.3.38.38,0,0,0-.17-.16,1,1,0,0,0-.32-.09v-.25l1.08,0h.29l-.06.76.07,0a5,5,0,0,1,.55-.5,2,2,0,0,1,.43-.23,1.17,1.17,0,0,1,.46-.08,2.14,2.14,0,0,1,.45,0,1,1,0,0,1,.34.18,1.07,1.07,0,0,1,.25.31,1.28,1.28,0,0,1,.15.43,3.69,3.69,0,0,1,.05.64v1.77a2.91,2.91,0,0,0,0,.47.58.58,0,0,0,.06.22.4.4,0,0,0,.13.13,1.25,1.25,0,0,0,.31.12Z"/><path d="M42.87,222.86a3.73,3.73,0,0,1-.54.49,1.91,1.91,0,0,1-.55.28,1.93,1.93,0,0,1-.65.1,1.78,1.78,0,0,1-1.44-.57,2.58,2.58,0,0,1-.49-1.71,2.79,2.79,0,0,1,.25-1.23,1.91,1.91,0,0,1,.7-.83,2,2,0,0,1,1.06-.29,1.94,1.94,0,0,1,.8.15,1.45,1.45,0,0,1,.53.41,1.83,1.83,0,0,1,.3.66,4.48,4.48,0,0,1,.13,1H40v.08a2.78,2.78,0,0,0,.13.93,1.1,1.1,0,0,0,.4.59,1.13,1.13,0,0,0,.73.22A1.51,1.51,0,0,0,42,223a1.92,1.92,0,0,0,.61-.46Zm-.78-1.9a4.1,4.1,0,0,0-.12-.83,1.12,1.12,0,0,0-.29-.49.77.77,0,0,0-.51-.17.91.91,0,0,0-.77.39,2,2,0,0,0-.33,1.1Z"/><path d="M48.15,225.67H46.26v-.23a1,1,0,0,0,.32-.1.44.44,0,0,0,.16-.14.68.68,0,0,0,.07-.24,4.4,4.4,0,0,0,0-.45v-1.62a5,5,0,0,1-.46.46,2.6,2.6,0,0,1-.49.28,1.47,1.47,0,0,1-.56.1,1.35,1.35,0,0,1-1.17-.57,2.86,2.86,0,0,1-.41-1.68,3,3,0,0,1,.26-1.31,1.77,1.77,0,0,1,.75-.8,2.19,2.19,0,0,1,1.1-.27,2.25,2.25,0,0,1,.6.07,2.36,2.36,0,0,1,.54.22l.32-.29.32.08v5.33c0,.18,0,.33,0,.44a.75.75,0,0,0,.07.25.46.46,0,0,0,.16.15l.27.09Zm-1.32-4.8a3.86,3.86,0,0,0,0-.68,1,1,0,0,0-.19-.4.82.82,0,0,0-.32-.24,1.11,1.11,0,0,0-.43-.07,1,1,0,0,0-.91.48,2.56,2.56,0,0,0-.32,1.38,2.87,2.87,0,0,0,.26,1.36.82.82,0,0,0,.77.47,1.55,1.55,0,0,0,.33,0,1.07,1.07,0,0,0,.27-.12,1.24,1.24,0,0,0,.27-.21,1.28,1.28,0,0,0,.2-.25.88.88,0,0,0,.09-.26,1.83,1.83,0,0,0,0-.37Z"/><path d="M48.69,219.18H50v2.39a5.9,5.9,0,0,0,0,.83,1.51,1.51,0,0,0,.12.43.69.69,0,0,0,.24.24.73.73,0,0,0,.42.1.8.8,0,0,0,.34-.07,1.6,1.6,0,0,0,.36-.24,1.25,1.25,0,0,0,.29-.35,1,1,0,0,0,.08-.41v-1.75c0-.18,0-.32,0-.41a.81.81,0,0,0,0-.21.46.46,0,0,0-.07-.14.48.48,0,0,0-.13-.09,1.07,1.07,0,0,0-.26-.09v-.23h1.32v3.2c0,.24,0,.41,0,.52a.44.44,0,0,0,.06.25.26.26,0,0,0,.14.15,1.23,1.23,0,0,0,.35.12v.24l-1.07.05h-.28l0-.77-.07,0a3,3,0,0,1-.74.62,1.39,1.39,0,0,1-.7.19,1.31,1.31,0,0,1-.69-.16,1,1,0,0,1-.41-.51,2.58,2.58,0,0,1-.14-.94v-1.77a3.14,3.14,0,0,0,0-.54.53.53,0,0,0-.11-.24.86.86,0,0,0-.38-.16Z"/><path d="M54,223.43l.25-.1a.37.37,0,0,0,.13-.12.5.5,0,0,0,.09-.23,2.72,2.72,0,0,0,0-.48v-2c0-.2,0-.36,0-.48a.83.83,0,0,0-.07-.3.33.33,0,0,0-.17-.16,1,1,0,0,0-.32-.09v-.25l1.08,0h.29v3.35a3.51,3.51,0,0,0,0,.56.48.48,0,0,0,.14.24,1.12,1.12,0,0,0,.34.14v.23H54Zm1.32-6.09v.91h-.85v-.91Z"/><path d="M57.76,223.52v1a2.7,2.7,0,0,0,0,.45.68.68,0,0,0,.07.24.44.44,0,0,0,.16.14,1,1,0,0,0,.32.1v.23H56.44v-.23l.27-.09a.39.39,0,0,0,.16-.15.74.74,0,0,0,.07-.26c0-.11,0-.25,0-.43v-4c0-.23,0-.39,0-.48a1.19,1.19,0,0,0,0-.24.36.36,0,0,0-.08-.15.4.4,0,0,0-.14-.11l-.3-.08v-.25l1.09,0h.28l-.06.76.07,0a5,5,0,0,1,.46-.43,1.79,1.79,0,0,1,.34-.22,2.11,2.11,0,0,1,.34-.13,2,2,0,0,1,.36,0,1.35,1.35,0,0,1,1.17.57,3,3,0,0,1,.41,1.7,3.32,3.32,0,0,1-.23,1.3,1.65,1.65,0,0,1-.68.79,2,2,0,0,1-1,.26,3.8,3.8,0,0,1-.62,0A3.07,3.07,0,0,1,57.76,223.52Zm0-1.55a4.12,4.12,0,0,0,.05.7.9.9,0,0,0,.2.39.94.94,0,0,0,.33.23,1.46,1.46,0,0,0,.51.07.92.92,0,0,0,.85-.47A2.7,2.7,0,0,0,60,221.5c0-1.22-.35-1.83-1.06-1.83a1.21,1.21,0,0,0-.45.08,1.25,1.25,0,0,0-.37.26,1.35,1.35,0,0,0-.27.36.87.87,0,0,0-.07.37Z"/><path d="M63.71,223.73a1.88,1.88,0,0,1-1.48-.57,2.54,2.54,0,0,1-.5-1.7,2.84,2.84,0,0,1,.26-1.3,1.78,1.78,0,0,1,.73-.8,2.19,2.19,0,0,1,1.06-.26,1.91,1.91,0,0,1,1.5.58,2.48,2.48,0,0,1,.51,1.68,3,3,0,0,1-.25,1.31,1.76,1.76,0,0,1-.72.8A2.22,2.22,0,0,1,63.71,223.73Zm-1.11-2.37a2.9,2.9,0,0,0,.31,1.49,1,1,0,0,0,.87.51.94.94,0,0,0,.53-.15,1.18,1.18,0,0,0,.35-.41,2,2,0,0,0,.2-.6,4,4,0,0,0,.06-.7,3.77,3.77,0,0,0-.15-1.15,1.51,1.51,0,0,0-.41-.67.93.93,0,0,0-.6-.21,1,1,0,0,0-.86.49A2.72,2.72,0,0,0,62.6,221.36Z"/><path d="M67.62,222.57a3.66,3.66,0,0,1,.06.65,1.46,1.46,0,0,1-.11.6,1.84,1.84,0,0,1-.35.54,4.65,4.65,0,0,1-.67.59l-.25-.28a1.87,1.87,0,0,0,.34-.41,1.34,1.34,0,0,0,.15-.41,3,3,0,0,0,0-.58c0-.23,0-.47,0-.7Z"/><path d="M74.19,222.86a3.73,3.73,0,0,1-.54.49,1.91,1.91,0,0,1-.55.28,1.93,1.93,0,0,1-.65.1,1.78,1.78,0,0,1-1.44-.57,2.58,2.58,0,0,1-.49-1.71,2.79,2.79,0,0,1,.25-1.23,1.91,1.91,0,0,1,.7-.83,2,2,0,0,1,1.06-.29,1.94,1.94,0,0,1,.8.15,1.45,1.45,0,0,1,.53.41,1.83,1.83,0,0,1,.3.66,4.48,4.48,0,0,1,.13,1H71.36v.08a2.78,2.78,0,0,0,.13.93,1.1,1.1,0,0,0,.4.59,1.13,1.13,0,0,0,.73.22,1.51,1.51,0,0,0,.68-.15,1.92,1.92,0,0,0,.61-.46Zm-.78-1.9a4.1,4.1,0,0,0-.12-.83,1.12,1.12,0,0,0-.29-.49.77.77,0,0,0-.51-.17.91.91,0,0,0-.77.39,2,2,0,0,0-.33,1.1Z"/><path d="M79.54,223.66H77.72v-.23l.26-.1a.49.49,0,0,0,.13-.12.67.67,0,0,0,.08-.23,2.67,2.67,0,0,0,0-.47v-1.23c0-.22,0-.42,0-.6a2.22,2.22,0,0,0-.06-.43A.69.69,0,0,0,78,220a.57.57,0,0,0-.15-.16.45.45,0,0,0-.19-.11,1,1,0,0,0-.64,0,1.36,1.36,0,0,0-.35.25,1.45,1.45,0,0,0-.29.35.87.87,0,0,0-.09.4v1.75a3.21,3.21,0,0,0,0,.56.48.48,0,0,0,.14.24,1.12,1.12,0,0,0,.34.14v.23H75v-.23l.25-.1a.37.37,0,0,0,.13-.12.5.5,0,0,0,.09-.23,2.72,2.72,0,0,0,0-.48v-2c0-.2,0-.36,0-.48a.83.83,0,0,0-.07-.3.38.38,0,0,0-.17-.16,1,1,0,0,0-.32-.09v-.25l1.09,0h.28l0,.76.06,0a5,5,0,0,1,.56-.5,1.75,1.75,0,0,1,.42-.23,1.21,1.21,0,0,1,.46-.08,2,2,0,0,1,.45,0,1.06,1.06,0,0,1,.35.18,1,1,0,0,1,.24.31,1.28,1.28,0,0,1,.15.43,3.69,3.69,0,0,1,0,.64v1.77c0,.21,0,.37,0,.47a.58.58,0,0,0,.06.22.35.35,0,0,0,.14.13,1.14,1.14,0,0,0,.3.12Z"/><path d="M80,219.41a.81.81,0,0,0,.38-.13.64.64,0,0,0,.22-.24,1.15,1.15,0,0,0,.13-.37c0-.15.07-.36.1-.65h.66v1.16h1.5v.47h-1.5v2.09a4.67,4.67,0,0,0,0,.72,1,1,0,0,0,.13.42.55.55,0,0,0,.24.22.62.62,0,0,0,.33.07.85.85,0,0,0,.35-.08,1.53,1.53,0,0,0,.32-.22l.21.25a2.44,2.44,0,0,1-.63.47,1.3,1.3,0,0,1-.61.14,1.11,1.11,0,0,1-.89-.35,1.82,1.82,0,0,1-.29-1.13v-2.6H80Z"/><path d="M84.6,220h.07a3.75,3.75,0,0,1,.47-.49,1.63,1.63,0,0,1,.47-.28,1.5,1.5,0,0,1,.58-.1,3.53,3.53,0,0,1,.48,0v1.08h-.52a1.13,1.13,0,0,0-.24-.37.47.47,0,0,0-.34-.12.7.7,0,0,0-.33.1,1.22,1.22,0,0,0-.32.29,1.2,1.2,0,0,0-.21.35,1.14,1.14,0,0,0-.06.39v1.64a2.53,2.53,0,0,0,0,.59.45.45,0,0,0,.17.23,1.07,1.07,0,0,0,.36.12v.23H83.36v-.23l.25-.1a.49.49,0,0,0,.13-.12.41.41,0,0,0,.08-.23,2.72,2.72,0,0,0,0-.48v-2c0-.2,0-.36,0-.48a.67.67,0,0,0-.06-.3.44.44,0,0,0-.17-.16,1,1,0,0,0-.32-.09v-.24l1.08-.05h.28Z"/><path d="M90.89,222.86a3.73,3.73,0,0,1-.54.49,1.91,1.91,0,0,1-.55.28,1.93,1.93,0,0,1-.65.1,1.78,1.78,0,0,1-1.44-.57,2.58,2.58,0,0,1-.49-1.71,2.79,2.79,0,0,1,.25-1.23,1.91,1.91,0,0,1,.7-.83,2,2,0,0,1,1.06-.29,1.94,1.94,0,0,1,.8.15,1.45,1.45,0,0,1,.53.41,1.83,1.83,0,0,1,.3.66,4,4,0,0,1,.12,1H88.06v.08a3.09,3.09,0,0,0,.12.93,1.17,1.17,0,0,0,.41.59,1.13,1.13,0,0,0,.73.22A1.51,1.51,0,0,0,90,223a1.92,1.92,0,0,0,.61-.46Zm-.78-1.9a4.1,4.1,0,0,0-.12-.83,1.14,1.14,0,0,0-.3-.49.77.77,0,0,0-.51-.17.9.9,0,0,0-.76.39,2.14,2.14,0,0,0-.34,1.1Z"/><path d="M95.74,223.73a1.86,1.86,0,0,1-1.47-.57,2.49,2.49,0,0,1-.51-1.7,3,3,0,0,1,.26-1.3,1.8,1.8,0,0,1,.74-.8,2.12,2.12,0,0,1,1-.26,1.94,1.94,0,0,1,1.51.58,2.48,2.48,0,0,1,.51,1.68,3,3,0,0,1-.26,1.31,1.76,1.76,0,0,1-.72.8A2.17,2.17,0,0,1,95.74,223.73Zm-1.11-2.37a3,3,0,0,0,.31,1.49,1,1,0,0,0,.87.51.92.92,0,0,0,.53-.15,1.18,1.18,0,0,0,.35-.41,2,2,0,0,0,.2-.6,4,4,0,0,0,.06-.7,3.77,3.77,0,0,0-.15-1.15,1.51,1.51,0,0,0-.41-.67.93.93,0,0,0-.6-.21,1,1,0,0,0-.86.49A2.72,2.72,0,0,0,94.63,221.36Z"/><path d="M98.39,219.41a.86.86,0,0,0,.38-.13A.64.64,0,0,0,99,219a1.44,1.44,0,0,0,.13-.37c0-.15.06-.36.09-.65h.66v1.16h1.5v.47h-1.5v2.09a6.42,6.42,0,0,0,0,.72,1,1,0,0,0,.14.42.59.59,0,0,0,.23.22.69.69,0,0,0,.34.07.77.77,0,0,0,.34-.08,1.31,1.31,0,0,0,.32-.22l.21.25a2.6,2.6,0,0,1-.62.47,1.33,1.33,0,0,1-.61.14,1.1,1.1,0,0,1-.89-.35,1.76,1.76,0,0,1-.29-1.13v-2.6h-.69Z"/><path d="M103,220h.07a3.2,3.2,0,0,1,.47-.49,1.5,1.5,0,0,1,.47-.28,1.48,1.48,0,0,1,.57-.1,3.68,3.68,0,0,1,.49,0v1.08h-.53a1.12,1.12,0,0,0-.23-.37.5.5,0,0,0-.35-.12.7.7,0,0,0-.33.1,1.19,1.19,0,0,0-.31.29,1.06,1.06,0,0,0-.22.35,1.48,1.48,0,0,0,0,.39v1.64a2.07,2.07,0,0,0,0,.59.4.4,0,0,0,.17.23,1,1,0,0,0,.35.12v.23h-1.87v-.23l.26-.1a.49.49,0,0,0,.13-.12.67.67,0,0,0,.08-.23,2.72,2.72,0,0,0,0-.48v-2c0-.2,0-.36,0-.48a.83.83,0,0,0-.07-.3.35.35,0,0,0-.16-.16,1.1,1.1,0,0,0-.33-.09v-.24l1.09-.05h.28Z"/><path d="M107.64,223.73a1.86,1.86,0,0,1-1.47-.57,2.49,2.49,0,0,1-.51-1.7,2.84,2.84,0,0,1,.27-1.3,1.73,1.73,0,0,1,.73-.8,2.12,2.12,0,0,1,1-.26,1.94,1.94,0,0,1,1.51.58,2.48,2.48,0,0,1,.51,1.68,3,3,0,0,1-.26,1.31,1.76,1.76,0,0,1-.72.8A2.17,2.17,0,0,1,107.64,223.73Zm-1.1-2.37a3,3,0,0,0,.3,1.49,1,1,0,0,0,.87.51.92.92,0,0,0,.53-.15,1.18,1.18,0,0,0,.35-.41,2,2,0,0,0,.2-.6,4,4,0,0,0,.06-.7,3.77,3.77,0,0,0-.15-1.15,1.51,1.51,0,0,0-.41-.67.91.91,0,0,0-.6-.21,1,1,0,0,0-.86.49A2.73,2.73,0,0,0,106.54,221.36Z"/><path d="M113.68,220.21h-.45a1.57,1.57,0,0,0-.24-.45.77.77,0,0,0-.32-.22,1.08,1.08,0,0,0-.43-.07.92.92,0,0,0-.59.18.55.55,0,0,0-.22.48.63.63,0,0,0,.09.35,1,1,0,0,0,.27.27,6,6,0,0,0,.66.32,4.75,4.75,0,0,1,.73.38,1.38,1.38,0,0,1,.4.4,1,1,0,0,1,.15.55,1.29,1.29,0,0,1-.13.62,1,1,0,0,1-.35.41,1.32,1.32,0,0,1-.54.23,3,3,0,0,1-.69.07,6.16,6.16,0,0,1-.75,0,5.77,5.77,0,0,1-.72-.16v-1H111a1.2,1.2,0,0,0,.37.63,1.06,1.06,0,0,0,.68.19,1.66,1.66,0,0,0,.32,0,.84.84,0,0,0,.29-.12.61.61,0,0,0,.2-.22.73.73,0,0,0,.07-.35.75.75,0,0,0-.09-.39,1,1,0,0,0-.29-.28,6.33,6.33,0,0,0-.68-.33,3.85,3.85,0,0,1-.68-.35,1.36,1.36,0,0,1-.4-.39,1,1,0,0,1-.15-.55,1.11,1.11,0,0,1,.21-.67,1.33,1.33,0,0,1,.59-.43,2.57,2.57,0,0,1,.92-.15,5.68,5.68,0,0,1,.59,0q.29,0,.72.12Z"/><path d="M115.55,222.57v1.09h-.94v-1.09Z"/><path d="M46.06,21.51a.88.88,0,0,0-.35.16.44.44,0,0,0-.13.23,2.06,2.06,0,0,0,0,.51v4.27a3,3,0,0,0,0,.48.49.49,0,0,0,.12.26.85.85,0,0,0,.37.17v.32H43.55v-.32a1.29,1.29,0,0,0,.3-.11.28.28,0,0,0,.13-.11.52.52,0,0,0,.07-.22c0-.1,0-.26,0-.48V24.25c0-.26,0-.58,0-.94s0-.62,0-.77H44l-.12.39-.25.68-1.31,3.56h-.86l-1.37-4c-.08-.23-.16-.45-.22-.68h-.09c0,.55.05,1.19.05,1.93v2.26a2,2,0,0,0,0,.51.47.47,0,0,0,.13.24,1,1,0,0,0,.36.16v.32H38.52v-.32a1.79,1.79,0,0,0,.29-.11.41.41,0,0,0,.16-.16.61.61,0,0,0,.07-.25c0-.1,0-.23,0-.39V22.41a2.81,2.81,0,0,0,0-.51.58.58,0,0,0-.13-.23,1,1,0,0,0-.37-.16v-.33H41l1.35,4.05,1.47-4.05h2.29Z"/><path d="M49,26.67c0,.12,0,.23,0,.33a.86.86,0,0,0,0,.24.36.36,0,0,0,.08.15.52.52,0,0,0,.16.12l.23.08v.32H47v-.32a1.79,1.79,0,0,0,.29-.11.33.33,0,0,0,.15-.16.57.57,0,0,0,.07-.25c0-.11,0-.24,0-.4V22.42c0-.16,0-.29,0-.39a.76.76,0,0,0-.06-.25.41.41,0,0,0-.16-.16,1,1,0,0,0-.29-.11v-.33h2.56v.33a.92.92,0,0,0-.29.11.4.4,0,0,0-.14.15.52.52,0,0,0-.07.24,2.25,2.25,0,0,0,0,.41Z"/><path d="M51.74,27.91v-.32l.32-.09a.47.47,0,0,0,.18-.16.66.66,0,0,0,.08-.27c0-.11,0-.24,0-.4V21.76h-.4a1,1,0,0,0-.44.07.62.62,0,0,0-.27.21,1.25,1.25,0,0,0-.2.4c-.06.17-.1.32-.14.47h-.67V21.18H56v1.73h-.67c-.06-.22-.11-.39-.15-.49a.85.85,0,0,0-.12-.27.86.86,0,0,0-.14-.18.57.57,0,0,0-.15-.12,1,1,0,0,0-.21-.07l-.32,0h-.36v4.91a3.59,3.59,0,0,0,0,.4,1,1,0,0,0,0,.22.5.5,0,0,0,.1.14l.15.09a1.31,1.31,0,0,0,.27.07v.32Z"/><path d="M59.54,28a2.65,2.65,0,0,1-2.15-.85,3.83,3.83,0,0,1-.72-2.54A4.49,4.49,0,0,1,57,22.71a2.53,2.53,0,0,1,1-1.2,3.08,3.08,0,0,1,1.61-.41,2.7,2.7,0,0,1,2.19.85,3.72,3.72,0,0,1,.74,2.51,5.33,5.33,0,0,1-.22,1.6,2.93,2.93,0,0,1-.62,1.1,2.59,2.59,0,0,1-1,.63A3.77,3.77,0,0,1,59.54,28Zm-1.32-3.52a5.45,5.45,0,0,0,.35,2.22,1.16,1.16,0,0,0,1.09.72,1,1,0,0,0,.64-.2,1.57,1.57,0,0,0,.42-.57,3.44,3.44,0,0,0,.24-.87A7.68,7.68,0,0,0,61,24.66,7.57,7.57,0,0,0,60.88,23a2.22,2.22,0,0,0-.47-1,1,1,0,0,0-.79-.34,1.14,1.14,0,0,0-1.06.68A5.09,5.09,0,0,0,58.22,24.47Z"/><path d="M68.31,21.18a5.89,5.89,0,0,1,1.37.13,3.36,3.36,0,0,1,1,.4,2.52,2.52,0,0,1,.68.66,2.57,2.57,0,0,1,.39.89,4.47,4.47,0,0,1,.13,1.14,4.91,4.91,0,0,1-.18,1.38,3.05,3.05,0,0,1-.53,1,2.7,2.7,0,0,1-.78.64,3.39,3.39,0,0,1-1.06.35,7.89,7.89,0,0,1-1.31.09H65.77v-.32a1.79,1.79,0,0,0,.29-.11.41.41,0,0,0,.16-.16.76.76,0,0,0,.06-.25c0-.11,0-.24,0-.4V22.42c0-.15,0-.28,0-.39a.46.46,0,0,0-.06-.25.33.33,0,0,0-.15-.16,1.12,1.12,0,0,0-.3-.11v-.33Zm-.5,6.14h.45a2.23,2.23,0,0,0,.9-.16,1.27,1.27,0,0,0,.46-.32A2.23,2.23,0,0,0,70.1,26a5,5,0,0,0,.18-1.44A4.39,4.39,0,0,0,70,23a1.94,1.94,0,0,0-.7-.91,2,2,0,0,0-1.08-.29h-.44Z"/><path d="M77.66,21.18v1.57H77a2.82,2.82,0,0,0-.28-.63.75.75,0,0,0-.27-.26,1,1,0,0,0-.53-.1H74.86v2.37h.64a.78.78,0,0,0,.34-.07.48.48,0,0,0,.2-.2,1.7,1.7,0,0,0,.15-.44h.56v2h-.56A1.49,1.49,0,0,0,76,25a.49.49,0,0,0-.19-.21.68.68,0,0,0-.35-.07h-.64v2.64h1.06a1.09,1.09,0,0,0,.28,0,.61.61,0,0,0,.39-.22,1,1,0,0,0,.15-.2,2,2,0,0,0,.14-.29,3.13,3.13,0,0,0,.16-.49h.67l-.09,1.8h-4.8v-.32a1.79,1.79,0,0,0,.29-.11.33.33,0,0,0,.15-.16.57.57,0,0,0,.07-.25c0-.11,0-.24,0-.4V22.42c0-.15,0-.28,0-.39a.76.76,0,0,0-.06-.25.41.41,0,0,0-.16-.16,1.18,1.18,0,0,0-.29-.11v-.33Z"/><path d="M83.72,28a2.65,2.65,0,0,1-2.15-.85,3.83,3.83,0,0,1-.72-2.54,4.49,4.49,0,0,1,.35-1.89,2.53,2.53,0,0,1,1-1.2,3.08,3.08,0,0,1,1.61-.41A2.71,2.71,0,0,1,86,22a3.72,3.72,0,0,1,.74,2.51,5.33,5.33,0,0,1-.22,1.6,2.93,2.93,0,0,1-.62,1.1,2.59,2.59,0,0,1-1,.63A3.77,3.77,0,0,1,83.72,28ZM82.4,24.47a5.45,5.45,0,0,0,.35,2.22,1.16,1.16,0,0,0,1.09.72,1,1,0,0,0,.64-.2,1.57,1.57,0,0,0,.42-.57,3.44,3.44,0,0,0,.24-.87,9.43,9.43,0,0,0,.07-1.11A7.57,7.57,0,0,0,85.06,23a2.22,2.22,0,0,0-.47-1,1,1,0,0,0-.79-.34,1.14,1.14,0,0,0-1.06.68A5.09,5.09,0,0,0,82.4,24.47Z"/><path d="M90.32,27.91H87.75v-.32a1.79,1.79,0,0,0,.29-.11.33.33,0,0,0,.15-.16.57.57,0,0,0,.07-.25c0-.11,0-.24,0-.4V22.42c0-.15,0-.28,0-.39a.76.76,0,0,0-.06-.25.41.41,0,0,0-.16-.16,1,1,0,0,0-.29-.11v-.33H90.6a5.46,5.46,0,0,1,1,.08,2.61,2.61,0,0,1,.7.25,1.35,1.35,0,0,1,.43.35,1.37,1.37,0,0,1,.27.49,1.81,1.81,0,0,1,.1.65,1.87,1.87,0,0,1-.17.82,1.62,1.62,0,0,1-.45.58,3.2,3.2,0,0,1-.77.43v.05a1.9,1.9,0,0,1,.6.42,2.87,2.87,0,0,1,.43.67l.31.67a2.61,2.61,0,0,0,.4.67.91.91,0,0,0,.48.28v.32H92a8.06,8.06,0,0,1-.64-1.17L91,25.9a3.06,3.06,0,0,0-.29-.54.68.68,0,0,0-.25-.21,1,1,0,0,0-.4-.06h-.28v1.58a3,3,0,0,0,0,.52.55.55,0,0,0,.13.24,1,1,0,0,0,.37.16Zm-.53-6.14v2.74h.48a1.73,1.73,0,0,0,.65-.11,1,1,0,0,0,.4-.29,1,1,0,0,0,.2-.45,2.47,2.47,0,0,0,.06-.56,1.44,1.44,0,0,0-.31-1,1.23,1.23,0,0,0-.93-.33Z"/><path d="M96.4,26.67c0,.12,0,.23,0,.33a1.5,1.5,0,0,0,0,.24.38.38,0,0,0,.09.15.61.61,0,0,0,.15.12l.24.08v.32H94.37v-.32a1.63,1.63,0,0,0,.28-.11.35.35,0,0,0,.16-.16.57.57,0,0,0,.07-.25c0-.11,0-.24,0-.4V22.42c0-.16,0-.29,0-.39a.76.76,0,0,0-.06-.25.41.41,0,0,0-.16-.16,1.18,1.18,0,0,0-.29-.11v-.33h2.56v.33a.92.92,0,0,0-.29.11.36.36,0,0,0-.15.15,1,1,0,0,0-.07.24,3.81,3.81,0,0,0,0,.41Z"/><path d="M103,21.36v1.4h-.67a2.39,2.39,0,0,0-.26-.63.93.93,0,0,0-.37-.34,1.39,1.39,0,0,0-.58-.11,1.33,1.33,0,0,0-.86.3,2,2,0,0,0-.58.95,5.19,5.19,0,0,0-.22,1.65,6.55,6.55,0,0,0,.15,1.5,2.29,2.29,0,0,0,.43,1,.92.92,0,0,0,.74.35.77.77,0,0,0,.63-.25,1.34,1.34,0,0,0,.2-.83v-.19a3.5,3.5,0,0,0,0-.53.77.77,0,0,0-.07-.24.44.44,0,0,0-.14-.13,1.63,1.63,0,0,0-.29-.11V24.8h2.5v.33a.71.71,0,0,0-.33.16.53.53,0,0,0-.12.25,1.73,1.73,0,0,0,0,.44v1.86l-.7.15-.33-.36a2.48,2.48,0,0,1-1.33.36,2.62,2.62,0,0,1-2.13-.84,3.9,3.9,0,0,1-.7-2.55A4.46,4.46,0,0,1,98.15,23a2.7,2.7,0,0,1,.69-1.11,2.62,2.62,0,0,1,1-.62,3.48,3.48,0,0,1,1.18-.2A7.17,7.17,0,0,1,103,21.36Z"/><path d="M109.17,21.18v1.57h-.67a2.49,2.49,0,0,0-.27-.63.75.75,0,0,0-.27-.26,1,1,0,0,0-.53-.1h-1.06v2.37H107a.78.78,0,0,0,.34-.07.48.48,0,0,0,.2-.2,2.19,2.19,0,0,0,.15-.44h.56v2h-.56a1.49,1.49,0,0,0-.15-.44.45.45,0,0,0-.2-.21.62.62,0,0,0-.34-.07h-.64v2.64h1.06a1.09,1.09,0,0,0,.28,0,.65.65,0,0,0,.21-.07,1.19,1.19,0,0,0,.18-.15,1,1,0,0,0,.15-.2,2,2,0,0,0,.14-.29,4.73,4.73,0,0,0,.16-.49h.67l-.09,1.8h-4.8v-.32a1.35,1.35,0,0,0,.28-.11.35.35,0,0,0,.16-.16.57.57,0,0,0,.07-.25c0-.11,0-.24,0-.4V22.42c0-.15,0-.28,0-.39a.76.76,0,0,0-.06-.25.41.41,0,0,0-.16-.16,1.18,1.18,0,0,0-.29-.11v-.33Z"/><path d="M116,21.18v.33a1.3,1.3,0,0,0-.27.11.38.38,0,0,0-.14.11.56.56,0,0,0-.08.23,2.54,2.54,0,0,0,0,.46v5.49h-1.24l-2.2-3.83q-.45-.78-.66-1.23h0c0,.71,0,1.46,0,2.24v1.59a2.1,2.1,0,0,0,0,.52.38.38,0,0,0,.13.23.87.87,0,0,0,.36.16v.32h-1.85v-.32a1.79,1.79,0,0,0,.29-.11.33.33,0,0,0,.15-.16.62.62,0,0,0,.07-.26c0-.1,0-.23,0-.38V22.41a3,3,0,0,0,0-.51.41.41,0,0,0-.13-.23.87.87,0,0,0-.36-.16v-.33h2l1.73,3,.42.78c.17.32.32.63.46.92h.07c0-.79,0-1.64,0-2.57v-.92a4.48,4.48,0,0,0,0-.46.51.51,0,0,0-.08-.22.33.33,0,0,0-.14-.12,1,1,0,0,0-.28-.11v-.33Z"/><path class="cls-1" d="M50.46,68.3c-.21.46-.4.85-.57,1.26C49.27,71,48.62,72.53,48,74c-.49,1.28-.95,2.57-1.35,3.88-.49,1.59-.92,3.19-1.34,4.8-.27,1.06-.48,2.14-.69,3.21a.39.39,0,0,0,.16.33c1,.34,2.09.68,3.15,1a1.91,1.91,0,0,0,.88.1c1.63-.33,3.25-.71,4.88-1a2,2,0,0,1,1,0c1.24.36,2.47.77,3.7,1.17a4.59,4.59,0,0,0,2.72.28c1.39-.38,2.82-.66,4.23-1a1.3,1.3,0,0,1,.65,0l4.49,1.4a2.82,2.82,0,0,0,1.1.27c1-.16,2-.43,2.94-.65l1.6-.31a.19.19,0,0,1-.08.13c-1.19.37-2.38.76-3.58,1.12a3.24,3.24,0,0,1-1.31.23c-1.41-.25-2.79-.63-4.2-.9a3,3,0,0,0-1.57-.17c-1.4.47-2.82.91-4.24,1.34a3.05,3.05,0,0,1-1.61.26c-1.4-.33-2.81-.65-4.23-1a2.85,2.85,0,0,0-1.25-.11c-1.68.47-3.33,1-5,1.54a1.48,1.48,0,0,1-.72.06c-1.4-.27-2.8-.57-4.26-.88,0,.27-.11.5-.14.73-.15,1.51-.36,3-.42,4.53-.08,1.94-.12,3.88,0,5.81a50.86,50.86,0,0,0,.68,5.51,45,45,0,0,0,1.09,4.7c.39,1.39.9,2.76,1.4,4.12.35,1,.75,1.9,1.18,2.82.3.66.71,1.28,1.07,1.92A40.43,40.43,0,0,0,54,126.47a34.85,34.85,0,0,0,8.43,6.92,31,31,0,0,0,5,2.32A23.38,23.38,0,0,0,72.64,137a43.58,43.58,0,0,0,4.7.39,26.94,26.94,0,0,0,6-.65,30,30,0,0,0,6.31-2.12,32.29,32.29,0,0,0,7-4.45,36.84,36.84,0,0,0,6.25-6.71,39.38,39.38,0,0,0,4.26-7.36c.31-.69.6-1.39.9-2.08.07-.17.08-.41.2-.49a7.64,7.64,0,0,0,.37-1,2,2,0,0,1,0-.24c.33-1.14.7-2.28,1-3.43a25.82,25.82,0,0,0,.64-2.84c.23-1.39.39-2.79.56-4.18a39.26,39.26,0,0,0,.13-7.43q-.22-2.94-.67-5.85c-.28-1.84-.64-3.67-1.06-5.48s-.86-3.36-1.42-5c-.82-2.43-1.74-4.83-2.64-7.23-.32-.86-.7-1.69-1-2.53-.13-.3-.24-.61-.39-.89-.45-.81-.93-1.59-1.36-2.41a57.58,57.58,0,0,0-5-7.87,37.84,37.84,0,0,0-9.21-8.91,20.86,20.86,0,0,0-8.91-3.48,16.77,16.77,0,0,0-6,.33,19.72,19.72,0,0,0-4.69,1.78,30.51,30.51,0,0,0-7.51,5.66,47.76,47.76,0,0,0-5.57,6.8,62.53,62.53,0,0,0-4.23,7.2c-.22.46-.46.9-.69,1.36m61.62,43.19c-.25.75-.44,1.54-.67,2.3s-.53,1.54-.83,2.29a45.58,45.58,0,0,1-2.88,5.92,42.93,42.93,0,0,1-5.13,7.07,37.24,37.24,0,0,1-7.09,6.18,34.2,34.2,0,0,1-7.12,3.65A35.25,35.25,0,0,1,83.1,140a30.21,30.21,0,0,1-5.76.55,31.12,31.12,0,0,1-4.2-.31,40.79,40.79,0,0,1-4.25-.8,29.47,29.47,0,0,1-3.29-1.09,34.29,34.29,0,0,1-8-4.38,38.1,38.1,0,0,1-6.17-5.67A41,41,0,0,1,46.3,121c-.4-.73-.7-1.53-1.11-2.26a30.39,30.39,0,0,1-2.5-6.08c-.44-1.4-.84-2.81-1.18-4.24-.29-1.22-.49-2.45-.68-3.69a46.47,46.47,0,0,1-.48-9.5c.11-2,.37-4,.57-6.07.08-.75.16-1.5.28-2.24s.27-1.3.42-2c.44-1.86.86-3.73,1.34-5.58.3-1.15.65-2.29,1-3.41.78-2.16,1.54-4.33,2.45-6.43s1.87-4,2.87-6a57,57,0,0,1,4.29-7,44.55,44.55,0,0,1,9.09-9.7,28,28,0,0,1,6.46-3.8,21.1,21.1,0,0,1,9-1.61,21.6,21.6,0,0,1,8.59,2.25A33.27,33.27,0,0,1,96.23,51a52.1,52.1,0,0,1,6.8,8.91c1,1.6,1.87,3.25,2.78,4.89.25.47.39,1,.62,1.49.33.67.74,1.3,1,2,.73,1.73,1.45,3.46,2.12,5.22.51,1.34,1,2.7,1.39,4.08.5,1.64.92,3.31,1.35,5q.38,1.47.66,3c.22,1.16.41,2.33.58,3.49s.31,2.27.41,3.4a47.75,47.75,0,0,1,.12,8.11c-.09,1.16-.17,2.33-.29,3.49-.08.75-.22,1.49-.36,2.23-.2,1.06-.43,2.12-.65,3.18,0,.13-.08.26-.17.52"/><rect class="cls-2" x="0.25" y="0.25" width="154" height="255.49" rx="9.73"/></g></g></svg>