<svg xmlns="http://www.w3.org/2000/svg" viewBox="0 0 154.5 253.5"><defs><style>.cls-1{font-size:11.03px;font-family:Cambria-Bold, Cambria;font-weight:700;}.cls-2{letter-spacing:0.01em;}.cls-3{fill:none;stroke:#000;stroke-miterlimit:10;stroke-width:0.5px;}.cls-4{fill:#2d9c49;}.cls-5{fill:#fff;}</style></defs><g id="Capa_2" data-name="Capa 2"><g id="Capa_1-2" data-name="Capa 1"><text class="cls-1" transform="translate(60.97 31.74)">TE<tspan class="cls-2" x="13.42" y="0">M</tspan><tspan x="22.85" y="0">A </tspan></text><rect class="cls-3" x="0.25" y="0.25" width="154" height="253" rx="9.78"/><path class="cls-4" d="M117.83,208.86a164,164,0,0,1-5.93-20c-2.58-11.3-2.21-24,3.22-31.35,0,0,38.38-44.09,4.36-78.35C90.94,50.39,50.24,66.52,36.83,85.7c0,0-10.15,16.37-5.1,29.37,0,0,1.18,3.85.51,5.91-1.1,3.4-18.81,17.22-9.79,21.08s4.64,6.16,4.64,6.16-3.16,2.67.62,4.9c0,0-1.55,2.74.17,4.28S31,160,30.63,167s4.47,10.45,10.31,10.11,29-4.45,19.76,31.76Z"/><path class="cls-5" d="M77.54,126h10v10.16h-10Zm5.79-20.51A21.47,21.47,0,0,0,88,101a8.79,8.79,0,0,0,1.92-5.2,7.8,7.8,0,0,0-2.4-6.2,8.34,8.34,0,0,0-5.74-1.91A8.63,8.63,0,0,0,74.86,91a12.46,12.46,0,0,0-2.73,8.3l-9.28-1.57a17.72,17.72,0,0,1,5.86-13.24,19.81,19.81,0,0,1,14.19-5.6,18.27,18.27,0,0,1,13.11,5,15,15,0,0,1,5,11.26,14.62,14.62,0,0,1-1.58,6.72,19,19,0,0,1-3.74,4.91,45.38,45.38,0,0,1-4.35,3.68c-1.15.76-2.3,1.52-3.44,2.29a4.63,4.63,0,0,0-1.58,3.76l-.2,3.15H78.21l-.29-4.67A10.1,10.1,0,0,1,79.74,109a14.2,14.2,0,0,1,3.59-3.53"/></g></g></svg>