<svg xmlns="http://www.w3.org/2000/svg" viewBox="0 0 154.5 253.5"><defs><style>.cls-1{font-size:11.03px;font-family:Cambria-Bold, Cambria;font-weight:700;}.cls-2{letter-spacing:0.01em;}.cls-3{fill:none;stroke:#000;stroke-miterlimit:10;stroke-width:0.5px;}.cls-4{fill:#227537;}.cls-5{fill:#38c25b;}</style></defs><g id="Capa_2" data-name="Capa 2"><g id="Capa_1-2" data-name="Capa 1"><text class="cls-1" transform="translate(6.31 31.74)">TE<tspan class="cls-2" x="13.42" y="0">M</tspan><tspan x="22.85" y="0">A: TRABAJO EN EQUIPO</tspan></text><rect class="cls-3" x="0.25" y="0.25" width="154" height="253" rx="9.78"/><path class="cls-4" d="M65.09,126.69A11.46,11.46,0,1,0,76.55,115.2a11.47,11.47,0,0,0-11.46,11.49"/><path class="cls-4" d="M97.78,141.94l-10.44-3.22s-11.86,6.05-22.25-.46l-10.75,3.25s-10.75,26.72-6.22,34.81c0,0,8.28,1,9.17-3.48s.73-12.42.73-12.42l4.57-7.87-5.75,51.1H72.31l.89-31.16h4.08l1.22,31.16H93.38l-4.89-50.73,1.87,1.49,3.74,6.46s-.15,8,.73,12.41,9.17,3.48,9.17,3.48c4.53-8.09-6.22-34.82-6.22-34.82"/><path class="cls-5" d="M27.53,116.49A11.46,11.46,0,1,0,39,105a11.48,11.48,0,0,0-11.45,11.49"/><path class="cls-5" d="M104,116.49A11.46,11.46,0,1,0,115.44,105,11.48,11.48,0,0,0,104,116.49"/><path class="cls-5" d="M54.29,177.67c-2.62,2.79-9.45.22-9.45.22-5.06-9,7-38.9,7-38.9l10-3c-.92-2.58-1.58-4.22-1.58-4.22l-10.44-3.22s-11.85,6.05-22.24-.46l-10.76,3.25S6,158,10.55,166.13c0,0,8.29,1,9.17-3.49s.74-12.42.74-12.42L25,142.38,19.28,193.5H34.75l.88-31.16h4.09l1.21,31.16H55.81Z"/><path class="cls-5" d="M95.41,193.5H111.2l.89-31.16h4.08l1.22,31.16h14.88l-4.89-50.76,1.87,1.48,3.74,6.46s-.15,8,.73,12.41,9.17,3.48,9.17,3.48c4.53-8.09-6.22-34.82-6.22-34.82l-10.44-3.22s-11.86,6-22.25-.46l-10.75,3.25s-.85,2.12-2,5.34l9.07,2.8s.44,1.09,1.12,2.93l0-.08,0,.15c2.88,7.79,9.89,28.61,5.81,35.89,0,0-7.51,2.89-9.88-.32"/><polygon class="cls-5" points="26.87 85.11 28.68 74.06 36.33 82.23 47.38 80.54 41.99 90.36 47.01 100.38 36.03 98.28 28.09 106.15 26.69 95.03 16.76 89.89 26.87 85.11"/><polygon class="cls-4" points="67.56 70.59 73.24 57.63 80.04 70.04 94.08 71.45 84.42 81.78 87.41 95.61 74.64 89.58 62.45 96.71 64.22 82.67 53.69 73.24 67.56 70.59"/><polygon class="cls-5" points="105.93 85.33 110.74 81 111.24 87.47 116.83 90.72 110.85 93.19 109.5 99.53 105.31 94.59 98.88 95.26 102.26 89.73 99.65 83.81 105.93 85.33"/><polygon class="cls-5" points="127.98 97.84 131.66 96.01 130.87 100.05 133.74 103 129.66 103.49 127.76 107.14 126.03 103.41 121.98 102.72 124.99 99.91 124.39 95.83 127.98 97.84"/></g></g></svg>