<svg xmlns="http://www.w3.org/2000/svg" viewBox="0 0 154.5 253.5"><defs><style>.cls-1{font-size:11.03px;font-family:Cambria-Bold, Cambria;font-weight:700;}.cls-2{letter-spacing:0.01em;}.cls-3{letter-spacing:-0.01em;}.cls-4{fill:none;stroke:#000;stroke-miterlimit:10;stroke-width:0.5px;}.cls-5{fill:#227537;}</style></defs><g id="Capa_2" data-name="Capa 2"><g id="Capa_1-2" data-name="Capa 1"><text class="cls-1" transform="translate(30.2 31.74)">TE<tspan class="cls-2" x="13.42" y="0">M</tspan><tspan x="22.85" y="0">A: CONFLI</tspan><tspan class="cls-3" x="73.05" y="0">CT</tspan><tspan x="86.14" y="0">O</tspan></text><rect class="cls-4" x="0.25" y="0.25" width="154" height="253" rx="9.78"/><path class="cls-5" d="M98.28,102.88A7.28,7.28,0,0,0,91,95.5a7.41,7.41,0,0,0-7.34,7A7.29,7.29,0,0,0,91,110.25a7.19,7.19,0,0,0,7.31-7.37m-84,7.74A7.33,7.33,0,0,0,14.76,96a7.34,7.34,0,1,0-.53,14.65m9.29,42.52c.21.34.27.43.34.53,3.29,4.79,6.6,9.58,9.88,14.39a4.57,4.57,0,0,1,.86,1.79c.53,3.52,1,7,1.44,10.56.52,3.86,1.09,7.72,1.58,11.59a3.83,3.83,0,0,0,3.7,3.43,3.5,3.5,0,0,0,3.45-3.69c-.37-3.92-.92-7.82-1.43-11.72-.41-3.18-.84-6.36-1.33-9.53-.26-1.75-.19-3.57-1.3-5.16-4.69-6.72-9.29-13.5-14-20.2-1.27-1.8-1-3.77-1.28-5.69,1.13,1.11,2.17,2.24,3.17,3.4,2.85,3.28,5.66,6.6,8.54,9.85a3,3,0,0,0,4.4.34,3.09,3.09,0,0,0,0-4.44c-2.74-3.17-5.54-6.29-8.26-9.48a20.65,20.65,0,0,1-3-4.05c-1-2.08-1.67-4.33-2.49-6.51-1.43-3.8-2.87-7.59-4.31-11.4.24-.14.4-.25.57-.33l16-7.21c2.58-1.16,5.16-2.31,7.72-3.5,2.35-1.1,2.68-3.77.64-5.28-1.2-.89-2.45-.52-3.69,0q-13.08,5.94-26.17,11.85a2.33,2.33,0,0,1-1.28.24c-3.44-.58-6.91,2.2-6.85,5.42a90.25,90.25,0,0,0,.91,9.12c.48,3.72,1.07,7.41,1.57,11.12s.74,7.31,1.47,10.89c1.34,6.56,3,13.05,4.44,19.59.25,1.1.74,2.16.3,3.43-2.21,6.44-4.33,12.9-6.45,19.37a3.11,3.11,0,0,0-.11,1.57,3.57,3.57,0,0,0,3.24,2.91,3.52,3.52,0,0,0,3.81-2.66c2-5.85,3.74-11.76,5.89-17.54a14.09,14.09,0,0,0,.49-8.63c-1.05-4.41-1.78-8.88-2.63-13.33a3.87,3.87,0,0,1,.21-1.08m64.17.5a33.52,33.52,0,0,0,3.7.37,1.33,1.33,0,0,1,1.53,1.11q1.71,5.69,3.51,11.34c1,3.08,1.66,6.32,3.1,9.17,3.34,6.57,7,13,10.63,19.41a3.52,3.52,0,0,0,5,1.56,3.59,3.59,0,0,0,1.31-5.06c-2.44-4.46-4.91-8.9-7.34-13.36a46.31,46.31,0,0,1-3.4-6.6c-2.31-6.77-4.38-13.61-6.52-20.44A19.34,19.34,0,0,1,97.85,146c-.13-8.83-.06-17.66-.06-26.49V118.4a15.5,15.5,0,0,0,2.8-.28c5.23-1.49,10.46-3,15.66-4.62a4,4,0,0,0,1.9-1.49c3.11-4.5,6.14-9.06,9.22-13.59a1.29,1.29,0,0,1,.83-.58,4.63,4.63,0,0,0,3.35-1.53,1.06,1.06,0,0,1,1.38-.25c1.28.48,2.58.94,3.87,1.39,1.13.4,2.27.77,3.42,1.17l6.35-18.07L120.1,71.23q-3.19,9-6.36,18.07l6.9,2.48a2.82,2.82,0,0,1,1.3,3.84c-2.62,3.91-5.23,7.82-7.88,11.7a2.81,2.81,0,0,1-1.32.91c-1.39.5-2.81.94-4.24,1.32-4.85,1.29-9.54,3.41-14.75,2.79a.41.41,0,0,0-.22,0c-.17.08-.43.14-.47.27a9.86,9.86,0,0,0-.81,3c.08,2.36.43,4.71.68,7.07.29,2.74.6,5.48.86,8.23.08.93.37,2.05,0,2.79A26.74,26.74,0,0,1,91,137.46c-1-1.29-1.93-2.48-2.83-3.71a1.37,1.37,0,0,1-.09-.84c.23-2.63.46-5.27.72-7.9.24-2.4.49-4.8.79-7.2a7.57,7.57,0,0,0-.39-4.67,1.24,1.24,0,0,0-1.29-.82c-1.74,0-3.47,0-5.21,0a3.07,3.07,0,0,0-3.16,2.13c-2.12,5.07-4.31,10.11-6.39,15.19a17.1,17.1,0,0,0-1.21,4.24c-.32,2.4-.37,4.83-.54,7.25-.21,3.18-.48,6.36-.63,9.54a2.89,2.89,0,0,0,2.69,3.13,3,3,0,0,0,3.28-2.7c.22-2.37.34-4.76.48-7.14.17-2.87.3-5.75.49-8.63a7.24,7.24,0,0,1,.46-2.11c1.06-2.62,2.17-5.21,3.27-7.81l2.64-6.16c.06.42.09.53.09.64q0,11.79,0,23.6a3.5,3.5,0,0,1-.32,1.3q-5.15,11.25-10.31,22.49a11,11,0,0,0-1.43,4.65c0,1.88-.33,3.75-.51,5.62l-.84,8.81c-.19,2-.29,4-.58,6a3.82,3.82,0,0,0,2.77,4.17,3.51,3.51,0,0,0,4.27-2.86c.31-2.54.49-5.1.73-7.65.38-4,.72-7.94,1.17-11.9a14.14,14.14,0,0,1,.93-3.74c1-2.36,2.11-4.65,3.18-7,1.53-3.33,3-6.65,4.5-9.83"/><path class="cls-5" d="M130.94,95.42l-2.34-.85V96.7l2.34-1.28M87.69,153.64c-1.45,3.18-3,6.5-4.5,9.83-1.07,2.32-2.21,4.61-3.18,7a14.14,14.14,0,0,0-.93,3.74c-.45,4-.79,7.93-1.17,11.9-.24,2.55-.42,5.11-.73,7.65a3.51,3.51,0,0,1-4.27,2.86,3.82,3.82,0,0,1-2.77-4.17c.29-2,.39-4,.58-6l.84-8.81c.18-1.87.5-3.74.51-5.62a11,11,0,0,1,1.43-4.65Q78.65,156,83.81,144.8a3.5,3.5,0,0,0,.32-1.3q0-11.81,0-23.6c0-.11,0-.22-.09-.64l-2.64,6.16c-1.1,2.6-2.21,5.19-3.27,7.81a7.24,7.24,0,0,0-.46,2.11c-.19,2.88-.32,5.76-.49,8.63-.14,2.38-.26,4.77-.48,7.14a3,3,0,0,1-3.28,2.7,2.89,2.89,0,0,1-2.69-3.13c.15-3.18.42-6.36.63-9.54.17-2.42.22-4.85.54-7.25a17.1,17.1,0,0,1,1.21-4.24c2.08-5.08,4.27-10.12,6.39-15.19a3.07,3.07,0,0,1,3.16-2.13c1.74,0,3.47,0,5.21,0a1.24,1.24,0,0,1,1.29.82,7.57,7.57,0,0,1,.39,4.67c-.3,2.4-.55,4.8-.79,7.2-.26,2.63-.49,5.27-.72,7.9a1.37,1.37,0,0,0,.09.84C89,135,90,136.17,91,137.46a26.74,26.74,0,0,0,2.81-3.75c.38-.74.09-1.86,0-2.79-.26-2.75-.57-5.49-.86-8.23-.25-2.36-.6-4.71-.68-7.07a9.86,9.86,0,0,1,.81-3c0-.13.3-.19.47-.27a.41.41,0,0,1,.22,0c5.21.62,9.9-1.5,14.75-2.79,1.43-.38,2.85-.82,4.24-1.32a2.81,2.81,0,0,0,1.32-.91c2.65-3.88,5.26-7.79,7.88-11.7a2.82,2.82,0,0,0-1.3-3.84l-6.9-2.48q3.18-9,6.36-18.07l26.47,9.32-6.35,18.07c-1.15-.4-2.29-.77-3.42-1.17-1.29-.45-2.59-.91-3.87-1.39a1.06,1.06,0,0,0-1.38.25,4.63,4.63,0,0,1-3.35,1.53,1.29,1.29,0,0,0-.83.58c-3.08,4.53-6.11,9.09-9.22,13.59a4,4,0,0,1-1.9,1.49c-5.2,1.61-10.43,3.13-15.66,4.62a15.5,15.5,0,0,1-2.8.28v1.09c0,8.83-.07,17.66.06,26.49a19.34,19.34,0,0,0,1.33,5.16c2.14,6.83,4.21,13.67,6.52,20.44a46.31,46.31,0,0,0,3.4,6.6c2.43,4.46,4.9,8.9,7.34,13.36a3.59,3.59,0,0,1-1.31,5.06,3.52,3.52,0,0,1-5-1.56c-3.58-6.45-7.29-12.84-10.63-19.41-1.44-2.85-2.12-6.09-3.1-9.17q-1.8-5.66-3.51-11.34A1.33,1.33,0,0,0,91.39,154a33.52,33.52,0,0,1-3.7-.37"/><path class="cls-5" d="M23.71,137.54c.46-1.09.8-2.06,1.27-3a3.55,3.55,0,0,0,.22-2.7c-.8-3.09-1.44-6.21-2.17-9.32-.36-1.54-.78-3.07-1.17-4.62-2.06.72-2.08.72-2,2.7,0,1,.17,2,.22,3,.17,2.92.27,5.84.51,8.75a6,6,0,0,0,.89,2.51,23.77,23.77,0,0,0,2.27,2.67m-.19,15.6a3.87,3.87,0,0,0-.21,1.08c.85,4.45,1.58,8.92,2.63,13.33a14.16,14.16,0,0,1-.48,8.63c-2.16,5.78-3.95,11.69-5.9,17.54a3.52,3.52,0,0,1-3.81,2.66,3.57,3.57,0,0,1-3.24-2.91,3.11,3.11,0,0,1,.11-1.57c2.12-6.47,4.24-12.93,6.45-19.37.44-1.27-.05-2.33-.3-3.43-1.46-6.54-3.1-13-4.44-19.59-.73-3.58-1-7.26-1.47-10.89s-1.09-7.4-1.57-11.12a90.25,90.25,0,0,1-.91-9.12c-.06-3.22,3.41-6,6.85-5.42a2.41,2.41,0,0,0,1.28-.23q13.09-5.91,26.17-11.86c1.24-.56,2.49-.93,3.69,0,2,1.51,1.71,4.18-.64,5.28-2.56,1.19-5.14,2.34-7.72,3.5l-15.95,7.21c-.17.08-.33.19-.57.33l4.32,11.4c.81,2.18,1.46,4.43,2.48,6.51a20.65,20.65,0,0,0,3,4.05c2.72,3.19,5.52,6.31,8.26,9.48a3.09,3.09,0,0,1,0,4.44,3,3,0,0,1-4.4-.34c-2.88-3.25-5.69-6.57-8.54-9.85-1-1.16-2-2.29-3.17-3.4.33,1.92,0,3.89,1.28,5.69,4.73,6.7,9.33,13.48,14,20.2,1.11,1.59,1,3.41,1.3,5.16.49,3.17.92,6.35,1.33,9.53.51,3.9,1.06,7.8,1.43,11.72a3.5,3.5,0,0,1-3.45,3.69,3.83,3.83,0,0,1-3.7-3.43c-.49-3.87-1.06-7.73-1.58-11.59-.48-3.52-.91-7-1.44-10.56a4.57,4.57,0,0,0-.86-1.79c-3.28-4.81-6.59-9.6-9.88-14.39-.07-.1-.13-.19-.34-.53"/><path class="cls-5" d="M14.23,110.62A7.34,7.34,0,1,1,14.76,96a7.33,7.33,0,0,1-.53,14.65"/><path class="cls-5" d="M98.27,102.88a7.17,7.17,0,0,1-7.3,7.37,7.31,7.31,0,0,1-7.33-7.73,7.42,7.42,0,0,1,7.35-7,7.27,7.27,0,0,1,7.28,7.38"/><path class="cls-5" d="M130.94,95.42l-2.34,1.27V94.57l2.34.85"/><path class="cls-5" d="M23.71,137.54a23.77,23.77,0,0,1-2.27-2.67,6,6,0,0,1-.89-2.51c-.24-2.91-.34-5.83-.51-8.75-.06-1-.19-2-.22-3,0-2,0-2,2-2.7.39,1.55.81,3.08,1.17,4.62.72,3.11,1.37,6.23,2.17,9.32a3.55,3.55,0,0,1-.22,2.7c-.47.91-.81,1.88-1.27,3"/></g></g></svg>