<svg xmlns="http://www.w3.org/2000/svg" viewBox="0 0 154.5 253.5"><defs><style>.cls-1{font-size:11.03px;font-family:Cambria-Bold, Cambria;font-weight:700;}.cls-2{letter-spacing:0.01em;}.cls-3{letter-spacing:-0.01em;}.cls-4{fill:none;stroke:#000;stroke-miterlimit:10;stroke-width:0.5px;}.cls-5{fill:#38c25b;}.cls-6{fill:#227537;}.cls-7{fill:#fff;}</style></defs><g id="Capa_2" data-name="Capa 2"><g id="Capa_1-2" data-name="Capa 1"><text class="cls-1" transform="translate(33.91 31.74)">TE<tspan class="cls-2" x="13.42" y="0">M</tspan><tspan x="22.85" y="0">A: LIDERA</tspan><tspan class="cls-3" x="74.12" y="0">Z</tspan><tspan x="80.25" y="0">GO</tspan></text><rect class="cls-4" x="0.25" y="0.25" width="154" height="253" rx="9.78"/><path class="cls-5" d="M31,123.15v-3.62a7.2,7.2,0,0,1,7.19-7.19h2.07A9,9,0,1,0,31,123.15"/><path class="cls-5" d="M39.43,196.65v-31H38.15a7.2,7.2,0,0,1-7.19-7.2V126.1H17.3a3.84,3.84,0,0,0-3.83,3.84v34a3.84,3.84,0,0,0,3.83,3.84h3.19V146.48a5.42,5.42,0,0,1,.38-2v52.86c0,2.67,1.86,4.83,4.17,4.83h6.21V164h.38v38.23h6.19a3.86,3.86,0,0,0,2.73-1.2,8.8,8.8,0,0,1-1.12-4.33"/><path class="cls-5" d="M122.49,123.15v-3.62a7.21,7.21,0,0,0-7.2-7.19h-2.07a9,9,0,1,1,9.27,10.81"/><path class="cls-5" d="M114,196.65v-31h1.27a7.21,7.21,0,0,0,7.2-7.2V126.1h13.65a3.85,3.85,0,0,1,3.84,3.84v34a3.85,3.85,0,0,1-3.84,3.84H133V146.48a5.42,5.42,0,0,0-.38-2v52.86c0,2.67-1.87,4.83-4.18,4.83h-6.2V164h-.38v38.23h-6.19a3.83,3.83,0,0,1-2.73-1.2,8.91,8.91,0,0,0,1.12-4.33"/><path class="cls-5" d="M59.7,109.49,47.35,93.79A10.27,10.27,0,0,0,59.7,110.13Z"/><path class="cls-5" d="M59.7,195.62V115.13H38a4.4,4.4,0,0,0-4.4,4.4v38.91a4.4,4.4,0,0,0,4.4,4.4h3.62V138.45a6.18,6.18,0,0,1,.44-2.29v60.5c0,3.05,2.15,5.52,4.79,5.52H53.9V158.44h.44v43.74h7.09a4.05,4.05,0,0,0,.7-.07,9.67,9.67,0,0,1-2.43-6.49"/><path class="cls-5" d="M106.09,93.79,93.74,109.5v.63a10.27,10.27,0,0,0,12.35-16.34"/><path class="cls-5" d="M115.48,115.14H93.74v80.48a9.67,9.67,0,0,1-2.43,6.49,4.15,4.15,0,0,0,.7.07H99.1V158.44h.43v43.74h7.09c2.65,0,4.79-2.47,4.79-5.52v-60.5a6.14,6.14,0,0,1,.43,2.29v24.39h3.64a4.4,4.4,0,0,0,4.39-4.4V119.53a4.39,4.39,0,0,0-4.39-4.39"/><path class="cls-6" d="M88.94,82.55A12.22,12.22,0,1,1,76.72,70.34,12.22,12.22,0,0,1,88.94,82.55"/><path class="cls-6" d="M118.42,65.36a5,5,0,0,0-3.31-.65A6.42,6.42,0,0,0,111.78,67C101,80.68,95.33,87.9,86.8,98.75H66.64l-26-33a3.8,3.8,0,0,0-3.87-1.17,5.29,5.29,0,0,0-1.76.83,5.22,5.22,0,0,0-.88,7.34l28.2,35.87v87.05c0,3.63,2.55,6.56,5.7,6.56h8.41v-52H77v52H85.4c3.14,0,5.69-2.93,5.69-6.56V109.28h0v-.71L119.3,72.7a5.23,5.23,0,0,0-.88-7.34"/><polygon class="cls-7" points="78.33 106.24 75.11 106.24 74.69 102.18 78.75 102.18 78.33 106.24"/><polygon class="cls-7" points="79.18 130.79 76.69 133.11 74.27 130.79 75.11 110.31 78.34 110.31 79.18 130.79"/></g></g></svg>