<svg xmlns="http://www.w3.org/2000/svg" viewBox="0 0 154.5 253.5"><defs><style>.cls-1{font-size:11.03px;font-family:Cambria-Bold, Cambria;font-weight:700;}.cls-2{letter-spacing:0.01em;}.cls-3{letter-spacing:-0.04em;}.cls-4{letter-spacing:-0.01em;}.cls-5{fill:none;stroke:#000;stroke-miterlimit:10;stroke-width:0.5px;}.cls-6{fill:#00b2a2;}.cls-7{fill:#227537;}.cls-8{fill:#38c25b;}</style></defs><g id="Capa_2" data-name="Capa 2"><g id="Capa_1-2" data-name="Capa 1"><text class="cls-1" transform="translate(35.97 31.74)">TE<tspan class="cls-2" x="13.42" y="0">M</tspan><tspan x="22.85" y="0">A: </tspan><tspan class="cls-3" x="35.55" y="0">V</tspan><tspan x="42.15" y="0">A</tspan><tspan class="cls-4" x="49.34" y="0">L</tspan><tspan x="55.3" y="0">ORES</tspan></text><rect class="cls-5" x="0.25" y="0.25" width="154" height="253" rx="9.78"/><path class="cls-6" d="M77.23,116.92c-.59-.63-1-1.14-1.51-1.63a11.93,11.93,0,0,0-14.54-2.17c-4.13,2.4-6.81,8.72-5.92,13.83a26,26,0,0,0,4.68,10.64c4.4,6.21,10.22,10.95,16.42,15.25a1.89,1.89,0,0,0,1.7,0c6.58-4.71,12.93-9.66,17.25-16.73,2.75-4.5,4.44-9.36,3.52-14.58-1.29-7.36-7.21-11.28-14.77-9.53-2.89.67-4.8,2.7-6.83,4.89m65.3-25.16-12-19.51c-.63.3-1.09.49-1.53.73-6.57,3.57-13.12,7.17-19.73,10.67a5,5,0,0,1-3,.55c-4.34-.83-8.64-1.86-13-2.82-7.25-1.6-14.47-3.38-21.76-4.76-4.61-.87-8.82,0-12.16,4-5.92,7-12.08,13.77-18.14,20.64-4.93,5.59-9.88,11.17-14.77,16.79a7.11,7.11,0,0,0-1.81,5.84,6.25,6.25,0,0,0,4.69,5.5c3.09.86,6.22.93,8.86-1.34,6.22-5.32,12.39-10.69,18.59-16,2.3-2,4.62-4,7.1-6.11l-.87-.33c-3.72-1.26-6.09-4.81-5.49-8.22.75-4.2,3.9-7.07,8-6.85a61.52,61.52,0,0,1,8,1.32c4.81.93,9.62,1.92,14.39,2.87.16,1.53-.56,1.82-1.75,1.58l-19.33-3.9a6.07,6.07,0,0,0-7.3,4.73,5.89,5.89,0,0,0,4.55,7c3.43.77,6.89,1.41,10.34,2.1,7.34,1.46,14.7,2.79,22,4.42a21.76,21.76,0,0,0,12-.76c7.77-2.65,14.89-6.67,22-10.76,4-2.33,7.95-4.79,12-7.26m-53,64.73c4.07,1.28,6.52,4.08,6.42,7.44s-1.58,6.61-6,7.64c-2,.48-4.37,0-6.51-.34-6-1.09-12-2.36-18-3.56-.2-1.64.64-1.8,1.86-1.55q9.66,2,19.33,3.93a6.2,6.2,0,0,0,7.16-4.58,6,6,0,0,0-4.51-7.16c-3.43-.78-6.88-1.43-10.33-2.11-7.29-1.43-14.63-2.63-21.85-4.34a22.9,22.9,0,0,0-13.78,1.25C34,156.64,25.45,161.72,17,166.85c-2,1.22-4,2.51-6,3.79l12,19.46c.7-.35,1.16-.57,1.61-.81,6.56-3.57,13.1-7.17,19.7-10.67a4.67,4.67,0,0,1,2.9-.5c4.45.87,8.86,1.92,13.29,2.9,7.13,1.59,14.24,3.34,21.42,4.69,4.53.84,8.74.1,12.07-3.78,6.85-8,13.9-15.82,20.86-23.72,4-4.52,7.91-9.11,12-13.58a7.86,7.86,0,0,0-.22-10.91c-2.62-2.45-8-2.26-11.14.43q-9.66,8.37-19.36,16.72l-6.46,5.62"/><path class="cls-7" d="M89.5,156.49,96,150.87q9.69-8.35,19.36-16.72c3.11-2.69,8.52-2.88,11.14-.43a7.86,7.86,0,0,1,.22,10.91c-4.05,4.47-8,9.06-12,13.58-7,7.9-14,15.73-20.86,23.72-3.33,3.88-7.54,4.62-12.07,3.78-7.18-1.35-14.29-3.1-21.42-4.69-4.43-1-8.84-2-13.29-2.9a4.67,4.67,0,0,0-2.9.5c-6.6,3.5-13.14,7.1-19.7,10.67-.45.24-.91.46-1.61.81l-12-19.46c2-1.28,4-2.57,6-3.79,8.49-5.13,17-10.21,26.34-13.74a22.9,22.9,0,0,1,13.78-1.25c7.22,1.71,14.56,2.91,21.85,4.34,3.45.68,6.9,1.33,10.33,2.11a6,6,0,0,1,4.51,7.16,6.2,6.2,0,0,1-7.16,4.58q-9.67-2-19.33-3.93c-1.22-.25-2.06-.09-1.86,1.55,6,1.2,12,2.47,18,3.56,2.14.38,4.48.82,6.51.34,4.45-1,5.93-4.26,6-7.64s-2.35-6.16-6.42-7.44"/><path class="cls-7" d="M142.53,91.76c-4.09,2.47-8,4.93-12,7.26-7.06,4.09-14.18,8.11-22,10.76a21.76,21.76,0,0,1-12,.76c-7.3-1.63-14.66-3-22-4.42-3.45-.69-6.91-1.33-10.34-2.1a5.89,5.89,0,0,1-4.55-7,6.08,6.08,0,0,1,7.31-4.73q9.66,2,19.32,3.9c1.19.24,1.91,0,1.75-1.58-4.77-1-9.58-1.94-14.39-2.87a61.52,61.52,0,0,0-8-1.32c-4.13-.22-7.28,2.65-8,6.85-.6,3.41,1.77,7,5.49,8.22l.87.33C61.42,108,59.1,110,56.8,112c-6.2,5.34-12.37,10.71-18.59,16-2.64,2.27-5.77,2.2-8.86,1.34a6.24,6.24,0,0,1-4.69-5.5A7.12,7.12,0,0,1,26.47,118c4.89-5.62,9.84-11.2,14.77-16.79,6.06-6.87,12.22-13.65,18.14-20.64,3.34-3.94,7.55-4.83,12.16-4C78.83,78,86.05,79.78,93.3,81.38c4.31,1,8.62,2,13,2.82a5,5,0,0,0,3-.55c6.61-3.5,13.16-7.1,19.73-10.67.44-.24.9-.43,1.53-.73,4,6.5,7.92,12.91,12,19.51"/><path class="cls-8" d="M77.23,116.92c2-2.19,3.94-4.22,6.83-4.89,7.56-1.75,13.48,2.17,14.77,9.53.92,5.22-.77,10.08-3.52,14.58-4.31,7.07-10.67,12-17.25,16.73a1.89,1.89,0,0,1-1.7,0c-6.2-4.3-12-9-16.42-15.25A26,26,0,0,1,55.26,127c-.89-5.11,1.79-11.43,5.92-13.83a11.93,11.93,0,0,1,14.54,2.17c.47.49.92,1,1.51,1.63"/></g></g></svg>