<svg xmlns="http://www.w3.org/2000/svg" viewBox="0 0 154.5 253.5"><defs><style>.cls-1{font-size:11.03px;font-family:Cambria-Bold, Cambria;font-weight:700;}.cls-2{letter-spacing:0.01em;}.cls-3{letter-spacing:-0.01em;}.cls-4{letter-spacing:-0.04em;}.cls-5{letter-spacing:0em;}.cls-6{fill:none;stroke:#000;stroke-miterlimit:10;stroke-width:0.5px;}.cls-7{fill:#283b8b;}.cls-8{fill:#227537;}.cls-9{fill:#38c25b;}</style></defs><g id="Capa_2" data-name="Capa 2"><g id="Capa_1-2" data-name="Capa 1"><text class="cls-1" transform="translate(25.88 32.23)">TE<tspan class="cls-2" x="13.42" y="0">M</tspan><tspan x="22.85" y="0">A: M</tspan><tspan class="cls-3" x="44.89" y="0">O</tspan><tspan x="52.42" y="0">TI</tspan><tspan class="cls-4" x="63.33" y="0">V</tspan><tspan class="cls-5" x="69.93" y="0">A</tspan><tspan x="77.07" y="0">CIÓN</tspan></text><rect class="cls-6" x="0.25" y="0.25" width="154" height="253" rx="9.78"/><path class="cls-7" d="M76.92,140.72a9.21,9.21,0,0,0,.81-2.51c0-1.77-.27-3.54-.39-5.31-.06-.89-.42-1.12-1.19-.77-.16,1.58-.34,3.1-.45,4.62-.08,1.33-.36,2.73,1.22,4M123.29,85.6A13,13,0,0,0,121.48,87c-1.79,2.06-3.53,4.18-5.29,6.28l-5,6.06a1.59,1.59,0,0,0-.09,2.22,2.76,2.76,0,0,0,1.93.72c.47,0,1-.63,1.36-1.08,1.5-1.71,3-3.45,4.42-5.19q3-3.55,5.92-7.14a1.49,1.49,0,0,0,.21-2,9.09,9.09,0,0,0-1.61-1.36M52.1,73.31A1.89,1.89,0,0,0,50.27,76c.29.91.65,1.79,1,2.69,1.57,4.26,3.12,8.53,4.71,12.79a1.74,1.74,0,0,0,2.33,1.22,1.82,1.82,0,0,0,1.08-2.49c-.71-2-1.44-4-2.16-6C56.08,81.1,54.94,78,53.83,75a2.15,2.15,0,0,0-1.73-1.64M30.26,85.8a7.18,7.18,0,0,0-1.06.41c-1.14.73-1.19,1.93-.18,3.1C30.5,91,32,92.78,33.43,94.52c2,2.37,4,4.76,6,7.1a1.79,1.79,0,0,0,2.7.38,1.9,1.9,0,0,0,0-2.81C38.64,95,35.17,90.82,31.65,86.67a5.07,5.07,0,0,0-1.39-.87m73.25-10.91a6.46,6.46,0,0,0-1.34-1.37c-1.1-.59-2.07,0-2.65,1.62q-2.7,7.39-5.36,14.8A2.66,2.66,0,0,0,94,91.27a1.77,1.77,0,0,0,1.7,1.5c1.18.08,1.67-.75,2-1.69L102,79.35c.5-1.39,1-2.79,1.54-4.46M78.62,79.31h0c0-2.67,0-5.35,0-8,0-1.43-.68-2.25-1.83-2.26s-2,.77-2,2.16c0,5.36,0,10.71,0,16.07a2.06,2.06,0,0,0,.57,1.51,2.75,2.75,0,0,0,1.92.49,1.86,1.86,0,0,0,1.27-2c0-2.64,0-5.28,0-7.93m-2,48.44a7.62,7.62,0,0,0,7.66-7.67,7.78,7.78,0,0,0-7.63-7.4,7.51,7.51,0,0,0-7.54,7.59,7.39,7.39,0,0,0,7.51,7.48M61.93,155.83c0-2.46,0-4.84,0-7.21a1.87,1.87,0,0,0-1.29-2c-3.58-1.54-7.12-3.15-10.7-4.67a2,2,0,0,0-1.56.1c-3.18,1.84-6.34,3.75-9.49,5.65L13.7,162.84l-9.89,6,4,6.73c.33-.18.61-.32.88-.48l11.94-7.16q14.25-8.6,28.5-17.17a1.2,1.2,0,0,1,.94-.1c2.67,1.13,5.32,2.3,8,3.47l3.86,1.73m62.91-24.14c-.31.22-.5.37-.71.5-10.41,6.1-20.81,12.23-31.25,18.29-1.24.72-2,1.42-1.87,3,.14,2.39,0,4.79,0,7.29l38-22.31v10.33l20.62-27-33.37,4.81c0,.08,0,.16,0,.23l8.56,4.87m-49.2,33c2.06-.41,2.12-.36,2.11,1.48,0,5.71,0,11.42,0,17.13a7.5,7.5,0,0,0,.2,2,4.5,4.5,0,0,0,5.2,3.21,4.63,4.63,0,0,0,3.67-4.47c0-8.68,0-17.36,0-26q0-5.46.2-10.91a35.22,35.22,0,0,1,2.31-11.06c1-2.68,2-5.39,4.15-7.42,1-.93,2-1.89,3-2.89a3.92,3.92,0,0,0,1-1.59q1.46-5.91,2.79-11.85a3.27,3.27,0,1,0-6.37-1.42c-.37,1.54-.75,3.09-1.07,4.64-.71,3.47-1.91,6.67-4.56,9.17-1.4,1.32-2.72,2.73-4.13,4.05a1.77,1.77,0,0,1-1.2.43,1.24,1.24,0,0,0-1.42,1c-1,2.81-1.89,5.62-2.84,8.44-.62,1.85-1.27,3.7-2,5.78-.19-.53-.3-.82-.39-1.1-1.5-4.38-3-8.75-4.47-13.13a1.23,1.23,0,0,0-1.28-1,2.39,2.39,0,0,1-1.37-.56c-1.38-1.29-2.66-2.69-4-4A11.2,11.2,0,0,1,62,119.91c-.93-3-1.62-6-2.39-9a3.42,3.42,0,0,0-3.79-2.64,3.29,3.29,0,0,0-2.58,4c.85,3.79,1.71,7.58,2.66,11.35a5.83,5.83,0,0,0,1.28,2.25c1.22,1.39,2.82,2.5,3.82,4,3.29,5,4.66,10.8,5.4,16.68a66.88,66.88,0,0,1,.28,8.62c0,9.31-.11,18.63-.17,27.95a5.14,5.14,0,0,0,1.79,4.47A4.58,4.58,0,0,0,75.64,184q0-9,0-18Z"/><path class="cls-8" d="M75.64,164.72V166q0,9,0,18a4.58,4.58,0,0,1-7.37,3.69,5.14,5.14,0,0,1-1.79-4.47c.06-9.32.15-18.64.17-27.95a66.88,66.88,0,0,0-.28-8.62c-.74-5.88-2.11-11.64-5.4-16.68-1-1.52-2.6-2.63-3.82-4a5.83,5.83,0,0,1-1.28-2.25c-.95-3.77-1.81-7.56-2.66-11.35a3.29,3.29,0,0,1,2.58-4,3.42,3.42,0,0,1,3.79,2.64c.77,3,1.46,6,2.39,9a11.2,11.2,0,0,0,3.16,4.74c1.38,1.28,2.66,2.68,4,4a2.39,2.39,0,0,0,1.37.56,1.23,1.23,0,0,1,1.28,1c1.46,4.38,3,8.75,4.47,13.13.09.28.2.57.39,1.1.71-2.08,1.36-3.93,2-5.78,1-2.82,1.88-5.63,2.84-8.44a1.24,1.24,0,0,1,1.42-1,1.77,1.77,0,0,0,1.2-.43c1.41-1.32,2.73-2.73,4.13-4.05,2.65-2.5,3.85-5.7,4.56-9.17.32-1.55.7-3.1,1.07-4.64a3.27,3.27,0,1,1,6.37,1.42q-1.34,5.94-2.79,11.85a3.92,3.92,0,0,1-1,1.59c-1,1-2,2-3,2.89-2.19,2-3.14,4.74-4.15,7.42A35.22,35.22,0,0,0,87,147.14q-.18,5.45-.2,10.91c0,8.67,0,17.35,0,26a4.63,4.63,0,0,1-3.67,4.47,4.5,4.5,0,0,1-5.2-3.21,7.5,7.5,0,0,1-.2-2c0-5.71,0-11.42,0-17.13,0-1.84,0-1.89-2.11-1.48"/><path class="cls-9" d="M124.84,131.69l-8.56-4.86c0-.08,0-.16,0-.24l33.37-4.81-20.62,27V138.46L91,160.77c0-2.5.11-4.9,0-7.29-.1-1.58.63-2.28,1.87-3,10.44-6.06,20.84-12.19,31.25-18.29.21-.13.4-.28.71-.5"/><path class="cls-9" d="M61.93,155.83l-3.86-1.73c-2.66-1.17-5.31-2.34-8-3.47a1.2,1.2,0,0,0-.94.1q-14.26,8.57-28.5,17.17L8.71,175.06c-.27.16-.55.3-.88.48l-4-6.73,9.89-6,25.22-15.17c3.16-1.9,6.31-3.81,9.49-5.65a2,2,0,0,1,1.56-.1c3.58,1.52,7.12,3.13,10.7,4.67a1.87,1.87,0,0,1,1.29,2c-.08,2.37,0,4.75,0,7.21"/><path class="cls-8" d="M76.6,127.76a7.4,7.4,0,0,1-7.51-7.49,7.51,7.51,0,0,1,7.55-7.59,7.78,7.78,0,0,1,7.62,7.4,7.63,7.63,0,0,1-7.66,7.68"/><path class="cls-9" d="M78.62,79.31c0,2.65,0,5.29,0,7.93a1.86,1.86,0,0,1-1.27,2,2.7,2.7,0,0,1-1.92-.49,2.06,2.06,0,0,1-.57-1.51c0-5.36,0-10.71,0-16.07,0-1.39.76-2.17,2-2.16s1.83.84,1.83,2.26c0,2.68,0,5.36,0,8Z"/><path class="cls-9" d="M103.51,74.89c-.58,1.67-1,3.07-1.54,4.46L97.7,91.08c-.35.94-.84,1.77-2,1.69a1.77,1.77,0,0,1-1.7-1.5,2.66,2.66,0,0,1,.18-1.33q2.66-7.41,5.36-14.8c.58-1.59,1.55-2.21,2.65-1.62a6.46,6.46,0,0,1,1.34,1.37"/><path class="cls-9" d="M30.26,85.8a5.32,5.32,0,0,1,1.39.87c3.52,4.15,7,8.34,10.47,12.52a1.9,1.9,0,0,1,0,2.81,1.79,1.79,0,0,1-2.7-.38c-2-2.34-4-4.73-6-7.1C32,92.78,30.5,91,29,89.32c-1-1.18-1-2.38.18-3.1a6.08,6.08,0,0,1,1.06-.42"/><path class="cls-9" d="M52.1,73.31A2.14,2.14,0,0,1,53.83,75c1.11,3.08,2.25,6.15,3.37,9.23.72,2,1.45,4,2.16,6a1.82,1.82,0,0,1-1.08,2.49A1.74,1.74,0,0,1,56,91.43c-1.59-4.26-3.14-8.53-4.7-12.79-.33-.9-.69-1.78-1-2.69a1.89,1.89,0,0,1,1.83-2.64"/><path class="cls-9" d="M123.29,85.6A9.09,9.09,0,0,1,124.9,87a1.49,1.49,0,0,1-.21,2q-3,3.59-5.92,7.14c-1.46,1.74-2.92,3.48-4.42,5.2-.38.44-.89,1-1.36,1.07a2.76,2.76,0,0,1-1.93-.72,1.59,1.59,0,0,1,.09-2.22c1.68-2,3.35-4,5-6.06s3.5-4.22,5.29-6.28a13,13,0,0,1,1.81-1.44"/><path class="cls-8" d="M76.92,140.72c-1.58-1.24-1.3-2.64-1.22-4,.11-1.52.29-3,.45-4.62.77-.35,1.13-.12,1.19.77.12,1.77.39,3.54.39,5.31a9.21,9.21,0,0,1-.81,2.51"/></g></g></svg>