<svg xmlns="http://www.w3.org/2000/svg" viewBox="0 0 154.5 253.5"><defs><style>.cls-1{font-size:11.03px;font-family:Cambria-Bold, Cambria;font-weight:700;}.cls-2{letter-spacing:0.01em;}.cls-3{letter-spacing:0.01em;}.cls-4{letter-spacing:-0.01em;}.cls-5{fill:none;stroke:#000;stroke-miterlimit:10;stroke-width:0.5px;}.cls-6{fill:#38c25b;}.cls-7{fill:#227537;}.cls-8{fill:#34b554;}.cls-9{fill:#103619;}</style></defs><g id="Capa_2" data-name="Capa 2"><g id="Capa_1-2" data-name="Capa 1"><text class="cls-1" transform="translate(24.51 32.23)">TE<tspan class="cls-2" x="13.42" y="0">M</tspan><tspan x="22.85" y="0">A: REALI</tspan><tspan class="cls-3" x="66.35" y="0">Z</tspan><tspan class="cls-4" x="72.67" y="0">A</tspan><tspan x="79.81" y="0">CIÓN</tspan></text><rect class="cls-5" x="0.25" y="0.25" width="154" height="253" rx="9.78"/><path class="cls-6" d="M78.77,88.62a13.7,13.7,0,0,0,5.31-18.53A13.47,13.47,0,0,0,65.7,64.75a13.69,13.69,0,0,0-5.31,18.52,13.47,13.47,0,0,0,18.38,5.35"/><path class="cls-7" d="M123.41,70.05l-3.29-2a3.5,3.5,0,0,0-4.78,1.14L102.19,90.42,88.1,93.17a9.15,9.15,0,0,0-7.37-2.8L65.67,91.62a9.21,9.21,0,0,0-6.76,3.91L42.69,93l-12.08-23a3.53,3.53,0,0,0-4.7-1.51l-3.45,1.74A3.42,3.42,0,0,0,21,74.92l14,26.56a3.49,3.49,0,0,0,2.69,2.19l20,3.1,3.26,39.77a9.55,9.55,0,0,0,.05,1.19l2.75,28c.49,5.07,4.45,8.88,8.79,8.44s7.48-4.94,7-10l-1.92-19.51,2-.17,5.59,51.71c.55,5.07,4.54,8.83,8.88,8.36s7.43-5,6.88-10.09L94.36,143.5c0-.19,0-.39-.08-.57L91.1,104.1l14.09-2.75a3.41,3.41,0,0,0,1.87-1.06,3.52,3.52,0,0,0,2.71-1.64L124.53,74.8a3.44,3.44,0,0,0-1.12-4.75"/><path class="cls-6" d="M136.79,139.37V123.91c-40,1.58-80.09,10.34-120.14,11v10.77c40.05.92,80.1-6.28,120.14-6.29"/><path class="cls-8" d="M136.79,139.37v-4.2c-23-1.42-46.06-.19-69.09.83-17,2.34-34,4.29-51.05,4.69v5c40.05.92,80.1-6.28,120.14-6.29"/><path class="cls-9" d="M23.11,136.87q1.8,0,3.6-.12v1.39l-1.47.05v1.31l1.31,0v1.32c-.44,0-.87,0-1.31,0v2.91l-2.13,0Z"/><path class="cls-9" d="M29.36,136.64v7l-2.13,0v-7l2.13-.09"/><path class="cls-9" d="M35,136.33v7.15l-1.87.06L32,140.36v3.22l-1.78,0v-7L32,136.5c.39,1,.79,2.09,1.19,3.14v-3.2l1.78-.11"/><path class="cls-9" d="M38,136.14v7.22l-2.12.09v-7.17l2.12-.14"/><path class="cls-9" d="M43.32,138l-2,.14v-.54a1,1,0,0,0-.07-.48A.29.29,0,0,0,41,137a.37.37,0,0,0-.29.16.83.83,0,0,0-.09.43,1,1,0,0,0,.11.54,1.48,1.48,0,0,0,.6.41,5.27,5.27,0,0,1,1.79,1.12,2.45,2.45,0,0,1,.37,1.54,2.54,2.54,0,0,1-.21,1.17,1.64,1.64,0,0,1-.79.67,3.58,3.58,0,0,1-1.36.32,3.15,3.15,0,0,1-1.46-.22,1.35,1.35,0,0,1-.79-.69,3.15,3.15,0,0,1-.19-1.25v-.47l2-.11v.89a1,1,0,0,0,.08.52.32.32,0,0,0,.3.1.37.37,0,0,0,.31-.17.78.78,0,0,0,.11-.45,1.21,1.21,0,0,0-.2-.83,6.64,6.64,0,0,0-1-.6,9.07,9.07,0,0,1-1.05-.61,1.55,1.55,0,0,1-.43-.56,2.26,2.26,0,0,1-.17-.94,2.47,2.47,0,0,1,.24-1.23,1.72,1.72,0,0,1,.78-.66,4.23,4.23,0,0,1,2.71-.18,1.27,1.27,0,0,1,.77.54,2.79,2.79,0,0,1,.19,1.23Z"/><path class="cls-9" d="M49.06,135.25v7.49l-2.13.14v-3.13l-.63.05v3.12l-2.13.12v-7.37l2.13-.18v2.66l.63-.05v-2.66l2.13-.19"/><path class="cls-9" d="M65.84,133.54l3.61-.4v1.6L68,134.9v1.5l1.32-.13v1.52l-1.32.13v3.34l-2.13.18Z"/><path class="cls-9" d="M72.09,132.84v8l-2.13.19v-8l2.13-.24"/><path class="cls-9" d="M77.7,132.19v8.19l-1.86.17L74.73,137v3.69l-1.78.16v-8.07l1.78-.21,1.19,3.53V132.4l1.78-.21"/><path class="cls-9" d="M80.69,131.84v8.26l-2.13.2v-8.21l2.13-.25"/><path class="cls-9" d="M86.05,133.76l-2,.21v-.61a1.21,1.21,0,0,0-.08-.55.25.25,0,0,0-.25-.09.37.37,0,0,0-.29.19,1,1,0,0,0-.1.5,1.4,1.4,0,0,0,.11.62,1.38,1.38,0,0,0,.6.44,5,5,0,0,1,1.79,1.23,3.07,3.07,0,0,1,.37,1.75,3.49,3.49,0,0,1-.2,1.34,1.87,1.87,0,0,1-.79.79,3.49,3.49,0,0,1-1.37.41,2.92,2.92,0,0,1-1.46-.2,1.38,1.38,0,0,1-.79-.76,4,4,0,0,1-.19-1.42v-.54l2-.2v1a1.43,1.43,0,0,0,.08.6.3.3,0,0,0,.3.1.36.36,0,0,0,.31-.2,1,1,0,0,0,.11-.51,1.52,1.52,0,0,0-.2-1,5.84,5.84,0,0,0-1-.65A9.19,9.19,0,0,1,82,135.6a1.66,1.66,0,0,1-.43-.62,2.85,2.85,0,0,1-.16-1.06,3.21,3.21,0,0,1,.24-1.42,1.92,1.92,0,0,1,.77-.78,3.31,3.31,0,0,1,1.3-.4,3.17,3.17,0,0,1,1.41.11,1.25,1.25,0,0,1,.77.6,3.53,3.53,0,0,1,.19,1.4Z"/><path class="cls-9" d="M91.8,130.56v8.54l-2.13.19v-3.57l-.64.07v3.55l-2.13.19v-8.41l2.13-.24v3l.64-.07v-3l2.13-.25"/><path class="cls-9" d="M108.57,128.8l3.61-.34v1.81l-1.48.13v1.7L112,132v1.71l-1.32.1v3.78l-2.13.15Z"/><path class="cls-9" d="M114.83,128.23v9.1l-2.13.13v-9l2.13-.19"/><path class="cls-9" d="M120.44,127.79V137l-1.87.09-1.11-4.1v4.16l-1.78.1v-9.11l1.78-.14c.4,1.34.8,2.69,1.19,4v-4.14l1.79-.13"/><path class="cls-9" d="M123.42,127.58v9.3l-2.13.1v-9.25l2.13-.15"/><path class="cls-9" d="M128.79,130.11l-2,.1v-.7a1.38,1.38,0,0,0-.08-.62.27.27,0,0,0-.25-.12.36.36,0,0,0-.29.2,1.15,1.15,0,0,0-.1.55,1.76,1.76,0,0,0,.11.7,1.55,1.55,0,0,0,.6.54,6,6,0,0,1,1.8,1.51,4.11,4.11,0,0,1,.37,2,4,4,0,0,1-.21,1.49,1.77,1.77,0,0,1-.79.82,2.88,2.88,0,0,1-1.37.37,2.72,2.72,0,0,1-1.46-.31,1.69,1.69,0,0,1-.79-.91,5.46,5.46,0,0,1-.19-1.61v-.61l2-.09v1.14a1.55,1.55,0,0,0,.09.67.29.29,0,0,0,.29.14.36.36,0,0,0,.32-.21,1.21,1.21,0,0,0,.1-.57,1.82,1.82,0,0,0-.2-1.07,5.2,5.2,0,0,0-1-.81,7.83,7.83,0,0,1-1-.82,1.79,1.79,0,0,1-.43-.72,3.7,3.7,0,0,1-.17-1.21,3.89,3.89,0,0,1,.24-1.58,1.88,1.88,0,0,1,.78-.83,3.22,3.22,0,0,1,2.7-.13,1.48,1.48,0,0,1,.78.73,4.8,4.8,0,0,1,.19,1.58Z"/></g></g></svg>