<svg xmlns="http://www.w3.org/2000/svg" viewBox="0 0 154.5 253.5"><defs><style>.cls-1{font-size:11.03px;font-family:Cambria-Bold, Cambria;font-weight:700;}.cls-2{letter-spacing:0.01em;}.cls-3{fill:none;stroke:#000;stroke-miterlimit:10;stroke-width:0.5px;}.cls-4{fill:#38c25b;}.cls-5{fill:#227537;}</style></defs><g id="Capa_2" data-name="Capa 2"><g id="Capa_1-2" data-name="Capa 1"><text class="cls-1" transform="translate(37.41 31.74)">TE<tspan class="cls-2" x="13.42" y="0">M</tspan><tspan x="22.85" y="0">A: INGENIO</tspan></text><rect class="cls-3" x="0.25" y="0.25" width="154" height="253" rx="9.78"/><path class="cls-4" d="M93.3,172a17.89,17.89,0,1,0-18-17.89A17.93,17.93,0,0,0,93.3,172"/><path class="cls-5" d="M48.82,162.55,71.3,194.86a6.7,6.7,0,0,0,.8.95v34h42.39V184.17A10.52,10.52,0,0,0,104,173.71H82.61a10.34,10.34,0,0,0-2.91.42L66.36,155V117.85a7,7,0,0,0-7-7H54.6a7,7,0,0,0-7,7v39.3c0,.23,0,.45,0,.68a7,7,0,0,0,1.19,4.72"/><path class="cls-4" d="M82.64,73A20.77,20.77,0,0,0,56.29,85.81a20.47,20.47,0,0,0,.57,14.84c.09,4.21.34,8.45-1,12.38L79.16,121c1.35-3.92,4.16-7.13,6.82-10.4A20.62,20.62,0,0,0,82.64,73"/><path class="cls-4" d="M77,122l-19.65-6.69a1.38,1.38,0,0,0-1.75.85L55,118a1.37,1.37,0,0,0,.85,1.74l19.66,6.69a1.39,1.39,0,0,0,1.75-.86l.63-1.83A1.36,1.36,0,0,0,77,122"/><path class="cls-4" d="M74.78,128.47l-19.66-6.68a1.38,1.38,0,0,0-1.75.85l-.63,1.84a1.38,1.38,0,0,0,.86,1.74l19.66,6.68a1.38,1.38,0,0,0,1.75-.85l.63-1.84a1.38,1.38,0,0,0-.86-1.74"/><path class="cls-4" d="M52.84,128.08s-.11,0-.4.46.35,1.77,1.23,3a43.94,43.94,0,0,1,2.55,5.37,33.71,33.71,0,0,0,3.33,1.37c1.71.58,3.76,1.51,4.48,1.16s8.17-3.72,8.17-3.72.86-.42.65-.85-20-6.8-20-6.8"/><path class="cls-4" d="M123.08,88.84A3.78,3.78,0,0,0,119,85.38l-14.86.9a3.7,3.7,0,1,0,.45,7.39l14.86-.9a3.78,3.78,0,0,0,3.61-3.93"/><path class="cls-4" d="M101.28,79l12.66-7.78A3.71,3.71,0,1,0,110,65L97.37,72.74a3.76,3.76,0,0,0-1.32,5.16A3.81,3.81,0,0,0,101.28,79"/><path class="cls-4" d="M83.22,70.53A3.8,3.8,0,0,0,88,68.09l4.8-14a3.72,3.72,0,1,0-7-2.39l-4.8,14a3.78,3.78,0,0,0,2.28,4.82"/><path class="cls-4" d="M113.86,112.66l-11.15-9.82a3.71,3.71,0,1,0-4.93,5.54l11.14,9.82a3.81,3.81,0,0,0,5.35-.23,3.76,3.76,0,0,0-.41-5.31"/><path class="cls-4" d="M41.76,66.33,53,76.09a3.81,3.81,0,0,0,5.35-.26,3.76,3.76,0,0,0-.45-5.31L46.66,60.76a3.81,3.81,0,0,0-5.35.26,3.76,3.76,0,0,0,.45,5.31"/><path class="cls-4" d="M64.59,66.55a3.72,3.72,0,1,0,7-2.59L66.34,50.09A3.81,3.81,0,0,0,61.5,47.8a3.76,3.76,0,0,0-2.13,4.88Z"/><path class="cls-4" d="M52.89,87.94a3.78,3.78,0,0,0-4.08-3.44L34,85.48a3.7,3.7,0,1,0,.49,7.38l14.85-1a3.78,3.78,0,0,0,3.59-4"/><path class="cls-5" d="M67.15,119.32a5.06,5.06,0,0,1-5.06,5H52.65a5.06,5.06,0,0,1-5.06-5V109.9a5.06,5.06,0,0,1,5.06-5h9.44a5.06,5.06,0,0,1,5.06,5Z"/><path class="cls-4" d="M98.49,188.33c-3.39-1.22-4.74-1.19-7.93.39-1.49-3.48-4-6.7-5.14-10.45,5.7-2.21,12-1.54,17.57.79-1.24,3.1-3.54,5.91-4.5,9.27"/><path class="cls-4" d="M97.71,188.74c-1.26.07-1.28-.45-3.24-.37s-1.82.6-3,.64c1.09,13.35,2.85,27.2,7.69,40.78H113.5c-8.3-12.55-14.57-26.48-15.79-41"/></g></g></svg>