<svg xmlns="http://www.w3.org/2000/svg" viewBox="0 0 154.5 253.5"><defs><style>.cls-1{font-size:11.03px;font-family:Cambria-Bold, Cambria;font-weight:700;}.cls-2{letter-spacing:0.01em;}.cls-3{letter-spacing:0em;}.cls-4{fill:none;stroke:#000;stroke-miterlimit:10;stroke-width:0.5px;}.cls-5{fill:#34b554;}</style></defs><g id="Capa_2" data-name="Capa 2"><g id="Capa_1-2" data-name="Capa 1"><text class="cls-1" transform="translate(26.29 32.23)">TE<tspan class="cls-2" x="13.42" y="0">M</tspan><tspan x="22.85" y="0">A: SUPER</tspan><tspan class="cls-3" x="69.11" y="0">A</tspan><tspan x="76.26" y="0">CIÓN</tspan></text><rect class="cls-4" x="0.25" y="0.25" width="154" height="253" rx="9.78"/><path class="cls-5" d="M93,69.46c-6-.21-10.43,4.91-10.7,9.9A10.73,10.73,0,1,0,93,69.46m-6.9,22.75L85,95.85c-.79-.12-1.65-.21-2.48-.39a21.51,21.51,0,0,0-9.21,0,15.59,15.59,0,0,0-9.94,6.93,15.89,15.89,0,0,0-2.58,6.93,9.8,9.8,0,0,0,.6,5.69,1.9,1.9,0,0,0,2.06,1.22,2.18,2.18,0,0,0,1.93-1.76c1-3.8,2.43-7.4,5.57-10a11.67,11.67,0,0,1,9.14-2.58c-.09,1-.17,1.9-.27,3H79c-2,0-1.53-.23-2.18,1.47-1.76,4.61-3.44,9.26-5.12,13.9-.66,1.84-1.31,3.69-1.84,5.57-.85,3-.44,5.66,2.3,7.59a3,3,0,0,1,.33.35c-.44.8-.88,1.64-1.41,2.61l-2.19-1.55c-2.82,2.73-5.7,5.48-8.52,8.28a2,2,0,0,1-2,.61,34.71,34.71,0,0,0-4.21-.43c-3.31-.22-6.63-.38-9.94-.61-1.56-.11-3.13-.27-4.67-.51-2-.32-4.32,1.14-3.58,3.85a2.35,2.35,0,0,0,1.82,1.77c3.22.63,6.44,1.18,9.67,1.73,3.41.57,6.82,1.12,10.23,1.67,1.2.2,2.4.41,3.6.59a2.17,2.17,0,0,0,1.79-.54q6.18-5.08,12.45-10a5.88,5.88,0,0,1,2.85-1.64,1.24,1.24,0,0,0,.8-.82c.28-1.05,1-1,1.76-.84,1.82.3,3.63.6,5.45.85,2.69.36,5.38.82,8.09,1,2.29.11,3.34,1.87,4.74,3.12,3.9,3.5,7.69,7.13,11.53,10.7a14.62,14.62,0,0,1,1.44,1.28,3,3,0,0,0,5.27-1.51,3.44,3.44,0,0,0-.53-2.35c-3.15-4.12-6.42-8.17-9.63-12.25-1.41-1.79-2.81-3.6-4.14-5.45a3.9,3.9,0,0,0-2.48-1.28c-2.09-.56-4.21-1-6.32-1.57l-7.75-1.89c-.5-.13-1-.33-1.59-.53.25-1.13.47-2.25.75-3.35q1.38-5.39,2.79-10.77c.68-2.59,1.39-5.17,2.08-7.76.16-.58.31-1.17.48-1.8l2.9.74c-.17.72-.31,1.37-.51,2.25,1.81.1,3.45.16,5.1.27a16,16,0,0,0,8.39-1.76,15.7,15.7,0,0,0,5.77-5.1,16.33,16.33,0,0,0,2.77-6.37c.44-2.24.66-4.54-.43-6.72a2,2,0,0,0-2-1.27,2.11,2.11,0,0,0-2,1.76c-1,3.53-2.24,6.92-5,9.5a11.22,11.22,0,0,1-7.49,3.16,20.52,20.52,0,0,1-8.51-1.81.86.86,0,0,1-.28-.76c.29-.75.68-1.46,1-2.22.9.33,1.76.68,2.63,1a11.55,11.55,0,0,0,7.54.32,9.13,9.13,0,0,0,4.43-3.59,22.62,22.62,0,0,0,2.81-6.75,5.07,5.07,0,0,1,4.59-3.68,4.56,4.56,0,0,1,4.47,2.19,11,11,0,0,1,1.45,7.92,20.44,20.44,0,0,1-6.34,12.34,17.94,17.94,0,0,1-4.87,3.15,21.89,21.89,0,0,1-11.51,1.72c-.93-.09-1.85-.31-2.77-.34a1.08,1.08,0,0,0-.79.64c-.76,2.82-1.46,5.66-2.18,8.49-.51,2-1,3.92-1.49,5.9a.83.83,0,0,0,.44.69c2,.52,3.93,1,5.89,1.47,1.66.42,3.31.86,5,1.29a20.13,20.13,0,0,0,2.62.67,4,4,0,0,1,2.73,1.93c3.14,4,6.33,8,9.48,12,1.63,2.09,3.36,4.12,4.78,6.36s1.25,4.4-.37,6.73a6.06,6.06,0,0,1-6.35,2.34,9,9,0,0,1-4-2.6c-3-2.75-5.91-5.52-8.87-8.28-1.6-1.5-3.19-3-4.86-4.46a3.37,3.37,0,0,0-1.65-.67c-2.59-.39-5.19-.71-7.8-1-1.58-.21-3.16-.42-4.74-.58a1.19,1.19,0,0,0-.74.29l-10,7.95c-2.28,1.82-4.55,3.64-6.87,5.42a1.87,1.87,0,0,1-1.23.2q-3.06-.42-6.11-.92c-1.87-.32-3.74-.7-5.61-1-2.71-.44-5.43-.81-8.14-1.27a36.69,36.69,0,0,1-6-1.2,5.84,5.84,0,0,1-3.51-6.88,6,6,0,0,1,6.88-4.47c1.94.31,3.93.31,5.9.44,4,.27,8.06.53,12.09.82a1.7,1.7,0,0,0,1.48-.58q3.65-3.68,7.39-7.27a.91.91,0,0,0,.29-1.13,10.26,10.26,0,0,1-.16-6.2c.61-2.31,1.52-4.53,2.32-6.78q1.8-5,3.63-10.07a11.21,11.21,0,0,0,.53-1.67,6.64,6.64,0,0,0-2.71,3,62.79,62.79,0,0,0-2.34,6,5.33,5.33,0,0,1-4.59,3.7,5.21,5.21,0,0,1-5-3,13.47,13.47,0,0,1-.65-8.53,20.32,20.32,0,0,1,5.56-10.39,18.15,18.15,0,0,1,9.07-4.94,23.29,23.29,0,0,1,8.11-.38c.68.09,1.37.09,2.12.13a2.08,2.08,0,0,1,.15-.39c.68-1,.4-1.78-.43-2.73a12.84,12.84,0,0,1-3.23-7.37c-.54-6.2,2-10.78,7.28-13.81a12.76,12.76,0,0,1,8.79-1.36A13.41,13.41,0,0,1,104.81,73,13.81,13.81,0,0,1,92,93.92a15.93,15.93,0,0,1-5.88-1.71"/><path class="cls-5" d="M79.17,163.67c2.11,0,4,0,5.93,0,.52,0,.66-.24.64-.69-.11-2.46-.21-4.91-.35-7.36,0-.22-.27-.59-.42-.59-1.8,0-3.61,0-5.42,0-.13,3-.26,5.78-.38,8.66M87,202c-.41-11.8-.81-23.5-1.21-35.3-2.12,0-4.15,0-6.18,0-.19,0-.44.35-.55.59A2,2,0,0,0,79,168q-.28,11.81-.6,23.62c-.07,2.85-.24,5.71-.38,8.56,0,.56-.1,1.12-.15,1.74H27.91v-3.05H75c0-.4,0-.7,0-1,.21-7,.4-14.11.61-21.16q.26-8,.54-16c.1-2.74.25-5.48.36-8.22,0-.49.2-.66.68-.66,3.48,0,7,0,10.45,0,.55,0,.7.23.71.73.06,1.83.14,3.65.21,5.48.17,4.5.36,9,.5,13.5.16,5,.27,9.95.41,14.93.12,4.06.27,8.12.41,12.35h46.49c.1,1.1.19,2,.28,3.07Z"/><path class="cls-5" d="M44.94,97.56v3.13L25.35,100V97l19.59.57"/><path class="cls-5" d="M16.82,121.14H33.45v3h-1c-4.86,0-9.71,0-14.57,0-.88,0-1.18-.26-1.08-1.12.06-.59,0-1.19,0-1.88"/></g></g></svg>