<svg xmlns="http://www.w3.org/2000/svg" viewBox="0 0 154.5 253.5"><defs><style>.cls-1{font-size:11.03px;font-family:Cambria-Bold, Cambria;font-weight:700;}.cls-2{letter-spacing:0.01em;}.cls-3{letter-spacing:0em;}.cls-4{fill:none;stroke:#000;stroke-miterlimit:10;stroke-width:0.5px;}.cls-5{fill:#38c25b;}.cls-6{fill:#227537;}</style></defs><g id="Capa_2" data-name="Capa 2"><g id="Capa_1-2" data-name="Capa 1"><text class="cls-1" transform="translate(30.29 31.74)">TE<tspan class="cls-2" x="13.42" y="0">M</tspan><tspan x="22.85" y="0">A: S</tspan><tspan class="cls-3" x="41.21" y="0">A</tspan><tspan x="48.36" y="0">CRIFICIO</tspan></text><rect class="cls-4" x="0.25" y="0.25" width="154" height="253" rx="9.78"/><polygon class="cls-5" points="97.37 169.5 92.3 174.78 75.07 155.25 22.35 195.37 17.3 208.27 136.14 208.27 97.37 169.5"/><path class="cls-6" d="M37.06,118.72c.72-.12,6-.78,9.15-1.16,0,0,2,3.47,3.86,7l-5.85,14.93c1.48-12.52-3.57-18-7.16-20.73m10.12-15.43a31.68,31.68,0,0,0,15.1-10l-9.84,25.16a12,12,0,0,0-4.2-5.95c-1.23-.88-5.56-1.92-11-1.1,2.75-2.69,4.16-6.5,10-8.12M45.39,96a2.45,2.45,0,0,0,2.2-.81,3.73,3.73,0,0,0,.49-1A51.27,51.27,0,0,1,64,89l-.4,1c-3.92,1.71-16.81,7.28-18.5,7.28H44.9A8.45,8.45,0,0,0,45.39,96M77.74,53.79l-13.32,34c-3.91-1.32-10.17-1-16.45.79-.8-1.75-2.66-3.71-5.27-2.83s-3.42,2.36-3,5a3.7,3.7,0,0,0,.35,1c-1,.52-1.94,1.07-2.85,1.67C28.91,98.93,25.37,107.1,25.54,112,25.05,121.19,39,130.23,39,130.23l2.6,15.85L25.77,186.64l50-38,16.73,19,4.85-5.06L135,200.27Z"/></g></g></svg>