<svg xmlns="http://www.w3.org/2000/svg" viewBox="0 0 154.5 253.5"><defs><style>.cls-1{font-size:11.03px;font-family:Cambria-Bold, Cambria;font-weight:700;}.cls-2{letter-spacing:0.01em;}.cls-3{letter-spacing:0.01em;}.cls-4{fill:none;stroke:#000;stroke-miterlimit:10;stroke-width:0.5px;}.cls-5{fill:#38c25b;}.cls-6{fill:#227537;}.cls-7{fill:#2d9c49;}</style></defs><g id="Capa_2" data-name="Capa 2"><g id="Capa_1-2" data-name="Capa 1"><text class="cls-1" transform="translate(16.63 31.74)">TE<tspan class="cls-2" x="13.42" y="0">M</tspan><tspan x="22.85" y="0">A: PERSEVERANC</tspan><tspan class="cls-3" x="109.7" y="0">I</tspan><tspan x="113.67" y="0">A</tspan></text><rect class="cls-4" x="0.25" y="0.25" width="154" height="253" rx="9.78"/><path class="cls-5" d="M124.89,100.46a8,8,0,1,0-8-8,8,8,0,0,0,8,8"/><path class="cls-6" d="M147.28,102.38a3.39,3.39,0,0,0-4.52.43l-10.24,10.75-11-10.56-3.82,4-.41-7.92H98.73a7.52,7.52,0,0,0-5.48,2.37L78.76,116.87a3.29,3.29,0,0,0,.18,4.71,3.39,3.39,0,0,0,4.69-.29l14.05-15h9.85l-28.64,32.9H72v10h8a7.51,7.51,0,0,0,5.58-2.49l8.91-9.89,14.38,12.72L104.9,170a5,5,0,0,0,4.11,5.89,5.16,5.16,0,0,0,5.77-4.23L118.89,150a7.52,7.52,0,0,0-2.41-7l-10.74-9.5,16.53-19.7,6.34,6.08a5,5,0,0,0,7.08-.16l11.94-12.47a3.29,3.29,0,0,0-.35-4.85"/><path class="cls-7" d="M58.2,149.23h4.44v-10H58a5,5,0,0,0-5,5.14,5.17,5.17,0,0,0,5.24,4.87"/><path class="cls-5" d="M67.22,152c.53,0,1.32,1.23,1.32,3.07s-.79,3.06-1.32,3.06-1.31-1.22-1.31-3.06S66.7,152,67.22,152M64,165c-1,1.51-2.39,2.07-2.83,1.77s-.39-1.75.66-3.27,2.39-2.07,2.82-1.77.39,1.75-.65,3.27m-8,7.12c-1.38,1.22-2.82,1.45-3.17,1s0-1.79,1.42-3,2.81-1.44,3.16-1a.49.49,0,0,1,.1.23.44.44,0,0,0,0,.26,4.24,4.24,0,0,1-1.53,2.53m-11.23,3.07c-1.83.13-3.11-.57-3.15-1.09s1.12-1.4,3-1.54,3.11.57,3.15,1.09-1.12,1.4-3,1.54M33.66,174a4.12,4.12,0,0,1-2.56-1.61l.4-.58a2.08,2.08,0,0,0,.22-.38,4.7,4.7,0,0,1,2.59,0c1.78.45,2.77,1.52,2.64,2s-1.51,1-3.29.52m-6.73-10.33A9.35,9.35,0,0,0,8.45,163a9.35,9.35,0,1,1,18.48.69m37-12.53h1.77v.12a.62.62,0,0,0,.22.46,5.32,5.32,0,0,0-1,3.35,4.84,4.84,0,0,0,1.32,3.65,6,6,0,0,0-.75,1,6.88,6.88,0,0,0-.5,1c-1.06-.49-2.78.41-4,2.13a4.78,4.78,0,0,0-1,3.79,5.62,5.62,0,0,0-1.25.86,6,6,0,0,0-.75.78c-.88-.83-2.82-.38-4.43,1.05a4.92,4.92,0,0,0-1.85,3.36,5.26,5.26,0,0,0-1.67.1,5.64,5.64,0,0,0-1.44.48c-.27-1.15-2.05-1.93-4.14-1.77-1.89.14-3.41,1-3.77,2a5.68,5.68,0,0,0-1.5-.4,6.13,6.13,0,0,0-1.4,0c-.18-1.06-1.53-2.16-3.34-2.62a6.23,6.23,0,0,0-2.58-.14,2.66,2.66,0,0,0-1.15-2.29l-1-.7a13,13,0,0,0,.66-4.05,12.8,12.8,0,1,0-3.95,9.22l.83.57a2.67,2.67,0,0,0,3.08,0,5.26,5.26,0,0,0,3,1.82c1.83.47,3.53.15,4.2-.7a5.67,5.67,0,0,0,1.47.39,5.26,5.26,0,0,0,1.75,0c.46,1,2.13,1.65,4.06,1.5a4.57,4.57,0,0,0,3.64-1.76,5,5,0,0,0,1.89-.07,5.09,5.09,0,0,0,1.66-.6l.08.1c.83.94,2.85.5,4.51-1a5,5,0,0,0,1.85-3.29,5.66,5.66,0,0,0,1.26-.86,5.79,5.79,0,0,0,1-1.07c1.05.59,2.83-.31,4-2.08a4.82,4.82,0,0,0,1-3.75,5.46,5.46,0,0,0,1-1.26,5.73,5.73,0,0,0,.62-1.41c1.18-.14,2.12-1.87,2.12-4a5.33,5.33,0,0,0-1-3.35.59.59,0,0,0,.23-.46v-.12h1.77V137.7H64Z"/></g></g></svg>