<svg xmlns="http://www.w3.org/2000/svg" viewBox="0 0 154.5 253.5"><defs><style>.cls-1{font-size:10.03px;fill:#2b56a4;font-family:Cambria-Bold, Cambria;font-weight:700;}.cls-2{letter-spacing:0.01em;}.cls-3{fill:#0a9ed9;}.cls-4{font-size:9.53px;font-family:Cambria;}.cls-5{letter-spacing:0.05em;}.cls-6{letter-spacing:0.05em;}.cls-7{letter-spacing:0.04em;}.cls-8{letter-spacing:0.04em;}.cls-9{letter-spacing:0.19em;}.cls-10{letter-spacing:0.19em;}.cls-11{letter-spacing:0.19em;}.cls-12{letter-spacing:0.26em;}.cls-13{letter-spacing:0.26em;}.cls-14{letter-spacing:1.58em;}.cls-15{letter-spacing:1.58em;}.cls-16{fill:none;stroke:#000;stroke-miterlimit:10;stroke-width:0.5px;}</style></defs><g id="Capa_2" data-name="Capa 2"><g id="Capa_1-2" data-name="Capa 1"><text class="cls-1" transform="translate(12.64 39.04)">2. PERSO<tspan class="cls-2" x="41.18" y="0">N</tspan><tspan x="48.08" y="0">AJE</tspan></text><path class="cls-3" d="M106,36.41A7.54,7.54,0,0,0,113.3,44a7.73,7.73,0,0,0,7.84-7.14,7.57,7.57,0,0,0-7.25-8.08A7.45,7.45,0,0,0,106,36.41M98,21.21a7.41,7.41,0,0,0-7.47,7.68,7.59,7.59,0,0,0,15.17,0A7.36,7.36,0,0,0,98,21.21m23.32,7.46a7.59,7.59,0,0,0,15.17.4c.07-4.48-3.09-7.94-7.32-8a7.49,7.49,0,0,0-7.85,7.6m2,7.95a31.91,31.91,0,0,1-.85,3.31c-.27.71,0,1,.49,1.35a17.62,17.62,0,0,1,5.61,5.94,1.75,1.75,0,0,0,1.3.76c4.37.06,8.75,0,13.12,0,1.08,0,1.3-.38,1.19-1.37a15.54,15.54,0,0,0-6.77-11.36c-.67-.49-1-.5-1.69.14a9.11,9.11,0,0,1-10,2.29c-.79-.28-1.54-.72-2.35-1.1m-19.57.15a1.2,1.2,0,0,0-.33.06,9.55,9.55,0,0,1-12.24-1.48c-.55-.59-.93-.33-1.43,0A15.21,15.21,0,0,0,82.91,47c-.08.84.09,1.17,1,1.17,4.43,0,8.86,0,13.29-.06a1.6,1.6,0,0,0,1.22-.65,17.68,17.68,0,0,1,5.85-6.24,1.17,1.17,0,0,0,.47-.89c-.26-1.16-.64-2.29-1-3.51m9.93,19h0c4.69,0,9.37,0,14,0,.92,0,1.15-.25,1.06-1.2a15.33,15.33,0,0,0-6.62-11.44,1.25,1.25,0,0,0-2,.14,9.37,9.37,0,0,1-13.4-.06A1.15,1.15,0,0,0,105,43a15.37,15.37,0,0,0-6.73,11.24c-.14,1.16.14,1.51,1.3,1.5,4.69-.05,9.37,0,14,0"/><path class="cls-3" d="M113.66,55.75c-4.68,0-9.36,0-14,0-1.16,0-1.44-.34-1.3-1.5A15.37,15.37,0,0,1,105,43a1.15,1.15,0,0,1,1.76.16,9.37,9.37,0,0,0,13.4.06,1.25,1.25,0,0,1,2-.14,15.33,15.33,0,0,1,6.62,11.44c.09,1-.14,1.21-1.06,1.2-4.68,0-9.36,0-14,0Z"/><path class="cls-3" d="M103.73,36.77c.36,1.22.74,2.35,1,3.51a1.17,1.17,0,0,1-.47.89,17.68,17.68,0,0,0-5.85,6.24,1.6,1.6,0,0,1-1.22.65c-4.43,0-8.86,0-13.29.06-.9,0-1.07-.33-1-1.17a15.21,15.21,0,0,1,6.82-11.59c.5-.34.88-.6,1.43,0a9.55,9.55,0,0,0,12.24,1.48,1.2,1.2,0,0,1,.33-.06"/><path class="cls-3" d="M123.3,36.62c.81.38,1.56.82,2.35,1.1a9.11,9.11,0,0,0,10-2.29c.64-.64,1-.63,1.69-.14a15.54,15.54,0,0,1,6.77,11.36c.11,1-.11,1.38-1.19,1.37-4.37,0-8.75,0-13.12,0a1.75,1.75,0,0,1-1.3-.76,17.62,17.62,0,0,0-5.61-5.94c-.53-.34-.76-.64-.49-1.35a29.57,29.57,0,0,0,.85-3.31"/><path class="cls-3" d="M121.34,28.67a7.49,7.49,0,0,1,7.85-7.6c4.23.06,7.39,3.52,7.32,8a7.59,7.59,0,0,1-15.17-.4"/><path class="cls-3" d="M98,21.21a7.36,7.36,0,0,1,7.7,7.69,7.59,7.59,0,0,1-15.17,0A7.41,7.41,0,0,1,98,21.21"/><path class="cls-3" d="M106,36.41a7.45,7.45,0,0,1,7.93-7.62,7.57,7.57,0,0,1,7.25,8.08A7.73,7.73,0,0,1,113.3,44a7.54,7.54,0,0,1-7.34-7.6"/><text class="cls-4" transform="translate(8.31 86.22)">Describe tu personaje (también<tspan x="0" y="11.43">conocido</tspan><tspan class="cls-5" x="36.82" y="11.43"> </tspan><tspan x="39.36" y="11.43">como</tspan><tspan class="cls-6" x="61.6" y="11.43"> </tspan><tspan x="64.15" y="11.43">el</tspan><tspan class="cls-5" x="71.38" y="11.43"> </tspan><tspan x="73.92" y="11.43">héroe)</tspan><tspan class="cls-6" x="101.11" y="11.43"> </tspan><tspan x="103.65" y="11.43">con</tspan><tspan class="cls-6" x="118.22" y="11.43"> </tspan><tspan x="120.77" y="11.43">más </tspan><tspan x="0" y="22.86">detalle.</tspan><tspan x="0" y="34.3">&quot;Su</tspan><tspan class="cls-7" x="13.73" y="34.3"> </tspan><tspan x="16.25" y="34.3">nombre</tspan><tspan class="cls-7" x="48.35" y="34.3"> </tspan><tspan x="50.86" y="34.3">era…</tspan><tspan class="cls-7" x="71.27" y="34.3"> </tspan><tspan x="73.78" y="34.3">y</tspan><tspan class="cls-8" x="78.58" y="34.3"> </tspan><tspan x="81.1" y="34.3">se</tspan><tspan class="cls-7" x="89.84" y="34.3"> </tspan><tspan x="92.35" y="34.3">caracteriza </tspan><tspan x="0" y="45.73">por</tspan><tspan class="cls-9" x="14.29" y="45.73"> </tspan><tspan x="18.16" y="45.73">ser…</tspan><tspan class="cls-10" x="38" y="45.73"> </tspan><tspan x="41.87" y="45.73">(por</tspan><tspan class="cls-11" x="59.8" y="45.73"> </tspan><tspan x="63.66" y="45.73">ejemplo,</tspan><tspan class="cls-11" x="98.31" y="45.73"> </tspan><tspan x="102.17" y="45.73">aspectos </tspan><tspan x="0" y="57.16">sociales,</tspan><tspan class="cls-12" x="33.93" y="57.16"> </tspan><tspan x="38.55" y="57.16">físicos</tspan><tspan class="cls-13" x="64.17" y="57.16"> </tspan><tspan x="68.79" y="57.16">o</tspan><tspan class="cls-12" x="73.84" y="57.16"> </tspan><tspan x="78.46" y="57.16">psicológicos)&quot;. </tspan><tspan x="0" y="68.59">Asimismo,</tspan><tspan class="cls-14" x="42.28" y="68.59"> </tspan><tspan x="59.46" y="68.59">puedes</tspan><tspan class="cls-15" x="88.69" y="68.59"> </tspan><tspan x="105.87" y="68.59">detallar </tspan><tspan x="0" y="80.03">algunos antecedentes relevantes.</tspan></text><rect class="cls-16" x="0.25" y="0.25" width="154" height="253" rx="9.78"/></g></g></svg>