<svg xmlns="http://www.w3.org/2000/svg" viewBox="0 0 154.5 253.5"><defs><style>.cls-1{font-size:10.03px;fill:#2b56a4;font-family:Cambria-Bold, Cambria;font-weight:700;}.cls-2{letter-spacing:0.01em;}.cls-3{letter-spacing:-0.06em;}.cls-4{fill:#40ad49;}.cls-5{font-size:9.53px;font-family:Cambria;}.cls-6{letter-spacing:0.2em;}.cls-7{letter-spacing:-0.03em;}.cls-8{letter-spacing:0.62em;}.cls-9{letter-spacing:0.62em;}.cls-10{letter-spacing:0.62em;}.cls-11{letter-spacing:0.24em;}.cls-12{letter-spacing:0.24em;}.cls-13{letter-spacing:0.24em;}.cls-14{letter-spacing:0.22em;}.cls-15{letter-spacing:0.44em;}.cls-16{letter-spacing:0.44em;}.cls-17{letter-spacing:0.44em;}.cls-18{fill:none;stroke:#000;stroke-miterlimit:10;stroke-width:0.5px;}</style></defs><g id="Capa_2" data-name="Capa 2"><g id="Capa_1-2" data-name="Capa 1"><text class="cls-1" transform="translate(12.48 39.15)">1. ESCE<tspan class="cls-2" x="32.95" y="0">N</tspan><tspan x="39.86" y="0">ARI</tspan><tspan class="cls-3" x="56.53" y="0">O</tspan></text><path class="cls-4" d="M132.48,30.77A5.77,5.77,0,0,0,138.11,25a5.87,5.87,0,0,0-5.69-5.46,5.78,5.78,0,0,0-5.6,5.52,5.71,5.71,0,0,0,5.66,5.72M98.42,40.31l.93-.32c1.37,1,2.7,2.11,4.14,3,1.84,1.14,1.83,2.5.91,4.2-1.22,2.28-2.49,4.56-3.48,6.94a3.67,3.67,0,0,0,.15,3c1.39,2.17,3.47,1.77,5.11-1,1.4-2.36,2.47-4.91,3.87-7.27,2-3.42,3.32-6.59-1.22-9.12a1.75,1.75,0,0,1-.48-1.64c.18-.39,1-.65,1.59-.67,2.36-.07,4.73,0,7.1,0,1.86,0,2.72,1,2.72,2.79q0,3.64,0,7.31c0,2.75,0,5.5.08,8.25.06,1.61,1.08,2.94,2.66,2.63,1-.19,1.89-1.52,2.63-2.49.31-.42.14-1.22.14-1.85,0-7,0-14,0-21,0-4.71-2-6.79-6.67-7.54-8.1-1.28-15.46.81-22.46,4.71a7,7,0,0,0-3.77,6.36c-.07,2.43-.14,4.88,0,7.31.15,2.65-.93,4.17-3.39,5.23a67,67,0,0,0-8.92,4.77c-.62.4-.94,2.17-.61,3A2.43,2.43,0,0,0,83,58.22c3.64-1.69,7.22-3.53,10.93-5,3.36-1.37,4.67-3.62,4.34-7.17a43.55,43.55,0,0,1,.19-5.7"/><path class="cls-4" d="M98.42,40.31a43.55,43.55,0,0,0-.19,5.7c.33,3.55-1,5.8-4.34,7.17-3.71,1.51-7.29,3.35-10.93,5a2.43,2.43,0,0,1-3.52-1.33c-.33-.83,0-2.6.61-3A67,67,0,0,1,89,49.12c2.46-1.06,3.54-2.58,3.39-5.23-.14-2.43-.07-4.88,0-7.31a7,7,0,0,1,3.77-6.36c7-3.9,14.36-6,22.46-4.71,4.72.75,6.64,2.83,6.67,7.54,0,7,0,14,0,21,0,.63.17,1.43-.14,1.85-.74,1-1.62,2.3-2.63,2.49-1.58.31-2.6-1-2.66-2.63-.12-2.75-.07-5.5-.08-8.25q0-3.66,0-7.31c0-1.83-.86-2.79-2.72-2.79-2.37,0-4.74,0-7.1,0-.56,0-1.41.28-1.59.67a1.75,1.75,0,0,0,.48,1.64c4.54,2.53,3.25,5.7,1.22,9.12-1.4,2.36-2.47,4.91-3.87,7.27-1.64,2.77-3.72,3.17-5.11,1a3.67,3.67,0,0,1-.15-3c1-2.38,2.26-4.66,3.48-6.94.92-1.7.93-3.06-.91-4.2-1.44-.9-2.77-2-4.14-3l-.93.32"/><path class="cls-4" d="M132.48,30.77a5.71,5.71,0,0,1-5.66-5.72,5.78,5.78,0,0,1,5.6-5.52A5.87,5.87,0,0,1,138.11,25a5.77,5.77,0,0,1-5.63,5.78"/><text class="cls-5" transform="translate(8.31 86.22)">Describe<tspan class="cls-6" x="35.69" y="0"> </tspan><tspan x="39.66" y="0">el</tspan><tspan class="cls-6" x="46.89" y="0"> </tspan><tspan x="50.85" y="0">ambiente</tspan><tspan class="cls-6" x="89.13" y="0"> </tspan><tspan x="93.09" y="0">o</tspan><tspan class="cls-6" x="98.15" y="0"> </tspan><tspan x="102.11" y="0">contexto </tspan><tspan x="0" y="11.43">espacial</tspan><tspan class="cls-7" x="32.78" y="11.43"> </tspan><tspan x="34.6" y="11.43">en</tspan><tspan class="cls-7" x="44.57" y="11.43"> </tspan><tspan x="46.4" y="11.43">el</tspan><tspan class="cls-7" x="53.63" y="11.43"> </tspan><tspan x="55.46" y="11.43">que</tspan><tspan class="cls-7" x="70.57" y="11.43"> </tspan><tspan x="72.4" y="11.43">se</tspan><tspan class="cls-7" x="81.14" y="11.43"> </tspan><tspan x="82.97" y="11.43">desenvolver치 </tspan><tspan x="0" y="22.86">el</tspan><tspan class="cls-8" x="7.23" y="22.86"> </tspan><tspan x="15.21" y="22.86">personaje</tspan><tspan class="cls-9" x="55.4" y="22.86"> </tspan><tspan x="63.37" y="22.86">(o</tspan><tspan class="cls-10" x="72.07" y="22.86"> </tspan><tspan x="80.05" y="22.86">grupo)</tspan><tspan class="cls-9" x="107.95" y="22.86"> </tspan><tspan x="115.92" y="22.86">y</tspan><tspan class="cls-9" x="120.72" y="22.86"> </tspan><tspan x="128.7" y="22.86">se </tspan><tspan x="0" y="34.3">desarrollar치 la historia.</tspan><tspan x="0" y="45.73">Puede</tspan><tspan class="cls-11" x="25.25" y="45.73"> </tspan><tspan x="29.64" y="45.73">ser</tspan><tspan class="cls-12" x="42.32" y="45.73"> </tspan><tspan x="46.71" y="45.73">una</tspan><tspan class="cls-11" x="61.94" y="45.73"> </tspan><tspan x="66.32" y="45.73">casa,</tspan><tspan class="cls-12" x="85.88" y="45.73"> </tspan><tspan x="90.26" y="45.73">un</tspan><tspan class="cls-11" x="100.84" y="45.73"> </tspan><tspan x="105.23" y="45.73">치rea</tspan><tspan class="cls-13" x="123.12" y="45.73"> </tspan><tspan x="127.51" y="45.73">de </tspan><tspan x="0" y="57.16">trabajo, una oficina, entre otros.</tspan><tspan x="0" y="68.59">Asimismo,</tspan><tspan class="cls-14" x="42.28" y="68.59"> </tspan><tspan x="46.51" y="68.59">especifica</tspan><tspan class="cls-14" x="86.42" y="68.59"> </tspan><tspan x="90.65" y="68.59">el</tspan><tspan class="cls-14" x="97.88" y="68.59"> </tspan><tspan x="102.11" y="68.59">contexto </tspan><tspan x="0" y="80.03">temporal</tspan><tspan class="cls-15" x="37.33" y="80.03"> </tspan><tspan x="43.58" y="80.03">(momento</tspan><tspan class="cls-16" x="86.37" y="80.03"> </tspan><tspan x="92.62" y="80.03">en</tspan><tspan class="cls-17" x="102.59" y="80.03"> </tspan><tspan x="108.84" y="80.03">el</tspan><tspan class="cls-15" x="116.07" y="80.03"> </tspan><tspan x="122.32" y="80.03">que </tspan><tspan x="0" y="91.46">tendr치 lugar el relato).</tspan></text><rect class="cls-18" x="0.25" y="0.25" width="154" height="253" rx="9.78"/></g></g></svg>