<svg xmlns="http://www.w3.org/2000/svg" viewBox="0 0 154.5 253.5"><defs><style>.cls-1{font-size:10.03px;fill:#2b56a4;font-family:Cambria-Bold, Cambria;font-weight:700;}.cls-2{letter-spacing:-0.01em;}.cls-3{letter-spacing:-0.01em;}.cls-4{letter-spacing:-0.06em;}.cls-5{fill:#e91b89;}.cls-6{font-size:9.53px;font-family:Cambria;}.cls-7{letter-spacing:0.19em;}.cls-8{letter-spacing:0.19em;}.cls-9{letter-spacing:-0.02em;}.cls-10{letter-spacing:-0.02em;}.cls-11{letter-spacing:0.49em;}.cls-12{letter-spacing:0.49em;}.cls-13{fill:none;stroke:#000;stroke-miterlimit:10;stroke-width:0.5px;}</style></defs><g id="Capa_2" data-name="Capa 2"><g id="Capa_1-2" data-name="Capa 1"><text class="cls-1" transform="translate(12.32 39.04)">3. CONFLI<tspan class="cls-2" x="44.56" y="0">C</tspan><tspan class="cls-3" x="50.17" y="0">T</tspan><tspan class="cls-4" x="56.45" y="0">O</tspan></text><path class="cls-5" d="M105.72,53.57c-.14-.18-.31-.53-.41-.51a1.4,1.4,0,0,0-.86.44c-.93,1.58-1.83,3.18-2.66,4.81-.15.29.08.77.13,1.15.32-.19.76-.3.92-.58.91-1.55,1.75-3.13,2.61-4.7.09-.18.16-.37.27-.61m-6.24-5.9,0-.45c-.42,0-.91-.15-1.22,0-1.53.86-3,1.76-4.48,2.73-.32.2-.43.72-.63,1.1A3,3,0,0,0,94.31,51c1.52-.85,3-1.78,4.49-2.7a4.31,4.31,0,0,0,.68-.61m34-23.65c0-.15,0-.3-.07-.45-.41,0-.9-.15-1.22,0-1.56.87-3.09,1.8-4.59,2.77-.29.18-.39.66-.58,1,.39,0,.87.17,1.16,0,1.56-.87,3.08-1.81,4.6-2.75a5,5,0,0,0,.7-.61m-20-8h-.13c0-.94,0-1.87,0-2.8,0-.29-.41-.56-.63-.84-.17.28-.48.56-.49.84,0,1.86,0,3.73.09,5.59,0,.27.33.53.51.79.23-.26.62-.51.64-.79.09-.93,0-1.86,0-2.79m.74,42.76h-.08c0-.93.05-1.87,0-2.8,0-.29-.4-.55-.62-.82-.19.3-.56.59-.56.89,0,1.83,0,3.66.15,5.48,0,.31.4.59.61.88.18-.31.48-.62.51-.94.07-.89,0-1.79,0-2.69M122,52.58l-.41,0c0,.37-.23.82-.08,1.08.93,1.66,1.92,3.3,3,4.9.14.22.58.25.89.37,0-.34.24-.77.1-1-.9-1.59-1.86-3.14-2.82-4.69a4.5,4.5,0,0,0-.63-.68M93.15,24c-.23.21-.46.32-.5.47s0,.58.09.65q2.81,1.59,5.67,3.1c.12.06.46-.13.6-.29s.06-.49,0-.55c-1.92-1.14-3.86-2.25-5.82-3.38m31.71-8.17.31-.35c-.27-.1-.56-.32-.79-.27a1.31,1.31,0,0,0-.81.54c-.89,1.54-1.76,3.1-2.57,4.68-.16.31,0,.77,0,1.16.37-.21.88-.34,1.08-.66.88-1.45,1.67-3,2.49-4.45a5.37,5.37,0,0,0,.29-.65M134,50.2c-.23-.39-.28-.63-.43-.72-1.8-1-3.6-2-5.44-3-.17-.1-.54.16-.82.26.12.28.15.69.36.81,1.73,1,3.47,1.93,5.24,2.83.23.12.64-.11,1.09-.21M105.13,21.5a2,2,0,0,0-.08-.32c-1.07-1.78-2.12-3.57-3.22-5.32a.75.75,0,0,0-.72-.15c-.18.17-.36.62-.26.78,1,1.76,2.07,3.5,3.16,5.22a.87.87,0,0,0,.72.24c.16,0,.29-.32.4-.45M93.24,33.66c-3.27,0-6.33,0-9.39,0a4.1,4.1,0,0,0-1.32.54c.46.22.9.61,1.36.62,2.86.06,5.73,0,8.59,0,1.85,0,1.85,0,2.06-1.85,0-.05.11-.08,0,0l4.29,4.35L94.47,41.7c0-.37,0-.8,0-1.23.06-.81-.33-1.08-1.09-1.08-3.28,0-6.55,0-9.82,0-.35,0-.69.37-1,.57.35.2.7.55,1,.56,2.33,0,4.66,0,7,0,2.57,0,2.57,0,2.65,2.49a.64.64,0,0,0,0,.24c.12.28.2.7.41.79a1,1,0,0,0,.82-.29c2-1.94,4-3.89,5.89-5.89a1.21,1.21,0,0,0,0-1.18c-2-2-4-4-6-6-.18-.17-.59-.34-.72-.26a1.11,1.11,0,0,0-.44.77c-.06.72,0,1.45,0,2.37m38.66-.95c0,.63,0,1,0,1.42-.06.83.29,1.17,1.15,1.16,3.22,0,6.46,0,9.69,0,.36,0,.72-.42,1.09-.65-.36-.18-.71-.51-1.07-.51-2.29-.06-4.58,0-6.87,0-2.62,0-2.6,0-2.76-2.62a3.08,3.08,0,0,0-.39-1,3.19,3.19,0,0,0-.93.44c-1.93,1.87-3.82,3.79-5.75,5.67-.51.51-.57.89,0,1.42,1.92,1.88,3.81,3.81,5.73,5.69a1.23,1.23,0,0,0,.92.39c.22-.07.4-.56.42-.88.19-2.23.17-2.23,2.44-2.23h1.59c1.93,0,3.85,0,5.77,0,.31,0,.61-.36.92-.55a10,10,0,0,0-.89-.61c-.12-.07-.32,0-.48,0h-8.22c-2.11,0-2.11,0-2.47,1.88l-4.39-4.4,4.52-4.57m-19.34,3.36a6,6,0,0,1,0-.78c.57-4.16,1.16-8.31,1.7-12.47a3.19,3.19,0,0,0-.31-1.15c-.32.24-.79.4-.94.72q-4,8.63-8,17.28c-.56,1.23-.42,1.45.89,1.46,1.48,0,2.95,0,4.42,0h3.52c0,.53,0,.85,0,1.17-.21,3.21-.45,6.42-.63,9.63,0,.34.25.69.38,1,.29-.16.72-.25.83-.5q3.61-7.62,7.16-15.27c.38-.81,0-1.13-.79-1.13h-8.2"/><path class="cls-5" d="M114.64,48.41l.3,0,5.21-11.18h-7.42c-1.67,0-1.68,0-1.46-1.66.41-2.84.79-5.68,1.18-8.52L112.2,27l-6,12.91c2.62,0,5,0,7.42,0,1.53,0,1.55.06,1.44,1.6-.16,2.29-.29,4.59-.44,6.89m-2.08-12.34h8.2c.82,0,1.17.32.79,1.13q-3.55,7.65-7.16,15.27c-.11.25-.54.34-.83.5-.13-.34-.4-.69-.38-1,.18-3.21.42-6.42.63-9.63,0-.32,0-.64,0-1.17h-3.52c-1.47,0-2.94,0-4.42,0-1.31,0-1.45-.23-.89-1.46q4-8.66,8-17.28c.15-.32.62-.48.94-.72a3.19,3.19,0,0,1,.31,1.15c-.54,4.16-1.13,8.31-1.7,12.47a6,6,0,0,0,0,.78"/><path class="cls-5" d="M131.9,32.71l-4.52,4.57c1.42,1.42,2.92,2.92,4.38,4.4.37-1.88.37-1.88,2.48-1.88h8.22c.16,0,.36-.07.48,0a10,10,0,0,1,.89.61c-.31.19-.61.54-.92.55-1.92,0-3.84,0-5.76,0h-1.6c-2.26,0-2.25,0-2.44,2.23,0,.32-.2.81-.42.88a1.23,1.23,0,0,1-.92-.39C129.85,41.83,128,39.9,126,38c-.55-.53-.49-.91,0-1.42,1.93-1.88,3.82-3.8,5.75-5.67a3.19,3.19,0,0,1,.93-.44,3.08,3.08,0,0,1,.39,1c.16,2.63.14,2.62,2.76,2.62,2.29,0,4.58,0,6.87,0,.36,0,.71.33,1.07.51-.37.23-.73.64-1.09.65-3.23.05-6.46,0-9.7,0-.85,0-1.2-.33-1.14-1.16,0-.39,0-.79,0-1.42"/><path class="cls-5" d="M93.24,33.66c0-.92,0-1.65,0-2.37a1.11,1.11,0,0,1,.44-.77c.13-.08.54.09.72.26,2,2,4,3.95,6,6a1.21,1.21,0,0,1,0,1.18c-1.92,2-3.9,4-5.89,5.89a1,1,0,0,1-.82.29c-.21-.09-.29-.51-.41-.79a.64.64,0,0,1,0-.24c-.08-2.49-.08-2.49-2.65-2.49-2.33,0-4.66,0-7,0-.35,0-.7-.36-1-.56.34-.2.68-.57,1-.57,3.27,0,6.54,0,9.82,0,.76,0,1.15.27,1.09,1.08,0,.43,0,.86,0,1.24,1.54-1.53,3-3,4.41-4.38L94.59,33c.06,0,0,0,0,.05-.21,1.83-.21,1.84-2.06,1.85-2.86,0-5.73,0-8.59,0-.46,0-.9-.4-1.36-.62a4.1,4.1,0,0,1,1.32-.54c3.06,0,6.12,0,9.39,0"/><path class="cls-5" d="M105.13,21.5c-.11.13-.24.43-.41.45a.86.86,0,0,1-.71-.24c-1.09-1.72-2.15-3.45-3.16-5.22-.1-.17.08-.61.26-.78a.75.75,0,0,1,.72.15c1.1,1.75,2.15,3.54,3.21,5.32a1.17,1.17,0,0,1,.09.32"/><path class="cls-5" d="M134,50.2c-.45.1-.86.33-1.09.21-1.77-.9-3.52-1.85-5.24-2.83-.2-.12-.24-.53-.35-.81.27-.1.64-.36.81-.26,1.84,1,3.64,2,5.44,3,.15.09.2.33.43.72"/><path class="cls-5" d="M124.86,15.8a4.76,4.76,0,0,1-.29.65c-.82,1.49-1.61,3-2.49,4.45-.2.32-.71.45-1.08.66,0-.39-.16-.85,0-1.16.81-1.58,1.68-3.14,2.57-4.68a1.35,1.35,0,0,1,.81-.54c.23,0,.52.17.79.27l-.31.35"/><path class="cls-5" d="M93.15,24c2,1.13,3.9,2.24,5.82,3.38.1.06.12.44,0,.55s-.48.35-.6.29q-2.86-1.52-5.67-3.1c-.12-.07-.14-.44-.09-.65s.27-.26.5-.47"/><path class="cls-5" d="M122,52.58a4.5,4.5,0,0,1,.63.68c1,1.55,1.92,3.1,2.82,4.69.14.24-.06.67-.1,1-.31-.12-.75-.15-.89-.37-1-1.6-2-3.23-3-4.9-.15-.26,0-.71.08-1.08l.41,0"/><path class="cls-5" d="M114.21,58.73c0,.9.05,1.8,0,2.69,0,.32-.33.63-.51.94-.21-.29-.59-.57-.61-.88-.1-1.82-.15-3.65-.15-5.48,0-.3.37-.59.56-.89.22.27.59.53.62.82.08.93,0,1.87,0,2.8Z"/><path class="cls-5" d="M113.47,16c0,.93,0,1.86,0,2.79,0,.28-.41.53-.64.79-.18-.26-.5-.52-.51-.79-.07-1.86-.1-3.73-.09-5.59,0-.28.32-.56.49-.84.22.28.6.55.63.84.08.93,0,1.86,0,2.8h.13"/><path class="cls-5" d="M133.51,24a5,5,0,0,1-.7.61c-1.52.94-3,1.88-4.6,2.75-.29.16-.77,0-1.16,0,.19-.35.29-.83.58-1,1.5-1,3-1.9,4.59-2.77.32-.17.81,0,1.22,0,0,.15,0,.3.07.45"/><path class="cls-5" d="M99.48,47.67a5,5,0,0,1-.68.62c-1.49.91-3,1.84-4.49,2.69a3,3,0,0,1-1.21.09c.2-.38.31-.9.63-1.1,1.46-1,3-1.87,4.48-2.73.31-.17.8,0,1.22,0,0,.15,0,.3,0,.45"/><path class="cls-5" d="M105.72,53.57c-.11.24-.18.43-.27.61-.86,1.57-1.7,3.15-2.61,4.7-.16.28-.6.39-.92.58,0-.39-.28-.86-.13-1.15.83-1.63,1.73-3.23,2.66-4.81a1.4,1.4,0,0,1,.86-.44c.1,0,.27.33.41.51"/><text class="cls-6" transform="translate(8.31 86.22)">Describe brevemente los desafíos,<tspan x="0" y="11.43">problemas</tspan><tspan class="cls-7" x="43.42" y="11.43"> </tspan><tspan x="47.31" y="11.43">o</tspan><tspan class="cls-8" x="52.37" y="11.43"> </tspan><tspan x="56.27" y="11.43">puntos</tspan><tspan class="cls-7" x="84.52" y="11.43"> </tspan><tspan x="88.42" y="11.43">críticos</tspan><tspan class="cls-7" x="118.42" y="11.43"> </tspan><tspan x="122.32" y="11.43">que </tspan><tspan x="0" y="22.86">enfrentarán tus personajes.</tspan><tspan x="0" y="34.3">Si</tspan><tspan class="cls-9" x="7.37" y="34.3"> </tspan><tspan x="9.31" y="34.3">el</tspan><tspan class="cls-10" x="16.54" y="34.3"> </tspan><tspan x="18.48" y="34.3">conflicto</tspan><tspan class="cls-9" x="53.65" y="34.3"> </tspan><tspan x="55.59" y="34.3">es</tspan><tspan class="cls-10" x="64.33" y="34.3"> </tspan><tspan x="66.27" y="34.3">con</tspan><tspan class="cls-9" x="80.84" y="34.3"> </tspan><tspan x="82.78" y="34.3">un</tspan><tspan class="cls-9" x="93.36" y="34.3"> </tspan><tspan x="95.3" y="34.3">personaje, </tspan><tspan x="0" y="45.73">especifica</tspan><tspan class="cls-11" x="39.92" y="45.73"> </tspan><tspan x="46.67" y="45.73">sus</tspan><tspan class="cls-12" x="60.12" y="45.73"> </tspan><tspan x="66.87" y="45.73">características</tspan><tspan class="cls-11" x="125.88" y="45.73"> </tspan><tspan x="132.64" y="45.73">y </tspan><tspan x="0" y="57.16">motivaciones.</tspan></text><rect class="cls-13" x="0.25" y="0.25" width="154" height="253" rx="9.78"/></g></g></svg>