<svg xmlns="http://www.w3.org/2000/svg" viewBox="0 0 154.5 253.5"><defs><style>.cls-1{font-size:10.03px;fill:#2b56a4;font-family:Cambria-Bold, Cambria;font-weight:700;}.cls-2{letter-spacing:-0.01em;}.cls-3{letter-spacing:-0.01em;}.cls-4{letter-spacing:-0.06em;}.cls-5{fill:#fcb42d;}.cls-6{font-size:9.53px;font-family:Cambria;}.cls-7{letter-spacing:0.54em;}.cls-8{letter-spacing:0.54em;}.cls-9{letter-spacing:0.45em;}.cls-10{letter-spacing:0.45em;}.cls-11{letter-spacing:0.33em;}.cls-12{letter-spacing:0.33em;}.cls-13{letter-spacing:0.11em;}.cls-14{letter-spacing:0.11em;}.cls-15{letter-spacing:0.42em;}.cls-16{letter-spacing:0.42em;}.cls-17{fill:none;stroke:#000;stroke-miterlimit:10;stroke-width:0.5px;}</style></defs><g id="Capa_2" data-name="Capa 2"><g id="Capa_1-2" data-name="Capa 1"><text class="cls-1" transform="translate(12.63 39.04)">4. PU<tspan class="cls-2" x="23.41" y="0">N</tspan><tspan class="cls-3" x="30.08" y="0">T</tspan><tspan x="36.36" y="0">O CR</tspan><tspan class="cls-3" x="57.93" y="0">Í</tspan><tspan x="61.3" y="0">TIC</tspan><tspan class="cls-4" x="76.97" y="0">O</tspan></text><path class="cls-5" d="M135.67,34.82l-.12.16h-4.37a2.46,2.46,0,0,0-.94.18,1.69,1.69,0,0,0-1,1.87,1.74,1.74,0,0,0,1.75,1.4h9.05a1.74,1.74,0,0,0,1.91-1.9V32.25c0-1.55,0-3.11,0-4.66a1.73,1.73,0,0,0-.59-1.42,1.63,1.63,0,0,0-1.84-.28,1.65,1.65,0,0,0-1,1.63c0,1.62,0,3.25,0,4.87v.49l-.39-.36L119.76,14.21c-.13-.13-.26-.26-.4-.38a1.64,1.64,0,0,0-1.88-.24,1.67,1.67,0,0,0-1,1.63,2,2,0,0,0,.7,1.34l18,18a2.36,2.36,0,0,0,.42.28"/><path class="cls-5" d="M104.06,56.39a7.5,7.5,0,0,1-1-.58,2.09,2.09,0,0,1-.8-1.56c0-.11,0-.22,0-.33V18.07a2.34,2.34,0,0,1,1.46-2.33,2.31,2.31,0,0,1,3.15,1.89,5,5,0,0,1,0,.67V51.74h5.4V29a2.39,2.39,0,0,1,1.28-2.33,2.3,2.3,0,0,1,3.35,1.87c0,.19,0,.39,0,.58V50.48c0,.42,0,.83-.06,1.27h4.32V36.58a2.32,2.32,0,1,1,4.63,0c0,2,0,4.06,0,6.09,0,2.55,0,5.09,0,7.64,0,.49,0,1-.07,1.48H130V49.82c0-2,0-4,0-6a2.32,2.32,0,0,1,3.5-2.11,2.11,2.11,0,0,1,1.11,1.82c0,2.53,0,5.07,0,7.6a4.63,4.63,0,0,1-.09.64H135c1.93,0,3.87,0,5.81,0A2.29,2.29,0,0,1,143,54.9a2.25,2.25,0,0,1-1.32,1.33l-.37.16Z"/><text class="cls-6" transform="translate(8.31 86.22)">Poniendo<tspan class="cls-7" x="38.74" y="0"> </tspan><tspan x="45.95" y="0">a</tspan><tspan class="cls-8" x="50.6" y="0"> </tspan><tspan x="57.81" y="0">prueba</tspan><tspan class="cls-7" x="86.83" y="0"> </tspan><tspan x="94.04" y="0">a</tspan><tspan class="cls-8" x="98.69" y="0"> </tspan><tspan x="105.9" y="0">nuestro </tspan><tspan x="0" y="11.43">héroe.</tspan><tspan x="0" y="22.86">Detalla</tspan><tspan class="cls-9" x="28.65" y="22.86"> </tspan><tspan x="35" y="22.86">con</tspan><tspan class="cls-10" x="49.57" y="22.86"> </tspan><tspan x="55.92" y="22.86">precisión</tspan><tspan class="cls-9" x="93.76" y="22.86"> </tspan><tspan x="100.11" y="22.86">cómo</tspan><tspan class="cls-9" x="122.35" y="22.86"> </tspan><tspan x="128.7" y="22.86">se </tspan><tspan x="0" y="34.3">genera</tspan><tspan class="cls-11" x="27.91" y="34.3"> </tspan><tspan x="33.11" y="34.3">el</tspan><tspan class="cls-12" x="40.34" y="34.3"> </tspan><tspan x="45.54" y="34.3">problema</tspan><tspan class="cls-11" x="84.86" y="34.3"> </tspan><tspan x="90.06" y="34.3">o</tspan><tspan class="cls-12" x="95.12" y="34.3"> </tspan><tspan x="100.31" y="34.3">conflicto, </tspan><tspan x="0" y="45.73">cómo</tspan><tspan class="cls-13" x="22.24" y="45.73"> </tspan><tspan x="25.39" y="45.73">se</tspan><tspan class="cls-14" x="34.13" y="45.73"> </tspan><tspan x="37.29" y="45.73">presenta,</tspan><tspan class="cls-13" x="75.06" y="45.73"> </tspan><tspan x="78.21" y="45.73">qué</tspan><tspan class="cls-14" x="93.33" y="45.73"> </tspan><tspan x="96.48" y="45.73">provoca</tspan><tspan class="cls-13" x="129.49" y="45.73"> </tspan><tspan x="132.64" y="45.73">y </tspan><tspan x="0" y="57.16">cómo</tspan><tspan class="cls-15" x="22.24" y="57.16"> </tspan><tspan x="28.31" y="57.16">reacciona</tspan><tspan class="cls-16" x="67.62" y="57.16"> </tspan><tspan x="73.68" y="57.16">inicialmente</tspan><tspan class="cls-15" x="124.14" y="57.16"> </tspan><tspan x="130.21" y="57.16">el </tspan><tspan x="0" y="68.59">personaje.</tspan></text><rect class="cls-17" x="0.25" y="0.25" width="154" height="253" rx="9.78"/></g></g></svg>