<svg xmlns="http://www.w3.org/2000/svg" viewBox="0 0 154.5 253.5"><defs><style>.cls-1{font-size:10.03px;font-family:Cambria-Bold, Cambria;font-weight:700;}.cls-1,.cls-3{fill:#2b56a4;}.cls-2{letter-spacing:0em;}.cls-4{font-size:9.53px;font-family:Cambria;}.cls-5{letter-spacing:0.2em;}.cls-6{letter-spacing:0.2em;}.cls-7{letter-spacing:0.18em;}.cls-8{letter-spacing:0.18em;}.cls-9{letter-spacing:-0.02em;}.cls-10{letter-spacing:-0.02em;}.cls-11{letter-spacing:0.84em;}.cls-12{letter-spacing:0.84em;}.cls-13{letter-spacing:0.18em;}.cls-14{letter-spacing:0.18em;}.cls-15{letter-spacing:-0.03em;}.cls-16{letter-spacing:-0.03em;}.cls-17{fill:none;stroke:#000;stroke-miterlimit:10;stroke-width:0.5px;}</style></defs><g id="Capa_2" data-name="Capa 2"><g id="Capa_1-2" data-name="Capa 1"><text class="cls-1" transform="translate(12.19 39.04)">6. SUPER<tspan class="cls-2" x="40.99" y="0">A</tspan><tspan x="47.48" y="0">CIÓN</tspan></text><path class="cls-3" d="M129.82,58.93h7.42c-.17-.26-.2-.37-.28-.43l-5-3.84a1.08,1.08,0,0,0-1.82.83c-.13,1.1-.19,2.2-.29,3.44M105.71,18.72l-.61.27a33.57,33.57,0,0,1,0,3.62c-.06.5-.54,1.26-.94,1.34a1.34,1.34,0,0,0-1.22,1.56c0,2.68.07,5.35.06,8q0,6.63-.08,13.24c0,3.35,0,6.69-.14,10,0,1.78.34,2.29,2.17,2.29h20a9.92,9.92,0,0,0,1.27-.13c0-2.74,0-5.24,0-7.74,0-.36.57-.8,1-1a6,6,0,0,1,1.65-.25c-.43-1.81-.81-3.46-1.2-5.1l-.51-.1c-1.29,1.41-2.53,2.85-3.87,4.21-.74.77-1.56,2.11-2.75,1.14-.54-.45-.35-1.79-.55-3.08-1.51-.06-2.47-1.43-3.11-3.15-.19-.51-.41-1-.62-1.5l-.84.56c-.17,1.25-.33,2.5-.5,3.75S114.28,49,112.74,49c-1.22,0-1.88-1.09-1.69-2.77.32-2.71.75-5.41,1.07-8.13a34.4,34.4,0,0,0,.58-6.68,59.14,59.14,0,0,0-1.61-8,2.72,2.72,0,0,0-.76-1.52c-1.48-1.11-3.07-2.1-4.62-3.13M102,16.87c-.17-.51-.31-.7-.29-.89,0-.64-.1-1.55.25-1.83a2.11,2.11,0,0,1,1.88,0c1.84,1,3.56,2.19,5.41,3.17a8.52,8.52,0,0,0,3,1c2.35.28,3.16.94,3.71,3.26,1.3,5.48,2.61,11,2.64,16.62a6.13,6.13,0,0,0,.15,1.28c.52,2.54,2.14,3.37,4.38,2.14,1.64-.89,3.2-1.91,4.57-2.74a20.7,20.7,0,0,1-2.32-3,2.61,2.61,0,0,1,.3-2,2.45,2.45,0,0,1,3.39-.79c1.45.86,1.56,2.24.35,4.67,2.28,1.27,2.25,1.27,2.92,4.12s1.45,5.92,2.21,8.87a5.1,5.1,0,0,0,2.93,3.44,23,23,0,0,1,2.1,1.19c1.23.75,2.18,1.65,1.43,3.46l2.4.39v.17H88.61v-.21A7,7,0,0,1,90,59.12c1.65.24,2-.68,2-2.06,0-3.31,0-6.62-.07-9.93q-.06-9.52-.1-19c0-.59.2-1.18.16-1.76-.08-1,.21-2.35-1.56-2.43-.27,0-.7-.77-.73-1.21-.1-1.33,0-2.68-.05-4S90.19,17,91.39,17c3,0,5.92,0,8.88,0,.51,0,1-.08,1.77-.15"/><path class="cls-3" d="M114.77,14.81a2.57,2.57,0,0,1-5.13,0,2.57,2.57,0,0,1,5.13,0"/><text class="cls-4" transform="translate(8.31 86.22)">Encuentra<tspan class="cls-5" x="42.04" y="0"> </tspan><tspan x="46.07" y="0">una</tspan><tspan class="cls-6" x="61.3" y="0"> </tspan><tspan x="65.34" y="0">forma</tspan><tspan class="cls-5" x="89.8" y="0"> </tspan><tspan x="93.83" y="0">inteligente </tspan><tspan x="0" y="11.43">de enfrentar el desafío.</tspan><tspan x="0" y="22.86">Resuelve</tspan><tspan class="cls-7" x="36.6" y="22.86"> </tspan><tspan x="40.42" y="22.86">de</tspan><tspan class="cls-8" x="50.35" y="22.86"> </tspan><tspan x="54.17" y="22.86">manera</tspan><tspan class="cls-7" x="85.3" y="22.86"> </tspan><tspan x="89.12" y="22.86">creativa</tspan><tspan class="cls-8" x="121.89" y="22.86"> </tspan><tspan x="125.7" y="22.86">los </tspan><tspan x="0" y="34.3">problemas</tspan><tspan class="cls-9" x="43.42" y="34.3"> </tspan><tspan x="45.32" y="34.3">de</tspan><tspan class="cls-9" x="55.25" y="34.3"> </tspan><tspan x="57.15" y="34.3">tu</tspan><tspan class="cls-9" x="65.64" y="34.3"> </tspan><tspan x="67.54" y="34.3">personaje</tspan><tspan class="cls-10" x="107.73" y="34.3"> </tspan><tspan x="109.63" y="34.3">con</tspan><tspan class="cls-9" x="124.21" y="34.3"> </tspan><tspan x="126.11" y="34.3">las </tspan><tspan x="0" y="45.73">fortalezas</tspan><tspan class="cls-11" x="40.07" y="45.73"> </tspan><tspan x="50.14" y="45.73">o</tspan><tspan class="cls-12" x="55.2" y="45.73"> </tspan><tspan x="65.28" y="45.73">habilidades</tspan><tspan class="cls-11" x="112.24" y="45.73"> </tspan><tspan x="122.32" y="45.73">que </tspan><tspan x="0" y="57.16">posee</tspan><tspan class="cls-13" x="23.74" y="57.16"> </tspan><tspan x="27.55" y="57.16">(descritos</tspan><tspan class="cls-13" x="68.38" y="57.16"> </tspan><tspan x="72.19" y="57.16">en</tspan><tspan class="cls-13" x="82.15" y="57.16"> </tspan><tspan x="85.96" y="57.16">el</tspan><tspan class="cls-14" x="93.2" y="57.16"> </tspan><tspan x="97" y="57.16">paso</tspan><tspan class="cls-13" x="116.1" y="57.16"> </tspan><tspan x="119.91" y="57.16">2)</tspan><tspan class="cls-13" x="128.83" y="57.16"> </tspan><tspan x="132.64" y="57.16">y </tspan><tspan x="0" y="68.59">los</tspan><tspan class="cls-15" x="11.74" y="68.59"> </tspan><tspan x="13.54" y="68.59">nuevos</tspan><tspan class="cls-16" x="42.72" y="68.59"> </tspan><tspan x="44.53" y="68.59">recursos</tspan><tspan class="cls-15" x="79.76" y="68.59"> </tspan><tspan x="81.57" y="68.59">desarrollados </tspan><tspan x="0" y="80.03">(detallados en el paso 4).</tspan></text><rect class="cls-17" x="0.25" y="0.25" width="154" height="253" rx="9.78"/></g></g></svg>