<svg xmlns="http://www.w3.org/2000/svg" xmlns:xlink="http://www.w3.org/1999/xlink" viewBox="0 0 154.5 266.15"><defs><style>.cls-1,.cls-30,.cls-6{fill:none;}.cls-2{clip-path:url(#clip-path);}.cls-3{font-size:10.03px;}.cls-3,.cls-5{fill:#1951a4;}.cls-22,.cls-3,.cls-7{font-family:Cambria-Bold, Cambria;font-weight:700;}.cls-4{letter-spacing:0.01em;}.cls-6{stroke:#1951a4;stroke-width:0.37px;}.cls-30,.cls-6{stroke-miterlimit:10;}.cls-22,.cls-7{font-size:8.02px;}.cls-10,.cls-11,.cls-12,.cls-16,.cls-17,.cls-18,.cls-19,.cls-20,.cls-21,.cls-25,.cls-26,.cls-27,.cls-8,.cls-9{font-family:Cambria;font-weight:400;}.cls-8{letter-spacing:0.03em;}.cls-10{letter-spacing:0.03em;}.cls-11{letter-spacing:1.5em;}.cls-12{letter-spacing:1.5em;}.cls-13{letter-spacing:0.09em;}.cls-14{letter-spacing:-0.01em;}.cls-15{letter-spacing:-0.01em;}.cls-16{letter-spacing:0.09em;}.cls-17{letter-spacing:0.25em;}.cls-18{letter-spacing:0.25em;}.cls-19{letter-spacing:0.56em;}.cls-20{letter-spacing:0em;}.cls-21{letter-spacing:0em;}.cls-22{fill:#fff;letter-spacing:0.01em;}.cls-23,.cls-26{letter-spacing:0.35em;}.cls-24,.cls-27{letter-spacing:0.01em;}.cls-25{letter-spacing:0.35em;}.cls-28{letter-spacing:0.9em;}.cls-29{letter-spacing:0.04em;}.cls-30{stroke:#010101;stroke-width:0.5px;}</style><clipPath id="clip-path"><rect class="cls-1" x="0.25" y="0.25" width="154" height="253" rx="9.78"/></clipPath></defs><g id="Capa_2" data-name="Capa 2"><g id="Capa_1-2" data-name="Capa 1"><g class="cls-2"><rect x="0.25" y="205.77" width="154" height="47.48"/></g><text class="cls-3" transform="translate(46.43 29.09)">TRANSFOR<tspan class="cls-4" x="50.68" y="0">M</tspan><tspan x="59.24" y="0">ADOR</tspan></text><path class="cls-5" d="M39.26,30a12.81,12.81,0,0,0,1.4,0,.71.71,0,0,0,.47-.34,6.92,6.92,0,0,0,.34-1.18A3,3,0,0,0,41,26.1l-2.59,1.17A2.6,2.6,0,0,1,39.26,30M14.59,26.12l-.09.09a1,1,0,0,0-.11.17,4.46,4.46,0,0,0,.12,3.51.25.25,0,0,0,.19.14h1.82a2.24,2.24,0,0,1,.63-2.78l-2.56-1.13m20,10a11.9,11.9,0,0,0,1.62-6.07c.42,0,.8-.08,1.18-.1a.77.77,0,0,0,.75-.67.84.84,0,0,0-.36-1,2.49,2.49,0,0,0-1.68-.44,38.27,38.27,0,0,1-11.19.8,47.89,47.89,0,0,1-5.31-.79,4,4,0,0,0-1.81.4c-.11,0-.23.22-.26.36-.14.75.25,1.54,1.08,1.41a4.56,4.56,0,0,1,.89.05,10.88,10.88,0,0,0,1.76,6.37,5.91,5.91,0,0,1,5-2.77V29.73h1.09v2.69a1.13,1.13,0,0,0,1.24,1.27c.4,0,.8,0,1.2,0a5.06,5.06,0,0,1,2.91.88c.65.45,1.22,1,1.87,1.56m2-12.78H17.8l1.28-3.24a11.19,11.19,0,0,0-4.64,2.06c-.89.78-.92,1.62,0,2.33a10.46,10.46,0,0,0,2.44,1.37,27.56,27.56,0,0,0,9.56,1.62c1.81,0,3.62-.18,5.43-.24a20.32,20.32,0,0,0,7.5-1.67,7.53,7.53,0,0,0,2-1.32,1.15,1.15,0,0,0,0-1.84,5.62,5.62,0,0,0-1.19-.93,16.26,16.26,0,0,0-5-1.67.9.9,0,0,0-.24,0c.55,1.17,1.08,2.3,1.63,3.49m-1.78-1.12c-1.53-3.23-3-6.37-4.48-9.52l-2.72,1-.42-1.06c.86-.33,1.68-.65,2.52-.94a.85.85,0,0,0,.59-.65c.17-.68.38-1.36.58-2.05L35,9.35a1.15,1.15,0,0,0-.15-.21C33.53,8.05,32.17,7,30.8,5.88a.66.66,0,0,0-.58,0c-1.55.91-3.08,1.84-4.62,2.77-.13.08-.24.17-.4.28l1.33,1.5-.84.75L24.46,9.84c-1.67,4.16-3.32,8.25-5,12.39ZM27.94,52.6l.13-.21c1.29-2,2.62-4,3.84-6a15,15,0,0,0,2.37-6.57,4.58,4.58,0,0,0-4.17-5,34.46,34.46,0,0,0-4.19,0,4.56,4.56,0,0,0-4.34,4.67,11.23,11.23,0,0,0,1.07,4.33,41.54,41.54,0,0,0,3.77,6.44c.48.74,1,1.48,1.52,2.31M20.56,40.88A10.38,10.38,0,0,0,16,43.07a6.37,6.37,0,0,0-2.36,4.42l-1-.12a5.27,5.27,0,0,1,.71-2.66c1.36-2.61,3.7-3.92,6.4-4.73.53-.16.9-.32.76-.95a0,0,0,0,1,0-.05c.45-1-.05-1.86-.58-2.72a10.8,10.8,0,0,1-1.43-4.43c-.09-.7-.11-.72-.8-.64a7.31,7.31,0,0,1-.81,0c-.86,0-1.73,0-2.59,0a.49.49,0,0,1-.56-.39A6.94,6.94,0,0,1,13,27.91a4.62,4.62,0,0,1,.52-2.16.5.5,0,0,0,0-.69,2.36,2.36,0,0,1,.24-3.69,10.49,10.49,0,0,1,4.27-2.1,1.88,1.88,0,0,1,.45-.12c1.08,0,1.47-.75,1.81-1.65,1.1-2.88,2.27-5.74,3.44-8.6a1.77,1.77,0,0,1,.65-.76c1.95-1.21,3.92-2.39,5.89-3.58.15-.09.31-.16.47-.25l7.85,6.31s0,.07,0,.11l-2.21-.15c-1.46-.12-2.91-.25-4.37-.35-.1,0-.26.16-.3.28a2.93,2.93,0,0,0,.11,2.61c.89,1.63,1.6,3.36,2.41,5a.8.8,0,0,0,.52.39,20.21,20.21,0,0,1,6,1.94,6.54,6.54,0,0,1,1.63,1.28A2.25,2.25,0,0,1,42.21,25a4.28,4.28,0,0,1-.3.33,4.46,4.46,0,0,1,.64,3.58,13.65,13.65,0,0,1-.59,2c-.05.13-.37.22-.57.23-1.13,0-2.27,0-3.4,0-.24,0-.48,0-.73.05A11.63,11.63,0,0,1,36,35.77a3.71,3.71,0,0,0-.66,3.11c.31.95.13,1,1.14,1.3a10.25,10.25,0,0,1,5.84,4.21,6.81,6.81,0,0,1,1,3.09l-1,.14a18.24,18.24,0,0,0-.61-2,7.93,7.93,0,0,0-4.54-4c-.5-.21-1-.35-1.53-.52-.24-.09-.4-.06-.46.23a21.26,21.26,0,0,1-3.06,6.86c-.69,1.08-1.41,2.16-2.11,3.23s-1.38,2.13-2.12,3.25c-.66-1-1.31-2-1.94-3-1.11-1.74-2.26-3.47-3.31-5.25a16.6,16.6,0,0,1-2.12-5.53"/><path class="cls-6" d="M39.26,30a12.81,12.81,0,0,0,1.4,0,.71.71,0,0,0,.47-.34,6.92,6.92,0,0,0,.34-1.18A3,3,0,0,0,41,26.1l-2.59,1.17A2.6,2.6,0,0,1,39.26,30ZM14.59,26.12l-.09.09a1,1,0,0,0-.11.17,4.46,4.46,0,0,0,.12,3.51.25.25,0,0,0,.19.14h1.82a2.24,2.24,0,0,1,.63-2.78Zm20,10a11.9,11.9,0,0,0,1.62-6.07c.42,0,.8-.08,1.18-.1a.77.77,0,0,0,.75-.67.84.84,0,0,0-.36-1,2.49,2.49,0,0,0-1.68-.44,38.27,38.27,0,0,1-11.19.8,47.89,47.89,0,0,1-5.31-.79,4,4,0,0,0-1.81.4c-.11,0-.23.22-.26.36-.14.75.25,1.54,1.08,1.41a4.56,4.56,0,0,1,.89.05,10.88,10.88,0,0,0,1.76,6.37,5.91,5.91,0,0,1,5-2.77V29.73h1.09v2.69a1.13,1.13,0,0,0,1.24,1.27c.4,0,.8,0,1.2,0a5.06,5.06,0,0,1,2.91.88C33.35,35,33.92,35.58,34.57,36.13Zm2-12.78H17.8l1.28-3.24a11.19,11.19,0,0,0-4.64,2.06c-.89.78-.92,1.62,0,2.33a10.46,10.46,0,0,0,2.44,1.37,27.56,27.56,0,0,0,9.56,1.62c1.81,0,3.62-.18,5.43-.24a20.32,20.32,0,0,0,7.5-1.67,7.53,7.53,0,0,0,2-1.32,1.15,1.15,0,0,0,0-1.84,5.62,5.62,0,0,0-1.19-.93,16.26,16.26,0,0,0-5-1.67.9.9,0,0,0-.24,0C35.47,21,36,22.16,36.55,23.35Zm-1.78-1.12c-1.53-3.23-3-6.37-4.48-9.52l-2.72,1-.42-1.06c.86-.33,1.68-.65,2.52-.94a.85.85,0,0,0,.59-.65c.17-.68.38-1.36.58-2.05L35,9.35a1.15,1.15,0,0,0-.15-.21C33.53,8.05,32.17,7,30.8,5.88a.66.66,0,0,0-.58,0c-1.55.91-3.08,1.84-4.62,2.77-.13.08-.24.17-.4.28l1.33,1.5-.84.75L24.46,9.84c-1.67,4.16-3.32,8.25-5,12.39ZM27.94,52.6l.13-.21c1.29-2,2.62-4,3.84-6a15,15,0,0,0,2.37-6.57,4.58,4.58,0,0,0-4.17-5,34.46,34.46,0,0,0-4.19,0,4.56,4.56,0,0,0-4.34,4.67,11.23,11.23,0,0,0,1.07,4.33,41.54,41.54,0,0,0,3.77,6.44C26.9,51,27.39,51.77,27.94,52.6ZM20.56,40.88A10.38,10.38,0,0,0,16,43.07a6.37,6.37,0,0,0-2.36,4.42l-1-.12a5.27,5.27,0,0,1,.71-2.66c1.36-2.61,3.7-3.92,6.4-4.73.53-.16.9-.32.76-.95a0,0,0,0,1,0-.05c.45-1-.05-1.86-.58-2.72a10.8,10.8,0,0,1-1.43-4.43c-.09-.7-.11-.72-.8-.64a7.31,7.31,0,0,1-.81,0c-.86,0-1.73,0-2.59,0a.49.49,0,0,1-.56-.39A6.94,6.94,0,0,1,13,27.91a4.62,4.62,0,0,1,.52-2.16.5.5,0,0,0,0-.69,2.36,2.36,0,0,1,.24-3.69,10.49,10.49,0,0,1,4.27-2.1,1.88,1.88,0,0,1,.45-.12c1.08,0,1.47-.75,1.81-1.65,1.1-2.88,2.27-5.74,3.44-8.6a1.77,1.77,0,0,1,.65-.76c1.95-1.21,3.92-2.39,5.89-3.58.15-.09.31-.16.47-.25l7.85,6.31s0,.07,0,.11l-2.21-.15c-1.46-.12-2.91-.25-4.37-.35-.1,0-.26.16-.3.28a2.93,2.93,0,0,0,.11,2.61c.89,1.63,1.6,3.36,2.41,5a.8.8,0,0,0,.52.39,20.21,20.21,0,0,1,6,1.94,6.54,6.54,0,0,1,1.63,1.28A2.25,2.25,0,0,1,42.21,25a4.28,4.28,0,0,1-.3.33,4.46,4.46,0,0,1,.64,3.58,13.65,13.65,0,0,1-.59,2c-.05.13-.37.22-.57.23-1.13,0-2.27,0-3.4,0-.24,0-.48,0-.73.05A11.63,11.63,0,0,1,36,35.77a3.71,3.71,0,0,0-.66,3.11c.31.95.13,1,1.14,1.3a10.25,10.25,0,0,1,5.84,4.21,6.81,6.81,0,0,1,1,3.09l-1,.14a18.24,18.24,0,0,0-.61-2,7.93,7.93,0,0,0-4.54-4c-.5-.21-1-.35-1.53-.52-.24-.09-.4-.06-.46.23a21.26,21.26,0,0,1-3.06,6.86c-.69,1.08-1.41,2.16-2.11,3.23s-1.38,2.13-2.12,3.25c-.66-1-1.31-2-1.94-3-1.11-1.74-2.26-3.47-3.31-5.25A16.6,16.6,0,0,1,20.56,40.88Z"/><rect class="cls-5" x="22.48" y="29.45" width="1.19" height="1.2"/><rect class="cls-6" x="22.48" y="29.45" width="1.19" height="1.2"/><rect class="cls-5" x="30.55" y="29.45" width="1.2" height="1.19"/><rect class="cls-6" x="30.55" y="29.45" width="1.2" height="1.19"/><text class="cls-7" transform="translate(9.68 64.35)">Objetivo.<tspan class="cls-8" x="33.14" y="0"> </tspan><tspan class="cls-9" x="35.16" y="0">Ayudar</tspan><tspan class="cls-10" x="60.32" y="0"> </tspan><tspan class="cls-9" x="62.34" y="0">a</tspan><tspan class="cls-8" x="66.26" y="0"> </tspan><tspan class="cls-9" x="68.27" y="0">los</tspan><tspan class="cls-10" x="78.16" y="0"> </tspan><tspan class="cls-9" x="80.17" y="0">demás</tspan><tspan class="cls-8" x="102.58" y="0"> </tspan><tspan class="cls-9" x="104.59" y="0">a</tspan><tspan class="cls-10" x="108.51" y="0"> </tspan><tspan class="cls-9" x="110.53" y="0">confiar </tspan><tspan class="cls-9"><tspan x="0" y="9.63">en sí mismos y encontrar su potencial.</tspan></tspan><tspan x="0" y="19.25">Características.</tspan><tspan class="cls-11" x="56.79" y="19.25"> </tspan><tspan class="cls-9" x="70.57" y="19.25">Es</tspan><tspan class="cls-12" x="78.63" y="19.25"> </tspan><tspan class="cls-9" x="92.4" y="19.25">imaginativo, </tspan><tspan class="cls-9"><tspan x="0" y="28.88">soñador,</tspan><tspan class="cls-13" x="29.77" y="28.88"> </tspan><tspan x="32.28" y="28.88">carismático</tspan><tspan class="cls-13" x="72.06" y="28.88"> </tspan><tspan x="74.56" y="28.88">e</tspan><tspan class="cls-13" x="78.48" y="28.88"> </tspan><tspan x="80.98" y="28.88">intuitivo.</tspan><tspan class="cls-13" x="111.95" y="28.88"> </tspan><tspan x="114.46" y="28.88">Busca </tspan><tspan x="0" y="38.51">el</tspan><tspan class="cls-14" x="6.09" y="38.51"> </tspan><tspan x="7.79" y="38.51">conocimiento</tspan><tspan class="cls-14" x="54.36" y="38.51"> </tspan><tspan x="56.06" y="38.51">y</tspan><tspan class="cls-15" x="60.11" y="38.51"> </tspan><tspan x="61.81" y="38.51">lo</tspan><tspan class="cls-14" x="68.25" y="38.51"> </tspan><tspan x="69.95" y="38.51">usa</tspan><tspan class="cls-14" x="81.74" y="38.51"> </tspan><tspan x="83.45" y="38.51">para</tspan><tspan class="cls-14" x="99.06" y="38.51"> </tspan><tspan x="100.76" y="38.51">encontrar </tspan><tspan x="0" y="48.14">soluciones beneficiosas para todos.</tspan></tspan><tspan x="0" y="57.76">Competencias.</tspan><tspan class="cls-16" x="53.51" y="57.76"> </tspan><tspan class="cls-9" x="56.01" y="57.76">Genera</tspan><tspan class="cls-16" x="80.45" y="57.76"> </tspan><tspan class="cls-9" x="82.96" y="57.76">cambios</tspan><tspan class="cls-16" x="111.41" y="57.76"> </tspan><tspan class="cls-9" x="113.92" y="57.76">en</tspan><tspan class="cls-16" x="122.31" y="57.76"> </tspan><tspan class="cls-9" x="124.81" y="57.76">los </tspan><tspan class="cls-9"><tspan x="0" y="67.39">demás. Es motivador e inspirador.</tspan></tspan><tspan x="0" y="77.02">Debilidades.</tspan><tspan class="cls-17" x="45.85" y="77.02"> </tspan><tspan class="cls-9" x="49.6" y="77.02">Trata</tspan><tspan class="cls-18" x="68.22" y="77.02"> </tspan><tspan class="cls-9" x="71.96" y="77.02">de</tspan><tspan class="cls-17" x="80.33" y="77.02"> </tspan><tspan class="cls-9" x="84.07" y="77.02">imponer</tspan><tspan class="cls-18" x="113.41" y="77.02"> </tspan><tspan class="cls-9" x="117.15" y="77.02">a</tspan><tspan class="cls-17" x="121.07" y="77.02"> </tspan><tspan class="cls-9" x="124.82" y="77.02">los </tspan><tspan class="cls-9"><tspan x="0" y="86.65">demás su visión del mundo.</tspan></tspan><tspan x="0" y="96.27">Temores.</tspan><tspan class="cls-19" x="34.6" y="96.27"> </tspan><tspan class="cls-9" x="40.84" y="96.27">Teme</tspan><tspan class="cls-19" x="60.09" y="96.27"> </tspan><tspan class="cls-9" x="66.33" y="96.27">no</tspan><tspan class="cls-19" x="75.06" y="96.27"> </tspan><tspan class="cls-9" x="81.3" y="96.27">ser</tspan><tspan class="cls-19" x="91.98" y="96.27"> </tspan><tspan class="cls-9" x="98.22" y="96.27">fuente</tspan><tspan class="cls-19" x="120.1" y="96.27"> </tspan><tspan class="cls-9" x="126.33" y="96.27">de </tspan><tspan class="cls-9"><tspan x="0" y="105.9">inspiración.</tspan></tspan><tspan x="0" y="115.53">Estrategia.</tspan><tspan class="cls-20" x="39.28" y="115.53"> </tspan><tspan class="cls-9" x="41.08" y="115.53">Logra</tspan><tspan class="cls-20" x="60.85" y="115.53"> </tspan><tspan class="cls-9" x="62.65" y="115.53">que</tspan><tspan class="cls-21" x="75.38" y="115.53"> </tspan><tspan class="cls-9" x="77.19" y="115.53">los</tspan><tspan class="cls-20" x="87.07" y="115.53"> </tspan><tspan class="cls-9" x="88.87" y="115.53">sueños</tspan><tspan class="cls-20" x="112.84" y="115.53"> </tspan><tspan class="cls-9" x="114.65" y="115.53">de</tspan><tspan class="cls-20" x="123.01" y="115.53"> </tspan><tspan class="cls-9" x="124.81" y="115.53">los </tspan><tspan class="cls-9"><tspan x="0" y="125.15">demás se cumplan.</tspan></tspan></text><text class="cls-22" transform="translate(9.68 217.5)">Lado<tspan class="cls-23" x="18.26" y="0"> </tspan><tspan class="cls-24" x="22.83" y="0">negativo.</tspan><tspan class="cls-25" x="56.97" y="0"> </tspan><tspan class="cls-9" x="61.53" y="0">Utiliza</tspan><tspan class="cls-26" x="83.98" y="0"> </tspan><tspan class="cls-27" x="88.54" y="0">su</tspan><tspan class="cls-25" x="96.52" y="0"> </tspan><tspan class="cls-9" x="101.08" y="0">poder</tspan><tspan class="cls-26" x="121.72" y="0"> </tspan><tspan class="cls-27" x="126.29" y="0">de </tspan><tspan class="cls-9"><tspan x="0" y="9.63">convencimiento</tspan><tspan class="cls-28" x="55.41" y="9.63"> </tspan><tspan class="cls-24" x="64.42" y="9.63">para</tspan><tspan class="cls-28" x="80.23" y="9.63"> </tspan><tspan class="cls-24" x="89.24" y="9.63">controlar</tspan><tspan class="cls-28" x="121.65" y="9.63"> </tspan><tspan class="cls-24" x="130.66" y="9.63">y </tspan><tspan x="0" y="19.25">manipular</tspan><tspan class="cls-29" x="36.04" y="19.25"> </tspan><tspan class="cls-24" x="38.13" y="19.25">a</tspan><tspan class="cls-29" x="42.09" y="19.25"> </tspan><tspan x="44.18" y="19.25">los</tspan><tspan class="cls-29" x="54.21" y="19.25"> </tspan><tspan class="cls-24" x="56.3" y="19.25">demás,</tspan><tspan class="cls-29" x="80.64" y="19.25"> </tspan><tspan class="cls-24" x="82.73" y="19.25">y</tspan><tspan class="cls-29" x="86.82" y="19.25"> </tspan><tspan x="88.91" y="19.25">conseguir</tspan><tspan class="cls-29" x="122.92" y="19.25"> </tspan><tspan x="125.01" y="19.25">así </tspan><tspan x="0" y="28.88">aumentar el suyo.</tspan></tspan></text><rect class="cls-30" x="0.25" y="0.25" width="154" height="253" rx="9.78"/></g></g></svg>