<svg xmlns="http://www.w3.org/2000/svg" xmlns:xlink="http://www.w3.org/1999/xlink" viewBox="0 0 154.5 259.87"><defs><style>.cls-1,.cls-35{fill:none;}.cls-2{clip-path:url(#clip-path);}.cls-3{font-size:10.03px;}.cls-3,.cls-6{fill:#d49326;}.cls-26,.cls-3,.cls-7{font-family:Cambria-Bold, Cambria;font-weight:700;}.cls-4{letter-spacing:-0.05em;}.cls-5{letter-spacing:0em;}.cls-26,.cls-7{font-size:8.02px;}.cls-10,.cls-11,.cls-12,.cls-19,.cls-20,.cls-21,.cls-22,.cls-24,.cls-25,.cls-29,.cls-30,.cls-31,.cls-8,.cls-9{font-family:Cambria;font-weight:400;}.cls-8{letter-spacing:0.33em;}.cls-10{letter-spacing:0.33em;}.cls-11{letter-spacing:0.42em;}.cls-12{letter-spacing:0.42em;}.cls-13{letter-spacing:0em;}.cls-14{letter-spacing:0em;}.cls-15{letter-spacing:0.35em;}.cls-16{letter-spacing:0.58em;}.cls-17{letter-spacing:0.58em;}.cls-18,.cls-20{letter-spacing:-0.01em;}.cls-19{letter-spacing:0.71em;}.cls-21{letter-spacing:0.31em;}.cls-22{letter-spacing:0.31em;}.cls-23,.cls-24{letter-spacing:-0.04em;}.cls-25{letter-spacing:-0.04em;}.cls-26{fill:#fff;letter-spacing:0.01em;}.cls-27,.cls-29{letter-spacing:0.2em;}.cls-28,.cls-30{letter-spacing:0.01em;}.cls-31{letter-spacing:0.2em;}.cls-32{letter-spacing:0.67em;}.cls-33{letter-spacing:0.06em;}.cls-34{letter-spacing:0.06em;}.cls-35{stroke:#010101;stroke-miterlimit:10;stroke-width:0.5px;}</style><clipPath id="clip-path"><rect class="cls-1" x="0.25" y="0.25" width="154" height="253" rx="9.78"/></clipPath></defs><g id="Capa_2" data-name="Capa 2"><g id="Capa_1-2" data-name="Capa 1"><g class="cls-2"><rect x="0.25" y="194.22" width="154" height="59.03"/></g><text class="cls-3" transform="translate(51.21 29.8)"><tspan xml:space="preserve">     OPTIMIS</tspan><tspan class="cls-4" x="51.22" y="0">T</tspan><tspan class="cls-5" x="57.12" y="0">A</tspan></text><path class="cls-6" d="M26.53,25.15l.89-1.22c.51-.7.51-.7,0-1.4-.28-.4-.57-.78-.9-1.23-.47.65-.87,1.19-1.26,1.75a.36.36,0,0,0,0,.32c.39.57.8,1.12,1.28,1.78M38.6,23.22c.39.55.78,1.07,1.14,1.6.2.3.35.22.52,0,.31-.45.64-.88.94-1.34.07-.09.13-.28.08-.35-.39-.59-.82-1.17-1.29-1.83L38.6,23.22m13.7,2.4a1.42,1.42,0,1,0,0-2.84,1.45,1.45,0,0,0-1.43,1.42,1.43,1.43,0,0,0,1.47,1.42m-38,0a1.43,1.43,0,1,0-1.46-1.39,1.44,1.44,0,0,0,1.46,1.39M40.09,8.55A1.46,1.46,0,0,0,38.63,10a1.52,1.52,0,0,0,1.45,1.43A1.46,1.46,0,0,0,41.52,10a1.43,1.43,0,0,0-1.43-1.41m-6.84,17.6a1.54,1.54,0,0,0,.29-.23c.59-.82,1.18-1.64,1.74-2.48a.52.52,0,0,0,0-.47c-.56-.81-1.14-1.59-1.7-2.39-.21-.31-.39-.31-.6,0q-.83,1.17-1.68,2.34a.43.43,0,0,0,0,.61c.56.76,1.09,1.54,1.64,2.31a2.49,2.49,0,0,0,.33.31M43.47,31c0-.8,0-1.55,0-2.29,0-.46-.13-.59-.59-.59-3.68,0-7.37,0-11.05,0-2.73,0-5.47,0-8.2,0-.47,0-.62.15-.59.6a12.81,12.81,0,0,1,0,1.64c0,.5.11.65.63.65,6.4,0,12.8,0,19.2,0ZM25,32c0,1.5,0,3,0,4.41a8.71,8.71,0,0,0,.25,2,8.25,8.25,0,0,0,16.14-.86c.15-1.37.08-2.78.11-4.17,0-.44,0-.89,0-1.35Zm18.73-.08a2.62,2.62,0,0,1-1,4.24c-.12,0-.22.27-.23.42A9.26,9.26,0,0,1,24.1,37.68s0-.1,0-.15a1.84,1.84,0,0,0-1-1.82,2.49,2.49,0,0,1-.29-3.77A1.56,1.56,0,0,1,22,30.31c0-.5,0-1,0-1.5,0-1.2.28-1.53,1.44-1.73a6.33,6.33,0,0,0-6.82-3.49c.08,1.54-.42,2.47-1.55,2.9a2.52,2.52,0,0,1-2.73-.71,2.45,2.45,0,0,1-.19-2.88,2.5,2.5,0,0,1,2.92-1,8.36,8.36,0,0,1,5.84-4.67,8.6,8.6,0,0,1,7.33,1.63c.05-.7.07-1.35.14-2a9,9,0,0,1,7.37-7.68,7.2,7.2,0,0,1,1.54,0A.58.58,0,0,0,38,8.78,2.43,2.43,0,0,1,40.6,7.59a2.47,2.47,0,0,1,1.91,2.17,2.45,2.45,0,0,1-3.69,2.32,9,9,0,0,0-1.55,7.35c4.12-4.35,11.82-2.72,14.15,2.45,1.52-.25,2.5.15,3,1.25a2.45,2.45,0,0,1-.46,2.8,2.46,2.46,0,0,1-4.12-2.3A6.29,6.29,0,0,0,43,27.08l.32.05a1.2,1.2,0,0,1,1.12,1.25c0,.8,0,1.6,0,2.39a1.31,1.31,0,0,1-.75,1.17"/><path class="cls-6" d="M30.56,39.8h5.37a2.62,2.62,0,0,1-2.58,2.7,2.68,2.68,0,0,1-2.79-2.7"/><path class="cls-6" d="M30.68,35a1.23,1.23,0,1,1-1.23-1.22A1.23,1.23,0,0,1,30.68,35"/><path class="cls-6" d="M38.41,35a1.23,1.23,0,1,1-1.23-1.22A1.23,1.23,0,0,1,38.41,35"/><text class="cls-7" transform="translate(9.68 55.33)">Objetivo.<tspan class="cls-8" x="33.14" y="0"> </tspan><tspan class="cls-9" x="37.6" y="0">Hacer</tspan><tspan class="cls-10" x="57.79" y="0"> </tspan><tspan class="cls-9" x="62.24" y="0">feliz</tspan><tspan class="cls-8" x="76.64" y="0"> </tspan><tspan class="cls-9" x="81.09" y="0">a</tspan><tspan class="cls-8" x="85.01" y="0"> </tspan><tspan class="cls-9" x="89.46" y="0">los</tspan><tspan class="cls-10" x="99.35" y="0"> </tspan><tspan class="cls-9" x="103.8" y="0">demás</tspan><tspan class="cls-8" x="126.2" y="0"> </tspan><tspan class="cls-9" x="130.65" y="0">y </tspan><tspan class="cls-9"><tspan x="0" y="9.63">generar un ambiente de alegría.</tspan></tspan><tspan x="0" y="19.25">Características.</tspan><tspan class="cls-11" x="56.79" y="19.25"> </tspan><tspan class="cls-9" x="61.93" y="19.25">Usa</tspan><tspan class="cls-12" x="74.49" y="19.25"> </tspan><tspan class="cls-9" x="79.62" y="19.25">el</tspan><tspan class="cls-11" x="85.71" y="19.25"> </tspan><tspan class="cls-9" x="90.84" y="19.25">humor</tspan><tspan class="cls-11" x="113.95" y="19.25"> </tspan><tspan class="cls-9" x="119.08" y="19.25">para </tspan><tspan class="cls-9"><tspan x="0" y="28.88">generar</tspan><tspan class="cls-13" x="26.82" y="28.88"> </tspan><tspan x="28.55" y="28.88">cambios</tspan><tspan class="cls-14" x="57" y="28.88"> </tspan><tspan x="58.73" y="28.88">y</tspan><tspan class="cls-13" x="62.77" y="28.88"> </tspan><tspan x="64.5" y="28.88">disminuir</tspan><tspan class="cls-13" x="97.99" y="28.88"> </tspan><tspan x="99.71" y="28.88">la</tspan><tspan class="cls-13" x="105.81" y="28.88"> </tspan><tspan x="107.54" y="28.88">tensión. </tspan><tspan x="0" y="38.51">Es</tspan><tspan class="cls-15" x="8.06" y="38.51"> </tspan><tspan x="12.67" y="38.51">alegre,</tspan><tspan class="cls-15" x="35.52" y="38.51"> </tspan><tspan x="40.12" y="38.51">divertido,</tspan><tspan class="cls-15" x="73.38" y="38.51"> </tspan><tspan x="77.98" y="38.51">impulsivo,</tspan><tspan class="cls-15" x="113.58" y="38.51"> </tspan><tspan x="118.18" y="38.51">poco </tspan><tspan x="0" y="48.14">convencional,</tspan><tspan class="cls-16" x="46.95" y="48.14"> </tspan><tspan x="53.35" y="48.14">enérgico,</tspan><tspan class="cls-17" x="84.6" y="48.14"> </tspan><tspan x="91" y="48.14">ingenioso</tspan><tspan class="cls-16" x="124.26" y="48.14"> </tspan><tspan x="130.66" y="48.14">y </tspan><tspan x="0" y="57.76">bromista.</tspan></tspan><tspan class="cls-18"><tspan x="0" y="67.39">Competencias.</tspan><tspan class="cls-19" x="52.46" y="67.39"> </tspan><tspan class="cls-9" x="59.96" y="67.39">Optimista,</tspan><tspan class="cls-19" x="94.43" y="67.39"> </tspan><tspan class="cls-9" x="101.92" y="67.39">dinámico, </tspan></tspan><tspan class="cls-20"><tspan x="0" y="77.02">flexible y tolera la frustración.</tspan></tspan><tspan x="0" y="86.65">Debilidades.</tspan><tspan class="cls-21" x="45.85" y="86.65"> </tspan><tspan class="cls-9" x="50.08" y="86.65">No</tspan><tspan class="cls-22" x="59.8" y="86.65"> </tspan><tspan class="cls-9" x="64.03" y="86.65">toma</tspan><tspan class="cls-21" x="81.59" y="86.65"> </tspan><tspan class="cls-9" x="85.82" y="86.65">las</tspan><tspan class="cls-21" x="95.36" y="86.65"> </tspan><tspan class="cls-9" x="99.59" y="86.65">cosas</tspan><tspan class="cls-21" x="118.2" y="86.65"> </tspan><tspan class="cls-9" x="122.42" y="86.65">con </tspan><tspan class="cls-9"><tspan x="0" y="96.27">seriedad.</tspan></tspan><tspan x="0" y="105.9">Temores.</tspan><tspan class="cls-9" x="34.6" y="105.9" xml:space="preserve"> Teme aburrir a los demás.</tspan><tspan x="0" y="115.53">Estrategia.</tspan><tspan class="cls-23" x="39.28" y="115.53"> </tspan><tspan class="cls-9" x="40.74" y="115.53">Busca</tspan><tspan class="cls-24" x="60.97" y="115.53"> </tspan><tspan class="cls-9" x="62.43" y="115.53">el</tspan><tspan class="cls-25" x="68.52" y="115.53"> </tspan><tspan class="cls-9" x="69.98" y="115.53">lado</tspan><tspan class="cls-24" x="84.78" y="115.53"> </tspan><tspan class="cls-9" x="86.24" y="115.53">positivo</tspan><tspan class="cls-24" x="113.88" y="115.53"> </tspan><tspan class="cls-9" x="115.34" y="115.53">de</tspan><tspan class="cls-25" x="123.7" y="115.53"> </tspan><tspan class="cls-9" x="125.16" y="115.53">las </tspan><tspan class="cls-9"><tspan x="0" y="125.15">cosas.</tspan></tspan></text><text class="cls-26" transform="translate(9.68 211.22)">Lado<tspan class="cls-27" x="18.26" y="0"> </tspan><tspan class="cls-28" x="21.62" y="0">negativo.</tspan><tspan class="cls-29" x="55.76" y="0"> </tspan><tspan class="cls-30" x="59.11" y="0">Es</tspan><tspan class="cls-31" x="67.27" y="0"> </tspan><tspan class="cls-9" x="70.62" y="0">superficial</tspan><tspan class="cls-31" x="107.24" y="0"> </tspan><tspan class="cls-9" x="110.59" y="0">y</tspan><tspan class="cls-31" x="114.68" y="0"> </tspan><tspan class="cls-9" x="118.04" y="0">poco </tspan><tspan class="cls-9"><tspan x="0" y="9.63">comprometido.</tspan><tspan class="cls-32" x="53.02" y="9.63"> </tspan><tspan x="60.17" y="9.63">Genera</tspan><tspan class="cls-32" x="84.9" y="9.63"> </tspan><tspan x="92.06" y="9.63">pérdida</tspan><tspan class="cls-32" x="119.13" y="9.63"> </tspan><tspan x="126.29" y="9.63">de </tspan><tspan x="0" y="19.25">tiempo</tspan><tspan class="cls-33" x="24.54" y="19.25"> </tspan><tspan class="cls-28" x="26.79" y="19.25">porque</tspan><tspan class="cls-33" x="51.85" y="19.25"> </tspan><tspan class="cls-28" x="54.1" y="19.25">no</tspan><tspan class="cls-34" x="62.93" y="19.25"> </tspan><tspan x="65.18" y="19.25">asume</tspan><tspan class="cls-33" x="87.8" y="19.25"> </tspan><tspan class="cls-28" x="90.05" y="19.25">con</tspan><tspan class="cls-33" x="102.47" y="19.25"> </tspan><tspan class="cls-28" x="104.72" y="19.25">seriedad </tspan><tspan x="0" y="28.88">sus responsabilidades.</tspan></tspan></text><rect class="cls-35" x="0.25" y="0.25" width="154" height="253" rx="9.78"/></g></g></svg>