<svg xmlns="http://www.w3.org/2000/svg" xmlns:xlink="http://www.w3.org/1999/xlink" viewBox="0 0 154.5 256.98"><defs><style>.cls-1,.cls-30{fill:none;}.cls-2{clip-path:url(#clip-path);}.cls-3{font-size:10.03px;}.cls-3,.cls-4{fill:#39ac49;}.cls-26,.cls-3,.cls-5{font-family:Cambria-Bold, Cambria;font-weight:700;}.cls-26,.cls-5{font-size:8.02px;}.cls-5{letter-spacing:-0.02em;}.cls-11,.cls-12,.cls-19,.cls-20,.cls-21,.cls-22,.cls-23,.cls-24,.cls-25,.cls-29,.cls-6,.cls-7,.cls-8{font-family:Cambria;font-weight:400;}.cls-6{letter-spacing:0.06em;}.cls-8{letter-spacing:0.06em;}.cls-9{letter-spacing:0.85em;}.cls-10{letter-spacing:0.85em;}.cls-11{letter-spacing:-0.03em;}.cls-12,.cls-15{letter-spacing:-0.02em;}.cls-13{letter-spacing:0.12em;}.cls-14{letter-spacing:0.12em;}.cls-16{letter-spacing:0.01em;}.cls-17{letter-spacing:0.01em;}.cls-18{letter-spacing:0.17em;}.cls-19{letter-spacing:0.42em;}.cls-20{letter-spacing:0.42em;}.cls-21{letter-spacing:0.07em;}.cls-22{letter-spacing:-0.05em;}.cls-23{letter-spacing:-0.05em;}.cls-24{letter-spacing:0.71em;}.cls-25{letter-spacing:0.71em;}.cls-26{fill:#fff;letter-spacing:-0.02em;}.cls-27,.cls-29{letter-spacing:0.24em;}.cls-28{letter-spacing:-0.01em;}.cls-30{stroke:#010101;stroke-miterlimit:10;stroke-width:0.5px;}</style><clipPath id="clip-path"><rect class="cls-1" x="0.25" y="0.25" width="154" height="253" rx="9.78"/></clipPath></defs><g id="Capa_2" data-name="Capa 2"><g id="Capa_1-2" data-name="Capa 1"><g class="cls-2"><rect x="0.25" y="207.2" width="154" height="46.05"/></g><text class="cls-3" transform="translate(3.85 29.09)"><tspan xml:space="preserve">                    COMPROMETIDO</tspan></text><path class="cls-4" d="M35.68,36.64a1.15,1.15,0,0,0,1.16,0c1.41-.72,2.85-1.39,4.27-2.08l.31-.19-.05-.17a13.27,13.27,0,0,0-1.67.46c-.82.35-1.6.77-2.4,1.16l-1.62.79m9.63-.46a1.17,1.17,0,0,0-.68-1.92,3,3,0,0,0-2.23.27l-5.25,2.56-.25.15.39.8,4.62-2.25a2.7,2.7,0,0,1,3.4.39m-13.76-.34c.73-.39,1.46-.81,2.21-1.2a8.75,8.75,0,0,0,3.83-3.27,5.33,5.33,0,0,0-.17-6.1A3,3,0,0,0,34.24,24a3.54,3.54,0,0,0-2.42,2l-.26.51c-.2-.36-.34-.66-.52-.94A3.15,3.15,0,0,0,25.9,25a4.86,4.86,0,0,0-1.14,4.5,7,7,0,0,0,3.64,4.65c1,.59,2.1,1.14,3.15,1.71M29.76,23.22a6.24,6.24,0,0,1,1-4.79c.45,3,1,4.55,2,5.33,1.71-2.54,1.38-5.3.85-8.09a5.94,5.94,0,0,1,2.19,3,9,9,0,0,1,.34,3.73A5.31,5.31,0,0,0,39,19.75a11,11,0,0,1-.08,4.08l1.54-.45c-.07.88-.27,1.25-1.81,3.41a4.91,4.91,0,0,0,3.28-6.31l-1.29,1-.08-.09c.81-2.32,1.37-4.61-.71-6.72a3.55,3.55,0,0,1-1.19,2.22A7.5,7.5,0,0,0,35.28,11c-.14.92-.27,1.78-.42,2.75a17.85,17.85,0,0,1-3.65-6.77,13.72,13.72,0,0,0-1.33,6.16,6.71,6.71,0,0,1-2.11-2.9A6.61,6.61,0,0,0,26.54,13c-.16,1-.2,2-.29,3a4.19,4.19,0,0,1-1.84-2A9.31,9.31,0,0,0,23.26,19c-.41-.32-.74-.58-1.16-.89-.15.9-.35,1.75-.43,2.61a6.16,6.16,0,0,0,1.09,4.63,4.57,4.57,0,0,0,1.73,1.4c-1.2-1.87-1.42-3.65-1.13-4.28a3.71,3.71,0,0,0,2.05,1.92c-.26-1.52-.26-1.85-.07-2.21l1.26.69c.09-2,.42-2.89,1.18-3.28a4,4,0,0,0,2,3.66M13.14,42.49c.57-.15,1.1-.26,1.61-.44a6.36,6.36,0,0,1,5.88.69,9.53,9.53,0,0,0,3.42,1.5,24.1,24.1,0,0,0,5.56.32c1.08,0,2.15-.12,3.22-.23A8.4,8.4,0,0,0,37.05,43c2.33-1.64,4.68-3.27,7-4.92a2.59,2.59,0,0,0,.69-.78.71.71,0,0,0-.33-1.08,2.38,2.38,0,0,0-2.26.12c-1.57.75-3.13,1.52-4.69,2.28a.77.77,0,0,0-.37.31,2.36,2.36,0,0,1-1.8,1.26,15.7,15.7,0,0,1-7.4-.3c-.59-.18-1.18-.36-1.76-.58-.11-.05-.16-.28-.24-.42a2.5,2.5,0,0,1,.45-.12.7.7,0,0,1,.26.08,15.42,15.42,0,0,0,8,.84,5.28,5.28,0,0,0,1.44-.47A1.06,1.06,0,0,0,36.61,38a1,1,0,0,0-.84-.87,5.9,5.9,0,0,0-1.26-.1,12.33,12.33,0,0,1-6.4-1.54A12.57,12.57,0,0,0,21.8,34a17.88,17.88,0,0,0-4.64.72c-1.81.46-3.63.84-5.5,1.27.49,2.17,1,4.31,1.48,6.51"/><path class="cls-4" d="M45.31,36.18a2.7,2.7,0,0,0-3.4-.39L37.29,38l-.39-.8.25-.15,5.25-2.56a3,3,0,0,1,2.23-.27,1.17,1.17,0,0,1,.68,1.92"/><text class="cls-5" transform="translate(9.68 55.33)">Objetivos.<tspan class="cls-6" x="35.54" y="0"> </tspan><tspan class="cls-7" x="37.76" y="0">Crear</tspan><tspan class="cls-6" x="56.1" y="0"> </tspan><tspan class="cls-7" x="58.31" y="0">relaciones,</tspan><tspan class="cls-8" x="93.73" y="0"> </tspan><tspan class="cls-7" x="95.95" y="0">conexiones, </tspan><tspan class="cls-7"><tspan x="0" y="9.63">experiencias</tspan><tspan class="cls-9" x="41.7" y="9.63"> </tspan><tspan x="50.27" y="9.63">y</tspan><tspan class="cls-9" x="54.18" y="9.63"> </tspan><tspan x="62.75" y="9.63">cercanía</tspan><tspan class="cls-10" x="90.57" y="9.63"> </tspan><tspan x="99.15" y="9.63">entre</tspan><tspan class="cls-10" x="116.84" y="9.63"> </tspan><tspan x="125.42" y="9.63">las </tspan><tspan x="0" y="19.25">personas.</tspan></tspan><tspan x="0" y="28.88">Características.</tspan><tspan class="cls-11" x="54.74" y="28.88"> </tspan><tspan class="cls-7" x="56.23" y="28.88">Es</tspan><tspan class="cls-11" x="64.04" y="28.88"> </tspan><tspan class="cls-12" x="65.53" y="28.88">idealista,</tspan><tspan class="cls-11" x="94.89" y="28.88"> </tspan><tspan class="cls-7" x="96.38" y="28.88">agradecido, </tspan><tspan class="cls-7"><tspan x="0" y="38.51">sensible</tspan><tspan class="cls-13" x="26.97" y="38.51"> </tspan><tspan x="29.66" y="38.51">y</tspan><tspan class="cls-14" x="33.58" y="38.51"> </tspan><tspan x="36.27" y="38.51">desprendido,</tspan><tspan class="cls-13" x="79.75" y="38.51"> </tspan><tspan class="cls-15" x="82.44" y="38.51">y</tspan><tspan class="cls-13" x="86.36" y="38.51"> </tspan><tspan x="89.06" y="38.51">busca</tspan><tspan class="cls-14" x="108.14" y="38.51"> </tspan><tspan x="110.83" y="38.51">satisfa</tspan><tspan x="132.03" y="38.51">-</tspan><tspan x="0" y="48.14">cer</tspan><tspan class="cls-16" x="10.38" y="48.14"> </tspan><tspan x="12.19" y="48.14">los</tspan><tspan class="cls-17" x="21.69" y="48.14"> </tspan><tspan x="23.5" y="48.14">deseos</tspan><tspan class="cls-17" x="46.16" y="48.14"> </tspan><tspan x="47.97" y="48.14">de</tspan><tspan class="cls-17" x="56.07" y="48.14"> </tspan><tspan x="57.88" y="48.14">los</tspan><tspan class="cls-17" x="67.38" y="48.14"> </tspan><tspan x="69.19" y="48.14">demás.</tspan><tspan class="cls-17" x="92.46" y="48.14"> </tspan><tspan x="94.27" y="48.14">Es</tspan><tspan class="cls-17" x="102.08" y="48.14"> </tspan><tspan x="103.89" y="48.14">empático </tspan><tspan x="0" y="57.76">y</tspan><tspan class="cls-18" x="3.91" y="57.76"> </tspan><tspan x="7.03" y="57.76">entiende</tspan><tspan class="cls-18" x="36.09" y="57.76"> </tspan><tspan x="39.2" y="57.76">cómo</tspan><tspan class="cls-18" x="57.42" y="57.76"> </tspan><tspan x="60.53" y="57.76">llevarse</tspan><tspan class="cls-18" x="86.41" y="57.76"> </tspan><tspan x="89.52" y="57.76">bien</tspan><tspan class="cls-18" x="104.02" y="57.76"> </tspan><tspan x="107.13" y="57.76">con</tspan><tspan class="cls-18" x="119.02" y="57.76"> </tspan><tspan x="122.13" y="57.76">una </tspan><tspan x="0" y="67.39">amplia variedad de personas.</tspan></tspan><tspan x="0" y="77.02">Competencias.</tspan><tspan class="cls-19" x="51.84" y="77.02"> </tspan><tspan class="cls-7" x="56.99" y="77.02">Comprometido,</tspan><tspan class="cls-19" x="108.69" y="77.02"> </tspan><tspan class="cls-7" x="113.84" y="77.02">leal</tspan><tspan class="cls-20" x="125.51" y="77.02"> </tspan><tspan class="cls-7" x="130.66" y="77.02">y </tspan><tspan class="cls-7"><tspan x="0" y="86.65">diplomático.</tspan></tspan><tspan x="0" y="96.27">Debilidades.</tspan><tspan class="cls-21" x="44.31" y="96.27"> </tspan><tspan class="cls-7" x="46.65" y="96.27">Le</tspan><tspan class="cls-21" x="54.61" y="96.27"> </tspan><tspan class="cls-12" x="56.96" y="96.27">cuesta</tspan><tspan class="cls-21" x="78.15" y="96.27"> </tspan><tspan class="cls-12" x="80.49" y="96.27">manejar</tspan><tspan class="cls-21" x="107.94" y="96.27"> </tspan><tspan class="cls-12" x="110.29" y="96.27">conflic</tspan><tspan class="cls-7" x="132.03" y="96.27">-</tspan><tspan class="cls-7"><tspan x="0" y="105.9">tos y defender sus ideas.</tspan></tspan><tspan x="0" y="115.53">Temores.</tspan><tspan class="cls-22" x="33.57" y="115.53"> </tspan><tspan class="cls-7" x="34.97" y="115.53">Tiene</tspan><tspan class="cls-22" x="53.62" y="115.53"> </tspan><tspan class="cls-7" x="55.01" y="115.53">miedo</tspan><tspan class="cls-22" x="75.9" y="115.53"> </tspan><tspan class="cls-7" x="77.3" y="115.53">de</tspan><tspan class="cls-23" x="85.4" y="115.53"> </tspan><tspan class="cls-7" x="86.8" y="115.53">la</tspan><tspan class="cls-22" x="92.64" y="115.53"> </tspan><tspan class="cls-7" x="94.04" y="115.53">soledad</tspan><tspan class="cls-22" x="119.75" y="115.53"> </tspan><tspan class="cls-7" x="121.15" y="115.53">y</tspan><tspan class="cls-23" x="125.06" y="115.53"> </tspan><tspan class="cls-7" x="126.46" y="115.53">de </tspan><tspan class="cls-7"><tspan x="0" y="125.15">no ser apreciado.</tspan></tspan><tspan x="0" y="134.78">Estrategia.</tspan><tspan class="cls-24" x="37.87" y="134.78"> </tspan><tspan class="cls-12" x="45.3" y="134.78">Busca</tspan><tspan class="cls-25" x="64.9" y="134.78"> </tspan><tspan class="cls-7" x="72.33" y="134.78">que</tspan><tspan class="cls-25" x="84.68" y="134.78"> </tspan><tspan class="cls-7" x="92.11" y="134.78">haya</tspan><tspan class="cls-25" x="107.9" y="134.78"> </tspan><tspan class="cls-7" x="115.34" y="134.78">unión </tspan><tspan class="cls-7"><tspan x="0" y="144.41">entre todos.</tspan></tspan></text><text class="cls-26" transform="translate(9.68 227.59)">Lado<tspan class="cls-27" x="17.59" y="0"> </tspan><tspan class="cls-28" x="21.24" y="0">negativo.</tspan><tspan class="cls-29" x="53.86" y="0"> </tspan><tspan class="cls-7" x="57.52" y="0">Usa</tspan><tspan class="cls-29" x="69.72" y="0"> </tspan><tspan class="cls-7" x="73.37" y="0">a</tspan><tspan class="cls-29" x="77.17" y="0"> </tspan><tspan class="cls-7" x="80.82" y="0">los</tspan><tspan class="cls-29" x="90.34" y="0"> </tspan><tspan class="cls-7" x="93.99" y="0">demás</tspan><tspan class="cls-29" x="115.79" y="0"> </tspan><tspan class="cls-7" x="119.44" y="0">para </tspan><tspan class="cls-7"><tspan x="0" y="9.63">obtener aquello que desea. Dependencia.</tspan></tspan></text><rect class="cls-30" x="0.25" y="0.25" width="154" height="253" rx="9.78"/></g></g></svg>