<svg xmlns="http://www.w3.org/2000/svg" xmlns:xlink="http://www.w3.org/1999/xlink" viewBox="0 0 154.5 253.5"><defs><style>.cls-1,.cls-28{fill:none;}.cls-2{clip-path:url(#clip-path);}.cls-3{font-size:10.03px;}.cls-3,.cls-4{fill:#cf1f26;}.cls-22,.cls-3,.cls-5{font-family:Cambria-Bold, Cambria;font-weight:700;}.cls-22,.cls-5{font-size:8.02px;}.cls-15,.cls-16,.cls-17,.cls-18,.cls-20,.cls-21,.cls-25,.cls-26,.cls-27,.cls-6,.cls-7,.cls-8,.cls-9{font-family:Cambria;font-weight:400;}.cls-6{letter-spacing:0.57em;}.cls-8{letter-spacing:0.57em;}.cls-9{letter-spacing:0.17em;}.cls-10{letter-spacing:0.11em;}.cls-11{letter-spacing:0.41em;}.cls-12{letter-spacing:0.41em;}.cls-13{letter-spacing:0.36em;}.cls-14{letter-spacing:0.36em;}.cls-15{letter-spacing:0.04em;}.cls-16{letter-spacing:0.04em;}.cls-17{letter-spacing:0.13em;}.cls-18{letter-spacing:0.13em;}.cls-19,.cls-20{letter-spacing:0.28em;}.cls-21{letter-spacing:0.28em;}.cls-22{fill:#fff;letter-spacing:0.01em;}.cls-23,.cls-26{letter-spacing:1em;}.cls-24,.cls-27{letter-spacing:0.01em;}.cls-25{letter-spacing:1em;}.cls-28{stroke:#010101;stroke-miterlimit:10;stroke-width:0.5px;}</style><clipPath id="clip-path"><rect class="cls-1" x="0.25" y="0.25" width="154" height="253" rx="9.78"/></clipPath></defs><g id="Capa_2" data-name="Capa 2"><g id="Capa_1-2" data-name="Capa 1"><g class="cls-2"><rect x="0.25" y="207.2" width="154" height="46.05"/></g><text class="cls-3" transform="translate(48.42 25.63)">LÍDER</text><path class="cls-4" d="M20.33,12.25h-.09a4.47,4.47,0,0,1-.4-.6c-.19-.39-.66-.68-.43-1.24,0-.07-.16-.31-.28-.33a.5.5,0,0,0-.44.16.82.82,0,0,0,.07.52c.07.18.28.34.3.52.08.8.14,1.61.17,2.41,0,.3.09.42.4.42,3.55,0,7.1,0,10.65,0,.3,0,.4-.08.42-.4,0-.8.08-1.61.16-2.41,0-.17.19-.33.26-.5a1.19,1.19,0,0,0,.1-.57c0-.08-.35-.19-.44-.13s-.2.3-.25.48,0,.27,0,.37c-.26.45-.55.88-.9,1.43-.06-.9-.12-1.67-.18-2.45A.89.89,0,0,1,29.78,9a.45.45,0,0,0,0-.69.55.55,0,0,0-.73-.16c-.42.23-.43.57,0,1.1l-2,2.72c-.56-1-1.1-2-1.61-3.05a.43.43,0,0,1,.08-.37.72.72,0,0,0-.06-1,.79.79,0,0,0-1,0,.67.67,0,0,0-.06,1,.36.36,0,0,1,.05.5l-.87,1.62c-.23.44-.47.87-.72,1.32l-2-2.74L21,9.15c.29-.34.32-.66.06-.9a.61.61,0,0,0-.88.05c-.24.29-.18.57.16.89a.59.59,0,0,1,.18.36c0,.9-.1,1.8-.15,2.7M25,26.65c.49-.07,1-.11,1.46-.21A7,7,0,0,0,32,20a6.46,6.46,0,0,0-1.07-4.15.66.66,0,0,0-.48-.27h-11a.68.68,0,0,0-.48.27A6.82,6.82,0,0,0,18.07,21,7.13,7.13,0,0,0,25,26.65m11.87,11.7h.11c-.14-2.09-.32-4.18-.43-6.27a3,3,0,0,0-1.33-2.35,12.85,12.85,0,0,0-4.64-2.22.7.7,0,0,0-.45,0c-.3.14-.57.33-.86.47a9.5,9.5,0,0,1-5.57.9,9.86,9.86,0,0,1-3.74-1.32.82.82,0,0,0-.56-.07,11.47,11.47,0,0,0-4.59,2.22,2.62,2.62,0,0,0-1.18,1.46,30,30,0,0,0-.46,5.09c-.07,1.44,0,2.89,0,4.33a.49.49,0,0,0,.37.55c1.45.53,2.88,1.14,4.35,1.62a22.5,22.5,0,0,0,5.81,1.08,23.1,23.1,0,0,0,6.09-.47,34.84,34.84,0,0,0,6.83-2.26.44.44,0,0,0,.29-.48c0-.77,0-1.54,0-2.31"/><text class="cls-5" transform="translate(9.68 55.33)">Objetivo.<tspan class="cls-6" x="33.14" y="0"> </tspan><tspan class="cls-7" x="39.47" y="0">Crear</tspan><tspan class="cls-6" x="58.45" y="0"> </tspan><tspan class="cls-7" x="64.77" y="0">un</tspan><tspan class="cls-8" x="73.68" y="0"> </tspan><tspan class="cls-7" x="80" y="0">equipo</tspan><tspan class="cls-6" x="103.68" y="0"> </tspan><tspan class="cls-7" x="110" y="0">exitoso </tspan><tspan class="cls-7"><tspan x="0" y="9.63">ejerciendo el liderazgo.</tspan></tspan><tspan x="0" y="19.25">Características.</tspan><tspan class="cls-9" x="56.8" y="19.25"> </tspan><tspan class="cls-7" x="59.96" y="19.25">Ayuda</tspan><tspan class="cls-9" x="81.8" y="19.25"> </tspan><tspan class="cls-7" x="84.96" y="19.25">a</tspan><tspan class="cls-9" x="88.88" y="19.25"> </tspan><tspan class="cls-7" x="92.04" y="19.25">mantener</tspan><tspan class="cls-9" x="125.45" y="19.25"> </tspan><tspan class="cls-7" x="128.61" y="19.25">el </tspan><tspan class="cls-7"><tspan x="0" y="28.88">orden,</tspan><tspan class="cls-10" x="22.06" y="28.88"> </tspan><tspan x="24.74" y="28.88">la</tspan><tspan class="cls-10" x="30.83" y="28.88"> </tspan><tspan x="33.51" y="28.88">estabilidad</tspan><tspan class="cls-10" x="71.35" y="28.88"> </tspan><tspan x="74.02" y="28.88">y</tspan><tspan class="cls-10" x="78.07" y="28.88"> </tspan><tspan x="80.74" y="28.88">la</tspan><tspan class="cls-10" x="86.84" y="28.88"> </tspan><tspan x="89.51" y="28.88">seguridad</tspan><tspan class="cls-10" x="123.63" y="28.88"> </tspan><tspan x="126.31" y="28.88">en </tspan><tspan x="0" y="38.51">un</tspan><tspan class="cls-11" x="8.91" y="38.51"> </tspan><tspan x="13.94" y="38.51">grupo.</tspan><tspan class="cls-12" x="36.02" y="38.51"> </tspan><tspan x="41.06" y="38.51">Establece</tspan><tspan class="cls-11" x="73.68" y="38.51"> </tspan><tspan x="78.72" y="38.51">mecanismos</tspan><tspan class="cls-11" x="121.3" y="38.51"> </tspan><tspan x="126.33" y="38.51">de </tspan><tspan x="0" y="48.14">monitoreo</tspan><tspan class="cls-13" x="36.1" y="48.14"> </tspan><tspan x="40.8" y="48.14">y</tspan><tspan class="cls-14" x="44.84" y="48.14"> </tspan><tspan x="49.53" y="48.14">control</tspan><tspan class="cls-13" x="74.27" y="48.14"> </tspan><tspan x="78.97" y="48.14">para</tspan><tspan class="cls-14" x="94.58" y="48.14"> </tspan><tspan x="99.28" y="48.14">garantizar </tspan><tspan x="0" y="57.76">que se cumplan los objetivos.</tspan></tspan><tspan x="0" y="67.39">Competencias.</tspan><tspan class="cls-15" x="53.51" y="67.39"> </tspan><tspan class="cls-7" x="55.56" y="67.39">Líder,</tspan><tspan class="cls-15" x="75.42" y="67.39"> </tspan><tspan class="cls-7" x="77.47" y="67.39">responsable</tspan><tspan class="cls-15" x="119.19" y="67.39"> </tspan><tspan class="cls-7" x="121.24" y="67.39">y</tspan><tspan class="cls-16" x="125.29" y="67.39"> </tspan><tspan class="cls-7" x="127.34" y="67.39">se </tspan><tspan class="cls-7"><tspan x="0" y="77.02">comunica de forma eficaz.</tspan></tspan><tspan x="0" y="86.65">Debilidades.</tspan><tspan class="cls-17" x="45.85" y="86.65"> </tspan><tspan class="cls-7" x="48.64" y="86.65">Puede</tspan><tspan class="cls-17" x="69.9" y="86.65"> </tspan><tspan class="cls-7" x="72.7" y="86.65">actuar</tspan><tspan class="cls-18" x="94.53" y="86.65"> </tspan><tspan class="cls-7" x="97.32" y="86.65">de</tspan><tspan class="cls-17" x="105.69" y="86.65"> </tspan><tspan class="cls-7" x="108.48" y="86.65">manera </tspan><tspan class="cls-7"><tspan x="0" y="96.27">autoritaria.</tspan></tspan><tspan x="0" y="105.9">Temores.</tspan><tspan class="cls-19" x="34.6" y="105.9"> </tspan><tspan class="cls-7" x="38.59" y="105.9">Odia</tspan><tspan class="cls-20" x="54.42" y="105.9"> </tspan><tspan class="cls-7" x="58.41" y="105.9">el</tspan><tspan class="cls-21" x="64.5" y="105.9"> </tspan><tspan class="cls-7" x="68.49" y="105.9">caos,</tspan><tspan class="cls-20" x="85.3" y="105.9"> </tspan><tspan class="cls-7" x="89.29" y="105.9">y</tspan><tspan class="cls-20" x="93.33" y="105.9"> </tspan><tspan class="cls-7" x="97.32" y="105.9">le</tspan><tspan class="cls-21" x="103.41" y="105.9"> </tspan><tspan class="cls-7" x="107.4" y="105.9">teme</tspan><tspan class="cls-20" x="124.61" y="105.9"> </tspan><tspan class="cls-7" x="128.6" y="105.9">al </tspan><tspan class="cls-7"><tspan x="0" y="115.53">fracaso y a ser derrocado.</tspan></tspan><tspan x="0" y="125.15">Estrategia. </tspan><tspan class="cls-7" x="41.05" y="125.15">Ejerce el poder.</tspan></text><text class="cls-22" transform="translate(9.68 223.8)">Lado<tspan class="cls-23" x="18.26" y="0"> </tspan><tspan class="cls-24" x="28.01" y="0">negativo.</tspan><tspan class="cls-25" x="62.15" y="0"> </tspan><tspan class="cls-7" x="71.9" y="0">Autoritarismo</tspan><tspan class="cls-26" x="121.04" y="0"> </tspan><tspan class="cls-27" x="130.79" y="0">e </tspan><tspan class="cls-7"><tspan x="0" y="9.63">incapacidad para delegar.</tspan></tspan></text><rect class="cls-28" x="0.25" y="0.25" width="154" height="253" rx="9.78"/></g></g></svg>