<svg xmlns="http://www.w3.org/2000/svg" xmlns:xlink="http://www.w3.org/1999/xlink" viewBox="0 0 154.5 255.2"><defs><style>.cls-1,.cls-24{fill:none;}.cls-2{font-size:10.03px;}.cls-2,.cls-7{fill:#39ac49;}.cls-10,.cls-11,.cls-15,.cls-16,.cls-19,.cls-2,.cls-20,.cls-21,.cls-22,.cls-27,.cls-9{font-family:Cambria;}.cls-25,.cls-3,.cls-4,.cls-5,.cls-8{font-family:Cambria-Bold, Cambria;font-weight:700;}.cls-4{letter-spacing:-0.01em;}.cls-5{letter-spacing:-0.05em;}.cls-25,.cls-6{fill:#fff;}.cls-25,.cls-8{font-size:8.02px;}.cls-10,.cls-11,.cls-15,.cls-16,.cls-19,.cls-20,.cls-21,.cls-22,.cls-27,.cls-9{font-weight:400;}.cls-9{letter-spacing:0.05em;}.cls-11{letter-spacing:0.05em;}.cls-12{letter-spacing:0.18em;}.cls-13{letter-spacing:0.01em;}.cls-14{letter-spacing:0.01em;}.cls-15{letter-spacing:0.22em;}.cls-16{letter-spacing:0.22em;}.cls-17{letter-spacing:0.47em;}.cls-18{letter-spacing:0.47em;}.cls-19{letter-spacing:0.14em;}.cls-20{letter-spacing:0.14em;}.cls-21{letter-spacing:0.06em;}.cls-22{letter-spacing:0.06em;}.cls-23{clip-path:url(#clip-path);}.cls-24{stroke:#010101;stroke-miterlimit:10;stroke-width:0.5px;}.cls-25{letter-spacing:0.01em;}.cls-26,.cls-27{letter-spacing:0.77em;}</style><clipPath id="clip-path"><rect class="cls-1" x="0.25" y="0.25" width="154" height="253" rx="9.78"/></clipPath></defs><g id="Capa_2" data-name="Capa 2"><g id="Capa_1-2" data-name="Capa 1"><text class="cls-2" transform="translate(41.81 28.38)"><tspan xml:space="preserve">   </tspan><tspan class="cls-3" x="6.63" y="0">ESPO</tspan><tspan class="cls-4" x="30.69" y="0">N</tspan><tspan class="cls-5" x="37.37" y="0">T</tspan><tspan class="cls-3" x="43.25" y="0">ÁNEO</tspan></text><path class="cls-6" d="M30.85,9.94C27.93,8.57,25.51,8.4,23,9.5a1.93,1.93,0,0,1-2-.07,3.1,3.1,0,0,0-3.69.19,2.67,2.67,0,0,0-.65,3.48c1.13,1.71,1.25,3.57,1.67,5.43a8,8,0,0,0,8.25,5.94c4.08-.12,7.37-2.66,8-6.47a10.8,10.8,0,0,1,1.44-4.66,2.86,2.86,0,0,0-.48-3.62,3.25,3.25,0,0,0-3.69-.38c-.34.17-.65.38-1,.6"/><path class="cls-6" d="M20.19,22.85c-.63,2.28-1.3,4.45-1.83,6.65-.33,1.34-.42,2.73-.69,4.08a1.37,1.37,0,0,1-.72.81,3.54,3.54,0,0,0-2.3,3.28c-.08,2.57,2.23,5,5.2,5.45,2.48.41,4.07-.73,4.92-3.51h2.75c.65,2.15,1.41,3,3.07,3.36a6.36,6.36,0,0,0,7-3.68,3.51,3.51,0,0,0-1.7-4.66,1.34,1.34,0,0,1-.62-.9,50.49,50.49,0,0,0-2.65-10.86c-4.1,3-8.17,3-12.4,0"/><path class="cls-6" d="M19,21.62a18.28,18.28,0,0,0-6.4,5.55,6,6,0,0,0-.93,2.76,2.32,2.32,0,0,0,2.79,2.17,5.62,5.62,0,0,0,3.83-3.6c.54-1.56.85-3.19,1.41-4.73.35-1,.26-1.63-.7-2.15"/><path class="cls-6" d="M33.86,21.61a1.44,1.44,0,0,0-.72,2.05A17.33,17.33,0,0,1,34,26.42c.61,2.48,2.52,3.8,4.55,4.93a1.93,1.93,0,0,0,2.73-1.62,3.9,3.9,0,0,0-.94-2.88,19.5,19.5,0,0,0-6.48-5.24"/><path class="cls-7" d="M30.12,15.06c-.51-.33-.79-.66-1.06-.65s-.68.43-.65.58a1.09,1.09,0,0,0,.64.74c.24,0,.55-.32,1.07-.67m-6.23,1c.32-.51.64-.79.64-1.07s-.43-.66-.6-.63-.7.38-.73.63.34.56.69,1.07M18.34,13.9l2.44-3.33c-1.14-.75-2.24-.75-2.92,0s-.54,2.17.48,3.28M32,10.53l2.46,3.31A2.48,2.48,0,0,0,35,10.7c-.63-.84-1.76-.9-3-.17m-5.44,5.23a2.39,2.39,0,0,0-.13.28A4.83,4.83,0,0,0,23,17.24a2.88,2.88,0,0,0-.11,4.44,5.31,5.31,0,0,0,6.91.17,2.83,2.83,0,0,0-.05-4.62,16.87,16.87,0,0,0-3.19-1.47m4.3-5.82c.38-.22.69-.43,1-.6a3.25,3.25,0,0,1,3.69.38,2.86,2.86,0,0,1,.48,3.62A10.8,10.8,0,0,0,34.61,18c-.65,3.81-3.94,6.35-8,6.47a8,8,0,0,1-8.25-5.94c-.42-1.86-.54-3.72-1.67-5.43a2.67,2.67,0,0,1,.65-3.48A3.1,3.1,0,0,1,21,9.43a1.93,1.93,0,0,0,2,.07c2.52-1.1,4.94-.93,7.86.44"/><path class="cls-7" d="M31.78,41.85A5.11,5.11,0,0,0,36.17,39a2.38,2.38,0,0,0-2-3.54,5.12,5.12,0,0,0-4.77,2.71,2.45,2.45,0,0,0,2.4,3.67m-11.51.08c2.22,0,3.36-1.46,2.82-3.3a4.91,4.91,0,0,0-4-3.27c-2.28-.19-3.64,1.62-2.7,3.69a4.73,4.73,0,0,0,3.92,2.88m6.07-3.72a1.79,1.79,0,0,0,2.13-1.12,5.11,5.11,0,0,1,3-2.42,1.37,1.37,0,0,0,1-1.17,6,6,0,0,0-2.56-6.22,6.17,6.17,0,0,0-7,0,5.94,5.94,0,0,0-2.39,6.38,2.79,2.79,0,0,0,.86,1A13.1,13.1,0,0,1,23.75,37a2.48,2.48,0,0,0,2.59,1.26M20.19,22.85c4.23,3,8.3,3,12.4,0a50.49,50.49,0,0,1,2.65,10.86,1.34,1.34,0,0,0,.62.9,3.51,3.51,0,0,1,1.7,4.66,6.36,6.36,0,0,1-7,3.68c-1.66-.39-2.42-1.21-3.07-3.36H24.77c-.85,2.78-2.44,3.92-4.92,3.51-3-.49-5.28-2.88-5.2-5.45A3.54,3.54,0,0,1,17,34.39a1.37,1.37,0,0,0,.72-.81c.27-1.35.36-2.74.69-4.08.53-2.2,1.2-4.37,1.83-6.65"/><path class="cls-7" d="M19,21.62c1,.52,1.05,1.19.7,2.15-.56,1.54-.87,3.17-1.41,4.73a5.62,5.62,0,0,1-3.83,3.6,2.32,2.32,0,0,1-2.79-2.17,6,6,0,0,1,.93-2.76A18.28,18.28,0,0,1,19,21.62"/><path class="cls-7" d="M33.86,21.61a19.5,19.5,0,0,1,6.48,5.24,3.9,3.9,0,0,1,.94,2.88,1.93,1.93,0,0,1-2.73,1.62c-2-1.13-3.94-2.45-4.55-4.93a17.33,17.33,0,0,0-.86-2.76,1.44,1.44,0,0,1,.72-2.05"/><path class="cls-6" d="M26.54,19.65c.83-.35,1.89-.53,1.63-1.78-.18-.89-1-1.12-1.75-1.14a1.59,1.59,0,0,0-1.79,1.13c-.27,1.21.77,1.44,1.6,1.76v2.45l-2.44-1.16a2.91,2.91,0,0,0,3.05,1.34,3.25,3.25,0,0,0,2.43-1.46L26.54,22.1Zm0-3.89a16.87,16.87,0,0,1,3.19,1.47,2.83,2.83,0,0,1,.05,4.62,5.31,5.31,0,0,1-6.91-.17A2.88,2.88,0,0,1,23,17.24,4.83,4.83,0,0,1,26.42,16a2.39,2.39,0,0,1,.13-.28"/><path class="cls-6" d="M32,10.53c1.28-.73,2.41-.67,3,.17a2.48,2.48,0,0,1-.58,3.14L32,10.53"/><path class="cls-6" d="M18.34,13.9c-1-1.11-1.23-2.42-.48-3.28s1.78-.8,2.92,0L18.34,13.9"/><path class="cls-6" d="M23.9,16.11c-.36-.51-.73-.81-.7-1.07s.44-.57.73-.63.6.4.6.63-.31.56-.63,1.07"/><path class="cls-6" d="M30.12,15.06c-.52.35-.83.71-1.07.67a1.07,1.07,0,0,1-.64-.74c0-.15.42-.58.65-.58s.55.32,1.06.65"/><path class="cls-6" d="M26.34,38.21A2.48,2.48,0,0,1,23.75,37a13.1,13.1,0,0,0-2.41-2.2,2.79,2.79,0,0,1-.86-1,5.94,5.94,0,0,1,2.39-6.38,6.17,6.17,0,0,1,7,0,6,6,0,0,1,2.56,6.23,1.37,1.37,0,0,1-1,1.16,5.11,5.11,0,0,0-3,2.42,1.79,1.79,0,0,1-2.13,1.12"/><path class="cls-6" d="M20.27,41.93a4.76,4.76,0,0,1-3.93-2.88c-.93-2.07.43-3.88,2.71-3.69a4.93,4.93,0,0,1,4,3.27c.54,1.84-.6,3.32-2.82,3.3"/><path class="cls-6" d="M31.78,41.85a2.45,2.45,0,0,1-2.4-3.67,5.12,5.12,0,0,1,4.77-2.71,2.38,2.38,0,0,1,2,3.54,5.12,5.12,0,0,1-4.39,2.84"/><path class="cls-7" d="M26.54,19.65V22.1l2.73-1.31a3.19,3.19,0,0,1-2.43,1.45,2.89,2.89,0,0,1-3.05-1.33l2.44,1.16V19.62c-.83-.32-1.87-.55-1.6-1.76a1.59,1.59,0,0,1,1.79-1.13c.8,0,1.57.25,1.75,1.14.26,1.25-.8,1.43-1.63,1.78"/><text class="cls-8" transform="translate(9.68 55.33)">Objetivo.<tspan class="cls-9" x="33.14" y="0"> </tspan><tspan class="cls-10" x="35.29" y="0">Hacer</tspan><tspan class="cls-9" x="55.49" y="0"> </tspan><tspan class="cls-10" x="57.64" y="0">lo</tspan><tspan class="cls-11" x="64.07" y="0"> </tspan><tspan class="cls-10" x="66.22" y="0">correcto</tspan><tspan class="cls-9" x="95.08" y="0"> </tspan><tspan class="cls-10" x="97.22" y="0">y</tspan><tspan class="cls-9" x="101.27" y="0"> </tspan><tspan class="cls-10" x="103.41" y="0">buscar</tspan><tspan class="cls-9" x="126.46" y="0"> </tspan><tspan class="cls-10" x="128.6" y="0">la </tspan><tspan class="cls-10"><tspan x="0" y="9.63">felicidad.</tspan></tspan><tspan x="0" y="19.25">Características.</tspan><tspan class="cls-10" x="56.79" y="19.25" xml:space="preserve"> Valora la honestidad y </tspan><tspan class="cls-10"><tspan x="0" y="28.88">la</tspan><tspan class="cls-12" x="6.1" y="28.88"> </tspan><tspan x="9.27" y="28.88">simplicidad.</tspan><tspan class="cls-12" x="50.72" y="28.88"> </tspan><tspan x="53.9" y="28.88">Es</tspan><tspan class="cls-12" x="61.96" y="28.88"> </tspan><tspan x="65.14" y="28.88">inocente,</tspan><tspan class="cls-12" x="96.31" y="28.88"> </tspan><tspan x="99.48" y="28.88">sensible</tspan><tspan class="cls-12" x="127.48" y="28.88"> </tspan><tspan x="130.66" y="28.88">y </tspan><tspan x="0" y="38.51">confía</tspan><tspan class="cls-13" x="20.85" y="38.51"> </tspan><tspan x="22.7" y="38.51">mucho</tspan><tspan class="cls-13" x="46.03" y="38.51"> </tspan><tspan x="47.89" y="38.51">en</tspan><tspan class="cls-14" x="56.28" y="38.51"> </tspan><tspan x="58.13" y="38.51">los</tspan><tspan class="cls-13" x="68.02" y="38.51"> </tspan><tspan x="69.87" y="38.51">demás.</tspan><tspan class="cls-13" x="93.92" y="38.51"> </tspan><tspan x="95.78" y="38.51">Se</tspan><tspan class="cls-13" x="103.67" y="38.51"> </tspan><tspan x="105.53" y="38.51">compor</tspan><tspan x="132.04" y="38.51">-</tspan><tspan x="0" y="48.14">ta de manera auténtica.</tspan></tspan><tspan x="0" y="57.76">Competencias.</tspan><tspan class="cls-15" x="53.51" y="57.76"> </tspan><tspan class="cls-10" x="57.02" y="57.76">Brinda</tspan><tspan class="cls-16" x="80.32" y="57.76"> </tspan><tspan class="cls-10" x="83.83" y="57.76">buen</tspan><tspan class="cls-15" x="101.04" y="57.76"> </tspan><tspan class="cls-10" x="104.56" y="57.76">trato.</tspan><tspan class="cls-15" x="123.13" y="57.76"> </tspan><tspan class="cls-10" x="126.64" y="57.76">Es </tspan><tspan class="cls-10"><tspan x="0" y="67.39">positivo,</tspan><tspan class="cls-17" x="29.29" y="67.39"> </tspan><tspan x="34.81" y="67.39">idealista,</tspan><tspan class="cls-18" x="65.45" y="67.39"> </tspan><tspan x="70.98" y="67.39">cordial</tspan><tspan class="cls-17" x="94.87" y="67.39"> </tspan><tspan x="100.39" y="67.39">y</tspan><tspan class="cls-17" x="104.43" y="67.39"> </tspan><tspan x="109.96" y="67.39">abierto </tspan><tspan x="0" y="77.02">al cambio.</tspan></tspan><tspan x="0" y="86.65">Debilidades.</tspan><tspan class="cls-19" x="45.85" y="86.65"> </tspan><tspan class="cls-10" x="48.72" y="86.65">Confía</tspan><tspan class="cls-20" x="70.55" y="86.65"> </tspan><tspan class="cls-10" x="73.42" y="86.65">demasiado</tspan><tspan class="cls-19" x="110.68" y="86.65"> </tspan><tspan class="cls-10" x="113.55" y="86.65">en</tspan><tspan class="cls-19" x="121.94" y="86.65"> </tspan><tspan class="cls-10" x="124.82" y="86.65">los </tspan><tspan class="cls-10"><tspan x="0" y="96.27">demás.</tspan></tspan><tspan x="0" y="105.9">Temores.</tspan><tspan class="cls-21" x="34.6" y="105.9"> </tspan><tspan class="cls-10" x="36.87" y="105.9">Teme</tspan><tspan class="cls-21" x="56.13" y="105.9"> </tspan><tspan class="cls-10" x="58.41" y="105.9">cometer</tspan><tspan class="cls-21" x="86.74" y="105.9"> </tspan><tspan class="cls-10" x="89.01" y="105.9">algún</tspan><tspan class="cls-22" x="107.98" y="105.9"> </tspan><tspan class="cls-10" x="110.26" y="105.9">error</tspan><tspan class="cls-21" x="128.38" y="105.9"> </tspan><tspan class="cls-10" x="130.66" y="105.9">y </tspan><tspan class="cls-10"><tspan x="0" y="115.53">ser castigado por ello.</tspan></tspan><tspan x="0" y="125.15">Estrategia.</tspan><tspan class="cls-10" x="39.28" y="125.15" xml:space="preserve"> Busca hacer las cosas bien.</tspan></text><g class="cls-23"><rect x="0.25" y="207.2" width="154" height="46.05"/></g><rect class="cls-24" x="0.25" y="0.25" width="154" height="253" rx="9.78"/><text class="cls-25" transform="translate(9.68 225.81)">Lado<tspan class="cls-26" x="18.26" y="0"> </tspan><tspan x="26.19" y="0">negativo.</tspan><tspan class="cls-27" x="60.33" y="0"> </tspan><tspan class="cls-10" x="68.26" y="0">Negación</tspan><tspan class="cls-27" x="100.4" y="0"> </tspan><tspan class="cls-10" x="108.33" y="0">de</tspan><tspan class="cls-27" x="116.79" y="0"> </tspan><tspan class="cls-10" x="124.72" y="0">los </tspan><tspan class="cls-10"><tspan x="0" y="9.63">problemas, infantilismo y narcisismo.</tspan></tspan></text></g></g></svg>