<svg xmlns="http://www.w3.org/2000/svg" xmlns:xlink="http://www.w3.org/1999/xlink" viewBox="0 0 154.5 256.98"><defs><style>.cls-1,.cls-29{fill:none;}.cls-2{clip-path:url(#clip-path);}.cls-3{font-size:10.03px;}.cls-3,.cls-7{fill:#cf1f26;}.cls-24,.cls-3,.cls-8{font-family:Cambria-Bold, Cambria;font-weight:700;}.cls-4{letter-spacing:-0.01em;}.cls-5{letter-spacing:-0.01em;}.cls-6{letter-spacing:-0.01em;}.cls-24,.cls-8{font-size:8.02px;}.cls-10,.cls-11,.cls-12,.cls-19,.cls-21,.cls-22,.cls-23,.cls-27,.cls-28,.cls-9{font-family:Cambria;font-weight:400;}.cls-9{letter-spacing:0.57em;}.cls-11{letter-spacing:0.57em;}.cls-12{letter-spacing:0.84em;}.cls-13{letter-spacing:0.12em;}.cls-14{letter-spacing:0.12em;}.cls-15{letter-spacing:0.14em;}.cls-16{letter-spacing:0.14em;}.cls-17{letter-spacing:0.08em;}.cls-18{letter-spacing:0.08em;}.cls-19{letter-spacing:0.31em;}.cls-20,.cls-21{letter-spacing:-0.01em;}.cls-22{letter-spacing:0.42em;}.cls-23{letter-spacing:0.42em;}.cls-24{fill:#fff;letter-spacing:0.01em;}.cls-25,.cls-27{letter-spacing:0.04em;}.cls-26,.cls-28{letter-spacing:0.01em;}.cls-29{stroke:#010101;stroke-miterlimit:10;stroke-width:0.5px;}</style><clipPath id="clip-path"><rect class="cls-1" x="0.25" y="0.25" width="154" height="253" rx="9.78"/></clipPath></defs><g id="Capa_2" data-name="Capa 2"><g id="Capa_1-2" data-name="Capa 1"><g class="cls-2"><rect x="0.25" y="207.2" width="154" height="46.05"/></g><text class="cls-3" transform="translate(45.39 30.51)"><tspan xml:space="preserve">   PR</tspan><tspan class="cls-4" x="19.42" y="0">O</tspan><tspan x="26.27" y="0">TE</tspan><tspan class="cls-5" x="38.47" y="0">C</tspan><tspan class="cls-6" x="44.08" y="0">T</tspan><tspan x="50.36" y="0">OR</tspan></text><path class="cls-7" d="M41.39,38.55a1.32,1.32,0,0,0,0-2.64,1.32,1.32,0,0,0,0,2.64M21.94,18.81a17.56,17.56,0,0,0,.16,1.78,11.89,11.89,0,0,0,4.07,7.12,7.61,7.61,0,0,0,7.23,1.73,9.37,9.37,0,0,0,5.06-3.71,11.09,11.09,0,0,0,2.21-8.59A9.44,9.44,0,0,0,29.73,9.37a9.58,9.58,0,0,0-7.79,9.44m1.43,11.24a2.41,2.41,0,0,0-.36,0A12.71,12.71,0,0,0,13.8,42.32a2.76,2.76,0,0,0,.67,1.82,7.69,7.69,0,0,0,2.78,2A29.11,29.11,0,0,0,28,48.58c2.12.13,4.25.07,6.38,0a32.63,32.63,0,0,0,7.35-1.08,15.75,15.75,0,0,0,5.62-2.44A3.38,3.38,0,0,0,49,41.79c-.06-.47,0-.95-.12-1.41A12.7,12.7,0,0,0,43,31.51a9.94,9.94,0,0,0-3.41-1.41c0,.09.11.12.17.17a5.67,5.67,0,0,1,2.17,3.5,1,1,0,0,0,.71.92,2.83,2.83,0,0,1,1.18,4,2.78,2.78,0,0,1-4,.89,2.83,2.83,0,0,1-.53-4.17,9.84,9.84,0,0,1,1.41-1.09A4.54,4.54,0,0,0,38.48,31a.68.68,0,0,0-1,.1c-1.27,1.25-2.56,2.46-3.84,3.69l-2.08,2a2.28,2.28,0,0,1-.22-.21q-3-2.8-5.92-5.64a.51.51,0,0,0-.67-.11,4.62,4.62,0,0,0-2.66,3.71.7.7,0,0,0,.18.5c.36.35.78.65,1.14,1a5.49,5.49,0,0,1,1.71,3,16.23,16.23,0,0,1,.5,3.68c0,.88-.35,1.74-1.28,1.9a13.08,13.08,0,0,1-1.4.19.76.76,0,0,1-.87-.8.78.78,0,0,1,.84-.79h1.21A5.91,5.91,0,0,0,23,38.24a5.59,5.59,0,0,0-.48-.61c-.71-.76-1.37-.79-2,0a8.57,8.57,0,0,0-1.4,2,5.31,5.31,0,0,0-.29,3.44c.49,0,.95,0,1.41,0a.79.79,0,0,1,0,1.57,7.5,7.5,0,0,1-1.06,0,1.83,1.83,0,0,1-1.79-1.64,10.7,10.7,0,0,1,.69-5A5.07,5.07,0,0,1,20,35.57a2.29,2.29,0,0,0,.77-1c.2-.51.21-1.1.38-1.63a6,6,0,0,1,2.18-2.86"/><path class="cls-7" d="M41.39,38.55a1.32,1.32,0,0,1,0-2.64,1.32,1.32,0,0,1,0,2.64"/><text class="cls-8" transform="translate(9.68 63.35)">Objetivo.<tspan class="cls-9" x="33.14" y="0"> </tspan><tspan class="cls-10" x="39.52" y="0">Proteger</tspan><tspan class="cls-9" x="69.48" y="0"> </tspan><tspan class="cls-10" x="75.85" y="0">y</tspan><tspan class="cls-11" x="79.89" y="0"> </tspan><tspan class="cls-10" x="86.27" y="0">cuidar</tspan><tspan class="cls-9" x="108.15" y="0"> </tspan><tspan class="cls-10" x="114.52" y="0">a</tspan><tspan class="cls-9" x="118.44" y="0"> </tspan><tspan class="cls-10" x="124.82" y="0">los </tspan><tspan class="cls-10"><tspan x="0" y="9.63">demás.</tspan></tspan><tspan x="0" y="19.25">Características.</tspan><tspan class="cls-12" x="56.79" y="19.25"> </tspan><tspan class="cls-10" x="65.3" y="19.25">Encuentra</tspan><tspan class="cls-12" x="100.7" y="19.25"> </tspan><tspan class="cls-10" x="109.21" y="19.25">sentido </tspan><tspan class="cls-10"><tspan x="0" y="28.88">ayudando</tspan><tspan class="cls-13" x="33.94" y="28.88"> </tspan><tspan x="36.71" y="28.88">a</tspan><tspan class="cls-14" x="40.63" y="28.88"> </tspan><tspan x="43.39" y="28.88">los</tspan><tspan class="cls-13" x="53.27" y="28.88"> </tspan><tspan x="56.04" y="28.88">demás,</tspan><tspan class="cls-14" x="80.09" y="28.88"> </tspan><tspan x="82.85" y="28.88">protegiéndolos </tspan><tspan x="0" y="38.51">del</tspan><tspan class="cls-15" x="10.54" y="38.51"> </tspan><tspan x="13.44" y="38.51">daño</tspan><tspan class="cls-16" x="30.54" y="38.51"> </tspan><tspan x="33.44" y="38.51">o</tspan><tspan class="cls-15" x="37.7" y="38.51"> </tspan><tspan x="40.6" y="38.51">sufrimiento.</tspan><tspan class="cls-15" x="82.37" y="38.51"> </tspan><tspan x="85.26" y="38.51">Es</tspan><tspan class="cls-16" x="93.33" y="38.51"> </tspan><tspan x="96.23" y="38.51">compasivo, </tspan><tspan x="0" y="48.14">caritativo,</tspan><tspan class="cls-17" x="34.52" y="48.14"> </tspan><tspan x="36.93" y="48.14">altruista</tspan><tspan class="cls-18" x="65.79" y="48.14"> </tspan><tspan x="68.2" y="48.14">y</tspan><tspan class="cls-17" x="72.24" y="48.14"> </tspan><tspan x="74.65" y="48.14">generoso.</tspan><tspan class="cls-17" x="107.84" y="48.14"> </tspan><tspan x="110.25" y="48.14">Inspira </tspan><tspan x="0" y="57.76">tranquilidad, seguridad y confianza.</tspan></tspan><tspan x="0" y="67.39">Competencias.</tspan><tspan class="cls-19" x="53.51" y="67.39"> </tspan><tspan class="cls-10" x="57.78" y="67.39">Empático,</tspan><tspan class="cls-19" x="91.83" y="67.39"> </tspan><tspan class="cls-10" x="96.1" y="67.39">solidario</tspan><tspan class="cls-19" x="126.39" y="67.39"> </tspan><tspan class="cls-10" x="130.66" y="67.39">y </tspan><tspan class="cls-10"><tspan x="0" y="77.02">tiene responsabilidad social.</tspan></tspan><tspan x="0" y="86.65">Debilidades.</tspan><tspan class="cls-20" x="45.85" y="86.65"> </tspan><tspan class="cls-10" x="47.55" y="86.65">Los</tspan><tspan class="cls-21" x="59.56" y="86.65"> </tspan><tspan class="cls-10" x="61.26" y="86.65">demás</tspan><tspan class="cls-21" x="83.67" y="86.65"> </tspan><tspan class="cls-10" x="85.37" y="86.65">se</tspan><tspan class="cls-21" x="92.73" y="86.65"> </tspan><tspan class="cls-10" x="94.43" y="86.65">aprovechan </tspan><tspan class="cls-10"><tspan x="0" y="96.27">de él.</tspan></tspan><tspan x="0" y="105.9">Temores.</tspan><tspan class="cls-22" x="34.6" y="105.9"> </tspan><tspan class="cls-10" x="39.71" y="105.9">Teme</tspan><tspan class="cls-22" x="58.97" y="105.9"> </tspan><tspan class="cls-10" x="64.09" y="105.9">no</tspan><tspan class="cls-23" x="72.82" y="105.9"> </tspan><tspan class="cls-10" x="77.94" y="105.9">ser</tspan><tspan class="cls-22" x="88.62" y="105.9"> </tspan><tspan class="cls-10" x="93.74" y="105.9">útil</tspan><tspan class="cls-22" x="105.29" y="105.9"> </tspan><tspan class="cls-10" x="110.41" y="105.9">y</tspan><tspan class="cls-22" x="114.45" y="105.9"> </tspan><tspan class="cls-10" x="119.57" y="105.9">a</tspan><tspan class="cls-23" x="123.48" y="105.9"> </tspan><tspan class="cls-10" x="128.6" y="105.9">la </tspan><tspan class="cls-10"><tspan x="0" y="115.53">ingratitud.</tspan></tspan><tspan x="0" y="125.15">Estrategia.</tspan><tspan class="cls-10" x="39.28" y="125.15" xml:space="preserve"> Hace cosas por los demás.</tspan></text><text class="cls-24" transform="translate(9.68 227.59)">Lado<tspan class="cls-25" x="18.26" y="0"> </tspan><tspan class="cls-26" x="20.34" y="0">negativo.</tspan><tspan class="cls-27" x="54.48" y="0"> </tspan><tspan class="cls-28" x="56.56" y="0">Se</tspan><tspan class="cls-27" x="64.55" y="0"> </tspan><tspan class="cls-28" x="66.63" y="0">ignora</tspan><tspan class="cls-27" x="89.08" y="0"> </tspan><tspan class="cls-28" x="91.16" y="0">a</tspan><tspan class="cls-27" x="95.12" y="0"> </tspan><tspan class="cls-28" x="97.2" y="0">sí</tspan><tspan class="cls-27" x="102.98" y="0"> </tspan><tspan class="cls-28" x="105.05" y="0">mismo</tspan><tspan class="cls-27" x="128.58" y="0"> </tspan><tspan class="cls-10" x="130.66" y="0">y </tspan><tspan class="cls-10"><tspan x="0" y="9.63">le impone a los demás sus cuidados.</tspan></tspan></text><rect class="cls-29" x="0.25" y="0.25" width="154" height="253" rx="9.78"/></g></g></svg>