<svg xmlns="http://www.w3.org/2000/svg" xmlns:xlink="http://www.w3.org/1999/xlink" viewBox="0 0 153.5 259.51"><defs><style>.cls-1,.cls-32{fill:none;}.cls-2{clip-path:url(#clip-path);}.cls-3{font-size:10.03px;}.cls-3,.cls-4{fill:#d49326;}.cls-21,.cls-3,.cls-5{font-family:Cambria-Bold, Cambria;font-weight:700;}.cls-21,.cls-5{font-size:8.02px;}.cls-10,.cls-11,.cls-14,.cls-15,.cls-16,.cls-17,.cls-19,.cls-20,.cls-23,.cls-24,.cls-6,.cls-7,.cls-8{font-family:Cambria;font-weight:400;}.cls-6{letter-spacing:0.01em;}.cls-8{letter-spacing:0.01em;}.cls-9{letter-spacing:0.11em;}.cls-10{letter-spacing:0.09em;}.cls-11{letter-spacing:0.09em;}.cls-12{letter-spacing:0.21em;}.cls-13{letter-spacing:0.21em;}.cls-14{letter-spacing:0.29em;}.cls-15{letter-spacing:0.29em;}.cls-16{letter-spacing:0.21em;}.cls-17{letter-spacing:0.21em;}.cls-18,.cls-19{letter-spacing:0.87em;}.cls-20{letter-spacing:0.87em;}.cls-21{fill:#fff;letter-spacing:0.01em;}.cls-22,.cls-23{letter-spacing:0.17em;}.cls-24{letter-spacing:0.17em;}.cls-25{letter-spacing:0.24em;}.cls-26{letter-spacing:0.24em;}.cls-27{letter-spacing:0.32em;}.cls-28{letter-spacing:0.32em;}.cls-29{letter-spacing:0.97em;}.cls-30{letter-spacing:0.97em;}.cls-31{letter-spacing:0.01em;}.cls-32{stroke:#010101;stroke-miterlimit:10;stroke-width:0.5px;}</style><clipPath id="clip-path"><rect class="cls-1" x="0.25" y="0.25" width="153" height="253" rx="9.75"/></clipPath></defs><g id="Capa_2" data-name="Capa 2"><g id="Capa_1-2" data-name="Capa 1"><g class="cls-2"><rect x="0.25" y="186.32" width="153" height="66.93"/></g><text class="cls-3" transform="translate(51.13 25.54)">CREADOR</text><path class="cls-4" d="M26.54,14.29,27,13.17h-.92c.16.4.29.73.46,1.12M28.08,14h-.39c0,.5,0,1,.07,1.5h.32ZM25,15.5h.38c0-.5,0-1-.07-1.5H25Zm.79,22.11.78.79-.22-.23,1-.56Zm.75-8.15h4.65c.42,0,.86,0,.88-.53s-.44-.61-.89-.61H21.89c-.42,0-.86,0-.88.54s.44.6.88.6h4.65m0-3.31H21.86c-.42,0-.85,0-.85.56s.41.57.83.57h9.37c.42,0,.85,0,.86-.55s-.41-.58-.84-.58c-1.55,0-3.1,0-4.65,0m-.07-1h4.72c.43,0,.84-.07.84-.58s-.44-.56-.86-.56H21.84c-.42,0-.84.06-.83.58s.43.56.85.56h4.65m4.16,9.36c-.78-.6-.83-.66-1.4-.17a1.44,1.44,0,0,1-2.18,0,.69.69,0,0,0-1.08,0,1.48,1.48,0,0,1-2.29,0c-.54-.5-.88-.16-1.16.14a4.16,4.16,0,0,0,4.7,2.18c.26,0,.55,0,.81,0a1.44,1.44,0,0,0,.7-.28c.64-.56,1.25-1.16,1.9-1.78m.3-4H22.13v2.91c1.19-1.42,1.89-.06,2.73.24.57-.33,1.13-.89,1.68-.88s1.14.57,1.7.88c.86-.45,1.59-1.55,2.73-.29ZM24.24,13.2a1.67,1.67,0,0,0-2.06,1.16,2.32,2.32,0,0,0,.71,2.38,24.38,24.38,0,0,0,1.91,1.59,1.45,1.45,0,0,1,.64,1.35c-.05,1.08,0,2.15,0,3.21h2.22c0-1.12,0-2.2,0-3.28a1.34,1.34,0,0,1,.58-1.24A10.39,10.39,0,0,0,30,16.87a4,4,0,0,0,.93-1.81,1.58,1.58,0,0,0-2.07-1.8,2.7,2.7,0,0,1-.32,3.34c-.4.45-.83.52-1.22,0s-.56-.89-.8-1.27a9.43,9.43,0,0,1-.64,1.11c-.54.71-1,.69-1.51,0a2.73,2.73,0,0,1-.14-3.23m.11,9.73c0-1.07,0-2,0-3a1.64,1.64,0,0,0-.48-1c-.64-.63-1.43-1.14-2-1.81-1.55-1.8-.92-4.56,1.23-5a21.3,21.3,0,0,1,4.3,0l.07,0a3.92,3.92,0,0,0,1,0,2.66,2.66,0,0,1,2.79.65,3.24,3.24,0,0,1-.35,4.77c-.56.51-1.17,1-1.74,1.46-.16.13-.36.32-.36.5,0,1.1,0,2.2,0,3.36.91,0,1.72,0,2.53,0a1.13,1.13,0,0,0,.58-.26,8,8,0,0,0,2.41-9.36,8.26,8.26,0,0,0-8.55-5A7.89,7.89,0,0,0,18.61,14c-1.09,3.38-.07,6.26,2.57,8.63a1.14,1.14,0,0,0,.63.31c.81,0,1.62,0,2.54,0M27.5,7.13c.69.17,1.39.29,2.06.51A9.15,9.15,0,0,1,33.2,22.9c-.14.14-.29.27-.47.43a1.84,1.84,0,0,1,.15,2.16.41.41,0,0,0,0,.32,1.77,1.77,0,0,1,0,1.79.74.74,0,0,0,0,.52,1.62,1.62,0,0,1-.53,2.12,1.1,1.1,0,0,0-.35.69c0,1,0,2,0,3a1.58,1.58,0,0,1-.39,1c-1.49,1.51-3,3-4.53,4.47-.44.45-.78.45-1.23,0-1.5-1.5-3-3-4.53-4.48A1.52,1.52,0,0,1,21,34c-.05-1,0-2,0-3a1.05,1.05,0,0,0-.35-.68,1.65,1.65,0,0,1-.53-2.13,1.53,1.53,0,0,0,0-.64c0-.07-.1-.13-.1-.19a7.36,7.36,0,0,0,.06-2,2.14,2.14,0,0,1,.3-1.93,9.84,9.84,0,0,1-3-4.83A9.23,9.23,0,0,1,25.16,7.26a2.25,2.25,0,0,0,.42-.13Z"/><rect class="cls-4" x="12.15" y="15.88" width="3.21" height="0.98"/><rect class="cls-4" x="37.7" y="15.9" width="3.22" height="0.94"/><path class="cls-4" d="M17.39,22.66l.5.68c-.64.61-1.37,1.31-2.15,2l-.52-.63,2.17-2.09"/><path class="cls-4" d="M15.14,8l.67-.63,2.08,2.18-.64.58c-.68-.68-1.38-1.38-2.11-2.13"/><path class="cls-4" d="M35.73,10.13l-.59-.54L37.38,7.4c.1.18.28.46.45.74l-2.1,2"/><path class="cls-4" d="M35.16,23.27l.64-.65,2.06,2.15-.63.58-2.07-2.08"/><rect class="cls-4" x="14.39" y="33.27" width="0.97" height="0.98"/><rect class="cls-4" x="16.6" y="33.3" width="1" height="0.95"/><rect class="cls-4" x="18.81" y="33.29" width="0.99" height="0.97"/><rect class="cls-4" x="33.28" y="33.27" width="0.97" height="1"/><rect class="cls-4" x="35.5" y="33.28" width="0.99" height="0.98"/><rect class="cls-4" x="37.71" y="33.27" width="0.99" height="1"/><text class="cls-5" transform="translate(9.62 55.33)">Objetivo.<tspan class="cls-6" x="33.15" y="0"> </tspan><tspan class="cls-7" x="34.99" y="0">Transformar</tspan><tspan class="cls-8" x="78.82" y="0"> </tspan><tspan class="cls-7" x="80.66" y="0">ideas</tspan><tspan class="cls-6" x="98.61" y="0"> </tspan><tspan class="cls-7" x="100.46" y="0">en</tspan><tspan class="cls-6" x="108.85" y="0"> </tspan><tspan class="cls-7" x="110.69" y="0">hechos </tspan><tspan class="cls-7"><tspan x="0" y="9.63">que</tspan><tspan class="cls-9" x="12.73" y="9.63"> </tspan><tspan x="15.36" y="9.63">permanezcan</tspan><tspan class="cls-9" x="61.61" y="9.63"> </tspan><tspan x="64.24" y="9.63">en</tspan><tspan class="cls-9" x="72.63" y="9.63"> </tspan><tspan x="75.26" y="9.63">el</tspan><tspan class="cls-9" x="81.35" y="9.63"> </tspan><tspan x="83.98" y="9.63">tiempo,</tspan><tspan class="cls-9" x="109.88" y="9.63"> </tspan><tspan x="112.5" y="9.63">quiere </tspan><tspan x="0" y="19.25">dejar un legado.</tspan></tspan><tspan x="0" y="28.88">Características.</tspan><tspan class="cls-10" x="56.79" y="28.88"> </tspan><tspan class="cls-7" x="59.27" y="28.88">Genera</tspan><tspan class="cls-11" x="83.71" y="28.88"> </tspan><tspan class="cls-7" x="86.2" y="28.88">ideas</tspan><tspan class="cls-10" x="104.15" y="28.88"> </tspan><tspan class="cls-7" x="106.63" y="28.88">novedo</tspan><tspan class="cls-7" x="132.03" y="28.88">-</tspan><tspan class="cls-7"><tspan x="0" y="38.51">sas</tspan><tspan class="cls-12" x="10.81" y="38.51"> </tspan><tspan x="14.29" y="38.51">para</tspan><tspan class="cls-13" x="29.91" y="38.51"> </tspan><tspan x="33.39" y="38.51">solucionar</tspan><tspan class="cls-12" x="69.44" y="38.51"> </tspan><tspan x="72.92" y="38.51">los</tspan><tspan class="cls-12" x="82.81" y="38.51"> </tspan><tspan x="86.29" y="38.51">problemas</tspan><tspan class="cls-13" x="122.85" y="38.51"> </tspan><tspan x="126.33" y="38.51">de </tspan><tspan x="0" y="48.14">los demás. Es original e imaginativo.</tspan></tspan><tspan x="0" y="57.76">Competencias.</tspan><tspan class="cls-14" x="53.51" y="57.76"> </tspan><tspan class="cls-7" x="57.63" y="57.76">Visionario,</tspan><tspan class="cls-15" x="94.48" y="57.76"> </tspan><tspan class="cls-7" x="98.6" y="57.76">creativo</tspan><tspan class="cls-15" x="126.53" y="57.76"> </tspan><tspan class="cls-7" x="130.65" y="57.76">y </tspan><tspan class="cls-7"><tspan x="0" y="67.39">tiene iniciativa.</tspan></tspan><tspan x="0" y="77.02">Debilidades.</tspan><tspan class="cls-7" x="45.85" y="77.02" xml:space="preserve"> Perfeccionista.</tspan><tspan x="0" y="86.65">Temores.</tspan><tspan class="cls-16" x="34.6" y="86.65"> </tspan><tspan class="cls-7" x="38.02" y="86.65">Tiene</tspan><tspan class="cls-16" x="57.31" y="86.65"> </tspan><tspan class="cls-7" x="60.73" y="86.65">miedo</tspan><tspan class="cls-17" x="82.25" y="86.65"> </tspan><tspan class="cls-7" x="85.68" y="86.65">de</tspan><tspan class="cls-16" x="94.04" y="86.65"> </tspan><tspan class="cls-7" x="97.46" y="86.65">carecer</tspan><tspan class="cls-16" x="122.91" y="86.65"> </tspan><tspan class="cls-7" x="126.33" y="86.65">de </tspan><tspan class="cls-7"><tspan x="0" y="96.27">talento y no crear nada importante.</tspan></tspan><tspan x="0" y="105.9">Estrategia.</tspan><tspan class="cls-18" x="39.28" y="105.9"> </tspan><tspan class="cls-7" x="48.05" y="105.9">Crea</tspan><tspan class="cls-19" x="63.71" y="105.9"> </tspan><tspan class="cls-7" x="72.47" y="105.9">cosas</tspan><tspan class="cls-20" x="91.08" y="105.9"> </tspan><tspan class="cls-7" x="99.85" y="105.9">de</tspan><tspan class="cls-19" x="108.21" y="105.9"> </tspan><tspan class="cls-7" x="116.98" y="105.9">valor </tspan><tspan class="cls-7"><tspan x="0" y="115.53">perdurable.</tspan></tspan></text><text class="cls-21" transform="translate(9.62 201.24)">Lado<tspan class="cls-22" x="18.26" y="0"> </tspan><tspan x="21.37" y="0">negativo.</tspan><tspan class="cls-23" x="55.51" y="0"> </tspan><tspan class="cls-7" x="58.62" y="0">Su</tspan><tspan class="cls-23" x="67.13" y="0"> </tspan><tspan class="cls-7" x="70.24" y="0">deseo</tspan><tspan class="cls-24" x="90.46" y="0"> </tspan><tspan class="cls-7" x="93.57" y="0">excesivo</tspan><tspan class="cls-23" x="123.18" y="0"> </tspan><tspan class="cls-7" x="126.29" y="0">de </tspan><tspan class="cls-7"><tspan x="0" y="9.63">crear</tspan><tspan class="cls-25" x="18.24" y="9.63"> </tspan><tspan x="21.91" y="9.63">cosas</tspan><tspan class="cls-25" x="40.76" y="9.63"> </tspan><tspan x="44.43" y="9.63">originales</tspan><tspan class="cls-26" x="78.84" y="9.63"> </tspan><tspan x="82.51" y="9.63">puede</tspan><tspan class="cls-26" x="103.92" y="9.63"> </tspan><tspan x="107.58" y="9.63">generar </tspan><tspan x="0" y="19.25">retrasos</tspan><tspan class="cls-27" x="28.72" y="19.25"> </tspan><tspan x="33.04" y="19.25">y</tspan><tspan class="cls-28" x="37.13" y="19.25"> </tspan><tspan x="41.45" y="19.25">conflictos</tspan><tspan class="cls-27" x="75" y="19.25"> </tspan><tspan x="79.32" y="19.25">con</tspan><tspan class="cls-28" x="91.74" y="19.25"> </tspan><tspan x="96.06" y="19.25">los</tspan><tspan class="cls-27" x="106.08" y="19.25"> </tspan><tspan x="110.41" y="19.25">demás. </tspan><tspan x="0" y="28.88">Plantea</tspan><tspan class="cls-29" x="26.01" y="28.88"> </tspan><tspan x="35.57" y="28.88">ideas</tspan><tspan class="cls-29" x="53.76" y="28.88"> </tspan><tspan x="63.32" y="28.88">poco</tspan><tspan class="cls-29" x="80.03" y="28.88"> </tspan><tspan x="89.58" y="28.88">prácticas</tspan><tspan class="cls-30" x="121.1" y="28.88"> </tspan><tspan class="cls-31" x="130.65" y="28.88">y </tspan><tspan x="0" y="38.51">realistas.</tspan></tspan></text><rect class="cls-32" x="0.25" y="0.25" width="153" height="253" rx="9.75"/></g></g></svg>