<svg xmlns="http://www.w3.org/2000/svg" xmlns:xlink="http://www.w3.org/1999/xlink" viewBox="0 0 154.5 253.5"><defs><style>.cls-1,.cls-22{fill:none;}.cls-2{clip-path:url(#clip-path);}.cls-3{font-size:10.03px;}.cls-3,.cls-4{fill:#d49326;}.cls-3,.cls-5{font-family:Cambria-Bold, Cambria;font-weight:700;}.cls-5{font-size:8.02px;}.cls-14,.cls-15,.cls-16,.cls-19,.cls-20,.cls-6,.cls-7,.cls-8,.cls-9{font-family:Cambria;font-weight:400;}.cls-6{letter-spacing:0.12em;}.cls-8{letter-spacing:0.02em;}.cls-9{letter-spacing:0.02em;}.cls-10{letter-spacing:0.16em;}.cls-11{letter-spacing:0.16em;}.cls-12{letter-spacing:-0.01em;}.cls-13,.cls-14{letter-spacing:-0.04em;}.cls-15{letter-spacing:0.42em;}.cls-16{letter-spacing:0.42em;}.cls-17{letter-spacing:0.12em;}.cls-18{letter-spacing:0.12em;}.cls-19{letter-spacing:0.85em;}.cls-20{letter-spacing:0.85em;}.cls-21{fill:#fff;}.cls-22{stroke:#010101;stroke-miterlimit:10;stroke-width:0.5px;}</style><clipPath id="clip-path"><rect class="cls-1" x="0.25" y="0.25" width="154" height="253" rx="9.78"/></clipPath></defs><g id="Capa_2" data-name="Capa 2"><g id="Capa_1-2" data-name="Capa 1"><g class="cls-2"><rect x="0.25" y="200.43" width="154" height="52.82"/></g><text class="cls-3" transform="translate(61.44 27.02)">HÉROE</text><path class="cls-4" d="M37.87,19l-19.69,7.3C20,27.69,21.83,29,23.62,30.39c.41.31.63.24,1-.06q5.15-4.41,10.31-8.78l3-2.52M46,16.71a.61.61,0,0,1,0-.12,2.62,2.62,0,0,0,.34-.24c2.08-1.9,4.17-3.81,6.24-5.73a1.44,1.44,0,1,0-2-2.1c-2.14,2-4.25,3.91-6.4,5.85-3,2.73-6.06,5.47-9.15,8.14-3.83,3.31-7.79,6.46-11.45,10-2.09,2-4.26,3.94-6.38,5.92l-4.09,3.81a2.15,2.15,0,0,0-.6,2.37,2.17,2.17,0,0,0,3.55.79c.8-.72,1.58-1.46,2.36-2.19L29,33.35c.43-.4.88-.79,1.36-1.22l1,1.36c-.17.12-.29.21-.41.28l-5.2,3.29A2.17,2.17,0,0,0,24.94,40a2.13,2.13,0,0,0,2.95.82q4.21-2.64,8.41-5.33A2,2,0,0,0,37.08,33a6.18,6.18,0,0,0-.47-.87L39.31,30A24,24,0,0,1,38,32.52a1.44,1.44,0,0,0,1.62,2.16c.46-.11.92-.25,1.37-.38l6.3-1.78a1.43,1.43,0,1,0-.74-2.77c-1,.25-2,.55-2.92.82l-1.38.37c.84-1.45,1.6-2.79,2.38-4.13A1.42,1.42,0,0,0,44,24.65a.63.63,0,0,1-.24-.14c-1-1-1.91-2.09-2.88-3.16l1.65-1.51C42.71,22.5,44,24,46,24a3.64,3.64,0,0,0,3.23-5.7A3.87,3.87,0,0,0,46,16.71"/><text class="cls-5" transform="translate(9.68 55.33)">Objetivo.<tspan class="cls-6" x="33.14" y="0"> </tspan><tspan class="cls-7" x="35.91" y="0">Demostrar</tspan><tspan class="cls-6" x="72.78" y="0"> </tspan><tspan class="cls-7" x="75.54" y="0">su</tspan><tspan class="cls-6" x="83.42" y="0"> </tspan><tspan class="cls-7" x="86.18" y="0">valor</tspan><tspan class="cls-6" x="103.9" y="0"> </tspan><tspan class="cls-7" x="106.66" y="0">a</tspan><tspan class="cls-6" x="110.58" y="0"> </tspan><tspan class="cls-7" x="113.34" y="0">través </tspan><tspan class="cls-7"><tspan x="0" y="9.63">de actos destacados o “heroicos”.</tspan></tspan><tspan x="0" y="19.25">Características.</tspan><tspan class="cls-8" x="56.8" y="19.25"> </tspan><tspan class="cls-7" x="58.72" y="19.25">Desea</tspan><tspan class="cls-9" x="79.22" y="19.25"> </tspan><tspan class="cls-7" x="81.15" y="19.25">ser</tspan><tspan class="cls-8" x="91.82" y="19.25"> </tspan><tspan class="cls-7" x="93.75" y="19.25">querido</tspan><tspan class="cls-8" x="120.74" y="19.25"> </tspan><tspan class="cls-7" x="122.66" y="19.25">por </tspan><tspan class="cls-7"><tspan x="0" y="28.88">los</tspan><tspan class="cls-10" x="9.88" y="28.88"> </tspan><tspan x="12.96" y="28.88">demás</tspan><tspan class="cls-10" x="35.37" y="28.88"> </tspan><tspan x="38.45" y="28.88">gracias</tspan><tspan class="cls-11" x="62.78" y="28.88"> </tspan><tspan x="65.86" y="28.88">a</tspan><tspan class="cls-10" x="69.77" y="28.88"> </tspan><tspan x="72.86" y="28.88">su</tspan><tspan class="cls-10" x="80.73" y="28.88"> </tspan><tspan x="83.81" y="28.88">habilidad</tspan><tspan class="cls-10" x="116" y="28.88"> </tspan><tspan x="119.08" y="28.88">para </tspan><tspan x="0" y="38.51">conseguir</tspan><tspan class="cls-12" x="33.58" y="38.51"> </tspan><tspan x="35.29" y="38.51">metas</tspan><tspan class="cls-12" x="55.96" y="38.51"> </tspan><tspan x="57.67" y="38.51">inalcanzables.</tspan><tspan class="cls-12" x="105.55" y="38.51"> </tspan><tspan x="107.26" y="38.51">Entrena </tspan><tspan x="0" y="48.14">y perfecciona sus habilidades.</tspan></tspan><tspan x="0" y="57.76">Competencias.</tspan><tspan class="cls-13" x="53.51" y="57.76"> </tspan><tspan class="cls-7" x="54.98" y="57.76">Valentía,</tspan><tspan class="cls-14" x="84.82" y="57.76"> </tspan><tspan class="cls-7" x="86.29" y="57.76">perseverancia </tspan><tspan class="cls-7"><tspan x="0" y="67.39">y habilidad en su campo de acción.</tspan></tspan><tspan x="0" y="77.02">Debilidades. </tspan><tspan class="cls-7" x="47.62" y="77.02">Soberbia.</tspan><tspan x="0" y="86.65">Temores.</tspan><tspan class="cls-15" x="34.6" y="86.65"> </tspan><tspan class="cls-7" x="39.72" y="86.65">Teme</tspan><tspan class="cls-16" x="58.97" y="86.65"> </tspan><tspan class="cls-7" x="64.09" y="86.65">que</tspan><tspan class="cls-15" x="76.82" y="86.65"> </tspan><tspan class="cls-7" x="81.94" y="86.65">sus</tspan><tspan class="cls-16" x="93.27" y="86.65"> </tspan><tspan class="cls-7" x="98.38" y="86.65">fuerzas</tspan><tspan class="cls-15" x="123.49" y="86.65"> </tspan><tspan class="cls-7" x="128.6" y="86.65">le </tspan><tspan class="cls-7"><tspan x="0" y="96.27">fallen</tspan><tspan class="cls-17" x="19.09" y="96.27"> </tspan><tspan x="21.84" y="96.27">y</tspan><tspan class="cls-18" x="25.89" y="96.27"> </tspan><tspan x="28.64" y="96.27">defraude</tspan><tspan class="cls-17" x="59.46" y="96.27"> </tspan><tspan x="62.21" y="96.27">a</tspan><tspan class="cls-18" x="66.13" y="96.27"> </tspan><tspan x="68.88" y="96.27">los</tspan><tspan class="cls-17" x="78.76" y="96.27"> </tspan><tspan x="81.52" y="96.27">demás,</tspan><tspan class="cls-17" x="105.56" y="96.27"> </tspan><tspan x="108.32" y="96.27">parecer </tspan><tspan x="0" y="105.9">débil o vulnerable.</tspan></tspan><tspan x="0" y="115.53">Estrategia.</tspan><tspan class="cls-19" x="39.28" y="115.53"> </tspan><tspan class="cls-7" x="47.83" y="115.53">Busca</tspan><tspan class="cls-19" x="68.07" y="115.53"> </tspan><tspan class="cls-7" x="76.61" y="115.53">desarrollar</tspan><tspan class="cls-20" x="114.83" y="115.53"> </tspan><tspan class="cls-7" x="123.37" y="115.53">sus </tspan><tspan class="cls-7"><tspan x="0" y="125.15">competencias tanto como sea posible.</tspan></tspan></text><path class="cls-21" d="M12.13,213.62v.26l-.23.09a.37.37,0,0,0-.13.12.52.52,0,0,0-.06.2c0,.08,0,.19,0,.31v3.91h.76a.75.75,0,0,0,.37-.08.68.68,0,0,0,.24-.21,1.81,1.81,0,0,0,.17-.39,4.16,4.16,0,0,0,.12-.44h.53L13.81,219H10.06v-.26a.76.76,0,0,0,.23-.08.33.33,0,0,0,.13-.13.53.53,0,0,0,.05-.2,3,3,0,0,0,0-.32v-3.37a2.91,2.91,0,0,0,0-.31.39.39,0,0,0-.05-.2.37.37,0,0,0-.12-.13l-.24-.09v-.26Z"/><path class="cls-21" d="M16.83,218.46l-.06,0a2.32,2.32,0,0,1-.63.45,1.44,1.44,0,0,1-.65.14,1.31,1.31,0,0,1-.58-.12.85.85,0,0,1-.38-.34,1,1,0,0,1-.13-.51,1,1,0,0,1,.57-.9,4,4,0,0,1,1.72-.42v-.37a1.69,1.69,0,0,0-.08-.57.61.61,0,0,0-.21-.27.53.53,0,0,0-.31-.08.79.79,0,0,0-.32.06.59.59,0,0,0-.23.24,1.22,1.22,0,0,0-.16.48h-.74v-.71c.24-.11.44-.19.6-.25a3.1,3.1,0,0,1,.47-.14,2.76,2.76,0,0,1,.42-.08,2.31,2.31,0,0,1,.37,0,1.79,1.79,0,0,1,.76.13.86.86,0,0,1,.43.41,1.76,1.76,0,0,1,.14.77v1.53c0,.17,0,.31,0,.4a.7.7,0,0,0,0,.21.29.29,0,0,0,.06.11l.1.07.21.06V219H16.79Zm-.13-1.34a1.66,1.66,0,0,0-.91.23.73.73,0,0,0-.29.62.54.54,0,0,0,.13.37.55.55,0,0,0,.37.13.71.71,0,0,0,.35-.1.69.69,0,0,0,.25-.26.67.67,0,0,0,.1-.34Z"/><path class="cls-21" d="M22.66,217.83c0,.2,0,.34,0,.43a.62.62,0,0,0,0,.22.27.27,0,0,0,.12.14.93.93,0,0,0,.26.09V219L22,219h-.48l0-.57h-.06a2.2,2.2,0,0,1-.6.44,1.32,1.32,0,0,1-.59.15,1.21,1.21,0,0,1-1.07-.49,2.45,2.45,0,0,1-.36-1.47,2.51,2.51,0,0,1,.22-1.12,1.39,1.39,0,0,1,.64-.69,2,2,0,0,1,1-.24l.34,0,.39.09v-.36c0-.28,0-.48,0-.59a1.19,1.19,0,0,0-.05-.27.31.31,0,0,0-.11-.14.6.6,0,0,0-.27-.09v-.26l1.09-.06h.49Zm-1.14-1.46a1.22,1.22,0,0,0-.16-.71.57.57,0,0,0-.5-.23.57.57,0,0,0-.41.17,1.12,1.12,0,0,0-.27.51,3,3,0,0,0-.09.78,3,3,0,0,0,.17,1.15.57.57,0,0,0,.53.38.75.75,0,0,0,.34-.09.74.74,0,0,0,.28-.25.78.78,0,0,0,.11-.41Z"/><path class="cls-21" d="M25.62,219a2.2,2.2,0,0,1-1-.2,1.44,1.44,0,0,1-.65-.64,2.39,2.39,0,0,1-.24-1.13,2.48,2.48,0,0,1,.15-.91,1.79,1.79,0,0,1,.4-.64,1.77,1.77,0,0,1,.62-.37,2.45,2.45,0,0,1,.78-.12,1.92,1.92,0,0,1,1.44.5A2,2,0,0,1,27.6,217a2.48,2.48,0,0,1-.24,1.15,1.59,1.59,0,0,1-.68.68A2.33,2.33,0,0,1,25.62,219ZM24.93,217a3,3,0,0,0,.19,1.24.6.6,0,0,0,.56.42.58.58,0,0,0,.35-.11.78.78,0,0,0,.22-.3,1.68,1.68,0,0,0,.12-.49,5.54,5.54,0,0,0,0-.62,3.33,3.33,0,0,0-.19-1.26.6.6,0,0,0-.55-.42.58.58,0,0,0-.43.17,1,1,0,0,0-.24.5A4.24,4.24,0,0,0,24.93,217Z"/><path class="cls-21" d="M35.28,219H33.37v-.26a.48.48,0,0,0,.25-.12.54.54,0,0,0,.1-.23,3.35,3.35,0,0,0,0-.52v-1c0-.19,0-.34,0-.46s0-.22,0-.29a.68.68,0,0,0-.08-.19.64.64,0,0,0-.1-.13.35.35,0,0,0-.12-.07.5.5,0,0,0-.18,0,.61.61,0,0,0-.31.09.81.81,0,0,0-.27.25.58.58,0,0,0-.11.35v1.51a3.35,3.35,0,0,0,0,.52.54.54,0,0,0,.1.23.48.48,0,0,0,.25.12V219H31v-.26a.57.57,0,0,0,.26-.13.49.49,0,0,0,.09-.22,3,3,0,0,0,0-.52v-1.61c0-.19,0-.33,0-.43a.65.65,0,0,0-.05-.22.3.3,0,0,0-.11-.14,1,1,0,0,0-.27-.09v-.26l1.08,0h.5l-.06.57h0c.17-.14.31-.26.43-.34a1.56,1.56,0,0,1,.39-.19,1.22,1.22,0,0,1,.43-.08,1.36,1.36,0,0,1,.53.09.93.93,0,0,1,.34.27,1,1,0,0,1,.19.43,2.64,2.64,0,0,1,.06.6v1.43c0,.11,0,.22,0,.32a.78.78,0,0,0,0,.24.34.34,0,0,0,.06.15.4.4,0,0,0,.12.1l.18.06Z"/><path class="cls-21" d="M39.47,218.26a2.74,2.74,0,0,1-.8.6,2.13,2.13,0,0,1-.9.17,1.77,1.77,0,0,1-1.38-.5,2.08,2.08,0,0,1-.46-1.48,2.31,2.31,0,0,1,.24-1.09,1.62,1.62,0,0,1,.67-.7,2.08,2.08,0,0,1,1-.24,2.33,2.33,0,0,1,.62.08,1.65,1.65,0,0,1,.46.23,1.22,1.22,0,0,1,.32.36,1.88,1.88,0,0,1,.23.56,3.56,3.56,0,0,1,.08.79H37.08a1.71,1.71,0,0,0,.25,1,.88.88,0,0,0,.76.34,1.33,1.33,0,0,0,.54-.11,2.07,2.07,0,0,0,.52-.4Zm-1.06-1.64a2.42,2.42,0,0,0-.16-.9.49.49,0,0,0-.46-.29.53.53,0,0,0-.48.31,1.92,1.92,0,0,0-.21.88Z"/><path class="cls-21" d="M44,215.61l-.67-.07,0,0a.64.64,0,0,1,.18.3,1.25,1.25,0,0,1,.08.45,1.29,1.29,0,0,1-.42,1,1.85,1.85,0,0,1-1.22.35,2.19,2.19,0,0,1-.63-.07.52.52,0,0,0-.2.38.3.3,0,0,0,0,.18.38.38,0,0,0,.17.1,1.37,1.37,0,0,0,.33,0h1a1.6,1.6,0,0,1,1,.26,1,1,0,0,1,.32.79,1.17,1.17,0,0,1-.23.72,1.53,1.53,0,0,1-.69.46,3.22,3.22,0,0,1-1,.16c-.3,0-.56,0-.81,0a2.37,2.37,0,0,1-.61-.15.91.91,0,0,1-.4-.28.74.74,0,0,1-.14-.46.7.7,0,0,1,.14-.41,1.31,1.31,0,0,1,.4-.32.76.76,0,0,1-.24-.27.86.86,0,0,1-.07-.38.77.77,0,0,1,.07-.34.86.86,0,0,1,.21-.29,2,2,0,0,1,.33-.29,1.24,1.24,0,0,1-.46-.45,1.29,1.29,0,0,1-.16-.66,1.32,1.32,0,0,1,.13-.62,1.17,1.17,0,0,1,.36-.43,1.61,1.61,0,0,1,.55-.24A2.8,2.8,0,0,1,42,215l.35,0,.3.05H44Zm-2.79,3.61a.82.82,0,0,0-.22.24.6.6,0,0,0-.07.3.45.45,0,0,0,.24.42,1.74,1.74,0,0,0,.78.13,1.39,1.39,0,0,0,.75-.16.54.54,0,0,0,.26-.47.51.51,0,0,0,0-.22.32.32,0,0,0-.18-.16,1,1,0,0,0-.39-.06h-.68Zm.14-2.88a1.45,1.45,0,0,0,.14.74.47.47,0,0,0,.44.24.48.48,0,0,0,.41-.22,1.37,1.37,0,0,0,.14-.69,1.46,1.46,0,0,0-.14-.73.44.44,0,0,0-.42-.25.46.46,0,0,0-.43.22A1.27,1.27,0,0,0,41.38,216.34Z"/><path class="cls-21" d="M46.79,218.46l-.06,0a2.32,2.32,0,0,1-.63.45,1.44,1.44,0,0,1-.65.14,1.31,1.31,0,0,1-.58-.12.85.85,0,0,1-.38-.34,1,1,0,0,1-.13-.51,1,1,0,0,1,.57-.9,4,4,0,0,1,1.72-.42v-.37a1.47,1.47,0,0,0-.08-.57.54.54,0,0,0-.21-.27.53.53,0,0,0-.31-.08.71.71,0,0,0-.31.06.55.55,0,0,0-.24.24,1.22,1.22,0,0,0-.16.48H44.6v-.71c.24-.11.44-.19.6-.25a3.1,3.1,0,0,1,.47-.14,2.76,2.76,0,0,1,.42-.08,2.31,2.31,0,0,1,.37,0,1.79,1.79,0,0,1,.76.13.86.86,0,0,1,.43.41,1.76,1.76,0,0,1,.14.77v1.53c0,.17,0,.31,0,.4a.7.7,0,0,0,0,.21.29.29,0,0,0,.06.11l.1.07.21.06V219H46.75Zm-.13-1.34a1.6,1.6,0,0,0-.9.23.71.71,0,0,0-.3.62.5.5,0,0,0,.14.37.51.51,0,0,0,.36.13.71.71,0,0,0,.35-.1.69.69,0,0,0,.25-.26.59.59,0,0,0,.1-.34Z"/><path class="cls-21" d="M51.51,218.5a2.38,2.38,0,0,1-.63.41,1.53,1.53,0,0,1-.6.12,1.11,1.11,0,0,1-.87-.31,1.34,1.34,0,0,1-.29-.95v-2.2h-.49v-.27a.85.85,0,0,0,.35-.11.52.52,0,0,0,.18-.21,1.68,1.68,0,0,0,.1-.35c0-.14,0-.31.05-.52h.94v1h1.12v.48H50.25v1.77a3.45,3.45,0,0,0,0,.66.59.59,0,0,0,.13.31.37.37,0,0,0,.25.1l.2,0,.18-.07.2-.15Z"/><path class="cls-21" d="M51.8,218.71a.56.56,0,0,0,.27-.13.5.5,0,0,0,.1-.22c0-.1,0-.27,0-.52V216a1.37,1.37,0,0,0,0-.31.47.47,0,0,0-.06-.19.3.3,0,0,0-.14-.1.73.73,0,0,0-.21-.07v-.26l1.08,0h.49v2.79a3.13,3.13,0,0,0,0,.34.87.87,0,0,0,0,.18.56.56,0,0,0,0,.12.41.41,0,0,0,0,.09.31.31,0,0,0,.11.08l.17.06V219H51.8Zm1.5-5.19v1H52.22v-1Z"/><path class="cls-21" d="M56.09,215.09v.25a.68.68,0,0,0-.28.11.29.29,0,0,0-.08.21,1.51,1.51,0,0,0,.1.49l.56,1.71.63-1.5a3.43,3.43,0,0,0,.12-.33,1.35,1.35,0,0,0,0-.28.36.36,0,0,0-.1-.27.44.44,0,0,0-.26-.14v-.25h1.52v.26a.75.75,0,0,0-.18.08.89.89,0,0,0-.13.14,1.75,1.75,0,0,0-.15.24l-.23.49L56.42,219h-.74l-1-3a3.42,3.42,0,0,0-.17-.43.63.63,0,0,0-.15-.17.53.53,0,0,0-.2-.09v-.25Z"/><path class="cls-21" d="M60.61,219a2.19,2.19,0,0,1-1-.2,1.46,1.46,0,0,1-.66-.64,2.52,2.52,0,0,1-.23-1.13,2.72,2.72,0,0,1,.14-.91,1.61,1.61,0,0,1,1-1,2.45,2.45,0,0,1,.78-.12,1.91,1.91,0,0,1,1.43.5,2,2,0,0,1,.48,1.46,2.48,2.48,0,0,1-.24,1.15,1.54,1.54,0,0,1-.68.68A2.33,2.33,0,0,1,60.61,219ZM59.92,217a3,3,0,0,0,.19,1.24.6.6,0,0,0,.56.42.56.56,0,0,0,.35-.11.69.69,0,0,0,.22-.3,1.68,1.68,0,0,0,.12-.49,3.87,3.87,0,0,0,0-.62,3.14,3.14,0,0,0-.19-1.26.59.59,0,0,0-.55-.42.58.58,0,0,0-.43.17,1,1,0,0,0-.23.5A4.16,4.16,0,0,0,59.92,217Z"/><path class="cls-21" d="M64.46,217.79V219H63.4v-1.18Z"/><path class="cls-21" d="M69.44,213.62v.2a1.13,1.13,0,0,0-.28.07A.38.38,0,0,0,69,214a.49.49,0,0,0,0,.23,1.06,1.06,0,0,0,0,.29c0,.1,0,.22.08.34l.92,3.2,1.13-3.22c0-.05,0-.1,0-.16a.94.94,0,0,0,0-.16,1.3,1.3,0,0,1,0-.13v-.11a.49.49,0,0,0-.11-.35.6.6,0,0,0-.36-.14v-.2h1.65v.2a.57.57,0,0,0-.26.11.84.84,0,0,0-.2.24,4.16,4.16,0,0,0-.23.52L70.12,219H69.6l-1.32-4.36a2.42,2.42,0,0,0-.19-.51.72.72,0,0,0-.17-.23.57.57,0,0,0-.26-.11v-.2Z"/><path class="cls-21" d="M75.13,218.41l-.06,0a2.24,2.24,0,0,1-.64.5,1.39,1.39,0,0,1-.64.14,1.08,1.08,0,0,1-.52-.11.8.8,0,0,1-.35-.33,1,1,0,0,1,.44-1.36,4.1,4.1,0,0,1,1.71-.37v-.25A2.13,2.13,0,0,0,75,216a.68.68,0,0,0-.25-.35.83.83,0,0,0-.45-.11.79.79,0,0,0-.5.16,1.11,1.11,0,0,0-.28.48H73v-.51c.25-.12.46-.22.63-.28a4.74,4.74,0,0,1,.5-.15,2.94,2.94,0,0,1,.51-.05,1.41,1.41,0,0,1,.63.12.86.86,0,0,1,.35.38,1.9,1.9,0,0,1,.12.77v1.77a1.5,1.5,0,0,0,0,.22,1.62,1.62,0,0,0,.06.17.4.4,0,0,0,.12.1,1,1,0,0,0,.25.09V219H75.11Zm-.06-1.23a2.78,2.78,0,0,0-1.2.22.66.66,0,0,0-.4.61.58.58,0,0,0,.09.35.44.44,0,0,0,.23.18,1,1,0,0,0,.33.05.86.86,0,0,0,.48-.13.83.83,0,0,0,.34-.33.75.75,0,0,0,.13-.39Z"/><path class="cls-21" d="M80.67,219H79.12v-.19l.22-.08a.52.52,0,0,0,.11-.1.57.57,0,0,0,.07-.2,1.85,1.85,0,0,0,0-.39v-1c0-.18,0-.35,0-.5a2.39,2.39,0,0,0,0-.36,1.38,1.38,0,0,0-.09-.23.53.53,0,0,0-.13-.13.46.46,0,0,0-.17-.09.55.55,0,0,0-.24,0,.72.72,0,0,0-.29.06,1.31,1.31,0,0,0-.31.21,1.05,1.05,0,0,0-.24.3.7.7,0,0,0-.07.33V218a2.44,2.44,0,0,0,0,.47.34.34,0,0,0,.12.2.72.72,0,0,0,.29.12V219H76.84v-.19l.22-.08a.52.52,0,0,0,.11-.1.58.58,0,0,0,.07-.19,2.19,2.19,0,0,0,0-.41v-2.11a.7.7,0,0,0-.06-.24.32.32,0,0,0-.14-.14,1.2,1.2,0,0,0-.28-.08v-.2l.92,0h.24l0,.64.06,0a3.63,3.63,0,0,1,.46-.42,1.68,1.68,0,0,1,.37-.2,1.22,1.22,0,0,1,.38-.07,1.08,1.08,0,0,1,.68.2,1.09,1.09,0,0,1,.21.26,1.52,1.52,0,0,1,.12.36,2.7,2.7,0,0,1,0,.54V218a3.25,3.25,0,0,0,0,.39.64.64,0,0,0,.05.19.32.32,0,0,0,.12.11.87.87,0,0,0,.26.1Z"/><path class="cls-21" d="M81.38,218.78l.22-.08a.52.52,0,0,0,.11-.1.58.58,0,0,0,.07-.19,2.19,2.19,0,0,0,0-.41v-2.11a.7.7,0,0,0-.06-.24.32.32,0,0,0-.14-.14,1.2,1.2,0,0,0-.28-.08v-.2l.92,0h.24V218a2.44,2.44,0,0,0,0,.47.34.34,0,0,0,.12.2.72.72,0,0,0,.29.12V219H81.38Zm1.12-5.09v.76h-.72v-.76Z"/><path class="cls-21" d="M86.32,214.71c0-.25,0-.42,0-.52a1,1,0,0,0,0-.26.59.59,0,0,0-.07-.16.27.27,0,0,0-.12-.09,1.38,1.38,0,0,0-.28-.07v-.21l1,0H87v4.53a4.17,4.17,0,0,0,0,.44.41.41,0,0,0,0,.21.29.29,0,0,0,.12.13,1.38,1.38,0,0,0,.3.09v.2l-.93,0h-.24l0-.64-.06,0a2.94,2.94,0,0,1-.43.4,2.42,2.42,0,0,1-.39.21A1.27,1.27,0,0,1,85,219a1.15,1.15,0,0,1-1-.48,2.37,2.37,0,0,1-.35-1.41,2.41,2.41,0,0,1,.22-1.09,1.56,1.56,0,0,1,.62-.67,1.71,1.71,0,0,1,.87-.22,2.29,2.29,0,0,1,.47,0,2,2,0,0,1,.44.14Zm0,1.94a3.1,3.1,0,0,0,0-.49,1.14,1.14,0,0,0-.09-.31.61.61,0,0,0-.18-.21.7.7,0,0,0-.24-.13,1.39,1.39,0,0,0-.32,0,.86.86,0,0,0-.76.4,2.09,2.09,0,0,0-.27,1.16,2.45,2.45,0,0,0,.22,1.14.71.71,0,0,0,.66.39,1.09,1.09,0,0,0,.28,0,.65.65,0,0,0,.23-.09.87.87,0,0,0,.22-.18.78.78,0,0,0,.17-.21,1,1,0,0,0,.08-.21,1.35,1.35,0,0,0,0-.31Z"/><path class="cls-21" d="M90.45,218.41l-.06,0a2.39,2.39,0,0,1-.64.5,1.42,1.42,0,0,1-.64.14,1.12,1.12,0,0,1-.53-.11.86.86,0,0,1-.35-.33,1,1,0,0,1,.45-1.36,4.09,4.09,0,0,1,1.7-.37v-.25a1.85,1.85,0,0,0-.08-.64.61.61,0,0,0-.24-.35.89.89,0,0,0-.46-.11.78.78,0,0,0-.49.16,1,1,0,0,0-.28.48h-.52v-.51c.26-.12.47-.22.63-.28a4.91,4.91,0,0,1,.51-.15,2.76,2.76,0,0,1,.51-.05,1.37,1.37,0,0,1,.62.12.83.83,0,0,1,.36.38,2.13,2.13,0,0,1,.11.77v1.36c0,.2,0,.33,0,.41a1.5,1.5,0,0,0,0,.22.43.43,0,0,0,.06.17.4.4,0,0,0,.12.1,1,1,0,0,0,.25.09V219H90.43Zm-.07-1.23a2.73,2.73,0,0,0-1.19.22.64.64,0,0,0-.4.61.58.58,0,0,0,.09.35.44.44,0,0,0,.23.18,1,1,0,0,0,.32.05.92.92,0,0,0,.49-.13.83.83,0,0,0,.34-.33.74.74,0,0,0,.12-.39Z"/><path class="cls-21" d="M94.81,214.71c0-.25,0-.42,0-.52a1,1,0,0,0,0-.26.59.59,0,0,0-.07-.16.27.27,0,0,0-.12-.09,1.38,1.38,0,0,0-.28-.07v-.21l1,0h.23v4.53a4.17,4.17,0,0,0,0,.44.41.41,0,0,0,0,.21.29.29,0,0,0,.12.13,1.38,1.38,0,0,0,.3.09v.2L95,219H94.8l0-.64-.06,0a2.94,2.94,0,0,1-.43.4A2.42,2.42,0,0,1,94,219a1.23,1.23,0,0,1-.44.07,1.15,1.15,0,0,1-1-.48,2.37,2.37,0,0,1-.35-1.41,2.28,2.28,0,0,1,.23-1.09,1.48,1.48,0,0,1,.61-.67,1.71,1.71,0,0,1,.87-.22,2.29,2.29,0,0,1,.47,0,2,2,0,0,1,.44.14Zm0,1.94a3.1,3.1,0,0,0,0-.49,1.14,1.14,0,0,0-.09-.31.52.52,0,0,0-.18-.21.7.7,0,0,0-.24-.13,1.37,1.37,0,0,0-.31,0,.87.87,0,0,0-.77.4,2.1,2.1,0,0,0-.26,1.16,2.46,2.46,0,0,0,.21,1.14.72.72,0,0,0,.66.39,1.23,1.23,0,0,0,.29,0,.68.68,0,0,0,.22-.09.87.87,0,0,0,.22-.18.63.63,0,0,0,.17-.21.66.66,0,0,0,.08-.21,1.35,1.35,0,0,0,0-.31Z"/><path class="cls-21" d="M101,219.29a4.34,4.34,0,0,1-.42.79,1.6,1.6,0,0,1-.45.45,1,1,0,0,1-.58.16,3,3,0,0,1-.49-.05v-.78h.35a.41.41,0,0,0,.12.22.24.24,0,0,0,.2.07.46.46,0,0,0,.21-.05.62.62,0,0,0,.19-.15,2.37,2.37,0,0,0,.24-.34c.09-.15.19-.34.31-.58l-1.11-2.95a2.47,2.47,0,0,0-.17-.4.61.61,0,0,0-.14-.17.5.5,0,0,0-.22-.09v-.19h1.6v.19l-.26.08a.23.23,0,0,0-.11.11.27.27,0,0,0,0,.16.78.78,0,0,0,0,.22,1.14,1.14,0,0,0,.08.27l.7,2,.78-1.88a2.66,2.66,0,0,0,.11-.28,1.13,1.13,0,0,0,0-.25.32.32,0,0,0-.09-.25.64.64,0,0,0-.32-.14v-.19H103v.19a.55.55,0,0,0-.23.09,1,1,0,0,0-.17.21,3.36,3.36,0,0,0-.2.39Z"/><path class="cls-21" d="M108.36,218.41l-.06,0a2.24,2.24,0,0,1-.64.5,1.39,1.39,0,0,1-.64.14,1.08,1.08,0,0,1-.52-.11.8.8,0,0,1-.35-.33,1,1,0,0,1,.44-1.36,4.1,4.1,0,0,1,1.71-.37v-.25a2.13,2.13,0,0,0-.08-.64.63.63,0,0,0-.25-.35.83.83,0,0,0-.45-.11.74.74,0,0,0-.49.16,1,1,0,0,0-.29.48h-.51v-.51c.25-.12.46-.22.63-.28a4.74,4.74,0,0,1,.5-.15,2.94,2.94,0,0,1,.51-.05,1.41,1.41,0,0,1,.63.12.86.86,0,0,1,.35.38,1.9,1.9,0,0,1,.12.77v1.77a1.46,1.46,0,0,0,0,.22.43.43,0,0,0,.06.17.27.27,0,0,0,.11.1,1.13,1.13,0,0,0,.25.09V219h-1.08Zm-.06-1.23a2.78,2.78,0,0,0-1.2.22.65.65,0,0,0-.39.61.58.58,0,0,0,.09.35.42.42,0,0,0,.22.18,1.09,1.09,0,0,0,.33.05.92.92,0,0,0,.49-.13.87.87,0,0,0,.33-.33.67.67,0,0,0,.13-.39Z"/><path class="cls-21" d="M111.13,215.88h.06a2.24,2.24,0,0,1,.4-.41,1.25,1.25,0,0,1,.4-.24,1.42,1.42,0,0,1,.48-.08l.41,0v.9h-.44a.82.82,0,0,0-.2-.3.39.39,0,0,0-.29-.1.57.57,0,0,0-.28.08,1.46,1.46,0,0,0-.27.24.88.88,0,0,0-.18.3,1,1,0,0,0,0,.32V218a2.39,2.39,0,0,0,0,.49.35.35,0,0,0,.15.2.74.74,0,0,0,.3.1V219h-1.59v-.19l.22-.08a.52.52,0,0,0,.11-.1.42.42,0,0,0,.07-.19,2,2,0,0,0,0-.41v-1.7c0-.17,0-.31,0-.41a.7.7,0,0,0-.06-.24.32.32,0,0,0-.14-.14,1.25,1.25,0,0,0-.27-.08v-.2l.92,0h.23Z"/><path class="cls-21" d="M114.51,215.88h0a3.15,3.15,0,0,1,.4-.41,1.28,1.28,0,0,1,.89-.32l.41,0v.9h-.44a.82.82,0,0,0-.2-.3.39.39,0,0,0-.29-.1.57.57,0,0,0-.28.08,1,1,0,0,0-.27.24.88.88,0,0,0-.18.3.8.8,0,0,0,0,.32V218a1.83,1.83,0,0,0,0,.49.38.38,0,0,0,.14.2.86.86,0,0,0,.31.1V219h-1.59v-.19l.22-.08a.52.52,0,0,0,.11-.1.58.58,0,0,0,.07-.19,3.66,3.66,0,0,0,0-.41v-1.7c0-.17,0-.31,0-.41a.54.54,0,0,0,0-.24.32.32,0,0,0-.14-.14,1.2,1.2,0,0,0-.28-.08v-.2l.92,0h.24Z"/><path class="cls-21" d="M118.53,219a1.57,1.57,0,0,1-1.24-.48,2,2,0,0,1-.43-1.42,2.41,2.41,0,0,1,.22-1.09,1.47,1.47,0,0,1,.62-.66,1.77,1.77,0,0,1,.9-.22,1.59,1.59,0,0,1,1.27.49,2,2,0,0,1,.43,1.4,2.52,2.52,0,0,1-.21,1.09,1.5,1.5,0,0,1-.62.67A1.84,1.84,0,0,1,118.53,219Zm-.93-2a2.36,2.36,0,0,0,.26,1.24.86.86,0,0,0,1.18.31,1,1,0,0,0,.3-.35,1.73,1.73,0,0,0,.17-.5,3.61,3.61,0,0,0,0-.59,2.87,2.87,0,0,0-.13-.95,1.1,1.1,0,0,0-.35-.56.75.75,0,0,0-.5-.18.81.81,0,0,0-.73.41A2.24,2.24,0,0,0,117.6,217.05Z"/><path class="cls-21" d="M124.67,215.62l-.73,0,0,0a.87.87,0,0,1,.19.33,1.33,1.33,0,0,1,.07.45,1.25,1.25,0,0,1-.39,1,1.68,1.68,0,0,1-1.13.34,1.61,1.61,0,0,1-.56-.08.6.6,0,0,0-.3.45.36.36,0,0,0,.06.22.31.31,0,0,0,.19.1,2,2,0,0,0,.4,0h.94a1.61,1.61,0,0,1,.68.13.87.87,0,0,1,.38.35,1.13,1.13,0,0,1,.11.51,1.07,1.07,0,0,1-.21.65,1.39,1.39,0,0,1-.62.45,2.42,2.42,0,0,1-.93.16,5.44,5.44,0,0,1-.73,0,2.49,2.49,0,0,1-.56-.16.91.91,0,0,1-.36-.3.73.73,0,0,1-.13-.45.68.68,0,0,1,.17-.45,1.32,1.32,0,0,1,.46-.36.64.64,0,0,1-.29-.22.55.55,0,0,1-.1-.34.75.75,0,0,1,.12-.41,2.09,2.09,0,0,1,.45-.42,1,1,0,0,1-.43-.45,1.34,1.34,0,0,1-.15-.64,1.55,1.55,0,0,1,.11-.59,1.27,1.27,0,0,1,.31-.41,1.23,1.23,0,0,1,.47-.24,2.21,2.21,0,0,1,.59-.08,2.15,2.15,0,0,1,.56.07h1.39ZM122,219a1.27,1.27,0,0,0-.3.32.7.7,0,0,0-.1.38.56.56,0,0,0,.28.52,1.75,1.75,0,0,0,.86.16,1.82,1.82,0,0,0,.61-.09.78.78,0,0,0,.38-.27.68.68,0,0,0,.14-.41.78.78,0,0,0,0-.22.4.4,0,0,0-.1-.18.54.54,0,0,0-.22-.13,1,1,0,0,0-.37-.05h-.59A4.61,4.61,0,0,1,122,219Zm-.1-2.61a1.24,1.24,0,0,0,.2.75.69.69,0,0,0,.58.27.71.71,0,0,0,.34-.08.58.58,0,0,0,.23-.21,1,1,0,0,0,.13-.3,1.5,1.5,0,0,0,0-.37,1.64,1.64,0,0,0-.09-.58.85.85,0,0,0-.27-.34.71.71,0,0,0-.39-.1.69.69,0,0,0-.57.24A1.16,1.16,0,0,0,121.94,216.42Z"/><path class="cls-21" d="M127.44,218.41l-.06,0a2.24,2.24,0,0,1-.64.5,1.39,1.39,0,0,1-.64.14,1.08,1.08,0,0,1-.52-.11.8.8,0,0,1-.35-.33.86.86,0,0,1-.13-.48,1,1,0,0,1,.57-.88,4.1,4.1,0,0,1,1.71-.37v-.25a2.13,2.13,0,0,0-.08-.64.68.68,0,0,0-.25-.35.83.83,0,0,0-.45-.11.79.79,0,0,0-.5.16,1.11,1.11,0,0,0-.28.48h-.51v-.51c.25-.12.46-.22.63-.28a4.13,4.13,0,0,1,.5-.15,2.94,2.94,0,0,1,.51-.05,1.41,1.41,0,0,1,.63.12.86.86,0,0,1,.35.38,1.9,1.9,0,0,1,.12.77v1.77a1.5,1.5,0,0,0,0,.22,1.62,1.62,0,0,0,.06.17.4.4,0,0,0,.12.1,1,1,0,0,0,.25.09V219h-1.08Zm-.06-1.23a2.78,2.78,0,0,0-1.2.22.66.66,0,0,0-.4.61.58.58,0,0,0,.09.35.44.44,0,0,0,.23.18,1,1,0,0,0,.33.05.86.86,0,0,0,.48-.13.83.83,0,0,0,.34-.33.75.75,0,0,0,.13-.39Z"/><path class="cls-21" d="M133,219h-1.55v-.19l.22-.08a.52.52,0,0,0,.11-.1.57.57,0,0,0,.07-.2,1.85,1.85,0,0,0,0-.39v-1c0-.18,0-.35,0-.5a2.39,2.39,0,0,0-.05-.36,1.38,1.38,0,0,0-.09-.23.53.53,0,0,0-.13-.13.46.46,0,0,0-.17-.09.55.55,0,0,0-.24,0,.68.68,0,0,0-.29.06,1.31,1.31,0,0,0-.31.21,1.05,1.05,0,0,0-.24.3.7.7,0,0,0-.07.33V218a2.44,2.44,0,0,0,0,.47.34.34,0,0,0,.12.2.72.72,0,0,0,.29.12V219h-1.54v-.19l.22-.08a.52.52,0,0,0,.11-.1.58.58,0,0,0,.07-.19,3.66,3.66,0,0,0,0-.41v-2.11a.7.7,0,0,0-.06-.24.32.32,0,0,0-.14-.14,1.2,1.2,0,0,0-.28-.08v-.2l.92,0h.24l0,.64,0,0a4.36,4.36,0,0,1,.47-.42,1.48,1.48,0,0,1,.37-.2,1.22,1.22,0,0,1,.38-.07,1.08,1.08,0,0,1,.68.2,1.09,1.09,0,0,1,.21.26,1.52,1.52,0,0,1,.12.36,2.7,2.7,0,0,1,0,.54V218a3.25,3.25,0,0,0,0,.39.64.64,0,0,0,0,.19.32.32,0,0,0,.12.11.87.87,0,0,0,.26.1Z"/><path class="cls-21" d="M136.62,215.32v.82h-.5a1.45,1.45,0,0,0-.17-.41.55.55,0,0,0-.23-.2.73.73,0,0,0-.32-.06.76.76,0,0,0-.48.17,1.12,1.12,0,0,0-.34.54,2.84,2.84,0,0,0-.12.88,3.74,3.74,0,0,0,0,.61,1.44,1.44,0,0,0,.16.47.84.84,0,0,0,.31.31.92.92,0,0,0,.46.11,1.26,1.26,0,0,0,.51-.11,1.51,1.51,0,0,0,.48-.37l.23.26a2.67,2.67,0,0,1-.36.34,1.55,1.55,0,0,1-.32.2l-.35.12a2.13,2.13,0,0,1-.37,0,1.37,1.37,0,0,1-1.14-.49,2.24,2.24,0,0,1-.39-1.42,2.29,2.29,0,0,1,.22-1,1.6,1.6,0,0,1,.62-.69,1.72,1.72,0,0,1,.91-.24,3.7,3.7,0,0,1,.6,0A2.86,2.86,0,0,1,136.62,215.32Z"/><path class="cls-21" d="M137.29,218.78l.22-.08a.32.32,0,0,0,.1-.1.57.57,0,0,0,.08-.19,3.66,3.66,0,0,0,0-.41v-1.7c0-.17,0-.31,0-.41a.54.54,0,0,0,0-.24.32.32,0,0,0-.14-.14,1.2,1.2,0,0,0-.28-.08v-.2l.92,0h.24V218a2.44,2.44,0,0,0,0,.47.34.34,0,0,0,.12.2.66.66,0,0,0,.29.12V219h-1.54Zm1.12-5.09v.76h-.72v-.76Z"/><path class="cls-21" d="M141.84,218.41l-.06,0a2.24,2.24,0,0,1-.64.5,1.39,1.39,0,0,1-.64.14,1.08,1.08,0,0,1-.52-.11.8.8,0,0,1-.35-.33,1,1,0,0,1,.44-1.36,4.1,4.1,0,0,1,1.71-.37v-.25a2.13,2.13,0,0,0-.08-.64.68.68,0,0,0-.25-.35.83.83,0,0,0-.45-.11.79.79,0,0,0-.5.16,1.11,1.11,0,0,0-.28.48h-.51v-.51c.25-.12.46-.22.63-.28a4.74,4.74,0,0,1,.5-.15,2.94,2.94,0,0,1,.51-.05,1.41,1.41,0,0,1,.63.12.86.86,0,0,1,.35.38,1.9,1.9,0,0,1,.12.77v1.77a1.5,1.5,0,0,0,0,.22,1.62,1.62,0,0,0,.06.17.4.4,0,0,0,.12.1,1,1,0,0,0,.25.09V219h-1.08Zm-.06-1.23a2.78,2.78,0,0,0-1.2.22.66.66,0,0,0-.4.61.58.58,0,0,0,.09.35.44.44,0,0,0,.23.18,1,1,0,0,0,.33.05.86.86,0,0,0,.48-.13.83.83,0,0,0,.34-.33.75.75,0,0,0,.13-.39Z"/><path class="cls-21" d="M144.39,218.06V219h-.79v-.91Z"/><path class="cls-21" d="M11.35,228.24h1l.29,0a.53.53,0,0,0,.19-.06A.57.57,0,0,0,13,228a.78.78,0,0,0,.12-.19,1.18,1.18,0,0,0,.11-.29c0-.12.08-.3.14-.54h.39l-.08,1.58H10.16v-.19a.87.87,0,0,0,.33-.14.38.38,0,0,0,.1-.22,2.24,2.24,0,0,0,0-.43v-3.39a3.25,3.25,0,0,0,0-.39.43.43,0,0,0-.06-.19.31.31,0,0,0-.12-.11,1.58,1.58,0,0,0-.26-.1v-.19h1.65v.19a1.82,1.82,0,0,0-.24.09.29.29,0,0,0-.12.1.38.38,0,0,0-.07.19,2,2,0,0,0,0,.41Z"/><path class="cls-21" d="M14.34,224.85h1.12v2a6.16,6.16,0,0,0,0,.7,1.28,1.28,0,0,0,.11.36.64.64,0,0,0,.2.2.74.74,0,0,0,.36.08.75.75,0,0,0,.29-.06,1.41,1.41,0,0,0,.3-.2,1.18,1.18,0,0,0,.24-.29.74.74,0,0,0,.08-.34v-1.47a2.68,2.68,0,0,0,0-.34.48.48,0,0,0,0-.18.39.39,0,0,0-.06-.11.31.31,0,0,0-.11-.08,1,1,0,0,0-.22-.07v-.2h1.12v2.68c0,.2,0,.35,0,.43a1,1,0,0,0,.05.22.3.3,0,0,0,.13.12.65.65,0,0,0,.29.09v.21l-.9,0h-.24l0-.64-.06,0a2.54,2.54,0,0,1-.63.52,1.16,1.16,0,0,1-.59.16,1.14,1.14,0,0,1-.59-.14.82.82,0,0,1-.35-.42,2.33,2.33,0,0,1-.11-.79v-1.48a2.2,2.2,0,0,0,0-.45.37.37,0,0,0-.09-.2.76.76,0,0,0-.32-.13Z"/><path class="cls-21" d="M21.85,224.94v.82h-.5a1.15,1.15,0,0,0-.16-.4.48.48,0,0,0-.23-.2.73.73,0,0,0-.32-.06.79.79,0,0,0-.49.17,1.19,1.19,0,0,0-.33.54,2.51,2.51,0,0,0-.13.88,3.76,3.76,0,0,0,0,.61,1.53,1.53,0,0,0,.16.47.89.89,0,0,0,.3.31,1,1,0,0,0,.47.11,1.26,1.26,0,0,0,.51-.11,1.63,1.63,0,0,0,.48-.37l.23.26c-.14.14-.26.26-.36.34a1.81,1.81,0,0,1-.33.2,1.78,1.78,0,0,1-.71.15,1.36,1.36,0,0,1-1.14-.49,2.67,2.67,0,0,1-.17-2.45,1.54,1.54,0,0,1,.62-.69,1.69,1.69,0,0,1,.91-.24,5.74,5.74,0,0,1,.6,0A5.23,5.23,0,0,1,21.85,224.94Z"/><path class="cls-21" d="M23.58,225.47h0a4.47,4.47,0,0,1,.49-.43,2,2,0,0,1,.35-.19,1.16,1.16,0,0,1,.38-.06,1.46,1.46,0,0,1,.38.05,1.08,1.08,0,0,1,.3.16,1,1,0,0,1,.21.25,1.52,1.52,0,0,1,.12.36,3.71,3.71,0,0,1,0,.53v1.48a4,4,0,0,0,0,.46.39.39,0,0,0,.11.2.85.85,0,0,0,.31.13v.19H24.75v-.19a.81.81,0,0,0,.22-.09.24.24,0,0,0,.11-.09.47.47,0,0,0,.07-.2,1.85,1.85,0,0,0,0-.39v-1a5.26,5.26,0,0,0-.05-.8.76.76,0,0,0-.21-.41.66.66,0,0,0-.44-.14.67.67,0,0,0-.28.06,1.18,1.18,0,0,0-.29.19,1.29,1.29,0,0,0-.25.29.61.61,0,0,0-.08.32v1.5a3.67,3.67,0,0,0,0,.38.74.74,0,0,0,.05.19.34.34,0,0,0,.12.12.86.86,0,0,0,.25.1v.19H22.46v-.19a1,1,0,0,0,.24-.09.43.43,0,0,0,.12-.11.47.47,0,0,0,.06-.19,3.59,3.59,0,0,0,0-.4v-3.28c0-.25,0-.42,0-.52a1,1,0,0,0,0-.26.34.34,0,0,0-.07-.16.27.27,0,0,0-.12-.09.84.84,0,0,0-.28-.07V223l.95,0h.24Z"/><path class="cls-21" d="M29.28,228l-.06,0a2.24,2.24,0,0,1-.64.5,1.53,1.53,0,0,1-.64.14,1.21,1.21,0,0,1-.52-.11.8.8,0,0,1-.35-.33,1,1,0,0,1-.12-.48,1,1,0,0,1,.56-.89,4.29,4.29,0,0,1,1.71-.36v-.25a2.25,2.25,0,0,0-.08-.65.64.64,0,0,0-.25-.34.83.83,0,0,0-.45-.11.69.69,0,0,0-.49.16,1,1,0,0,0-.29.48h-.51v-.51a5,5,0,0,1,.63-.28,3.17,3.17,0,0,1,.5-.15,2.94,2.94,0,0,1,.51-.05,1.41,1.41,0,0,1,.63.12.81.81,0,0,1,.35.38,1.87,1.87,0,0,1,.12.77v1.77a1.46,1.46,0,0,0,0,.22.34.34,0,0,0,.06.16.29.29,0,0,0,.11.11,1.13,1.13,0,0,0,.25.09v.19H29.26Zm-.06-1.23A3,3,0,0,0,28,227a.66.66,0,0,0-.39.62.58.58,0,0,0,.09.35.42.42,0,0,0,.22.18,1.09,1.09,0,0,0,.33.05.92.92,0,0,0,.49-.13,1,1,0,0,0,.33-.33.68.68,0,0,0,.13-.4Z"/><path class="cls-21" d="M35.88,224.34c0-.25,0-.42,0-.52a1.7,1.7,0,0,0,0-.26.48.48,0,0,0-.07-.16.25.25,0,0,0-.13-.09.84.84,0,0,0-.27-.07V223l1,0h.23v4.54c0,.2,0,.35,0,.44a1.08,1.08,0,0,0,0,.21.3.3,0,0,0,.13.12.65.65,0,0,0,.29.09v.21l-.92,0h-.24l.05-.64-.06,0a3.35,3.35,0,0,1-.43.39,1.47,1.47,0,0,1-.39.21,1.08,1.08,0,0,1-.44.08,1.16,1.16,0,0,1-1-.49,2.85,2.85,0,0,1-.12-2.49,1.5,1.5,0,0,1,.62-.67,1.66,1.66,0,0,1,.87-.22,2.29,2.29,0,0,1,.47,0,2.71,2.71,0,0,1,.44.13Zm0,1.94a3.1,3.1,0,0,0,0-.49,1,1,0,0,0-.09-.31.63.63,0,0,0-.18-.21.7.7,0,0,0-.24-.13,1,1,0,0,0-.32,0,.84.84,0,0,0-.76.4,2.07,2.07,0,0,0-.27,1.16,2.33,2.33,0,0,0,.22,1.14.7.7,0,0,0,.66.39,1,1,0,0,0,.51-.12,1.59,1.59,0,0,0,.22-.18,1,1,0,0,0,.17-.21,1,1,0,0,0,.08-.21,1.39,1.39,0,0,0,0-.32Z"/><path class="cls-21" d="M40.88,227.93a2.68,2.68,0,0,1-.47.41,1.83,1.83,0,0,1-.46.24,1.92,1.92,0,0,1-.55.08,1.55,1.55,0,0,1-1.23-.48,2.18,2.18,0,0,1-.41-1.43,2.4,2.4,0,0,1,.21-1,1.56,1.56,0,0,1,.6-.69,1.86,1.86,0,0,1,1.57-.12,1.14,1.14,0,0,1,.45.35,1.51,1.51,0,0,1,.26.54,3.35,3.35,0,0,1,.1.87H38.48v.07a2.51,2.51,0,0,0,.1.78,1,1,0,0,0,.34.49,1,1,0,0,0,.62.18,1.34,1.34,0,0,0,.58-.12,1.74,1.74,0,0,0,.51-.39Zm-.67-1.59a3,3,0,0,0-.1-.69.92.92,0,0,0-.25-.41.6.6,0,0,0-.43-.14.76.76,0,0,0-.65.32,1.76,1.76,0,0,0-.28.92Z"/><path class="cls-21" d="M45,225.46h.06a5,5,0,0,1,.38-.35,2.1,2.1,0,0,1,.3-.19,1.12,1.12,0,0,1,.26-.11,1.15,1.15,0,0,1,.26,0,1.08,1.08,0,0,1,.64.18,1,1,0,0,1,.34.55,4,4,0,0,1,.48-.43,1.29,1.29,0,0,1,.37-.22,1.11,1.11,0,0,1,.41-.08,1.21,1.21,0,0,1,.45.08.86.86,0,0,1,.33.23,1.14,1.14,0,0,1,.19.4,2.72,2.72,0,0,1,.06.64v1.48a3.25,3.25,0,0,0,0,.41.38.38,0,0,0,.06.18.27.27,0,0,0,.11.1.67.67,0,0,0,.25.1v.19H48.42v-.19a.69.69,0,0,0,.22-.09.27.27,0,0,0,.12-.09.66.66,0,0,0,.07-.2,3.38,3.38,0,0,0,0-.39v-1c0-.22,0-.41,0-.55a2.08,2.08,0,0,0-.06-.35.53.53,0,0,0-.09-.2.74.74,0,0,0-.12-.13.42.42,0,0,0-.16-.09.78.78,0,0,0-.24,0,.72.72,0,0,0-.29.06,1.31,1.31,0,0,0-.29.22.78.78,0,0,0-.23.3.75.75,0,0,0-.07.35v1.43a4,4,0,0,0,0,.41.93.93,0,0,0,.06.18.36.36,0,0,0,.11.1.74.74,0,0,0,.26.1v.19H46.18v-.19a.81.81,0,0,0,.22-.09.24.24,0,0,0,.11-.09.47.47,0,0,0,.07-.2,1.85,1.85,0,0,0,0-.39v-1c0-.23,0-.42,0-.57a1.39,1.39,0,0,0-.06-.35.65.65,0,0,0-.11-.22.49.49,0,0,0-.13-.12.59.59,0,0,0-.16-.07l-.2,0a.73.73,0,0,0-.3.07,1.32,1.32,0,0,0-.29.21,1.11,1.11,0,0,0-.22.29.72.72,0,0,0-.08.32v1.47c0,.15,0,.26,0,.34a.6.6,0,0,0,0,.18.23.23,0,0,0,.07.11.24.24,0,0,0,.11.08,1,1,0,0,0,.22.08v.19H43.94v-.19a.81.81,0,0,0,.22-.09.31.31,0,0,0,.11-.09.47.47,0,0,0,.07-.2,1.9,1.9,0,0,0,0-.4v-1.71c0-.16,0-.3,0-.4a.83.83,0,0,0-.06-.25.29.29,0,0,0-.14-.13,1.25,1.25,0,0,0-.27-.08v-.21l.92,0h.24Z"/><path class="cls-21" d="M53,228l-.06,0a2.39,2.39,0,0,1-.64.5,1.57,1.57,0,0,1-.64.14,1.25,1.25,0,0,1-.53-.11.86.86,0,0,1-.35-.33,1,1,0,0,1-.12-.48,1,1,0,0,1,.57-.89,4.23,4.23,0,0,1,1.7-.36v-.25a2.25,2.25,0,0,0-.08-.65.59.59,0,0,0-.25-.34.83.83,0,0,0-.45-.11.71.71,0,0,0-.49.16,1,1,0,0,0-.28.48h-.52v-.51a5.7,5.7,0,0,1,.63-.28,3.28,3.28,0,0,1,.51-.15,2.76,2.76,0,0,1,.51-.05,1.37,1.37,0,0,1,.62.12.72.72,0,0,1,.35.38,1.87,1.87,0,0,1,.12.77v1.36c0,.19,0,.33,0,.41a1.5,1.5,0,0,0,0,.22.34.34,0,0,0,.06.16.29.29,0,0,0,.11.11l.25.09v.19H52.94Zm-.07-1.23a2.91,2.91,0,0,0-1.19.21.66.66,0,0,0-.4.62.58.58,0,0,0,.09.35.44.44,0,0,0,.23.18,1,1,0,0,0,.32.05.92.92,0,0,0,.49-.13,1.07,1.07,0,0,0,.34-.33.75.75,0,0,0,.12-.4Z"/><path class="cls-21" d="M58.49,228.6H56.94v-.19a.69.69,0,0,0,.22-.09.2.2,0,0,0,.11-.09.64.64,0,0,0,.08-.2,3.38,3.38,0,0,0,0-.39v-1c0-.18,0-.35,0-.5a2.22,2.22,0,0,0-.06-.36.61.61,0,0,0-.09-.23.5.5,0,0,0-.12-.13,1,1,0,0,0-.17-.1.85.85,0,0,0-.25,0,.72.72,0,0,0-.29.06,1.18,1.18,0,0,0-.3.21,1.05,1.05,0,0,0-.24.3.67.67,0,0,0-.08.33v1.46a1.75,1.75,0,0,0,0,.47.34.34,0,0,0,.12.2,1,1,0,0,0,.28.12v.19H54.66v-.19a.69.69,0,0,0,.22-.09.31.31,0,0,0,.11-.09.47.47,0,0,0,.07-.2,1.9,1.9,0,0,0,0-.4v-1.71c0-.16,0-.3,0-.4a.62.62,0,0,0,0-.25.32.32,0,0,0-.15-.13,1,1,0,0,0-.27-.08v-.21l.92,0h.24l-.05.64h.06a4.65,4.65,0,0,1,.47-.42,2.09,2.09,0,0,1,.36-.19,1,1,0,0,1,.39-.07,1.46,1.46,0,0,1,.38.05.73.73,0,0,1,.29.15.72.72,0,0,1,.21.25,1.24,1.24,0,0,1,.13.37,3.71,3.71,0,0,1,0,.53v1.48a3.89,3.89,0,0,0,0,.39.47.47,0,0,0,.06.19.29.29,0,0,0,.11.11,1.58,1.58,0,0,0,.26.1Z"/><path class="cls-21" d="M62.34,227.93a2.34,2.34,0,0,1-.46.41,1.83,1.83,0,0,1-.46.24,1.92,1.92,0,0,1-.55.08,1.55,1.55,0,0,1-1.23-.48,2.18,2.18,0,0,1-.41-1.43,2.4,2.4,0,0,1,.21-1A1.56,1.56,0,0,1,60,225a1.86,1.86,0,0,1,1.57-.12,1.14,1.14,0,0,1,.45.35,1.51,1.51,0,0,1,.26.54,3.86,3.86,0,0,1,.1.87H60v.07a2.51,2.51,0,0,0,.1.78,1,1,0,0,0,.34.49,1,1,0,0,0,.62.18,1.34,1.34,0,0,0,.58-.12,1.74,1.74,0,0,0,.51-.39Zm-.66-1.59a3,3,0,0,0-.1-.69.92.92,0,0,0-.25-.41.6.6,0,0,0-.43-.14.76.76,0,0,0-.65.32,1.76,1.76,0,0,0-.28.92Z"/><path class="cls-21" d="M64.24,225.5l.05,0a2.75,2.75,0,0,1,.41-.42,1.29,1.29,0,0,1,.88-.31l.41,0v.9h-.44a1,1,0,0,0-.2-.31.44.44,0,0,0-.29-.09.57.57,0,0,0-.28.08.87.87,0,0,0-.27.24.85.85,0,0,0-.18.29,1.09,1.09,0,0,0,0,.33v1.37a1.83,1.83,0,0,0,0,.49.38.38,0,0,0,.14.2,1.12,1.12,0,0,0,.31.1v.19H63.18v-.19a1,1,0,0,0,.22-.09.31.31,0,0,0,.11-.09.66.66,0,0,0,.07-.2,3.45,3.45,0,0,0,0-.4v-1.71c0-.16,0-.3,0-.4a.62.62,0,0,0-.05-.25.29.29,0,0,0-.14-.13,1.2,1.2,0,0,0-.28-.08v-.2l.92,0h.24Z"/><path class="cls-21" d="M68.83,228l-.06,0a2.39,2.39,0,0,1-.64.5,1.61,1.61,0,0,1-.64.14,1.25,1.25,0,0,1-.53-.11.86.86,0,0,1-.35-.33,1,1,0,0,1-.12-.48,1,1,0,0,1,.57-.89,4.19,4.19,0,0,1,1.7-.36v-.25a2.25,2.25,0,0,0-.08-.65.59.59,0,0,0-.25-.34.83.83,0,0,0-.45-.11.71.71,0,0,0-.49.16,1,1,0,0,0-.28.48h-.52v-.51a5,5,0,0,1,.63-.28,3.51,3.51,0,0,1,.5-.15,3,3,0,0,1,.52-.05,1.4,1.4,0,0,1,.62.12.72.72,0,0,1,.35.38,1.87,1.87,0,0,1,.12.77v1.36c0,.19,0,.33,0,.41a1.5,1.5,0,0,0,0,.22.34.34,0,0,0,.06.16.29.29,0,0,0,.11.11l.25.09v.19H68.81Zm-.07-1.23a2.91,2.91,0,0,0-1.19.21.66.66,0,0,0-.4.62.58.58,0,0,0,.09.35.41.41,0,0,0,.23.18,1,1,0,0,0,.32.05.92.92,0,0,0,.49-.13,1.07,1.07,0,0,0,.34-.33.75.75,0,0,0,.12-.4Z"/><path class="cls-21" d="M75.69,224.94v.82h-.5a1.38,1.38,0,0,0-.16-.4.48.48,0,0,0-.23-.2.76.76,0,0,0-.32-.06.79.79,0,0,0-.49.17,1.19,1.19,0,0,0-.33.54,2.51,2.51,0,0,0-.13.88,3.76,3.76,0,0,0,0,.61,1.3,1.3,0,0,0,.16.47.89.89,0,0,0,.3.31,1,1,0,0,0,.47.11,1.18,1.18,0,0,0,.5-.11,1.54,1.54,0,0,0,.49-.37l.22.26a3.56,3.56,0,0,1-.35.34,1.81,1.81,0,0,1-.33.2,1.78,1.78,0,0,1-.71.15,1.36,1.36,0,0,1-1.14-.49,2.67,2.67,0,0,1-.17-2.45,1.58,1.58,0,0,1,.61-.69,1.75,1.75,0,0,1,.92-.24,5.41,5.41,0,0,1,.59,0A4.88,4.88,0,0,1,75.69,224.94Z"/><path class="cls-21" d="M78.07,228.66a1.61,1.61,0,0,1-1.25-.48,2.09,2.09,0,0,1-.43-1.42,2.41,2.41,0,0,1,.23-1.09,1.47,1.47,0,0,1,.62-.66,1.75,1.75,0,0,1,.89-.22,1.63,1.63,0,0,1,1.28.48,2.07,2.07,0,0,1,.43,1.41,2.52,2.52,0,0,1-.21,1.09,1.5,1.5,0,0,1-.62.67A1.87,1.87,0,0,1,78.07,228.66Zm-.93-2a2.47,2.47,0,0,0,.25,1.24.82.82,0,0,0,.74.43.79.79,0,0,0,.45-.12,1,1,0,0,0,.3-.35,1.73,1.73,0,0,0,.17-.5,3.7,3.7,0,0,0,0-.59,3,3,0,0,0-.13-1,1.23,1.23,0,0,0-.35-.56.84.84,0,0,0-1.23.24A2.21,2.21,0,0,0,77.14,226.68Z"/><path class="cls-21" d="M84.51,228.6H83v-.19a.81.81,0,0,0,.22-.09.24.24,0,0,0,.11-.09.47.47,0,0,0,.07-.2,1.85,1.85,0,0,0,0-.39v-1c0-.18,0-.35,0-.5a1.55,1.55,0,0,0-.05-.36.61.61,0,0,0-.09-.23.4.4,0,0,0-.13-.13.62.62,0,0,0-.16-.1.85.85,0,0,0-.25,0,.72.72,0,0,0-.29.06,1.18,1.18,0,0,0-.3.21,1.05,1.05,0,0,0-.24.3.67.67,0,0,0-.08.33v1.46a2.51,2.51,0,0,0,0,.47.48.48,0,0,0,.12.2,1.2,1.2,0,0,0,.29.12v.19H80.68v-.19a.81.81,0,0,0,.22-.09.31.31,0,0,0,.11-.09.66.66,0,0,0,.07-.2,1.9,1.9,0,0,0,0-.4v-1.71c0-.16,0-.3,0-.4a.61.61,0,0,0-.06-.25.29.29,0,0,0-.14-.13,1,1,0,0,0-.27-.08v-.21l.92,0h.24l-.05.64h.06a4.65,4.65,0,0,1,.47-.42,2.09,2.09,0,0,1,.36-.19,1,1,0,0,1,.39-.07,1.52,1.52,0,0,1,.38.05.73.73,0,0,1,.29.15.72.72,0,0,1,.21.25,1,1,0,0,1,.12.37,2.58,2.58,0,0,1,0,.53v1.48a3.89,3.89,0,0,0,0,.39.47.47,0,0,0,.06.19.29.29,0,0,0,.11.11,1.58,1.58,0,0,0,.26.1Z"/><path class="cls-21" d="M87.86,225.71h-.38a1.29,1.29,0,0,0-.21-.37.61.61,0,0,0-.26-.19,1.27,1.27,0,0,0-.37-.05.82.82,0,0,0-.5.14.51.51,0,0,0-.19.4.53.53,0,0,0,.08.3.81.81,0,0,0,.23.22,4,4,0,0,0,.55.27,3.82,3.82,0,0,1,.62.32,1.26,1.26,0,0,1,.35.34.85.85,0,0,1,.12.46,1.17,1.17,0,0,1-.11.52.89.89,0,0,1-.3.34,1.22,1.22,0,0,1-.45.19,2.65,2.65,0,0,1-.58.06,4.37,4.37,0,0,1-.64,0,6,6,0,0,1-.61-.12v-.82h.39a1,1,0,0,0,.31.52.9.9,0,0,0,.57.16,1.27,1.27,0,0,0,.28,0,.85.85,0,0,0,.24-.09.52.52,0,0,0,.17-.19.65.65,0,0,0,.07-.29.62.62,0,0,0-.08-.33.94.94,0,0,0-.25-.23,4.6,4.6,0,0,0-.58-.28,3,3,0,0,1-.57-.29,1,1,0,0,1-.34-.33.86.86,0,0,1-.13-.46.91.91,0,0,1,.18-.56,1.2,1.2,0,0,1,.5-.36,2.28,2.28,0,0,1,.78-.12l.5,0,.61.1Z"/><path class="cls-21" d="M88.49,225.05a.86.86,0,0,0,.32-.11.52.52,0,0,0,.19-.2,1.12,1.12,0,0,0,.11-.31c0-.12,0-.31.08-.54h.56v1H91v.4H89.75V227a4.82,4.82,0,0,0,0,.61.76.76,0,0,0,.12.35.43.43,0,0,0,.2.18.55.55,0,0,0,.28.06.59.59,0,0,0,.29-.07,1,1,0,0,0,.28-.18l.17.21a1.94,1.94,0,0,1-.53.39,1.13,1.13,0,0,1-.51.12.94.94,0,0,1-.76-.3,1.49,1.49,0,0,1-.25-.94v-2.17h-.58Z"/><path class="cls-21" d="M93.77,228l-.06,0a2.24,2.24,0,0,1-.64.5,1.53,1.53,0,0,1-.64.14,1.21,1.21,0,0,1-.52-.11.8.8,0,0,1-.35-.33.86.86,0,0,1-.13-.48,1,1,0,0,1,.57-.89,4.29,4.29,0,0,1,1.71-.36v-.25a2.25,2.25,0,0,0-.08-.65.69.69,0,0,0-.25-.34.83.83,0,0,0-.45-.11.73.73,0,0,0-.5.16,1.11,1.11,0,0,0-.28.48h-.51v-.51a5,5,0,0,1,.63-.28,2.88,2.88,0,0,1,.5-.15,2.94,2.94,0,0,1,.51-.05,1.41,1.41,0,0,1,.63.12.81.81,0,0,1,.35.38,1.87,1.87,0,0,1,.12.77v1.77a1.5,1.5,0,0,0,0,.22.91.91,0,0,0,.06.16.43.43,0,0,0,.12.11,1,1,0,0,0,.25.09v.19H93.75Zm-.06-1.23a3,3,0,0,0-1.2.21.67.67,0,0,0-.4.62.58.58,0,0,0,.09.35.44.44,0,0,0,.23.18,1,1,0,0,0,.33.05.86.86,0,0,0,.48-.13,1,1,0,0,0,.34-.33.76.76,0,0,0,.13-.4Z"/><path class="cls-21" d="M99.31,228.6H97.76v-.19a1,1,0,0,0,.22-.09.31.31,0,0,0,.11-.09.66.66,0,0,0,.07-.2,1.85,1.85,0,0,0,0-.39v-1c0-.18,0-.35,0-.5a2.39,2.39,0,0,0,0-.36,1.38,1.38,0,0,0-.09-.23.53.53,0,0,0-.13-.13.69.69,0,0,0-.17-.1.78.78,0,0,0-.24,0,.68.68,0,0,0-.29.06,1.27,1.27,0,0,0-.55.51.67.67,0,0,0-.07.33v1.46a2.51,2.51,0,0,0,0,.47.34.34,0,0,0,.12.2,1.2,1.2,0,0,0,.29.12v.19H95.48v-.19a1,1,0,0,0,.22-.09.31.31,0,0,0,.11-.09.66.66,0,0,0,.07-.2,3.45,3.45,0,0,0,0-.4v-2.11a.83.83,0,0,0-.06-.25.29.29,0,0,0-.14-.13,1.2,1.2,0,0,0-.28-.08v-.21l.92,0h.24l0,.64h0c.2-.19.36-.33.47-.42a1.85,1.85,0,0,1,.37-.19,1,1,0,0,1,.38-.07,1.4,1.4,0,0,1,.38.05.85.85,0,0,1,.3.15,1,1,0,0,1,.21.25,1.61,1.61,0,0,1,.12.37,2.66,2.66,0,0,1,0,.53v1.48a3.25,3.25,0,0,0,0,.39.74.74,0,0,0,.05.19.43.43,0,0,0,.12.11,1.28,1.28,0,0,0,.26.1Z"/><path class="cls-21" d="M99.78,225.05a.86.86,0,0,0,.32-.11.52.52,0,0,0,.19-.2,1.12,1.12,0,0,0,.11-.31c0-.12,0-.31.08-.54H101v1h1.27v.4H101V227a4.82,4.82,0,0,0,0,.61.76.76,0,0,0,.12.35.43.43,0,0,0,.2.18.55.55,0,0,0,.28.06.59.59,0,0,0,.29-.07,1,1,0,0,0,.28-.18l.17.21a1.94,1.94,0,0,1-.53.39,1.13,1.13,0,0,1-.51.12.94.94,0,0,1-.76-.3,1.49,1.49,0,0,1-.25-.94v-2.17h-.58Z"/><path class="cls-21" d="M105.93,227.93a2.66,2.66,0,0,1-.46.41,1.83,1.83,0,0,1-.46.24,1.94,1.94,0,0,1-.56.08,1.52,1.52,0,0,1-1.22-.48,2.18,2.18,0,0,1-.41-1.43,2.4,2.4,0,0,1,.21-1,1.56,1.56,0,0,1,.6-.69,1.67,1.67,0,0,1,.89-.24,1.72,1.72,0,0,1,.68.12,1.14,1.14,0,0,1,.45.35,1.7,1.7,0,0,1,.26.54,3.86,3.86,0,0,1,.1.87h-2.48v.07a2.48,2.48,0,0,0,.11.78,1,1,0,0,0,.34.49,1,1,0,0,0,.62.18,1.37,1.37,0,0,0,.58-.12,1.74,1.74,0,0,0,.51-.39Zm-.66-1.59a3,3,0,0,0-.1-.69.92.92,0,0,0-.25-.41.62.62,0,0,0-.43-.14.75.75,0,0,0-.65.32,1.76,1.76,0,0,0-.29.92Z"/><path class="cls-21" d="M107.6,227.69a3.29,3.29,0,0,1,.05.54,1.35,1.35,0,0,1-.09.5,1.47,1.47,0,0,1-.3.45,4.39,4.39,0,0,1-.57.5l-.21-.24a1.64,1.64,0,0,0,.29-.34,1.15,1.15,0,0,0,.13-.34,3.08,3.08,0,0,0,0-.48,5.68,5.68,0,0,0,0-.59Z"/><path class="cls-21" d="M112,224.85v.2a.73.73,0,0,0-.25.08.22.22,0,0,0-.11.1.29.29,0,0,0,0,.17,1.8,1.8,0,0,0,0,.22c0,.08,0,.17.08.27l.69,2,.8-1.9a2.4,2.4,0,0,0,.11-.31,1,1,0,0,0,0-.23.33.33,0,0,0-.09-.25.7.7,0,0,0-.32-.13v-.2h1.47v.2a.67.67,0,0,0-.24.09.63.63,0,0,0-.16.21,3.36,3.36,0,0,0-.2.39l-1.32,2.9H112l-1.06-2.93a2.57,2.57,0,0,0-.18-.41.49.49,0,0,0-.14-.17.68.68,0,0,0-.22-.08v-.2Z"/><path class="cls-21" d="M117.94,227.93a2.66,2.66,0,0,1-.46.41,2,2,0,0,1-.46.24,2,2,0,0,1-.56.08,1.52,1.52,0,0,1-1.22-.48,2.12,2.12,0,0,1-.41-1.43,2.4,2.4,0,0,1,.21-1,1.56,1.56,0,0,1,.6-.69,1.67,1.67,0,0,1,.89-.24,1.72,1.72,0,0,1,.68.12,1.22,1.22,0,0,1,.45.35,1.7,1.7,0,0,1,.26.54,3.86,3.86,0,0,1,.1.87h-2.48v.07a2.48,2.48,0,0,0,.11.78,1,1,0,0,0,.34.49,1,1,0,0,0,.62.18,1.37,1.37,0,0,0,.58-.12,1.74,1.74,0,0,0,.51-.39Zm-.66-1.59a2.93,2.93,0,0,0-.11-.69.83.83,0,0,0-.24-.41.63.63,0,0,0-.44-.14.74.74,0,0,0-.64.32,1.76,1.76,0,0,0-.29.92Z"/><path class="cls-21" d="M124.15,227.93a2.68,2.68,0,0,1-.47.41,1.83,1.83,0,0,1-.46.24,1.92,1.92,0,0,1-.55.08,1.51,1.51,0,0,1-1.22-.48,2.12,2.12,0,0,1-.42-1.43,2.4,2.4,0,0,1,.21-1,1.56,1.56,0,0,1,.6-.69,1.68,1.68,0,0,1,.9-.24,1.76,1.76,0,0,1,.68.12,1.18,1.18,0,0,1,.44.35,1.51,1.51,0,0,1,.26.54,3.35,3.35,0,0,1,.1.87h-2.47v.07a2.51,2.51,0,0,0,.1.78,1,1,0,0,0,.35.49,1,1,0,0,0,.61.18,1.34,1.34,0,0,0,.58-.12,1.65,1.65,0,0,0,.52-.39Zm-.66-1.59a3.56,3.56,0,0,0-.11-.69.84.84,0,0,0-.25-.41.6.6,0,0,0-.43-.14.76.76,0,0,0-.65.32,1.76,1.76,0,0,0-.28.92Z"/><path class="cls-21" d="M128.81,228.6h-1.55v-.19a1,1,0,0,0,.22-.09.31.31,0,0,0,.11-.09.66.66,0,0,0,.07-.2,1.85,1.85,0,0,0,0-.39v-1c0-.18,0-.35,0-.5a2.39,2.39,0,0,0,0-.36,1.38,1.38,0,0,0-.09-.23.53.53,0,0,0-.13-.13l-.16-.1a.9.9,0,0,0-.25,0,.72.72,0,0,0-.29.06,1.41,1.41,0,0,0-.31.21,1,1,0,0,0-.23.3.67.67,0,0,0-.08.33v1.46a2.51,2.51,0,0,0,0,.47.34.34,0,0,0,.12.2,1.2,1.2,0,0,0,.29.12v.19H125v-.19a1,1,0,0,0,.22-.09.31.31,0,0,0,.11-.09.66.66,0,0,0,.07-.2,2.07,2.07,0,0,0,0-.4v-2.11a.83.83,0,0,0-.06-.25.29.29,0,0,0-.14-.13,1.2,1.2,0,0,0-.28-.08v-.21l.92,0h.24l0,.64h.06a4.65,4.65,0,0,1,.47-.42,1.78,1.78,0,0,1,.36-.19,1,1,0,0,1,.38-.07,1.4,1.4,0,0,1,.38.05.85.85,0,0,1,.3.15,1,1,0,0,1,.21.25,1.24,1.24,0,0,1,.12.37,2.66,2.66,0,0,1,0,.53v1.48a3.25,3.25,0,0,0,0,.39.74.74,0,0,0,.05.19.43.43,0,0,0,.12.11,1.28,1.28,0,0,0,.26.1Z"/><path class="cls-21" d="M132.66,227.93a2.66,2.66,0,0,1-.46.41,2,2,0,0,1-.46.24,2,2,0,0,1-.56.08,1.52,1.52,0,0,1-1.22-.48,2.12,2.12,0,0,1-.41-1.43,2.4,2.4,0,0,1,.21-1,1.56,1.56,0,0,1,.6-.69,1.67,1.67,0,0,1,.89-.24,1.72,1.72,0,0,1,.68.12,1.22,1.22,0,0,1,.45.35,1.5,1.5,0,0,1,.25.54,3.3,3.3,0,0,1,.11.87h-2.48v.07a2.48,2.48,0,0,0,.11.78,1,1,0,0,0,.34.49,1,1,0,0,0,.62.18,1.37,1.37,0,0,0,.58-.12,1.74,1.74,0,0,0,.51-.39Zm-.66-1.59a2.93,2.93,0,0,0-.11-.69.83.83,0,0,0-.24-.41.63.63,0,0,0-.44-.14.74.74,0,0,0-.64.32,1.76,1.76,0,0,0-.29.92Z"/><path class="cls-21" d="M134.56,225.46h.05l.39-.35a2,2,0,0,1,.29-.19,1,1,0,0,1,.27-.11,1,1,0,0,1,.25,0,1.05,1.05,0,0,1,.64.18.92.92,0,0,1,.34.55,6.42,6.42,0,0,1,.48-.43,1.44,1.44,0,0,1,.37-.22,1.15,1.15,0,0,1,.41-.08,1.26,1.26,0,0,1,.46.08.9.9,0,0,1,.32.23,1,1,0,0,1,.19.4,2.72,2.72,0,0,1,.06.64v1.48a3.25,3.25,0,0,0,0,.41.54.54,0,0,0,.06.18.27.27,0,0,0,.11.1.76.76,0,0,0,.25.1v.19H138v-.19a1,1,0,0,0,.22-.09.31.31,0,0,0,.11-.09.66.66,0,0,0,.07-.2,1.85,1.85,0,0,0,0-.39v-1c0-.22,0-.41,0-.55a1.39,1.39,0,0,0-.06-.35.53.53,0,0,0-.09-.2.49.49,0,0,0-.12-.13.38.38,0,0,0-.15-.09.78.78,0,0,0-.24,0,.73.73,0,0,0-.3.06,1.58,1.58,0,0,0-.29.22.89.89,0,0,0-.23.3.75.75,0,0,0-.07.35v1.43a3.25,3.25,0,0,0,0,.41.38.38,0,0,0,.06.18.27.27,0,0,0,.11.1.67.67,0,0,0,.25.1v.19h-1.55v-.19a.91.91,0,0,0,.23-.09.31.31,0,0,0,.11-.09.66.66,0,0,0,.07-.2,3.38,3.38,0,0,0,0-.39v-1a4.71,4.71,0,0,0,0-.57,1.39,1.39,0,0,0-.06-.35.9.9,0,0,0-.1-.22.75.75,0,0,0-.14-.12.52.52,0,0,0-.15-.07l-.21,0a.78.78,0,0,0-.3.07,1.61,1.61,0,0,0-.29.21,1.11,1.11,0,0,0-.22.29.72.72,0,0,0-.08.32v1.47a2.68,2.68,0,0,0,0,.34.66.66,0,0,0,0,.18.23.23,0,0,0,.07.11.31.31,0,0,0,.11.08,1,1,0,0,0,.22.08v.19H133.5v-.19a.72.72,0,0,0,.21-.09.24.24,0,0,0,.11-.09.46.46,0,0,0,.08-.2,3.45,3.45,0,0,0,0-.4v-1.71c0-.16,0-.3,0-.4a.62.62,0,0,0,0-.25.32.32,0,0,0-.15-.13,1,1,0,0,0-.27-.08v-.21l.92,0h.24Z"/><path class="cls-21" d="M140.24,228.41a1,1,0,0,0,.22-.09.31.31,0,0,0,.11-.09.66.66,0,0,0,.07-.2,3.45,3.45,0,0,0,0-.4v-2.11a.83.83,0,0,0-.06-.25.29.29,0,0,0-.14-.13,1.2,1.2,0,0,0-.28-.08v-.21l.92,0h.24v2.8a2.51,2.51,0,0,0,0,.47.34.34,0,0,0,.12.2,1.2,1.2,0,0,0,.29.12v.19h-1.54Zm1.12-5.09v.76h-.72v-.76Z"/><path class="cls-21" d="M144.39,226.84h-1.82v-.61h1.82Z"/><path class="cls-21" d="M13.59,234.88l-.73,0,0,0a.87.87,0,0,1,.19.33,1.35,1.35,0,0,1,.07.46,1.24,1.24,0,0,1-.39,1,1.67,1.67,0,0,1-1.12.35,1.91,1.91,0,0,1-.57-.08.61.61,0,0,0-.3.44.34.34,0,0,0,.06.22.32.32,0,0,0,.19.11,2,2,0,0,0,.4,0h.94a1.47,1.47,0,0,1,.68.13.8.8,0,0,1,.38.34,1.19,1.19,0,0,1,.11.51,1.08,1.08,0,0,1-.21.66,1.41,1.41,0,0,1-.62.45,2.62,2.62,0,0,1-.93.16,5.35,5.35,0,0,1-.73,0,1.76,1.76,0,0,1-.56-.16.87.87,0,0,1-.36-.29.76.76,0,0,1-.13-.46.72.72,0,0,1,.17-.45,1.43,1.43,0,0,1,.46-.35.64.64,0,0,1-.29-.22.57.57,0,0,1-.1-.34.73.73,0,0,1,.12-.41,2.09,2.09,0,0,1,.45-.43,1.13,1.13,0,0,1-.43-.44,1.36,1.36,0,0,1-.15-.65,1.46,1.46,0,0,1,.11-.58,1.17,1.17,0,0,1,.31-.41,1.41,1.41,0,0,1,.47-.25,2.21,2.21,0,0,1,.59-.08,2.68,2.68,0,0,1,.56.07h1.39ZM11,238.29a1.24,1.24,0,0,0-.3.31.72.72,0,0,0-.1.38.55.55,0,0,0,.28.52,1.76,1.76,0,0,0,.86.17,1.59,1.59,0,0,0,.61-.1.81.81,0,0,0,.39-.27.69.69,0,0,0,.13-.41.76.76,0,0,0,0-.21.5.5,0,0,0-.1-.19.58.58,0,0,0-.22-.13,1.27,1.27,0,0,0-.37-.05h-.59Zm-.1-2.62a1.27,1.27,0,0,0,.2.76.8.8,0,0,0,.92.19.58.58,0,0,0,.23-.21.79.79,0,0,0,.13-.31,1.5,1.5,0,0,0,0-.37,1.55,1.55,0,0,0-.09-.57.73.73,0,0,0-.27-.34.71.71,0,0,0-.39-.11.67.67,0,0,0-.57.25A1.11,1.11,0,0,0,10.86,235.67Z"/><path class="cls-21" d="M15.8,238.29a1.61,1.61,0,0,1-1.25-.48,2.09,2.09,0,0,1-.43-1.42,2.38,2.38,0,0,1,.23-1.09,1.55,1.55,0,0,1,.62-.67,1.86,1.86,0,0,1,.89-.22,1.65,1.65,0,0,1,1.28.49,2.09,2.09,0,0,1,.43,1.4,2.42,2.42,0,0,1-.22,1.1,1.42,1.42,0,0,1-.61.67A1.87,1.87,0,0,1,15.8,238.29Zm-.93-2a2.5,2.5,0,0,0,.25,1.24.81.81,0,0,0,.74.43.75.75,0,0,0,.45-.13,1,1,0,0,0,.3-.34,1.73,1.73,0,0,0,.17-.5,3.81,3.81,0,0,0,0-.59,3.18,3.18,0,0,0-.13-1,1.23,1.23,0,0,0-.35-.56.77.77,0,0,0-.5-.18.8.8,0,0,0-.73.42A2.21,2.21,0,0,0,14.87,236.31Z"/><path class="cls-21" d="M21.05,235.34h-.38a1.16,1.16,0,0,0-.21-.37.58.58,0,0,0-.26-.19,1,1,0,0,0-.37-.06.76.76,0,0,0-.5.15.5.5,0,0,0-.19.4.56.56,0,0,0,.08.3.7.7,0,0,0,.23.22,3.48,3.48,0,0,0,.55.27,3.15,3.15,0,0,1,.62.32,1.08,1.08,0,0,1,.34.33.78.78,0,0,1,.13.46,1.14,1.14,0,0,1-.11.52.92.92,0,0,1-.3.35,1.3,1.3,0,0,1-.45.19,2.65,2.65,0,0,1-.58.06,4.37,4.37,0,0,1-.64,0,6,6,0,0,1-.61-.13v-.82h.39a1,1,0,0,0,.31.53.9.9,0,0,0,.57.16,1.27,1.27,0,0,0,.28,0,.64.64,0,0,0,.24-.1.49.49,0,0,0,.17-.18.67.67,0,0,0,.06-.3.53.53,0,0,0-.08-.32.67.67,0,0,0-.24-.23,3.51,3.51,0,0,0-.58-.28,3.7,3.7,0,0,1-.57-.29,1.1,1.1,0,0,1-.34-.34.73.73,0,0,1-.13-.45.91.91,0,0,1,.18-.56,1,1,0,0,1,.5-.36,2.27,2.27,0,0,1,.78-.13,4.07,4.07,0,0,1,.5,0l.61.1Z"/><path class="cls-21" d="M26.39,234v-.53a1.45,1.45,0,0,0,0-.25.34.34,0,0,0-.07-.16.4.4,0,0,0-.12-.1l-.28-.07v-.2l1,0h.23v4.54c0,.2,0,.35,0,.43a.54.54,0,0,0,.05.21.37.37,0,0,0,.12.13,1.38,1.38,0,0,0,.3.09v.21l-.93,0h-.23l0-.65h-.05A4.32,4.32,0,0,1,26,238a1.86,1.86,0,0,1-.39.21,1.33,1.33,0,0,1-.45.08,1.13,1.13,0,0,1-1-.49,2.87,2.87,0,0,1-.12-2.5,1.53,1.53,0,0,1,.61-.67,1.81,1.81,0,0,1,.87-.22,2.36,2.36,0,0,1,.48.05,1.9,1.9,0,0,1,.43.13Zm0,1.93a3.28,3.28,0,0,0,0-.49.94.94,0,0,0-.09-.31.68.68,0,0,0-.17-.21.82.82,0,0,0-.25-.12.93.93,0,0,0-.31,0,.86.86,0,0,0-.77.4,2.15,2.15,0,0,0-.26,1.15,2.51,2.51,0,0,0,.21,1.15.72.72,0,0,0,.66.39,1.17,1.17,0,0,0,.29,0,.72.72,0,0,0,.22-.1,1.13,1.13,0,0,0,.23-.17,1.17,1.17,0,0,0,.16-.21.48.48,0,0,0,.08-.22,1.3,1.3,0,0,0,0-.31Z"/><path class="cls-21" d="M30,238.29a1.61,1.61,0,0,1-1.25-.48,2.09,2.09,0,0,1-.43-1.42,2.38,2.38,0,0,1,.23-1.09,1.55,1.55,0,0,1,.62-.67,1.86,1.86,0,0,1,.89-.22,1.65,1.65,0,0,1,1.28.49,2,2,0,0,1,.43,1.4,2.42,2.42,0,0,1-.22,1.1,1.42,1.42,0,0,1-.61.67A1.87,1.87,0,0,1,30,238.29Zm-.93-2a2.5,2.5,0,0,0,.25,1.24A.81.81,0,0,0,30,238a.75.75,0,0,0,.45-.13,1,1,0,0,0,.3-.34,1.73,1.73,0,0,0,.17-.5,3.81,3.81,0,0,0,0-.59,3.18,3.18,0,0,0-.13-1,1.23,1.23,0,0,0-.35-.56.77.77,0,0,0-.5-.18.8.8,0,0,0-.73.42A2.21,2.21,0,0,0,29,236.31Z"/><path class="cls-21" d="M36.4,238.23H34.85V238a.87.87,0,0,0,.22-.08.21.21,0,0,0,.11-.1.38.38,0,0,0,.07-.19,2,2,0,0,0,0-.4v-1c0-.19,0-.35,0-.5a1.74,1.74,0,0,0,0-.37.56.56,0,0,0-.09-.22A.57.57,0,0,0,35,235a.42.42,0,0,0-.16-.09.9.9,0,0,0-.25,0,.72.72,0,0,0-.29.06,1.39,1.39,0,0,0-.54.5.74.74,0,0,0-.08.34v1.46a2.51,2.51,0,0,0,0,.47.31.31,0,0,0,.12.19.72.72,0,0,0,.29.12v.2H32.57V238a.87.87,0,0,0,.22-.08.26.26,0,0,0,.11-.1.5.5,0,0,0,.07-.19,1.9,1.9,0,0,0,0-.4v-1.71c0-.17,0-.3,0-.4a.76.76,0,0,0-.06-.25.29.29,0,0,0-.14-.13.79.79,0,0,0-.27-.08v-.21l.92,0h.24l0,.63.06,0a3,3,0,0,1,.47-.42,1.57,1.57,0,0,1,.36-.19,1,1,0,0,1,.39-.07,1.17,1.17,0,0,1,.38.05.73.73,0,0,1,.29.15.72.72,0,0,1,.21.25,1,1,0,0,1,.12.36,2.61,2.61,0,0,1,.05.54v1.48a3.89,3.89,0,0,0,0,.39.47.47,0,0,0,.06.19.29.29,0,0,0,.11.11,1.07,1.07,0,0,0,.26.09Z"/><path class="cls-21" d="M39.76,234v-.53a1.56,1.56,0,0,0,0-.25.48.48,0,0,0-.07-.16.34.34,0,0,0-.13-.1l-.27-.07v-.2l1,0h.23v4.54c0,.2,0,.35,0,.43a.81.81,0,0,0,0,.21.33.33,0,0,0,.13.13,1.11,1.11,0,0,0,.29.09v.21l-.92,0h-.24l.05-.65h-.06a4.32,4.32,0,0,1-.43.39,1.47,1.47,0,0,1-.39.21,1.32,1.32,0,0,1-.44.08,1.16,1.16,0,0,1-1-.49,2.87,2.87,0,0,1-.12-2.5,1.55,1.55,0,0,1,.62-.67,1.75,1.75,0,0,1,.87-.22,2.26,2.26,0,0,1,.47.05,1.76,1.76,0,0,1,.43.13Zm0,1.93a3.48,3.48,0,0,0,0-.49.94.94,0,0,0-.1-.31.68.68,0,0,0-.17-.21.68.68,0,0,0-.24-.12,1,1,0,0,0-.32,0,.84.84,0,0,0-.76.4,2.06,2.06,0,0,0-.27,1.15,2.37,2.37,0,0,0,.22,1.15.7.7,0,0,0,.66.39,1.14,1.14,0,0,0,.28,0,.77.77,0,0,0,.23-.1,1.46,1.46,0,0,0,.22-.17,1.3,1.3,0,0,0,.17-.21.93.93,0,0,0,.08-.22,1.37,1.37,0,0,0,0-.31Z"/><path class="cls-21" d="M44.77,237.56a3.91,3.91,0,0,1-.47.41,1.53,1.53,0,0,1-.46.23,1.63,1.63,0,0,1-.55.09,1.51,1.51,0,0,1-1.22-.48,2.14,2.14,0,0,1-.42-1.43,2.37,2.37,0,0,1,.21-1,1.56,1.56,0,0,1,.6-.69,1.69,1.69,0,0,1,.9-.25,1.67,1.67,0,0,1,.67.13,1.12,1.12,0,0,1,.45.34,1.65,1.65,0,0,1,.26.55,3.33,3.33,0,0,1,.1.86H42.37v.08a2.48,2.48,0,0,0,.1.77,1.06,1.06,0,0,0,.34.5,1,1,0,0,0,.62.17,1.34,1.34,0,0,0,.58-.12,1.56,1.56,0,0,0,.52-.38ZM44.11,236a3.56,3.56,0,0,0-.11-.69.87.87,0,0,0-.25-.41.61.61,0,0,0-.43-.15.77.77,0,0,0-.65.33,1.73,1.73,0,0,0-.28.92Z"/><path class="cls-21" d="M51.25,238.23H49.7V238a.87.87,0,0,0,.22-.08.26.26,0,0,0,.11-.1.38.38,0,0,0,.07-.19,2,2,0,0,0,0-.4v-1c0-.19,0-.35,0-.5a2.78,2.78,0,0,0,0-.37,1.23,1.23,0,0,0-.09-.22.86.86,0,0,0-.13-.14.42.42,0,0,0-.16-.09.9.9,0,0,0-.25,0,.72.72,0,0,0-.29.06,1.18,1.18,0,0,0-.3.21,1,1,0,0,0-.24.29.74.74,0,0,0-.08.34v1.46a2.51,2.51,0,0,0,0,.47.31.31,0,0,0,.12.19A.72.72,0,0,0,49,238v.2H47.42V238a1,1,0,0,0,.22-.08.26.26,0,0,0,.11-.1.5.5,0,0,0,.07-.19,2.07,2.07,0,0,0,0-.4v-2.11a.76.76,0,0,0-.06-.25.29.29,0,0,0-.14-.13.86.86,0,0,0-.27-.08v-.21l.92,0h.23l0,.63.06,0a3,3,0,0,1,.47-.42,1.57,1.57,0,0,1,.36-.19,1,1,0,0,1,.39-.07,1.07,1.07,0,0,1,.37.05.77.77,0,0,1,.3.15,1,1,0,0,1,.21.25,1.17,1.17,0,0,1,.12.36,2.7,2.7,0,0,1,0,.54v1.48a3.25,3.25,0,0,0,0,.39.47.47,0,0,0,.06.19.29.29,0,0,0,.11.11,1.07,1.07,0,0,0,.26.09Z"/><path class="cls-21" d="M53.67,238.29a1.61,1.61,0,0,1-1.25-.48,2,2,0,0,1-.43-1.42,2.38,2.38,0,0,1,.23-1.09,1.5,1.5,0,0,1,.62-.67,1.86,1.86,0,0,1,.89-.22,1.65,1.65,0,0,1,1.28.49,2.09,2.09,0,0,1,.43,1.4,2.42,2.42,0,0,1-.22,1.1,1.48,1.48,0,0,1-.61.67A1.89,1.89,0,0,1,53.67,238.29Zm-.94-2a2.49,2.49,0,0,0,.26,1.24.81.81,0,0,0,.74.43.77.77,0,0,0,.45-.13,1,1,0,0,0,.3-.34,1.73,1.73,0,0,0,.16-.5,2.88,2.88,0,0,0,.06-.59,3.18,3.18,0,0,0-.13-1,1.23,1.23,0,0,0-.35-.56.77.77,0,0,0-.5-.18.8.8,0,0,0-.73.42A2.2,2.2,0,0,0,52.73,236.31Z"/><path class="cls-21" d="M59.15,237.25a2.51,2.51,0,0,0,0,.47.31.31,0,0,0,.12.19.72.72,0,0,0,.29.12v.2H58V238a.73.73,0,0,0,.27-.1.33.33,0,0,0,.11-.13.54.54,0,0,0,.05-.21,3.33,3.33,0,0,0,0-.34v-3.81c0-.1,0-.18,0-.25a.48.48,0,0,0-.07-.16.34.34,0,0,0-.13-.1l-.27-.07v-.2l.94,0h.24Z"/><path class="cls-21" d="M62,238.29a1.57,1.57,0,0,1-1.24-.48,2,2,0,0,1-.43-1.42,2.38,2.38,0,0,1,.22-1.09,1.55,1.55,0,0,1,.62-.67,1.87,1.87,0,0,1,.9-.22,1.63,1.63,0,0,1,1.27.49,2,2,0,0,1,.43,1.4,2.57,2.57,0,0,1-.21,1.1,1.5,1.5,0,0,1-.62.67A1.87,1.87,0,0,1,62,238.29Zm-.93-2a2.38,2.38,0,0,0,.26,1.24.79.79,0,0,0,.73.43.73.73,0,0,0,.45-.13,1,1,0,0,0,.3-.34A1.73,1.73,0,0,0,63,237a3.81,3.81,0,0,0,0-.59,2.89,2.89,0,0,0-.13-1,1.15,1.15,0,0,0-.35-.56.75.75,0,0,0-.5-.18.8.8,0,0,0-.73.42A2.21,2.21,0,0,0,61.11,236.31Z"/><path class="cls-21" d="M67.29,235.34h-.38a1.39,1.39,0,0,0-.2-.37.61.61,0,0,0-.27-.19,1,1,0,0,0-.37-.06.78.78,0,0,0-.5.15.5.5,0,0,0-.19.4.56.56,0,0,0,.08.3.81.81,0,0,0,.23.22,3.71,3.71,0,0,0,.56.27,3.33,3.33,0,0,1,.61.32,1.23,1.23,0,0,1,.35.33.85.85,0,0,1,.12.46,1,1,0,0,1-.11.52.92.92,0,0,1-.3.35,1.22,1.22,0,0,1-.45.19,2.65,2.65,0,0,1-.58.06,4.37,4.37,0,0,1-.64,0,6,6,0,0,1-.61-.13v-.82H65a1,1,0,0,0,.31.53.91.91,0,0,0,.58.16,1.24,1.24,0,0,0,.27,0,.64.64,0,0,0,.24-.1.42.42,0,0,0,.17-.18.66.66,0,0,0,.07-.3.61.61,0,0,0-.08-.32.7.7,0,0,0-.25-.23,3.51,3.51,0,0,0-.58-.28,3.7,3.7,0,0,1-.57-.29,1.1,1.1,0,0,1-.34-.34.8.8,0,0,1-.13-.45.91.91,0,0,1,.18-.56,1,1,0,0,1,.5-.36,2.27,2.27,0,0,1,.78-.13,4.07,4.07,0,0,1,.5,0l.61.1Z"/><path class="cls-21" d="M71,235.1h0a3.07,3.07,0,0,1,.49-.43,1.09,1.09,0,0,1,.35-.19,1.34,1.34,0,0,1,.76,0,1.05,1.05,0,0,1,.3.15.86.86,0,0,1,.2.26,1,1,0,0,1,.12.36,2.66,2.66,0,0,1,0,.53v1.48a2.32,2.32,0,0,0,0,.46.36.36,0,0,0,.11.19.7.7,0,0,0,.31.13v.2H72.21V238a1,1,0,0,0,.22-.08.26.26,0,0,0,.11-.1.5.5,0,0,0,.07-.19,2,2,0,0,0,0-.4v-1a4,4,0,0,0-.06-.8.66.66,0,0,0-.2-.41.61.61,0,0,0-.44-.14.82.82,0,0,0-.28.05,1.7,1.7,0,0,0-.29.2,1,1,0,0,0-.25.29.59.59,0,0,0-.09.32v1.5a3.18,3.18,0,0,0,0,.38.53.53,0,0,0,0,.19.34.34,0,0,0,.12.12.6.6,0,0,0,.25.09v.2H69.91V238a1,1,0,0,0,.25-.09.25.25,0,0,0,.12-.11.53.53,0,0,0,.06-.19,3.25,3.25,0,0,0,0-.39V234c0-.25,0-.43,0-.53a.9.9,0,0,0,0-.25.48.48,0,0,0-.07-.16.4.4,0,0,0-.12-.1l-.28-.07v-.2l1,0H71Z"/><path class="cls-21" d="M76.74,237.67l-.06,0a2.32,2.32,0,0,1-.64.49,1.4,1.4,0,0,1-.64.15,1.15,1.15,0,0,1-.53-.12.83.83,0,0,1-.35-.32,1,1,0,0,1,.45-1.37,4,4,0,0,1,1.7-.36v-.26a1.88,1.88,0,0,0-.08-.64.59.59,0,0,0-.24-.34.77.77,0,0,0-.45-.11.73.73,0,0,0-.5.16,1,1,0,0,0-.28.48h-.51v-.51a5.26,5.26,0,0,1,.63-.29,2.85,2.85,0,0,1,.5-.14,2.22,2.22,0,0,1,.51-.06,1.33,1.33,0,0,1,.62.13.78.78,0,0,1,.36.38,1.85,1.85,0,0,1,.12.76v1.78a1.5,1.5,0,0,0,0,.22.91.91,0,0,0,.06.16.29.29,0,0,0,.12.1,1,1,0,0,0,.25.09v.2H76.72Zm-.07-1.23a2.75,2.75,0,0,0-1.19.21.66.66,0,0,0-.4.62.61.61,0,0,0,.09.35.58.58,0,0,0,.23.18,1,1,0,0,0,.33,0,1,1,0,0,0,.48-.13,1,1,0,0,0,.34-.33.8.8,0,0,0,.12-.4Z"/><path class="cls-21" d="M80.11,238.55a4.57,4.57,0,0,1-.42.78,1.52,1.52,0,0,1-.45.46,1.09,1.09,0,0,1-.58.15,2.2,2.2,0,0,1-.49-.05v-.77h.35a.45.45,0,0,0,.12.22.28.28,0,0,0,.2.06.46.46,0,0,0,.21,0,.67.67,0,0,0,.19-.16,1.59,1.59,0,0,0,.24-.34q.13-.23.3-.57l-1.1-2.95a2.47,2.47,0,0,0-.17-.4.49.49,0,0,0-.14-.17.63.63,0,0,0-.23-.1v-.19h1.6v.19a1,1,0,0,0-.25.09.22.22,0,0,0-.11.1.31.31,0,0,0,0,.17.89.89,0,0,0,0,.22,1.5,1.5,0,0,0,.08.27l.7,2,.78-1.88a2.75,2.75,0,0,0,.11-.29,1.13,1.13,0,0,0,0-.25.33.33,0,0,0-.09-.25.74.74,0,0,0-.32-.14v-.19h1.47v.19a.67.67,0,0,0-.24.1.7.7,0,0,0-.16.2c-.06.1-.12.23-.2.39Z"/><path class="cls-21" d="M83.39,237.32v.91H82.6v-.91Z"/><rect class="cls-22" x="0.25" y="0.25" width="154" height="253" rx="9.78"/></g></g></svg>