<svg xmlns="http://www.w3.org/2000/svg" viewBox="0 0 154.5 253.5"><defs><style>.cls-1{font-size:11.03px;}.cls-1,.cls-5{font-family:Cambria-Bold, Cambria;font-weight:700;}.cls-2{letter-spacing:0.01em;}.cls-3{letter-spacing:-0.01em;}.cls-4{fill:#7d69a4;}.cls-5{font-size:10.03px;}.cls-5,.cls-8{fill:#fff;}.cls-6{letter-spacing:0.01em;}.cls-7{letter-spacing:0em;}.cls-9{fill:none;stroke:#000;stroke-miterlimit:10;stroke-width:0.5px;}</style></defs><g id="Capa_2" data-name="Capa 2"><g id="Capa_1-2" data-name="Capa 1"><text class="cls-1" transform="translate(32.99 25.74)">TRA<tspan class="cls-2" x="21.54" y="0">M</tspan><tspan x="30.96" y="0">A CE</tspan><tspan class="cls-3" x="53.28" y="0">N</tspan><tspan x="60.63" y="0">TRAL</tspan></text><path class="cls-4" d="M39.92,46.71a12.05,12.05,0,0,0-12.07,12v19a12.05,12.05,0,0,0,12.07,12h74.66a12.05,12.05,0,0,0,12.07-12v-19a12.05,12.05,0,0,0-12.07-12Z"/><path class="cls-4" d="M39.92,110.91a12,12,0,0,0-12.07,12v19a12,12,0,0,0,12.07,12h74.66a12,12,0,0,0,12.07-12v-19a12,12,0,0,0-12.07-12Z"/><path class="cls-4" d="M39.92,175.1a12.05,12.05,0,0,0-12.07,12v19a12.05,12.05,0,0,0,12.07,12h74.66a12.05,12.05,0,0,0,12.07-12v-19a12.05,12.05,0,0,0-12.07-12Z"/><text class="cls-5" transform="translate(63.46 72.2)">NUDO</text><text class="cls-5" transform="translate(62.51 136.55)">INICIO</text><text class="cls-5" transform="translate(47.54 200.9)">NUDO/FI<tspan class="cls-6" x="41.73" y="0">N</tspan><tspan class="cls-7" x="48.64" y="0">AL</tspan></text><rect class="cls-8" x="73.67" y="92.82" width="7.16" height="2.48"/><rect class="cls-8" x="73.67" y="90.48" width="7.17" height="1.5"/><path d="M80.89,96v3.07h3.22L77.24,111,70.39,99.13h3.19V96Z"/><rect x="73.67" y="92.82" width="7.16" height="2.48"/><rect x="73.67" y="90.48" width="7.17" height="1.5"/><rect class="cls-8" x="73.67" y="156.97" width="7.16" height="2.48"/><rect class="cls-8" x="73.67" y="154.63" width="7.17" height="1.5"/><path d="M80.89,160.16v3.07h3.22c-2.32,4-4.56,7.88-6.87,11.87-2.3-4-4.54-7.82-6.85-11.82h3.19v-3.12Z"/><rect x="73.67" y="156.97" width="7.16" height="2.48"/><rect x="73.67" y="154.63" width="7.17" height="1.5"/><rect class="cls-9" x="0.25" y="0.25" width="154" height="253" rx="9.78"/></g></g></svg>