<svg xmlns="http://www.w3.org/2000/svg" viewBox="0 0 154.5 253.5"><defs><style>.cls-1{font-size:11.03px;}.cls-1,.cls-4{font-family:Cambria-Bold, Cambria;font-weight:700;}.cls-2{letter-spacing:0.01em;}.cls-3{fill:#7d69a4;}.cls-4{font-size:10.03px;}.cls-4,.cls-6{fill:#fff;}.cls-5{letter-spacing:0.01em;}.cls-7{fill:none;stroke:#000;stroke-miterlimit:10;stroke-width:0.5px;}</style></defs><g id="Capa_2" data-name="Capa 2"><g id="Capa_1-2" data-name="Capa 1"><text class="cls-1" transform="translate(34.39 25.74)">TRA<tspan class="cls-2" x="21.54" y="0">M</tspan><tspan x="30.96" y="0">A INVERSA</tspan></text><path class="cls-3" d="M49.16,46.71a12.06,12.06,0,0,0-12.08,12v19a12.06,12.06,0,0,0,12.08,12h74.66a12.05,12.05,0,0,0,12.07-12v-19a12.05,12.05,0,0,0-12.07-12Z"/><path class="cls-3" d="M49.16,110.91a12.05,12.05,0,0,0-12.08,12v19a12.05,12.05,0,0,0,12.08,12h74.66a12,12,0,0,0,12.07-12v-19a12,12,0,0,0-12.07-12Z"/><path class="cls-3" d="M49.16,175.1a12.06,12.06,0,0,0-12.08,12v19a12.06,12.06,0,0,0,12.08,12h74.66a12.05,12.05,0,0,0,12.07-12v-19a12.05,12.05,0,0,0-12.07-12Z"/><text class="cls-4" transform="translate(72.56 72.2)">FI<tspan class="cls-5" x="9.03" y="0">N</tspan><tspan x="15.94" y="0">AL</tspan></text><text class="cls-4" transform="translate(71.75 136.55)">INICIO</text><text class="cls-4" transform="translate(72.69 200.9)">NUDO</text><path class="cls-6" d="M90.13,96H82.81v3.12H79.63L86.47,111c2.32-4,4.55-7.86,6.88-11.87H90.13Z"/><rect class="cls-6" x="82.91" y="92.82" width="7.16" height="2.48"/><rect class="cls-6" x="82.91" y="90.48" width="7.17" height="1.5"/><path d="M90.13,96v3.07h3.22c-2.33,4-4.56,7.88-6.88,11.87L79.63,99.13h3.18V96Z"/><rect x="82.91" y="92.82" width="7.16" height="2.48"/><rect x="82.91" y="90.48" width="7.17" height="1.5"/><path class="cls-6" d="M90.13,160.16H82.81v3.12H79.63l6.84,11.82c2.32-4,4.55-7.85,6.88-11.87H90.13Z"/><rect class="cls-6" x="82.91" y="156.97" width="7.16" height="2.48"/><rect class="cls-6" x="82.91" y="154.63" width="7.17" height="1.5"/><path d="M90.13,160.16v3.07h3.22c-2.33,4-4.56,7.88-6.88,11.87l-6.84-11.82h3.18v-3.12Z"/><rect x="82.91" y="156.97" width="7.16" height="2.48"/><rect x="82.91" y="154.63" width="7.17" height="1.5"/><path d="M29.38,62c-3.11.39-10.77,2.33-10.77,11.92V194.87s0,12,12.07,12h4.47v-6.36H30.28c-5.7,0-5.7-5.68-5.7-5.68V73.39a5.33,5.33,0,0,1,4.8-5.6Z"/><polygon points="26.39 59.24 26.39 72.92 35.66 66.08 26.39 59.24"/><rect class="cls-7" x="0.25" y="0.25" width="154" height="253" rx="9.78"/></g></g></svg>