<svg xmlns="http://www.w3.org/2000/svg" viewBox="0 0 154.5 253.5"><defs><style>.cls-1{font-size:11.03px;font-family:Cambria-Bold, Cambria;font-weight:700;}.cls-2{letter-spacing:-0.06em;}.cls-3{letter-spacing:0em;}.cls-4{letter-spacing:0.01em;}.cls-5{fill:#ec1f26;}.cls-6{fill:#fff;}.cls-7{fill:none;stroke:#000;stroke-miterlimit:10;stroke-width:0.5px;}</style></defs><g id="Capa_2" data-name="Capa 2"><g id="Capa_1-2" data-name="Capa 1"><text class="cls-1" transform="translate(29.19 30.11)">GÉNER<tspan class="cls-2" x="34.67" y="0">O</tspan><tspan class="cls-3" x="41.69" y="0">: COMED</tspan><tspan class="cls-4" x="84.67" y="0">I</tspan><tspan x="88.63" y="0">A</tspan></text><path class="cls-5" d="M12.17,74.69a7.32,7.32,0,0,0-3.83,4.7,13.83,13.83,0,0,0-.41,7.16s12.62,56.71,17.84,70.19C38.46,189.53,80.94,213,80.94,213s36.05-19.29,47.44-53.4c5.94-17.78,17.41-64.8,17.41-64.8s1.5-5.23.94-8.42a8.07,8.07,0,0,0-3.48-5s-38.38-24.54-65.54-26S12.17,74.69,12.17,74.69"/><path class="cls-6" d="M34.36,125s3.19-8.66,10.87-10.74,15.36,2.32,15.36,2.32-2.13-13.95-13.88-11.88S34.36,125,34.36,125"/><path class="cls-6" d="M121,122.43s-3.56-8.51-11.32-10.25-15.25,3-15.25,3,1.52-14,13.35-12.48S121,122.43,121,122.43"/><path class="cls-6" d="M52.82,146.74S58,163.85,63,170.33c9.4,11.95,19.78,11.19,19.78,11.19s9-1.74,14.56-14.74c3.45-8,5.22-24.76,5.22-24.76s-13,9.69-22.38,10.71-27.39-6-27.39-6"/><rect class="cls-7" x="0.25" y="0.25" width="154" height="253" rx="9.78"/></g></g></svg>