<svg xmlns="http://www.w3.org/2000/svg" viewBox="0 0 154.5 253.5"><defs><style>.cls-1{font-size:11.03px;font-family:Cambria-Bold, Cambria;font-weight:700;}.cls-2{fill:#ec1f26;}.cls-3{fill:none;stroke:#000;stroke-miterlimit:10;stroke-width:0.5px;}</style></defs><g id="Capa_2" data-name="Capa 2"><g id="Capa_1-2" data-name="Capa 1"><text class="cls-1" transform="translate(56.01 30.11)">GÉNERO</text><path class="cls-2" d="M91.42,189.34a16.45,16.45,0,1,0-32.89.19,16.45,16.45,0,0,0,32.89-.19"/><path class="cls-2" d="M81.43,58c2.09.29,4.18.56,6.26.87,9.58,1.43,18.53,4.47,26.15,10.65a33.92,33.92,0,0,1,12.5,21.57c1.08,6.69.71,13.22-2.08,19.48a38.77,38.77,0,0,1-10.86,14.23c-5.24,4.31-10.68,8.39-16.18,12.36-4.61,3.32-8.08,7.36-9.78,12.83a29.24,29.24,0,0,1-1.15,2.79c-2.37,5.63-6.54,7.71-13.39,7.26-7.65-.51-11.76-7.21-11.58-14,.19-7.26,3.62-13,8.74-17.75,4.44-4.12,9.4-7.68,14-11.67a81.22,81.22,0,0,0,8.63-8.47c6.78-7.94,4.8-24.25-10.09-26.82a30.6,30.6,0,0,0-11.91.2C64.72,82.78,61,86.71,58.33,91.91c-1.39,2.74-2.63,5.56-4.16,8.23a14,14,0,0,1-20.49,4.39c-3.49-2.48-4.74-6.09-4.62-10.18a28.9,28.9,0,0,1,6.32-17.16c8.44-10.85,19.8-16.63,33.25-18.68,1-.15,2-.37,3-.55Z"/><path class="cls-2" d="M91.42,189.34A16.45,16.45,0,1,1,74.86,173a16.51,16.51,0,0,1,16.56,16.39"/><rect class="cls-3" x="0.25" y="0.25" width="154" height="253" rx="9.78"/></g></g></svg>