<svg xmlns="http://www.w3.org/2000/svg" viewBox="0 0 154.5 253.5"><defs><style>.cls-1,.cls-7{fill:none;}.cls-1{stroke:#000;stroke-miterlimit:10;stroke-width:0.5px;}.cls-2{font-size:11.03px;font-family:Cambria-Bold, Cambria;font-weight:700;}.cls-3{letter-spacing:-0.06em;}.cls-4{letter-spacing:0em;}.cls-5{letter-spacing:0.01em;}.cls-6{fill:#ec1f26;}.cls-7{stroke:#e91b89;stroke-width:0.49px;}.cls-8{fill:#fff;}</style></defs><g id="Capa_2" data-name="Capa 2"><g id="Capa_1-2" data-name="Capa 1"><rect class="cls-1" x="0.25" y="0.25" width="154" height="253" rx="9.78"/><text class="cls-2" transform="translate(34.07 30.11)">GÉNER<tspan class="cls-3" x="34.67" y="0">O</tspan><tspan class="cls-4" x="41.69" y="0">: DRA</tspan><tspan class="cls-5" x="69.46" y="0">M</tspan><tspan x="78.9" y="0">A</tspan></text><path class="cls-6" d="M10.76,73.22a7.35,7.35,0,0,0-3.83,4.71,13.79,13.79,0,0,0-.41,7.15s12.63,56.72,17.84,70.19c12.69,32.8,55.18,56.21,55.18,56.21s36.05-19.29,47.44-53.4c5.93-17.78,17.4-64.8,17.4-64.8s1.5-5.23.94-8.42a8.07,8.07,0,0,0-3.48-5s-38.38-24.54-65.54-26S10.76,73.22,10.76,73.22"/><path class="cls-7" d="M10.76,73.22a7.35,7.35,0,0,0-3.83,4.71,13.79,13.79,0,0,0-.41,7.15s12.63,56.72,17.84,70.19c12.69,32.8,55.18,56.21,55.18,56.21s36.05-19.29,47.44-53.4c5.93-17.78,17.4-64.8,17.4-64.8s1.5-5.23.94-8.42a8.07,8.07,0,0,0-3.48-5s-38.38-24.54-65.54-26S10.76,73.22,10.76,73.22Z"/><path class="cls-8" d="M60.21,107.32s-.14,9.29-7,14.1S37.1,125,37.1,125s7,12.28,17.95,6,5.16-23.6,5.16-23.6"/><path class="cls-8" d="M95.28,107.32s.14,9.29,7,14.1S118.39,125,118.39,125s-7,12.28-18,6-5.16-23.6-5.16-23.6"/><path class="cls-8" d="M59,173s11.69-7.73,18.94-8c9-.28,18.42,9.55,18.42,9.55s-4.85-16-18.39-15.52C65.51,159.55,59,173,59,173"/></g></g></svg>