<svg xmlns="http://www.w3.org/2000/svg" viewBox="0 0 154.5 253.5"><defs><style>.cls-1{font-size:11.03px;font-family:Cambria-Bold, Cambria;font-weight:700;}.cls-2{letter-spacing:-0.06em;}.cls-3{letter-spacing:0em;}.cls-4{fill:#ec1f26;}.cls-5{fill:none;stroke:#000;stroke-miterlimit:10;stroke-width:0.5px;}</style></defs><g id="Capa_2" data-name="Capa 2"><g id="Capa_1-2" data-name="Capa 1"><text class="cls-1" transform="translate(32.7 30.11)">GÉNER<tspan class="cls-2" x="34.67" y="0">O</tspan><tspan class="cls-3" x="41.69" y="0">: FICCIÓN</tspan></text><path class="cls-4" d="M83.42,159.68a3.3,3.3,0,1,0-3.29-3.32,3.29,3.29,0,0,0,3.29,3.32m-49.57-4.19a3.3,3.3,0,1,0,3.3,3.3,3.29,3.29,0,0,0-3.3-3.3m80.45-15.06a3.27,3.27,0,0,0-3.33,3.25,3.32,3.32,0,0,0,6.64,0,3.28,3.28,0,0,0-3.31-3.29M18,148.82a3.33,3.33,0,1,0,3.34-3.3,3.36,3.36,0,0,0-3.34,3.3M130.77,133.5a3.31,3.31,0,1,0-3.33,3.3,3.31,3.31,0,0,0,3.33-3.3m5.71-14.93a3.33,3.33,0,1,0-3.32,3.33,3.36,3.36,0,0,0,3.32-3.33m-37.26,35.8A3.29,3.29,0,1,0,96,150.94a3.29,3.29,0,0,0,3.24,3.43M53.71,161a3.33,3.33,0,0,0-6.66,0,3.44,3.44,0,0,0,3.32,3.34A3.39,3.39,0,0,0,53.71,161m10-1.21a3.33,3.33,0,1,0,3.33-3.29,3.36,3.36,0,0,0-3.33,3.29m80.39-38.64c-.12.54-.22,1.08-.34,1.61a23.41,23.41,0,0,1-5.17,9.67,61.35,61.35,0,0,1-14.22,12.12,134.19,134.19,0,0,1-31.61,14.6A164.42,164.42,0,0,1,65,165.61,124.26,124.26,0,0,1,43.54,167a67.42,67.42,0,0,1-19-2.91,26.07,26.07,0,0,1-9.84-5.33,12,12,0,0,1-4.27-10.13,17.71,17.71,0,0,1,2.95-8.19,43.41,43.41,0,0,1,9.86-10.6c1.65-1.32,3.38-2.53,5.08-3.79.18-.13.37-.24.59-.38.14.65.24,1.26.42,1.84a12.38,12.38,0,0,0,5.86,7,29.85,29.85,0,0,0,10.51,3.73,65.27,65.27,0,0,0,19,.43,88.34,88.34,0,0,0,30.12-8.69,47.7,47.7,0,0,0,12.6-8.78,22.41,22.41,0,0,0,4.14-5.53,11.22,11.22,0,0,0-.8-12.38l-.56-.8a.87.87,0,0,1,.25-.08,70.54,70.54,0,0,1,19.05,2.77,27.38,27.38,0,0,1,9.85,5,12.56,12.56,0,0,1,4.7,8.1,1.66,1.66,0,0,0,.12.31Z"/><path class="cls-4" d="M57.69,137.67c-6.81-.06-12.25-.56-17.49-2.41a20.19,20.19,0,0,1-5.87-3.11A9.87,9.87,0,0,1,30.5,122a27,27,0,0,1,4.41-10.55C42.33,100.38,52.48,93,65.6,90.32c13.81-2.85,26.64-.1,38.23,8a22.49,22.49,0,0,1,5.87,6,9.72,9.72,0,0,1,.64,10.46,24.2,24.2,0,0,1-6.82,7.93,60,60,0,0,1-16.29,9,87.57,87.57,0,0,1-22.38,5.43c-2.81.3-5.64.44-7.16.55"/><path class="cls-4" d="M63.45,167.28a170.39,170.39,0,0,0,41.41-11,19,19,0,0,1-4.53,4.79,39.12,39.12,0,0,1-14,6.57A44.14,44.14,0,0,1,71,169.1a27.15,27.15,0,0,1-7-1.47,5.32,5.32,0,0,1-.5-.21s0-.06-.09-.14"/><rect class="cls-5" x="0.25" y="0.25" width="154" height="253" rx="9.78"/></g></g></svg>