<svg xmlns="http://www.w3.org/2000/svg" viewBox="0 0 154.5 253.5"><defs><style>.cls-1{font-size:11.03px;font-family:Cambria-Bold, Cambria;font-weight:700;}.cls-2{letter-spacing:-0.06em;}.cls-3{letter-spacing:0em;}.cls-4{fill:#fff;}.cls-5{fill:#ec1f26;}.cls-6{fill:none;stroke:#000;stroke-miterlimit:10;stroke-width:0.5px;}</style></defs><g id="Capa_2" data-name="Capa 2"><g id="Capa_1-2" data-name="Capa 1"><text class="cls-1" transform="translate(27.12 30.11)">GÉNER<tspan class="cls-2" x="34.67" y="0">O</tspan><tspan class="cls-3" x="41.69" y="0">: SUSPENSO</tspan></text><path class="cls-4" d="M119.19,139.09c-.25,1.55-.4,3-.73,4.36-.71,3.07-1.63,6.09-2.26,9.17-1,5-1.91,10-3.35,14.87-1.91,6.48-4.48,12.62-8.64,18a12.37,12.37,0,0,0-1.42,2.47,4.78,4.78,0,0,0,1.11,6c1.07,1,2.34,1.83,3.51,2.74a28.79,28.79,0,0,1,3.22,2.57c1.79,1.87,1.18,4.13-1.23,5a10.66,10.66,0,0,1-5.1.55,16.79,16.79,0,0,1-7.83-3.35c-2.76-2-5.48-4-8.23-6a13,13,0,0,0-5.76-2.38,18.68,18.68,0,0,0-7,.59c-5.58,1.26-11.1,1.34-16.56-.7-3.09-1.15-5.81-2.75-7.58-5.62a2.34,2.34,0,0,0-1.93-1.19c-4.08-.39-8.15-.79-12.23-1.16A7.13,7.13,0,0,1,33,183.28c-.78-.68-1.57-1.35-2.36-2-2.13-1.8-4.26-3.6-6.4-5.38-1.32-1.11-1.95-1.12-3.46-.35a7.59,7.59,0,0,1-2.16.75c-2.28.42-4.29-.46-6.22-1.5s-1.93-2.61-.11-3.75A21,21,0,0,1,16,169.12c3.75-1.39,7.56-2.65,11.33-4,8.69-3.08,16.48-7.59,22.81-14.39a27.64,27.64,0,0,0,5.9-8.61,16.6,16.6,0,0,0,1-4,2.23,2.23,0,0,0-2.25-2.62,11.91,11.91,0,0,0-2.46.06c-4.19.53-8.37,1.14-12.56,1.63a8.23,8.23,0,0,1-8.37-3.64c-1-1.43-.78-2.55.66-3.53a16.62,16.62,0,0,1,2.7-1.51,47.33,47.33,0,0,0,11.76-7.1c3.38-2.94,6.54-6.14,9.73-9.28a21.27,21.27,0,0,0,6.14-12.06c.63-4,1.09-8.08,1.72-12.11a55.29,55.29,0,0,1,5.58-17.8c2.16-4.07,4.91-7.66,9-10a27.52,27.52,0,0,1,20.78-2.93c8.08,1.87,13.85,6.81,17.78,14a49.27,49.27,0,0,1,5.83,24.15c0,5.19-.4,10.37-.52,15.56a44.4,44.4,0,0,0,.48,10.3c1,4.69,3.22,8.62,7.49,11a67.28,67.28,0,0,0,6.57,2.82,56,56,0,0,1,5.63,2.55c1.64,1,1.5,2.47-.22,3.29a25,25,0,0,1-9.78,2.59,18.15,18.15,0,0,1-9.11-2.18l-4.43-2.24"/><path class="cls-5" d="M119.19,139.09l4.43,2.24a18.15,18.15,0,0,0,9.11,2.18,25,25,0,0,0,9.78-2.59c1.72-.82,1.86-2.34.22-3.29a56,56,0,0,0-5.63-2.55,67.28,67.28,0,0,1-6.57-2.82c-4.27-2.41-6.49-6.34-7.49-11a44.4,44.4,0,0,1-.48-10.3c.12-5.19.53-10.37.52-15.56a49.27,49.27,0,0,0-5.83-24.15c-3.93-7.16-9.7-12.1-17.78-14a27.52,27.52,0,0,0-20.78,2.93c-4,2.37-6.79,6-9,10A55.29,55.29,0,0,0,64.16,88c-.63,4-1.09,8.09-1.72,12.11a21.27,21.27,0,0,1-6.14,12.06c-3.19,3.14-6.35,6.34-9.73,9.28a47.33,47.33,0,0,1-11.76,7.1,16.62,16.62,0,0,0-2.7,1.51c-1.44,1-1.63,2.1-.66,3.53a8.23,8.23,0,0,0,8.37,3.64c4.19-.49,8.37-1.1,12.56-1.63a11.91,11.91,0,0,1,2.46-.06,2.23,2.23,0,0,1,2.25,2.62,16.6,16.6,0,0,1-1,4,27.64,27.64,0,0,1-5.9,8.61c-6.33,6.8-14.12,11.31-22.81,14.39-3.77,1.33-7.58,2.59-11.33,4A21,21,0,0,0,12.26,171c-1.82,1.14-1.76,2.73.11,3.75s3.94,1.92,6.22,1.5a7.59,7.59,0,0,0,2.16-.75c1.51-.77,2.14-.76,3.46.35,2.14,1.78,4.27,3.58,6.4,5.38.79.67,1.58,1.34,2.36,2A7.13,7.13,0,0,0,37.16,185c4.08.37,8.15.77,12.23,1.16a2.34,2.34,0,0,1,1.93,1.19c1.77,2.87,4.49,4.47,7.58,5.62,5.46,2,11,2,16.56.7a18.68,18.68,0,0,1,7-.59,13,13,0,0,1,5.76,2.38c2.75,2,5.47,4,8.23,6a16.79,16.79,0,0,0,7.83,3.35,10.66,10.66,0,0,0,5.1-.55c2.41-.92,3-3.18,1.23-5a28.79,28.79,0,0,0-3.22-2.57c-1.17-.91-2.44-1.72-3.51-2.74a4.78,4.78,0,0,1-1.11-6,12.37,12.37,0,0,1,1.42-2.47c4.16-5.4,6.73-11.54,8.64-18,1.44-4.89,2.31-9.89,3.35-14.87.63-3.08,1.55-6.1,2.26-9.17.33-1.38.48-2.81.73-4.36"/><path class="cls-4" d="M91.15,96.16a12.17,12.17,0,0,1-2,6.78,3,3,0,0,1-3.44,1.55,3.2,3.2,0,0,1-2.11-2c-.74-2-1.36-4-2-6a.55.55,0,0,1,0-.31c.67-2.11,1.26-4.25,2.06-6.32a3,3,0,0,1,2.71-2,3.21,3.21,0,0,1,3,1.89,12.59,12.59,0,0,1,1.81,6.47"/><path class="cls-4" d="M108.06,95.63a12.2,12.2,0,0,1-1.58,6.07c-.68,1.27-1.58,2.34-3.16,2.28a3.31,3.31,0,0,1-3-2.49c-.68-1.88-1.22-3.82-1.81-5.74a.92.92,0,0,1,0-.46c.39-1.37.73-2.76,1.21-4.1a10.92,10.92,0,0,1,1.36-2.76,2.74,2.74,0,0,1,4.45-.25,5,5,0,0,1,.79,1.09,12.14,12.14,0,0,1,1.7,6.36"/><path class="cls-4" d="M86.3,106.13c2.87,0,5.2-4.1,5.2-9.16s-2.33-9.17-5.2-9.17S81.1,91.91,81.1,97s2.33,9.16,5.2,9.16"/><path class="cls-4" d="M103.13,104.71c2.87,0,5.2-4.1,5.2-9.16s-2.33-9.17-5.2-9.17-5.2,4.11-5.2,9.17,2.32,9.16,5.2,9.16"/><rect class="cls-6" x="0.25" y="0.25" width="154" height="253" rx="9.78"/></g></g></svg>